<svg width="1472" height="141" viewBox="0 0 1472 141" fill="none" xmlns="http://www.w3.org/2000/svg">
<path d="M253.108 0C254.063 0.0800005 255.013 0.172786 255.957 0.279674C255.957 0.464259 255.957 0.648844 255.957 0.839022C256.697 0.827486 257.438 0.815949 258.2 0.804063C260.554 0.79863 262.576 0.973963 264.826 1.30333C266.453 1.41483 267.886 1.28831 269.501 1.17393C271.777 1.07488 273.996 1.23927 276.254 1.38089C279.197 1.55692 282.044 1.70177 285.014 1.67804C288.658 1.86307 288.658 1.86307 290.053 2.24613C291.656 2.59961 292.883 2.57122 294.638 2.55203C295.306 2.54732 295.975 2.54261 296.664 2.53776C297.379 2.53093 298.094 2.5241 298.831 2.51707C307.183 2.47424 315.431 2.68022 323.713 3.22281C326.744 3.41336 329.787 3.47857 332.838 3.54837C333.721 3.57351 333.721 3.57351 334.622 3.59917C337.844 3.67229 340.63 3.62291 343.736 3.17453C345.041 3.05838 345.85 3.18216 347.117 3.35609C347.834 3.35032 348.551 3.34455 349.289 3.33861C351.649 3.32164 353.866 3.46056 356.198 3.63576C359.463 3.86794 362.553 3.93408 365.848 3.89796C371.42 3.84394 376.718 4.27289 382.126 4.92161C384.241 5.08513 386.323 5.05093 388.46 5.03413C391.488 5.01962 394.452 5.0365 397.469 5.19145C399.685 5.30008 401.7 5.29015 403.914 5.17397C407.22 5.00509 410.396 5.08022 413.699 5.20019C415.697 5.27272 417.657 5.31652 419.66 5.29742C422.006 5.31577 423.116 5.63716 425.173 6.15283C427.212 6.22561 428.939 6.17467 430.942 5.97803C433.649 5.84945 436.008 6.0565 438.678 6.27847C440.359 6.41636 442.031 6.53252 443.726 6.62478C444.161 6.64894 444.597 6.67309 445.045 6.69798C446.269 6.73885 446.269 6.73885 447.48 6.56032C448.533 6.4325 448.533 6.4325 449.672 6.71218C451.121 6.82161 452.563 6.92048 454.017 7.00933C454.419 7.03475 454.822 7.06017 455.236 7.08635C456.23 7.14898 457.224 7.21037 458.219 7.27153C458.595 6.99465 458.971 6.71777 459.358 6.4325C461.423 6.24023 461.423 6.24023 463.346 6.15283C463.91 6.70659 464.474 7.26034 465.056 7.83088C467.367 7.69999 469.309 7.58489 471.323 6.99185C471.699 7.18797 472.075 7.3841 472.462 7.58616C474.008 8.17692 474.008 8.17692 475.376 8.0603C476.508 7.9161 477.621 7.73561 478.73 7.5512C478.824 7.73002 478.918 7.90883 479.015 8.09307C479.855 8.79347 479.855 8.79347 482.077 8.91461C483.532 8.99881 484.231 8.99958 485.544 8.66444C487.009 8.31875 487.82 8.39186 489.413 8.51258C491.628 8.65052 493.484 8.62039 495.702 8.44266C497.897 8.3513 500.059 8.50411 502.241 8.6262C503.742 8.70782 503.742 8.70782 504.934 8.52351C506.535 8.3369 507.814 8.48804 509.425 8.63494C509.999 8.68613 510.574 8.73733 511.165 8.79007C512.031 8.86902 512.031 8.86902 512.915 8.94957C513.529 8.99319 514.143 9.03682 514.775 9.08176C516.458 9.24103 517.004 9.41723 518.043 10.0683C519.575 9.72704 519.575 9.72704 520.891 9.22925C522.445 9.201 523.984 9.19017 525.538 9.1921C526.004 9.19183 526.47 9.19157 526.95 9.19129C527.936 9.1911 528.923 9.19162 529.91 9.19278C531.425 9.19428 532.941 9.1928 534.456 9.19101C535.413 9.19119 536.369 9.19155 537.325 9.1921C537.781 9.19154 538.238 9.19097 538.708 9.19039C541.907 9.1971 541.907 9.1971 542.542 9.50892C543.538 9.5368 544.536 9.54519 545.533 9.54388C546.076 9.5446 546.62 9.54532 547.18 9.54606C548.79 9.54328 548.79 9.54328 550.189 9.29698C552.087 9.20947 552.994 9.58282 554.563 10.0666C556.415 10.5476 558.32 10.6098 560.382 10.6975C560.806 10.719 561.231 10.7404 561.668 10.7625C564.43 10.8934 567.159 10.9427 569.934 10.9084C571.3 10.907 572.541 11.0557 573.878 11.187C576.634 11.2447 579.182 11.2601 581.855 10.9073C583.386 10.8723 583.386 10.8723 584.703 10.9073C584.891 10.9996 585.079 11.0919 585.273 11.187C588.267 11.2462 588.267 11.2462 591.195 11.01C593.624 10.842 595.552 11.3683 597.788 11.7988C599.734 12.0545 600.987 11.9468 602.935 11.7463C603.123 11.8386 603.311 11.9309 603.505 12.026C604.875 12.0393 606.231 12.0387 607.6 12.026C609.776 12.0092 611.785 12.0037 613.932 12.1833C615.52 12.3696 615.52 12.3696 617.179 12.026C619.484 12.1172 621.732 12.2569 624.009 12.4499C632.163 13.1988 632.163 13.1988 639.969 12.3057C641.678 12.5853 641.678 12.5853 642.248 13.1447C643 13.1447 643.752 13.1447 644.527 13.1447C644.903 12.8678 645.279 12.5909 645.667 12.3057C646.86 12.1527 646.86 12.1527 648.231 12.0959C648.683 12.0743 649.135 12.0526 649.602 12.0304C650.794 12.026 650.794 12.026 651.934 12.3057C653.967 12.3707 655.996 12.416 658.032 12.4504C662.011 12.54 662.011 12.54 663.899 13.1447C664.391 13.288 664.391 13.288 664.894 13.4342C665.371 13.5764 665.371 13.5764 665.857 13.7215C667.474 14.1753 668.842 14.4914 670.736 14.5431C671.3 14.3585 671.864 14.1739 672.445 13.9837C674.072 13.9804 674.072 13.9804 675.97 14.0711C676.589 14.0989 677.209 14.1266 677.847 14.1552C679.254 14.2311 680.66 14.3145 682.064 14.4032C684.491 14.554 686.918 14.655 689.359 14.7353C689.777 14.7521 690.195 14.7689 690.625 14.7861C693.034 14.864 694.784 14.8093 696.944 14.2634C696.944 14.5403 696.944 14.8171 696.944 15.1024C697.324 15.0822 697.704 15.062 698.095 15.0412C701.457 14.8751 704.676 14.8158 708.05 14.9221C709.59 14.8785 709.59 14.8785 710.843 14.2557C712.797 13.5296 713.816 13.6316 716.209 13.774C716.871 13.81 717.532 13.8461 718.214 13.8832C718.967 13.933 718.967 13.933 719.734 13.9837C719.922 14.4452 720.11 14.9066 720.304 15.3821C720.864 15.3469 720.864 15.3469 721.435 15.3111C726.016 15.0601 730.317 15.1893 734.879 15.4738C737.261 15.6212 739.023 15.6199 741.385 15.3821C742.442 15.4469 743.499 15.5135 744.552 15.5929C746.274 15.6781 747.952 15.6492 749.682 15.6268C752.725 15.6094 754.691 15.7756 757.338 16.5008C757.526 16.0393 757.714 15.5778 757.908 15.1024C760.614 15.3122 760.614 15.3122 761.896 15.9414C761.896 16.2183 761.896 16.4952 761.896 16.7804C762.704 16.7008 763.511 16.6187 764.317 16.5357C764.767 16.4903 765.216 16.4449 765.679 16.3981C767.024 16.2503 767.024 16.2503 768.121 15.9174C769.735 15.5681 770.94 15.6495 772.686 15.7317C773.266 15.7562 773.847 15.7807 774.446 15.806C776.264 15.9513 778.211 16.1192 779.558 16.7804C780.972 16.8255 782.38 16.8585 783.796 16.8853C786.554 16.9497 789.036 17.0472 791.665 17.4971C794.253 17.9317 796.481 17.9484 799.201 17.909C801.652 17.897 804.071 17.9778 806.515 18.0565C810.675 18.1851 814.616 18.1094 818.771 17.9341C821.14 17.8883 822.881 18.1222 825.138 18.4585C826.468 18.4688 827.797 18.4718 829.127 18.4585C829.315 18.5508 829.503 18.6431 829.696 18.7382C831.002 18.7516 832.308 18.7485 833.613 18.7382C836.906 18.7194 840.109 18.7919 843.384 18.984C843.755 18.9952 844.127 19.0063 844.51 19.0178C844.698 18.9255 844.886 18.8333 845.08 18.7382C848.454 18.5799 851.751 18.7913 855.086 19.0353C858.407 19.2732 861.151 19.2692 864.451 19.0178C864.639 19.1101 864.827 19.2024 865.021 19.2975C866.35 19.3098 867.68 19.3086 869.009 19.2975C871.288 19.2975 871.288 19.2975 872.677 19.4548C874.313 19.5919 875.387 19.4987 876.986 19.2975C877.42 19.2456 877.855 19.1937 878.303 19.1402C878.779 19.0796 878.779 19.0796 879.265 19.0178C879.453 19.2947 879.641 19.5716 879.834 19.8569C880.363 19.8107 880.892 19.7646 881.437 19.717C885.677 19.4269 889.699 19.4753 893.844 19.9923C896.532 20.2746 899.308 20.3878 902.055 20.4162C902.243 20.3239 902.431 20.2316 902.624 20.1365C905.414 20.0713 907.874 20.1208 910.601 20.4162C913.692 20.749 916.787 20.91 919.893 20.5386C921.877 20.3802 923.571 20.5017 925.557 20.6434C926.619 20.7154 926.619 20.7154 927.702 20.7887C928.544 20.8812 928.544 20.8812 929.403 20.9756C929.591 21.1601 929.779 21.3447 929.972 21.5349C931.085 21.5167 932.198 21.4985 933.311 21.4803C934.53 21.5349 934.53 21.5349 935.654 21.8157C937.043 22.1507 937.943 22.1421 939.48 22.1117C941.325 22.092 943.066 22.1101 944.893 22.2341C949.914 22.5433 955.144 22.6193 959.978 21.8539C963.764 21.2949 965.988 21.2227 969.67 21.9184C971.212 22.1231 972.012 22.0429 973.523 21.8146C974.193 21.7223 974.862 21.63 975.553 21.5349C976.478 21.9369 976.478 21.9369 977.262 22.3739C977.772 22.3321 978.283 22.2903 978.809 22.2472C982.998 21.9049 987.504 22.588 991.506 23.213C991.694 22.7515 991.882 22.29 992.075 21.8146C992.451 21.8146 992.827 21.8146 993.215 21.8146C993.591 21.4454 993.967 21.0762 994.354 20.6959C995.58 20.8532 996.802 21.0177 998.022 21.1853C998.703 21.2762 999.384 21.367 1000.09 21.4606C1001.76 21.8146 1001.76 21.8146 1002.28 22.4133C1002.3 22.5849 1002.31 22.7565 1002.33 22.9333C1003.83 22.9333 1005.34 22.9333 1006.89 22.9333C1006.89 22.6564 1006.89 22.3795 1006.89 22.0943C1010.62 21.9906 1010.62 21.9906 1011.87 22.4963C1012.11 22.6405 1012.34 22.7847 1012.59 22.9333C1013.15 23.0256 1013.71 23.1179 1014.3 23.213C1014.67 23.4898 1015.05 23.7667 1015.44 24.052C1017.71 23.8794 1017.71 23.8794 1019.95 23.6211C1021.25 23.4803 1022.33 23.4815 1023.65 23.5167C1024.13 23.5288 1024.6 23.5409 1025.1 23.5533C1025.6 23.5679 1026.1 23.5825 1026.62 23.5975C1027.39 23.618 1027.39 23.618 1028.17 23.639C1031.14 23.7211 1034.08 23.8373 1037.03 23.9984C1039.63 24.1149 1042.25 24.1708 1044.81 23.8947C1046.39 23.7556 1047.74 23.8477 1049.32 23.9591C1051.2 24.0802 1053.07 24.1656 1054.96 24.2443C1055.65 24.2742 1056.33 24.3041 1057.04 24.3349C1058.8 24.4292 1058.8 24.4292 1059.88 23.7723C1061.2 23.7602 1062.53 23.7611 1063.86 23.7723C1064.28 23.7088 1064.69 23.6454 1065.11 23.58C1065.45 23.5512 1065.79 23.5223 1066.14 23.4926C1066.65 23.683 1066.65 23.683 1067.18 23.8772C1068.85 24.488 1070.37 24.4836 1072.41 24.6113C1072.97 24.7959 1073.54 24.9805 1074.12 25.1707C1075.98 25.2214 1077.65 25.2173 1079.48 25.0299C1080.98 24.8887 1082.35 24.8548 1083.88 24.8539C1084.42 24.8535 1084.96 24.8531 1085.52 24.8528C1086.08 24.8538 1086.65 24.8549 1087.22 24.856C1087.78 24.855 1088.35 24.8539 1088.92 24.8528C1089.74 24.8533 1089.74 24.8533 1090.57 24.8539C1091.06 24.8542 1091.56 24.8545 1092.06 24.8548C1093.54 24.8922 1094.89 25.026 1096.34 25.1707C1097.17 25.1949 1098 25.2072 1098.83 25.2078C1099.31 25.2084 1099.78 25.2089 1100.27 25.2095C1100.77 25.2082 1101.27 25.207 1101.79 25.2056C1102.31 25.2049 1102.84 25.2041 1103.37 25.2034C1107.06 25.1912 1110.74 25.1373 1114.43 25.0483C1114.88 25.0374 1115.34 25.0264 1115.8 25.0151C1118.45 24.9438 1121.05 24.8147 1123.67 24.6123C1125.09 24.6111 1125.86 24.8475 1127.11 25.1707C1128.97 25.2207 1130.65 25.2155 1132.48 25.0308C1135.28 24.7627 1138.04 24.8515 1140.85 25.0308C1143.8 25.2124 1146.74 25.1794 1149.71 25.1532C1151.61 25.1707 1151.61 25.1707 1153.33 25.3356C1155.35 25.4721 1156.73 25.3037 1158.69 25.0483C1163.93 24.4501 1169.1 24.3559 1174.4 24.891C1175.2 24.8961 1176.01 24.8904 1176.82 24.8735C1178.68 24.857 1180.19 24.9556 1181.98 25.2056C1184.78 25.5566 1187.16 25.3045 1189.95 25.0057C1191.53 24.888 1192.26 24.9777 1193.77 25.1707C1194.54 25.2066 1195.31 25.2325 1196.09 25.2493C1196.52 25.2598 1196.94 25.2702 1197.38 25.281C1198.28 25.3008 1199.18 25.3205 1200.07 25.34C1203.39 25.4218 1203.39 25.4218 1204.02 25.73C1205.13 25.7579 1206.23 25.7663 1207.33 25.765C1207.94 25.7657 1208.54 25.7664 1209.16 25.7672C1210.79 25.7597 1210.79 25.7597 1212.07 25.5793C1213.35 25.4255 1214.27 25.4896 1215.56 25.5902C1217.61 25.7176 1219.41 25.6963 1221.47 25.5432C1223.29 25.4182 1225.12 25.3354 1226.96 25.2581C1227.96 25.2132 1227.96 25.2132 1228.99 25.1674C1230.8 25.1707 1230.8 25.1707 1231.81 25.4465C1233.56 25.838 1235.03 25.7977 1236.95 25.7945C1237.32 25.7943 1237.69 25.7942 1238.08 25.7941C1238.87 25.7932 1239.66 25.791 1240.45 25.7876C1241.64 25.7825 1242.83 25.7818 1244.02 25.7819C1247.92 25.7767 1251.77 25.7084 1255.65 25.5095C1258.34 25.3924 1261.04 25.4611 1263.74 25.4951C1265.65 25.5244 1265.65 25.5244 1267.27 24.891C1268.95 24.8265 1268.95 24.8265 1270.9 24.8386C1271.54 24.8404 1272.18 24.8422 1272.83 24.844C1274.47 24.8858 1275.92 25.0088 1277.52 25.1707C1281.26 25.2692 1284.96 25.1388 1288.68 24.9729C1291.06 24.8725 1293.44 24.7908 1295.82 24.7162C1296.25 24.7016 1296.68 24.687 1297.11 24.672C1300.18 24.5789 1300.18 24.5789 1301.45 24.891C1303.14 24.9186 1304.82 24.9299 1306.51 24.926C1307.2 24.9276 1307.2 24.9276 1307.92 24.9292C1308.37 24.9289 1308.82 24.9285 1309.28 24.9281C1309.9 24.9277 1309.9 24.9277 1310.52 24.9272C1311.72 24.9104 1311.72 24.9104 1312.89 24.7314C1313.98 24.6113 1313.98 24.6113 1315.69 24.891C1316.91 24.9457 1318.14 24.9871 1319.36 25.021C1320.09 25.0428 1320.83 25.0646 1321.59 25.0871C1323.12 25.131 1324.66 25.1736 1326.19 25.216C1338.54 25.5853 1338.54 25.5853 1341.23 26.639C1342.08 27.6091 1341.83 28.0678 1341.33 29.0861C1340.61 29.746 1340.61 29.746 1339.73 30.4146C1338.09 31.8235 1337.26 33.1793 1336.56 34.7495C1336.47 34.961 1336.37 35.1726 1336.27 35.3905C1335.74 36.6674 1335.6 37.847 1335.64 39.1544C1335.47 39.7155 1335.29 40.2759 1335.07 40.8324C1336.37 40.84 1337.68 40.8454 1338.98 40.8499C1340.07 40.8548 1340.07 40.8548 1341.19 40.8597C1342.98 40.8972 1342.98 40.8972 1344.18 40.5527C1344.56 40.645 1344.93 40.7373 1345.32 40.8324C1347.13 40.8737 1348.75 40.8314 1350.54 40.6773C1353.04 40.535 1355.26 40.6142 1357.75 40.7625C1358.18 40.7834 1358.62 40.8043 1359.07 40.8259C1360.32 40.898 1360.32 40.898 1362.41 41.1121C1363.85 42.1727 1363.76 42.6449 1363.55 43.9088C1362.45 46.1115 1362.45 46.1115 1360.95 46.8924C1359.64 47.9383 1359.88 49.034 1359.85 50.2365C1359.73 52.2461 1359.46 54.0563 1357.86 55.9348C1357.48 55.9348 1357.1 55.9348 1356.72 55.9348C1356.55 56.1944 1356.39 56.454 1356.22 56.7214C1355.1 58.2781 1355.1 58.2781 1353.46 58.7075C1349.64 59.3421 1345.92 59.4654 1341.9 59.5706C1340.51 59.6214 1339.12 59.6738 1337.74 59.7279C1336.12 59.7891 1336.12 59.7891 1334.5 59.8503C1334.02 61.6182 1333.67 63.3875 1333.36 65.1641C1333.79 65.0725 1334.23 64.9809 1334.68 64.8866C1336.26 64.5945 1337.38 64.5579 1339.05 64.6047C1339.34 65.1585 1339.34 65.1585 1339.62 65.7234C1344.79 65.9899 1344.79 65.9899 1349.95 65.8633C1352.16 65.7234 1352.16 65.7234 1353.87 66.0031C1354.06 65.7262 1354.24 65.4493 1354.44 65.1641C1355.84 65.1415 1357.24 65.1248 1358.64 65.1116C1359.04 65.1046 1359.44 65.0976 1359.85 65.0903C1361 65.0821 1361 65.0821 1362.98 65.1641C1363.36 65.441 1363.74 65.7178 1364.12 66.0031C1365.63 65.9108 1367.13 65.8185 1368.68 65.7234C1368.68 65.908 1368.68 66.0926 1368.68 66.2828C1370.18 66.3751 1371.69 66.4673 1373.24 66.5624C1373.43 66.1933 1373.61 65.8241 1373.81 65.4437C1374.18 65.6283 1374.56 65.8129 1374.95 66.0031C1375.7 66.0031 1376.45 66.0031 1377.23 66.0031C1377.6 65.8185 1377.98 65.6339 1378.37 65.4437C1379.58 65.3476 1379.58 65.3476 1381.04 65.3039C1382.94 65.2357 1384.21 65.1369 1386.02 64.797C1388.7 64.5435 1390.25 64.9234 1392.73 65.4142C1394.19 65.6986 1395.61 65.9326 1397.13 66.1255C1397.53 66.177 1397.92 66.2286 1398.32 66.2817C1399.52 66.3412 1399.52 66.3412 1400.48 65.8676C1402.3 65.2487 1403.57 65.4236 1405.75 65.5311C1409.88 65.7159 1413.94 65.7371 1418.08 65.6637C1420.72 65.6389 1421.92 65.7608 1423.95 66.5624C1425.5 66.5609 1425.5 66.5609 1427.15 66.4051C1430.85 66.1967 1433.2 66.6119 1436.48 67.4015C1436.97 67.4927 1437.46 67.5839 1437.97 67.6779C1439.83 68.0648 1440.87 68.6115 1442.18 69.3592C1443.34 71.0459 1443.33 73.1275 1441.97 74.7779C1440.27 76.1289 1437.76 76.6824 1434.77 77.1901C1432.36 77.3522 1430.01 77.3365 1427.58 77.2949C1426.96 77.291 1426.35 77.287 1425.71 77.2829C1423.08 77.2593 1420.49 77.2049 1417.88 77.0262C1416.05 76.8272 1416.05 76.8272 1414.83 77.1901C1413.22 77.2176 1411.63 77.2289 1410.02 77.225C1409.58 77.2261 1409.14 77.2272 1408.68 77.2283C1406.79 77.2267 1405.24 77.2059 1403.44 76.9104C1402.36 76.9748 1401.29 77.0407 1400.22 77.1155C1397.73 77.2537 1395.25 77.2302 1392.75 77.225C1392.22 77.2261 1391.69 77.2272 1391.14 77.2283C1390.63 77.2279 1390.12 77.2276 1389.59 77.2272C1389.13 77.2269 1388.67 77.2266 1388.2 77.2262C1386.91 77.1901 1386.91 77.1901 1385.72 77.0392C1384.52 76.8608 1384.52 76.8608 1382.81 77.0502C1380.29 77.2129 1378.15 77.0844 1375.66 76.9104C1372.2 76.6925 1369.08 76.6185 1365.6 76.8481C1363.3 76.9449 1361.07 76.8059 1358.78 76.6744C1357.35 76.6326 1356.38 76.733 1355.01 76.9104C1354.63 76.8181 1354.25 76.7258 1353.87 76.6307C1349.54 76.4227 1346.06 76.6752 1342.06 77.5047C1340.76 77.7494 1340.76 77.7494 1339.05 77.7494C1339.05 78.0263 1339.05 78.3032 1339.05 78.5884C1339.52 78.6256 1339.99 78.6627 1340.47 78.701C1341.08 78.7503 1341.7 78.7997 1342.33 78.8506C1343.24 78.9236 1343.24 78.9236 1344.17 78.9981C1345.12 79.081 1346.07 79.1712 1347.01 79.2909C1348.69 79.488 1350.38 79.5709 1352.09 79.6722C1355.75 79.898 1359.32 80.2439 1362.92 80.6401C1365.6 80.9208 1368.22 81.1055 1370.96 81.1055C1371.52 81.2901 1372.09 81.4747 1372.67 81.6648C1376.81 82.2948 1380.95 82.6321 1385.25 82.8414C1386.93 82.9316 1388.42 83.0211 1389.98 83.3429C1391.48 83.6247 1392.58 83.6768 1394.18 83.7274C1397.23 83.8505 1399.58 84.3494 1402.3 85.0209C1405.04 85.6418 1407.89 85.8751 1410.84 86.1396C1411.12 86.5549 1411.12 86.5549 1411.41 86.9787C1412.6 87.0932 1413.78 87.2065 1414.97 87.314C1417.51 87.6768 1419.61 88.3731 1421.84 89.0598C1423.17 89.4364 1424.16 89.6481 1425.66 89.7754C1425.66 89.96 1425.66 90.1446 1425.66 90.3347C1426.97 90.5193 1428.29 90.7039 1429.64 90.8941C1429.64 91.0787 1429.64 91.2633 1429.64 91.4534C1430.02 91.4534 1430.4 91.4534 1430.78 91.4534C1432.49 92.4215 1432.49 92.4215 1432.49 93.1315C1432.86 93.2122 1433.22 93.293 1433.6 93.3762C1434.77 93.6908 1434.77 93.6908 1435.34 94.2502C1435.66 95.5924 1435.05 96.3176 1433.64 97.4173C1432.98 97.9227 1432.98 97.9227 1432.46 98.69C1432.28 98.8861 1432.1 99.0822 1431.92 99.2843C1431.36 99.3766 1430.8 99.4689 1430.21 99.564C1430.04 100.129 1429.86 100.694 1429.68 101.26C1429.57 101.592 1429.47 101.925 1429.36 102.268C1429.15 102.939 1428.97 103.611 1428.79 104.283C1428.15 106.255 1426.89 108.267 1424.52 109.912C1423 110.331 1422.1 110.494 1420.37 110.404C1419.95 110.345 1419.53 110.287 1419.1 110.227C1415.79 109.791 1415.79 109.791 1412.55 110.192C1412.55 110.007 1412.55 109.822 1412.55 109.632C1408.28 109.183 1404.53 109.036 1400.19 109.299C1399.54 109.326 1399.54 109.326 1398.88 109.353C1398.6 109.214 1398.6 109.214 1398.31 109.073C1396.17 108.965 1394.01 108.941 1391.86 108.898C1391.26 108.884 1390.66 108.869 1390.03 108.854C1389.45 108.842 1388.87 108.83 1388.27 108.817C1387.74 108.806 1387.21 108.794 1386.66 108.783C1385.29 108.793 1384.23 108.897 1382.92 109.073C1379.88 109.13 1376.93 108.992 1373.92 108.811C1373.48 108.786 1373.05 108.762 1372.6 108.737C1369.4 108.549 1369.4 108.549 1368.11 108.234C1367.68 108.378 1367.24 108.522 1366.79 108.671C1363.99 109.208 1362.09 108.9 1359.19 108.63C1356.85 108.487 1355 108.64 1352.74 108.931C1350.1 109.256 1347.26 108.956 1344.59 108.827C1343.06 108.732 1343.06 108.732 1341.9 109.073C1341.02 109.092 1340.15 109.097 1339.27 109.09C1338.8 109.088 1338.34 109.085 1337.86 109.083C1337.32 109.078 1337.32 109.078 1336.77 109.073C1336.77 109.257 1336.77 109.442 1336.77 109.632C1337.23 109.546 1337.23 109.546 1337.7 109.457C1339.05 109.353 1339.05 109.353 1340.73 109.632C1342.66 109.943 1343.38 109.841 1345.32 109.632C1346.65 109.717 1347.98 109.811 1349.31 109.912C1350.01 109.9 1350.72 109.889 1351.45 109.877C1353.6 109.918 1353.61 110.039 1355.01 110.751C1356.98 111.006 1356.98 111.006 1359 111.031C1359.56 110.846 1360.12 110.661 1360.7 110.471C1362.32 110.56 1363.75 110.782 1365.3 111.031C1367.2 111.311 1369.02 111.374 1371 111.433C1373.7 111.525 1375.4 111.79 1377.8 112.429C1379.17 112.596 1380.53 112.723 1381.92 112.841C1383.49 112.988 1383.49 112.988 1385.62 113.282C1388.25 113.611 1390.77 113.611 1393.47 113.583C1393.93 113.58 1394.4 113.578 1394.88 113.575C1396.03 113.568 1397.17 113.558 1398.31 113.548C1398.5 113.179 1398.68 112.809 1398.88 112.429C1398.88 112.89 1398.88 113.352 1398.88 113.827C1399.57 113.862 1400.26 113.897 1400.98 113.932C1403.28 114.059 1405.56 114.207 1407.85 114.369C1408.46 114.412 1409.07 114.455 1409.69 114.499C1411.41 114.666 1411.41 114.666 1412.88 114.973C1414.5 115.269 1415.45 115.219 1417.15 115.086C1419.36 114.912 1420.28 115.003 1422.24 115.505C1423.84 115.632 1423.84 115.632 1425.51 115.68C1426.07 115.701 1426.64 115.722 1427.21 115.744C1427.64 115.757 1428.07 115.771 1428.5 115.785C1428.79 116.2 1428.79 116.2 1429.07 116.624C1431.54 116.884 1433.44 116.884 1435.91 116.624C1435.91 116.809 1435.91 116.993 1435.91 117.183C1436.35 117.2 1436.79 117.217 1437.24 117.235C1437.81 117.258 1438.39 117.282 1438.97 117.306C1439.54 117.329 1440.11 117.351 1440.7 117.375C1442.18 117.463 1442.18 117.463 1443.32 117.743C1445.68 117.812 1445.68 117.812 1447.88 117.463C1448.18 117.636 1448.49 117.809 1448.8 117.988C1451.48 119.162 1454.7 119.246 1458.13 119.421C1458.41 119.836 1458.41 119.836 1458.7 120.26C1459.74 120.518 1459.74 120.518 1461.02 120.679C1461.7 120.783 1461.7 120.783 1462.41 120.889C1463.11 120.993 1463.11 120.993 1463.83 121.099C1465.4 121.346 1466.86 121.618 1468.39 121.938C1468.67 122.353 1468.67 122.353 1468.96 122.777C1470.09 122.962 1470.09 122.962 1471.24 123.057C1472.25 123.552 1471.95 124.238 1471.98 124.909C1471.96 126.548 1471.43 127.325 1469.53 128.65C1467.58 130.112 1466.93 131.26 1466.39 132.985C1466.05 133.819 1465.32 134.368 1464.4 135.083C1464.23 135.471 1464.07 135.862 1463.94 136.254C1463.3 137.82 1461.77 139.121 1459.84 140.396C1457.81 141.061 1457.11 141.045 1454.71 140.956C1454.06 140.863 1453.4 140.771 1452.72 140.676C1449.93 140.298 1447.19 140.379 1444.32 140.431C1442.56 140.403 1441.16 140.304 1439.46 140.118C1436.38 139.793 1433.46 139.783 1430.32 139.82C1427.33 139.847 1424.6 139.867 1421.67 139.557C1421.1 139.65 1420.54 139.742 1419.96 139.837C1417.65 139.822 1415.35 139.732 1413.05 139.65C1411.93 139.61 1410.8 139.575 1409.68 139.539C1406.15 139.419 1402.77 139.262 1399.34 138.842C1395.22 138.347 1390.86 138.416 1386.65 138.483C1385.2 138.439 1385.2 138.439 1383.49 137.879C1381.09 137.819 1378.86 137.873 1376.48 138.037C1374.38 138.159 1374.38 138.159 1372.67 137.879C1370.7 137.842 1368.88 137.863 1366.94 138.019C1362.12 138.32 1357.41 138.319 1352.71 137.707C1350.88 137.532 1349.41 137.676 1347.6 137.879C1347.32 138.018 1347.32 138.018 1347.03 138.159C1346.09 138.118 1345.15 138.063 1344.22 138.002C1341.38 137.855 1339.13 138.003 1336.37 138.321C1333.64 138.567 1331.64 138.343 1329.37 137.6C1327.61 137.53 1327.61 137.53 1325.95 137.6C1325.67 137.738 1325.67 137.738 1325.38 137.879C1321.98 137.994 1318.62 137.851 1315.25 137.634C1314.01 137.568 1314.01 137.568 1312.96 137.734C1310.38 138.034 1307.68 137.943 1305.05 137.949C1304.15 137.958 1304.15 137.958 1303.23 137.967C1299.43 137.976 1296.43 137.72 1292.9 137.04C1290.24 136.642 1287.73 136.38 1284.93 136.481C1284.65 136.619 1284.65 136.619 1284.36 136.761C1282.25 136.781 1280.15 136.76 1278.05 136.743C1275.44 136.764 1272.97 136.945 1270.4 137.158C1265.4 137.496 1260.75 136.978 1255.87 136.481C1255.68 136.758 1255.49 137.035 1255.3 137.32C1254.36 137.412 1253.42 137.505 1252.45 137.6C1252.45 137.231 1252.45 136.861 1252.45 136.481C1251.71 136.484 1250.97 136.487 1250.2 136.491C1249.22 136.493 1248.24 136.496 1247.25 136.498C1246.76 136.501 1246.28 136.503 1245.77 136.506C1245.06 136.507 1245.06 136.507 1244.33 136.508C1243.67 136.51 1243.67 136.51 1243.01 136.513C1241.63 136.481 1241.63 136.481 1240.01 136.335C1237.96 136.183 1236.1 136.211 1234.03 136.265C1233.22 136.282 1232.42 136.3 1231.62 136.317C1230.37 136.346 1229.13 136.376 1227.88 136.409C1226.66 136.441 1225.45 136.467 1224.23 136.492C1223.51 136.51 1222.79 136.528 1222.05 136.546C1219.59 136.469 1218.19 136.17 1215.99 135.642C1212.51 134.924 1209.79 135.187 1206.18 135.527C1204.59 135.642 1204.59 135.642 1203.45 135.362C1202.36 135.38 1202.36 135.38 1201.14 135.467C1200.69 135.495 1200.23 135.523 1199.77 135.552C1199.05 135.597 1199.05 135.597 1198.33 135.642C1196.95 135.71 1195.57 135.777 1194.19 135.843C1193.18 135.874 1193.18 135.874 1192.63 136.201C1191.61 136.183 1190.58 136.145 1189.57 136.096C1189.01 136.071 1188.45 136.046 1187.88 136.02C1186.36 135.922 1186.36 135.922 1184.65 135.642C1184.46 135.827 1184.28 136.011 1184.08 136.201C1183.52 136.156 1182.96 136.11 1182.38 136.063C1180.03 135.899 1177.72 135.886 1175.34 135.894C1174.69 135.895 1174.69 135.895 1174.02 135.896C1172.64 135.897 1171.25 135.901 1169.87 135.904C1168.93 135.906 1167.99 135.907 1167.05 135.908C1164.75 135.911 1162.45 135.916 1160.15 135.922C1159.91 136.192 1159.91 136.192 1159.66 136.468C1159.01 137.04 1159.01 137.04 1157.8 137.25C1157.45 137.273 1157.1 137.296 1156.73 137.32C1156.36 137.043 1155.98 136.766 1155.59 136.481C1150.92 135.716 1144.97 136.216 1140.35 136.911C1138.66 137.082 1137.1 137.046 1135.37 137.016C1134.29 136.998 1134.29 136.998 1133.19 136.979C1132.44 136.965 1131.69 136.95 1130.92 136.935C1129.8 136.917 1129.8 136.917 1128.66 136.898C1123.07 136.798 1123.07 136.798 1120.55 136.618C1117.12 136.382 1113.68 136.429 1110.23 136.429C1109.48 136.425 1108.74 136.422 1107.97 136.418C1106.89 136.417 1106.89 136.417 1105.79 136.417C1105.14 136.415 1104.49 136.414 1103.81 136.413C1102.03 136.481 1100.81 136.684 1099.19 137.04C1097.89 137.105 1097.89 137.105 1096.62 137.093C1096.21 137.091 1095.79 137.089 1095.36 137.087C1094.06 137.04 1094.06 137.04 1092.8 136.886C1090.5 136.704 1088.33 136.821 1086.01 136.935C1085.55 136.952 1085.09 136.968 1084.61 136.985C1083.33 137.048 1082.18 137.12 1080.96 137.32C1079.75 137.994 1079.75 137.994 1079.25 138.718C1076.89 138.548 1075.09 138.139 1072.98 137.6C1071.35 137.284 1071.35 137.284 1069.88 137.32C1068.42 137.32 1068.42 137.32 1067.35 137.18C1064.65 136.868 1062.73 136.89 1060.27 137.53C1058.86 138.106 1058.2 138.446 1057.6 139.278C1055.68 139.065 1053.88 138.754 1052.04 138.421C1051.48 138.32 1050.92 138.219 1050.34 138.114C1049.92 138.037 1049.49 137.959 1049.05 137.879C1048.86 138.156 1048.67 138.433 1048.48 138.718C1046.38 138.62 1045.25 138.511 1043.57 137.862C1041.09 137.163 1039.27 137.242 1036.46 137.308C1034.86 137.32 1033.52 137.201 1031.96 137.04C1031.49 137.086 1031.02 137.133 1030.53 137.18C1029.11 137.32 1029.11 137.32 1027.68 137.163C1026.25 136.975 1026.25 136.975 1024.91 137.308C1020.5 138.164 1014.96 137.51 1010.37 137.215C1007.74 137.052 1007.74 137.052 1005.18 137.32C1004.17 137.369 1003.16 137.409 1002.15 137.442C999.746 137.54 997.781 137.777 995.494 138.159C990.199 138.603 985.717 138.387 980.691 137.497C979.322 137.286 978.118 137.252 976.692 137.32C976.692 137.781 976.692 138.243 976.692 138.718C976.128 138.718 975.564 138.718 974.983 138.718C974.983 138.441 974.983 138.165 974.983 137.879C974.371 137.926 973.759 137.973 973.129 138.021C972.311 138.079 971.492 138.137 970.674 138.194C970.273 138.225 969.871 138.257 969.458 138.289C966.616 138.482 964.643 138.325 961.879 137.879C960.448 137.748 959.011 137.631 957.57 137.53C956.852 137.476 956.135 137.423 955.395 137.368C953.224 137.317 951.928 137.512 949.914 137.879C948.458 137.934 948.458 137.934 947.136 137.914C946.691 137.909 946.246 137.904 945.787 137.899C945.292 137.889 945.292 137.889 944.786 137.879C944.786 137.695 944.786 137.51 944.786 137.32C943.95 137.355 943.95 137.355 943.097 137.391C936.4 137.646 931.776 137.499 925.497 136.261C921.373 135.479 918.359 135.322 914.019 135.642C912.31 135.52 912.31 135.52 911.171 135.362C910.983 135.547 910.795 135.731 910.601 135.922C910.119 135.824 909.637 135.726 909.141 135.624C907.254 135.372 906.288 135.416 904.415 135.566C901.872 135.725 899.309 135.705 896.749 135.712C896.19 135.718 895.63 135.723 895.054 135.729C891.208 135.739 888.005 135.439 884.392 134.803C883.054 134.576 881.792 134.396 880.404 134.244C879.84 134.428 879.276 134.613 878.695 134.803C876.863 134.867 876.863 134.867 874.742 134.855C874.044 134.854 873.345 134.852 872.626 134.85C871.096 134.812 869.901 134.707 868.439 134.523C867.887 134.587 867.335 134.65 866.766 134.716C863.949 134.96 861.455 134.376 858.811 133.945C856.703 133.634 855.228 133.545 853.056 133.684C852.492 133.869 851.928 134.053 851.347 134.244C849.546 134.186 849.546 134.186 847.323 134.016C843.91 133.772 840.549 133.627 837.103 133.562C832.247 133.461 827.603 133.07 822.859 132.566C822.859 132.381 822.859 132.196 822.859 132.006C822.377 132.15 821.896 132.295 821.399 132.443C819.04 132.928 817.949 132.759 815.453 132.566C814.052 132.554 812.651 132.554 811.251 132.566C808.878 132.577 806.614 132.574 804.271 132.391C801.468 132.197 798.847 132.479 796.09 132.74C794.372 132.845 793.177 132.799 791.523 132.566C791.335 132.473 791.147 132.381 790.953 132.286C787.853 132.022 784.726 131.993 781.588 132.006C772.763 132.037 772.763 132.037 770.409 131.418C768.984 131.095 768.526 131.258 767.024 131.447C765.903 131.488 764.78 131.516 763.656 131.535C762.998 131.547 762.339 131.559 761.661 131.571C760.975 131.582 760.288 131.593 759.581 131.604C758.91 131.616 758.239 131.628 757.548 131.641C754.5 131.693 751.459 131.733 748.409 131.725C745.265 131.718 742.138 131.787 738.999 131.866C728.869 132.121 728.869 132.121 726.002 131.727C725.814 131.819 725.626 131.911 725.432 132.006C724.057 132.054 722.696 132.086 721.319 132.105C720.902 132.111 720.485 132.117 720.055 132.124C719.168 132.137 718.281 132.15 717.394 132.162C716.052 132.181 714.711 132.203 713.369 132.225C706.177 132.333 706.177 132.333 703.051 132.135C701.099 132.016 699.957 132.077 698.084 132.286C696.812 132.261 695.542 132.218 694.274 132.164C689.22 131.968 684.176 131.99 679.11 132.017C678.185 132.02 678.185 132.02 677.241 132.024C676.688 132.027 676.134 132.03 675.563 132.034C674.154 132.006 674.154 132.006 672.445 131.727C668.44 131.476 664.739 131.314 660.834 131.854C658.282 132.114 655.687 132.136 653.088 132.19C651.396 132.228 649.771 132.274 648.108 132.44C646.666 132.579 645.521 132.546 644.064 132.461C643.313 132.42 643.313 132.42 642.546 132.378C641.363 132.302 640.184 132.209 639.008 132.111C636.026 131.918 633.05 132.101 630.065 132.213C626.659 132.334 623.418 132.325 620.028 132.129C617.769 132.006 615.798 132.058 613.558 132.215C610.798 132.345 608.02 132.29 605.25 132.268C603.577 132.186 603.577 132.186 602.935 132.566C601.887 132.498 600.838 132.429 599.79 132.359C594.586 132.091 589.325 132.342 584.134 132.566C577.832 132.837 571.655 133.01 565.365 132.599C564.078 132.526 564.078 132.526 562.483 132.845C560.875 132.872 559.284 132.884 557.676 132.88C557.241 132.881 556.806 132.882 556.357 132.883C555.935 132.883 555.513 132.883 555.079 132.882C554.696 132.882 554.313 132.882 553.918 132.881C552.727 132.843 551.67 132.714 550.518 132.566C549.746 132.567 548.974 132.579 548.204 132.601C546.046 132.62 544.315 132.442 542.257 132.129C539.7 131.753 537.948 131.735 535.349 131.954C533.672 132.019 532.259 131.874 530.613 131.709C527.669 131.428 525.46 131.509 522.578 131.891C521.461 132.006 521.461 132.006 520.322 131.727C518.192 131.686 516.237 131.733 514.125 131.884C513.538 131.924 512.95 131.965 512.345 132.006C512.157 131.914 511.969 131.822 511.775 131.727C508.848 131.626 505.957 131.725 503.051 131.901C499.424 132.085 495.951 131.836 492.404 131.447C492.216 131.355 492.028 131.262 491.834 131.167C490.778 131.143 489.72 131.137 488.662 131.14C488.022 131.141 487.381 131.142 486.721 131.143C486.046 131.145 485.371 131.147 484.676 131.15C484 131.151 483.323 131.152 482.626 131.154C480.947 131.157 479.269 131.161 477.59 131.167C477.59 131.352 477.59 131.536 477.59 131.727C477.026 131.634 476.462 131.542 475.881 131.447C473.041 131.379 473.041 131.379 470.259 131.586C466.25 132.051 461.701 131.872 457.816 131.235C456.366 131.121 456.366 131.121 454.438 131.435C452.07 131.737 449.765 131.822 447.324 131.842C446.688 131.85 446.688 131.85 446.039 131.859C444.699 131.875 443.357 131.888 442.016 131.901C441.12 131.912 440.223 131.923 439.327 131.934C437.625 131.955 435.923 131.972 434.22 131.987C432.921 131.998 431.622 132.012 430.323 132.032C427.125 132.069 427.125 132.069 425.72 131.706C424.527 131.352 424.527 131.352 422.894 131.727C422.518 131.634 422.142 131.542 421.755 131.447C420.661 131.507 419.569 131.568 418.479 131.643C412.74 132.016 406.947 132.074 401.19 131.8C397.692 131.645 394.425 131.66 390.988 132.006C389.278 132.03 387.571 132.023 385.86 132.006C385.672 131.822 385.484 131.637 385.291 131.447C379.916 131.391 379.916 131.391 374.572 131.622C372.333 131.769 370.593 131.577 368.423 131.305C365.388 130.999 362.033 130.803 359.313 131.601C355.949 132.304 352.422 131.939 348.843 131.793C345.021 131.668 342.097 131.808 338.571 132.566C338.383 132.473 338.195 132.381 338.001 132.286C336.922 132.265 335.841 132.263 334.761 132.268C334.092 132.271 333.423 132.273 332.733 132.275C331.325 132.282 329.917 132.289 328.509 132.297C325.157 132.308 321.904 132.282 318.58 132.067C316.989 131.978 315.421 132.001 313.822 132.024C311.432 132.04 309.373 131.961 307.057 131.674C304.559 131.386 303.322 131.583 301.041 132.097C298.009 132.569 294.479 132.089 291.424 131.814C286.948 131.517 281.976 132.116 277.608 132.566C276.658 132.659 275.708 132.752 274.759 132.845C274.571 132.568 274.383 132.291 274.189 132.006C273.074 131.95 271.958 131.899 270.842 131.849C270.22 131.82 269.599 131.79 268.959 131.76C267.289 131.734 265.886 131.765 264.247 131.862C260.794 132.039 257.367 132.046 253.898 132.043C252.896 132.044 252.896 132.044 251.874 132.044C250.471 132.044 249.069 132.044 247.667 132.043C245.52 132.041 243.373 132.043 241.227 132.044C239.86 132.044 238.493 132.044 237.126 132.043C236.486 132.044 235.845 132.044 235.186 132.045C234.588 132.044 233.991 132.043 233.375 132.042C232.852 132.042 232.329 132.042 231.79 132.042C230.296 132.006 228.93 131.88 227.469 131.727C225.452 131.654 223.436 131.603 221.416 131.553C219.493 131.447 219.493 131.447 218.161 131.171C216.468 130.855 215.051 130.778 213.246 130.72C212.28 130.687 212.28 130.687 211.295 130.653C210.628 130.632 209.96 130.612 209.273 130.59C207.95 130.547 206.627 130.503 205.305 130.458C204.72 130.44 204.136 130.421 203.533 130.402C201.831 130.328 201.831 130.328 200.093 130.184C198.504 130.056 197 130.001 195.392 129.98C194.835 129.97 194.278 129.961 193.704 129.952C192.553 129.935 191.401 129.919 190.25 129.904C187.167 129.851 184.334 129.702 181.34 129.338C179.608 129.146 177.891 129.098 176.121 129.052C175.032 129.021 175.032 129.021 173.922 128.99C173.549 128.98 173.176 128.97 172.792 128.96C170.815 128.908 168.839 128.85 166.862 128.79C166.153 128.77 165.443 128.75 164.712 128.729C163.088 128.65 163.088 128.65 162.518 128.37C160.528 128.314 158.986 128.273 157.141 128.668C154.688 129.108 152.311 128.78 149.814 128.507C147.923 128.339 146.062 128.285 144.143 128.231C141.841 128.165 139.557 128.085 137.269 127.949C134.877 127.813 132.503 127.765 130.098 127.73C125.208 127.657 120.726 127.465 115.974 126.886C113.19 126.6 110.414 126.55 107.577 126.499C105.702 126.419 104.02 126.231 102.208 125.992C99.9657 125.738 97.6823 125.657 95.394 125.556C94.4406 125.513 93.4873 125.469 92.5342 125.424C92.1186 125.406 91.703 125.387 91.2749 125.368C90.1594 125.294 90.1594 125.294 88.4502 125.014C87.288 124.972 86.1245 124.938 84.9605 124.909C82.6982 124.833 80.7357 124.737 78.622 124.333C76.185 123.872 73.7591 123.767 71.1796 123.651C66.5587 123.426 61.3665 123.085 58.2178 121.255C57.8535 121.019 57.4892 120.783 57.1139 120.54C55.9489 120.02 54.7457 119.533 53.5285 119.043C52.5559 118.582 52.5559 118.582 51.9861 117.743C51.4221 117.651 50.858 117.558 50.2769 117.463C48.2356 115.727 47.9086 113.526 48.5676 111.59C49.6942 109.891 51.1121 108.085 54.343 107.167C54.8814 107.057 55.4197 106.948 55.9744 106.836C57.202 106.345 57.7675 105.926 58.5739 105.245C58.8441 105.031 59.1144 104.818 59.3929 104.598C59.7689 104.598 60.145 104.598 60.5324 104.598C60.5324 104.414 60.5324 104.229 60.5324 104.039C62.8206 102.943 64.6858 102.318 67.9392 102.081C68.7063 102.356 69.465 102.636 70.2182 102.92C74.1714 103.647 77.7513 103.857 81.9136 103.543C83.4763 103.473 84.6341 103.608 86.1712 103.759C87.8332 103.802 89.4925 103.799 91.1565 103.794C91.6138 103.794 92.0711 103.793 92.5422 103.793C94.8797 103.785 97.1674 103.749 99.4891 103.602C101.315 103.494 102.148 103.513 103.833 103.759C103.833 103.482 103.833 103.205 103.833 102.92C104.21 102.92 104.586 102.92 104.973 102.92C105.161 103.105 105.349 103.289 105.543 103.479C105.966 103.428 106.389 103.376 106.825 103.322C109.367 103.177 111.668 103.31 114.2 103.463C115.881 103.48 116.673 103.354 118.077 102.92C117.673 102.923 117.268 102.927 116.851 102.93C116.065 102.934 116.065 102.934 115.264 102.938C114.742 102.941 114.22 102.944 113.682 102.947C112.38 102.92 112.38 102.92 111.81 102.64C111.054 102.561 110.293 102.494 109.531 102.431C105.442 102.047 101.494 101.436 97.5153 100.843C96.6318 100.713 95.7452 100.588 94.8577 100.464C93.4711 100.271 92.1007 100.062 90.7292 99.8437C90.3771 99.7886 90.025 99.7336 89.6623 99.6769C80.9144 98.2846 80.9144 98.2846 78.1947 96.2079C77.8069 96.0233 77.4191 95.8387 77.0196 95.6486C73.6133 93.9226 71.9611 91.9926 70.2182 89.7754C68.526 89.6831 66.8338 89.5908 65.0904 89.4957C64.8084 89.0804 64.8084 89.0804 64.5206 88.6567C63.0053 88.4385 63.0053 88.4385 61.1734 88.3071C56.8257 87.8605 52.4298 87.023 49.874 85.1455C49.5094 84.8069 49.5094 84.8069 49.1374 84.4616C48.3122 83.658 48.3122 83.658 46.8584 83.0632C45.4701 82.9369 44.1173 82.9032 42.7076 82.8677C40.5675 82.7513 38.8148 82.3729 36.8499 81.9576C33.7992 81.3134 30.7557 80.8484 27.4868 80.5636C24.3728 80.2708 20.9119 79.9061 18.7046 78.7119C18.0859 78.2563 18.0859 78.2563 17.2313 77.4697C17.0433 77.3774 16.8553 77.2852 16.6616 77.1901C16.5547 76.2287 16.5547 76.2287 16.6616 75.2323C18.0136 74.5687 18.6916 74.538 20.543 74.3758C21.0285 74.3322 21.5139 74.2886 22.0141 74.2436C23.0211 74.1555 24.0311 74.0752 25.0431 74.0022C26.5058 73.8869 26.5058 73.8869 27.38 73.1173C27.7149 72.7799 27.7149 72.7799 28.0566 72.4356C29.1605 72.6454 29.1605 72.6454 30.3356 72.9949C30.5416 73.3658 30.7329 73.7387 30.9053 74.1136C32.8842 74.4374 34.5293 74.4125 36.6028 74.3933C36.7909 73.7473 36.9789 73.1012 37.1726 72.4356C36.491 72.3837 35.8095 72.3318 35.1072 72.2783C31.5065 71.8943 26.1526 70.9416 23.4986 69.6389C23.3561 68.6775 23.3561 68.6775 23.4986 67.6811C24.0626 67.4966 24.6267 67.312 25.2078 67.1218C25.5868 67.2534 25.9658 67.385 26.3562 67.5205C28.3732 68.0428 30.2396 68.1807 32.4722 68.2929C32.8747 68.3156 33.2772 68.3383 33.6919 68.3617C36.581 68.5154 39.3998 68.5451 42.3004 68.5202C42.4884 68.6125 42.6764 68.7047 42.8701 68.7998C43.8194 68.8112 44.7696 68.8118 45.7189 68.7998C45.049 68.6326 44.3792 68.4653 43.6891 68.2929C40.9359 67.4624 39.5968 66.3539 37.9961 65.0035C37.2247 64.3049 37.2247 64.3049 36.0331 63.7657C34.7039 63.7541 33.374 63.7541 32.0448 63.7657C31.6688 63.6734 31.2928 63.5811 30.9053 63.486C27.9537 63.3767 26.5156 63.5442 24.0683 64.325C22.7427 64.5179 21.4129 64.7039 20.0801 64.8844C19.4338 65.0286 18.7874 65.1728 18.1215 65.3214C15.1992 65.9002 12.8382 66.1914 9.71772 65.7409C7.88419 65.0809 7.13955 64.4579 6.04104 63.5002C5.20694 62.8825 4.34989 62.5079 3.16558 62.0527C0.965785 61.1795 0.325322 60.4151 0.0185964 59.0265C-0.117566 57.6744 0.494177 56.8514 1.84803 55.6552C2.24633 54.89 2.24633 54.89 2.41778 54.2568C2.77472 54.2294 3.13166 54.202 3.49942 54.1738C4.19788 54.111 4.19788 54.111 4.91044 54.047C5.60449 53.9886 5.60449 53.9886 6.31256 53.929C7.6268 53.7515 7.6268 53.7515 8.22657 53.1676C8.37787 52.9733 8.52916 52.7789 8.68504 52.5787C10.5554 50.7808 13.0862 50.298 16.6616 49.5023C17.0831 49.3873 17.5047 49.2723 17.939 49.1538C24.6397 47.3272 32.5042 46.6549 39.9857 46.0282C41.6746 45.9122 41.6746 45.9122 42.8701 45.5869C43.7697 45.5297 44.6726 45.4847 45.5764 45.447C47.1503 45.3777 48.6537 45.2989 50.2057 45.1499C51.9207 45.032 53.4971 45.0199 55.2266 45.0275C59.0125 45.0437 62.851 45.0039 66.5526 44.5807C67.9392 44.4682 67.9392 44.4682 68.9549 44.5961C70.5161 44.7837 71.9787 44.8035 73.5855 44.8265C74.2439 44.837 74.9023 44.8474 75.5807 44.8582C76.2671 44.8679 76.9534 44.8777 77.6605 44.8877C81.9565 44.95 86.2229 45.0334 90.5009 45.2411C92.8992 45.357 95.3044 45.4288 97.7086 45.5082C99.2755 45.5869 99.2755 45.5869 100.985 45.8666C102.457 45.9629 103.925 46.0498 105.4 46.1288C110.015 46.3845 114.616 46.6762 119.217 46.9853C119.866 46.0293 119.671 45.6312 119.252 44.6605C119.148 44.3857 119.044 44.111 118.936 43.828C118.841 43.5778 118.745 43.3276 118.647 43.0698C118.298 42.0986 118.274 41.657 119.419 40.8433C121.422 39.6758 123.638 38.7097 126.054 37.756C126.536 37.5137 127.017 37.2715 127.514 37.0219C129.381 36.1289 130.803 35.5186 133.461 35.5186C133.461 35.2417 133.461 34.9649 133.461 34.6796C134.36 34.4438 135.262 34.2114 136.167 33.9804C136.92 33.7857 136.92 33.7857 137.689 33.5871C139.158 33.2812 139.158 33.2812 141.437 33.2812C141.562 33.1046 141.687 32.9279 141.815 32.7459C142.577 32.1625 142.577 32.1625 143.979 31.9113C144.527 31.8673 145.074 31.8233 145.639 31.778C146.184 31.7297 146.729 31.6814 147.29 31.6316C148.996 31.6004 149.731 31.6901 151.123 32.1625C151.499 32.4394 151.875 32.7163 152.262 33.0015C153.77 33.2255 153.77 33.2255 155.467 33.3337C156.039 33.378 156.61 33.4223 157.199 33.468C157.638 33.4987 158.077 33.5293 158.53 33.5609C158.386 33.385 158.243 33.209 158.096 33.0278C156.495 30.8261 156.495 30.8261 157.283 29.6455C159.955 26.9238 164.182 25.2042 169.181 23.5702C170.697 23.0737 171.958 22.5228 173.272 21.902C175.943 20.8979 179.339 21.1538 182.515 21.3055C184.613 21.522 185.834 21.8545 187.623 22.4032C189.848 22.9084 192.297 22.8333 194.709 22.8459C195.747 22.8578 196.786 22.8705 197.825 22.8841C198.559 22.8935 198.559 22.8935 199.309 22.9032C203.873 23.0026 203.873 23.0026 205.819 23.5101C207.033 23.8378 207.033 23.8378 208.846 23.7723C210.947 23.7723 210.947 23.7723 212.685 24.0356C215.95 24.5188 219.373 24.5378 222.758 24.6457C225.369 24.7441 227.665 24.886 230.127 25.3356C232.682 25.7946 234.765 25.769 237.44 25.6251C240.874 25.4804 243.989 25.4552 247.411 25.73C247.411 25.5454 247.411 25.3608 247.411 25.1707C247.058 25.1303 246.706 25.0899 246.342 25.0483C245.132 24.891 245.132 24.891 243.992 24.6113C243.992 24.4267 243.992 24.2422 243.992 24.052C243.428 24.052 242.864 24.052 242.283 24.052C242.283 23.8674 242.283 23.6828 242.283 23.4926C241.919 23.4176 241.554 23.3427 241.179 23.2654C240.004 22.9333 240.004 22.9333 239.434 22.0943C238.858 22.002 238.283 21.9097 237.689 21.8146C234.369 21.1833 232.793 19.5701 230.888 18.1788C230.289 17.7804 229.684 17.3839 229.072 16.9902C228.669 16.7231 228.669 16.7231 228.257 16.4505C227.739 16.1156 227.202 15.7874 226.646 15.4673C224.442 14.138 223.8 12.8986 224.051 11.187C224.551 10.0927 225.366 9.12495 226.33 8.11055C226.717 7.67414 226.717 7.67414 227.111 7.22892C229.25 5.11107 231.392 4.29532 235.842 3.44021C237.669 3.08727 239.281 2.67749 240.965 2.18495C241.414 2.05409 241.863 1.92322 242.325 1.78838C243.575 1.39202 243.575 1.39202 244.562 0.559348C246.398 0.426066 246.398 0.426066 248.586 0.384552C251.029 0.443792 251.029 0.443792 253.108 0ZM250.259 25.73C250.448 25.9146 250.636 26.0992 250.829 26.2894C251.205 26.1971 251.581 26.1048 251.969 26.0097C251.405 25.9174 250.841 25.8251 250.259 25.73ZM275.898 27.1284C275.898 27.313 275.898 27.4976 275.898 27.6877C276.462 27.5954 277.026 27.5032 277.608 27.4081C277.044 27.3158 276.479 27.2235 275.898 27.1284ZM1332.22 65.4437C1332.79 66.0031 1332.79 66.0031 1332.79 66.0031L1332.22 65.4437ZM65.0459 67.1185C64.4782 67.1317 63.9104 67.1448 63.3255 67.1584C62.7328 67.1752 62.1401 67.1919 61.5295 67.2092C60.9456 67.2227 60.3617 67.2362 59.7601 67.2502C54.3222 67.2097 54.3222 67.2097 49.7071 68.2405C49.8021 68.8231 49.8021 68.8231 50.2769 69.3592C52.7861 69.975 56.0984 69.7904 58.8587 69.8486C59.5443 69.8677 60.23 69.8868 60.9363 69.9065C64.5108 69.9813 67.4919 69.9642 70.831 69.2979C72.6603 68.9335 74.5672 68.7427 76.4854 68.5202C76.2034 68.2433 76.2034 68.2433 75.9157 67.9608C74.4987 67.8509 74.4987 67.8509 72.8533 67.821C69.8791 67.7439 68.0085 67.0445 65.0459 67.1185ZM41.7306 73.2746C41.9186 73.7361 42.1066 74.1975 42.3004 74.673C42.8644 74.673 43.4285 74.673 44.0096 74.673C43.6336 74.2115 43.2575 73.7501 42.8701 73.2746C42.4941 73.2746 42.118 73.2746 41.7306 73.2746ZM1103.18 100.683C1102.8 100.683 1102.42 100.683 1102.04 100.683C1102.46 101.55 1102.46 101.55 1103.82 102.011C1106.91 102.67 1109.83 102.066 1112.86 101.522C1109.81 100.29 1106.95 100.172 1103.18 100.683ZM1098.62 100.962C1098.99 101.147 1099.37 101.332 1099.76 101.522C1099.95 101.337 1100.13 101.153 1100.33 100.962C1099.76 100.962 1099.2 100.962 1098.62 100.962ZM1121.41 101.242C1121.6 101.611 1121.78 101.98 1121.98 102.361C1127.44 102.987 1134.42 103.524 1139.64 102.361C1139.64 101.992 1139.64 101.622 1139.64 101.242C1139.31 101.282 1138.98 101.323 1138.64 101.364C1137.46 101.51 1136.27 101.656 1135.08 101.801C1134.89 101.617 1134.71 101.432 1134.51 101.242C1130.82 100.82 1124.82 100.406 1121.41 101.242ZM1148.19 101.242C1148.19 101.427 1148.19 101.611 1148.19 101.801C1147.62 101.94 1147.62 101.94 1147.05 102.081C1149.92 103.623 1153.77 103.851 1157.81 103.98C1159.01 104.039 1159.01 104.039 1160.15 104.318C1160.34 103.303 1160.53 102.288 1160.72 101.242C1156.59 101.242 1152.45 101.242 1148.19 101.242ZM1164.71 101.801C1164.07 102.586 1164.07 102.586 1163.57 103.479C1163.2 103.947 1162.82 104.414 1162.43 104.878C1164 105.142 1164 105.142 1165.85 105.157C1166.81 104.698 1167.76 104.231 1168.7 103.759C1170.78 103.304 1172.53 103.079 1174.72 103.444C1175.17 103.548 1175.63 103.652 1176.11 103.759C1177.43 103.77 1178.76 103.772 1180.09 103.759C1180.28 103.851 1180.47 103.944 1180.66 104.039C1182.42 103.963 1184.16 103.857 1185.91 103.748C1187.87 103.758 1188.89 103.869 1190.68 104.178C1194.32 104.759 1197.76 104.627 1201.53 104.511C1202.21 104.494 1202.89 104.476 1203.59 104.459C1205.26 104.416 1206.92 104.37 1208.58 104.318C1208.77 104.042 1208.96 103.765 1209.15 103.479C1205.05 102.792 1201.2 102.244 1196.87 102.13C1195.48 102.081 1195.48 102.081 1193.98 101.918C1192.55 101.74 1192.55 101.74 1190.92 102.081C1190.11 102.003 1190.11 102.003 1189.28 101.924C1187.52 101.727 1187.52 101.727 1186.04 102.099C1184.65 102.361 1184.65 102.361 1183.3 102.081C1181.19 101.686 1179.94 102.037 1177.81 102.361C1174.18 102.448 1174.18 102.448 1172.69 102.081C1171.53 102.342 1170.39 102.621 1169.27 102.92C1169.08 102.551 1168.89 102.182 1168.7 101.801C1166.98 101.54 1166.5 101.509 1164.71 101.801ZM1223.96 103.2C1223.09 103.217 1222.22 103.216 1221.35 103.207C1220.82 103.204 1220.29 103.201 1219.74 103.197C1218.62 103.187 1217.5 103.176 1216.37 103.164C1215.84 103.161 1215.31 103.158 1214.76 103.155C1214.03 103.148 1214.03 103.148 1213.28 103.141C1211.84 103.157 1211.84 103.157 1210.29 103.759C1212.08 104.276 1213.35 104.381 1215.42 104.353C1215.9 104.348 1216.38 104.343 1216.88 104.338C1217.34 104.332 1217.79 104.325 1218.27 104.318C1219.02 104.318 1219.77 104.318 1220.55 104.318C1220.79 104.463 1221.04 104.607 1221.29 104.755C1221.61 104.888 1221.93 105.021 1222.25 105.157C1223.58 105.066 1224.91 104.972 1226.24 104.878C1227.52 104.977 1228.75 105.129 1230 105.285C1231.91 105.497 1233.82 105.573 1235.76 105.655C1237.07 105.717 1237.07 105.717 1238.96 105.892C1240.63 106.007 1241.69 105.904 1243.34 105.717C1245.04 105.611 1246.75 105.523 1248.46 105.437C1247.66 104.56 1247.66 104.56 1246.18 103.951C1243.69 103.671 1241.26 103.732 1238.78 104.039C1237.76 104.444 1237.76 104.444 1237.07 104.878C1236.99 104.699 1236.9 104.52 1236.82 104.336C1236.61 103.766 1236.61 103.766 1235.93 103.479C1234.55 103.366 1233.18 103.269 1231.8 103.182C1231.42 103.157 1231.04 103.131 1230.64 103.105C1227.11 102.735 1227.11 102.735 1223.96 103.2ZM1250.85 104.393C1249.96 104.933 1249.96 104.933 1250.17 105.996C1252.8 105.996 1255.44 105.996 1258.15 105.996C1258.15 105.812 1258.15 105.627 1258.15 105.437C1258.75 105.576 1258.75 105.576 1259.36 105.717C1261.15 106.022 1262.54 106.039 1264.42 105.996C1264.23 105.627 1264.04 105.258 1263.85 104.878C1263.09 104.786 1262.34 104.693 1261.57 104.598C1261.57 104.783 1261.57 104.967 1261.57 105.157C1261 105.157 1260.44 105.157 1259.86 105.157C1259.86 104.881 1259.86 104.604 1259.86 104.318C1258.11 104.072 1256.51 103.985 1254.69 103.969C1254.21 103.962 1253.72 103.954 1253.22 103.947C1251.86 103.99 1251.86 103.99 1250.85 104.393ZM1285.5 105.996C1284.04 106.066 1284.04 106.066 1282.65 105.996C1282.27 105.812 1281.9 105.627 1281.51 105.437C1280.44 105.351 1280.44 105.351 1279.21 105.363C1278.75 105.362 1278.29 105.361 1277.81 105.361C1277.33 105.363 1276.84 105.365 1276.35 105.367C1275.88 105.365 1275.41 105.363 1274.93 105.361C1271.67 105.366 1268.7 105.588 1265.56 105.996C1265.56 106.181 1265.56 106.366 1265.56 106.556C1266.39 106.607 1266.39 106.607 1267.25 106.659C1268 106.706 1268.75 106.753 1269.51 106.801C1270.1 106.837 1270.1 106.837 1270.71 106.875C1272.72 107.006 1274.65 107.169 1276.59 107.447C1279.01 107.74 1281.3 107.622 1283.75 107.517C1287.8 107.35 1291.38 107.526 1295.36 107.899C1302.73 108.634 1302.73 108.634 1310 108.234C1311.17 108.319 1311.17 108.319 1312.52 108.479C1315.34 108.78 1318.11 108.91 1320.98 109.012C1322.66 109.078 1324.3 109.195 1325.95 109.353C1325.67 108.799 1325.67 108.799 1325.38 108.234C1324.72 108.188 1324.72 108.188 1324.05 108.141C1323.19 108.075 1323.19 108.075 1322.32 108.007C1321.75 107.964 1321.18 107.922 1320.59 107.879C1319.11 107.675 1319.11 107.675 1317.97 106.836C1317.6 106.836 1317.22 106.836 1316.83 106.836C1316.83 106.651 1316.83 106.466 1316.83 106.276C1312.03 105.794 1312.03 105.794 1307.15 105.717C1307.15 105.901 1307.15 106.086 1307.15 106.276C1306.72 106.218 1306.3 106.161 1305.87 106.101C1304.32 105.925 1304.32 105.925 1303.16 106.276C1301.64 106.648 1300.77 106.494 1299.17 106.276C1298.89 105.861 1298.89 105.861 1298.6 105.437C1294.47 105.012 1289.09 104.822 1285.5 105.996ZM1326.52 108.793C1326.52 108.978 1326.52 109.162 1326.52 109.353C1327.08 109.353 1327.65 109.353 1328.23 109.353C1328.23 109.168 1328.23 108.983 1328.23 108.793C1327.66 108.793 1327.1 108.793 1326.52 108.793ZM1329.94 108.793C1330.5 109.07 1331.07 109.347 1331.65 109.632C1332.02 109.54 1332.4 109.448 1332.79 109.353C1332.79 109.168 1332.79 108.983 1332.79 108.793C1331.85 108.793 1330.91 108.793 1329.94 108.793ZM559.634 112.709C559.634 113.17 559.634 113.632 559.634 114.107C561.608 113.969 561.608 113.969 563.623 113.827C563.623 113.55 563.623 113.274 563.623 112.988C562.306 112.896 560.99 112.804 559.634 112.709ZM567.041 112.709C567.229 112.893 567.417 113.078 567.611 113.268C567.987 113.268 568.363 113.268 568.75 113.268C568.75 113.083 568.75 112.899 568.75 112.709C568.186 112.709 567.622 112.709 567.041 112.709ZM576.727 112.709C576.727 112.893 576.727 113.078 576.727 113.268C578.043 113.36 579.359 113.453 580.715 113.548C580.903 113.363 581.091 113.179 581.285 112.988C580.533 113.081 579.781 113.173 579.006 113.268C578.818 113.083 578.63 112.899 578.436 112.709C577.872 112.709 577.308 112.709 576.727 112.709ZM545.391 112.988C546.045 113.953 546.416 114.207 548.239 114.666C550.07 114.53 550.07 114.53 551.658 114.107C551.846 113.83 552.034 113.553 552.228 113.268C551.329 113.277 551.329 113.277 550.411 113.286C548.623 113.271 547.118 113.194 545.391 112.988ZM584.134 112.988C583.946 113.265 583.758 113.542 583.564 113.827C584.128 114.243 584.128 114.243 584.703 114.666C585.079 114.666 585.455 114.666 585.843 114.666C585.843 114.39 585.843 114.113 585.843 113.827C586.219 113.827 586.595 113.827 586.982 113.827C586.982 113.643 586.982 113.458 586.982 113.268C586.042 113.176 585.102 113.083 584.134 112.988ZM538.554 113.268C538.554 113.453 538.554 113.637 538.554 113.827C539.306 113.735 540.058 113.643 540.833 113.548C540.08 113.455 539.328 113.363 538.554 113.268ZM573.878 113.268C573.878 113.453 573.878 113.637 573.878 113.827C575.288 114.104 575.288 114.104 576.727 114.387C576.539 114.018 576.351 113.648 576.157 113.268C575.405 113.268 574.653 113.268 573.878 113.268Z" fill="#A8D5BA"/>
</svg>
