<svg width="950" height="145" viewBox="0 0 950 145" fill="none" xmlns="http://www.w3.org/2000/svg">
<path d="M499.615 16.5856C499.927 16.5966 500.238 16.6077 500.56 16.6191C500.549 16.932 500.538 17.245 500.526 17.5674C501.852 17.6144 503.177 17.6615 504.543 17.7099C504.537 17.8664 504.532 18.0228 504.526 18.1841C504.725 18.115 504.725 18.115 504.928 18.0446C506.753 17.4825 508.435 17.5196 510.327 17.6185C510.626 17.6303 510.925 17.6421 511.233 17.6543C513.421 17.7507 513.421 17.7507 514.23 18.0537C514.549 18.0814 514.869 18.0964 515.189 18.1025C515.472 18.1098 515.472 18.1098 515.761 18.1173C516.15 18.125 516.54 18.1327 516.93 18.1402C517.932 18.1661 518.901 18.2311 519.893 18.3798C521.79 18.6381 523.7 18.5916 525.61 18.591C525.997 18.5921 526.384 18.5933 526.771 18.5947C527.71 18.5977 528.649 18.5987 529.587 18.5986C529.593 18.4422 529.598 18.2857 529.604 18.1245C530.512 18.3644 530.512 18.3644 530.769 18.6405C531.184 18.6266 531.599 18.5991 532.013 18.566C533.354 18.4862 534.596 18.6033 535.925 18.779C536.868 18.8684 537.765 18.8147 538.705 18.7219C539.337 18.7038 539.845 18.8338 540.456 18.9843C540.886 18.9358 541.317 18.8873 541.747 18.8382C542.846 18.7949 543.931 18.9616 545.022 19.0842C546.72 19.266 548.351 19.2867 550.05 19.1161C550.624 19.1077 550.624 19.1077 551.294 19.2447C552.378 19.4654 553.45 19.4374 554.553 19.4465C555.331 19.5117 555.806 19.7082 556.505 20.0286C556.742 19.9586 556.978 19.8887 557.222 19.8166C557.628 19.8114 558.035 19.82 558.44 19.8367C558.689 19.8463 558.938 19.8559 559.194 19.8658C559.463 19.8773 559.733 19.8888 560.01 19.9007C560.289 19.9115 560.568 19.9223 560.855 19.9335C562.049 19.9797 563.243 20.0286 564.437 20.0775C565.309 20.1128 566.181 20.147 567.053 20.1803C567.333 20.1912 567.614 20.2021 567.903 20.2133C569.641 20.2749 571.355 20.275 573.09 20.1479C573.878 20.1694 574.446 20.3904 575.17 20.6909C575.798 20.7786 575.798 20.7786 576.424 20.7799C576.763 20.7864 576.763 20.7864 577.109 20.7931C577.688 20.7844 578.248 20.746 578.823 20.687C579.683 20.6052 580.462 20.6738 581.318 20.7904C582.542 20.9559 583.644 20.9449 584.866 20.7976C586.677 20.595 586.677 20.595 587.465 20.8898C587.822 20.9242 588.181 20.9456 588.539 20.9587C588.757 20.9671 588.975 20.9756 589.2 20.9844C589.436 20.9923 589.672 21.0002 589.916 21.0083C590.162 21.0173 590.408 21.0262 590.661 21.0354C591.184 21.0542 591.707 21.0723 592.23 21.0898C593.015 21.1165 593.801 21.1456 594.586 21.175C597.034 21.2623 599.465 21.3115 601.914 21.2311C602.816 21.2066 603.661 21.2377 604.551 21.3849C606.644 21.7108 608.806 21.4676 610.912 21.3658C611.585 21.3336 612.258 21.3021 612.931 21.2729C613.347 21.2549 613.763 21.2352 614.179 21.2134C615.413 21.1599 616.509 21.272 617.724 21.4888C618.278 21.4324 618.833 21.3725 619.386 21.3104C621.998 21.3144 621.998 21.3144 623.082 21.5618C624.03 21.737 624.946 21.7658 625.908 21.7857C626.314 21.7968 626.72 21.808 627.125 21.8192C627.336 21.8248 627.547 21.8303 627.764 21.836C631.169 21.9271 634.531 22.0745 637.91 22.5319C638.133 22.562 638.357 22.5922 638.588 22.6232C638.778 22.6511 638.968 22.679 639.163 22.7077C639.703 22.7443 640.108 22.6546 640.634 22.5392C641.015 22.5465 641.397 22.5679 641.777 22.6001C641.994 22.6182 642.21 22.6363 642.432 22.6549C642.657 22.6751 642.881 22.6953 643.111 22.7161C643.336 22.7344 643.56 22.7528 643.79 22.7717C645.463 22.9163 645.463 22.9163 646.07 23.0924C646.86 23.3197 647.685 23.2772 648.502 23.2931C649.82 23.3282 651.116 23.3933 652.426 23.551C653.697 23.7031 654.953 23.7699 656.232 23.8048C657.649 23.8445 659.038 23.9332 660.444 24.1239C661.602 24.2752 662.764 24.3763 663.926 24.4858C664.691 24.5797 664.691 24.5797 665.168 24.7209C665.823 24.9053 666.455 24.9109 667.133 24.9334C667.393 24.9432 667.653 24.9531 667.921 24.9632C668.689 24.9787 668.689 24.9787 669.401 24.8497C670.281 24.756 671.007 24.8891 671.875 25.0571C673.034 25.2797 674.128 25.3907 675.306 25.4311C675.457 25.4774 675.607 25.5238 675.763 25.5715C676.291 25.7148 676.669 25.7027 677.213 25.6471C677.492 25.6222 677.492 25.6222 677.778 25.5967C678.16 25.5594 678.542 25.5211 678.924 25.4816C680.291 25.3621 681.545 25.4642 682.904 25.6374C684.632 25.8191 686.368 25.8586 688.104 25.9162C688.762 25.9383 689.421 25.9629 690.08 25.9878C690.503 26.0027 690.926 26.0174 691.349 26.0319C691.543 26.0393 691.738 26.0467 691.939 26.0543C692.961 26.0864 693.911 26.0391 694.925 25.8899C695.308 25.8834 695.691 25.8861 696.073 25.8992C696.279 25.9061 696.484 25.9131 696.696 25.9203C696.906 25.9287 697.117 25.9371 697.333 25.9457C697.546 25.9523 697.759 25.959 697.979 25.9658C698.183 25.9734 698.388 25.981 698.599 25.9888C698.876 25.999 698.876 25.999 699.16 26.0095C699.651 26.0576 699.651 26.0576 700.351 26.3198C700.908 26.1814 701.465 26.0429 702.022 25.9044C702.832 25.883 702.832 25.883 703.684 25.9254C703.918 25.9357 703.918 25.9357 704.157 25.9462C704.492 25.9611 704.827 25.9769 705.162 25.9937C706.06 26.0381 706.958 26.0732 707.856 26.1086C708.04 26.116 708.223 26.1233 708.412 26.1309C712.45 26.287 716.496 26.322 720.527 26.0078C721.809 25.9123 723.076 25.888 724.362 25.9257C724.525 25.9293 724.689 25.933 724.858 25.9367C725.79 25.9755 726.484 26.1357 727.311 26.5644C727.542 26.6509 727.773 26.7375 728.011 26.8266C728.15 26.763 728.289 26.6994 728.432 26.6339C729.651 26.0755 730.981 26.2199 732.289 26.2663C732.626 26.2309 732.962 26.1933 733.299 26.1538C734.157 26.0755 734.824 26.1789 735.656 26.4006C736.973 26.7334 738.088 26.6013 739.418 26.3793C740.086 26.3069 740.406 26.389 741.031 26.5765C741.2 26.5465 741.369 26.5164 741.544 26.4855C742.374 26.3578 743.153 26.3837 743.993 26.4128C744.161 26.4185 744.329 26.4242 744.502 26.4301C744.856 26.4425 745.211 26.4555 745.565 26.4691C746.103 26.4895 746.642 26.5073 747.181 26.5249C747.526 26.5373 747.871 26.5499 748.217 26.5626C748.528 26.5739 748.84 26.5853 749.161 26.5969C749.942 26.6527 750.662 26.7884 751.427 26.9454C752.184 26.8498 752.184 26.8498 752.945 26.6581C754.354 26.3583 755.553 26.1894 756.968 26.5523C757.85 26.7475 758.713 26.734 759.613 26.7464C760.232 26.7796 760.794 26.8456 761.402 26.9433C763.395 27.2285 765.419 27.2202 767.428 27.2759C768.251 27.2987 769.074 27.3232 769.897 27.3487C770.083 27.3533 770.269 27.3579 770.46 27.3627C771.255 27.3873 771.992 27.438 772.776 27.5843C773.961 27.7898 775.133 27.8111 776.334 27.8441C776.592 27.8524 776.85 27.8606 777.117 27.8692C778.216 27.9043 779.316 27.9367 780.415 27.9692C781.221 27.9935 782.026 28.0192 782.832 28.045C783.076 28.0517 783.32 28.0584 783.571 28.0653C785.018 28.1118 786.438 28.2316 787.874 28.4218C789.519 28.62 791.132 28.6228 792.774 28.4127C792.855 28.3372 792.936 28.2617 793.019 28.184C793.492 28.1609 793.492 28.1609 794.069 28.1767C794.354 28.1818 794.354 28.1818 794.644 28.1869C795.145 28.2594 795.145 28.2594 795.601 28.7503C796.117 28.8308 796.117 28.8308 796.72 28.8281C797.066 28.8362 797.066 28.8362 797.418 28.8444C797.666 28.8484 797.914 28.8523 798.17 28.8563C800.084 28.9047 801.988 28.9819 803.896 29.1485C804.183 29.1727 804.183 29.1727 804.475 29.1974C805.256 29.2684 806.003 29.3592 806.772 29.5186C807.428 29.6824 807.428 29.6824 808.229 29.5545C809.06 29.4653 809.06 29.4653 809.705 29.6069C810.666 29.7903 811.54 29.7071 812.51 29.6248C813.077 29.6078 813.077 29.6078 813.541 29.8617C814.343 29.8963 815.143 29.9123 815.946 29.9169C817.119 29.9407 818.157 30.134 819.292 30.4248C820.36 30.6649 821.437 30.7397 822.526 30.8184C822.762 30.8366 822.998 30.8548 823.241 30.8735C824.93 30.9923 826.584 30.9999 828.273 30.8963C829.097 30.8893 829.836 30.9768 830.647 31.1089C831.78 31.2875 832.922 31.4068 834.062 31.5394C836.767 31.8539 836.767 31.8539 837.949 32.0408C839.234 32.2359 840.527 32.3179 841.823 32.4082C843.393 32.5177 844.947 32.6465 846.503 32.8797C847.73 33.0427 848.926 33.0561 850.154 32.919C851.281 32.8295 852.248 33.0009 853.341 33.262C856.06 33.8601 858.72 34.1054 861.499 34.1597C862.287 34.2013 862.995 34.3313 863.765 34.4923C864.336 34.5184 864.336 34.5184 864.875 34.4724C865.052 34.4627 865.228 34.4531 865.411 34.4432C865.997 34.3083 866.206 34.0545 866.634 33.6447C866.868 33.653 867.102 33.6613 867.343 33.6698C867.329 34.061 867.315 34.4522 867.301 34.8552C868.735 35.1538 870.114 35.2032 871.575 35.2141C872.038 35.2235 872.501 35.2568 872.963 35.2935C873.113 35.4555 873.263 35.6175 873.418 35.7844C873.998 35.8448 873.998 35.8448 874.674 35.8289C875.69 35.847 876.613 35.9358 877.604 36.1555C879.351 36.5209 881.106 36.6319 882.884 36.7512C887.213 37.0453 887.213 37.0453 888.025 37.4896C888.435 37.5377 888.847 37.5724 889.259 37.6001C889.507 37.6178 889.755 37.6354 890.01 37.6536C890.269 37.6711 890.529 37.6886 890.797 37.7066C891.307 37.7412 891.817 37.7765 892.327 37.8128C892.554 37.8281 892.781 37.8433 893.015 37.859C893.722 37.9315 894.4 38.0703 895.096 38.2152C895.598 38.2375 896.101 38.2498 896.603 38.2539C897.809 38.2854 898.938 38.4029 900.128 38.6163C902.238 38.9769 904.354 39.1675 906.485 39.3463C907.216 39.4089 907.948 39.4724 908.679 39.5363C908.852 39.5514 909.025 39.5664 909.203 39.5819C910.386 39.6867 911.563 39.8198 912.739 39.984C913.206 40.0412 913.677 40.0614 914.148 40.0781C914.901 40.1048 914.901 40.1048 915.538 40.2461C916.409 40.411 917.258 40.4419 918.141 40.4572C919.385 40.4901 920.602 40.5628 921.833 40.7547C924.487 41.1561 927.129 41.288 929.809 41.3769C930.467 41.399 931.125 41.4236 931.782 41.4485C936.043 41.6186 936.043 41.6186 940.266 41.1236C941.098 40.959 941.898 40.8188 942.743 40.7442C943.523 40.7185 943.523 40.7185 943.996 40.1878C944.494 40.2945 944.494 40.2945 944.932 40.4584C944.927 40.6149 944.921 40.7713 944.915 40.9326C945.378 41.1056 945.84 41.2787 946.316 41.457C946.311 41.6135 946.305 41.7699 946.299 41.9311C946.437 41.9538 946.575 41.9764 946.716 41.9997C947.416 42.2719 947.636 42.6518 948.056 43.2693C948.255 43.5582 948.255 43.5582 948.458 43.8529C949.142 44.8922 949.318 45.4504 949.339 46.6974C949.273 47.6461 949.273 47.6461 949.616 48.4578C949.743 50.342 949.813 52.2738 949.651 54.156C949.489 54.3069 949.328 54.4578 949.161 54.6133C948.93 55.2371 948.718 55.8557 948.518 56.4895C948.4 56.8537 948.283 57.218 948.165 57.5822C948.109 57.7583 948.052 57.9344 947.994 58.1158C947.802 58.7106 947.598 59.301 947.392 59.8914C947.147 60.6019 946.961 61.3026 946.798 62.0363C946.397 63.6463 945.454 64.7253 944.268 65.8335C944.188 66.0362 944.108 66.239 944.025 66.4479C943.664 67.1846 943.303 67.1758 942.556 67.4343C942.381 67.8877 942.381 67.8877 942.286 68.3742C942.047 68.6093 941.801 68.8368 941.552 69.0603C940.275 70.3371 940.275 70.3371 939.703 71.9915C939.723 72.2565 939.743 72.5216 939.763 72.7947C939.673 73.3466 939.577 73.8975 939.468 74.4458C938.758 74.6556 938.758 74.6556 938.034 74.8697C938.087 75.2477 938.143 75.6255 938.2 76.0031C938.231 76.2135 938.262 76.4239 938.294 76.6407C938.396 77.2511 938.396 77.2511 938.654 77.7494C939.336 79.308 938.649 81.3885 938.22 82.9469C937.983 83.0168 937.747 83.0867 937.503 83.1588C937.284 83.7797 937.107 84.3719 936.949 85.0084C936.482 86.8359 936.482 86.8359 935.925 87.6129C935.804 88.2186 935.804 88.2186 935.747 88.8824C935.677 89.564 935.599 90.203 935.434 90.8685C935.377 91.1263 935.377 91.1263 935.318 91.3892C935.542 91.6861 935.542 91.6861 936.001 91.6702C936.198 91.673 936.395 91.6757 936.598 91.6785C936.816 91.6831 937.035 91.6876 937.26 91.6923C937.494 91.6967 937.728 91.7012 937.968 91.7058C939.973 91.7574 941.847 91.9155 943.799 92.4023C943.788 92.7152 943.776 93.0281 943.765 93.3506C944.133 93.5032 944.133 93.5032 944.508 93.6588C945.387 94.0809 945.957 94.5423 946.533 95.3478C946.666 96.1833 946.666 96.1833 946.71 97.0156C946.796 97.2243 946.881 97.4329 946.969 97.6479C947.141 98.2178 947.141 98.2178 946.903 98.7072C946.526 99.6328 946.518 100.483 946.493 101.473C946.485 101.656 946.476 101.838 946.468 102.026C946.371 104.043 946.371 104.043 947.108 105.812C947.178 106.349 947.178 106.349 947.066 106.998C946.496 107.645 946.496 107.645 945.842 108.141C945.608 108.133 945.375 108.125 945.134 108.116C945.234 108.59 945.234 108.59 945.336 109.073C945.1 109.143 944.863 109.213 944.619 109.285C944.767 109.525 944.914 109.765 945.066 110.013C945.057 110.566 945.037 111.119 945.007 111.672C945.066 111.901 945.066 111.901 945.127 112.134C945.233 112.765 945.099 113.134 944.875 113.73C944.809 113.914 944.743 114.099 944.674 114.289C944.425 114.737 944.425 114.737 943.708 114.949C943.769 115.077 943.83 115.206 943.893 115.338C944.013 115.594 944.013 115.594 944.135 115.855C944.214 116.023 944.293 116.191 944.374 116.364C944.756 117.294 944.756 117.294 944.789 117.836C944.67 117.936 944.551 118.036 944.429 118.139C943.933 118.647 943.966 118.92 943.971 119.621C943.969 119.836 943.967 120.051 943.965 120.272C943.967 120.722 943.97 121.171 943.972 121.621C943.958 123.026 943.781 123.903 943.11 125.135C943.001 125.509 942.901 125.886 942.819 126.267C942.616 127.201 942.616 127.201 942.073 127.709C941.928 128.217 941.928 128.217 941.827 128.798C941.528 130.158 941.029 131.306 940.126 132.372C939.167 133.626 938.89 135.303 938.792 136.848C938.656 137.32 938.656 137.32 938.184 137.731C937.495 138.416 937.424 139.009 937.232 139.955C936.986 141.139 936.736 142.277 936.311 143.409C935.813 143.688 935.813 143.688 935.349 143.849C935.263 144.081 935.177 144.313 935.088 144.552C931.844 144.442 928.6 144.332 925.357 144.219C923.85 144.167 922.343 144.115 920.836 144.064C919.376 144.015 917.916 143.965 916.456 143.913C915.905 143.894 915.353 143.876 914.802 143.857C911.528 143.748 908.264 143.583 904.997 143.33C903.135 143.187 901.277 143.095 899.41 143.057C898.638 143.039 898.032 143.01 897.301 142.736C896.747 142.793 896.193 142.853 895.639 142.915C894.974 142.92 894.312 142.89 893.648 142.859C893.462 142.851 893.276 142.844 893.084 142.836C892.296 142.804 891.508 142.77 890.72 142.735C887.855 142.596 887.855 142.596 884.992 142.722C884.481 142.761 883.989 142.746 883.478 142.721C882.646 142.647 882.646 142.647 881.919 142.903C881.479 142.798 881.479 142.798 880.982 142.632C880.135 142.392 879.469 142.345 878.594 142.429C877.469 142.53 876.503 142.398 875.394 142.182C873.978 141.915 873.14 141.929 871.768 142.305C870.169 142.516 868.683 142.438 867.101 142.154C864.706 141.726 862.337 141.683 859.909 141.718C859.649 141.722 859.389 141.725 859.121 141.728C858.608 141.735 858.095 141.746 857.582 141.759C856.004 141.784 854.637 141.593 853.119 141.169C851.607 140.856 850.199 140.778 848.663 140.907C847.691 140.978 846.832 140.905 845.875 140.734C845.062 140.616 844.253 140.611 843.433 140.602C842.968 140.571 842.968 140.571 842.74 140.326C842.355 140.314 841.97 140.318 841.585 140.33C841.229 140.338 841.229 140.338 840.865 140.346C840.365 140.359 839.865 140.373 839.365 140.389C837.993 140.417 836.964 140.305 835.66 139.837C835.051 139.789 834.441 139.764 833.83 139.757C831.308 139.704 828.848 139.442 826.439 138.649C825.989 138.493 825.989 138.493 825.526 138.765C825.052 138.758 824.579 138.734 824.106 138.703C823.672 138.674 823.672 138.674 823.229 138.644C822.921 138.622 822.612 138.599 822.295 138.576C821.984 138.554 821.673 138.532 821.352 138.509C819.071 138.336 816.825 138.111 814.602 137.544C813.999 137.41 813.425 137.338 812.809 137.289C812.593 137.272 812.376 137.254 812.153 137.236C811.819 137.21 811.819 137.21 811.477 137.184C811.252 137.165 811.027 137.147 810.795 137.128C809.19 136.975 809.19 136.975 807.592 137.09C807.362 137.112 807.132 137.133 806.895 137.155C806.744 136.993 806.594 136.831 806.439 136.664C806.001 136.565 806.001 136.565 805.499 136.54C805.313 136.526 805.127 136.511 804.936 136.496C804.741 136.483 804.547 136.469 804.347 136.456C803.964 136.428 803.581 136.399 803.198 136.37C803.028 136.358 802.858 136.346 802.683 136.334C802.184 136.274 801.739 136.149 801.258 136.005C799.55 135.857 797.853 135.911 796.147 136.032C795.579 136.041 795.579 136.041 795.115 135.787C794.703 135.752 794.29 135.732 793.877 135.72C793.489 135.707 793.489 135.707 793.093 135.695C792.671 135.683 792.671 135.683 792.241 135.67C791.808 135.656 791.808 135.656 791.367 135.642C790.129 135.602 788.891 135.565 787.653 135.527C786.75 135.499 785.848 135.47 784.945 135.441C784.667 135.433 784.389 135.425 784.102 135.417C782.705 135.372 781.377 135.26 780.002 135.013C779.596 134.984 779.189 134.964 778.782 134.955C778.571 134.95 778.359 134.944 778.142 134.938C777.927 134.934 777.713 134.929 777.492 134.924C776.161 134.896 774.937 134.818 773.631 134.55C773.025 134.542 772.418 134.551 771.812 134.574C771.503 134.585 771.194 134.595 770.876 134.606C770.082 134.632 770.082 134.632 769.361 134.873C767.701 134.868 767.701 134.868 766.96 134.668C766.164 134.499 765.411 134.473 764.598 134.452C764.438 134.447 764.278 134.442 764.114 134.438C763.606 134.422 763.099 134.409 762.592 134.396C761.921 134.378 761.251 134.359 760.58 134.339C760.283 134.331 759.986 134.324 759.68 134.315C758.974 134.267 758.974 134.267 758.51 134.013C757.723 134.028 756.941 134.081 756.156 134.13C755.416 134.153 754.717 134.082 753.984 133.981C752.473 133.772 750.968 133.711 749.444 133.662C749.037 133.646 749.037 133.646 748.622 133.63C748.36 133.621 748.099 133.612 747.829 133.603C747.594 133.595 747.36 133.587 747.118 133.578C746.479 133.586 745.898 133.671 745.27 133.781C744.284 133.779 743.353 133.719 742.38 133.56C741.29 133.384 740.213 133.355 739.11 133.34C738.427 133.301 738.427 133.301 737.774 133.159C737.006 133.011 736.293 132.964 735.512 132.945C735.223 132.937 734.934 132.929 734.636 132.92C734.331 132.912 734.025 132.904 733.71 132.896C731.222 132.825 728.747 132.699 726.268 132.458C725.24 132.319 725.24 132.319 724.259 132.561C723.838 132.569 723.416 132.562 722.995 132.547C722.739 132.539 722.484 132.53 722.221 132.521C721.953 132.51 721.684 132.5 721.408 132.489C721.146 132.481 720.885 132.472 720.615 132.464C719.299 132.416 718.02 132.323 716.721 132.11C715.912 131.991 715.103 131.964 714.286 131.94C714.126 131.933 713.965 131.926 713.799 131.92C713.146 131.898 712.534 131.889 711.891 132.012C710.893 132.151 709.92 132 708.921 131.898C707.142 131.729 705.445 131.663 703.661 131.793C702.808 131.81 702.101 131.61 701.289 131.369C700.394 131.2 699.531 131.235 698.623 131.265C698.444 131.269 698.266 131.273 698.081 131.278C697.092 131.302 697.092 131.302 696.118 131.463C695.671 131.546 695.671 131.546 695.207 131.292C694.873 131.258 694.538 131.238 694.203 131.225C694.001 131.218 693.798 131.21 693.59 131.203C693.378 131.196 693.167 131.189 692.948 131.183C692.743 131.174 692.537 131.166 692.326 131.158C691.32 131.123 690.343 131.125 689.34 131.22C688.517 131.293 687.856 131.237 687.055 131.003C686.706 130.903 686.355 130.809 686 130.728C685.879 130.841 685.879 130.841 685.756 130.957C685.368 130.961 684.98 130.949 684.593 130.931C684.236 130.915 684.236 130.915 683.872 130.899C683.37 130.875 682.869 130.851 682.367 130.827C681.182 130.776 680.07 130.747 678.896 130.951C678.74 130.945 678.584 130.94 678.423 130.934C678.261 131.085 678.1 131.236 677.934 131.391C677.942 131.157 677.95 130.922 677.959 130.68C677.806 130.678 677.654 130.675 677.496 130.672C676 130.634 674.52 130.53 673.031 130.387C671.057 130.197 669.089 130.112 667.107 130.067C666.896 130.061 666.686 130.056 666.47 130.05C666.19 130.044 666.19 130.044 665.904 130.038C665.445 129.999 665.445 129.999 664.981 129.745C664.031 129.646 663.1 129.631 662.156 129.778C661.505 129.848 661.078 129.82 660.443 129.717C659.048 129.499 657.657 129.472 656.248 129.444C655.132 129.416 654.063 129.311 652.961 129.134C652.26 129.034 651.565 129.018 650.857 129.006C649.496 128.984 649.496 128.984 648.942 128.821C648.107 128.584 647.238 128.608 646.376 128.579C646.165 128.571 645.954 128.564 645.737 128.555C645.038 128.53 644.338 128.505 643.639 128.481C643.147 128.464 642.656 128.446 642.165 128.428C641.13 128.391 640.096 128.355 639.061 128.32C637.756 128.275 636.45 128.227 635.145 128.18C634.126 128.143 633.108 128.107 632.089 128.071C631.609 128.054 631.129 128.037 630.649 128.02C627.935 127.921 625.227 127.871 622.511 127.882C619.285 127.894 616.068 127.807 612.845 127.689C612.264 127.669 611.684 127.648 611.103 127.628C609.897 127.586 608.691 127.542 607.486 127.498C605.965 127.443 604.445 127.39 602.925 127.337C597.475 127.148 592.029 126.958 586.589 126.572C583.485 126.353 580.379 126.249 577.268 126.158C576.181 126.126 575.094 126.092 574.007 126.057C573.764 126.05 573.521 126.044 573.271 126.037C573.047 126.03 572.822 126.022 572.59 126.015C572.297 126.006 572.297 126.006 571.998 125.998C571.397 125.948 570.847 125.815 570.262 125.672C569.621 125.627 568.986 125.593 568.344 125.574C568.179 125.567 568.015 125.561 567.845 125.554C566.935 125.523 566.046 125.54 565.137 125.61C563.425 125.708 561.72 125.633 560.008 125.563C559.407 125.539 558.805 125.516 558.204 125.493C556.929 125.445 555.654 125.396 554.379 125.346C552.898 125.287 551.417 125.23 549.935 125.175C549.346 125.152 548.757 125.128 548.167 125.104C547.803 125.091 547.439 125.077 547.075 125.063C546.914 125.056 546.752 125.049 546.586 125.042C545.785 125.014 545.012 125.032 544.217 125.12C543.397 125.183 542.912 125.129 542.138 124.911C541.695 124.874 541.251 124.849 540.807 124.833C540.543 124.823 540.279 124.813 540.007 124.803C539.722 124.793 539.436 124.783 539.141 124.773C538.841 124.762 538.541 124.751 538.232 124.74C537.418 124.711 536.605 124.683 535.792 124.655C535.287 124.638 534.782 124.621 534.277 124.603C529.907 124.452 525.538 124.328 521.165 124.271C520.948 124.268 520.731 124.265 520.507 124.261C518.518 124.235 516.548 124.231 514.562 124.366C513.63 124.402 512.719 124.303 511.794 124.205C509.73 124.012 507.669 123.898 505.597 123.822C505.328 123.812 505.058 123.801 504.78 123.79C503.227 123.737 501.683 123.736 500.129 123.771C497.781 123.817 495.436 123.801 493.088 123.772C492.664 123.768 492.24 123.763 491.816 123.758C490.938 123.748 490.06 123.738 489.182 123.727C488.061 123.714 486.94 123.701 485.818 123.689C484.948 123.679 484.077 123.669 483.206 123.659C482.792 123.654 482.379 123.649 481.965 123.645C481.388 123.638 480.811 123.631 480.235 123.624C480.067 123.622 479.9 123.62 479.727 123.618C478.914 123.608 478.103 123.586 477.291 123.547C476.436 123.485 476.436 123.485 475.704 123.741C474.481 123.776 473.271 123.656 472.061 123.493C470.59 123.302 469.125 123.256 467.644 123.226C466.733 123.204 465.862 123.146 464.963 122.989C464.693 122.945 464.422 122.901 464.144 122.856C464.063 122.931 463.982 123.007 463.899 123.084C463.31 123.087 462.729 123.076 462.141 123.053C461.963 123.047 461.784 123.041 461.601 123.035C461.222 123.022 460.843 123.008 460.464 122.993C459.89 122.972 459.317 122.953 458.743 122.934C456.98 122.872 455.255 122.768 453.512 122.478C452.694 122.481 451.904 122.493 451.168 122.886C450.456 123.166 449.948 123.055 449.192 122.948C447.691 122.758 446.212 122.677 444.699 122.649C444.006 122.633 443.378 122.604 442.706 122.421C442.157 122.26 442.157 122.26 441.65 122.523C440.763 122.81 439.946 122.772 439.028 122.73C438.837 122.724 438.645 122.717 438.448 122.71C437.818 122.687 437.187 122.661 436.557 122.635C436.119 122.619 435.681 122.603 435.243 122.587C434.093 122.544 432.942 122.498 431.791 122.452C430.616 122.406 429.441 122.362 428.266 122.318C425.962 122.231 423.658 122.141 421.354 122.049C421.265 122.359 421.176 122.67 421.084 122.989C420.85 122.981 420.616 122.973 420.375 122.964C420.311 122.57 420.247 122.176 420.181 121.77C419.765 121.703 419.348 121.639 418.931 121.578C418.699 121.542 418.467 121.506 418.228 121.469C417.539 121.379 417.539 121.379 416.865 121.89C416.223 121.908 415.606 121.9 414.966 121.869C414.781 121.862 414.595 121.854 414.404 121.847C413.811 121.823 413.218 121.796 412.626 121.769C412.227 121.753 411.829 121.736 411.43 121.72C410.699 121.69 409.967 121.659 409.236 121.627C408.628 121.6 408.021 121.576 407.414 121.555C405.852 121.145 405.852 121.145 405.33 120.294C405.318 120.607 405.307 120.92 405.296 121.242C404.013 121.284 404.013 121.284 403.33 120.816C403.207 120.694 403.085 120.573 402.958 120.447C402.89 120.596 402.821 120.746 402.75 120.9C402.452 121.379 402.452 121.379 401.735 121.59C401.37 121.605 401.004 121.606 400.639 121.6C400.417 121.597 400.195 121.594 399.966 121.591C399.726 121.586 399.486 121.582 399.239 121.577C398.99 121.573 398.741 121.569 398.485 121.565C397.956 121.557 397.428 121.548 396.9 121.538C396.101 121.524 395.302 121.511 394.503 121.498C393.052 121.475 391.601 121.447 390.149 121.417C389.97 121.413 389.791 121.409 389.607 121.406C389.171 121.396 388.736 121.384 388.301 121.372C388.08 121.366 387.86 121.36 387.633 121.354C387.101 121.31 386.646 121.206 386.141 121.037C386.136 121.194 386.13 121.35 386.125 121.511C385.891 121.503 385.657 121.495 385.416 121.486C385.421 121.33 385.427 121.173 385.433 121.012C385.265 121.084 385.097 121.156 384.925 121.23C384.151 121.47 383.577 121.461 382.772 121.407C381.814 121.314 381.814 121.314 380.918 121.564C380.52 121.573 380.122 121.567 379.724 121.553C379.366 121.541 379.366 121.541 379.001 121.528C378.752 121.519 378.502 121.509 378.244 121.499C377.997 121.491 377.75 121.483 377.495 121.475C377.136 121.462 377.136 121.462 376.77 121.448C376.552 121.44 376.333 121.432 376.108 121.424C375.484 121.371 375.484 121.371 374.867 121.223C374.078 121.037 373.393 121.158 372.59 121.254C371.007 121.424 369.476 121.428 367.887 121.345C367.014 121.301 366.179 121.295 365.311 121.396C364.369 121.498 363.605 121.299 362.709 121.007C362.206 120.851 362.206 120.851 361.536 121.113C358.841 121.331 356.147 121.179 353.451 121.059C351.523 120.975 349.609 120.916 347.68 120.985C346.382 121.031 345.164 121.006 343.877 120.843C342.698 120.686 342.698 120.686 341.524 120.767C340.963 120.858 340.963 120.858 340.423 120.729C339.566 120.526 338.739 120.578 337.867 120.615C336.514 120.661 335.178 120.675 333.825 120.59C333.242 120.582 332.684 120.615 332.103 120.661C330.614 120.764 329.139 120.711 327.649 120.653C327.247 120.64 327.247 120.64 326.837 120.627C322.333 120.462 322.333 120.462 320.828 120.002C320.396 119.839 320.396 119.839 319.935 120.112C319.376 120.096 318.816 120.064 318.258 120.024C318.089 120.012 317.92 120.001 317.745 119.989C317.202 119.951 316.658 119.912 316.115 119.873C315.408 119.822 314.702 119.773 313.995 119.724C313.821 119.712 313.648 119.699 313.468 119.687C312.609 119.628 311.752 119.581 310.89 119.562C310.729 119.558 310.567 119.554 310.401 119.55C309.963 119.542 309.524 119.536 309.085 119.531C308.373 119.465 308.044 119.301 307.438 118.956C307.235 119.057 307.031 119.157 306.821 119.261C305.812 119.697 305.087 119.633 304.008 119.549C303.435 119.527 302.997 119.6 302.443 119.729C301.759 119.614 301.229 119.43 300.601 119.129C299.855 118.84 299.855 118.84 299.113 119.242C298.091 119.667 297.221 119.614 296.135 119.522C295.941 119.509 295.747 119.496 295.548 119.483C295.135 119.454 294.723 119.424 294.311 119.392C293.669 119.343 293.027 119.298 292.385 119.255C291.749 119.212 291.114 119.168 290.478 119.124C288.948 119.016 287.418 118.928 285.884 118.874C285.712 118.867 285.54 118.86 285.363 118.852C284.356 118.819 283.365 118.849 282.359 118.899C279.798 119.002 277.24 118.85 274.682 118.744C273.665 118.701 272.649 118.66 271.633 118.621C271.402 118.61 271.172 118.6 270.935 118.59C269.828 118.546 268.803 118.566 267.703 118.733C267.31 118.648 266.919 118.555 266.53 118.454C266.252 118.444 265.975 118.435 265.689 118.424C264.876 118.396 264.876 118.396 264.473 118.264C263.688 118.059 262.901 118.054 262.095 118.03C261.821 118.021 261.821 118.021 261.542 118.011C259.724 117.958 257.906 117.98 256.088 118.02C255.868 118.024 255.649 118.028 255.423 118.031C255.229 118.036 255.036 118.04 254.836 118.044C254.244 118.018 254.244 118.018 253.625 117.881C252.517 117.67 251.418 117.647 250.292 117.609C249.925 117.596 249.925 117.596 249.55 117.582C249.034 117.564 248.517 117.546 248.001 117.528C247.215 117.502 246.43 117.473 245.644 117.443C245.141 117.426 244.637 117.408 244.134 117.391C243.901 117.382 243.669 117.373 243.429 117.364C242.213 117.325 241.032 117.339 239.822 117.466C239.195 117.499 238.604 117.382 237.989 117.264C236.707 117.068 235.385 117.114 234.089 117.096C232.743 117.063 231.528 116.922 230.229 116.557C229.5 116.39 228.812 116.325 228.079 116.495C227.302 116.648 226.532 116.595 225.745 116.562C225.577 116.556 225.409 116.549 225.236 116.543C224.319 116.504 223.424 116.431 222.517 116.284C221.708 116.076 221.708 116.076 221.183 116.37C220.524 116.384 219.87 116.385 219.21 116.375C219.012 116.373 218.815 116.371 218.611 116.369C218.19 116.365 217.77 116.359 217.349 116.354C216.714 116.345 216.079 116.338 215.444 116.331C215.034 116.327 214.625 116.322 214.215 116.317C213.916 116.314 213.916 116.314 213.612 116.31C212.349 116.294 211.094 116.245 209.835 116.139C209.23 116.202 209.022 116.425 208.628 116.874C208.558 116.637 208.488 116.399 208.416 116.155C208.129 116.149 207.841 116.144 207.545 116.139C206.951 116.12 206.462 116.072 205.881 115.931C205.374 115.77 205.374 115.77 204.957 115.913C204.155 116.056 203.389 115.938 202.587 115.844C201.399 115.715 200.224 115.614 199.029 115.593C198.094 115.545 197.169 115.405 196.242 115.277C196.055 115.261 195.868 115.244 195.675 115.228C195.594 115.303 195.513 115.379 195.43 115.457C194.879 115.437 194.327 115.417 193.776 115.398C193.221 115.449 192.667 115.509 192.114 115.576C190.165 115.78 188.026 115.974 186.114 115.475C185.464 115.334 184.93 115.331 184.266 115.37C184.034 115.383 183.801 115.396 183.562 115.409C183.321 115.424 183.081 115.439 182.833 115.455C182.596 115.468 182.359 115.481 182.115 115.495C181.037 115.557 179.961 115.628 178.885 115.717C178.131 115.776 177.399 115.786 176.643 115.739C175.931 115.696 175.529 115.707 174.833 115.912C174.224 115.914 173.623 115.903 173.015 115.878C172.845 115.871 172.674 115.865 172.499 115.858C171.642 115.822 170.807 115.764 169.964 115.606C169.206 115.437 169.206 115.437 168.587 115.567C167.097 115.733 165.599 115.584 164.105 115.502C163.858 115.49 163.612 115.479 163.358 115.467C163.135 115.455 162.911 115.443 162.681 115.431C162.042 115.461 161.676 115.614 161.112 115.9C160.525 115.918 160.525 115.918 159.886 115.872C159.084 115.816 158.318 115.816 157.519 115.884C156.072 116.006 154.627 115.989 153.176 115.979C152.084 115.982 151.228 116.025 150.21 116.463C149.976 116.455 149.742 116.446 149.501 116.438C149.429 116.279 149.357 116.119 149.282 115.955C148.864 115.928 148.446 115.904 148.028 115.881C147.679 115.86 147.679 115.86 147.322 115.839C146.632 115.812 146.632 115.812 145.957 116.312C145.335 116.34 145.335 116.34 144.589 116.302C144.314 116.289 144.04 116.276 143.757 116.264C143.464 116.248 143.172 116.233 142.871 116.217C140.859 116.128 138.856 116.048 136.842 116.092C136.671 116.096 136.5 116.099 136.323 116.102C135.623 116.122 135.039 116.176 134.363 116.375C133.929 116.377 133.494 116.364 133.06 116.344C132.803 116.333 132.546 116.322 132.282 116.311C131.744 116.286 131.205 116.26 130.667 116.235C129.348 116.179 128.103 116.169 126.794 116.344C126.482 116.333 126.171 116.322 125.849 116.311C125.667 116.343 125.485 116.376 125.297 116.41C124.527 116.526 123.813 116.489 123.035 116.448C121.701 116.387 121.701 116.387 120.372 116.487C119.696 116.566 119.386 116.484 118.753 116.296C118.277 116.355 117.802 116.418 117.327 116.483C112.864 116.762 108.372 116.681 103.907 116.512C103.191 116.486 102.475 116.462 101.759 116.438C101.3 116.421 100.842 116.405 100.383 116.388C100.171 116.381 99.958 116.374 99.7389 116.367C99.5429 116.359 99.3469 116.351 99.145 116.343C98.9733 116.337 98.8017 116.331 98.6249 116.324C98.1721 116.278 98.1721 116.278 97.4717 116.016C97.0006 116.022 97.0006 116.022 96.4934 116.085C95.0525 116.214 93.665 116.198 92.2405 115.934C91.3194 115.796 90.5865 115.875 89.6664 115.976C89.3998 115.928 89.1331 115.879 88.8584 115.829C88.0336 115.683 87.4142 115.712 86.5943 115.805C85.5939 115.901 84.7094 115.882 83.7681 115.529C83.3435 115.498 82.9178 115.479 82.4922 115.469C82.2428 115.462 81.9935 115.455 81.7366 115.448C81.2115 115.436 80.6865 115.423 80.1614 115.411C79.7869 115.4 79.7869 115.4 79.4049 115.389C79.0626 115.381 79.0626 115.381 78.7134 115.373C78.151 115.332 77.6949 115.229 77.1609 115.058C76.8271 115.03 76.4922 115.013 76.1573 115.007C75.8648 115.002 75.5722 114.996 75.2708 114.991C75.1984 114.831 75.126 114.672 75.0513 114.508C74.2777 114.571 73.7285 114.633 73.056 115.036C71.4251 115.875 69.251 115.248 67.5597 114.798C66.9569 114.689 66.6393 114.768 66.0479 114.901C65.4388 114.902 64.8384 114.891 64.2305 114.866C63.9765 114.856 63.9765 114.856 63.7174 114.846C62.6722 114.801 61.658 114.704 60.6286 114.523C60.0731 114.443 59.5291 114.425 58.9682 114.412C58.6563 114.401 58.3445 114.39 58.0231 114.379C57.948 114.298 57.8728 114.217 57.7953 114.133C57.3551 114.152 56.9154 114.183 56.4763 114.22C55.5778 114.274 54.8511 114.301 54.0002 113.998C52.6765 113.532 51.2255 113.719 49.8706 113.996C49.2003 114.078 48.7576 113.964 48.1083 113.789C47.6281 113.726 47.147 113.67 46.6653 113.619C45.6486 113.509 44.6322 113.398 43.617 113.274C43.4151 113.25 43.2131 113.225 43.0051 113.2C42.4546 113.114 42.4546 113.114 41.9598 112.97C41.4761 112.812 41.4761 112.812 40.7796 112.817C40.1003 112.793 40.1003 112.793 39.6362 112.539C39.1828 112.53 39.1828 112.53 38.7202 112.522C37.3398 112.49 36.0353 112.186 34.6914 111.889C33.86 111.722 33.1102 111.594 32.2628 111.58C31.5479 111.543 31.0169 111.453 30.3359 111.273C28.7754 110.89 27.1999 110.744 25.6039 110.588C24.1776 110.431 23.0645 110.138 21.7639 109.531C21.4299 109.422 21.0939 109.319 20.7544 109.228C19.8906 108.99 19.8906 108.99 19.1902 108.728C18.7149 108.762 18.2402 108.806 17.7662 108.855C16.0305 108.946 15.0224 108.43 13.5534 107.578C13.1192 107.379 12.6825 107.185 12.2433 106.998C11.2489 106.573 11.2489 106.573 10.9965 106.301C10.7276 106.316 10.4587 106.331 10.1817 106.346C8.80135 106.309 7.82053 105.605 6.7941 104.727C6.26683 104.116 5.84537 103.48 5.44378 102.781C5.3148 102.565 5.18582 102.35 5.05292 102.129C4.77704 101.57 4.77704 101.57 4.58976 101.014C4.35654 100.316 4.35654 100.316 3.81224 99.5923C3.0972 98.3945 2.94977 97.1086 2.72471 95.7527C2.3334 93.2399 2.3334 93.2399 1.22673 90.996C0.687019 90.1713 0.793762 89.3215 0.986888 88.3802C1.15568 88.161 1.32447 87.9417 1.49838 87.7159C2.14254 86.7516 1.99867 86.1385 1.88529 85.0156C1.84323 84.4373 1.87097 83.9936 1.99049 83.431C2.19254 82.7168 2.19254 82.7168 1.92283 82.0044C1.92556 81.5281 1.94229 81.0518 1.96705 80.5762C1.97992 80.2951 1.99279 80.0141 2.00605 79.7245C2.03534 79.1327 2.06557 78.541 2.09676 77.9493C2.10935 77.6676 2.12194 77.3859 2.13491 77.0957C2.14802 76.8384 2.16113 76.5812 2.17464 76.3161C2.14927 75.583 1.9946 75.0753 1.7195 74.4013C1.46548 72.6279 2.04137 71.4866 2.93405 69.9919C3.49092 68.9075 3.72598 67.7974 3.97356 66.6091C4.14877 65.9422 4.14877 65.9422 4.63814 65.4848C4.65473 65.0171 4.67 64.5493 4.67316 64.0813C4.71813 63.3943 4.98549 62.8231 5.22845 62.1826C5.34875 61.0802 5.34875 61.0802 5.0679 60.0405C4.94898 58.1325 5.48507 56.5245 6.43432 54.8669C6.671 54.7969 6.90768 54.727 7.15154 54.655C7.18754 54.4653 7.22355 54.2757 7.26065 54.0802C7.31649 53.8815 7.37233 53.6828 7.42987 53.478C7.58858 53.4053 7.7473 53.3326 7.91082 53.2577C7.99225 53.0256 8.07367 52.7935 8.15756 52.5543C8.24873 52.3226 8.3399 52.0908 8.43383 51.852C9.15105 51.6401 9.15105 51.6401 9.78695 51.9751C10.0366 52.1159 10.2862 52.2566 10.5434 52.4016C11.0998 52.5881 11.6609 52.7607 12.2253 52.9212C13.3041 53.2346 14.3478 53.5794 15.3797 54.0271C16.5056 54.5048 17.6185 54.7599 18.8197 54.9754C19.3522 55.075 19.8574 55.2007 20.3742 55.3615C20.5405 53.6358 20.5405 53.6358 20.0194 52.0258C19.7917 51.9684 19.7917 51.9684 19.5593 51.9098C19.0828 51.7552 19.0828 51.7552 18.6729 50.9617C18.5409 50.625 18.4132 50.2866 18.2894 49.9467C18.2226 49.7715 18.1559 49.5963 18.0871 49.4158C17.7514 48.5099 17.4732 47.6369 17.326 46.6784C17.1528 45.6725 16.8126 45.1491 16.2721 44.2969C15.5425 42.4199 15.5425 42.4199 15.7833 41.7167C15.943 41.0573 15.7935 40.5489 15.6392 39.8988C14.9184 36.8485 15.13 33.839 15.334 30.7336C14.6377 30.5581 13.9949 30.4375 13.2771 30.3638C12.1491 30.203 11.0905 29.8729 10.0099 29.521C9.75556 29.4405 9.75556 29.4405 9.49609 29.3583C8.42018 28.9968 7.55973 28.5652 6.68455 27.8155C6.43355 26.9597 6.43256 26.1531 6.42005 25.2693C6.39382 23.7564 6.39382 23.7564 6.24622 22.2515C6.16789 20.6935 6.66247 19.2905 7.17183 17.8336C7.52453 16.8044 7.79882 15.8936 7.85604 14.8018C7.56605 14.3875 7.26298 13.9823 6.95303 13.5829C6.35854 11.8429 6.24082 10.5644 6.88501 8.83304C6.93256 8.33555 6.97417 7.83747 7.01195 7.33914C7.14661 6.06103 7.35772 5.34862 8.2262 4.3706C8.33738 4.12486 8.44856 3.87912 8.56312 3.62593C9.27752 2.52208 10.3403 2.4022 11.5448 2.09982C12.5751 1.89565 13.6149 1.77001 14.6575 1.64652C15.2547 1.56364 15.8315 1.45906 16.4214 1.33915C17.6743 1.10264 18.9173 1.03304 20.1895 0.98236C20.5672 0.966445 20.5672 0.966445 20.9525 0.950209C24.6606 0.81267 28.3959 0.797365 32.1031 0.948224C32.3612 0.958694 32.3612 0.958694 32.6246 0.969375C33.1068 0.989917 33.589 1.01245 34.0711 1.0351C34.8415 1.07981 34.8415 1.07981 35.557 0.830404C35.6846 0.947534 35.8121 1.06466 35.9436 1.18534C36.589 1.65717 37.0415 1.63706 37.826 1.6017C38.367 1.64223 38.367 1.64223 39.1181 1.89976C39.9777 2.16688 40.7296 2.28282 41.6239 2.35772C42.9243 2.47714 44.2174 2.61659 45.5121 2.78684C45.6785 2.80838 45.8449 2.82992 46.0164 2.85211C46.6954 2.93998 47.3744 3.02832 48.0531 3.11896C50.1486 3.39775 52.2015 3.57748 54.3162 3.62923C55.1105 3.66068 55.8635 3.75784 56.6456 3.89009C57.9845 4.08562 59.3404 4.15057 60.6893 4.24429C60.9916 4.26726 61.2939 4.29023 61.6054 4.31389C63.3412 4.43569 65.0188 4.45876 66.7544 4.31985C67.3692 4.33298 67.3692 4.33298 68.0612 4.83227C68.5918 4.85604 68.5918 4.85604 69.1866 4.78319C71.5598 4.60388 73.9006 4.75409 76.2549 5.0711C77.4548 5.19311 78.6568 5.2183 79.8623 5.24223C80.6405 5.26101 81.2576 5.2888 81.9926 5.564C82.3072 5.59432 82.6231 5.61192 82.939 5.62077C83.1284 5.6267 83.3177 5.63264 83.5128 5.63875C83.8186 5.64665 83.8186 5.64665 84.1305 5.6547C84.3412 5.66128 84.5519 5.66786 84.7689 5.67464C85.6703 5.70274 86.5717 5.72807 87.4731 5.75361C88.1313 5.77267 88.7895 5.79316 89.4476 5.81371C89.7513 5.82153 89.7513 5.82153 90.061 5.82951C91.1063 5.86233 92.0633 5.97452 93.0889 6.19513C93.3485 6.16518 93.6082 6.13523 93.8757 6.10437C94.7771 6.01415 95.49 6.10409 96.3712 6.27451C96.9093 6.33369 97.2975 6.24095 97.8227 6.12574C98.3714 6.22297 98.9199 6.32151 99.4681 6.4215C99.7048 6.35157 99.9415 6.28163 100.185 6.20958C101.041 6.22619 101.892 6.26507 102.746 6.30972C103.531 6.34577 104.16 6.36458 104.919 6.14019C106.583 6.14166 108.18 6.36734 109.808 6.6994C110.611 6.83074 111.36 6.81323 112.171 6.76843C113.557 6.69277 114.926 6.70491 116.312 6.75216C116.507 6.75805 116.703 6.76393 116.904 6.77C118.03 6.81254 119.119 6.9273 120.231 7.10439C120.982 7.21183 121.731 7.24283 122.489 7.26806C122.912 7.284 122.912 7.284 123.344 7.30027C124.023 7.34093 124.023 7.34093 124.521 7.07314C125.14 7.07164 125.751 7.0836 126.369 7.10719C126.551 7.11343 126.734 7.11968 126.921 7.12611C127.307 7.13963 127.692 7.15374 128.078 7.16841C128.67 7.1907 129.262 7.21045 129.854 7.22995C130.228 7.24337 130.602 7.25694 130.976 7.27068C131.154 7.27652 131.333 7.28237 131.516 7.28839C132.764 7.33837 132.764 7.33837 133.018 7.61204C133.365 7.64769 133.713 7.66707 134.061 7.67976C134.284 7.68841 134.507 7.69706 134.736 7.70598C134.98 7.71415 135.224 7.72232 135.475 7.73074C135.853 7.74448 135.853 7.74448 136.238 7.7585C136.775 7.77772 137.312 7.79633 137.849 7.8144C138.656 7.84178 139.462 7.87163 140.269 7.90179C142.75 7.9905 145.223 8.06233 147.705 7.97875C150.738 7.87741 150.738 7.87741 151.735 8.17375C151.874 8.2125 152.013 8.25124 152.156 8.29115C152.237 8.21569 152.318 8.14022 152.401 8.06247C153.218 7.99914 154.038 8.00767 154.857 8.00128C155.095 7.99919 155.333 7.99711 155.577 7.99496C157.352 7.98943 159.082 8.03706 160.805 8.50347C161.4 8.67016 161.4 8.67016 162.088 8.40621C162.643 8.40875 163.197 8.42569 163.751 8.45041C163.993 8.46033 163.993 8.46033 164.239 8.47045C164.753 8.49157 165.266 8.51421 165.78 8.53722C166.457 8.56753 167.134 8.59632 167.811 8.62415C168.112 8.63758 168.413 8.65102 168.723 8.66486C169.384 8.74474 169.384 8.74474 169.657 8.43743C170.06 8.43381 170.462 8.44629 170.865 8.46545C171.115 8.47632 171.365 8.48718 171.622 8.49837C171.89 8.51077 172.157 8.52317 172.433 8.53595C174.273 8.6127 176.083 8.66637 177.922 8.54805C178.635 8.51932 179.328 8.54009 180.041 8.57595C181.797 8.64529 183.541 8.58499 185.297 8.51769C187.615 8.43515 189.921 8.39124 192.238 8.52338C193.036 8.56755 193.723 8.5574 194.499 8.36948C194.707 8.42092 194.915 8.47236 195.129 8.52536C196.012 8.67443 196.615 8.54712 197.471 8.3266C198.051 8.25817 198.051 8.25817 198.809 8.40466C199.688 8.55249 200.432 8.55385 201.32 8.50768C203.358 8.43081 205.389 8.49833 207.426 8.576C207.593 8.58229 207.76 8.58858 207.932 8.59507C209.152 8.64127 210.372 8.68974 211.592 8.73868C212.818 8.78783 214.044 8.83615 215.27 8.88246C215.753 8.90111 216.236 8.92121 216.719 8.9414C218.345 9.00336 219.942 9.00903 221.566 8.89722C222.43 8.8667 223.192 9.01775 224.041 9.18042C224.786 9.26211 225.534 9.31971 226.281 9.3786C226.704 9.41354 227.128 9.44865 227.551 9.48393C227.758 9.5011 227.964 9.51826 228.178 9.53595C230.197 9.70727 232.213 9.92231 234.228 10.1372C234.698 10.1868 235.169 10.2363 235.639 10.2858C236.095 10.3342 236.552 10.3837 237.008 10.4333C238.701 10.6114 240.376 10.7269 242.078 10.7546C242.672 10.791 242.672 10.791 243.137 11.0449C243.729 11.1498 244.32 11.2441 244.915 11.3305C245.279 11.3845 245.642 11.4385 246.006 11.4926C246.286 11.534 246.286 11.534 246.572 11.5763C247.118 11.6588 247.663 11.7463 248.208 11.8359C249.824 12.0995 251.411 12.3476 253.054 12.3398C253.499 12.3621 253.499 12.3621 254.199 12.6243C254.518 12.5635 254.836 12.4948 255.153 12.4208C256.875 12.3776 258.598 12.5843 260.309 12.7566C261.217 12.8467 262.118 12.9173 263.03 12.9377C263.886 12.968 263.886 12.968 264.587 13.2303C265.3 13.3361 266.019 13.3912 266.737 13.4549C266.935 13.4742 267.132 13.4934 267.335 13.5132C267.833 13.5585 268.332 13.5896 268.831 13.6183C268.912 13.5428 268.992 13.4673 269.076 13.3896C269.674 13.3995 270.266 13.4216 270.862 13.453C272.394 13.5271 272.394 13.5271 273.923 13.4429C275.062 13.3208 276.159 13.2892 277.274 13.5915C277.827 13.7507 277.827 13.7507 278.372 13.4969C279.623 13.0512 280.817 13.3134 282.079 13.6136C282.316 13.5437 282.552 13.4738 282.796 13.4017C283.368 13.4059 283.934 13.4425 284.505 13.4772C285.112 13.4849 285.686 13.4282 286.287 13.357C287.567 13.2376 288.854 13.217 290.138 13.1727C290.433 13.1615 290.728 13.1504 291.032 13.139C291.318 13.1288 291.605 13.1186 291.9 13.1081C292.158 13.0989 292.417 13.0897 292.683 13.0803C293.232 13.0714 293.78 13.0799 294.328 13.1003C295.11 13.1458 295.11 13.1458 295.894 13.0357C296.8 12.945 297.651 12.9709 298.558 13.0264C299.132 13.0496 299.132 13.0496 299.689 12.933C300.316 12.8377 300.87 12.8326 301.502 12.8638C301.726 12.8737 301.949 12.8837 302.179 12.8939C302.414 12.9051 302.649 12.9164 302.892 12.9279C306.339 13.1809 306.339 13.1809 309.74 12.8112C310.397 12.6898 310.998 12.7186 311.666 12.7497C312.07 12.7668 312.07 12.7668 312.483 12.7843C313.05 12.8106 313.617 12.8369 314.184 12.8632C314.589 12.8803 314.589 12.8803 315.002 12.8978C315.248 12.9093 315.494 12.9208 315.748 12.9326C316.379 12.9557 316.379 12.9557 316.88 12.8309C317.53 12.6929 318.128 12.7344 318.791 12.7652C319.072 12.777 319.354 12.7888 319.644 12.801C320.229 12.8279 320.814 12.8548 321.398 12.8818C324.616 13.0929 324.616 13.0929 327.771 12.624C327.925 12.7077 328.078 12.7915 328.236 12.8778C329.025 12.9632 329.818 12.9779 330.611 13.0066C330.828 13.0172 331.045 13.0278 331.268 13.0387C332.539 13.0865 333.669 13.0137 334.906 12.7087C335.583 12.6253 335.948 13.0366 336.497 13.4083C337.011 13.4124 337.503 13.3462 338.014 13.2869C338.692 13.2427 339.297 13.3076 339.971 13.3981C341.67 13.6186 343.364 13.6655 345.076 13.7039C345.397 13.7123 345.397 13.7123 345.725 13.721C346.012 13.727 346.012 13.727 346.304 13.7332C346.987 13.7843 347.631 13.9277 348.302 14.0646C348.803 14.116 349.305 14.1583 349.807 14.1931C350.099 14.2134 350.39 14.2337 350.691 14.2546C351.002 14.275 351.313 14.2954 351.634 14.3164C351.794 14.3272 351.955 14.338 352.12 14.3491C354.733 14.5244 357.344 14.6316 359.961 14.7117C362.247 14.7858 364.52 14.9238 366.784 15.2555C368.8 15.5412 370.816 15.6126 372.847 15.6774C373.035 15.6836 373.222 15.6898 373.415 15.6962C378.361 15.8579 383.264 15.8435 388.204 15.5346C391.105 15.357 393.969 15.3861 396.871 15.5354C397.158 15.55 397.446 15.5647 397.742 15.5798C397.995 15.5945 398.248 15.6093 398.509 15.6245C399.105 15.6725 399.105 15.6725 399.589 15.4098C400.063 15.4091 400.536 15.4236 401.01 15.4454C401.444 15.4638 401.444 15.4638 401.886 15.4826C402.35 15.5034 402.35 15.5034 402.823 15.5246C403.455 15.5506 404.088 15.5747 404.721 15.5984C405.007 15.6098 405.292 15.6211 405.587 15.6328C406.738 15.66 407.88 15.6304 409.031 15.5761C410.425 15.5163 411.821 15.5251 413.217 15.5225C413.615 15.5211 413.615 15.5211 414.021 15.5196C415.295 15.5182 416.565 15.5345 417.839 15.5901C419.655 15.661 421.466 15.6248 423.283 15.5861C423.861 15.5738 424.44 15.563 425.018 15.5523C426.773 15.5183 428.524 15.4767 430.275 15.3578C432.6 15.2436 432.6 15.2436 433.67 15.5594C434.377 15.7587 435.054 15.5868 435.78 15.5072C436.4 15.5208 437.018 15.5507 437.637 15.588C438.154 15.6267 438.154 15.6267 438.624 15.3707C439.223 15.3685 439.815 15.3798 440.413 15.4027C440.681 15.4119 440.681 15.4119 440.954 15.4212C441.333 15.4345 441.711 15.4484 442.09 15.4628C442.664 15.4844 443.238 15.5035 443.812 15.5224C444.18 15.5356 444.549 15.549 444.917 15.5626C445.087 15.5681 445.257 15.5736 445.431 15.5793C446.568 15.6249 447.653 15.7794 448.775 15.9683C449.347 15.9808 449.919 15.977 450.49 15.955C450.77 15.9463 451.05 15.9376 451.338 15.9285C452.059 15.8995 452.059 15.8995 452.517 15.6221C453.265 15.3233 453.882 15.3884 454.684 15.4279C454.922 15.4382 454.922 15.4382 455.165 15.4487C455.672 15.4709 456.179 15.4963 456.686 15.5221C457.347 15.5544 458.008 15.585 458.67 15.6138C458.914 15.6246 458.914 15.6246 459.164 15.6357C460.513 15.688 461.849 15.6388 463.198 15.5766C464.154 15.5505 465.075 15.628 466.022 15.7496C467.161 15.8921 468.18 15.933 469.329 15.8073C470.315 15.7274 471.301 15.7836 472.289 15.8236C472.519 15.8322 472.75 15.8409 472.988 15.8498C474.482 15.9116 475.958 16.0305 477.445 16.1891C479.861 16.4243 482.295 16.4565 484.72 16.523C484.898 16.5282 485.075 16.5335 485.257 16.539C485.593 16.5489 485.928 16.5579 486.263 16.5657C486.903 16.5851 487.503 16.6212 488.127 16.7703C488.952 16.9659 489.775 16.9824 490.619 17.01C490.89 17.0199 490.89 17.0199 491.165 17.0301C491.545 17.0437 491.924 17.0567 492.303 17.0692C492.884 17.0885 493.465 17.1104 494.045 17.1325C494.414 17.1454 494.784 17.1582 495.153 17.1709C495.326 17.1775 495.5 17.1841 495.679 17.191C496.416 17.2137 496.994 17.2035 497.708 16.9926C498.038 16.9885 498.368 16.9958 498.698 17.0129C499.143 17.0361 499.143 17.0361 499.598 17.0597C499.603 16.9032 499.609 16.7468 499.615 16.5856Z" fill="#A8D5BA"/>
</svg>
