<svg width="289" height="93" viewBox="0 0 289 93" fill="none" xmlns="http://www.w3.org/2000/svg">
<path d="M90.8805 4.77144C91.0394 4.83848 91.1983 4.90553 91.362 4.9746C91.3519 5.07567 91.3417 5.17674 91.3312 5.28087C91.468 5.30401 91.6048 5.32715 91.7458 5.35099C91.9245 5.38195 92.1032 5.4129 92.2874 5.44479C92.4648 5.47521 92.6423 5.50564 92.8252 5.53699C93.3037 5.6341 93.3037 5.6341 93.7852 5.83726C94.1491 5.88699 94.5143 5.92723 94.8798 5.96255C95.0461 5.97895 95.0461 5.97895 95.2157 5.99568C95.4568 6.01936 95.698 6.04269 95.9392 6.06571C96.3245 6.10251 96.7097 6.14028 97.0949 6.17831C98.0544 6.27283 99.0141 6.36574 99.9738 6.4586C100.91 6.54925 101.846 6.64062 102.782 6.73324C102.912 6.74607 103.042 6.75891 103.176 6.77214C105.079 6.96153 106.968 7.19922 108.858 7.494C109.548 7.59637 110.241 7.66008 110.936 7.71837C112.26 7.83144 112.26 7.83144 112.805 8.06119C113.265 8.12955 113.723 8.18973 114.185 8.24365C114.321 8.26019 114.457 8.27672 114.598 8.29376C115.033 8.34665 115.468 8.39863 115.903 8.45041C116.474 8.51842 117.045 8.5873 117.616 8.65666C117.746 8.67184 117.876 8.68702 118.01 8.70266C118.768 8.79474 119.486 8.94134 120.229 9.11784C120.622 9.17097 121.015 9.21721 121.41 9.25725C121.737 9.2905 121.737 9.2905 122.071 9.32442C122.183 9.33537 122.295 9.34631 122.41 9.3576C122.755 9.39142 123.099 9.42689 123.443 9.46251C123.66 9.4842 123.878 9.50588 124.102 9.52822C124.3 9.548 124.498 9.56778 124.702 9.58816C125.205 9.63961 125.205 9.63961 125.711 9.51499C126.175 9.60069 126.633 9.69524 127.093 9.79733C128.636 10.1221 130.17 10.316 131.74 10.4631C132.164 10.5029 132.588 10.5453 133.011 10.5879C133.287 10.6149 133.562 10.6417 133.837 10.6684C133.961 10.6807 134.085 10.6929 134.212 10.7056C134.965 10.7752 135.702 10.7962 136.458 10.7798C136.981 10.7885 137.456 10.9092 137.961 11.0382C140.322 11.6361 142.76 11.8903 145.178 12.1803C145.418 12.2092 145.418 12.2092 145.663 12.2388C147.889 12.5062 150.116 12.764 152.346 12.9968C152.622 13.0258 152.898 13.0552 153.174 13.0851C154.509 13.2292 155.811 13.3352 157.152 13.2932C158.472 13.2564 159.722 13.3975 161.027 13.592C161.243 13.6225 161.459 13.6531 161.682 13.6846C162.206 13.7588 162.73 13.8349 163.253 13.9128C163.264 13.8117 163.274 13.7107 163.284 13.6066C163.175 13.5955 163.066 13.5845 162.953 13.5732C162.963 13.4721 162.973 13.3711 162.984 13.2669C163.788 13.1739 163.788 13.1739 164.143 13.3837C164.188 13.4902 164.232 13.5968 164.278 13.7066C164.343 13.611 164.408 13.5155 164.475 13.417C165.688 13.4808 165.688 13.4808 166.262 13.8387C166.863 14.1746 167.222 14.132 167.899 14.1013C168.366 14.1085 168.669 14.2514 169.051 14.4965C169.121 14.3504 169.191 14.2043 169.263 14.0537C169.394 14.0593 169.524 14.0648 169.658 14.0705C169.827 14.076 169.996 14.0814 170.17 14.087C170.338 14.0931 170.506 14.0993 170.68 14.1057C170.819 14.0985 170.958 14.0914 171.101 14.084C171.166 13.9885 171.231 13.8929 171.297 13.7944C172.185 13.88 173.073 13.9665 173.961 14.054C174.263 14.0836 174.565 14.113 174.867 14.142C175.301 14.1839 175.734 14.2267 176.168 14.2696C176.371 14.2889 176.371 14.2889 176.578 14.3085C177.125 14.3635 177.567 14.4175 178.074 14.6313C178.492 14.6765 178.908 14.7146 179.328 14.7478C180.244 14.8286 181.046 14.969 181.918 15.2587C182.863 15.5045 183.863 15.5431 184.835 15.6212C185.332 15.6713 185.574 15.7717 186.012 15.9814C186.697 16.2785 187.197 16.3473 187.952 16.2443C188.213 16.1175 188.213 16.1175 188.48 15.9881C188.81 16.0534 188.81 16.0534 189.171 16.1834C190.182 16.5406 191.205 16.7439 192.267 16.9107C193.05 17.0354 193.831 17.1664 194.611 17.311C195.916 17.6062 195.916 17.6062 197.198 17.4844C197.767 17.2876 198.27 17.4104 198.87 17.498C198.974 17.5595 199.078 17.6211 199.186 17.6845C199.378 17.7262 199.571 17.7679 199.769 17.8109C199.954 17.8582 200.139 17.9056 200.33 17.9543C200.374 18.0609 200.419 18.1675 200.465 18.2773C200.612 18.2858 200.76 18.2942 200.912 18.303C201.459 18.3773 201.774 18.5289 202.256 18.767C202.425 18.733 202.594 18.6989 202.768 18.6639C203.052 18.6857 203.335 18.7148 203.617 18.7493C203.886 18.7822 204.155 18.8107 204.425 18.8306C204.485 18.7856 204.545 18.7406 204.606 18.6942C204.989 18.7772 205.37 18.8686 205.75 18.964C206.04 19.0261 206.04 19.0261 206.335 19.0894C206.623 19.1525 206.623 19.1525 206.917 19.2168C207.207 19.2789 207.207 19.2789 207.502 19.3422C208.047 19.5061 208.387 19.7037 208.821 20.0465C208.751 20.1926 208.681 20.3387 208.609 20.4892C208.993 20.5804 209.378 20.6706 209.763 20.7602C209.871 20.7857 209.978 20.8113 210.089 20.8376C210.8 21.002 211.494 21.1032 212.222 21.1624C212.255 21.0413 212.288 20.9201 212.322 20.7954C212.369 20.6693 212.417 20.5433 212.465 20.4134C213.043 20.2136 213.648 20.3362 214.256 20.3906C214.387 20.3994 214.519 20.4081 214.654 20.4171C215.617 20.5044 216.158 20.7259 216.892 21.323C217.012 21.6832 217.012 21.6832 216.996 21.9522C217.547 22.1294 218.036 22.2242 218.616 22.2513C218.837 22.2623 218.837 22.2623 219.063 22.2736C219.215 22.2803 219.367 22.2869 219.524 22.2937C219.679 22.3012 219.834 22.3088 219.994 22.3165C220.375 22.3349 220.756 22.3524 221.137 22.3691C221.152 22.2175 221.168 22.0659 221.183 21.9097C222.208 21.8011 223.238 21.7387 224.269 21.6982C224.384 21.6911 224.498 21.6839 224.617 21.6765C225.242 21.6577 225.497 21.6867 225.982 22.0749C226.093 22.191 226.204 22.307 226.319 22.4266C226.845 22.5315 226.845 22.5315 227.313 22.5267C227.377 22.4311 227.442 22.3356 227.509 22.2371C230.383 22.7563 230.383 22.7563 230.61 23.0133C231.442 23.2683 232.278 23.4906 233.147 23.5781C234.02 23.6659 234.841 23.9149 235.684 24.1428C236.247 24.287 236.754 24.4075 237.334 24.4478C238.156 24.5504 238.906 24.7772 239.696 25.0107C240.995 25.3824 242.186 25.6133 243.538 25.708C244.122 25.7655 244.606 25.9082 245.152 26.1068C245.535 26.221 245.873 26.2614 246.273 26.292C247.192 26.3759 248.085 26.5341 248.99 26.71C249.146 26.7392 249.302 26.7683 249.462 26.7983C250.601 27.0168 250.601 27.0168 250.77 27.2082C251.171 27.3204 251.568 27.421 251.974 27.5131C252.092 27.54 252.21 27.567 252.332 27.5948C253.224 27.7827 253.98 27.7655 254.884 27.6635C255.243 27.6585 255.243 27.6585 255.632 27.949C255.766 28.1938 255.898 28.439 256.029 28.685C256.679 29.5025 258.129 29.5784 259.132 29.7515C260.711 30.0238 260.711 30.0238 261.446 30.3064C261.972 30.4981 262.406 30.5509 262.965 30.5734C263.929 30.6125 264.697 30.6667 265.403 31.3495C265.773 31.7794 265.874 32.0728 265.957 32.604C266.081 32.7441 266.205 32.8842 266.332 33.0286C266.708 33.4531 266.708 33.4531 266.757 33.7964C266.784 33.9379 266.784 33.9379 266.812 34.0823C266.944 34.1434 267.076 34.2046 267.212 34.2675C267.343 34.335 267.474 34.4024 267.61 34.4719C267.739 34.9712 267.688 35.3529 267.636 35.8668C267.737 35.8903 267.838 35.9138 267.941 35.9379C269.016 36.2234 269.016 36.2234 269.404 36.7021C269.535 37.2113 269.56 37.5517 269.424 38.0576C269.064 38.3114 269.064 38.3114 268.715 38.4503C268.745 38.6687 268.745 38.6687 268.775 38.8914C268.788 39.3858 268.788 39.3858 268.411 39.8118C267.8 39.8567 267.8 39.8567 267.236 39.8482C267.275 40.0053 267.314 40.1625 267.355 40.3243C268.16 40.5585 268.16 40.5585 268.981 40.7973C269.082 41.6932 269.082 41.6932 268.676 42.1589C268.557 42.2489 268.437 42.339 268.314 42.4318C268.468 42.5493 268.622 42.6669 268.78 42.7881C268.76 42.9902 268.74 43.1923 268.719 43.4006C268.937 43.4226 269.156 43.4446 269.381 43.4673C269.361 43.6694 269.341 43.8716 269.32 44.0798C269.494 44.0591 269.669 44.0384 269.849 44.0171C270.632 44.049 270.876 44.2533 271.427 44.756C271.447 44.5539 271.468 44.3517 271.489 44.1435C271.325 44.127 271.161 44.1104 270.992 44.0934C271.002 43.9924 271.012 43.8913 271.023 43.7872C271.192 43.7531 271.361 43.7191 271.535 43.6841C271.574 43.8412 271.614 43.9983 271.654 44.1601C271.873 44.1822 272.092 44.2042 272.317 44.2268C272.351 44.4345 272.386 44.6421 272.421 44.856C272.694 44.8836 272.968 44.9111 273.249 44.9394C273.041 44.8163 272.832 44.6933 272.617 44.5665C272.628 44.4654 272.638 44.3643 272.648 44.2602C274.463 44.5671 276.106 44.9569 277.786 45.6801C278.446 45.9616 279.109 46.1698 279.799 46.3721C280.321 46.5367 280.843 46.7042 281.364 46.8735C281.718 46.9876 282.072 47.0988 282.428 47.2066C283.339 47.4924 284.072 47.7867 284.803 48.3738C285.097 48.616 285.097 48.616 285.446 48.8313C286.311 49.3871 286.311 49.3871 286.474 49.983C286.42 50.4131 286.335 50.7861 286.174 51.1904C285.896 51.2134 285.617 51.2364 285.331 51.2601C285.295 51.7826 285.295 51.7826 285.388 52.3487C285.735 52.6494 285.735 52.6494 286.17 52.8915C286.633 53.3662 286.991 53.7721 287.191 54.3864C287.067 54.527 286.942 54.6676 286.814 54.8125C286.704 54.8015 286.595 54.7905 286.482 54.7791C286.472 54.8802 286.462 54.9813 286.452 55.0854C286.72 55.1634 286.988 55.2415 287.264 55.3219C287.384 55.798 287.384 55.798 287.338 56.2574C287.368 56.4676 287.401 56.6776 287.442 56.8866C286.928 56.9794 286.785 56.982 286.282 56.7698C286.263 56.4106 286.244 56.0514 286.224 55.6812C285.896 55.6482 285.568 55.6152 285.23 55.5812C285.215 55.7328 285.2 55.8844 285.184 56.0406C285.025 55.9735 284.866 55.9065 284.702 55.8374C284.338 55.7844 284.338 55.7844 283.859 55.9072C283.779 56.1543 283.699 56.4015 283.616 56.6562C283.939 56.7397 284.262 56.8233 284.595 56.9094C284.675 56.6622 284.755 56.415 284.837 56.1604C285.12 56.3067 285.401 56.4545 285.682 56.6031C285.838 56.6853 285.995 56.7674 286.157 56.8521C286.544 57.0861 286.788 57.2593 287.033 57.6189C286.98 57.9422 286.98 57.9422 286.806 58.2147C286.133 58.35 285.787 58.1498 285.165 57.8949C285.041 58.2035 284.94 58.4668 284.907 58.797C285.001 58.9596 285.095 59.1222 285.192 59.2897C285.171 59.4919 285.151 59.694 285.13 59.9022C285.245 59.9297 285.359 59.9572 285.477 59.9855C286.006 60.1596 286.426 60.4071 286.891 60.6982C286.875 60.8498 286.86 61.0014 286.844 61.1576C286.666 61.1811 286.488 61.2046 286.304 61.2289C285.723 61.3345 285.306 61.4919 284.779 61.7232C284.615 61.7067 284.451 61.6901 284.282 61.6731C284.441 61.7402 284.6 61.8072 284.764 61.8763C284.754 61.9774 284.744 62.0784 284.733 62.1826C284.624 62.1716 284.514 62.1605 284.402 62.1492C284.392 62.2503 284.381 62.3513 284.371 62.4555C285.176 62.6896 285.176 62.6896 285.997 62.9285C286.239 63.8424 286.239 63.8424 286.205 64.1869C286.478 64.2144 286.751 64.2419 287.033 64.2703C287.112 64.5845 287.191 64.8987 287.272 65.2224C287.54 65.3005 287.808 65.3785 288.085 65.4589C288.16 66.0428 288.198 66.4348 287.932 66.9711C287.568 67.2632 287.568 67.2632 286.993 67.3696C286.258 67.2838 286.142 67.0744 285.627 66.6037C285.175 66.503 284.768 66.4879 284.302 66.4703C284.177 65.973 284.208 65.8437 284.409 65.3983C284.287 65.4116 284.165 65.4248 284.039 65.4384C283.589 65.4667 283.185 65.4418 282.737 65.3847C282.803 65.7004 282.803 65.7004 283.007 66.0306C283.247 66.1122 283.247 66.1122 283.492 66.1955C283.97 66.4369 283.97 66.4369 284.088 66.7099C284.218 67.3911 284.196 67.9513 283.92 68.5975C283.818 68.7148 283.717 68.8322 283.612 68.9532C283.2 69.5105 283.365 69.9842 283.496 70.6273C283.511 71.127 283.379 71.3071 283.064 71.7016C282.937 71.8642 282.937 71.8642 282.808 72.03C282.558 72.3067 282.302 72.5121 281.998 72.7351C281.77 73.037 281.77 73.037 281.605 73.3143C281.495 73.3033 281.386 73.2923 281.273 73.2809C281.288 73.3718 281.303 73.4626 281.319 73.5562C281.373 73.8839 281.427 74.2116 281.481 74.5393C281.293 74.5874 281.106 74.6355 280.912 74.6851C280.204 74.8901 279.881 75.1214 279.413 75.6556C279.15 76.1467 279.106 76.3838 279.077 76.9173C279.024 77.7328 278.773 78.0761 278.218 78.6967C278.076 78.9264 278.076 78.9264 277.931 79.1608C277.52 79.7111 277.13 79.9949 276.424 80.1747C274.848 80.4179 273.255 79.9574 271.742 79.5529C270.654 79.283 269.831 79.3738 268.756 79.6005C268.647 79.5895 268.538 79.5785 268.425 79.5671C268.399 79.8198 268.374 80.0725 268.348 80.3328C268.561 80.4053 268.775 80.4779 268.995 80.5526C269.029 80.7603 269.064 80.9679 269.099 81.1818C268.935 81.1653 268.771 81.1488 268.602 81.1318C268.448 81.4763 268.303 81.821 268.163 82.1704C268.061 82.4137 268.061 82.4137 267.957 82.662C267.871 83.3751 268.085 83.8035 268.388 84.4577C268.714 85.1687 268.873 85.7989 268.725 86.5581C268.665 86.6032 268.606 86.6482 268.544 86.6946C268.529 86.9865 268.518 87.2786 268.508 87.5707C268.433 88.4495 268.433 88.4495 268.115 88.8043C267.921 88.9332 267.723 89.0573 267.522 89.176C267.134 89.4486 267.128 89.826 267.015 90.253C266.57 90.6144 266.57 90.6144 266.109 90.9353C265.861 91.2455 265.861 91.2455 265.716 91.5145C265.92 91.6881 266.123 91.8617 266.333 92.0406C266.203 92.2317 266.073 92.4229 265.94 92.6198C265.835 92.6084 265.729 92.597 265.621 92.5853C265.141 92.5337 264.661 92.4834 264.181 92.433C264.015 92.4151 263.85 92.3972 263.679 92.3787C263.022 92.3105 262.4 92.2473 261.741 92.2829C261.184 92.3112 260.74 92.2086 260.201 92.0711C260.02 92.0264 259.84 91.9817 259.654 91.9357C259.213 91.7983 258.916 91.644 258.531 91.41C258.266 91.3241 257.999 91.2459 257.729 91.1745C257.29 91.0582 256.916 90.9424 256.514 90.7386C256.063 90.526 255.67 90.4461 255.175 90.3664C254.332 90.2291 254.332 90.2291 253.985 90.0243C253.399 89.9605 252.812 89.9167 252.224 89.8718C251.666 89.7908 251.666 89.7908 251.366 89.6102C250.981 89.3867 250.668 89.3213 250.224 89.2438C250.071 89.2162 249.918 89.1885 249.761 89.16C249.602 89.1326 249.444 89.1052 249.28 89.077C248.964 89.0214 248.649 88.9653 248.333 88.9085C248.194 88.8843 248.054 88.86 247.91 88.8351C247.586 88.7614 247.586 88.7614 247.436 88.5916C247.138 88.5664 247.138 88.5664 246.835 88.5407C245.435 88.4144 244.061 88.0585 242.722 87.6561C241.64 87.3366 240.536 87.1175 239.429 86.8934C237.941 86.5757 237.941 86.5757 237.32 86.0264C237.26 86.0715 237.2 86.1165 237.139 86.1629C236.814 86.175 236.49 86.1759 236.165 86.1712C235.988 86.17 235.811 86.1687 235.629 86.1674C235.135 86.1159 235.135 86.1159 234.832 85.9321C234.466 85.7212 234.236 85.6819 233.812 85.6486C233.683 85.6373 233.553 85.6259 233.42 85.6142C233.286 85.604 233.152 85.5938 233.013 85.5833C232.747 85.5618 232.481 85.5397 232.215 85.5168C232.097 85.5078 231.98 85.4987 231.859 85.4894C231.505 85.4405 231.209 85.3407 230.874 85.223C230.599 85.1894 230.323 85.1603 230.046 85.1396C230.007 84.9825 229.967 84.8254 229.927 84.6635C229.694 84.7119 229.694 84.7119 229.457 84.7612C229.274 84.797 229.091 84.8328 228.902 84.8697C228.788 84.8998 228.675 84.9298 228.558 84.9608C228.224 84.9562 228.224 84.9562 227.801 84.6912C227.217 84.3632 226.87 84.3274 226.21 84.2827C224.852 84.1673 223.272 83.9313 222.021 83.4037C221.862 83.4131 221.702 83.4226 221.537 83.4323C221.012 83.4568 221.012 83.4568 220.637 83.3417C220.203 83.2213 219.913 83.2131 219.467 83.2239C218.781 83.2384 218.217 83.1112 217.549 82.9535C217.321 82.9522 217.093 82.9567 216.865 82.9656C215.999 82.9751 215.202 82.8291 214.358 82.6516C214.215 82.6231 214.072 82.5945 213.925 82.5651C213.254 82.4291 212.602 82.276 211.947 82.0802C211.651 82.0174 211.353 81.9585 211.055 81.9034C210.896 81.8741 210.738 81.8448 210.574 81.8146C210.128 81.7343 210.128 81.7343 209.621 81.7107C209.147 81.6437 208.888 81.5281 208.467 81.3239C207.734 80.9939 207.212 81.0286 206.424 81.1279C205.393 81.243 204.744 81.0829 203.907 80.4975C203.57 80.5089 203.234 80.5276 202.898 80.5506C202.527 80.5307 202.156 80.503 201.787 80.4678C201.602 80.4513 201.416 80.4348 201.225 80.4179C200.744 80.3338 200.744 80.3338 200.278 79.9775C199.221 79.6914 198.121 79.5935 197.029 79.5206C196.649 79.4575 196.649 79.4575 196.183 79.1012C195.75 79.0881 195.75 79.0881 195.279 79.1456C194.662 79.2064 194.119 79.2049 193.501 79.1407C193.442 79.1857 193.382 79.2307 193.32 79.2771C192.791 79.2768 192.554 79.2396 192.132 78.9255C192.005 78.7979 192.005 78.7979 191.876 78.6677C191.811 78.7632 191.746 78.8588 191.679 78.9572C191.443 78.9308 191.443 78.9308 191.201 78.9037C190.994 78.8814 190.786 78.8591 190.572 78.8362C190.264 78.8024 190.264 78.8024 189.95 78.768C189.448 78.7304 189.013 78.7475 188.516 78.7935C188.057 78.6797 188.057 78.6797 187.703 78.557C187.714 78.456 187.724 78.3549 187.734 78.2508C187.62 78.2903 187.505 78.3298 187.387 78.3706C186.879 78.3409 186.442 78.2861 185.958 78.13C184.994 77.93 184.01 78.0851 183.043 78.2039C182.416 78.1903 181.902 78.0167 181.313 77.8171C180.908 77.7156 180.652 77.726 180.249 77.8067C180.214 77.599 180.18 77.3914 180.145 77.1774C180.423 77.1544 180.702 77.1314 180.988 77.1077C181.074 76.81 181.159 76.5123 181.247 76.2056C180.864 76.1671 180.481 76.1285 180.087 76.0888C180.042 76.2279 180.042 76.2279 179.996 76.3697C179.86 76.6847 179.86 76.6847 179.498 76.9576C179.487 77.0587 179.477 77.1597 179.467 77.2639C178.942 77.4452 178.413 77.3712 177.859 77.3437C177.738 77.3379 177.617 77.3321 177.493 77.3261C177.147 77.3087 176.8 77.2897 176.454 77.27C176.3 77.2612 176.145 77.2525 175.986 77.2434C175.2 77.1821 174.538 77.0407 173.834 76.6969C173.546 76.3392 173.546 76.3392 173.399 76.0344C173.16 76.0585 172.92 76.0827 172.681 76.1071C172.547 76.1205 172.414 76.134 172.276 76.1479C171.916 76.1864 171.558 76.2298 171.199 76.277C171.22 76.0748 171.24 75.8727 171.261 75.6644C171.102 75.5974 170.943 75.5304 170.779 75.4613C170.754 75.714 170.729 75.9666 170.702 76.227C170.002 76.5764 169.32 76.4319 168.557 76.3398C168.426 76.3251 168.295 76.3105 168.16 76.2955C167.837 76.2594 167.515 76.2214 167.193 76.183C167.185 76.0834 167.178 75.9838 167.171 75.8811C167.144 75.7731 167.117 75.6651 167.089 75.5538C166.612 75.2996 166.612 75.2996 166.095 75.4538C166.11 75.3022 166.125 75.1506 166.141 74.9944C165.393 74.7578 165.393 74.7578 164.65 74.8443C164.921 74.929 164.921 74.929 165.198 75.0154C165.779 75.2673 165.779 75.2673 165.984 75.6167C166.005 75.7145 166.027 75.8124 166.049 75.9132C165.364 76.0222 164.993 75.9559 164.407 75.5933C164.363 75.4867 164.318 75.3802 164.273 75.2704C163.939 75.2879 163.606 75.3054 163.263 75.3234C163.3 75.2314 163.337 75.1394 163.375 75.0446C163.503 74.7349 163.503 74.7349 163.521 74.4213C163.308 74.3488 163.094 74.2762 162.874 74.2015C162.653 74.6639 162.658 74.7969 162.766 75.2734C162.657 75.2624 162.548 75.2514 162.435 75.2401C162.415 75.4422 162.394 75.6443 162.373 75.8526C161.701 75.8133 161.305 75.7293 160.747 75.3796C160.576 75.4389 160.576 75.4389 160.401 75.4994C159.404 75.4361 158.372 75.3215 157.484 74.8673C156.908 74.6692 156.617 74.7046 156.019 74.7682C155.164 74.848 155.164 74.848 154.716 74.521C154.538 74.1792 154.37 73.8482 154.244 73.4875C154.075 73.5215 153.906 73.5555 153.732 73.5906C153.761 73.8488 153.791 74.1069 153.821 74.3729C153.228 74.6605 153.088 74.6397 152.447 74.5405C152.285 74.5162 152.123 74.4919 151.956 74.4669C151.788 74.4399 151.619 74.413 151.445 74.3852C151.275 74.3592 151.104 74.3333 150.928 74.3065C150.506 74.2422 150.085 74.1764 149.664 74.1092C149.679 73.9576 149.694 73.806 149.71 73.6498C149.546 73.6369 149.382 73.624 149.213 73.6107C149.001 73.5921 148.788 73.5735 148.569 73.5543C148.358 73.5366 148.146 73.5188 147.928 73.5006C147.391 73.4163 147.391 73.4163 147.09 73.0767C146.956 73.3184 146.821 73.56 146.682 73.809C146.414 73.731 146.146 73.6529 145.869 73.5725C145.954 73.2748 146.04 72.9771 146.127 72.6704C145.898 72.7495 145.67 72.8285 145.434 72.91C145.345 72.6968 145.256 72.4837 145.164 72.2641C145.133 72.4045 145.101 72.5449 145.069 72.6896C144.906 73.1662 144.906 73.1662 144.69 73.4441C144.154 73.6593 143.754 73.4828 143.219 73.3057C143.174 73.1992 143.13 73.0926 143.084 72.9828C142.985 73.0047 142.886 73.0267 142.784 73.0493C142.318 73.0738 142.142 72.9544 141.774 72.6962C141.704 72.8423 141.634 72.9884 141.562 73.139C140.904 73.1294 140.635 73.0925 140.123 72.6847C140.017 72.572 139.911 72.4592 139.801 72.343C139.781 72.5451 139.761 72.7473 139.74 72.9555C139.259 72.8242 138.839 72.6788 138.387 72.4713C137.785 72.2921 137.7 72.2833 137.154 72.4632C136.969 72.5211 136.783 72.579 136.592 72.6387C136.439 72.5211 136.285 72.4036 136.126 72.2824C136.136 72.1814 136.147 72.0803 136.157 71.9762C135.988 72.0102 135.819 72.0442 135.645 72.0793C135.21 71.8225 135.114 71.505 134.909 71.0771C134.898 71.2227 134.886 71.3683 134.875 71.5184C134.816 71.9959 134.816 71.9959 134.62 72.2855C134.242 72.1964 133.865 72.1074 133.476 72.0156C133.486 71.9145 133.496 71.8135 133.506 71.7093C133.397 71.7486 133.287 71.7879 133.174 71.8283C132.459 71.9694 131.825 71.8908 131.101 71.8122C130.878 71.7897 130.879 71.7897 130.652 71.7668C130.34 71.7349 130.028 71.7023 129.716 71.669C129.239 71.6182 128.762 71.5698 128.285 71.5218C127.981 71.4905 127.678 71.459 127.374 71.4274C127.232 71.4129 127.089 71.3984 126.942 71.3834C126.809 71.369 126.676 71.3546 126.539 71.3398C126.422 71.3275 126.305 71.3151 126.185 71.3024C125.839 71.2459 125.535 71.1499 125.208 71.0287C125.198 71.1298 125.188 71.2309 125.177 71.335C124.616 71.2978 124.616 71.2978 124.018 71.2183C123.919 71.1062 123.819 70.9941 123.717 70.8786C123.53 70.8885 123.343 70.8983 123.15 70.9085C122.542 70.915 122.542 70.915 122.159 70.6734C121.926 70.3889 121.926 70.3889 121.957 70.0827C121.847 70.0717 121.738 70.0607 121.625 70.0493C121.555 70.1954 121.486 70.3415 121.414 70.4921C121.255 70.425 121.096 70.358 120.932 70.2889C121.171 70.1088 121.41 69.9286 121.656 69.7431C121.417 69.7242 121.178 69.7108 120.939 69.6999C120.806 69.6918 120.673 69.6838 120.535 69.6756C120.11 69.7113 120.11 69.7113 119.873 70.1044C119.576 70.4618 119.576 70.4618 119.138 70.5325C117.538 70.4349 115.848 70.3034 114.31 69.8386C113.956 69.7056 113.956 69.7056 113.612 69.8614C113.283 69.7887 112.953 69.7155 112.627 69.6317C112.269 69.549 112.269 69.549 111.79 69.678C111.407 69.5965 111.025 69.5073 110.646 69.4082C110.656 69.3071 110.666 69.206 110.677 69.1019C110.495 69.1602 110.313 69.2184 110.125 69.2784C109.597 69.4291 109.196 69.4783 108.642 69.3612C108.593 69.3051 108.543 69.2491 108.492 69.1914C108.259 69.1653 108.025 69.15 107.79 69.1394C107.646 69.1324 107.501 69.1253 107.352 69.118C107.2 69.1114 107.048 69.1047 106.891 69.0979C105.925 69.0532 104.966 69.0022 104.004 68.8943C103.975 68.6361 103.946 68.3779 103.916 68.1119C104.085 68.0779 104.254 68.0439 104.428 68.0088C104.388 67.8517 104.349 67.6946 104.308 67.5328C103.666 67.6368 103.207 67.7171 102.74 68.1483C102.959 68.1704 103.178 68.1924 103.403 68.215C103.383 68.4172 103.362 68.6193 103.341 68.8276C102.896 68.7869 102.45 68.7451 102.005 68.7027C101.88 68.6914 101.755 68.6802 101.627 68.6686C101.027 68.6107 100.456 68.5376 99.872 68.3907C99.71 68.3523 99.548 68.3138 99.3811 68.2742C99.3213 68.3193 99.2616 68.3643 99.2 68.4107C98.9234 68.3891 98.6471 68.3616 98.3717 68.3273C98.3616 68.4284 98.3514 68.5295 98.3409 68.6336C97.2731 68.6022 97.2731 68.6022 96.8083 68.1699C96.7331 68.0603 96.6579 67.9506 96.5803 67.8376C96.6503 67.6915 96.7202 67.5454 96.7922 67.3949C97.1445 67.324 97.1445 67.324 97.4703 67.3085C97.0329 67.2644 96.5956 67.2204 96.145 67.1751C96.2289 67.4387 96.3128 67.7024 96.3993 67.9741C95.8551 68.2383 95.6703 68.2568 95.0759 68.2372C94.3885 68.2204 93.7107 68.226 93.0245 68.2531C92.9304 68.0905 92.8363 67.9279 92.7394 67.7604C92.6176 67.7704 92.4958 67.7805 92.3703 67.7909C92.2137 67.8038 92.057 67.8168 91.8957 67.8301C91.7664 67.8458 91.6371 67.8615 91.5039 67.8777C91.1055 67.8972 90.7637 67.8756 90.3686 67.8311C89.7441 67.7366 89.7441 67.7366 89.2143 67.8696C88.834 67.7388 88.4569 67.5986 88.0856 67.4466C88.1657 67.1994 88.2458 66.9522 88.3283 66.6976C87.5592 66.5011 86.8205 66.3476 86.0245 66.311C85.905 66.4011 85.7855 66.4911 85.6624 66.5839C85.6471 66.7355 85.6318 66.8871 85.6161 67.0433C84.8499 67.2898 84.8499 67.2898 84.3797 67.1702C84.2461 67.1089 84.2461 67.1089 84.1098 67.0464C84.1355 66.7912 84.1612 66.5359 84.1869 66.2807C83.9135 66.2532 83.6402 66.2257 83.3586 66.1973C83.5671 66.3204 83.7756 66.4435 83.9904 66.5703C83.9205 66.7164 83.8505 66.8625 83.7785 67.013C83.6131 66.9937 83.6131 66.9937 83.4445 66.974C82.4607 66.8659 81.5068 66.8145 80.5182 66.8359C80.0631 66.7942 79.8644 66.6575 79.4868 66.4263C78.872 66.4126 78.872 66.4126 78.3118 66.4627C78.3817 66.3166 78.4516 66.1705 78.5237 66.02C78.6169 66.02 78.7101 66.02 78.8061 66.02C79.6613 66.0193 80.5158 66.0116 81.3707 65.9972C80.6912 65.849 80.03 65.7053 79.3351 65.6473C78.9012 65.594 78.9012 65.594 78.4351 65.2377C78.4198 65.3893 78.4046 65.5409 78.3889 65.6971C77.6133 65.7211 76.8378 65.7451 76.0388 65.7699C76.5207 65.9205 77.0025 66.0711 77.4989 66.2262C77.4887 66.3273 77.4786 66.4284 77.4681 66.5325C77.073 66.5452 76.6779 66.5568 76.2827 66.5679C76.1173 66.5733 76.1173 66.5733 75.9486 66.5789C74.0004 66.6306 74.0004 66.6306 73.3267 66.1156C73.347 65.9135 73.3673 65.7113 73.3883 65.5031C73.9999 65.3731 74.4496 65.494 75.0449 65.6698C75.0551 65.5688 75.0652 65.4677 75.0757 65.3636C74.857 65.3416 74.6384 65.3195 74.4131 65.2969C74.4385 65.0442 74.4639 64.7915 74.4902 64.5312C74.3554 64.7729 74.2206 65.0145 74.0818 65.2635C73.9379 65.2463 73.9379 65.2463 73.7911 65.2288C73.0365 65.1447 72.3392 65.1124 71.5815 65.1665C71.323 65.1752 71.0644 65.1812 70.8057 65.1851C70.6825 65.1875 70.5593 65.1898 70.4324 65.1922C70.0575 65.1685 69.774 65.0854 69.4279 64.9497C69.4178 65.0508 69.4076 65.1519 69.3971 65.256C69.6002 65.2956 69.8033 65.3352 70.0126 65.376C70.5334 65.4775 70.8998 65.6319 71.3388 65.9155C71.1185 65.9976 70.8976 66.0782 70.6764 66.1582C70.5534 66.2032 70.4305 66.2483 70.3038 66.2947C69.9518 66.3946 69.9518 66.3946 69.4549 66.3446C69.465 66.2435 69.4752 66.1425 69.4857 66.0383C69.3217 66.0218 69.1577 66.0053 68.9887 65.9883C68.8804 65.5118 68.8753 65.3788 69.0966 64.9164C68.8678 64.9954 68.639 65.0745 68.4032 65.156C68.4353 65.2485 68.4674 65.3411 68.5004 65.4364C68.5072 65.7852 68.5072 65.7852 68.2023 66.1122C67.7829 66.331 67.7829 66.331 67.3914 66.2722C67.1828 66.1843 67.1828 66.1843 66.97 66.0945C66.7943 66.0226 66.6187 65.9506 66.4377 65.8765C66.2244 65.7833 66.2244 65.7833 66.0069 65.6882C66.0171 65.5871 66.0272 65.486 66.0377 65.3819C65.6996 65.4499 65.3614 65.518 65.013 65.5881C65.088 65.3915 65.163 65.1948 65.2403 64.9923C65.6331 64.9297 66.026 64.8672 66.4307 64.8027C66.2718 64.7357 66.1129 64.6686 65.9491 64.5996C65.9746 64.3469 66 64.0942 66.0262 63.8339C65.8075 63.8119 65.5889 63.7899 65.3636 63.7672C65.3339 63.9078 65.3339 63.9078 65.3036 64.0512C65.1363 64.3631 65.1363 64.3631 64.6925 64.5117C64.5554 64.5362 64.4184 64.5607 64.2772 64.5859C64.4857 64.709 64.6941 64.8321 64.909 64.9589C64.817 65.2493 64.817 65.2493 64.6816 65.5548C64.1556 65.7365 63.6904 65.63 63.132 65.5728C62.9158 65.5514 62.6997 65.5301 62.477 65.5081C61.9204 65.4338 61.4089 65.3253 60.8715 65.1712C60.8868 65.0196 60.902 64.868 60.9178 64.7118C61.1962 64.6888 61.4746 64.6658 61.7615 64.6421C61.7716 64.541 61.7818 64.4399 61.7923 64.3358C61.6838 64.3504 61.5754 64.365 61.4636 64.3801C60.7845 64.4137 60.1326 64.3358 59.4577 64.2555C59.5619 64.317 59.6662 64.3786 59.7736 64.442C59.5689 65.0208 59.5689 65.0208 59.3652 65.1743C59.0505 65.1499 58.7364 65.1168 58.423 65.0794C57.7224 65.0027 57.0702 64.9552 56.3679 65.0273C56.448 64.7801 56.5281 64.5329 56.6107 64.2783C56.9387 64.3113 57.2667 64.3443 57.6046 64.3783C55.8238 63.7726 54.022 63.7397 52.1533 63.6749C52.1432 63.776 52.133 63.877 52.1225 63.9812C52.2916 63.9471 52.4607 63.9131 52.6349 63.8781C52.9905 63.9815 52.9905 63.9815 53.2821 64.0979C53.2669 64.2495 53.2516 64.4011 53.2359 64.5573C53.0383 64.531 52.8408 64.5048 52.6373 64.4777C52.1321 64.4227 51.8601 64.4355 51.3539 64.5515C50.8858 64.6301 50.8858 64.6301 50.5117 64.3991C50.2695 64.104 50.2695 64.104 50.3003 63.7977C50.7427 63.7912 51.1851 63.7847 51.641 63.778C51.4728 63.7357 51.4728 63.7357 51.3012 63.6925C51.1543 63.6531 51.0075 63.6138 50.8563 63.5733C50.6378 63.5164 50.6378 63.5164 50.4149 63.4582C49.9857 63.2937 49.8207 63.1483 49.5645 62.7956C49.517 62.8897 49.4696 62.9838 49.4207 63.0808C49.3385 63.1778 49.2562 63.2748 49.1715 63.3748C48.8931 63.3978 48.6147 63.4208 48.3278 63.4445C48.9241 63.5556 49.5203 63.6666 50.1346 63.7811C49.9227 64.2238 49.9227 64.2238 49.5436 64.3669C49.0144 64.4549 48.581 64.4393 48.0451 64.3828C47.8738 64.3664 47.7024 64.3499 47.5259 64.333C47.0757 64.2466 47.0757 64.2466 46.6096 63.8903C46.7443 63.6486 46.8791 63.407 47.018 63.158C46.2583 62.9088 45.7817 62.9088 45.0147 63.111C45.1272 63.2276 45.1272 63.2276 45.242 63.3466C45.4654 63.6204 45.4654 63.6204 45.4346 63.9267C45.0428 63.9421 44.6516 63.9542 44.2595 63.9631C44.0594 63.9678 44.0594 63.9678 43.8553 63.9726C43.1674 63.9789 42.5415 63.9597 41.8705 63.8C41.3348 63.6761 41.113 63.6611 40.5997 63.7494C39.7081 63.7114 39.7081 63.7114 39.2804 63.4522C38.8636 63.213 38.5979 63.2668 38.1302 63.3461C38.0705 63.3911 38.0107 63.4362 37.9492 63.4826C37.4258 63.434 36.9062 63.3731 36.3851 63.3055C35.762 63.2331 35.5033 63.2135 34.9365 63.4887C34.6082 63.4574 34.6082 63.4574 34.2476 63.371C34.0509 63.3261 34.0509 63.3261 33.8502 63.2802C33.6575 63.2333 33.6575 63.2333 33.461 63.1855C32.5004 62.9546 31.5858 62.8373 30.5976 62.7673C30.1633 62.6988 30.1633 62.6988 29.6971 62.3425C29.767 62.1964 29.837 62.0503 29.909 61.8998C29.7399 61.9338 29.5708 61.9679 29.3966 62.0029C29.2441 62.2993 29.2441 62.2993 29.1693 62.5988C28.9792 62.5778 28.7891 62.5569 28.5933 62.5354C27.3898 62.4066 26.1989 62.2846 24.9882 62.2649C24.2334 62.2517 23.5922 62.193 22.8743 61.9651C22.7241 61.7953 22.7241 61.7953 22.7419 61.4104C22.8012 61.0296 22.8012 61.0296 22.9822 60.8932C21.5651 60.7012 21.5651 60.7012 20.1507 60.7628C20.0261 60.9034 19.9015 61.044 19.7731 61.1889C19.6091 61.1724 19.4451 61.1559 19.2761 61.1389C19.135 60.8949 19.135 60.8949 18.9911 60.6461C18.9656 60.8988 18.9402 61.1514 18.914 61.4118C18.2209 61.5096 17.7119 61.4199 17.039 61.2327C16.778 61.1613 16.778 61.1613 16.5117 61.0884C16.3802 61.051 16.2487 61.0137 16.1132 60.9752C16.0846 60.4363 16.0846 60.4363 16.0555 59.8866C15.6728 59.848 15.2901 59.8095 14.8959 59.7698C15.0259 59.8499 15.1558 59.93 15.2898 60.0125C15.4179 60.1115 15.5459 60.2106 15.6779 60.3126C15.6626 60.4642 15.6474 60.6158 15.6317 60.772C14.7014 60.8461 13.9895 60.7276 13.1008 60.4592C12.9845 60.426 12.8683 60.3928 12.7485 60.3585C11.9049 60.1132 11.9049 60.1132 11.5365 59.8957C11.5466 59.7947 11.5568 59.6936 11.5673 59.5895C11.3799 59.5993 11.1926 59.6092 10.9995 59.6193C10.3923 59.6259 10.3923 59.6259 10.0764 59.4394C10.0662 59.5404 10.056 59.6415 10.0456 59.7456C9.2594 59.7375 8.91888 59.5547 8.31086 59.1082C7.82726 58.8484 7.35171 58.7607 6.80948 58.6465C5.58165 58.3858 5.58165 58.3858 5.06456 58.0068C4.58661 57.6613 4.34664 57.5725 3.78361 57.4331C3.40774 57.3294 3.40774 57.3294 3.10727 57.191C2.92669 56.6991 2.92669 56.6991 2.86844 56.2389C2.70952 56.1718 2.55061 56.1048 2.38688 56.0357C2.25398 55.6936 2.25398 55.6936 2.13264 55.2367C2.04743 55.0032 2.04743 55.0032 1.96049 54.765C1.75528 54.1705 1.57396 53.5704 1.3988 52.9682C1.34283 52.7786 1.28686 52.5889 1.22919 52.3935C1.09137 51.6827 1.09137 51.6827 1.3584 51.2917C1.88499 51.1513 1.88499 51.1513 2.38317 51.0854C2.47854 50.6867 2.5739 50.2879 2.67215 49.8771C2.84124 49.843 3.01032 49.809 3.18453 49.774C3.20724 49.0004 3.20724 49.0004 2.82629 48.3457C2.85663 48.0249 2.85663 48.0249 2.94743 47.6618C2.97611 47.5419 3.00479 47.422 3.03434 47.2984C3.13068 46.9842 3.13068 46.9842 3.32717 46.6946C3.41178 46.4461 3.49312 46.1965 3.5699 45.9456C3.87833 46.1024 3.87833 46.1024 4.2017 46.3186C4.26081 46.5543 4.26081 46.5543 4.32111 46.7947C4.25627 46.8902 4.19143 46.9858 4.12463 47.0843C4.23396 47.0953 4.34329 47.1063 4.45594 47.1176C4.46611 47.0165 4.47629 46.9155 4.48677 46.8114C4.5961 46.8224 4.70544 46.8334 4.81808 46.8447C4.68477 46.4257 4.60334 46.2363 4.21567 45.972C4.11699 45.9238 4.0183 45.8755 3.91663 45.8259C3.9268 45.7248 3.93697 45.6237 3.94746 45.5196C4.06188 45.4801 4.1763 45.4405 4.29419 45.3998C4.25553 44.9632 4.19558 44.588 4.05224 44.167C3.93532 43.4807 4.13638 43.1047 4.4214 42.4736C3.93958 42.323 3.45775 42.1724 2.96132 42.0173C2.93208 41.7591 2.90285 41.5009 2.87273 41.2349C3.15624 41.1614 3.43975 41.0878 3.73185 41.012C3.84897 41.1514 3.96608 41.2909 4.08675 41.4345C4.41942 41.8902 4.41942 41.8902 4.81438 41.8944C5.22331 41.433 5.23651 41.3803 5.19436 40.8209C5.17959 40.6248 5.16482 40.4287 5.14959 40.2267C4.99068 40.1596 4.83177 40.0926 4.66804 40.0235C4.50315 39.6024 4.40364 39.184 4.29438 38.7484C4.02613 38.6704 3.75789 38.5923 3.48151 38.5119C3.40688 38.2144 3.40688 38.2144 3.37751 37.8827C3.73965 37.6098 3.73965 37.6098 4.17643 37.6344C4.30563 37.6538 4.43483 37.6732 4.56794 37.6932C4.65693 37.9063 4.74591 38.1194 4.8376 38.339C5.00668 38.305 5.17577 38.271 5.34998 38.2359C5.5075 37.8097 5.5075 37.8097 5.60813 37.3338C5.51405 37.1712 5.41998 37.0086 5.32306 36.8411C5.40231 36.3733 5.46824 36.0494 5.8225 35.7029C6.19988 35.4862 6.35516 35.5075 6.79013 35.5851C6.97705 35.6166 6.97705 35.6166 7.16774 35.6488C7.29677 35.673 7.42581 35.6973 7.55875 35.7223C7.68988 35.745 7.82101 35.7676 7.95612 35.791C8.27955 35.8472 8.60243 35.9064 8.92518 35.9662C8.9886 35.7186 8.9886 35.7186 9.0533 35.4661C9.16878 35.0253 9.29539 34.5942 9.44147 34.1619C9.2228 34.1399 9.00413 34.1179 8.77884 34.0952C9.04275 33.5438 9.27974 33.4979 9.86527 33.2765C9.83133 33.1722 9.7974 33.0679 9.76243 32.9604C9.52352 32.2192 9.29402 31.4821 9.11796 30.7263C8.99951 30.718 8.88106 30.7097 8.75903 30.7011C7.41195 30.5891 7.41195 30.5891 6.74266 30.3229C6.13806 30.1097 5.77693 30.1099 5.14171 30.123C4.22165 30.1237 4.22165 30.1237 3.70233 29.6688C3.55883 29.4486 3.55883 29.4486 3.41244 29.2239C3.29731 29.1676 3.18217 29.1114 3.06355 29.0534C2.78064 28.8509 2.78064 28.8509 2.67736 28.3185C2.53535 27.6413 2.36014 27.4805 1.7906 27.0497C1.62151 26.9466 1.45243 26.8434 1.27822 26.7371C0.822815 26.3033 0.792051 26.2361 0.768519 25.6707C0.831883 24.5794 0.950617 23.8921 1.71126 23.0586C2.35159 22.3263 2.35527 21.7684 2.25468 20.842C2.2656 20.7121 2.27651 20.5822 2.28776 20.4484C2.63671 20.2351 2.63671 20.2351 2.99664 20.0557C3.03276 19.7504 3.06745 19.4444 3.0793 19.1371C3.13829 18.6924 3.37481 18.4364 3.694 18.115C3.4691 18.0349 3.4691 18.0349 3.23965 17.9532C2.69826 17.693 2.50688 17.5699 2.29557 17.0461C2.38973 16.6302 2.38973 16.6302 2.5383 16.2971C2.7027 16.2754 2.8671 16.2536 3.03648 16.2312C3.21026 16.1849 3.38403 16.1386 3.56307 16.0909C3.73067 15.8113 3.73067 15.8113 3.79039 15.495C3.91498 15.3544 4.03958 15.2138 4.16795 15.069C4.07589 14.4501 3.90501 13.9567 3.49381 13.4543C3.33489 13.3872 3.17598 13.3202 3.01225 13.2511C3.1554 12.5178 3.51246 12.2349 4.16034 11.8199C4.41397 11.7688 4.41397 11.7688 4.67272 11.7168C4.6829 11.6157 4.69307 11.5146 4.70355 11.4105C4.38064 11.3269 4.05772 11.2434 3.72502 11.1573C3.68562 11.0002 3.64621 10.8431 3.60561 10.6812C3.70477 10.6561 3.80394 10.631 3.90611 10.6051C4.39798 10.4005 4.68069 10.1096 5.03877 9.7427C4.88602 9.34557 4.76193 9.0887 4.46863 8.75721C4.53148 8.4445 4.53148 8.4445 4.69594 8.16135C4.94958 8.11031 4.94958 8.11031 5.20833 8.05825C5.31258 8.11978 5.41682 8.18132 5.52423 8.24473C5.46569 7.76123 5.46569 7.76123 5.11337 7.59249C4.99605 7.54299 4.87872 7.4935 4.75785 7.4425C4.64022 7.39178 4.52258 7.34105 4.40139 7.28879C4.31045 7.25152 4.2195 7.21425 4.1258 7.17585C4.19479 6.60626 4.28005 6.05557 4.46102 5.50807C4.87108 5.27865 4.87108 5.27865 5.33555 5.13205C5.44934 4.96165 5.56313 4.79126 5.68036 4.6157C5.91888 4.27711 6.0412 4.14786 6.4588 4.01248C7.09006 3.92966 7.47942 3.90507 8.07185 4.16681C8.93621 4.51673 9.83224 4.55897 10.7594 4.65324C11.0471 4.68789 11.0471 4.68789 11.3407 4.72323C12.54 4.84772 13.5094 4.78176 14.6712 4.50803C15.1992 4.39663 15.6364 4.40813 16.1722 4.49235C16.6569 4.56432 17.0772 4.61629 17.5664 4.58707C18.5338 4.54211 19.4911 4.65928 20.4552 4.74947C20.6668 4.76629 20.8785 4.7831 21.0965 4.80043C21.4007 4.8291 21.4007 4.8291 21.711 4.85836C21.8958 4.8747 22.0805 4.89104 22.2709 4.90788C22.8572 5.05607 22.9865 5.27101 23.3499 5.70792C23.5685 5.72993 23.7872 5.75195 24.0125 5.77462C24.0883 5.63869 24.0883 5.63869 24.1656 5.50001C24.4551 5.13239 24.6293 5.07641 25.0989 4.95588C25.4573 4.96718 25.4573 4.96718 25.8246 5.01926C26.431 5.09437 26.9897 5.10608 27.5992 5.05288C27.6246 4.80021 27.6501 4.54754 27.6763 4.28721C27.8114 4.28168 27.9466 4.27614 28.0858 4.27044C28.2291 4.25295 28.3724 4.23547 28.52 4.21746C28.5848 4.12189 28.6496 4.02633 28.7165 3.92787C28.6071 3.91686 28.4978 3.90586 28.3851 3.89452C28.3953 3.79345 28.4055 3.69238 28.416 3.58825C28.0365 3.49118 27.6549 3.4014 27.2718 3.31839C27.212 3.36342 27.1523 3.40845 27.0907 3.45485C26.4975 3.41966 26.0037 3.33223 25.4496 3.13496C25.2309 3.11295 25.0122 3.09094 24.7869 3.06826C24.8022 2.91666 24.8174 2.76506 24.8332 2.60887C23.6184 2.33345 23.6184 2.33345 22.3791 2.05247C22.3143 2.14804 22.2495 2.2436 22.1826 2.34206C22.1001 2.30504 22.0175 2.26801 21.9325 2.22987C21.3772 2.07932 20.9289 2.09087 20.3604 2.15863C20.1396 2.44062 20.1396 2.44062 19.9674 2.73781C19.3081 2.90541 18.7178 2.73301 18.0669 2.58577C17.4497 2.46575 16.8301 2.41854 16.2036 2.36861C15.826 2.32093 15.826 2.32093 15.5101 2.13445C15.5732 1.71542 15.5732 1.71542 15.7683 1.23233C16.5476 0.755265 17.1535 0.652734 18.0856 0.653497C18.2027 0.653436 18.3198 0.653375 18.4405 0.653313C19.3796 0.660555 20.3023 0.744786 21.2355 0.854566C21.8702 0.918454 22.5009 0.941344 23.1376 0.959023C24.4902 1.00031 25.7963 1.20552 27.1254 1.44745C26.98 1.90037 26.8295 2.34843 26.6554 2.79229C26.9834 2.82531 27.3114 2.85833 27.6493 2.89235C27.6033 2.80157 27.5572 2.71079 27.5097 2.61726C27.3627 2.19791 27.3873 1.90992 27.4568 1.4808C28.4811 1.2676 29.4212 1.30449 30.4687 1.37794C30.63 1.3882 30.7913 1.39845 30.9574 1.40901C31.3522 1.43428 31.7468 1.46074 32.1414 1.48831C32.2113 1.34221 32.2813 1.19612 32.3533 1.04559C32.0406 0.860972 32.0406 0.860972 31.7215 0.672624C31.7317 0.571557 31.7419 0.470489 31.7523 0.366359C31.901 0.371956 32.0497 0.377554 32.203 0.38332C32.4957 0.393351 32.4957 0.393351 32.7944 0.403584C32.9879 0.410494 33.1813 0.417404 33.3806 0.424523C33.8883 0.442882 33.8883 0.442882 34.2522 0.384194C34.6084 0.342513 34.9128 0.355137 35.2705 0.390589C35.4557 0.40893 35.4557 0.40893 35.6446 0.427641C35.8354 0.447746 35.8354 0.447746 36.0301 0.468257C36.1587 0.480605 36.2873 0.492953 36.4198 0.505676C37.3755 0.603427 37.3755 0.603427 37.7314 0.813538C37.7954 1.21636 37.7954 1.21636 37.82 1.59588C37.5028 1.55388 37.1857 1.51188 36.8685 1.46989C36.4194 1.46098 36.0591 1.55909 35.6356 1.68536C35.9512 1.70356 36.2669 1.7186 36.5826 1.73235C36.7584 1.74107 36.9342 1.74979 37.1153 1.75878C37.6402 1.76401 37.6402 1.76401 38.0631 1.53817C38.6764 1.29053 39.1165 1.37149 39.7795 1.45475C40.1049 1.49379 40.1049 1.49379 40.437 1.53362C40.6222 1.55765 40.8075 1.58168 40.9983 1.60644C41.4852 1.67203 41.4852 1.67203 41.9285 1.61306C42.339 1.58671 42.339 1.58671 42.6549 1.77319C42.6391 1.62166 42.6233 1.47012 42.607 1.31399C42.5945 1.07824 42.5945 1.07824 42.5817 0.837724C43.0544 0.481537 44.0054 0.668625 44.5826 0.700765C45.641 0.820754 46.5841 1.17556 47.5206 1.64425C47.6846 1.66076 47.8486 1.67726 48.0176 1.69427C48.1167 1.80635 48.2159 1.91842 48.3181 2.03389C48.4274 2.04489 48.5367 2.0559 48.6494 2.06724C48.7193 1.92114 48.7892 1.77504 48.8613 1.62452C49.3603 1.61804 49.8591 1.61383 50.3582 1.61085C50.4974 1.60881 50.6367 1.60678 50.7801 1.60468C52.0303 1.60017 53.189 1.74463 54.3297 2.26198C54.4504 2.31581 54.5712 2.36964 54.6956 2.42511C54.8264 2.48582 54.8264 2.48582 54.9598 2.54777C54.8949 2.64333 54.8301 2.7389 54.7633 2.83736C54.5993 2.82085 54.4353 2.80434 54.2663 2.78733C54.251 2.93893 54.2358 3.09054 54.2201 3.24673C54.3125 3.25424 54.4049 3.26175 54.5002 3.26949C55.2316 3.33505 55.9159 3.44006 56.6308 3.61024C57.3466 3.7444 58.0739 3.79161 58.7994 3.85271C59.2825 3.90998 59.6909 4.01471 60.1529 4.15331C60.4177 4.14364 60.6824 4.13319 60.9467 4.11781C61.6463 4.11614 62.3396 4.21657 63.034 4.29831C63.4936 4.33733 63.9128 4.35053 64.3703 4.34158C65.2024 4.33272 65.9938 4.44757 66.8136 4.58209C67.0275 4.61573 67.0275 4.61573 67.2457 4.65006C67.5925 4.70476 67.939 4.76086 68.2855 4.81726C68.241 4.71069 68.1965 4.60412 68.1507 4.49432C67.7536 4.40108 67.3732 4.3294 66.9706 4.26919C66.7544 4.23406 66.5381 4.19893 66.3153 4.16274C65.7432 4.09807 65.2421 4.10286 64.6719 4.14414C64.0212 4.01883 63.5778 3.77307 63.077 3.36486C63.0872 3.26379 63.0973 3.16272 63.1078 3.05859C64.1645 3.03916 65.1793 3.10877 66.2283 3.22769C67.3779 3.35695 68.4532 3.38088 69.6069 3.30131C70.1536 3.29941 70.5636 3.41511 71.0902 3.55274C71.5399 3.58074 71.9837 3.59977 72.4335 3.61062C73.5979 3.65034 74.7202 3.78041 75.8699 3.9662C76.8065 4.11596 77.6626 4.23438 78.612 4.15521C79.8691 4.05187 81.0834 4.27623 82.3244 4.47181C82.4892 4.49747 82.6539 4.52312 82.8236 4.54956C83.045 4.58573 83.045 4.58573 83.2709 4.62264C83.7117 4.66862 84.1003 4.63511 84.5393 4.59718C84.9759 4.67848 85.3991 4.76745 85.8294 4.87206C87.2533 5.27523 87.2533 5.27523 88.6653 5.16719C88.9942 5.20031 89.3232 5.23377 89.6516 5.27131C90.0557 5.30623 90.4342 5.28184 90.8342 5.23084C90.8495 5.07924 90.8648 4.92764 90.8805 4.77144ZM45.1706 1.71706C45.8178 1.93689 45.8178 1.93689 45.8178 1.93689L45.1706 1.71706ZM33.5591 0.70292C33.549 0.803988 33.5388 0.905055 33.5283 1.00919C33.6427 0.969657 33.7572 0.930129 33.875 0.889403C33.7708 0.827864 33.6666 0.766324 33.5591 0.70292ZM47.9405 2.45994C47.9799 2.61704 48.0193 2.77414 48.0599 2.93601C48.1693 2.94702 48.2786 2.95802 48.3912 2.96936C48.3518 2.81226 48.3124 2.65515 48.2718 2.49329C48.1625 2.48228 48.0531 2.47128 47.9405 2.45994ZM72.2921 4.91121C72.1726 5.00127 72.0531 5.09133 71.93 5.18412C72.3473 5.37009 72.5156 5.42083 72.9644 5.29791C73.0655 5.25385 73.1665 5.20979 73.2707 5.16439C72.8006 5.01219 72.8006 5.01219 72.2921 4.91121ZM34.191 1.07589C34.0193 1.13518 34.0193 1.13518 33.8442 1.19567C33.829 1.34727 33.8137 1.49887 33.798 1.65507C33.962 1.67157 34.126 1.68808 34.2949 1.70509C34.2606 1.49745 34.2263 1.28982 34.191 1.07589ZM41.6301 1.97941C41.6199 2.08048 41.6098 2.18154 41.5993 2.28567C41.8726 2.31319 42.146 2.3407 42.4276 2.36905C42.4377 2.26798 42.4479 2.16691 42.4584 2.06278C42.1851 2.03527 41.9117 2.00776 41.6301 1.97941ZM70.2888 4.86424C70.1693 4.9543 70.0498 5.04436 69.9267 5.13715C70.0907 5.15366 70.2547 5.17017 70.4237 5.18718C70.3792 5.08061 70.3347 4.97404 70.2888 4.86424ZM71.7335 5.47371C71.7233 5.57478 71.7132 5.67585 71.7027 5.77998C71.812 5.79098 71.9213 5.80199 72.034 5.81333C72.0442 5.71226 72.0543 5.61119 72.0648 5.50706C71.9555 5.49606 71.8461 5.48505 71.7335 5.47371ZM63.4352 4.79308C63.42 4.94468 63.4047 5.09628 63.389 5.25248C63.5085 5.16241 63.628 5.07235 63.7511 4.97956C63.6469 4.91802 63.5426 4.85648 63.4352 4.79308ZM54.9713 4.09577C54.9461 4.39759 54.9461 4.39759 55.0753 4.72498C55.5515 4.97471 55.5515 4.97471 56.0384 5.13129C56.1032 5.03573 56.1681 4.94016 56.2349 4.8417C56.1306 4.78016 56.0264 4.71862 55.919 4.65522C55.8796 4.49812 55.8402 4.34101 55.7996 4.17915C55.5262 4.15163 55.2529 4.12412 54.9713 4.09577ZM53.1028 4.37174C53.1473 4.47831 53.1918 4.58488 53.2376 4.69468C53.3521 4.65515 53.4665 4.61562 53.5844 4.5749C53.4255 4.50786 53.2665 4.44081 53.1028 4.37174ZM59.8736 5.26598C59.6544 5.49001 59.6544 5.49001 59.652 5.80441C59.4384 5.73187 59.2249 5.65932 59.0048 5.58458C59.219 5.94128 59.219 5.94128 59.6058 6.26381C60.5511 6.44806 61.3462 6.37417 62.2871 6.22435C62.2579 5.96618 62.2287 5.70801 62.1985 5.44201C61.5003 5.14746 60.5587 4.92155 59.8736 5.26598ZM63.3736 5.40561C63.413 5.56271 63.4524 5.71982 63.493 5.88168C63.3836 5.87068 63.2743 5.85967 63.1617 5.84833C63.1515 5.9494 63.1413 6.05047 63.1308 6.1546C64.0988 6.45714 65.0897 6.52014 66.0972 6.60788C66.1125 6.45628 66.1278 6.30468 66.1435 6.14849C65.2254 5.58598 64.4588 5.46007 63.3736 5.40561ZM48.6301 3.92151C48.4584 3.9808 48.4584 3.9808 48.2833 4.04129C48.2732 4.14236 48.263 4.24342 48.2525 4.34755C48.5309 4.32453 48.8093 4.30151 49.0962 4.2778C48.9424 4.16022 48.7885 4.04265 48.6301 3.92151ZM62.3642 5.45869C63.0114 5.67852 63.0114 5.67852 63.0114 5.67852L62.3642 5.45869ZM69.6531 6.1924C69.5832 6.3385 69.5133 6.4846 69.4412 6.63513C69.665 6.6066 69.8887 6.57808 70.1193 6.54869C70.1294 6.44763 70.1396 6.34656 70.1501 6.24243C69.9861 6.22592 69.8221 6.20941 69.6531 6.1924ZM25.3532 5.75489C25.6265 5.78241 25.8998 5.80992 26.1814 5.83827C26.1916 5.7372 26.2018 5.63614 26.2123 5.53201C25.8302 5.46495 25.8302 5.46495 25.3532 5.75489ZM103.542 66.8369C103.477 66.9324 103.412 67.028 103.345 67.1264C103.509 67.143 103.673 67.1595 103.842 67.1765C103.853 67.0754 103.863 66.9743 103.873 66.8702C103.764 66.8592 103.654 66.8482 103.542 66.8369ZM108.45 67.9496C108.138 68.2183 108.138 68.2183 107.891 68.5121C108.11 68.5342 108.329 68.5562 108.554 68.5788C108.94 68.6178 109.327 68.6567 109.714 68.6956C109.186 68.1402 109.186 68.1402 108.45 67.9496ZM117.199 69.1397C117.357 69.4788 117.357 69.4788 117.634 69.8023C118.042 69.918 118.042 69.918 118.49 69.927C118.64 69.9365 118.789 69.946 118.944 69.9558C119.058 69.9602 119.173 69.9645 119.291 69.969C119.42 69.7779 119.55 69.5867 119.684 69.3898C118.923 68.6156 118.167 68.9066 117.199 69.1397ZM123.509 69.6202C123.489 69.8224 123.469 70.0245 123.448 70.2328C123.865 70.4187 124.033 70.4695 124.482 70.3465C124.583 70.3025 124.684 70.2584 124.788 70.213C124.403 69.7774 124.086 69.7493 123.509 69.6202ZM133.946 70.6708C133.99 70.7773 134.035 70.8839 134.081 70.9937C134.145 70.8981 134.21 70.8026 134.277 70.7041C134.168 70.6931 134.058 70.6821 133.946 70.6708ZM92.1538 66.928C92.1983 67.0346 92.2428 67.1411 92.2887 67.2509C92.4381 67.2405 92.5876 67.23 92.7416 67.2192C93.2201 67.2008 93.6522 67.2204 94.1263 67.2812C94.1365 67.1802 94.1467 67.0791 94.1571 66.975C93.9228 66.9169 93.6877 66.8616 93.4524 66.8073C93.3216 66.7762 93.1907 66.7451 93.0559 66.7131C92.6374 66.634 92.6374 66.634 92.1538 66.928ZM107.275 67.986C107.103 68.0453 107.103 68.0453 106.928 68.1058C106.913 68.2574 106.898 68.409 106.882 68.5652C107.165 68.4917 107.449 68.4181 107.741 68.3423C107.587 68.2248 107.433 68.1072 107.275 67.986ZM114.548 68.8729C114.543 68.9234 114.538 68.974 114.533 69.026C114.801 69.0865 114.801 69.0865 115.075 69.1483C115.677 69.2959 115.677 69.2959 116.159 69.499C116.531 69.4012 116.531 69.4012 116.852 69.2595C116.857 69.2089 116.862 69.1584 116.868 69.1063C116.102 69.0293 115.337 68.9523 114.548 68.8729ZM137.74 71.2074C137.569 71.2667 137.569 71.2667 137.394 71.3272C137.384 71.4283 137.373 71.5294 137.363 71.6335C137.592 71.5544 137.821 71.4754 138.056 71.3939C137.952 71.3324 137.848 71.2708 137.74 71.2074ZM188.929 76.3601C188.864 76.4557 188.799 76.5512 188.732 76.6497C188.896 76.6662 189.06 76.6827 189.229 76.6997C189.239 76.5987 189.249 76.4976 189.26 76.3935C189.151 76.3825 189.041 76.3714 188.929 76.3601ZM82.7268 65.8244C82.7166 65.9254 82.7064 66.0265 82.6959 66.1306C82.865 66.0966 83.0341 66.0626 83.2083 66.0275C83.0494 65.9605 82.8905 65.8934 82.7268 65.8244ZM94.6541 67.025C94.6986 67.1316 94.7431 67.2381 94.7889 67.3479C95.0674 67.3249 95.3458 67.3019 95.6326 67.2782C95.5881 67.1716 95.5437 67.065 95.4978 66.9552C95.1332 66.9022 95.1332 66.9022 94.6541 67.025ZM101.115 67.6753C101.263 67.8434 101.412 68.0115 101.565 68.1847C101.735 68.1507 101.904 68.1167 102.078 68.0816C102.088 67.9806 102.098 67.8795 102.109 67.7754C101.781 67.7424 101.453 67.7093 101.115 67.6753ZM129.276 70.5101C129.321 70.6167 129.365 70.7233 129.411 70.8331C129.58 70.799 129.749 70.765 129.924 70.73C129.71 70.6574 129.497 70.5849 129.276 70.5101ZM135.571 71.1438C135.561 71.2449 135.551 71.3459 135.541 71.4501C135.71 71.416 135.879 71.382 136.053 71.3469C135.894 71.2799 135.735 71.2129 135.571 71.1438ZM62.9827 64.1463C62.9128 64.2924 62.8429 64.4385 62.7708 64.589C63.1535 64.6275 63.5362 64.666 63.9304 64.7057C63.8327 64.648 63.735 64.5903 63.6343 64.5309C63.4171 64.4027 63.1999 64.2745 62.9827 64.1463ZM150.434 73.104C150.534 73.216 150.633 73.3281 150.735 73.4436C150.745 73.3425 150.755 73.2414 150.766 73.1373C150.656 73.1263 150.547 73.1153 150.434 73.104ZM183.219 76.5588C183.214 76.6093 183.209 76.6599 183.204 76.7119C183.477 76.7395 183.75 76.767 184.032 76.7953C184.037 76.7448 184.042 76.6942 184.047 76.6422C183.774 76.6147 183.501 76.5872 183.219 76.5588ZM188.354 77.0757C188.344 77.1768 188.334 77.2779 188.324 77.382C188.542 77.404 188.761 77.426 188.986 77.4487C188.996 77.3476 189.007 77.2466 189.017 77.1424C188.798 77.1204 188.58 77.0984 188.354 77.0757ZM189.965 77.7019C190.441 78.1008 190.65 78.2434 191.3 78.2521C191.526 78.2221 191.526 78.2221 191.756 78.1916C191.831 77.995 191.906 77.7983 191.984 77.5957C191.715 77.5604 191.447 77.5273 191.178 77.4953C191.028 77.4767 190.879 77.458 190.725 77.4388C190.3 77.3886 190.3 77.3886 189.965 77.7019ZM25.7676 61.4829C26.7557 61.721 27.72 61.8516 28.734 61.9362C28.7442 61.8352 28.7544 61.7341 28.7648 61.63C27.229 61.0395 27.229 61.0395 25.7676 61.4829ZM40.8886 62.541C40.759 62.7321 40.6293 62.9232 40.4957 63.1202C40.6759 63.1128 40.8561 63.1054 41.0418 63.0978C41.9759 63.0817 42.8966 63.1942 43.8242 63.3005C43.7797 63.194 43.7352 63.0874 43.6894 62.9776C42.7652 62.8335 41.8409 62.6894 40.8886 62.541ZM33.4032 62.0969C33.3931 62.1979 33.3829 62.299 33.3724 62.4031C33.5313 62.4702 33.6902 62.5372 33.854 62.6063C33.929 62.4097 34.004 62.213 34.0813 62.0104C33.7399 61.953 33.7399 61.953 33.4032 62.0969ZM34.5783 62.0605C34.6227 62.167 34.6672 62.2736 34.7131 62.3834C35.3336 62.4853 35.9549 62.5818 36.5765 62.6773C36.8411 62.7209 36.8411 62.7209 37.1111 62.7653C37.2806 62.7908 37.4501 62.8163 37.6246 62.8426C37.8588 62.8796 37.8588 62.8796 38.0978 62.9173C38.5728 62.9605 38.5728 62.9605 39.051 62.5107C37.575 62.3621 36.099 62.2135 34.5783 62.0605ZM196.094 78.3189C196.084 78.4199 196.074 78.521 196.063 78.6251C196.178 78.5856 196.292 78.5461 196.41 78.5054C196.306 78.4438 196.202 78.3823 196.094 78.3189ZM39.7136 62.5774C39.3704 62.696 39.3704 62.696 39.0202 62.817C39.1791 62.884 39.338 62.951 39.5017 63.0201C39.6162 62.9806 39.7306 62.9411 39.8485 62.9003C39.804 62.7938 39.7595 62.6872 39.7136 62.5774ZM188.096 77.9779C188.032 78.0734 187.967 78.169 187.9 78.2675C188.064 78.284 188.228 78.3005 188.397 78.3175C188.407 78.2164 188.417 78.1153 188.428 78.0112C188.318 78.0002 188.209 77.9892 188.096 77.9779ZM208.11 80.3018C208.1 80.4029 208.09 80.504 208.079 80.6081C208.189 80.6191 208.298 80.6301 208.411 80.6415C208.421 80.5404 208.431 80.4393 208.441 80.3352C208.332 80.3242 208.223 80.3132 208.11 80.3018ZM214.209 81.2251C214.188 81.4272 214.168 81.6294 214.147 81.8376C214.729 81.8196 214.729 81.8196 215.322 81.8012C215.332 81.7002 215.342 81.5991 215.353 81.4949C214.975 81.4059 214.598 81.3168 214.209 81.2251ZM218.153 81.9316C218.138 82.0832 218.123 82.2348 218.107 82.391C218.287 82.2559 218.466 82.1208 218.65 81.9816C218.486 81.9651 218.322 81.9486 218.153 81.9316ZM221.798 82.2984C221.728 82.4445 221.658 82.5906 221.586 82.7411C222.023 82.7852 222.461 82.8292 222.911 82.8745C222.867 82.768 222.822 82.6614 222.776 82.5516C222.285 82.4004 222.285 82.4004 221.798 82.2984ZM226.556 83.2414C226.546 83.3425 226.535 83.4435 226.525 83.5477C227.088 83.6302 227.088 83.6302 227.685 83.6644C227.804 83.5743 227.924 83.4843 228.047 83.3915C227.555 83.342 227.063 83.2924 226.556 83.2414ZM232.805 84.3345C232.946 84.5784 232.946 84.5784 233.09 84.8272C233.313 84.7987 233.537 84.7702 233.768 84.7408C233.668 84.6287 233.569 84.5166 233.467 84.4012C233.248 84.3792 233.03 84.3571 232.805 84.3345Z" fill="#A8D5BA"/>
</svg>
