<svg width="290" height="87" viewBox="0 0 290 87" fill="none" xmlns="http://www.w3.org/2000/svg">
<path d="M90.2874 3.53257C90.448 3.59551 90.6086 3.65846 90.7741 3.72331C90.7665 3.8246 90.7589 3.9259 90.7511 4.03026C90.8884 4.04989 91.0258 4.06951 91.1673 4.08973C91.3468 4.11608 91.5262 4.14244 91.7111 4.16959C91.8893 4.19546 92.0675 4.22132 92.2511 4.24797C92.732 4.33277 92.732 4.33277 93.2186 4.5235C93.5836 4.56388 93.9497 4.59474 94.316 4.62066C94.4827 4.63279 94.4827 4.63279 94.6527 4.64516C94.8943 4.66265 95.136 4.67978 95.3777 4.6966C95.7638 4.72351 96.1499 4.75138 96.5359 4.77951C97.4975 4.84938 98.4593 4.91764 99.421 4.98584C100.359 5.05243 101.297 5.11975 102.236 5.18832C102.366 5.19782 102.496 5.20732 102.63 5.21711C104.538 5.35759 106.432 5.54675 108.329 5.79293C109.021 5.87756 109.716 5.92345 110.412 5.9639C111.739 6.04295 111.739 6.04295 112.289 6.25864C112.751 6.31517 113.21 6.36359 113.674 6.40563C113.81 6.41867 113.947 6.43171 114.087 6.44514C114.523 6.48685 114.96 6.52765 115.396 6.56824C115.969 6.62157 116.542 6.67578 117.114 6.73047C117.244 6.74231 117.375 6.75415 117.509 6.76635C118.269 6.83895 118.991 6.96707 119.738 7.12445C120.132 7.16749 120.526 7.20361 120.922 7.23352C121.25 7.25836 121.25 7.25836 121.584 7.2837C121.697 7.29177 121.809 7.29984 121.924 7.30815C122.27 7.33313 122.614 7.35976 122.959 7.38654C123.177 7.40264 123.395 7.41874 123.62 7.43533C123.818 7.45001 124.017 7.4647 124.222 7.47983C124.726 7.51835 124.726 7.51835 125.228 7.3808C125.695 7.45456 126.154 7.53735 126.617 7.62758C128.168 7.91268 129.706 8.06717 131.28 8.1739C131.705 8.20282 132.129 8.23427 132.554 8.26607C132.83 8.28595 133.106 8.30569 133.381 8.32527C133.506 8.33438 133.63 8.34349 133.757 8.35287C134.512 8.40309 135.249 8.40525 136.004 8.36942C136.528 8.36466 137.006 8.47314 137.514 8.58913C139.889 9.1263 142.333 9.31781 144.757 9.54571C144.998 9.56848 144.998 9.56848 145.244 9.59172C147.476 9.80189 149.709 10.0025 151.944 10.178C152.221 10.1999 152.497 10.2222 152.774 10.245C154.112 10.3548 155.416 10.4274 156.756 10.351C158.075 10.2803 159.327 10.3893 160.637 10.5502C160.854 10.5752 161.071 10.6002 161.294 10.626C161.82 10.6868 162.346 10.7494 162.871 10.8138C162.879 10.7125 162.886 10.6112 162.894 10.5069C162.784 10.4987 162.675 10.4905 162.562 10.482C162.57 10.3807 162.577 10.2794 162.585 10.1751C163.387 10.0614 163.387 10.0614 163.747 10.262C163.794 10.3674 163.842 10.4728 163.89 10.5814C163.953 10.4842 164.015 10.387 164.079 10.2869C165.294 10.3195 165.294 10.3195 165.877 10.6625C166.487 10.9828 166.844 10.9312 167.52 10.883C167.987 10.8783 168.293 11.0133 168.682 11.2485C168.748 11.1007 168.814 10.9528 168.883 10.8005C169.013 10.8027 169.144 10.8049 169.278 10.8071C169.447 10.8082 169.616 10.8093 169.79 10.8105C169.958 10.8123 170.127 10.8142 170.3 10.8161C170.439 10.8054 170.578 10.7946 170.72 10.7836C170.783 10.6864 170.845 10.5892 170.909 10.4891C171.799 10.5518 172.689 10.6156 173.578 10.6802C173.881 10.7021 174.184 10.7237 174.486 10.745C174.921 10.7756 175.356 10.8073 175.791 10.8391C175.994 10.8531 175.994 10.8531 176.202 10.8674C176.75 10.9084 177.193 10.951 177.705 11.1517C178.125 11.1862 178.542 11.2136 178.962 11.2361C179.88 11.2933 180.685 11.4131 181.564 11.6803C182.515 11.9018 183.516 11.9148 184.49 11.9679C184.988 12.0052 185.232 12.0993 185.675 12.2977C186.368 12.5772 186.869 12.6331 187.621 12.5108C187.879 12.3773 187.879 12.3773 188.142 12.2411C188.474 12.2979 188.474 12.2979 188.839 12.4186C189.858 12.7498 190.886 12.9268 191.952 13.0662C192.738 13.1708 193.522 13.2817 194.306 13.4063C195.618 13.6679 195.618 13.6679 196.896 13.5132C197.46 13.3019 197.966 13.4117 198.568 13.4839C198.674 13.5428 198.779 13.6016 198.888 13.6622C199.082 13.699 199.275 13.7357 199.475 13.7736C199.661 13.8162 199.847 13.8588 200.039 13.9026C200.086 14.008 200.133 14.1134 200.182 14.222C200.33 14.2267 200.478 14.2314 200.63 14.2362C201.178 14.2965 201.498 14.4399 201.985 14.6656C202.154 14.6272 202.322 14.5889 202.495 14.5494C202.779 14.5639 203.063 14.5857 203.346 14.613C203.615 14.639 203.885 14.6605 204.155 14.6736C204.214 14.627 204.273 14.5805 204.333 14.5325C204.718 14.6056 205.101 14.6872 205.484 14.7729C205.775 14.8275 205.775 14.8275 206.071 14.8832C206.361 14.9389 206.361 14.9389 206.657 14.9957C206.947 15.0503 206.947 15.0503 207.244 15.106C207.793 15.2559 208.138 15.4447 208.581 15.7763C208.515 15.9241 208.448 16.0719 208.38 16.2243C208.767 16.3056 209.154 16.3858 209.541 16.4655C209.649 16.4883 209.757 16.511 209.869 16.5345C210.584 16.6806 211.281 16.764 212.01 16.8044C212.04 16.6825 212.07 16.5606 212.1 16.435C212.144 16.3078 212.188 16.1806 212.233 16.0495C212.806 15.835 213.414 15.942 214.023 15.9808C214.155 15.9861 214.286 15.9915 214.422 15.997C215.386 16.0595 215.933 16.2672 216.682 16.8452C216.812 17.2022 216.812 17.2022 216.802 17.4715C217.358 17.6345 217.849 17.7167 218.429 17.7289C218.651 17.7343 218.651 17.7343 218.877 17.7398C219.029 17.7425 219.181 17.7452 219.338 17.748C219.493 17.7516 219.648 17.7552 219.808 17.7588C220.19 17.7674 220.571 17.7751 220.953 17.782C220.964 17.6301 220.975 17.4781 220.987 17.3216C222.009 17.1868 223.036 17.0979 224.066 17.031C224.181 17.0209 224.295 17.0108 224.413 17.0004C225.038 16.9656 225.294 16.9879 225.788 17.3636C225.902 17.4768 226.016 17.59 226.134 17.7066C226.663 17.7979 226.663 17.7979 227.13 17.7811C227.193 17.6839 227.255 17.5867 227.319 17.4866C230.205 17.9318 230.205 17.9318 230.439 18.183C231.277 18.4165 232.119 18.6172 232.99 18.6824C233.864 18.7478 234.692 18.9757 235.54 19.1819C236.107 19.3115 236.617 19.419 237.198 19.4445C238.022 19.5259 238.778 19.7334 239.574 19.9466C240.881 20.2848 242.078 20.485 243.432 20.545C244.018 20.5875 244.505 20.7177 245.056 20.9022C245.441 21.0066 245.781 21.0383 246.181 21.0587C247.102 21.1189 247.999 21.2541 248.908 21.4068C249.065 21.4319 249.221 21.4571 249.382 21.4829C250.526 21.6721 250.526 21.6721 250.7 21.8592C251.104 21.9611 251.503 22.0514 251.911 22.133C252.03 22.1569 252.149 22.1809 252.271 22.2055C253.168 22.3704 253.923 22.3339 254.825 22.2087C255.183 22.1945 255.183 22.1945 255.58 22.4749C255.719 22.7162 255.858 22.958 255.995 23.2005C256.666 24.0011 258.117 24.0398 259.125 24.187C260.71 24.4187 260.71 24.4187 261.452 24.6824C261.983 24.8605 262.418 24.9021 262.978 24.9103C263.942 24.9247 264.711 24.9592 265.435 25.6236C265.815 26.0439 265.923 26.3346 266.02 26.8635C266.148 27.0004 266.275 27.1372 266.407 27.2782C266.793 27.693 266.793 27.693 266.851 28.0349C266.882 28.1757 266.882 28.1757 266.913 28.3193C267.047 28.377 267.18 28.4348 267.318 28.4943C267.45 28.5583 267.583 28.6224 267.72 28.6884C267.863 29.1841 267.822 29.5671 267.783 30.0821C267.884 30.103 267.985 30.1239 268.089 30.1454C269.171 30.4032 269.171 30.4032 269.571 30.8718C269.716 31.3774 269.75 31.7171 269.626 32.2263C269.273 32.4893 269.273 32.4893 268.928 32.6371C268.963 32.8546 268.963 32.8546 268.999 33.0765C269.025 33.5704 269.025 33.5704 268.658 34.006C268.049 34.0665 268.049 34.0665 267.485 34.0725C267.528 34.2285 267.571 34.3846 267.616 34.5454C268.427 34.7588 268.427 34.7588 269.254 34.9765C269.378 35.8695 269.378 35.8695 268.984 36.3454C268.867 36.4385 268.75 36.5316 268.629 36.6275C268.786 36.7411 268.943 36.8547 269.104 36.9717C269.089 37.1743 269.074 37.3769 269.058 37.5856C269.278 37.602 269.497 37.6184 269.723 37.6353C269.707 37.8379 269.692 38.0405 269.677 38.2492C269.851 38.224 270.025 38.1989 270.204 38.1729C270.987 38.1847 271.237 38.3827 271.801 38.8711C271.816 38.6685 271.831 38.4659 271.846 38.2572C271.682 38.2449 271.518 38.2326 271.348 38.2199C271.356 38.1186 271.364 38.0173 271.371 37.913C271.54 37.8746 271.708 37.8363 271.881 37.7967C271.924 37.9528 271.968 38.1088 272.013 38.2696C272.232 38.286 272.451 38.3024 272.677 38.3193C272.716 38.526 272.756 38.7327 272.797 38.9456C273.071 38.9661 273.345 38.9866 273.627 39.0077C273.415 38.89 273.204 38.7723 272.986 38.6511C272.993 38.5498 273.001 38.4485 273.009 38.3441C274.831 38.6044 276.483 38.9519 278.181 39.6317C278.848 39.8962 279.516 40.0873 280.211 40.2719C280.738 40.423 281.263 40.5771 281.788 40.7329C282.145 40.8379 282.503 40.9399 282.861 41.0386C283.779 41.3009 284.519 41.5763 285.265 42.1445C285.565 42.379 285.565 42.379 285.92 42.5853C286.799 43.1187 286.799 43.1187 286.976 43.7103C286.934 44.1416 286.859 44.5166 286.708 44.9249C286.43 44.9551 286.153 44.9852 285.866 45.0163C285.845 45.5396 285.845 45.5396 285.952 46.1031C286.306 46.3947 286.306 46.3947 286.748 46.6256C287.223 47.0882 287.591 47.4849 287.807 48.0938C287.686 48.2376 287.565 48.3813 287.44 48.5294C287.331 48.5212 287.221 48.513 287.108 48.5046C287.101 48.6059 287.093 48.7072 287.085 48.8115C287.355 48.8827 287.625 48.9538 287.904 49.0271C288.035 49.5 288.035 49.5 288.001 49.9604C288.036 50.1698 288.076 50.3789 288.121 50.5867C287.611 50.6927 287.467 50.699 286.959 50.4998C286.931 50.1412 286.902 49.7825 286.873 49.413C286.544 49.3885 286.216 49.3639 285.877 49.3385C285.866 49.4905 285.854 49.6424 285.843 49.799C285.682 49.736 285.521 49.6731 285.356 49.6082C284.99 49.5646 284.99 49.5646 284.514 49.6996C284.441 49.9487 284.367 50.1979 284.291 50.4546C284.616 50.5298 284.941 50.605 285.276 50.6826C285.349 50.4334 285.423 50.1843 285.499 49.9276C285.785 50.0666 286.07 50.2072 286.355 50.3485C286.513 50.4266 286.672 50.5047 286.836 50.5852C287.229 50.8093 287.478 50.9761 287.732 51.3293C287.686 51.6539 287.686 51.6539 287.52 51.9308C286.851 52.0833 286.5 51.892 285.871 51.6531C285.755 51.9648 285.661 52.2306 285.636 52.5616C285.734 52.7217 285.832 52.8818 285.934 53.0468C285.918 53.2494 285.903 53.452 285.888 53.6607C286.003 53.6853 286.118 53.7098 286.237 53.7351C286.77 53.8955 287.196 54.1322 287.668 54.4113C287.657 54.5632 287.645 54.7151 287.634 54.8717C287.456 54.8998 287.278 54.9279 287.095 54.9568C286.517 55.0773 286.104 55.2453 285.584 55.4901C285.419 55.4778 285.255 55.4655 285.086 55.4528C285.246 55.5157 285.407 55.5787 285.572 55.6435C285.565 55.7448 285.557 55.8461 285.549 55.9505C285.44 55.9423 285.33 55.9341 285.217 55.9256C285.21 56.0269 285.202 56.1282 285.194 56.2326C286.005 56.446 286.005 56.446 286.832 56.6637C287.098 57.5711 287.098 57.5711 287.072 57.9164C287.346 57.9369 287.62 57.9574 287.902 57.9785C287.989 58.2906 288.076 58.6027 288.165 58.9242C288.435 58.9953 288.706 59.0665 288.984 59.1398C289.075 59.7215 289.123 60.1124 288.871 60.6554C288.514 60.9567 288.514 60.9567 287.942 61.0778C287.205 61.0109 287.084 60.8045 286.556 60.3472C286.102 60.2582 285.695 60.2535 285.228 60.2479C285.091 59.754 285.119 59.6239 285.308 59.1735C285.187 59.1899 285.065 59.2062 284.939 59.2231C284.49 59.2629 284.086 59.2484 283.637 59.2028C283.71 59.5167 283.71 59.5167 283.923 59.8416C284.165 59.917 284.165 59.917 284.412 59.9939C284.896 60.223 284.896 60.223 285.021 60.4928C285.169 61.1705 285.16 61.7312 284.901 62.3841C284.803 62.5041 284.704 62.624 284.603 62.7476C284.205 63.3153 284.382 63.7847 284.529 64.4242C284.557 64.9234 284.43 65.1068 284.125 65.5092C284.003 65.675 284.003 65.675 283.878 65.8441C283.635 66.1272 283.384 66.339 283.086 66.5697C282.866 66.8774 282.866 66.8774 282.708 67.1588C282.598 67.1506 282.488 67.1424 282.375 67.134C282.393 67.2244 282.41 67.3148 282.428 67.408C282.491 67.7342 282.553 68.0604 282.616 68.3866C282.429 68.4395 282.243 68.4924 282.051 68.5469C281.348 68.77 281.031 69.0095 280.577 69.5556C280.326 70.0533 280.289 70.2914 280.273 70.8255C280.241 71.6421 279.999 71.9917 279.46 72.6264C279.324 72.8597 279.324 72.8597 279.185 73.0977C278.788 73.6584 278.406 73.9521 277.705 74.1499C276.136 74.4334 274.532 74.014 273.008 73.6485C271.913 73.4066 271.093 73.5184 270.025 73.7726C269.915 73.7644 269.806 73.7562 269.693 73.7478C269.674 74.001 269.655 74.2543 269.635 74.5152C269.851 74.5822 270.066 74.6493 270.288 74.7183C270.328 74.925 270.367 75.1317 270.408 75.3447C270.244 75.3324 270.079 75.3201 269.91 75.3074C269.765 75.6558 269.629 76.004 269.498 76.3569C269.402 76.6028 269.402 76.6028 269.304 76.8537C269.237 77.5687 269.462 77.9915 269.781 78.6377C270.126 79.3401 270.301 79.966 270.172 80.7288C270.114 80.7753 270.055 80.8219 269.995 80.8699C269.987 81.162 269.983 81.4543 269.981 81.7466C269.929 82.6271 269.929 82.6271 269.62 82.9898C269.429 83.1237 269.235 83.2529 269.036 83.3767C268.655 83.6592 268.66 84.0366 268.557 84.4664C268.122 84.839 268.122 84.839 267.669 85.1717C267.43 85.4881 267.43 85.4881 267.291 85.7607C267.499 85.9291 267.707 86.0974 267.921 86.2709C267.796 86.4653 267.672 86.6597 267.543 86.8599C267.438 86.8512 267.332 86.8426 267.224 86.8336C266.743 86.7944 266.261 86.7564 265.78 86.7184C265.614 86.7047 265.448 86.691 265.278 86.6769C264.619 86.6256 263.995 86.5783 263.337 86.6309C262.781 86.6735 262.335 86.5823 261.792 86.4587C261.611 86.4187 261.429 86.3786 261.242 86.3373C260.797 86.2114 260.497 86.0647 260.106 85.8406C259.839 85.7616 259.569 85.6902 259.298 85.6259C258.856 85.5209 258.48 85.4146 258.072 85.2213C257.616 85.0203 257.221 84.9505 256.724 84.8835C255.878 84.7679 255.878 84.7679 255.526 84.572C254.938 84.5233 254.351 84.4946 253.762 84.4648C253.202 84.3982 253.202 84.3982 252.897 84.2253C252.506 84.0117 252.192 83.9544 251.746 83.8884C251.592 83.8646 251.439 83.8409 251.281 83.8165C251.122 83.7931 250.962 83.7698 250.798 83.7458C250.481 83.6983 250.164 83.6503 249.847 83.6017C249.707 83.581 249.567 83.5604 249.422 83.5391C249.097 83.4738 249.097 83.4738 248.942 83.3079C248.644 83.2904 248.644 83.2904 248.34 83.2725C246.937 83.1821 245.554 82.8615 244.206 82.4936C243.116 82.202 242.007 82.0113 240.894 81.8157C239.398 81.5363 239.398 81.5363 238.763 81.0031C238.705 81.0497 238.646 81.0962 238.586 81.1442C238.262 81.1646 237.938 81.1739 237.613 81.1775C237.436 81.1808 237.259 81.1841 237.077 81.1875C236.582 81.1487 236.582 81.1487 236.274 80.9727C235.903 80.7712 235.672 80.7378 235.247 80.7154C235.118 80.7074 234.988 80.6994 234.854 80.6911C234.72 80.6844 234.586 80.6776 234.447 80.6707C234.181 80.656 233.914 80.6407 233.647 80.6247C233.53 80.6186 233.412 80.6126 233.291 80.6064C232.936 80.5666 232.637 80.4745 232.3 80.3653C232.023 80.3388 231.747 80.3168 231.469 80.3032C231.426 80.1472 231.383 79.9911 231.338 79.8304C231.107 79.8847 231.107 79.8847 230.871 79.9401C230.688 79.9806 230.506 80.0211 230.319 80.0628C230.206 80.0958 230.093 80.1287 229.977 80.1627C229.643 80.1666 229.643 80.1666 229.213 79.9126C228.621 79.5997 228.273 79.5728 227.612 79.5451C226.253 79.4646 224.667 79.2692 223.403 78.7738C223.243 78.7874 223.084 78.8009 222.92 78.8149C222.395 78.8528 222.395 78.8528 222.017 78.7473C221.58 78.6381 221.29 78.6374 220.844 78.6596C220.159 78.6917 219.592 78.579 218.92 78.4385C218.692 78.4431 218.464 78.4535 218.237 78.4682C217.371 78.5 216.571 78.3744 215.723 78.2186C215.579 78.1938 215.435 78.1689 215.287 78.1433C214.613 78.0245 213.957 77.8882 213.298 77.7093C213 77.6541 212.701 77.6029 212.402 77.5555C212.242 77.5302 212.083 77.505 211.919 77.479C211.47 77.4102 211.47 77.4102 210.963 77.3996C210.488 77.3448 210.225 77.2358 209.8 77.0425C209.058 76.7314 208.538 76.7795 207.752 76.899C206.724 77.0405 206.071 76.8971 205.22 76.3334C204.883 76.3534 204.547 76.3808 204.212 76.4124C203.841 76.402 203.47 76.3838 203.1 76.3581C202.914 76.3464 202.728 76.3347 202.537 76.3226C202.054 76.2509 202.054 76.2509 201.579 75.9067C200.515 75.6478 199.412 75.5782 198.32 75.5333C197.937 75.48 197.937 75.48 197.462 75.1358C197.029 75.1338 197.029 75.1338 196.56 75.2033C195.945 75.2799 195.402 75.2924 194.783 75.244C194.724 75.2906 194.666 75.3371 194.605 75.3851C194.076 75.3983 193.838 75.3673 193.408 75.0641C193.278 74.9397 193.278 74.9397 193.146 74.8129C193.083 74.9101 193.021 75.0073 192.957 75.1074C192.719 75.087 192.719 75.087 192.478 75.0662C192.27 75.0492 192.061 75.0323 191.847 75.0148C191.538 74.989 191.538 74.989 191.223 74.9627C190.72 74.9379 190.286 74.9661 189.79 75.025C189.329 74.9229 189.329 74.9229 188.972 74.8094C188.979 74.7081 188.987 74.6068 188.995 74.5024C188.881 74.5449 188.768 74.5873 188.651 74.6311C188.142 74.6144 187.704 74.5709 187.216 74.4273C186.247 74.2521 185.267 74.4324 184.304 74.576C183.677 74.5784 183.158 74.418 182.565 74.2337C182.157 74.1426 181.902 74.1596 181.5 74.2505C181.461 74.0438 181.421 73.8371 181.38 73.6242C181.658 73.594 181.936 73.5639 182.222 73.5328C182.299 73.233 182.377 72.9332 182.457 72.6244C182.073 72.5957 181.69 72.567 181.295 72.5374C181.253 72.6776 181.253 72.6776 181.211 72.8205C181.083 73.1389 181.083 73.1389 180.728 73.421C180.72 73.5223 180.713 73.6236 180.705 73.728C180.185 73.9227 179.654 73.8623 179.099 73.849C178.978 73.8463 178.858 73.8436 178.733 73.8409C178.387 73.8323 178.04 73.8223 177.693 73.8114C177.539 73.8066 177.384 73.8018 177.225 73.7969C176.437 73.7557 175.772 73.6313 175.06 73.3058C174.762 72.9555 174.762 72.9555 174.607 72.6546C174.369 72.6848 174.13 72.7152 173.891 72.7457C173.758 72.7626 173.625 72.7795 173.488 72.7969C173.129 72.8446 172.772 72.8972 172.415 72.9536C172.43 72.751 172.445 72.5484 172.461 72.3397C172.3 72.2767 172.139 72.2138 171.974 72.1489C171.955 72.4022 171.936 72.6554 171.917 72.9163C171.225 73.2836 170.54 73.1566 169.775 73.0841C169.644 73.0729 169.512 73.0616 169.377 73.0501C169.053 73.0223 168.73 72.9925 168.407 72.9625C168.397 72.8631 168.387 72.7636 168.377 72.6612C168.347 72.5539 168.318 72.4467 168.287 72.3361C167.804 72.0942 167.804 72.0942 167.291 72.2616C167.302 72.1097 167.313 71.9577 167.325 71.8012C166.571 71.5839 166.571 71.5839 165.831 71.6894C166.104 71.7671 166.104 71.7671 166.383 71.8464C166.97 72.0833 166.97 72.0833 167.184 72.4273C167.208 72.5246 167.232 72.6218 167.256 72.7221C166.574 72.8487 166.202 72.7918 165.607 72.4444C165.56 72.339 165.513 72.2336 165.464 72.125C165.132 72.1511 164.799 72.1771 164.457 72.204C164.491 72.1111 164.526 72.0181 164.561 71.9224C164.681 71.6095 164.681 71.6095 164.692 71.2955C164.476 71.2285 164.261 71.1614 164.039 71.0924C163.83 71.5603 163.838 71.6931 163.959 72.1667C163.849 72.1585 163.739 72.1503 163.627 72.1419C163.611 72.3445 163.596 72.5471 163.581 72.7558C162.907 72.7338 162.51 72.66 161.943 72.3246C161.773 72.3883 161.773 72.3883 161.6 72.4533C160.602 72.4156 159.567 72.3275 158.667 71.8963C158.087 71.713 157.797 71.7559 157.201 71.8349C156.348 71.9365 156.348 71.9365 155.891 71.6212C155.705 71.284 155.528 70.9574 155.394 70.6001C155.226 70.6384 155.058 70.6768 154.884 70.7163C154.92 70.9736 154.956 71.231 154.993 71.4961C154.408 71.7987 154.268 71.7816 153.624 71.6988C153.462 71.6787 153.299 71.6585 153.132 71.6378C152.962 71.6152 152.793 71.5926 152.619 71.5693C152.447 71.5477 152.276 71.5262 152.1 71.5039C151.676 71.4505 151.253 71.3954 150.831 71.3391C150.842 71.1872 150.853 71.0352 150.865 70.8787C150.701 70.87 150.537 70.8613 150.368 70.8523C150.155 70.8392 149.942 70.826 149.722 70.8125C149.51 70.8002 149.298 70.7879 149.079 70.7752C148.541 70.7048 148.541 70.7048 148.232 70.373C148.103 70.618 147.975 70.8631 147.842 71.1156C147.572 71.0444 147.302 70.9733 147.023 70.9C147.101 70.6002 147.178 70.3004 147.258 69.9915C147.032 70.0764 146.805 70.1613 146.571 70.2488C146.477 70.038 146.382 69.8272 146.285 69.6101C146.257 69.7512 146.23 69.8924 146.201 70.0378C146.05 70.5185 146.05 70.5185 145.841 70.8019C145.312 71.0308 144.907 70.8645 144.367 70.7013C144.32 70.5959 144.273 70.4905 144.224 70.3819C144.126 70.4064 144.027 70.4309 143.926 70.4561C143.461 70.4925 143.282 70.3777 142.907 70.1291C142.841 70.2769 142.775 70.4248 142.707 70.5771C142.049 70.5844 141.779 70.5544 141.256 70.1599C141.147 70.0499 141.038 69.9399 140.926 69.8266C140.911 70.0292 140.896 70.2317 140.88 70.4405C140.396 70.3215 139.973 70.187 139.516 69.9911C138.909 69.8274 138.824 69.8207 138.283 70.0147C138.099 70.0773 137.915 70.14 137.726 70.2045C137.569 70.0909 137.412 69.9773 137.251 69.8603C137.258 69.759 137.266 69.6577 137.274 69.5533C137.105 69.5917 136.937 69.6301 136.764 69.6696C136.323 69.424 136.219 69.1091 136.003 68.6866C135.995 68.8325 135.988 68.9783 135.98 69.1286C135.934 69.6075 135.934 69.6075 135.745 69.902C135.365 69.8227 134.985 69.7433 134.594 69.6616C134.602 69.5603 134.609 69.459 134.617 69.3546C134.508 69.3967 134.399 69.4388 134.287 69.4821C133.577 69.6415 132.941 69.5792 132.215 69.5192C131.992 69.5024 131.992 69.5024 131.765 69.4853C131.452 69.4615 131.14 69.4369 130.827 69.4116C130.349 69.373 129.871 69.3369 129.392 69.3011C129.088 69.2776 128.784 69.254 128.48 69.2302C128.337 69.2193 128.194 69.2084 128.047 69.1973C127.913 69.1863 127.78 69.1753 127.642 69.164C127.525 69.1547 127.408 69.1454 127.288 69.1357C126.94 69.0881 126.634 68.9999 126.304 68.8872C126.296 68.9885 126.289 69.0898 126.281 69.1941C125.719 69.1714 125.719 69.1714 125.119 69.1072C125.017 68.9977 124.915 68.8882 124.81 68.7754C124.623 68.7901 124.436 68.8047 124.243 68.8198C123.636 68.8419 123.636 68.8419 123.246 68.6102C123.006 68.3318 123.006 68.3318 123.029 68.0249C122.92 68.0167 122.81 68.0085 122.697 68C122.631 68.1479 122.565 68.2957 122.497 68.4481C122.336 68.3851 122.176 68.3222 122.01 68.2573C122.245 68.0711 122.479 67.8849 122.72 67.6931C122.481 67.6803 122.242 67.6731 122.002 67.6683C121.869 67.6637 121.735 67.6591 121.598 67.6544C121.173 67.701 121.173 67.701 120.947 68.1C120.659 68.4649 120.659 68.4649 120.223 68.5469C118.621 68.4904 116.928 68.4022 115.379 67.9771C115.022 67.8532 115.022 67.8532 114.682 68.0178C114.351 67.9536 114.019 67.8889 113.691 67.8135C113.332 67.74 113.332 67.74 112.856 67.8812C112.47 67.8095 112.086 67.7302 111.705 67.6408C111.712 67.5395 111.72 67.4382 111.728 67.3339C111.547 67.3968 111.367 67.4597 111.181 67.5245C110.657 67.6887 110.257 67.7481 109.701 67.6453C109.65 67.5905 109.599 67.5358 109.546 67.4794C109.313 67.4593 109.078 67.45 108.843 67.4455C108.699 67.4421 108.554 67.4388 108.405 67.4353C108.253 67.4326 108.1 67.4298 107.943 67.427C106.976 67.4071 106.016 67.3807 105.052 67.2975C105.016 67.0402 104.98 66.7829 104.943 66.5177C105.112 66.4794 105.28 66.441 105.453 66.4015C105.41 66.2455 105.366 66.0894 105.321 65.9287C104.682 66.0492 104.225 66.1412 103.77 66.5843C103.989 66.6007 104.208 66.6171 104.434 66.634C104.419 66.8365 104.404 67.0391 104.388 67.2479C103.941 67.2187 103.495 67.1883 103.049 67.1573C102.924 67.1493 102.799 67.1412 102.67 67.1329C102.069 67.0904 101.496 67.032 100.909 66.9002C100.746 66.8659 100.583 66.8316 100.415 66.7963C100.356 66.8429 100.298 66.8894 100.237 66.9374C99.9601 66.9229 99.6832 66.9025 99.4071 66.8753C99.3995 66.9766 99.3919 67.0779 99.3841 67.1822C98.3159 67.1783 98.3159 67.1783 97.8402 66.7581C97.7621 66.6504 97.6841 66.5427 97.6037 66.4317C97.6699 66.2839 97.736 66.136 97.8042 65.9837C98.1545 65.9038 98.1545 65.9038 98.4798 65.8799C98.0415 65.8471 97.6031 65.8143 97.1515 65.7806C97.2422 66.042 97.3328 66.3034 97.4262 66.5728C96.889 66.8508 96.7047 66.8742 96.11 66.8698C95.4224 66.8706 94.745 66.8936 94.0597 66.9383C93.9614 66.7782 93.8632 66.618 93.762 66.453C93.6405 66.4662 93.519 66.4794 93.3938 66.493C93.2376 66.51 93.0814 66.527 92.9204 66.5444C92.7916 66.5634 92.6627 66.5825 92.53 66.602C92.1322 66.6318 91.7899 66.6189 91.3939 66.5846C90.7671 66.5062 90.7671 66.5062 90.241 66.6527C89.8573 66.5317 89.4768 66.4012 89.1017 66.2588C89.1754 66.0097 89.2492 65.7605 89.3251 65.5038C88.5513 65.3271 87.8088 65.1927 87.0122 65.1765C86.895 65.2696 86.7779 65.3627 86.6572 65.4586C86.6458 65.6105 86.6344 65.7625 86.6227 65.919C85.8631 66.1851 85.8631 66.1851 85.39 66.0776C85.2548 66.0198 85.2548 66.0198 85.117 65.9607C85.1361 65.7049 85.1552 65.4491 85.1744 65.1933C84.9004 65.1729 84.6265 65.1524 84.3442 65.1313C84.5558 65.2489 84.7674 65.3666 84.9854 65.4879C84.9192 65.6357 84.8531 65.7836 84.7849 65.9359C84.6191 65.9208 84.6191 65.9208 84.45 65.9054C83.4638 65.8227 82.5089 65.7958 81.5212 65.8425C81.0651 65.8125 80.863 65.681 80.4796 65.4595C79.8647 65.4616 79.8647 65.4616 79.3059 65.5261C79.372 65.3782 79.4382 65.2304 79.5064 65.0781C79.5995 65.0757 79.6927 65.0733 79.7886 65.0708C80.6436 65.0482 81.4976 65.0185 82.3518 64.9822C81.6688 64.8514 81.0041 64.7248 80.308 64.6847C79.8729 64.6425 79.8729 64.6425 79.3977 64.2982C79.3864 64.4502 79.375 64.6021 79.3633 64.7587C78.5887 64.8026 77.814 64.8465 77.0159 64.8918C77.5014 65.0299 77.987 65.1681 78.4872 65.3105C78.4796 65.4118 78.4721 65.5131 78.4643 65.6175C78.0696 65.6403 77.6749 65.6621 77.2802 65.6832C77.115 65.6929 77.115 65.6929 76.9464 65.7029C75.0002 65.8045 75.0002 65.8045 74.3135 65.307C74.3286 65.1044 74.3438 64.9018 74.3594 64.6931C74.9674 64.5475 75.4201 64.6568 76.0197 64.8173C76.0273 64.716 76.0349 64.6147 76.0427 64.5103C75.8235 64.4939 75.6044 64.4775 75.3786 64.4606C75.3975 64.2074 75.4164 63.9541 75.436 63.6932C75.3074 63.9383 75.1789 64.1833 75.0465 64.4358C74.9022 64.4223 74.9022 64.4223 74.755 64.4086C73.9985 64.3438 73.3006 64.3294 72.5446 64.403C72.2864 64.4183 72.028 64.4309 71.7695 64.4415C71.6464 64.447 71.5233 64.4525 71.3965 64.4582C71.0211 64.444 70.7356 64.3683 70.3862 64.2415C70.3786 64.3428 70.371 64.4441 70.3632 64.5485C70.5672 64.5828 70.7713 64.6172 70.9815 64.6526C71.5048 64.7407 71.875 64.8857 72.3211 65.158C72.103 65.2457 71.8842 65.3319 71.6652 65.4176C71.5434 65.4657 71.4217 65.5139 71.2962 65.5636C70.947 65.6725 70.947 65.6725 70.4489 65.6352C70.4564 65.534 70.464 65.4327 70.4718 65.3283C70.3075 65.316 70.1431 65.3037 69.9737 65.291C69.8532 64.8174 69.8447 64.6846 70.0541 64.2167C69.8274 64.3016 69.6006 64.3865 69.367 64.474C69.4015 64.5657 69.4359 64.6574 69.4714 64.7519C69.4871 65.1003 69.4871 65.1003 69.1908 65.435C68.7771 65.6645 68.7771 65.6645 68.3842 65.6159C68.1734 65.5332 68.1734 65.5332 67.9584 65.449C67.7809 65.3816 67.6035 65.3142 67.4206 65.2448C67.2051 65.157 67.2051 65.157 66.9852 65.0675C66.9928 64.9662 67.0003 64.8649 67.0081 64.7605C66.6718 64.8372 66.3355 64.914 65.989 64.993C66.0589 64.7945 66.1289 64.596 66.2009 64.3915C66.5921 64.3189 66.9832 64.2463 67.3861 64.1715C67.2255 64.1085 67.065 64.0456 66.8995 63.9807C66.9184 63.7275 66.9374 63.4743 66.9569 63.2133C66.7377 63.197 66.5186 63.1806 66.2928 63.1637C66.2667 63.305 66.2667 63.305 66.2401 63.4491C66.0808 63.7652 66.0808 63.7652 65.641 63.9252C65.5046 63.9532 65.3682 63.9812 65.2277 64.01C65.4393 64.1277 65.6509 64.2454 65.8689 64.3667C65.7844 64.6594 65.7844 64.6594 65.6569 64.9681C65.1357 65.1633 64.6679 65.0688 64.1082 65.0259C63.8916 65.0101 63.675 64.9943 63.4518 64.978C62.8935 64.9181 62.3794 64.8228 61.8382 64.6825C61.8496 64.5306 61.861 64.3786 61.8727 64.2221C62.1504 64.1919 62.4282 64.1618 62.7143 64.1307C62.7219 64.0294 62.7295 63.9281 62.7373 63.8237C62.6292 63.8411 62.5212 63.8585 62.4098 63.8764C61.7318 63.9275 61.0782 63.8663 60.4014 63.8033C60.5071 63.8622 60.6129 63.921 60.7219 63.9817C60.5322 64.5655 60.5322 64.5655 60.3325 64.7242C60.0173 64.7079 59.7025 64.6828 59.3882 64.6536C58.6858 64.5948 58.0326 64.5641 57.3324 64.6541C57.4062 64.405 57.4799 64.1559 57.5559 63.8992C57.8846 63.9238 58.2134 63.9484 58.5521 63.9737C56.7563 63.4138 54.9542 63.4273 53.0845 63.4104C53.0769 63.5117 53.0694 63.613 53.0616 63.7173C53.2297 63.679 53.3979 63.6406 53.5711 63.6011C53.9293 63.6954 53.9293 63.6954 54.2238 63.8043C54.2124 63.9562 54.2011 64.1082 54.1893 64.2647C53.9912 64.2435 53.7931 64.2223 53.5889 64.2005C53.0824 64.1585 52.8109 64.1782 52.3079 64.3073C51.8419 64.3978 51.8419 64.3978 51.462 64.1765C51.2123 63.8877 51.2123 63.8877 51.2352 63.5807C51.6773 63.5629 52.1194 63.545 52.575 63.5266C52.4057 63.4886 52.4057 63.4886 52.2331 63.4498C52.0853 63.4143 51.9375 63.3787 51.7853 63.3421C51.5654 63.2908 51.5654 63.2908 51.3411 63.2384C50.9078 63.0849 50.7391 62.9438 50.474 62.5978C50.4289 62.6931 50.3839 62.7884 50.3376 62.8866C50.2578 62.9857 50.1781 63.0848 50.096 63.1868C49.8182 63.217 49.5405 63.2472 49.2543 63.2782C49.8532 63.374 50.4521 63.4697 51.0692 63.5683C50.8687 64.0163 50.8687 64.0163 50.4934 64.1691C49.9667 64.2706 49.533 64.2662 48.9958 64.2235C48.8241 64.2114 48.6524 64.1994 48.4755 64.187C48.0232 64.1122 48.0232 64.1122 47.5481 63.768C47.6766 63.5229 47.8052 63.2779 47.9376 63.0254C47.1718 62.7958 46.6954 62.8081 45.9337 63.0298C46.0492 63.1435 46.0492 63.1435 46.167 63.2595C46.3974 63.5275 46.3974 63.5275 46.3744 63.8345C45.9832 63.86 45.5924 63.8821 45.2007 63.901C45.0008 63.9109 45.0008 63.9109 44.7968 63.9209C44.1094 63.9449 43.4831 63.9418 42.8083 63.7993C42.2696 63.6892 42.0475 63.6799 41.5366 63.7813C40.6443 63.7662 40.6443 63.7662 40.2101 63.5181C39.7873 63.2897 39.5231 63.3503 39.0576 63.4415C38.999 63.4881 38.9404 63.5346 38.8801 63.5826C38.3557 63.5474 37.8347 63.4999 37.312 63.4457C36.6872 63.3894 36.4282 63.3764 35.8686 63.666C35.5396 63.6432 35.5396 63.6432 35.1769 63.566C34.9791 63.5262 34.9791 63.5262 34.7773 63.4855C34.5835 63.4436 34.5835 63.4436 34.3858 63.4008C33.4196 63.1946 32.5022 63.1009 31.5126 63.0562C31.0766 62.9989 31.0766 62.9989 30.6015 62.6547C30.6677 62.5068 30.7338 62.359 30.802 62.2067C30.6338 62.245 30.4657 62.2834 30.2924 62.3229C30.1475 62.6231 30.1475 62.6231 30.0805 62.9244C29.8899 62.9083 29.6993 62.8923 29.503 62.8758C28.2966 62.7779 27.103 62.6866 25.8921 62.6979C25.1372 62.704 24.4948 62.6619 23.7713 62.4525C23.6167 62.2866 23.6167 62.2866 23.6247 61.9013C23.6741 61.5192 23.6741 61.5192 23.8517 61.3781C22.43 61.2226 22.43 61.2226 21.0176 61.3205C20.8967 61.4642 20.7758 61.608 20.6511 61.7561C20.4868 61.7438 20.3224 61.7315 20.1531 61.7188C20.0057 61.4786 20.0057 61.4786 19.8554 61.2335C19.8365 61.4868 19.8176 61.74 19.798 62.0009C19.1077 62.1165 18.5966 62.0399 17.9191 61.87C17.6563 61.8053 17.6563 61.8053 17.3882 61.7393C17.2558 61.7053 17.1234 61.6713 16.987 61.6363C16.9446 61.0984 16.9446 61.0984 16.9013 60.5496C16.5178 60.5209 16.1343 60.4922 15.7391 60.4626C15.8711 60.5394 16.0031 60.6161 16.1391 60.6951C16.2697 60.7908 16.4003 60.8865 16.5348 60.9852C16.5235 61.1371 16.5121 61.289 16.5004 61.4456C15.5723 61.5435 14.8576 61.4433 13.9623 61.1979C13.8453 61.1676 13.7282 61.1374 13.6076 61.1062C12.758 60.8827 12.758 60.8827 12.3841 60.6747C12.3916 60.5734 12.3992 60.4721 12.407 60.3677C12.22 60.3824 12.0329 60.397 11.8402 60.4121C11.2333 60.4343 11.2333 60.4343 10.9127 60.256C10.9052 60.3573 10.8976 60.4586 10.8898 60.5629C10.1037 60.5749 9.75857 60.401 9.1393 59.9702C8.6492 59.7229 8.17155 59.6474 7.62657 59.5471C6.39245 59.318 6.39245 59.318 5.8658 58.9524C5.37915 58.6193 5.13698 58.5367 4.57056 58.4118C4.19215 58.3178 4.19215 58.3178 3.88822 58.1872C3.69509 57.7001 3.69509 57.7001 3.62504 57.2415C3.46446 57.1785 3.30388 57.1156 3.13843 57.0507C2.99679 56.7122 2.99679 56.7122 2.86377 56.2585C2.77259 56.0273 2.77259 56.0273 2.67957 55.7914C2.45918 55.2024 2.26252 54.6071 2.07196 54.0096C2.01114 53.8214 1.95032 53.6333 1.88766 53.4394C1.73165 52.7324 1.73165 52.7324 1.98855 52.3346C2.51137 52.1808 2.51137 52.1808 3.0077 52.1022C3.0928 51.7011 3.17789 51.3 3.26557 50.8868C3.43373 50.8484 3.60189 50.8101 3.77514 50.7706C3.77799 49.9967 3.77799 49.9967 3.38037 49.352C3.40246 49.0305 3.40246 49.0305 3.48391 48.6652C3.50951 48.5446 3.53511 48.424 3.56148 48.2997C3.64972 47.9831 3.64972 47.9831 3.83871 47.6886C3.91692 47.4379 3.99183 47.1863 4.06214 46.9336C4.3745 47.0824 4.3745 47.0824 4.7033 47.2903C4.76844 47.5243 4.76844 47.5243 4.8349 47.7631C4.77253 47.8603 4.71016 47.9575 4.6459 48.0576C4.75548 48.0658 4.86506 48.074 4.97797 48.0825C4.98554 47.9812 4.99312 47.8799 5.00093 47.7755C5.11051 47.7837 5.22009 47.7919 5.33299 47.8004C5.18896 47.3849 5.1027 47.1976 4.70838 46.9434C4.60849 46.8977 4.5086 46.852 4.40568 46.805C4.41326 46.7037 4.42084 46.6024 4.42864 46.498C4.54201 46.4556 4.65538 46.4131 4.77219 46.3694C4.72234 45.9339 4.65279 45.5604 4.49868 45.1432C4.36419 44.4601 4.55553 44.0791 4.82428 43.4409C4.33874 43.3027 3.85321 43.1645 3.35296 43.0222C3.31711 42.7648 3.28126 42.5075 3.24433 42.2424C3.52586 42.1616 3.80738 42.0807 4.09744 41.9975C4.2181 42.1338 4.33875 42.2702 4.46307 42.4107C4.80732 42.8578 4.80732 42.8578 5.20226 42.8518C5.59921 42.38 5.61105 42.327 5.55457 41.7689C5.53477 41.5732 5.51497 41.3776 5.49457 41.176C5.33399 41.113 5.1734 41.0501 5.00796 40.9852C4.83232 40.5685 4.7221 40.1528 4.6017 39.7202C4.33154 39.649 4.06138 39.5779 3.78303 39.5046C3.70079 39.2091 3.70079 39.2091 3.66292 38.8783C4.01794 38.5961 4.01794 38.5961 4.45521 38.6096C4.58486 38.6256 4.71451 38.6417 4.8481 38.6582C4.94252 38.869 5.03695 39.0798 5.13424 39.297C5.3024 39.2586 5.47055 39.2203 5.64381 39.1808C5.79034 38.7507 5.79034 38.7507 5.87872 38.2723C5.78051 38.1122 5.68229 37.952 5.5811 37.7871C5.64832 37.3174 5.70592 36.992 6.05118 36.6365C6.42287 36.4102 6.57864 36.4274 7.01546 36.4939C7.20313 36.5206 7.20313 36.5206 7.39458 36.5478C7.52419 36.5688 7.65381 36.5897 7.78735 36.6113C7.91902 36.6306 8.05069 36.6499 8.18635 36.6698C8.51112 36.7177 8.8354 36.7686 9.15958 36.82C9.21663 36.5709 9.21663 36.5709 9.27483 36.3168C9.37896 35.8732 9.49447 35.439 9.6294 35.0031C9.41024 34.9867 9.19108 34.9704 8.96528 34.9535C9.21496 34.3955 9.45069 34.3435 10.0303 34.1071C9.99375 34.0037 9.95714 33.9003 9.91944 33.7938C9.66158 33.0589 9.41325 32.328 9.21784 31.5769C9.09922 31.5717 8.9806 31.5664 8.85838 31.5609C7.50887 31.4836 7.50887 31.4836 6.83297 31.2346C6.22311 31.037 5.8621 31.0465 5.22742 31.0759C4.30769 31.1002 4.30769 31.1002 3.77686 30.6587C3.62776 30.4423 3.62776 30.4423 3.47565 30.2214C3.35911 30.1681 3.24257 30.1149 3.1225 30.06C2.83449 29.8648 2.83449 29.8648 2.71758 29.3352C2.55824 28.6619 2.37897 28.5056 1.79855 28.0896C1.62688 27.9908 1.4552 27.892 1.27833 27.7902C0.811938 27.3683 0.779459 27.3019 0.741427 26.7373C0.776765 25.6446 0.877826 24.9546 1.61683 24.1018C2.23816 23.3533 2.22752 22.7955 2.10319 21.872C2.11077 21.7419 2.11835 21.6117 2.12617 21.4776C2.46952 21.2555 2.46952 21.2555 2.82473 21.0669C2.85301 20.7608 2.87983 20.454 2.88379 20.1465C2.93135 19.7004 3.16122 19.4384 3.47206 19.1089C3.24518 19.0347 3.24518 19.0347 3.01371 18.9589C2.46582 18.7126 2.27135 18.5945 2.04667 18.0763C2.13012 17.6581 2.13012 17.6581 2.2701 17.3213C2.43388 17.2954 2.59767 17.2694 2.76642 17.2427C2.93895 17.1919 3.11148 17.1412 3.28924 17.0889C3.4496 16.8051 3.4496 16.8051 3.50119 16.4874C3.62214 16.3436 3.74308 16.1999 3.86769 16.0518C3.75979 15.4354 3.5763 14.9466 3.15234 14.4549C2.99176 14.392 2.83118 14.329 2.66573 14.2642C2.79002 13.5274 3.1397 13.2354 3.77671 12.8039C4.02895 12.7464 4.02895 12.7464 4.28628 12.6877C4.29386 12.5864 4.30144 12.4851 4.30924 12.3807C3.98429 12.3055 3.65934 12.2303 3.32454 12.1528C3.28112 11.9967 3.23769 11.8407 3.19295 11.6799C3.29144 11.6523 3.38992 11.6246 3.4914 11.5961C3.97786 11.379 4.253 11.0808 4.60156 10.7049C4.43867 10.3118 4.30802 10.0582 4.00631 9.73437C4.06112 9.42015 4.06112 9.42015 4.21826 9.13288C4.4705 9.07535 4.4705 9.07535 4.72784 9.01666C4.83363 9.0755 4.93942 9.13435 5.04842 9.19497C4.97749 8.71314 4.97749 8.71314 4.62096 8.55349C4.5024 8.50702 4.38385 8.46055 4.2617 8.41268C4.14281 8.36499 4.02391 8.3173 3.90142 8.26817C3.80955 8.23324 3.71768 8.19832 3.62302 8.16234C3.67737 7.59117 3.74847 7.03846 3.91533 6.4865C4.31937 6.24664 4.31937 6.24664 4.77993 6.08816C4.88931 5.9149 4.99869 5.74164 5.11138 5.56313C5.34113 5.21854 5.46009 5.08619 5.87408 4.94014C6.50301 4.84115 6.8916 4.80657 7.49056 5.05302C8.36361 5.38065 9.26043 5.39988 10.1897 5.47034C10.4782 5.49759 10.4782 5.49759 10.7726 5.52539C11.9747 5.61906 12.9421 5.52824 14.0965 5.22479C14.6214 5.09988 15.0588 5.10015 15.5966 5.17061C16.083 5.23011 16.5045 5.27128 16.9927 5.22952C17.9587 5.15975 18.9187 5.25232 19.8848 5.31773C20.0968 5.32911 20.3088 5.3405 20.5272 5.35222C20.832 5.37308 20.832 5.37308 21.143 5.39436C21.3281 5.40596 21.5132 5.41755 21.7039 5.4295C22.2939 5.5626 22.4287 5.77415 22.8031 6.2016C23.0222 6.21799 23.2414 6.23438 23.4672 6.25127C23.5395 6.11344 23.5395 6.11344 23.6132 5.97282C23.8932 5.59789 24.0659 5.53746 24.5323 5.40492C24.8908 5.40702 24.8908 5.40702 25.2594 5.44966C25.8674 5.50918 26.4262 5.50656 27.0342 5.43773C27.0531 5.18449 27.0721 4.93125 27.0916 4.67034C27.2266 4.66134 27.3616 4.65233 27.5006 4.64306C27.6434 4.6219 27.7861 4.60075 27.9332 4.57896C27.9956 4.48176 28.058 4.38456 28.1222 4.28442C28.0127 4.27622 27.9031 4.26803 27.7902 4.25958C27.7977 4.15829 27.8053 4.05699 27.8131 3.95263C27.4313 3.86532 27.0475 3.78536 26.6624 3.71222C26.6038 3.75876 26.5452 3.80531 26.4849 3.85327C25.891 3.83331 25.395 3.75859 24.8361 3.57561C24.6169 3.55921 24.3977 3.54282 24.1719 3.52593C24.1833 3.37399 24.1947 3.22204 24.2064 3.0655C22.985 2.82134 22.985 2.82134 21.7389 2.57226C21.6765 2.66945 21.6141 2.76665 21.5499 2.86679C21.4664 2.8319 21.3829 2.79701 21.2969 2.76106C20.7379 2.62481 20.2901 2.64786 19.7235 2.73018C19.51 3.01775 19.51 3.01775 19.3456 3.31926C18.6907 3.50372 18.0962 3.34652 17.4417 3.21604C16.8217 3.11189 16.2011 3.08059 15.5735 3.04675C15.1948 3.00878 15.1948 3.00878 14.8742 2.83047C14.9265 2.40995 14.9265 2.40995 15.1091 1.92202C15.8759 1.42512 16.479 1.30707 17.4108 1.28392C17.5279 1.28085 17.645 1.27778 17.7656 1.27462C18.7046 1.25777 19.6291 1.31829 20.5649 1.40409C21.201 1.45167 21.8321 1.45837 22.4691 1.45971C23.8223 1.46627 25.1332 1.63789 26.4681 1.84564C26.3344 2.30215 26.1953 2.75393 26.0327 3.20211C26.3615 3.2267 26.6902 3.25129 27.0289 3.27662C26.9805 3.18705 26.9321 3.09749 26.8822 3.00521C26.7245 2.58977 26.7418 2.30124 26.8002 1.87048C27.8187 1.63107 28.7594 1.64382 29.8085 1.69037C29.97 1.69648 30.1315 1.70259 30.2979 1.70889C30.6931 1.72401 31.0883 1.74034 31.4835 1.75778C31.5496 1.60994 31.6158 1.46209 31.6839 1.30977C31.3666 1.13324 31.3666 1.13324 31.0428 0.953137C31.0503 0.851841 31.0579 0.750546 31.0657 0.646181C31.2145 0.647961 31.3633 0.64974 31.5166 0.651574C31.8096 0.654088 31.8096 0.654088 32.1084 0.656653C32.302 0.658597 32.4955 0.660541 32.695 0.662544C33.2029 0.66787 33.2029 0.66787 33.5652 0.599864C33.9202 0.549055 34.2248 0.553865 34.5833 0.580126C34.7689 0.593709 34.7689 0.593709 34.9582 0.607567C35.1495 0.622769 35.1495 0.622769 35.3447 0.638278C35.4735 0.647322 35.6024 0.656366 35.7352 0.665684C36.6931 0.738879 36.6931 0.738879 37.0543 0.939788C37.1287 1.34084 37.1287 1.34084 37.1629 1.7196C36.8448 1.68575 36.5267 1.65191 36.2086 1.61806C35.7594 1.62068 35.4017 1.728 34.9816 1.8651C35.2975 1.87519 35.6135 1.88213 35.9295 1.88777C36.1054 1.89198 36.2814 1.89619 36.4627 1.90053C36.9875 1.89229 36.9875 1.89229 37.4045 1.65567C38.0112 1.39238 38.4533 1.46201 39.1182 1.52823C39.4445 1.55891 39.4445 1.55891 39.7774 1.59021C39.9632 1.60948 40.149 1.62875 40.3405 1.6486C40.8289 1.70168 40.8289 1.70168 41.2705 1.63135C41.6802 1.59448 41.6802 1.59448 42.0008 1.77279C41.9811 1.62171 41.9614 1.47063 41.9411 1.31496C41.9226 1.07961 41.9226 1.07961 41.9036 0.839506C42.367 0.471309 43.3225 0.633931 43.9004 0.651249C44.9615 0.74404 45.9134 1.07452 46.8616 1.51903C47.026 1.53133 47.1903 1.54362 47.3597 1.55629C47.4617 1.66578 47.5637 1.77527 47.6688 1.88808C47.7784 1.89628 47.8879 1.90448 48.0008 1.91292C48.067 1.76508 48.1332 1.61723 48.2013 1.46491C48.7 1.44563 49.1986 1.42861 49.6974 1.41283C49.8365 1.40722 49.9757 1.40161 50.119 1.39584C51.3687 1.35924 52.5307 1.47393 53.6842 1.96184C53.8064 2.01255 53.9285 2.06327 54.0543 2.11552C54.1866 2.17286 54.1866 2.17286 54.3215 2.23136C54.2591 2.32856 54.1968 2.42576 54.1325 2.5259C53.9681 2.51361 53.8038 2.50131 53.6344 2.48864C53.623 2.64059 53.6117 2.79253 53.6 2.94908C53.6926 2.95421 53.7852 2.95935 53.8805 2.96464C54.6135 3.01141 55.3002 3.09883 56.0192 3.25061C56.7383 3.36636 57.4665 3.39488 58.1933 3.43735C58.6778 3.4822 59.0887 3.57642 59.5541 3.70312C59.8185 3.68666 60.0829 3.66942 60.3468 3.64726C61.0461 3.62765 61.7417 3.71025 62.438 3.77414C62.8985 3.80135 63.3178 3.8038 63.7749 3.78311C64.6066 3.7529 65.4006 3.8474 66.2237 3.96084C66.4383 3.98899 66.4383 3.98899 66.6573 4.0177C67.0054 4.06348 67.3533 4.11068 67.7011 4.15817C67.6539 4.05278 67.6067 3.94738 67.558 3.8388C67.1587 3.75577 66.7765 3.69388 66.3726 3.64402C66.1555 3.61445 65.9384 3.58488 65.7147 3.55442C65.1412 3.50445 64.6403 3.5221 64.0714 3.578C63.4177 3.46942 62.9681 3.23513 62.457 2.8399C62.4646 2.7386 62.4721 2.63731 62.48 2.53294C63.5358 2.48639 64.5521 2.52994 65.6038 2.62191C66.7563 2.72163 67.8318 2.71796 68.9831 2.60881C69.5296 2.59288 69.9424 2.69803 70.4724 2.8221C70.9227 2.83855 71.3668 2.84618 71.8168 2.84549C72.9818 2.85531 74.107 2.95654 75.2612 3.11277C76.2013 3.23845 77.0602 3.33486 78.0071 3.23136C79.2612 3.09579 80.4809 3.28891 81.7265 3.45259C81.8919 3.47401 82.0572 3.49543 82.2275 3.5175C82.4498 3.54798 82.4498 3.54798 82.6765 3.57908C83.1184 3.61373 83.506 3.57026 83.9438 3.52108C84.3824 3.59115 84.8078 3.66923 85.2406 3.76277C86.6743 4.12927 86.6744 4.12927 88.0831 3.98504C88.4128 4.0097 88.7425 4.03471 89.0718 4.06381C89.4767 4.08835 89.8544 4.05425 90.253 3.993C90.2644 3.84106 90.2757 3.68912 90.2874 3.53257ZM44.5142 1.65212C45.1668 1.85527 45.1668 1.85527 45.1668 1.85527L44.5142 1.65212ZM32.8806 0.936268C32.873 1.03756 32.8654 1.13886 32.8576 1.24322C32.971 1.20077 33.0844 1.15832 33.2012 1.11458C33.0954 1.05574 32.9896 0.996895 32.8806 0.936268ZM47.3023 2.32368C47.3457 2.47972 47.3891 2.63576 47.4339 2.79653C47.5435 2.80473 47.653 2.81292 47.7659 2.82137C47.7225 2.66533 47.6791 2.50928 47.6343 2.34851C47.5248 2.34032 47.4152 2.33212 47.3023 2.32368ZM71.7088 4.14927C71.5916 4.24237 71.4745 4.33547 71.3538 4.43139C71.7757 4.60658 71.9453 4.65299 72.3907 4.5186C72.4907 4.47196 72.5906 4.42532 72.6935 4.37726C72.2197 4.23718 72.2197 4.23718 71.7088 4.14927ZM33.5217 1.2929C33.3517 1.35658 33.3517 1.35658 33.1782 1.42154C33.1668 1.57348 33.1555 1.72542 33.1438 1.88197C33.3081 1.89427 33.4725 1.90656 33.6419 1.91923C33.6022 1.71254 33.5626 1.50585 33.5217 1.2929ZM40.9816 2.00523C40.9741 2.10653 40.9665 2.20782 40.9587 2.31219C41.2326 2.33268 41.5066 2.35317 41.7888 2.37428C41.7964 2.27299 41.804 2.17169 41.8118 2.06733C41.5378 2.04684 41.2639 2.02634 40.9816 2.00523ZM69.7049 4.15372C69.5878 4.24682 69.4706 4.33992 69.3499 4.43584C69.5143 4.44813 69.6787 4.46043 69.848 4.4731C69.8008 4.3677 69.7536 4.26231 69.7049 4.15372ZM71.1648 4.72593C71.1572 4.82722 71.1496 4.92852 71.1418 5.03288C71.2514 5.04108 71.361 5.04927 71.4739 5.05772C71.4815 4.95642 71.489 4.85513 71.4968 4.75076C71.3873 4.74257 71.2777 4.73437 71.1648 4.72593ZM62.8518 4.25845C62.8404 4.4104 62.829 4.56234 62.8173 4.71889C62.9345 4.62579 63.0516 4.53269 63.1723 4.43677C63.0666 4.37792 62.9608 4.31908 62.8518 4.25845ZM54.3727 3.77856C54.3553 4.08093 54.3553 4.08093 54.4928 4.40489C54.9753 4.64232 54.9753 4.64232 55.4661 4.78636C55.5284 4.68916 55.5908 4.59197 55.655 4.49182C55.5493 4.43298 55.4435 4.37414 55.3345 4.31351C55.291 4.15747 55.2476 4.00143 55.2029 3.84066C54.9289 3.82016 54.655 3.79967 54.3727 3.77856ZM52.5119 4.10238C52.5592 4.20778 52.6064 4.31317 52.655 4.42176C52.7684 4.37931 52.8818 4.33686 52.9986 4.29312C52.838 4.23018 52.6774 4.16723 52.5119 4.10238ZM59.3034 4.8226C59.0901 5.05217 59.0901 5.05217 59.0958 5.36653C58.8804 5.29949 58.665 5.23245 58.4431 5.16338C58.6664 5.51447 58.6664 5.51447 59.0613 5.82697C60.011 5.9869 60.804 5.89263 61.7408 5.71872C61.7049 5.46138 61.6691 5.20404 61.6322 4.93891C60.9266 4.66237 59.9795 4.46069 59.3034 4.8226ZM62.8058 4.87236C62.8493 5.0284 62.8927 5.18445 62.9374 5.34522C62.8279 5.33702 62.7183 5.32882 62.6054 5.32038C62.5978 5.42167 62.5902 5.52297 62.5824 5.62733C63.5579 5.90494 64.55 5.94249 65.5595 6.00435C65.5709 5.85241 65.5822 5.70047 65.5939 5.54392C64.6617 5.00516 63.8921 4.89896 62.8058 4.87236ZM48.0291 3.76707C47.8591 3.83075 47.8591 3.83075 47.6856 3.89571C47.678 3.99701 47.6704 4.0983 47.6626 4.20267C47.9404 4.17251 48.2181 4.14235 48.5043 4.11128C48.3475 3.99769 48.1907 3.8841 48.0291 3.76707ZM61.7982 4.95133C62.4508 5.15448 62.4508 5.15448 62.4508 5.15448L61.7982 4.95133ZM69.1035 5.49776C69.0374 5.64561 68.9712 5.79345 68.9031 5.94578C69.126 5.91152 69.349 5.87727 69.5787 5.84198C69.5862 5.74068 69.5938 5.63939 69.6016 5.53502C69.4373 5.52273 69.2729 5.51043 69.1035 5.49776ZM24.8069 6.19715C25.0809 6.21764 25.3548 6.23813 25.6371 6.25924C25.6447 6.15795 25.6522 6.05665 25.66 5.95229C25.2764 5.89505 25.2764 5.89505 24.8069 6.19715ZM104.537 65.2527C104.475 65.3498 104.413 65.447 104.348 65.5472C104.513 65.5595 104.677 65.5718 104.846 65.5844C104.854 65.4832 104.861 65.3819 104.869 65.2775C104.76 65.2693 104.65 65.2611 104.537 65.2527ZM109.472 66.2391C109.167 66.5157 109.167 66.5157 108.928 66.8158C109.147 66.8322 109.367 66.8486 109.592 66.8655C109.98 66.8944 110.367 66.9234 110.755 66.9524C110.213 66.4107 110.213 66.4107 109.472 66.2391ZM118.249 67.2043C118.416 67.5392 118.416 67.5392 118.701 67.8555C119.112 67.9607 119.112 67.9607 119.559 67.9583C119.71 67.9639 119.86 67.9696 120.014 67.9754C120.129 67.9768 120.243 67.9782 120.361 67.9797C120.486 67.7853 120.611 67.5909 120.739 67.3906C119.959 66.6361 119.21 66.9465 118.249 67.2043ZM124.57 67.5227C124.554 67.7253 124.539 67.9279 124.524 68.1367C124.946 68.3118 125.115 68.3583 125.561 68.2239C125.661 68.1772 125.76 68.1306 125.863 68.0825C125.467 67.6569 125.149 67.637 124.57 67.5227ZM135.029 68.3051C135.077 68.4105 135.124 68.5159 135.173 68.6245C135.235 68.5273 135.297 68.4301 135.362 68.33C135.252 68.3218 135.142 68.3136 135.029 68.3051ZM93.1553 65.636C93.2025 65.7414 93.2497 65.8468 93.2984 65.9554C93.4475 65.941 93.5967 65.9267 93.7503 65.912C94.2282 65.8814 94.6607 65.8899 95.1362 65.9385C95.1438 65.8372 95.1514 65.7359 95.1592 65.6315C94.9234 65.5795 94.687 65.5302 94.4503 65.482C94.3188 65.4543 94.1872 65.4266 94.0516 65.398C93.6312 65.3297 93.6312 65.3297 93.1553 65.636ZM108.299 66.3057C108.129 66.3694 108.129 66.3694 107.955 66.4343C107.944 66.5863 107.932 66.7382 107.921 66.8948C108.202 66.8139 108.484 66.7331 108.774 66.6499C108.617 66.5363 108.46 66.4227 108.299 66.3057ZM115.592 67.0056C115.589 67.0562 115.585 67.1069 115.581 67.1591C115.851 67.2127 115.851 67.2127 116.126 67.2674C116.732 67.3995 116.732 67.3995 117.218 67.5902C117.588 67.4829 117.588 67.4829 117.905 67.3329C117.909 67.2823 117.913 67.2316 117.917 67.1795C117.15 67.1221 116.383 67.0647 115.592 67.0056ZM138.837 68.7443C138.667 68.8079 138.667 68.8079 138.493 68.8729C138.486 68.9742 138.478 69.0755 138.47 69.1798C138.697 69.0949 138.924 69.01 139.157 68.9226C139.052 68.8637 138.946 68.8049 138.837 68.7443ZM190.14 72.5817C190.078 72.6789 190.015 72.7761 189.951 72.8763C190.116 72.8886 190.28 72.9009 190.449 72.9135C190.457 72.8122 190.464 72.7109 190.472 72.6066C190.363 72.5984 190.253 72.5902 190.14 72.5817ZM83.7031 64.7746C83.6955 64.8759 83.6879 64.9772 83.6801 65.0816C83.8483 65.0432 84.0164 65.0049 84.1897 64.9654C84.0291 64.9024 83.8685 64.8395 83.7031 64.7746ZM95.6573 65.6688C95.7045 65.7742 95.7517 65.8796 95.8003 65.9882C96.0781 65.958 96.3558 65.9279 96.642 65.8968C96.5947 65.7914 96.5475 65.686 96.4989 65.5774C96.133 65.5338 96.133 65.5338 95.6573 65.6688ZM102.132 66.1531C102.285 66.3174 102.438 66.4816 102.596 66.6508C102.764 66.6125 102.932 66.5741 103.106 66.5346C103.113 66.4333 103.121 66.332 103.129 66.2276C102.8 66.2031 102.471 66.1785 102.132 66.1531ZM130.358 68.2644C130.405 68.3698 130.452 68.4752 130.501 68.5837C130.669 68.5454 130.837 68.507 131.01 68.4675C130.795 68.4005 130.58 68.3334 130.358 68.2644ZM136.667 68.7363C136.659 68.8376 136.652 68.9389 136.644 69.0432C136.812 69.0049 136.98 68.9665 137.153 68.927C136.993 68.8641 136.832 68.8011 136.667 68.7363ZM63.9224 63.6037C63.8563 63.7516 63.7901 63.8994 63.722 64.0517C64.1055 64.0804 64.489 64.1091 64.8842 64.1387C64.785 64.0835 64.6858 64.0283 64.5836 63.9715C64.3632 63.8489 64.1428 63.7263 63.9224 63.6037ZM151.575 70.3144C151.677 70.4239 151.779 70.5334 151.884 70.6462C151.892 70.5449 151.899 70.4436 151.907 70.3393C151.798 70.3311 151.688 70.3229 151.575 70.3144ZM184.438 72.9269C184.434 72.9775 184.43 73.0282 184.426 73.0803C184.7 73.1008 184.974 73.1213 185.256 73.1424C185.26 73.0918 185.264 73.0411 185.268 72.989C184.994 72.9685 184.72 72.948 184.438 72.9269ZM189.585 73.3119C189.577 73.4132 189.57 73.5144 189.562 73.6188C189.781 73.6352 190 73.6516 190.226 73.6685C190.233 73.5672 190.241 73.4659 190.249 73.3615C190.03 73.3451 189.81 73.3287 189.585 73.3119ZM191.211 73.8965C191.697 74.283 191.91 74.4202 192.56 74.4122C192.785 74.3765 192.785 74.3765 193.014 74.34C193.084 74.1416 193.154 73.9431 193.226 73.7386C192.957 73.7101 192.687 73.684 192.418 73.6588C192.268 73.644 192.118 73.6292 191.963 73.614C191.537 73.5747 191.537 73.5747 191.211 73.8965ZM26.6512 61.8962C27.6451 62.1088 28.6125 62.2146 29.6283 62.2732C29.6359 62.1719 29.6434 62.0706 29.6512 61.9663C28.1008 61.4154 28.1008 61.4154 26.6512 61.8962ZM41.7944 62.5659C41.6697 62.7603 41.545 62.9547 41.4165 63.155C41.5964 63.143 41.7764 63.131 41.9618 63.1186C42.8952 63.0786 43.8185 63.1673 44.7486 63.2499C44.7013 63.1445 44.6541 63.0391 44.6055 62.9305C43.6778 62.8102 42.7502 62.6899 41.7944 62.5659ZM34.3001 62.314C34.2925 62.4153 34.2849 62.5166 34.2771 62.621C34.4377 62.6839 34.5983 62.7468 34.7638 62.8117C34.8337 62.6132 34.9036 62.4147 34.9757 62.2102C34.633 62.1616 34.633 62.1616 34.3001 62.314ZM35.4738 62.2475C35.521 62.3528 35.5682 62.4582 35.6169 62.5668C36.2398 62.6527 36.8634 62.7333 37.4872 62.8128C37.7529 62.8496 37.7529 62.8496 38.0239 62.887C38.194 62.9082 38.3641 62.9294 38.5393 62.9512C38.7743 62.9821 38.7743 62.9821 39.0141 63.0137C39.4902 63.0447 39.4902 63.0447 39.9566 62.5828C38.4773 62.4721 36.998 62.3615 35.4738 62.2475ZM197.354 74.356C197.346 74.4573 197.339 74.5586 197.331 74.6629C197.444 74.6205 197.557 74.578 197.674 74.5343C197.568 74.4755 197.463 74.4166 197.354 74.356ZM40.6207 62.6324C40.2806 62.7598 40.2806 62.7598 39.9337 62.8897C40.0942 62.9527 40.2548 63.0156 40.4203 63.0805C40.5336 63.038 40.647 62.9956 40.7638 62.9518C40.7166 62.8464 40.6694 62.741 40.6207 62.6324ZM189.35 74.2203C189.287 74.3175 189.225 74.4147 189.161 74.5148C189.325 74.5271 189.49 74.5394 189.659 74.5521C189.666 74.4508 189.674 74.3495 189.682 74.2451C189.572 74.2369 189.463 74.2288 189.35 74.2203ZM209.417 76.03C209.409 76.1313 209.401 76.2326 209.394 76.3369C209.503 76.3451 209.613 76.3533 209.726 76.3618C209.733 76.2605 209.741 76.1592 209.749 76.0548C209.639 76.0466 209.529 76.0384 209.417 76.03ZM215.537 76.7964C215.522 76.999 215.506 77.2016 215.491 77.4103C216.072 77.3774 216.072 77.3774 216.664 77.3438C216.672 77.2425 216.68 77.1412 216.687 77.0368C216.308 76.9575 215.928 76.8782 215.537 76.7964ZM219.498 77.4014C219.487 77.5534 219.476 77.7053 219.464 77.8619C219.64 77.7222 219.816 77.5826 219.997 77.4387C219.832 77.4264 219.668 77.4141 219.498 77.4014ZM223.151 77.6747C223.085 77.8225 223.019 77.9703 222.951 78.1227C223.389 78.1554 223.827 78.1882 224.279 78.222C224.232 78.1166 224.185 78.0112 224.136 77.9026C223.64 77.7641 223.64 77.7641 223.151 77.6747ZM227.932 78.4952C227.924 78.5965 227.916 78.6978 227.909 78.8022C228.474 78.8702 228.474 78.8702 229.071 78.8891C229.188 78.796 229.305 78.7029 229.426 78.607C228.933 78.5701 228.44 78.5332 227.932 78.4952ZM234.206 79.4276C234.354 79.6678 234.354 79.6678 234.504 79.9129C234.727 79.8786 234.95 79.8444 235.18 79.8091C235.078 79.6996 234.976 79.5901 234.87 79.4773C234.651 79.4609 234.432 79.4445 234.206 79.4276Z" fill="#A8D5BA"/>
</svg>
