<svg width="291" height="81" viewBox="0 0 291 81" fill="none" xmlns="http://www.w3.org/2000/svg">
<path d="M85.157 10.7944C85.3261 10.8288 85.4951 10.8632 85.6692 10.8986C85.6792 10.9997 85.6891 11.1008 85.6994 11.2049C85.838 11.2007 85.9767 11.1964 86.1196 11.192C86.3009 11.1871 86.4822 11.1822 86.6691 11.1771C86.8491 11.172 87.0291 11.1668 87.2145 11.1615C87.7028 11.1624 87.7028 11.1624 88.2149 11.2666C88.5814 11.2436 88.9474 11.2111 89.3127 11.1736C89.479 11.1569 89.479 11.1569 89.6486 11.1399C89.8896 11.1155 90.1306 11.0909 90.3716 11.0659C90.7566 11.026 91.1417 10.9871 91.5269 10.9484C92.4862 10.8519 93.4453 10.7538 94.4045 10.6556C95.3402 10.5599 96.276 10.4649 97.2119 10.3712C97.3418 10.3582 97.4716 10.3451 97.6054 10.3317C99.5091 10.1421 101.407 10.0028 103.318 9.91913C104.015 9.88348 104.707 9.80922 105.4 9.72937C106.721 9.57912 106.721 9.57912 107.3 9.69699C107.765 9.67323 108.225 9.64196 108.689 9.6037C108.826 9.5931 108.962 9.5825 109.103 9.57158C109.54 9.53763 109.977 9.50277 110.414 9.46771C110.987 9.4218 111.561 9.37677 112.134 9.33223C112.264 9.32149 112.395 9.31075 112.529 9.29969C113.29 9.24055 114.023 9.24265 114.786 9.26925C115.182 9.24391 115.577 9.21161 115.971 9.17311C116.299 9.14118 116.299 9.14118 116.633 9.10859C116.745 9.09725 116.857 9.0859 116.972 9.07421C117.316 9.03949 117.661 9.00642 118.005 8.9735C118.222 8.9519 118.44 8.93029 118.664 8.90804C118.862 8.88834 119.06 8.86865 119.265 8.84836C119.768 8.7996 119.768 8.7996 120.239 8.57777C120.711 8.57022 121.178 8.57277 121.65 8.58206C123.226 8.5963 124.769 8.48395 126.337 8.31857C126.76 8.27401 127.184 8.232 127.608 8.19031C127.883 8.16246 128.158 8.13447 128.433 8.10631C128.557 8.09396 128.681 8.0816 128.808 8.06887C129.56 7.98861 130.287 7.86397 131.024 7.69893C131.539 7.6042 132.029 7.62887 132.549 7.6558C134.982 7.77656 137.422 7.54499 139.849 7.35274C140.091 7.33374 140.091 7.33374 140.337 7.31437C142.572 7.13762 144.806 6.95131 147.038 6.73991C147.314 6.71385 147.591 6.68829 147.867 6.66327C149.204 6.54131 150.502 6.38858 151.808 6.08293C153.095 5.78656 154.348 5.67855 155.665 5.61199C155.884 5.59929 156.102 5.58659 156.326 5.57351C156.855 5.543 157.383 5.51435 157.912 5.4875C157.902 5.38641 157.892 5.28532 157.882 5.18116C157.772 5.19193 157.663 5.2027 157.55 5.21379C157.54 5.1127 157.53 5.01161 157.52 4.90746C158.29 4.65766 158.29 4.65766 158.68 4.79327C158.745 4.88898 158.809 4.98468 158.876 5.08329C158.92 4.97682 158.965 4.87034 159.011 4.76064C160.214 4.58395 160.214 4.58395 160.847 4.82155C161.502 5.03237 161.846 4.91999 162.503 4.75637C162.962 4.67147 163.287 4.75178 163.711 4.91656C163.751 4.75954 163.79 4.60252 163.831 4.44075C163.96 4.42048 164.089 4.40022 164.222 4.37933C164.389 4.35138 164.555 4.32342 164.727 4.29461C164.893 4.26748 165.059 4.24036 165.23 4.21241C165.365 4.178 165.5 4.14359 165.639 4.10814C165.684 4.00167 165.728 3.8952 165.775 3.7855C166.662 3.69433 167.549 3.60417 168.436 3.51494C168.738 3.48443 169.04 3.45366 169.342 3.4226C169.776 3.37803 170.21 3.33444 170.644 3.29104C170.846 3.2699 170.846 3.2699 171.053 3.24833C171.6 3.19438 172.044 3.16018 172.583 3.26985C173.002 3.23169 173.418 3.18703 173.835 3.13692C174.75 3.03546 175.563 3.01498 176.476 3.12705C177.45 3.18175 178.439 3.02243 179.407 2.90737C179.904 2.8584 180.16 2.90926 180.631 3.02843C181.362 3.18469 181.865 3.15358 182.585 2.90377C182.816 2.72791 182.816 2.72791 183.052 2.5485C183.389 2.54733 183.389 2.54733 183.768 2.60362C184.829 2.75466 185.873 2.75223 186.947 2.70633C187.739 2.67409 188.531 2.64854 189.324 2.63662C190.661 2.66878 190.661 2.66878 191.894 2.2966C192.413 1.99144 192.93 2.01269 193.536 1.98031C193.65 2.02008 193.764 2.05986 193.882 2.10085C194.079 2.10378 194.276 2.10672 194.479 2.10974C194.67 2.11967 194.861 2.1296 195.057 2.13983C195.122 2.23553 195.186 2.33124 195.253 2.42984C195.399 2.40906 195.546 2.38827 195.696 2.36686C196.247 2.33197 196.586 2.41834 197.106 2.55674C197.265 2.49004 197.424 2.42335 197.588 2.35463C197.87 2.32009 198.153 2.29279 198.437 2.27103C198.707 2.2503 198.976 2.22514 199.245 2.19151C199.294 2.13558 199.344 2.07965 199.395 2.02203C199.787 2.02787 200.179 2.04231 200.57 2.06101C200.866 2.06476 200.866 2.06476 201.168 2.06858C201.463 2.07364 201.463 2.07364 201.764 2.0788C202.06 2.08255 202.06 2.08255 202.362 2.08638C202.928 2.13974 203.301 2.2664 203.794 2.5169C203.754 2.67392 203.714 2.83094 203.673 2.99271C204.069 3.00628 204.464 3.01877 204.859 3.03067C204.969 3.03457 205.079 3.03846 205.193 3.04248C205.922 3.06341 206.623 3.02571 207.349 2.94017C207.357 2.81495 207.366 2.68973 207.374 2.56071C207.396 2.42782 207.417 2.29494 207.439 2.15803C207.967 1.8482 208.584 1.84911 209.19 1.78266C209.321 1.76531 209.451 1.74797 209.586 1.7301C210.547 1.62589 211.121 1.73647 211.958 2.17709C212.147 2.50642 212.147 2.50642 212.184 2.77344C212.76 2.8384 213.258 2.83496 213.832 2.74716C214.051 2.71437 214.051 2.71437 214.274 2.68092C214.425 2.65745 214.575 2.63398 214.73 2.60981C214.883 2.58662 215.037 2.56343 215.195 2.53954C215.572 2.48243 215.949 2.42443 216.326 2.36562C216.312 2.21399 216.297 2.06236 216.281 1.90613C217.264 1.59768 218.262 1.33343 219.265 1.09047C219.376 1.06082 219.487 1.03117 219.601 1.00063C220.21 0.858988 220.466 0.836991 221.018 1.12205C221.15 1.21392 221.282 1.30579 221.418 1.40044C221.955 1.39941 221.955 1.39941 222.412 1.30256C222.457 1.19609 222.501 1.08962 222.547 0.979919C225.467 0.922305 225.467 0.922305 225.741 1.12948C226.607 1.21549 227.47 1.26856 228.339 1.18297C229.212 1.09705 230.067 1.17923 230.938 1.23645C231.518 1.26681 232.038 1.28504 232.615 1.21024C233.442 1.14863 234.221 1.22319 235.042 1.2963C236.388 1.40479 237.602 1.3962 238.946 1.22252C239.53 1.16361 240.033 1.20812 240.607 1.29523C241.005 1.33171 241.345 1.3046 241.742 1.25591C242.66 1.15687 243.567 1.13578 244.489 1.12988C244.647 1.12774 244.806 1.1256 244.969 1.1234C246.128 1.11306 246.128 1.11306 246.332 1.26736C246.747 1.29832 247.156 1.3187 247.572 1.32894C247.693 1.3321 247.814 1.33526 247.939 1.33852C248.851 1.34668 249.588 1.18099 250.455 0.902528C250.806 0.826925 250.806 0.826925 251.245 1.03504C251.424 1.2487 251.602 1.46306 251.779 1.67841C252.577 2.35174 254.014 2.14023 255.031 2.11209C256.632 2.06782 256.632 2.06782 257.409 2.2C257.963 2.28409 258.398 2.25041 258.951 2.1622C259.903 2.0106 260.667 1.91233 261.494 2.44237C261.942 2.79095 262.098 3.05873 262.284 3.56313C262.434 3.67604 262.583 3.78894 262.736 3.90527C263.188 4.2474 263.188 4.2474 263.304 4.5743C263.359 4.70768 263.359 4.70768 263.414 4.84375C263.556 4.87768 263.697 4.91161 263.843 4.94657C263.985 4.98681 264.127 5.02706 264.273 5.06852C264.498 5.53239 264.524 5.91672 264.574 6.4307C264.677 6.4339 264.781 6.4371 264.887 6.44039C265.997 6.50841 265.997 6.50841 266.471 6.9012C266.701 7.37444 266.793 7.70326 266.759 8.22611C266.456 8.54592 266.456 8.54592 266.141 8.75086C266.213 8.95905 266.213 8.95905 266.287 9.17144C266.397 9.65354 266.397 9.65354 266.111 10.1457C265.521 10.3101 265.521 10.3101 264.966 10.413C265.036 10.5593 265.106 10.7055 265.177 10.8562C266.012 10.9271 266.012 10.9271 266.864 10.9994C267.14 11.8577 267.14 11.8577 266.834 12.3942C266.735 12.5061 266.636 12.6179 266.533 12.7332C266.707 12.8181 266.881 12.9031 267.06 12.9906C267.08 13.1927 267.1 13.3949 267.121 13.6032C267.339 13.5817 267.558 13.5602 267.783 13.538C267.803 13.7402 267.823 13.9423 267.844 14.1506C268.011 14.0959 268.178 14.0412 268.35 13.9848C269.124 13.8617 269.404 14.0138 270.043 14.3981C270.023 14.1959 270.003 13.9937 269.983 13.7854C269.819 13.8016 269.655 13.8177 269.486 13.8344C269.476 13.7333 269.466 13.6322 269.456 13.528C269.615 13.4613 269.774 13.3946 269.938 13.3259C270.007 13.4722 270.077 13.6184 270.148 13.7691C270.367 13.7476 270.586 13.726 270.811 13.7039C270.886 13.9007 270.96 14.0974 271.037 14.3002C271.311 14.2733 271.584 14.2464 271.866 14.2186C271.637 14.1391 271.408 14.0595 271.173 13.9776C271.163 13.8765 271.153 13.7754 271.143 13.6712C272.982 13.6143 274.67 13.6726 276.46 14.0503C277.162 14.1962 277.853 14.2696 278.569 14.332C279.114 14.3903 279.658 14.4517 280.202 14.5149C280.572 14.557 280.941 14.5961 281.312 14.6316C282.261 14.7322 283.037 14.8763 283.87 15.3076C284.205 15.4872 284.205 15.4872 284.591 15.6294C285.548 16.0037 285.548 16.0037 285.825 16.556C285.858 16.9881 285.848 17.3705 285.769 17.7986C285.501 17.8761 285.233 17.9536 284.956 18.0334C285.025 18.5526 285.025 18.5526 285.227 19.0892C285.626 19.3156 285.626 19.3156 286.101 19.4672C286.648 19.8412 287.079 20.1687 287.397 20.7315C287.302 20.8939 287.208 21.0563 287.11 21.2236C287.001 21.2343 286.892 21.2451 286.779 21.2562C286.789 21.3573 286.799 21.4584 286.809 21.5625C287.088 21.5862 287.366 21.6098 287.653 21.6341C287.864 22.0773 287.864 22.0773 287.909 22.5368C287.98 22.737 288.054 22.9362 288.135 23.1332C287.65 23.3254 287.51 23.3562 286.975 23.2474C286.886 22.8989 286.796 22.5505 286.704 22.1915C286.376 22.2238 286.048 22.2561 285.71 22.2894C285.725 22.441 285.739 22.5927 285.755 22.7489C285.586 22.7145 285.417 22.6801 285.243 22.6447C284.875 22.6646 284.875 22.6646 284.429 22.8794C284.4 23.1375 284.37 23.3956 284.339 23.6615C284.672 23.6798 285.005 23.698 285.348 23.7168C285.378 23.4587 285.408 23.2006 285.439 22.9347C285.744 23.0225 286.049 23.112 286.354 23.2022C286.524 23.2519 286.693 23.3015 286.868 23.3527C287.294 23.5058 287.568 23.6274 287.879 23.9316C287.89 24.2591 287.89 24.2591 287.774 24.5606C287.141 24.8258 286.762 24.6977 286.102 24.5706C286.041 24.8975 285.994 25.1756 286.026 25.5059C286.151 25.6467 286.275 25.7876 286.403 25.9328C286.423 26.1349 286.443 26.3371 286.463 26.5454C286.581 26.5498 286.699 26.5541 286.82 26.5586C287.373 26.625 287.833 26.7849 288.346 26.9786C288.361 27.1303 288.376 27.2819 288.391 27.4381C288.221 27.4964 288.051 27.5546 287.876 27.6146C287.327 27.8327 286.949 28.0692 286.478 28.3997C286.314 28.4159 286.15 28.432 285.981 28.4487C286.15 28.483 286.319 28.5174 286.494 28.5529C286.504 28.654 286.513 28.7551 286.524 28.8592C286.414 28.87 286.305 28.8807 286.192 28.8918C286.202 28.9929 286.212 29.094 286.222 29.1982C287.058 29.2691 287.058 29.2691 287.91 29.3414C288.328 30.1895 288.328 30.1895 288.362 30.5341C288.635 30.5072 288.908 30.4803 289.19 30.4525C289.329 30.745 289.468 31.0375 289.612 31.3389C289.89 31.3625 290.169 31.3861 290.455 31.4105C290.645 31.968 290.759 32.3448 290.604 32.923C290.305 33.2811 290.305 33.2811 289.762 33.4989C289.025 33.5596 288.87 33.3772 288.271 33.0174C287.809 33.0078 287.407 33.0732 286.946 33.1479C286.726 32.685 286.731 32.552 286.84 32.0757C286.723 32.1127 286.606 32.1498 286.485 32.188C286.049 32.3045 285.649 32.3596 285.199 32.392C285.325 32.6887 285.325 32.6887 285.59 32.972C285.842 33.0047 285.842 33.0047 286.099 33.038C286.615 33.1805 286.615 33.1805 286.784 33.4247C287.046 34.067 287.134 34.6207 286.991 35.3085C286.915 35.4436 286.839 35.5787 286.76 35.7179C286.465 36.3456 286.721 36.7774 286.976 37.3821C287.089 37.8692 286.995 38.0716 286.764 38.5206C286.672 38.7048 286.672 38.7048 286.578 38.8928C286.387 39.2135 286.177 39.4653 285.922 39.744C285.759 40.0848 285.759 40.0848 285.651 40.3892C285.542 40.4 285.433 40.4108 285.32 40.4219C285.353 40.508 285.385 40.5941 285.419 40.6828C285.536 40.9934 285.654 41.304 285.772 41.6146C285.597 41.6987 285.423 41.7829 285.243 41.8696C284.589 42.2103 284.318 42.5007 283.964 43.1167C283.803 43.6501 283.807 43.8911 283.884 44.4199C283.993 45.2298 283.814 45.6158 283.392 46.3337C283.298 46.587 283.298 46.587 283.202 46.8454C282.908 47.4659 282.582 47.8209 281.925 48.1364C280.428 48.6855 278.776 48.5481 277.212 48.45C276.092 48.3999 275.303 48.6511 274.295 49.0852C274.185 49.096 274.076 49.1067 273.963 49.1178C273.988 49.3705 274.013 49.6233 274.039 49.8836C274.262 49.9127 274.486 49.9417 274.716 49.9716C274.791 50.1684 274.866 50.3652 274.942 50.5679C274.778 50.5841 274.614 50.6002 274.445 50.6168C274.362 50.985 274.288 51.3514 274.219 51.7216C274.167 51.9804 274.167 51.9804 274.114 52.2443C274.171 52.9602 274.465 53.338 274.891 53.9197C275.351 54.5524 275.631 55.1388 275.636 55.9124C275.586 55.9683 275.536 56.0243 275.485 56.0819C275.528 56.371 275.574 56.6596 275.623 56.9479C275.723 57.8242 275.723 57.8242 275.48 58.2348C275.316 58.3994 275.146 58.5601 274.972 58.7162C274.645 59.0599 274.714 59.431 274.687 59.8721C274.323 60.3139 274.323 60.3139 273.934 60.7194C273.752 61.0724 273.752 61.0724 273.663 61.3647C273.897 61.4948 274.13 61.6249 274.371 61.759C274.282 61.9719 274.192 62.1849 274.1 62.4043C273.995 62.4138 273.889 62.4234 273.781 62.4332C273.3 62.4773 272.819 62.5227 272.339 62.568C272.173 62.583 272.007 62.598 271.837 62.6135C271.179 62.6763 270.557 62.7369 269.917 62.9019C269.376 63.0395 268.922 63.0263 268.366 62.9978C268.18 62.9896 267.994 62.9814 267.803 62.9729C267.343 62.9253 267.022 62.8324 266.599 62.6788C266.322 62.6469 266.044 62.623 265.765 62.6062C265.312 62.5787 264.923 62.5388 264.488 62.4184C264.004 62.2989 263.604 62.298 263.102 62.3175C262.249 62.349 262.249 62.349 261.869 62.2166C261.281 62.2696 260.697 62.3424 260.112 62.4143C259.549 62.445 259.549 62.445 259.219 62.327C258.797 62.1839 258.478 62.1815 258.027 62.1931C257.872 62.1961 257.716 62.1991 257.556 62.2023C257.396 62.2066 257.235 62.211 257.069 62.2155C256.749 62.2233 256.428 62.2305 256.107 62.2371C255.966 62.2409 255.824 62.2446 255.678 62.2485C255.346 62.2401 255.346 62.2401 255.166 62.1033C254.869 62.1373 254.869 62.1373 254.566 62.172C253.169 62.3241 251.751 62.2461 250.36 62.1155C249.236 62.0156 248.11 62.0185 246.981 62.0171C245.459 61.9991 245.459 61.9991 244.742 61.583C244.692 61.6389 244.642 61.6948 244.591 61.7525C244.276 61.8282 243.958 61.8932 243.638 61.9526C243.465 61.9862 243.291 62.0199 243.112 62.0545C242.618 62.1014 242.618 62.1014 242.284 61.981C241.884 61.8464 241.651 61.8531 241.229 61.9041C241.1 61.9185 240.97 61.9329 240.837 61.9478C240.704 61.9642 240.57 61.9806 240.433 61.9975C240.168 62.029 239.902 62.0598 239.637 62.0898C239.52 62.1041 239.403 62.1184 239.282 62.1331C238.926 62.1549 238.616 62.1156 238.265 62.066C237.988 62.0874 237.712 62.1133 237.436 62.1476C237.367 62.0013 237.297 61.8551 237.225 61.7044C237.007 61.7977 237.007 61.7977 236.784 61.8928C236.611 61.964 236.439 62.0352 236.261 62.1086C236.156 62.1604 236.051 62.2123 235.942 62.2657C235.614 62.327 235.614 62.327 235.147 62.1507C234.509 61.9443 234.162 61.9776 233.506 62.0639C232.153 62.2184 230.557 62.2986 229.227 62.0279C229.072 62.0686 228.917 62.1094 228.758 62.1514C228.248 62.2789 228.248 62.2789 227.857 62.2401C227.408 62.2076 227.122 62.2568 226.687 62.3553C226.017 62.5047 225.44 62.4911 224.753 62.4683C224.529 62.5121 224.307 62.5614 224.085 62.615C223.238 62.7951 222.428 62.809 221.565 62.8015C221.42 62.8017 221.274 62.8019 221.124 62.8021C220.439 62.801 219.77 62.7795 219.089 62.7166C218.786 62.7135 218.483 62.7144 218.18 62.7192C218.019 62.7217 217.857 62.7242 217.691 62.7268C217.238 62.7362 217.238 62.7362 216.736 62.813C216.258 62.8407 215.981 62.7785 215.529 62.6612C214.744 62.4823 214.24 62.6191 213.487 62.8719C212.499 63.188 211.831 63.159 210.895 62.7501C210.567 62.8277 210.241 62.9124 209.916 63.0011C209.549 63.0547 209.18 63.1006 208.811 63.1389C208.626 63.1594 208.441 63.1798 208.25 63.2008C207.762 63.2132 207.762 63.2132 207.235 62.9558C206.142 62.8837 205.044 63.0047 203.96 63.1483C203.574 63.1615 203.574 63.1615 203.047 62.9041C202.62 62.9767 202.62 62.9767 202.17 63.1258C201.577 63.3071 201.044 63.4126 200.426 63.4715C200.376 63.5274 200.327 63.5833 200.276 63.6409C199.756 63.745 199.516 63.7553 199.041 63.5305C198.892 63.4304 198.892 63.4304 198.739 63.3283C198.694 63.4347 198.65 63.5412 198.603 63.6509C198.366 63.6715 198.366 63.6715 198.125 63.6926C197.917 63.7117 197.709 63.7308 197.494 63.7504C197.186 63.7781 197.186 63.7781 196.871 63.8064C196.371 63.8684 195.948 63.9709 195.47 64.114C194.998 64.0929 194.998 64.0929 194.627 64.0424C194.617 63.9413 194.607 63.8402 194.597 63.7361C194.492 63.7974 194.388 63.8587 194.28 63.9219C193.776 63.993 193.337 64.0255 192.831 63.9678C191.847 63.9618 190.913 64.3079 189.988 64.615C189.371 64.7253 188.833 64.6564 188.216 64.5769C187.799 64.5571 187.55 64.6179 187.171 64.7765C187.096 64.5797 187.021 64.3829 186.945 64.1801C187.213 64.1026 187.481 64.0252 187.758 63.9454C187.783 63.6367 187.808 63.3281 187.833 63.0101C187.45 63.0478 187.068 63.0854 186.673 63.1243C186.657 63.2694 186.657 63.2694 186.64 63.4176C186.568 63.7532 186.568 63.7532 186.267 64.0922C186.277 64.1933 186.287 64.2944 186.297 64.3985C185.818 64.6797 185.285 64.7115 184.736 64.7938C184.617 64.8119 184.497 64.83 184.374 64.8487C184.031 64.8999 183.688 64.9496 183.345 64.9985C183.191 65.0203 183.038 65.0422 182.881 65.0647C182.097 65.1596 181.421 65.1514 180.663 64.9532C180.31 64.6593 180.31 64.6593 180.106 64.3894C179.876 64.4603 179.646 64.5313 179.416 64.6023C179.288 64.6419 179.16 64.6814 179.028 64.7221C178.682 64.8308 178.339 64.944 177.997 65.061C177.977 64.8588 177.957 64.6566 177.937 64.4483C177.768 64.4139 177.599 64.3795 177.425 64.3441C177.45 64.5968 177.474 64.8495 177.5 65.1099C176.882 65.5906 176.185 65.5834 175.42 65.6434C175.288 65.6549 175.157 65.6665 175.021 65.6784C174.698 65.7066 174.374 65.7329 174.051 65.7588C174.024 65.6626 173.997 65.5663 173.97 65.4672C173.922 65.3666 173.874 65.2661 173.825 65.1625C173.308 65.0072 173.308 65.0072 172.831 65.2603C172.816 65.1087 172.801 64.9571 172.785 64.8008C172.005 64.7165 172.005 64.7165 171.294 64.9477C171.576 64.9773 171.576 64.9773 171.865 65.0075C172.484 65.1398 172.484 65.1398 172.754 65.4418C172.794 65.5336 172.834 65.6253 172.876 65.7198C172.226 65.9618 171.85 65.9698 171.204 65.7298C171.139 65.6341 171.074 65.5384 171.008 65.4398C170.685 65.5226 170.362 65.6055 170.029 65.6908C170.047 65.5934 170.065 65.4959 170.083 65.3955C170.147 65.0666 170.147 65.0666 170.104 64.7555C169.88 64.7265 169.657 64.6975 169.426 64.6676C169.3 65.1646 169.332 65.2939 169.532 65.7398C169.422 65.7505 169.313 65.7613 169.2 65.7724C169.22 65.9746 169.24 66.1767 169.261 66.385C168.594 66.4791 168.189 66.4748 167.574 66.2418C167.417 66.3338 167.417 66.3338 167.257 66.4276C166.268 66.5621 165.234 66.6532 164.273 66.3831C163.67 66.3023 163.391 66.3945 162.817 66.5748C161.994 66.8216 161.994 66.8216 161.491 66.5894C161.249 66.2893 161.019 65.9979 160.825 65.669C160.666 65.7357 160.507 65.8024 160.343 65.8711C160.423 66.1185 160.502 66.3658 160.584 66.6206C160.06 67.0193 159.919 67.0266 159.271 67.0556C159.107 67.0637 158.944 67.0719 158.775 67.0802C158.605 67.0871 158.434 67.0939 158.258 67.101C158.086 67.1092 157.913 67.1174 157.735 67.1258C157.309 67.1459 156.883 67.1644 156.457 67.1816C156.442 67.03 156.427 66.8783 156.412 66.7221C156.249 66.7418 156.085 66.7614 155.917 66.7817C155.705 66.8054 155.493 66.829 155.275 66.8534C155.063 66.8778 154.852 66.9021 154.635 66.9273C154.092 66.9505 154.092 66.9505 153.731 66.6768C153.646 66.9403 153.562 67.2038 153.475 67.4752C153.196 67.4516 152.918 67.428 152.631 67.4036C152.656 67.095 152.681 66.7863 152.706 66.4683C152.497 66.5909 152.289 66.7136 152.074 66.8399C151.944 66.6485 151.815 66.4571 151.682 66.2599C151.679 66.4037 151.676 66.5475 151.673 66.6957C151.607 67.1952 151.607 67.1952 151.449 67.5103C150.967 67.8268 150.54 67.7326 149.98 67.6646C149.915 67.5689 149.851 67.4732 149.784 67.3746C149.691 67.4156 149.599 67.4566 149.504 67.4989C149.052 67.6148 148.855 67.5325 148.443 67.3519C148.404 67.509 148.364 67.666 148.323 67.8278C147.676 67.9481 147.405 67.9649 146.822 67.6662C146.696 67.5766 146.57 67.4869 146.44 67.3945C146.46 67.5967 146.48 67.7989 146.5 68.0072C146.003 67.9732 145.563 67.9135 145.079 67.7992C144.453 67.7422 144.368 67.7502 143.868 68.0344C143.698 68.1277 143.528 68.221 143.352 68.3171C143.178 68.2322 143.004 68.1473 142.825 68.0597C142.815 67.9587 142.805 67.8576 142.795 67.7534C142.636 67.8201 142.477 67.8868 142.313 67.9555C141.836 67.7895 141.68 67.4971 141.394 67.1181C141.412 67.2631 141.429 67.408 141.448 67.5574C141.484 68.0371 141.484 68.0371 141.349 68.3597C140.961 68.3469 140.573 68.334 140.174 68.3207C140.164 68.2197 140.154 68.1186 140.144 68.0144C140.044 68.0745 139.944 68.1347 139.841 68.1967C139.168 68.4759 138.531 68.5238 137.805 68.5896C137.583 68.6113 137.583 68.6113 137.357 68.6335C137.044 68.6638 136.732 68.6933 136.42 68.7221C135.942 68.7663 135.465 68.813 134.987 68.86C134.684 68.8892 134.38 68.9182 134.076 68.947C133.934 68.9609 133.791 68.9748 133.644 68.9891C133.511 69.0012 133.377 69.0133 133.24 69.0259C133.123 69.0368 133.006 69.0477 132.886 69.0589C132.536 69.0717 132.218 69.0376 131.874 68.9832C131.884 69.0843 131.894 69.1854 131.904 69.2895C131.347 69.3637 131.347 69.3637 130.744 69.4037C130.625 69.3134 130.506 69.2231 130.383 69.13C130.201 69.1766 130.019 69.2232 129.832 69.2712C129.238 69.3974 129.238 69.3974 128.814 69.2361C128.53 69.0031 128.53 69.0031 128.5 68.6968C128.391 68.7076 128.281 68.7183 128.169 68.7294C128.129 68.8864 128.089 69.0434 128.048 69.2052C127.879 69.1708 127.71 69.1364 127.536 69.101C127.735 68.8773 127.934 68.6536 128.138 68.4231C127.901 68.4516 127.663 68.4857 127.427 68.5221C127.295 68.5405 127.162 68.5589 127.026 68.5779C126.616 68.6968 126.616 68.6968 126.462 69.1288C126.241 69.5378 126.241 69.5378 125.825 69.6935C124.237 69.9133 122.555 70.1175 120.955 69.9651C120.582 69.9045 120.582 69.9045 120.276 70.1251C119.938 70.1188 119.601 70.1119 119.264 70.0942C118.898 70.0835 118.898 70.0835 118.453 70.3045C118.061 70.3002 117.669 70.2881 117.278 70.2655C117.268 70.1644 117.258 70.0634 117.248 69.9592C117.081 70.0522 116.914 70.1452 116.742 70.2409C116.254 70.4928 115.87 70.6202 115.305 70.6145C115.245 70.5693 115.185 70.5241 115.124 70.4776C114.89 70.498 114.657 70.5293 114.425 70.5651C114.282 70.5866 114.139 70.6082 113.992 70.6304C113.842 70.6539 113.691 70.6774 113.536 70.7016C112.58 70.8483 111.63 70.9874 110.665 71.0712C110.586 70.8239 110.506 70.5765 110.424 70.3217C110.583 70.255 110.742 70.1883 110.906 70.1196C110.837 69.9733 110.767 69.8271 110.695 69.6764C110.086 69.905 109.652 70.0742 109.279 70.589C109.498 70.5675 109.717 70.546 109.942 70.5238C109.962 70.726 109.982 70.9281 110.003 71.1365C109.558 71.1845 109.113 71.2313 108.668 71.2775C108.543 71.2911 108.419 71.3047 108.29 71.3186C107.691 71.38 107.116 71.4211 106.515 71.3922C106.349 71.3865 106.182 71.3807 106.011 71.3748C105.961 71.4307 105.911 71.4866 105.86 71.5443C105.585 71.5777 105.308 71.6052 105.032 71.6258C105.042 71.7269 105.052 71.828 105.062 71.9322C104.009 72.112 104.009 72.112 103.468 71.7798C103.373 71.6871 103.277 71.5944 103.179 71.4989C103.219 71.3419 103.258 71.1849 103.299 71.0231C103.631 70.8842 103.631 70.8842 103.947 70.8047C103.51 70.8478 103.072 70.8908 102.622 70.9352C102.756 71.1772 102.89 71.4191 103.028 71.6684C102.547 72.0347 102.369 72.0894 101.783 72.1873C101.106 72.3063 100.442 72.4455 99.7748 72.6073C99.6505 72.4665 99.5262 72.3256 99.3982 72.1805C99.2807 72.2143 99.1633 72.2482 99.0423 72.2831C98.8913 72.3267 98.7404 72.3703 98.5848 72.4152C98.4611 72.4561 98.3375 72.4969 98.2101 72.5391C97.8234 72.6368 97.484 72.6829 97.0879 72.7172C96.457 72.7477 96.457 72.7477 95.9639 72.9825C95.5651 72.9293 95.1679 72.8662 94.7738 72.7904C94.8036 72.5323 94.8334 72.2742 94.8641 72.0082C94.0714 71.9672 93.3169 71.9624 92.5293 72.0834C92.4299 72.1953 92.3305 72.3071 92.2281 72.4224C92.2431 72.574 92.258 72.7257 92.2734 72.8819C91.5708 73.2746 91.5708 73.2746 91.0862 73.2501C90.9432 73.2163 90.9432 73.2163 90.7972 73.1819C90.7721 72.9266 90.7469 72.6713 90.7218 72.416C90.4484 72.443 90.175 72.4699 89.8933 72.4976C90.122 72.5772 90.3507 72.6567 90.5863 72.7387C90.5465 72.8957 90.5068 73.0527 90.4658 73.2145C90.2999 73.2281 90.2999 73.2281 90.1307 73.2421C89.1449 73.3301 88.1996 73.4678 87.2346 73.6836C86.7802 73.7325 86.5584 73.6377 86.1427 73.4855C85.5373 73.5932 85.5373 73.5932 84.9979 73.7528C85.0377 73.5958 85.0774 73.4388 85.1184 73.277C85.2097 73.2586 85.3011 73.2403 85.3952 73.2214C86.2335 73.052 87.0698 72.876 87.905 72.6934C87.2097 72.682 86.5331 72.6714 85.8404 72.7516C85.4045 72.7849 85.4045 72.7849 84.8773 72.5275C84.8922 72.6791 84.9072 72.8307 84.9225 72.987C84.167 73.1634 83.4114 73.3399 82.633 73.5217C83.135 73.5743 83.6371 73.627 84.1544 73.6812C84.1643 73.7823 84.1743 73.8834 84.1845 73.9875C83.7997 74.0779 83.4147 74.1672 83.0294 74.2559C82.8683 74.2939 82.8683 74.2939 82.704 74.3327C80.8042 74.7674 80.8042 74.7674 80.0422 74.3954C80.0223 74.1932 80.0024 73.991 79.9819 73.7827C80.5558 73.5347 81.0206 73.5646 81.6388 73.6196C81.6289 73.5185 81.6189 73.4174 81.6087 73.3132C81.3899 73.3348 81.1712 73.3563 80.9459 73.3785C80.921 73.1258 80.8961 72.873 80.8705 72.6126C80.786 72.8761 80.7015 73.1396 80.6145 73.4111C80.4701 73.4226 80.4701 73.4226 80.3227 73.4344C79.5663 73.5007 78.8763 73.6065 78.1442 73.809C77.8925 73.8684 77.6401 73.9253 77.3873 73.9801C77.267 74.0067 77.1467 74.0333 77.0227 74.0607C76.6505 74.1113 76.3562 74.0858 75.9902 74.021C76.0001 74.1221 76.0101 74.2232 76.0203 74.3274C76.2272 74.3261 76.4341 74.3249 76.6473 74.3236C77.178 74.3205 77.5676 74.3996 78.0539 74.5911C77.8541 74.715 77.6534 74.8376 77.4523 74.9596C77.3407 75.028 77.229 75.0964 77.114 75.1669C76.7887 75.3343 76.7887 75.3343 76.2916 75.3832C76.2816 75.2821 76.2717 75.181 76.2614 75.0769C76.0974 75.093 75.9333 75.1092 75.7643 75.1258C75.5641 74.68 75.533 74.5506 75.6588 74.0536C75.45 74.1763 75.2413 74.2989 75.0262 74.4252C75.0759 74.5096 75.1256 74.5941 75.1768 74.681C75.2522 75.0216 75.2522 75.0216 75.0178 75.4023C74.6497 75.6995 74.6497 75.6995 74.2543 75.7191C74.0325 75.6739 74.0325 75.6739 73.8062 75.6279C73.6198 75.592 73.4333 75.5561 73.2413 75.5192C73.0139 75.4698 73.0139 75.4698 72.7818 75.4194C72.7719 75.3183 72.7619 75.2173 72.7517 75.1131C72.4336 75.2465 72.1154 75.3799 71.7877 75.5173C71.8225 75.3097 71.8572 75.1022 71.8931 74.8883C72.2659 74.7496 72.6387 74.6108 73.0228 74.4678C72.8537 74.4334 72.6847 74.399 72.5106 74.3636C72.4857 74.1109 72.4608 73.8581 72.4352 73.5978C72.2165 73.6193 71.9978 73.6408 71.7724 73.663C71.771 73.8067 71.771 73.8067 71.7696 73.9532C71.6671 74.292 71.6671 74.292 71.2613 74.5252C71.1318 74.5763 71.0022 74.6273 70.8687 74.6799C71.0974 74.7594 71.3261 74.839 71.5617 74.921C71.5288 75.2238 71.5288 75.2238 71.4563 75.5499C70.9764 75.8318 70.4993 75.8191 69.9406 75.8731C69.7245 75.8948 69.5084 75.9165 69.2857 75.9388C68.7254 75.9757 68.2026 75.9702 67.6454 75.9251C67.6304 75.7735 67.6155 75.6219 67.6001 75.4656C67.8685 75.3882 68.137 75.3107 68.4135 75.2309C68.4035 75.1298 68.3936 75.0287 68.3833 74.9246C68.2799 74.9603 68.1764 74.996 68.0699 75.0328C67.4107 75.1996 66.7563 75.2518 66.0787 75.3061C66.193 75.3459 66.3074 75.3857 66.4252 75.4266C66.3386 76.0344 66.3386 76.0344 66.1692 76.2251C65.8559 76.2632 65.5414 76.2927 65.2268 76.3179C64.5248 76.3807 63.876 76.4628 63.2018 76.6719C63.2316 76.4138 63.2614 76.1557 63.2921 75.8897C63.6202 75.8575 63.9482 75.8252 64.2862 75.7919C62.421 75.5491 60.6481 75.8722 58.8033 76.177C58.8132 76.2781 58.8232 76.3792 58.8334 76.4834C58.9925 76.4167 59.1516 76.35 59.3154 76.2812C59.6845 76.3126 59.6845 76.3126 59.9933 76.3692C60.0082 76.5208 60.0232 76.6724 60.0385 76.8287C59.8397 76.8419 59.6409 76.8551 59.436 76.8686C58.9299 76.9143 58.6658 76.9805 58.1924 77.1941C57.749 77.3634 57.749 77.3634 57.3366 77.2107C57.041 76.9691 57.041 76.9691 57.0108 76.6628C57.4433 76.5692 57.8757 76.4756 58.3213 76.3791C58.148 76.3708 58.148 76.3708 57.9713 76.3622C57.8196 76.3526 57.6679 76.3431 57.5116 76.3332C57.2862 76.3204 57.2862 76.3204 57.0562 76.3073C56.603 76.2306 56.4126 76.1207 56.0919 75.8254C56.0639 75.927 56.036 76.0286 56.0072 76.1333C55.9457 76.2446 55.8842 76.356 55.8208 76.4706C55.5524 76.5481 55.284 76.6256 55.0074 76.7054C55.6139 76.6967 56.2203 76.688 56.8451 76.6791C56.7247 77.1549 56.7247 77.1549 56.3812 77.37C55.8797 77.5605 55.4518 77.6307 54.9153 77.681C54.744 77.6987 54.5728 77.7163 54.3964 77.7345C53.938 77.7386 53.938 77.7386 53.4108 77.4812C53.4953 77.2177 53.5798 76.9542 53.6668 76.6827C52.8729 76.5882 52.4057 76.6822 51.6935 77.0316C51.8268 77.1238 51.8268 77.1238 51.9628 77.2178C52.2359 77.4422 52.2359 77.4422 52.266 77.7485C51.885 77.8409 51.5039 77.9299 51.1212 78.0159C50.926 78.0599 50.926 78.0599 50.7268 78.1048C50.0537 78.2467 49.4362 78.3513 48.7469 78.3269C48.1974 78.3112 47.9769 78.3402 47.4911 78.5279C46.6095 78.6664 46.6095 78.6664 46.1391 78.4967C45.6833 78.3444 45.4335 78.4495 44.9906 78.6194C44.9409 78.6754 44.8912 78.7313 44.84 78.7889C44.3173 78.8444 43.7959 78.8872 43.2717 78.9237C42.6465 78.9756 42.3891 79.0073 41.8877 79.3889C41.5597 79.423 41.5597 79.423 41.1891 79.4093C40.9874 79.4041 40.9874 79.4041 40.7816 79.3987C40.5835 79.3907 40.5835 79.3907 40.3813 79.3825C39.3941 79.3456 38.4743 79.4109 37.4917 79.5371C37.0524 79.5556 37.0524 79.5556 36.5251 79.2982C36.5649 79.1412 36.6047 78.9842 36.6456 78.8224C36.4865 78.8891 36.3275 78.9558 36.1636 79.0245C36.0725 79.3451 36.0725 79.3451 36.0582 79.6535C35.8677 79.6704 35.6773 79.6874 35.481 79.7049C34.2758 79.8159 33.0842 79.9311 31.8933 80.1505C31.1507 80.2863 30.5106 80.3552 29.7619 80.2733C29.5811 80.1365 29.5811 80.1365 29.5227 79.7556C29.5057 79.3707 29.5057 79.3707 29.6563 79.2012C28.2291 79.2924 28.2291 79.2924 26.8546 79.6317C26.7602 79.7941 26.6658 79.9565 26.5685 80.1238C26.4044 80.1399 26.2404 80.1561 26.0714 80.1727C25.885 79.9614 25.885 79.9614 25.6948 79.7459C25.7196 79.9986 25.7445 80.2513 25.7702 80.5117C25.11 80.7442 24.5933 80.7566 23.8967 80.7058C23.6267 80.6872 23.6267 80.6872 23.3512 80.6683C23.215 80.6576 23.0787 80.6469 22.9383 80.6358C22.804 80.1132 22.804 80.1132 22.667 79.58C22.2843 79.6177 21.9015 79.6553 21.5072 79.6942C21.6504 79.7471 21.7936 79.7999 21.9412 79.8544C22.0863 79.9263 22.2314 79.9981 22.3809 80.0721C22.3958 80.2237 22.4107 80.3754 22.4261 80.5316C21.5287 80.7876 20.8075 80.8118 19.8833 80.724C19.7628 80.7143 19.6422 80.7046 19.518 80.6947C18.6427 80.6205 18.6427 80.6205 18.2386 80.4799C18.2286 80.3788 18.2186 80.2777 18.2084 80.1736C18.0267 80.2202 17.8449 80.2668 17.6577 80.3148C17.0636 80.4409 17.0636 80.4409 16.7172 80.3204C16.7271 80.4215 16.7371 80.5226 16.7473 80.6267C15.975 80.7737 15.6051 80.6617 14.921 80.3438C14.3957 80.1845 13.9122 80.1922 13.358 80.1872C12.1029 80.1736 12.1029 80.1736 11.5212 79.904C10.9846 79.6596 10.7318 79.6198 10.1524 79.5942C9.76341 79.5666 9.76341 79.5666 9.44154 79.4902C9.16754 79.0435 9.16754 79.0435 9.01968 78.6038C8.85067 78.5694 8.68166 78.535 8.50752 78.4996C8.30979 78.1904 8.30979 78.1904 8.10074 77.7664C7.97116 77.5543 7.97116 77.5543 7.83897 77.3379C7.52059 76.7955 7.22451 76.2429 6.93407 75.6871C6.8418 75.5122 6.74953 75.3373 6.65446 75.1571C6.37922 74.4874 6.37922 74.4874 6.56391 74.0514C7.05249 73.81 7.05249 73.81 7.52791 73.6472C7.54278 73.2375 7.55765 72.8277 7.57297 72.4056C7.73203 72.3389 7.89109 72.2722 8.05497 72.2035C7.92473 71.4407 7.92473 71.4407 7.42218 70.8739C7.38866 70.5534 7.38866 70.5534 7.4061 70.1796C7.41057 70.0563 7.41504 69.9331 7.41965 69.8061C7.45216 69.4791 7.45216 69.4791 7.58769 69.1565C7.62164 68.8961 7.65218 68.6354 7.67799 68.3743C8.01127 68.4672 8.01127 68.4672 8.37092 68.6154C8.47533 68.8348 8.47533 68.8348 8.58185 69.0586C8.53713 69.1651 8.4924 69.2715 8.44632 69.3812C8.55568 69.3705 8.66503 69.3597 8.7777 69.3486C8.76775 69.2475 8.7578 69.1464 8.74755 69.0423C8.8569 69.0315 8.96626 69.0207 9.07893 69.0096C8.86563 68.6252 8.74845 68.4555 8.31628 68.2728C8.21003 68.245 8.10377 68.2172 7.9943 68.1885C7.98435 68.0874 7.97439 67.9863 7.96414 67.8822C8.06852 67.8209 8.1729 67.7596 8.28045 67.6964C8.15647 67.276 8.02374 66.92 7.80019 66.5355C7.55026 65.8857 7.67324 65.4774 7.82825 64.8026C7.32619 64.7499 6.82413 64.6973 6.30685 64.643C6.22729 64.3957 6.14773 64.1484 6.06576 63.8935C6.3292 63.7655 6.59264 63.6375 6.86407 63.5056C7.00637 63.6192 7.14867 63.7328 7.29529 63.8498C7.71129 64.231 7.71129 64.231 8.09932 64.1573C8.40924 63.6243 8.41179 63.57 8.26019 63.0299C8.20704 62.8405 8.1539 62.6512 8.09914 62.4561C7.93013 62.4217 7.76112 62.3873 7.58698 62.3519C7.34231 61.9716 7.16226 61.581 6.96927 61.1755C6.6909 61.1519 6.41253 61.1283 6.12572 61.1039C5.99389 60.8269 5.99389 60.8269 5.89971 60.5076C6.20094 60.1686 6.20094 60.1686 6.634 60.1066C6.76448 60.1002 6.89497 60.0937 7.02941 60.087C7.15867 60.2785 7.28793 60.4699 7.42111 60.6671C7.58017 60.6004 7.73923 60.5337 7.90311 60.465C7.97351 60.0161 7.97351 60.0161 7.97833 59.5297C7.85404 59.3888 7.72976 59.2479 7.60171 59.1028C7.58718 58.6286 7.58796 58.2981 7.86696 57.8885C8.19421 57.6017 8.35062 57.5919 8.79236 57.5822C8.98183 57.5763 8.98183 57.5763 9.17512 57.5702C9.3064 57.5686 9.43768 57.5669 9.57294 57.5652C9.70597 57.5616 9.839 57.5579 9.97606 57.5542C10.3042 57.5456 10.6324 57.54 10.9606 57.5349C10.974 57.2797 10.974 57.2797 10.9876 57.0194C11.014 56.5644 11.0531 56.1169 11.1111 55.6643C10.8924 55.6858 10.6736 55.7074 10.4483 55.7295C10.5983 55.1369 10.8216 55.0452 11.352 54.7127C11.2981 54.6171 11.2443 54.5215 11.1888 54.4231C10.8085 53.7435 10.4382 53.0662 10.1166 52.3599C9.99879 52.3751 9.88103 52.3903 9.75969 52.4059C8.41698 52.5617 8.41698 52.5617 7.70833 52.4327C7.07358 52.3429 6.71957 52.4143 6.09941 52.5524C5.19756 52.7345 5.19756 52.7345 4.59872 52.3908C4.41463 52.2032 4.41463 52.2032 4.22681 52.0118C4.10285 51.9794 3.97888 51.9469 3.85116 51.9135C3.53388 51.7707 3.53388 51.7707 3.32765 51.2691C3.05493 50.6333 2.85145 50.5101 2.20815 50.2001C2.02205 50.1323 1.83595 50.0645 1.6442 49.9947C1.11221 49.6592 1.0688 49.5993 0.934251 49.0497C0.781203 47.9672 0.762114 47.2701 1.34349 46.303C1.82687 45.4588 1.72048 44.9111 1.43923 44.0227C1.42432 43.8932 1.40941 43.7637 1.39405 43.6303C1.69411 43.3525 1.69411 43.3525 2.01159 43.1055C1.98681 42.7991 1.96049 42.4923 1.91152 42.1887C1.88168 41.7411 2.06308 41.4435 2.31264 41.0654C2.07637 41.0313 2.07637 41.0313 1.83532 40.9964C1.25324 40.848 1.04136 40.7651 0.730925 40.2933C0.741237 39.867 0.741237 39.867 0.821223 39.5111C0.978109 39.4574 1.135 39.4037 1.29664 39.3483C1.45787 39.2687 1.61911 39.189 1.78522 39.1069C1.8944 38.7997 1.8944 38.7997 1.8906 38.4779C1.98503 38.3155 2.07946 38.1531 2.17675 37.9858C1.96448 37.3972 1.69968 36.9472 1.19749 36.5357C1.02848 36.5013 0.859466 36.4669 0.685332 36.4315C0.681093 35.6843 0.975364 35.3366 1.5287 34.802C1.76729 34.7019 1.76729 34.7019 2.0107 34.5998C2.00075 34.4988 1.9908 34.3977 1.98054 34.2935C1.64749 34.2753 1.31445 34.257 0.971304 34.2382C0.901697 34.092 0.832089 33.9457 0.760373 33.795C0.85264 33.7509 0.944907 33.7067 1.03997 33.6612C1.48185 33.3636 1.70164 33.0226 1.98037 32.5924C1.75232 32.2332 1.58001 32.0058 1.22712 31.7386C1.22708 31.4197 1.22708 31.4197 1.33249 31.1097C1.57108 31.0096 1.57108 31.0096 1.8145 30.9076C1.92883 30.9473 2.04316 30.9871 2.16096 31.0281C2.00825 30.5656 2.00825 30.5656 1.62957 30.4697C1.50479 30.4443 1.38001 30.4189 1.25145 30.3927C1.12613 30.3662 1.00081 30.3396 0.871689 30.3123C0.775182 30.2937 0.678676 30.2751 0.579245 30.2559C0.534576 29.6839 0.509588 29.1272 0.579067 28.5548C0.935845 28.249 0.935845 28.249 1.3623 28.0137C1.44026 27.8242 1.51822 27.6347 1.59854 27.4395C1.76562 27.0605 1.86005 26.9097 2.24277 26.6947C2.84531 26.489 3.22218 26.3881 3.85458 26.5279C4.77097 26.7006 5.65774 26.5653 6.5853 26.4749C6.8742 26.4522 6.8742 26.4522 7.16893 26.429C8.36928 26.3146 9.30669 26.0588 10.3917 25.5613C10.8873 25.348 11.3183 25.2731 11.8601 25.25C12.3495 25.225 12.7718 25.1931 13.2456 25.068C14.1851 24.8332 15.1468 24.7594 16.1098 24.6577C16.3206 24.6325 16.5314 24.6072 16.7485 24.5812C17.0524 24.5493 17.0524 24.5493 17.3624 24.5168C17.5467 24.4964 17.7311 24.476 17.921 24.455C18.5251 24.4847 18.6942 24.6699 19.1366 25.0266C19.3553 25.0051 19.574 24.9836 19.7993 24.9614C19.8468 24.8132 19.8468 24.8132 19.8953 24.662C20.1066 24.2445 20.2664 24.1553 20.703 23.9445C21.0566 23.8849 21.0566 23.8849 21.427 23.8636C22.0362 23.8177 22.5863 23.719 23.1733 23.5467C23.1485 23.2939 23.1236 23.0412 23.0979 22.7808C23.2294 22.7488 23.3608 22.7167 23.4962 22.6836C23.6332 22.6382 23.7702 22.5929 23.9113 22.5461C23.9561 22.4396 24.0008 22.3332 24.0469 22.2235C23.9375 22.2342 23.8281 22.245 23.7155 22.2561C23.7055 22.155 23.6956 22.0539 23.6853 21.9497C23.2942 21.9294 22.9023 21.9166 22.5104 21.9108C22.4607 21.9667 22.411 22.0226 22.3598 22.0802C21.7713 22.1627 21.2699 22.1744 20.6878 22.0902C20.469 22.1117 20.2503 22.1333 20.025 22.1555C20.0101 22.0038 19.9951 21.8522 19.9797 21.696C18.7345 21.6654 18.7345 21.6654 17.4642 21.6343C17.4195 21.7408 17.3747 21.8473 17.3286 21.957C17.2404 21.9369 17.1522 21.9169 17.0613 21.8963C16.4872 21.8582 16.0499 21.9579 15.506 22.1364C15.3451 22.4564 15.3451 22.4564 15.235 22.7817C14.6216 23.076 14.0089 23.0233 13.3417 23.0073C12.713 23.0114 12.0963 23.0872 11.4722 23.1618C11.0926 23.1895 11.0926 23.1895 10.7462 23.069C10.7254 22.6457 10.7254 22.6457 10.8214 22.1336C11.4913 21.5123 12.0651 21.2923 12.9791 21.1093C13.0939 21.0862 13.2087 21.063 13.327 21.0391C14.2491 20.8611 15.1703 20.7618 16.1069 20.6854C16.7417 20.6229 17.3645 20.521 17.9922 20.4128C19.3264 20.1866 20.6473 20.1303 21.998 20.1054C21.9448 20.5781 21.8855 21.0471 21.8024 21.5165C22.1304 21.4842 22.4585 21.4519 22.7965 21.4186C22.7335 21.3387 22.6704 21.2588 22.6054 21.1765C22.3786 20.7944 22.346 20.5072 22.3294 20.0728C23.2917 19.6618 24.2205 19.5126 25.262 19.3781C25.4221 19.3564 25.5823 19.3346 25.7473 19.3122C26.1392 19.2592 26.5313 19.2073 26.9236 19.1565C26.9634 18.9995 27.0031 18.8425 27.0441 18.6807C26.7011 18.5614 26.7011 18.5614 26.3511 18.4396C26.3412 18.3385 26.3312 18.2375 26.321 18.1333C26.4679 18.1095 26.6148 18.0856 26.7661 18.0611C27.0551 18.0132 27.0551 18.0132 27.35 17.9643C27.541 17.933 27.732 17.9016 27.9288 17.8693C28.4301 17.7872 28.4301 17.7872 28.7753 17.6579C29.1163 17.5468 29.4172 17.4992 29.7749 17.4634C29.96 17.4449 29.96 17.4449 30.1489 17.426C30.3399 17.4081 30.3399 17.4081 30.5348 17.3898C30.6634 17.3766 30.7919 17.3633 30.9243 17.3497C31.8805 17.2571 31.8805 17.2571 32.2709 17.3929C32.4131 17.7752 32.4131 17.7752 32.512 18.1424C32.1927 18.1638 31.8735 18.1851 31.5543 18.2065C31.1123 18.2863 30.7783 18.4535 30.3881 18.6608C30.701 18.6164 31.0135 18.5689 31.3258 18.5202C31.4998 18.4941 31.6739 18.4679 31.8532 18.441C32.3688 18.3427 32.3688 18.3427 32.7389 18.0379C33.2913 17.6742 33.7388 17.6668 34.4052 17.6177C34.7319 17.5918 34.7319 17.5918 35.0653 17.5654C35.2516 17.5525 35.438 17.5395 35.63 17.5261C36.1202 17.4945 36.1202 17.4945 36.5432 17.3492C36.9404 17.2425 36.9404 17.2425 37.2869 17.363C37.2415 17.2176 37.1962 17.0721 37.1494 16.9223C37.0907 16.6936 37.0907 16.6936 37.0307 16.4603C37.4239 16.0179 38.3931 16.0139 38.9654 15.9316C40.0266 15.8405 41.0212 16.0024 42.0317 16.2773C42.1957 16.2611 42.3598 16.245 42.5288 16.2283C42.6481 16.3187 42.7674 16.409 42.8903 16.5021C42.9997 16.4913 43.109 16.4805 43.2217 16.4694C43.2615 16.3124 43.3012 16.1554 43.3422 15.9936C43.8301 15.8889 44.3183 15.7864 44.807 15.6851C44.9431 15.6556 45.0792 15.6262 45.2194 15.5959C46.4442 15.3449 47.6086 15.2581 48.8289 15.5404C48.9579 15.5694 49.0869 15.5984 49.2198 15.6282C49.36 15.662 49.36 15.662 49.503 15.6964C49.4582 15.8029 49.4135 15.9093 49.3674 16.019C49.2034 16.0352 49.0394 16.0513 48.8704 16.068C48.8853 16.2196 48.9002 16.3712 48.9156 16.5275C49.0077 16.5166 49.0998 16.5057 49.1947 16.4946C49.9247 16.4146 50.6163 16.3827 51.3506 16.4086C52.0789 16.3989 52.8012 16.3018 53.5245 16.2187C54.0094 16.1796 54.4305 16.2017 54.9107 16.2465C55.1684 16.1849 55.4259 16.1224 55.682 16.0552C56.3675 15.9157 57.0669 15.8774 57.7639 15.8207C58.2222 15.7683 58.6357 15.6986 59.0825 15.5996C59.8965 15.4269 60.695 15.3835 61.5253 15.3537C61.7416 15.3445 61.7416 15.3445 61.9623 15.3351C62.313 15.3204 62.6638 15.3071 63.0146 15.2941C62.95 15.1984 62.8854 15.1027 62.8188 15.004C62.4111 14.9909 62.024 14.9957 61.6175 15.016C61.3985 15.0242 61.1796 15.0324 60.954 15.0408C60.3804 15.0902 59.89 15.1937 59.3392 15.3466C58.6766 15.352 58.1934 15.1985 57.622 14.8971C57.612 14.796 57.602 14.6949 57.5918 14.5907C58.6239 14.3633 59.6326 14.2315 60.6844 14.1413C61.8369 14.0414 62.8958 13.8528 64.0111 13.5474C64.5468 13.4377 64.9715 13.4703 65.5149 13.5014C65.9613 13.4402 66.4002 13.3713 66.8433 13.2933C67.9927 13.1027 69.1186 13.0089 70.2824 12.9644C71.2301 12.9266 72.0928 12.8739 73.0078 12.6091C74.2199 12.2599 75.4546 12.2405 76.7099 12.1875C76.8764 12.1802 77.043 12.1729 77.2146 12.1653C77.4388 12.1571 77.4388 12.1571 77.6675 12.1488C78.1087 12.107 78.4831 11.9975 78.9059 11.8738C79.3501 11.8674 79.7825 11.8712 80.2249 11.8889C81.7004 12.0034 81.7004 12.0034 83.0633 11.6191C83.3924 11.5867 83.7214 11.5547 84.0509 11.5267C84.4539 11.4813 84.8201 11.3828 85.2023 11.2539C85.1874 11.1023 85.1724 10.9506 85.157 10.7944ZM39.7421 16.812C40.42 16.8999 40.42 16.8999 40.42 16.8999L39.7421 16.812ZM28.1587 18.107C28.1686 18.2081 28.1786 18.3092 28.1888 18.4134C28.2932 18.3521 28.3976 18.2907 28.5052 18.2276C28.3908 18.1878 28.2765 18.148 28.1587 18.107ZM42.6042 16.9942C42.6738 17.1404 42.7434 17.2867 42.8151 17.4374C42.9245 17.4266 43.0338 17.4158 43.1465 17.4047C43.0769 17.2585 43.0073 17.1122 42.9356 16.9616C42.8262 16.9723 42.7168 16.9831 42.6042 16.9942ZM66.9611 14.5962C66.8617 14.7081 66.7623 14.8199 66.6599 14.9352C67.1057 15.0352 67.2807 15.0518 67.6964 14.8428C67.7868 14.7797 67.8772 14.7166 67.9703 14.6515C67.4795 14.595 67.4795 14.595 66.9611 14.5962ZM28.8516 18.3481C28.695 18.4401 28.695 18.4401 28.5353 18.5339C28.5502 18.6855 28.5652 18.8372 28.5805 18.9934C28.7446 18.9773 28.9086 18.9611 29.0776 18.9445C29.003 18.7477 28.9285 18.5509 28.8516 18.3481ZM36.3229 17.7672C36.3329 17.8683 36.3428 17.9694 36.3531 18.0735C36.6265 18.0466 36.8998 18.0197 37.1815 17.992C37.1716 17.8909 37.1616 17.7898 37.1514 17.6857C36.878 17.7126 36.6046 17.7395 36.3229 17.7672ZM64.9879 14.9452C64.8885 15.057 64.7891 15.1689 64.6866 15.2841C64.8507 15.268 65.0147 15.2518 65.1837 15.2352C65.1191 15.1395 65.0545 15.0438 64.9879 14.9452ZM66.5243 15.2578C66.5343 15.3589 66.5442 15.46 66.5545 15.5642C66.6639 15.5534 66.7732 15.5426 66.8859 15.5315C66.8759 15.4305 66.866 15.3294 66.8557 15.2252C66.7464 15.236 66.637 15.2467 66.5243 15.2578ZM58.2547 16.2266C58.2697 16.3783 58.2846 16.5299 58.3 16.6861C58.3994 16.5743 58.4988 16.4624 58.6012 16.3472C58.4869 16.3074 58.3725 16.2676 58.2547 16.2266ZM49.8195 17.2117C49.8543 17.5126 49.8543 17.5126 50.0455 17.8081C50.5616 17.959 50.5616 17.959 51.0698 18.0165C51.1145 17.9101 51.1592 17.8036 51.2053 17.6939C51.091 17.6541 50.9767 17.6143 50.8589 17.5734C50.7893 17.4271 50.7196 17.2809 50.6479 17.1302C50.3745 17.1571 50.1011 17.184 49.8195 17.2117ZM48.0421 17.8507C48.1067 17.9464 48.1713 18.0421 48.2379 18.1407C48.3423 18.0794 48.4467 18.0181 48.5542 17.9549C48.3852 17.9205 48.2162 17.8861 48.0421 17.8507ZM54.8562 17.3925C54.6856 17.6553 54.6856 17.6553 54.7452 17.964C54.5215 17.935 54.2978 17.906 54.0674 17.8761C54.3477 18.1835 54.3477 18.1835 54.7904 18.4235C55.7535 18.4178 56.5184 18.1886 57.4114 17.8562C57.3318 17.6088 57.2523 17.3615 57.1703 17.1066C56.4277 16.9555 55.46 16.9197 54.8562 17.3925ZM58.3151 16.8393C58.3847 16.9855 58.4543 17.1318 58.526 17.2825C58.4166 17.2932 58.3073 17.304 58.1946 17.3151C58.2046 17.4162 58.2145 17.5173 58.2248 17.6214C59.2334 17.7272 60.2172 17.5936 61.2223 17.481C61.2074 17.3293 61.1925 17.1777 61.1771 17.0215C60.1661 16.651 59.3897 16.6787 58.3151 16.8393ZM43.5683 18.2911C43.4118 18.3831 43.4118 18.3831 43.252 18.4769C43.262 18.578 43.2719 18.6791 43.2822 18.7832C43.5506 18.7058 43.819 18.6283 44.0956 18.5485C43.9216 18.4636 43.7476 18.3786 43.5683 18.2911ZM57.336 17.0903C58.0138 17.1782 58.0138 17.1782 58.0138 17.1782L57.336 17.0903ZM64.6265 16.3726C64.5867 16.5296 64.547 16.6866 64.506 16.8484C64.7198 16.7763 64.9335 16.7042 65.1537 16.63C65.1438 16.5289 65.1338 16.4278 65.1236 16.3236C64.9595 16.3398 64.7955 16.3559 64.6265 16.3726ZM21.1098 24.6777C21.3832 24.6508 21.6566 24.6239 21.9383 24.5962C21.9283 24.4951 21.9184 24.394 21.9081 24.2898C21.5203 24.2994 21.5203 24.2994 21.1098 24.6777ZM109.807 69.1453C109.762 69.2518 109.717 69.3582 109.671 69.4679C109.835 69.4518 109.999 69.4356 110.168 69.419C110.158 69.3179 110.148 69.2168 110.138 69.1127C110.029 69.1234 109.919 69.1342 109.807 69.1453ZM114.838 69.2686C114.584 69.5936 114.584 69.5936 114.401 69.9302C114.62 69.9087 114.838 69.8871 115.064 69.8649C115.45 69.8269 115.837 69.7888 116.224 69.7507C115.597 69.3103 115.597 69.3103 114.838 69.2686ZM123.65 68.7104C123.871 69.0116 123.871 69.0116 124.207 69.2741C124.63 69.3071 124.63 69.3071 125.07 69.2277C125.219 69.2075 125.368 69.1873 125.521 69.1665C125.634 69.1481 125.747 69.1298 125.864 69.111C125.953 68.898 126.043 68.6851 126.135 68.4657C125.237 67.8566 124.552 68.2911 123.65 68.7104ZM129.931 67.9373C129.951 68.1395 129.971 68.3417 129.991 68.55C130.437 68.65 130.612 68.6666 131.028 68.4576C131.118 68.3945 131.208 68.3313 131.302 68.2663C130.838 67.9152 130.522 67.9502 129.931 67.9373ZM140.37 66.9096C140.434 67.0053 140.499 67.101 140.565 67.1996C140.61 67.0932 140.655 66.9867 140.701 66.877C140.592 66.8878 140.482 66.8985 140.37 66.9096ZM98.66 71.4799C98.7246 71.5756 98.7893 71.6713 98.8559 71.7699C99.0003 71.7302 99.1448 71.6904 99.2936 71.6495C99.7591 71.5372 100.187 71.4712 100.663 71.4373C100.653 71.3362 100.644 71.2351 100.633 71.131C100.392 71.1203 100.151 71.1123 99.9093 71.1056C99.7749 71.1009 99.6405 71.0962 99.502 71.0913C99.0761 71.0963 99.0761 71.0963 98.66 71.4799ZM113.693 69.5359C113.536 69.6279 113.536 69.6279 113.377 69.7217C113.391 69.8734 113.406 70.025 113.422 70.1812C113.685 70.0532 113.949 69.9252 114.22 69.7933C114.046 69.7084 113.872 69.6235 113.693 69.5359ZM120.998 68.9714C121.003 69.0219 121.008 69.0724 121.014 69.1245C121.288 69.1309 121.288 69.1309 121.569 69.1375C122.188 69.1635 122.188 69.1635 122.701 69.2677C123.047 69.0984 123.047 69.0984 123.333 68.8961C123.328 68.8456 123.323 68.7951 123.318 68.743C122.553 68.8183 121.787 68.8937 120.998 68.9714ZM144.196 66.6876C144.039 66.7796 144.039 66.7796 143.879 66.8734C143.889 66.9745 143.899 67.0756 143.909 67.1797C144.118 67.0571 144.327 66.9345 144.542 66.8081C144.428 66.7684 144.313 66.7286 144.196 66.6876ZM195.395 61.647C195.35 61.7535 195.305 61.86 195.259 61.9697C195.423 61.9535 195.587 61.9374 195.756 61.9207C195.746 61.8196 195.736 61.7186 195.726 61.6144C195.617 61.6252 195.507 61.6359 195.395 61.647ZM89.2004 72.2565C89.2104 72.3576 89.2203 72.4587 89.2306 72.5629C89.3896 72.4962 89.5487 72.4295 89.7126 72.3607C89.5436 72.3264 89.3745 72.292 89.2004 72.2565ZM101.13 71.082C101.195 71.1777 101.26 71.2734 101.326 71.372C101.595 71.2946 101.863 71.2171 102.14 71.1373C102.075 71.0416 102.01 70.9459 101.944 70.8473C101.576 70.8672 101.576 70.8672 101.13 71.082ZM107.592 70.4458C107.771 70.5813 107.95 70.7168 108.135 70.8564C108.294 70.7897 108.453 70.723 108.617 70.6543C108.607 70.5532 108.597 70.4521 108.587 70.348C108.258 70.3803 107.93 70.4126 107.592 70.4458ZM135.76 67.6727C135.825 67.7684 135.89 67.8641 135.956 67.9627C136.115 67.896 136.274 67.8293 136.438 67.7606C136.214 67.7316 135.991 67.7026 135.76 67.6727ZM142.057 67.0528C142.067 67.1539 142.077 67.255 142.087 67.3592C142.246 67.2925 142.405 67.2258 142.569 67.1571C142.4 67.1227 142.231 67.0883 142.057 67.0528ZM69.513 74.504C69.4733 74.6611 69.4335 74.8181 69.3926 74.9799C69.7753 74.9422 70.1581 74.9045 70.5524 74.8657C70.4452 74.8284 70.3381 74.7911 70.2276 74.7527C69.9894 74.6698 69.7512 74.5869 69.513 74.504ZM157.014 66.0442C157.134 66.1345 157.253 66.2248 157.376 66.3179C157.366 66.2168 157.356 66.1157 157.346 66.0116C157.236 66.0223 157.127 66.0331 157.014 66.0442ZM189.837 62.9675C189.842 63.018 189.847 63.0686 189.852 63.1207C190.125 63.0937 190.398 63.0668 190.68 63.0391C190.675 62.9885 190.67 62.938 190.665 62.8859C190.392 62.9128 190.118 62.9398 189.837 62.9675ZM194.973 62.4618C194.983 62.5629 194.993 62.664 195.003 62.7681C195.222 62.7466 195.441 62.7251 195.666 62.7029C195.656 62.6018 195.646 62.5007 195.636 62.3965C195.417 62.4181 195.198 62.4396 194.973 62.4618ZM196.675 62.7582C197.221 63.0553 197.454 63.1539 198.093 63.0342C198.308 62.9604 198.308 62.9604 198.528 62.8851C198.563 62.6775 198.598 62.4699 198.633 62.2561C198.363 62.2743 198.094 62.2949 197.824 62.3165C197.674 62.3277 197.523 62.3389 197.368 62.3504C196.942 62.385 196.942 62.385 196.675 62.7582ZM32.5033 79.2302C33.5189 79.2688 34.4901 79.2067 35.5008 79.0897C35.4909 78.9887 35.4809 78.8876 35.4707 78.7834C33.8486 78.5073 33.8486 78.5073 32.5033 79.2302ZM47.5361 77.2863C47.4467 77.4992 47.3572 77.7122 47.2651 77.9316C47.4403 77.8888 47.6155 77.846 47.796 77.802C48.7086 77.6021 49.6335 77.5307 50.5639 77.4521C50.4992 77.3564 50.4346 77.2607 50.368 77.1621C49.4335 77.2031 48.499 77.2441 47.5361 77.2863ZM40.1101 78.3267C40.12 78.4278 40.13 78.5288 40.1402 78.633C40.3093 78.6674 40.4783 78.7018 40.6524 78.7372C40.6872 78.5297 40.722 78.3221 40.7578 78.1083C40.4118 78.1193 40.4118 78.1193 40.1101 78.3267ZM41.2549 78.0593C41.3195 78.155 41.3841 78.2507 41.4507 78.3493C42.0791 78.3268 42.7073 78.299 43.3355 78.2701C43.6035 78.2606 43.6035 78.2606 43.877 78.2509C44.0482 78.2425 44.2193 78.2342 44.3957 78.2255C44.6326 78.2156 44.6326 78.2156 44.8742 78.2054C45.3485 78.1541 45.3485 78.1541 45.7286 77.6189C44.2523 77.7642 42.7759 77.9096 41.2549 78.0593ZM202.806 62.1546C202.816 62.2557 202.826 62.3568 202.836 62.4609C202.94 62.3996 203.045 62.3383 203.152 62.2752C203.038 62.2354 202.924 62.1956 202.806 62.1546ZM46.3914 77.5536C46.0782 77.7376 46.0782 77.7376 45.7587 77.9252C45.9278 77.9596 46.0968 77.994 46.2709 78.0294C46.3753 77.9681 46.4797 77.9068 46.5872 77.8436C46.5226 77.7479 46.4579 77.6522 46.3914 77.5536ZM194.898 63.3971C194.853 63.5036 194.808 63.6101 194.762 63.7198C194.926 63.7036 195.09 63.6875 195.259 63.6708C195.25 63.5697 195.24 63.4686 195.229 63.3645C195.12 63.3752 195.011 63.386 194.898 63.3971ZM214.977 61.7296C214.987 61.8307 214.997 61.9318 215.007 62.036C215.116 62.0252 215.226 62.0144 215.339 62.0033C215.329 61.9022 215.319 61.8012 215.308 61.697C215.199 61.7078 215.09 61.7185 214.977 61.7296ZM221.138 61.4324C221.158 61.6346 221.178 61.8367 221.198 62.0451C221.765 61.9127 221.765 61.9127 222.343 61.7777C222.333 61.6766 222.323 61.5755 222.313 61.4714C221.925 61.4585 221.537 61.4456 221.138 61.4324ZM225.145 61.3472C225.16 61.4989 225.174 61.6505 225.19 61.8067C225.339 61.6389 225.488 61.4712 225.642 61.2983C225.478 61.3144 225.314 61.3306 225.145 61.3472ZM228.79 60.9883C228.75 61.1454 228.71 61.3024 228.669 61.4642C229.107 61.4211 229.544 61.378 229.995 61.3337C229.93 61.238 229.866 61.1422 229.799 61.0436C229.287 60.9923 229.287 60.9923 228.79 60.9883ZM233.64 60.9748C233.65 61.0759 233.66 61.177 233.67 61.2811C234.239 61.2509 234.239 61.2509 234.83 61.1669C234.93 61.0551 235.029 60.9432 235.131 60.828C234.639 60.8764 234.147 60.9249 233.64 60.9748ZM239.982 60.8144C240.168 61.0257 240.168 61.0257 240.358 61.2413C240.572 61.1692 240.786 61.0971 241.006 61.0229C240.887 60.9325 240.767 60.8422 240.645 60.7492C240.426 60.7707 240.207 60.7922 239.982 60.8144Z" fill="#A8D5BA"/>
</svg>
