<svg width="291" height="71" viewBox="0 0 291 71" fill="none" xmlns="http://www.w3.org/2000/svg">
<path d="M86.2137 3.48885C86.3807 3.53186 86.5478 3.57487 86.7199 3.61918C86.7246 3.72064 86.7294 3.82211 86.7343 3.92665C86.873 3.92947 87.0117 3.9323 87.1546 3.93521C87.336 3.93961 87.5173 3.94401 87.7041 3.94855C87.8842 3.95261 88.0642 3.95667 88.2497 3.96086C88.7372 3.98673 88.7372 3.98673 89.2434 4.11705C89.6106 4.11288 89.9777 4.09911 90.3445 4.08043C90.5114 4.07226 90.5114 4.07226 90.6816 4.06392C90.9236 4.05198 91.1656 4.03968 91.4075 4.02707C91.7941 4.00696 92.1807 3.98782 92.5673 3.96893C93.5303 3.92168 94.4932 3.87282 95.4561 3.8239C96.3955 3.77624 97.3349 3.7293 98.2744 3.68361C98.4048 3.67726 98.5351 3.67091 98.6694 3.66437C100.58 3.57246 102.483 3.53059 104.396 3.54492C105.093 3.54499 105.789 3.50629 106.485 3.46203C107.811 3.37961 107.811 3.37961 108.384 3.52699C108.849 3.52707 109.311 3.51944 109.776 3.50498C109.913 3.50139 110.05 3.4978 110.191 3.4941C110.629 3.48259 111.067 3.47015 111.506 3.45752C112.08 3.44103 112.655 3.42542 113.23 3.41029C113.361 3.40625 113.492 3.40221 113.626 3.39804C114.389 3.37796 115.122 3.4176 115.882 3.48325C116.278 3.4782 116.675 3.46617 117.071 3.44794C117.399 3.43281 117.399 3.43281 117.735 3.41738C117.847 3.41178 117.959 3.40619 118.075 3.40042C118.421 3.38337 118.766 3.36799 119.112 3.35275C119.33 3.34231 119.548 3.33187 119.773 3.32111C119.972 3.3116 120.171 3.30209 120.376 3.29229C120.881 3.26937 120.881 3.26937 121.363 3.07196C121.835 3.0886 122.301 3.11506 122.772 3.14849C124.346 3.24346 125.892 3.21025 127.466 3.12541C127.892 3.10259 128.317 3.08234 128.742 3.06241C129.018 3.04869 129.295 3.03483 129.571 3.02081C129.695 3.01481 129.819 3.00881 129.947 3.00263C130.702 2.96098 131.435 2.87373 132.179 2.74666C132.699 2.67843 133.186 2.72815 133.704 2.78169C136.127 3.02687 138.577 2.92061 141.01 2.85291C141.252 2.8463 141.252 2.8463 141.499 2.83956C143.74 2.77752 145.981 2.70589 148.221 2.60909C148.498 2.59721 148.776 2.58583 149.053 2.575C150.394 2.52168 151.698 2.4356 153.019 2.19729C154.319 1.96721 155.576 1.9235 156.895 1.92451C157.113 1.923 157.332 1.92149 157.557 1.91993C158.086 1.91653 158.615 1.91498 159.145 1.91524C159.14 1.81377 159.135 1.7123 159.13 1.60776C159.02 1.61291 158.911 1.61806 158.798 1.62337C158.793 1.5219 158.788 1.42044 158.783 1.3159C159.565 1.10587 159.565 1.10587 159.947 1.26126C160.007 1.36015 160.067 1.45905 160.128 1.56093C160.178 1.45689 160.228 1.35285 160.28 1.24565C161.49 1.13077 161.49 1.13077 162.11 1.4005C162.754 1.64461 163.103 1.54996 163.768 1.42023C164.23 1.35896 164.551 1.45581 164.966 1.64207C165.013 1.4873 165.061 1.33252 165.11 1.17305C165.24 1.15942 165.37 1.14578 165.504 1.13173C165.671 1.11234 165.839 1.09295 166.012 1.07297C166.179 1.05439 166.347 1.03581 166.519 1.01666C166.655 0.989209 166.792 0.961753 166.932 0.933466C166.983 0.829423 167.033 0.725382 167.084 0.618187C167.975 0.572579 168.866 0.52798 169.757 0.484316C170.06 0.469317 170.363 0.454043 170.666 0.438488C171.101 0.416187 171.537 0.394875 171.972 0.373758C172.176 0.363018 172.176 0.363018 172.383 0.352061C172.933 0.326226 173.378 0.314798 173.91 0.451931C174.331 0.43529 174.748 0.411961 175.168 0.383299C176.086 0.328813 176.9 0.350041 177.805 0.508692C178.776 0.613236 179.771 0.50474 180.744 0.439412C181.243 0.415981 181.496 0.479899 181.961 0.623042C182.682 0.816504 183.186 0.811211 183.918 0.598597C184.158 0.434807 184.158 0.434807 184.402 0.267708C184.739 0.283806 184.739 0.283806 185.115 0.35945C186.167 0.56464 187.209 0.615645 188.284 0.624817C189.077 0.633218 189.869 0.648238 190.662 0.676946C191.996 0.777576 191.996 0.777576 193.246 0.469008C193.78 0.19086 194.295 0.238554 194.902 0.237224C195.014 0.282805 195.126 0.328388 195.241 0.375351C195.438 0.388372 195.635 0.401392 195.837 0.414807C196.027 0.434491 196.217 0.454175 196.413 0.474456C196.473 0.573347 196.532 0.672238 196.594 0.774125C196.741 0.760862 196.888 0.747598 197.04 0.733933C197.591 0.727297 197.926 0.83093 198.437 0.995748C198.6 0.937288 198.762 0.878828 198.929 0.818597C199.213 0.798558 199.497 0.785803 199.782 0.778597C200.052 0.77171 200.323 0.760388 200.592 0.74055C200.645 0.68724 200.697 0.633931 200.751 0.579008C201.143 0.604918 201.533 0.639395 201.923 0.678112C202.218 0.697018 202.218 0.697018 202.52 0.716306C202.814 0.736461 202.814 0.736461 203.114 0.757023C203.41 0.77593 203.41 0.77593 203.711 0.795217C204.274 0.87751 204.639 1.02307 205.119 1.29851C205.071 1.45328 205.023 1.60806 204.974 1.76752C205.368 1.80131 205.762 1.83402 206.156 1.86614C206.266 1.87568 206.376 1.88522 206.489 1.89505C207.217 1.95332 207.919 1.95156 208.647 1.9033C208.662 1.77867 208.677 1.65404 208.692 1.52563C208.72 1.39402 208.749 1.26241 208.778 1.1268C209.32 0.844401 209.937 0.876925 210.546 0.841612C210.677 0.830981 210.808 0.82035 210.944 0.809396C211.908 0.754523 212.476 0.894365 213.29 1.37729C213.462 1.71588 213.462 1.71588 213.485 1.98443C214.057 2.07879 214.554 2.10086 215.132 2.04257C215.352 2.02105 215.352 2.02105 215.577 1.99909C215.728 1.98336 215.88 1.96762 216.036 1.9514C216.19 1.93611 216.345 1.92081 216.504 1.90505C216.884 1.86734 217.263 1.82874 217.643 1.78932C217.636 1.63712 217.628 1.48492 217.621 1.3281C218.619 1.07041 219.628 0.857591 220.642 0.666317C220.755 0.642397 220.867 0.618475 220.983 0.593829C221.598 0.48357 221.855 0.474724 222.392 0.787654C222.519 0.886161 222.646 0.984667 222.777 1.08616C223.313 1.11263 223.313 1.11263 223.775 1.03933C223.825 0.935288 223.875 0.831246 223.926 0.724051C226.845 0.816055 226.845 0.816055 227.108 1.03697C227.968 1.16721 228.828 1.26443 229.7 1.22347C230.576 1.18237 231.425 1.30821 232.293 1.40998C232.87 1.47001 233.389 1.51488 233.969 1.46972C234.798 1.45052 235.573 1.56491 236.389 1.67997C237.727 1.85726 238.94 1.91084 240.291 1.80621C240.878 1.77732 241.377 1.8475 241.946 1.9639C242.342 2.02072 242.682 2.01106 243.082 1.98278C244.004 1.93089 244.91 1.95628 245.831 1.9976C245.99 2.00357 246.148 2.00955 246.311 2.01571C247.47 2.06477 247.47 2.06477 247.665 2.22932C248.078 2.2815 248.485 2.32277 248.9 2.35432C249.021 2.36367 249.142 2.37303 249.266 2.38267C250.177 2.43755 250.921 2.30982 251.802 2.07613C252.156 2.01859 252.156 2.01859 252.583 2.2489C252.751 2.47145 252.918 2.69465 253.083 2.91877C253.846 3.63211 255.292 3.49447 256.31 3.51848C257.911 3.55627 257.911 3.55627 258.68 3.72805C259.228 3.84039 259.665 3.82905 260.222 3.76929C261.181 3.66666 261.948 3.60762 262.747 4.17935C263.176 4.55038 263.319 4.82581 263.479 5.3391C263.622 5.4595 263.765 5.57989 263.913 5.70394C264.347 6.06877 264.347 6.06877 264.446 6.40116C264.493 6.53716 264.493 6.53716 264.542 6.67591C264.681 6.71703 264.821 6.75816 264.964 6.80053C265.104 6.84799 265.244 6.89546 265.388 6.94436C265.589 7.41918 265.595 7.80429 265.619 8.32019C265.722 8.32867 265.825 8.33715 265.931 8.34589C267.036 8.47066 267.036 8.47066 267.489 8.88724C267.694 9.37161 267.769 9.7047 267.708 10.2251C267.389 10.529 267.389 10.529 267.065 10.7176C267.126 10.9292 267.126 10.9292 267.189 11.1451C267.274 11.6322 267.274 11.6322 266.964 12.109C266.366 12.243 266.366 12.243 265.807 12.3174C265.869 12.467 265.931 12.6166 265.995 12.7708C266.825 12.8843 266.825 12.8843 267.672 13.0002C267.904 13.8715 267.904 13.8715 267.571 14.3916C267.466 14.4983 267.361 14.6049 267.252 14.7147C267.422 14.8085 267.591 14.9022 267.766 14.9988C267.775 15.2017 267.785 15.4046 267.795 15.6137C268.014 15.6034 268.234 15.5931 268.46 15.5825C268.469 15.7854 268.479 15.9884 268.489 16.1975C268.659 16.1514 268.828 16.1053 269.003 16.0578C269.782 15.9745 270.054 16.1407 270.672 16.5572C270.663 16.3543 270.653 16.1513 270.644 15.9423C270.479 15.95 270.314 15.9577 270.145 15.9657C270.14 15.8642 270.135 15.7627 270.13 15.6582C270.293 15.5997 270.455 15.5413 270.622 15.481C270.684 15.6307 270.746 15.7803 270.81 15.9345C271.029 15.9242 271.249 15.9139 271.475 15.9032C271.54 16.1036 271.604 16.304 271.67 16.5104C271.945 16.4975 272.219 16.4846 272.502 16.4714C272.278 16.3802 272.053 16.289 271.822 16.1951C271.817 16.0936 271.813 15.9922 271.808 15.8876C273.648 15.925 275.33 16.0697 277.098 16.5385C277.792 16.7202 278.478 16.8289 279.19 16.9279C279.732 17.014 280.272 17.1032 280.812 17.1942C281.179 17.2552 281.546 17.3131 281.914 17.3676C282.857 17.5166 283.625 17.7004 284.435 18.1738C284.76 18.3703 284.76 18.3703 285.138 18.532C286.075 18.9548 286.075 18.9548 286.323 19.5206C286.334 19.9538 286.304 20.3352 286.204 20.7588C285.932 20.8224 285.66 20.886 285.38 20.9515C285.422 21.4735 285.422 21.4735 285.596 22.0199C285.983 22.2665 285.983 22.2665 286.45 22.4421C286.977 22.8437 287.391 23.1928 287.679 23.7711C287.576 23.9284 287.474 24.0858 287.368 24.2479C287.258 24.253 287.148 24.2582 287.035 24.2635C287.04 24.365 287.045 24.4664 287.05 24.571C287.326 24.6088 287.603 24.6467 287.888 24.6857C288.076 25.1391 288.076 25.1391 288.098 25.6003C288.159 25.8039 288.223 26.0066 288.293 26.2075C287.799 26.3746 287.658 26.3982 287.129 26.2621C287.057 25.9095 286.986 25.557 286.912 25.1937C286.583 25.2092 286.254 25.2246 285.914 25.2406C285.921 25.3928 285.929 25.545 285.936 25.7018C285.769 25.6588 285.602 25.6158 285.43 25.5715C285.061 25.5725 285.061 25.5725 284.605 25.7642C284.562 26.0205 284.52 26.2767 284.475 26.5407C284.807 26.576 285.139 26.6113 285.48 26.6476C285.523 26.3914 285.566 26.1351 285.611 25.8711C285.911 25.9745 286.211 26.0795 286.511 26.1852C286.678 26.2435 286.845 26.3018 287.017 26.3618C287.434 26.5365 287.702 26.672 287.997 26.9918C287.991 27.3194 287.991 27.3194 287.859 27.6145C287.214 27.847 286.842 27.6997 286.189 27.5388C286.112 27.8622 286.05 28.1375 286.066 28.469C286.183 28.6161 286.3 28.7631 286.42 28.9146C286.43 29.1176 286.439 29.3205 286.449 29.5296C286.566 29.54 286.684 29.5504 286.805 29.5611C287.353 29.6556 287.805 29.8389 288.307 30.0587C288.314 30.2109 288.322 30.3631 288.329 30.5199C288.156 30.5693 287.983 30.6188 287.805 30.6697C287.246 30.8594 286.856 31.0762 286.369 31.3822C286.205 31.39 286.04 31.3977 285.87 31.4057C286.037 31.4487 286.204 31.4917 286.376 31.536C286.381 31.6375 286.386 31.7389 286.391 31.8435C286.281 31.8486 286.171 31.8538 286.058 31.8591C286.063 31.9605 286.068 32.062 286.073 32.1665C286.903 32.2801 286.903 32.2801 287.75 32.396C288.124 33.2643 288.124 33.2643 288.141 33.6103C288.415 33.5974 288.689 33.5845 288.972 33.5712C289.096 33.8705 289.22 34.1697 289.348 34.4781C289.625 34.5159 289.902 34.5538 290.187 34.5928C290.347 35.1592 290.442 35.5414 290.258 36.1109C289.941 36.4532 289.941 36.4532 289.387 36.6429C288.648 36.6658 288.502 36.4757 287.923 36.0857C287.462 36.0524 287.057 36.0971 286.593 36.1481C286.397 35.6745 286.409 35.542 286.542 35.0719C286.423 35.1029 286.305 35.1339 286.182 35.1659C285.74 35.2599 285.338 35.2945 284.886 35.3037C284.997 35.6065 284.997 35.6065 285.248 35.9031C285.498 35.9485 285.498 35.9485 285.752 35.995C286.26 36.1637 286.26 36.1637 286.417 36.4163C286.646 37.0711 286.705 37.6287 286.528 38.3082C286.444 38.4392 286.361 38.5703 286.275 38.7053C285.949 39.317 286.182 39.7613 286.406 40.3783C286.494 40.8705 286.39 41.0679 286.136 41.5044C286.035 41.6838 286.035 41.6838 285.931 41.8667C285.724 42.1772 285.501 42.4179 285.233 42.6831C285.052 43.0151 285.052 43.0151 284.929 43.3137C284.819 43.3188 284.709 43.324 284.596 43.3293C284.625 43.4169 284.653 43.5046 284.682 43.5949C284.783 43.9111 284.885 44.2273 284.987 44.5436C284.808 44.6187 284.629 44.6938 284.445 44.7712C283.775 45.0779 283.489 45.354 283.105 45.9512C282.916 46.4756 282.908 46.7165 282.957 47.2485C283.025 48.0629 282.827 48.4393 282.369 49.1346C282.262 49.3828 282.262 49.3828 282.153 49.6359C281.827 50.2405 281.483 50.5784 280.811 50.8598C279.288 51.3315 277.645 51.1097 276.088 50.9316C274.972 50.8242 274.171 51.0347 273.142 51.4165C273.032 51.4217 272.922 51.4268 272.809 51.4322C272.821 51.6858 272.833 51.9395 272.845 52.2008C273.067 52.2413 273.289 52.2817 273.518 52.3234C273.582 52.5237 273.646 52.7241 273.713 52.9305C273.548 52.9382 273.384 52.946 273.214 52.9539C273.112 53.3173 273.019 53.6795 272.932 54.0457C272.866 54.3014 272.866 54.3014 272.8 54.5623C272.82 55.2802 273.095 55.6725 273.49 56.2753C273.917 56.9307 274.167 57.5307 274.132 58.3035C274.079 58.3568 274.027 58.4101 273.973 58.465C274 58.756 274.032 59.0466 274.066 59.337C274.12 60.2173 274.12 60.2173 273.857 60.6149C273.684 60.7709 273.507 60.9227 273.325 61.0696C272.981 61.3962 273.031 61.7703 272.982 62.2094C272.595 62.632 272.595 62.632 272.186 63.0171C271.986 63.3602 271.986 63.3602 271.882 63.6476C272.109 63.7895 272.336 63.9314 272.569 64.0776C272.469 64.2857 272.369 64.4938 272.265 64.7082C272.16 64.7123 272.054 64.7165 271.945 64.7208C271.463 64.7402 270.98 64.7608 270.498 64.7815C270.332 64.788 270.165 64.7945 269.994 64.8012C269.334 64.8302 268.71 64.8588 268.062 64.9909C267.515 65.1006 267.062 65.0642 266.508 65.0073C266.323 64.9895 266.138 64.9718 265.947 64.9535C265.491 64.8824 265.175 64.7732 264.76 64.5982C264.485 64.5521 264.209 64.514 263.931 64.483C263.48 64.4323 263.093 64.3725 262.666 64.23C262.188 64.0858 261.788 64.0644 261.286 64.0582C260.433 64.046 260.433 64.046 260.06 63.8943C259.47 63.9172 258.884 63.9599 258.295 64.0018C257.731 64.0036 257.731 64.0036 257.408 63.8689C256.994 63.7043 256.675 63.6856 256.224 63.6741C256.069 63.6691 255.914 63.6642 255.754 63.6591C255.593 63.6552 255.432 63.6514 255.267 63.6474C254.946 63.6387 254.625 63.6295 254.305 63.6197C254.163 63.6162 254.022 63.6127 253.876 63.6091C253.545 63.5837 253.545 63.5837 253.371 63.4378C253.073 63.4566 253.073 63.4566 252.769 63.4757C251.366 63.5561 249.954 63.4056 248.571 63.2039C247.454 63.0465 246.329 62.9918 245.201 62.9325C243.683 62.8366 243.683 62.8366 242.988 62.3843C242.935 62.4376 242.883 62.4909 242.829 62.5459C242.51 62.6053 242.189 62.6539 241.867 62.6969C241.692 62.7216 241.516 62.7463 241.336 62.7718C240.84 62.7933 240.84 62.7933 240.513 62.656C240.12 62.501 239.887 62.4958 239.463 62.5251C239.333 62.5328 239.203 62.5406 239.069 62.5486C238.935 62.5582 238.801 62.5678 238.663 62.5776C238.397 62.5955 238.13 62.6126 237.864 62.629C237.746 62.6373 237.628 62.6456 237.507 62.6541C237.15 62.6576 236.842 62.6024 236.494 62.535C236.217 62.5421 235.94 62.5539 235.663 62.574C235.601 62.4244 235.539 62.2747 235.475 62.1206C235.252 62.2026 235.252 62.2026 235.024 62.2862C234.848 62.3484 234.673 62.4107 234.491 62.4749C234.384 62.5213 234.276 62.5676 234.165 62.6154C233.833 62.6598 233.833 62.6598 233.376 62.4598C232.75 62.2211 232.402 62.2365 231.742 62.2891C230.383 62.3741 228.785 62.3725 227.47 62.034C227.314 62.0668 227.157 62.0995 226.996 62.1333C226.48 62.2346 226.48 62.2346 226.091 62.1757C225.645 62.1203 225.356 62.1548 224.917 62.2309C224.241 62.3458 223.664 62.3026 222.98 62.2447C222.754 62.2769 222.529 62.3149 222.305 62.357C221.45 62.4935 220.641 62.4658 219.779 62.4142C219.634 62.4069 219.488 62.3996 219.338 62.3921C218.655 62.356 217.987 62.3003 217.311 62.2026C217.008 62.1839 216.706 62.1693 216.402 62.1586C216.241 62.1528 216.08 62.1471 215.914 62.1412C215.461 62.1273 215.461 62.1273 214.955 62.1783C214.477 62.1815 214.203 62.1052 213.758 61.9649C212.984 61.746 212.473 61.8569 211.708 62.0707C210.705 62.3358 210.039 62.2727 209.126 61.8164C208.794 61.877 208.464 61.9449 208.135 62.0169C207.765 62.0516 207.395 62.0785 207.024 62.0979C206.838 62.1088 206.652 62.1197 206.461 62.131C205.973 62.1184 205.973 62.1184 205.459 61.8343C204.372 61.7063 203.269 61.7709 202.179 61.8589C201.793 61.8523 201.793 61.8523 201.28 61.5682C200.85 61.6188 200.85 61.6188 200.392 61.7447C199.791 61.8953 199.254 61.9735 198.633 62.0006C198.581 62.0539 198.528 62.1072 198.474 62.1621C197.95 62.2394 197.71 62.2375 197.247 61.9886C197.103 61.881 197.103 61.881 196.956 61.7711C196.906 61.8752 196.856 61.9792 196.804 62.0864C196.566 62.0949 196.566 62.0949 196.324 62.1035C196.115 62.112 195.906 62.1204 195.691 62.129C195.382 62.1409 195.382 62.1409 195.066 62.153C194.563 62.1893 194.136 62.27 193.651 62.3885C193.18 62.3431 193.18 62.3431 192.813 62.2737C192.808 62.1723 192.803 62.0708 192.798 61.9663C192.691 62.0221 192.583 62.078 192.473 62.1356C191.966 62.1808 191.525 62.1908 191.023 62.1073C190.041 62.0509 189.09 62.3487 188.151 62.6081C187.529 62.6865 186.995 62.5902 186.383 62.4792C185.968 62.4381 185.716 62.486 185.329 62.6249C185.264 62.4246 185.2 62.2242 185.133 62.0178C185.405 61.9542 185.677 61.8906 185.958 61.825C185.998 61.5181 186.039 61.2111 186.081 60.8948C185.697 60.9128 185.312 60.9309 184.917 60.9494C184.892 61.0936 184.892 61.0936 184.868 61.2406C184.779 61.5722 184.779 61.5722 184.461 61.8953C184.466 61.9968 184.47 62.0982 184.475 62.2028C183.983 62.4591 183.449 62.4635 182.896 62.5176C182.776 62.5296 182.656 62.5415 182.532 62.5538C182.187 62.5874 181.842 62.6194 181.496 62.6507C181.342 62.6647 181.188 62.6787 181.029 62.6931C180.242 62.7478 179.567 62.705 178.821 62.4681C178.483 62.1566 178.483 62.1566 178.293 61.8766C178.06 61.9356 177.826 61.9947 177.593 62.0539C177.463 62.0868 177.333 62.1197 177.199 62.1536C176.849 62.2444 176.5 62.34 176.153 62.4393C176.143 62.2363 176.134 62.0334 176.124 61.8243C175.957 61.7813 175.79 61.7383 175.618 61.694C175.629 61.9477 175.641 62.2013 175.654 62.4627C175.012 62.9111 174.316 62.8682 173.549 62.8889C173.417 62.8937 173.285 62.8985 173.149 62.9034C172.824 62.915 172.5 62.9247 172.176 62.934C172.154 62.8366 172.132 62.7391 172.11 62.6386C172.067 62.5358 172.024 62.4329 171.98 62.3269C171.472 62.1453 171.472 62.1453 170.983 62.3737C170.975 62.2215 170.968 62.0693 170.961 61.9125C170.186 61.7883 170.186 61.7883 169.464 61.9828C169.745 62.0268 169.745 62.0268 170.031 62.0717C170.643 62.2356 170.643 62.2356 170.897 62.5511C170.932 62.6448 170.968 62.7384 171.004 62.8349C170.343 63.0433 169.966 63.032 169.334 62.7593C169.274 62.6604 169.215 62.5615 169.153 62.4596C168.826 62.5258 168.499 62.592 168.162 62.6601C168.185 62.5637 168.208 62.4673 168.232 62.368C168.313 62.0429 168.313 62.0429 168.285 61.7299C168.064 61.6895 167.842 61.6491 167.613 61.6074C167.462 62.0973 167.486 62.2281 167.663 62.6836C167.554 62.6887 167.444 62.6939 167.331 62.6992C167.34 62.9021 167.35 63.105 167.36 63.3141C166.689 63.3739 166.285 63.3489 165.682 63.0847C165.521 63.1685 165.521 63.1685 165.357 63.254C164.362 63.3377 163.324 63.3756 162.379 63.0568C161.78 62.9451 161.497 63.023 160.915 63.1736C160.081 63.3779 160.081 63.3779 159.59 63.1202C159.364 62.8082 159.149 62.5054 158.972 62.167C158.81 62.2254 158.647 62.2839 158.48 62.3441C158.547 62.5952 158.614 62.8463 158.683 63.105C158.139 63.4763 157.997 63.4764 157.349 63.4722C157.185 63.4719 157.021 63.4716 156.852 63.4714C156.682 63.4695 156.511 63.4675 156.335 63.4656C156.162 63.4649 155.99 63.4643 155.812 63.4636C155.385 63.4619 154.959 63.4585 154.532 63.4539C154.525 63.3017 154.518 63.1495 154.51 62.9927C154.346 63.0039 154.182 63.0152 154.013 63.0268C153.8 63.0396 153.587 63.0524 153.368 63.0655C153.156 63.0791 152.944 63.0926 152.725 63.1065C152.182 63.1019 152.182 63.1019 151.835 62.8101C151.737 63.0689 151.639 63.3277 151.538 63.5944C151.262 63.5565 150.985 63.5186 150.7 63.4796C150.74 63.1727 150.781 62.8657 150.823 62.5494C150.608 62.6612 150.393 62.773 150.172 62.8881C150.053 62.6903 149.933 62.4925 149.81 62.2888C149.8 62.4323 149.79 62.5758 149.779 62.7236C149.687 63.219 149.687 63.219 149.514 63.5256C149.016 63.8171 148.594 63.7011 148.039 63.6045C147.979 63.5056 147.919 63.4067 147.858 63.3048C147.763 63.3411 147.669 63.3773 147.571 63.4146C147.114 63.5072 146.922 63.4149 146.52 63.2135C146.473 63.3683 146.425 63.5231 146.376 63.6826C145.723 63.7696 145.452 63.7725 144.885 63.4444C144.764 63.3484 144.642 63.2524 144.517 63.1535C144.527 63.3564 144.536 63.5593 144.546 63.7684C144.052 63.709 143.615 63.6268 143.137 63.4879C142.515 63.3989 142.43 63.4026 141.916 63.6607C141.741 63.7452 141.566 63.8297 141.386 63.9167C141.217 63.823 141.047 63.7292 140.873 63.6326C140.868 63.5312 140.863 63.4297 140.858 63.3252C140.696 63.3836 140.534 63.4421 140.367 63.5023C139.899 63.3121 139.758 63.0121 139.492 62.6189C139.502 62.7646 139.512 62.9103 139.523 63.0604C139.535 63.5413 139.535 63.5413 139.383 63.8566C138.997 63.8239 138.61 63.7912 138.212 63.7575C138.207 63.6561 138.202 63.5546 138.197 63.45C138.095 63.505 137.992 63.5599 137.886 63.6165C137.199 63.861 136.561 63.8762 135.833 63.9047C135.61 63.915 135.61 63.915 135.382 63.9256C135.069 63.9398 134.756 63.9533 134.442 63.9661C133.963 63.9858 133.484 64.008 133.005 64.0305C132.7 64.044 132.395 64.0574 132.09 64.0707C131.947 64.0772 131.804 64.0838 131.656 64.0905C131.523 64.0958 131.389 64.1011 131.251 64.1066C131.134 64.1115 131.017 64.1164 130.896 64.1215C130.545 64.1163 130.23 64.066 129.889 63.994C129.894 64.0955 129.899 64.197 129.904 64.3015C129.343 64.3471 129.343 64.3471 128.739 64.3561C128.625 64.2598 128.51 64.1635 128.392 64.0643C128.208 64.1015 128.025 64.1387 127.835 64.1771C127.235 64.2726 127.235 64.2726 126.821 64.0899C126.548 63.8426 126.548 63.8426 126.534 63.5352C126.424 63.5403 126.315 63.5455 126.201 63.5508C126.154 63.7056 126.106 63.8603 126.057 64.0198C125.89 63.9768 125.723 63.9338 125.551 63.8895C125.761 63.6762 125.971 63.463 126.187 63.2433C125.948 63.2596 125.709 63.2815 125.471 63.3058C125.338 63.3174 125.205 63.329 125.068 63.3409C124.653 63.4387 124.653 63.4387 124.476 63.8622C124.235 64.2594 124.235 64.2594 123.812 64.3936C122.214 64.5318 120.524 64.6495 118.934 64.4154C118.564 64.3358 118.564 64.3358 118.247 64.5403C117.911 64.5168 117.574 64.4927 117.239 64.4577C116.873 64.4283 116.873 64.4283 116.418 64.6262C116.027 64.6018 115.636 64.5696 115.247 64.5271C115.242 64.4256 115.237 64.3242 115.232 64.2196C115.061 64.3039 114.889 64.3882 114.713 64.4751C114.213 64.7016 113.822 64.8092 113.258 64.7745C113.201 64.7263 113.143 64.6782 113.084 64.6286C112.85 64.637 112.616 64.6562 112.382 64.6802C112.238 64.6944 112.095 64.7086 111.946 64.7232C111.795 64.739 111.643 64.7547 111.487 64.7709C110.524 64.8685 109.569 64.9587 108.601 64.993C108.534 64.7419 108.468 64.4908 108.399 64.2321C108.561 64.1737 108.723 64.1152 108.891 64.055C108.829 63.9054 108.767 63.7557 108.703 63.6016C108.083 63.7987 107.64 63.9455 107.242 64.4405C107.461 64.4302 107.681 64.4199 107.907 64.4093C107.917 64.6122 107.926 64.8152 107.936 65.0242C107.489 65.0494 107.042 65.0734 106.596 65.0968C106.471 65.1039 106.346 65.1111 106.217 65.1185C105.615 65.1491 105.039 65.1607 104.44 65.101C104.274 65.0868 104.108 65.0725 103.937 65.0578C103.885 65.1111 103.832 65.1644 103.778 65.2194C103.501 65.2386 103.224 65.2519 102.947 65.2584C102.951 65.3598 102.956 65.4613 102.961 65.5659C101.9 65.6915 101.9 65.6915 101.377 65.332C101.287 65.2346 101.196 65.1372 101.103 65.0368C101.151 64.882 101.198 64.7272 101.248 64.5677C101.586 64.446 101.586 64.446 101.906 64.3828C101.466 64.4034 101.027 64.424 100.575 64.4452C100.697 64.6937 100.818 64.9423 100.944 65.1983C100.444 65.5394 100.264 65.5849 99.6733 65.6527C98.9908 65.7369 98.3212 65.8419 97.6464 65.9693C97.5295 65.8223 97.4126 65.6752 97.2921 65.5237C97.1731 65.5516 97.0541 65.5794 96.9315 65.6081C96.7784 65.6439 96.6254 65.6796 96.4678 65.7165C96.3422 65.751 96.2166 65.7855 96.0872 65.821C95.696 65.8988 95.3547 65.9275 94.9574 65.9415C94.3257 65.9396 94.3257 65.9396 93.8212 66.1489C93.4257 66.0753 93.0322 65.9919 92.6426 65.896C92.6856 65.6398 92.7286 65.3835 92.7728 65.1195C91.9833 65.038 91.23 64.9945 90.4373 65.0751C90.3323 65.1817 90.2272 65.2883 90.1191 65.3981C90.1262 65.5503 90.1334 65.7025 90.1407 65.8593C89.4189 66.2156 89.4189 66.2156 88.9363 66.1662C88.7951 66.1252 88.7951 66.1252 88.6511 66.0833C88.6391 65.8271 88.6271 65.5709 88.615 65.3146C88.3406 65.3275 88.0662 65.3404 87.7835 65.3537C88.0078 65.4448 88.2321 65.536 88.4632 65.6299C88.4154 65.7847 88.3677 65.9395 88.3185 66.0989C88.1521 66.1041 88.1521 66.1041 87.9824 66.1093C86.9934 66.1467 86.0423 66.2358 85.0675 66.402C84.6112 66.4275 84.3946 66.3214 83.9872 66.1481C83.3771 66.2247 83.3771 66.2247 82.8302 66.3565C82.878 66.2017 82.9257 66.0469 82.9749 65.8875C83.0671 65.8738 83.1592 65.8602 83.2542 65.8461C84.1001 65.7199 84.9442 65.5869 85.7877 65.4473C85.0939 65.4003 84.4188 65.3552 83.7229 65.3998C83.2859 65.4107 83.2859 65.4107 82.7725 65.1266C82.7796 65.2788 82.7868 65.431 82.7941 65.5878C82.0305 65.7253 81.2669 65.8629 80.4802 66.0045C80.9789 66.0828 81.4776 66.1611 81.9914 66.2418C81.9962 66.3432 82.001 66.4447 82.0059 66.5493C81.6169 66.6198 81.2278 66.6892 80.8385 66.7581C80.6757 66.7878 80.6757 66.7878 80.5096 66.8181C78.5901 67.1549 78.5901 67.1549 77.8481 66.7444C77.8386 66.5414 77.829 66.3385 77.8192 66.1294C78.4051 65.9112 78.8677 65.9648 79.4823 66.0514C79.4776 65.9499 79.4728 65.8484 79.4679 65.7439C79.2484 65.7542 79.0288 65.7645 78.8027 65.7751C78.7908 65.5215 78.7789 65.2678 78.7666 65.0064C78.6687 65.2653 78.5709 65.5241 78.47 65.7907C78.3252 65.7948 78.3252 65.7948 78.1775 65.799C77.4186 65.8265 76.7242 65.8969 75.9826 66.0615C75.7282 66.108 75.4732 66.1519 75.2179 66.1937C75.0964 66.2141 74.9749 66.2345 74.8497 66.2555C74.4754 66.287 74.1828 66.2464 73.8205 66.163C73.8253 66.2645 73.8301 66.3659 73.835 66.4705C74.0417 66.4798 74.2484 66.4892 74.4613 66.4989C74.9915 66.5229 75.3765 66.6219 75.8524 66.838C75.6465 66.9515 75.4398 67.0637 75.2327 67.1753C75.1177 67.2379 75.0027 67.3005 74.8842 67.3649C74.5507 67.5154 74.5507 67.5154 74.0518 67.5388C74.047 67.4374 74.0423 67.3359 74.0374 67.2314C73.8727 67.2391 73.7081 67.2468 73.5384 67.2548C73.3613 66.7993 73.3368 66.6685 73.4879 66.1786C73.2731 66.2904 73.0584 66.4021 72.8371 66.5173C72.8824 66.6041 72.9278 66.691 72.9745 66.7805C73.0323 67.1244 73.0323 67.1244 72.7787 67.4926C72.3959 67.7706 72.3959 67.7706 72 67.7699C71.7808 67.7135 71.7808 67.7135 71.5571 67.6559C71.3728 67.6105 71.1885 67.5652 70.9985 67.5184C70.7739 67.4574 70.7739 67.4574 70.5448 67.3953C70.54 67.2938 70.5353 67.1923 70.5304 67.0878C70.2058 67.2047 69.8813 67.3216 69.5469 67.4421C69.5923 67.2366 69.6377 67.0311 69.6844 66.8193C70.0638 66.6998 70.4432 66.5803 70.8341 66.4572C70.6671 66.4142 70.5001 66.3712 70.328 66.3269C70.3161 66.0732 70.3042 65.8196 70.2919 65.5582C70.0724 65.5685 69.8529 65.5788 69.6267 65.5894C69.6179 65.7328 69.6179 65.7328 69.609 65.8791C69.4892 66.2122 69.4892 66.2122 69.0721 66.4244C68.9401 66.4687 68.8081 66.513 68.6721 66.5587C68.8964 66.6498 69.1207 66.741 69.3518 66.8349C69.3034 67.1357 69.3034 67.1357 69.2143 67.4577C68.7206 67.7146 68.2448 67.6775 67.6841 67.7028C67.4671 67.7134 67.2502 67.724 67.0267 67.7349C66.4652 67.7431 65.9434 67.7108 65.3892 67.6372C65.382 67.485 65.3749 67.3328 65.3675 67.176C65.6395 67.1124 65.9116 67.0488 66.1919 66.9832C66.1871 66.8818 66.1823 66.7803 66.1774 66.6758C66.0723 66.7061 65.9671 66.7365 65.8588 66.7677C65.1919 66.9006 64.5357 66.9192 63.8563 66.9388C63.9684 66.9843 64.0806 67.0299 64.1961 67.0769C64.0786 67.6794 64.0786 67.6794 63.8996 67.8612C63.5847 67.8832 63.2692 67.8965 62.9537 67.9056C62.2494 67.9324 61.5973 67.9811 60.9132 68.1554C60.9562 67.8992 60.9991 67.6429 61.0434 67.3789C61.3727 67.3635 61.702 67.348 62.0413 67.3321C60.1909 66.9941 58.4038 67.2259 56.5458 67.4359C56.5506 67.5374 56.5553 67.6388 56.5602 67.7434C56.7225 67.6849 56.8848 67.6265 57.0519 67.5662C57.4189 67.6164 57.4189 67.6164 57.7244 67.6887C57.7315 67.8409 57.7387 67.9931 57.746 68.15C57.5468 68.1529 57.3476 68.1559 57.1423 68.159C56.6344 68.1787 56.3673 68.2313 55.8836 68.4203C55.4321 68.5667 55.4321 68.5667 55.0281 68.3931C54.7452 68.1367 54.7452 68.1367 54.7308 67.8292C55.1675 67.7579 55.6042 67.6865 56.0541 67.613C55.8815 67.5958 55.8815 67.5958 55.7054 67.5783C55.5544 67.5609 55.4034 67.5436 55.2478 67.5257C55.0233 67.5014 55.0233 67.5014 54.7943 67.4766C54.3457 67.3768 54.1611 67.2572 53.856 66.9458C53.8228 67.0459 53.7897 67.146 53.7556 67.2491C53.6885 67.3571 53.6213 67.4651 53.5522 67.5764C53.2802 67.64 53.0081 67.7036 52.7278 67.7691C53.3339 67.7915 53.94 67.8139 54.5645 67.837C54.4198 68.306 54.4198 68.306 54.0658 68.5032C53.5552 68.6678 53.1243 68.716 52.5858 68.7388C52.4139 68.7476 52.242 68.7565 52.0649 68.7656C51.607 68.7462 51.607 68.7462 51.0936 68.4621C51.1915 68.2033 51.2893 67.9445 51.3901 67.6778C50.6021 67.5428 50.1307 67.6127 49.4016 67.9252C49.53 68.0241 49.53 68.0241 49.661 68.1249C49.9222 68.363 49.9222 68.363 49.9366 68.6705C49.5514 68.7433 49.1662 68.8126 48.7797 68.8789C48.5824 68.9129 48.5824 68.9129 48.3812 68.9475C47.7017 69.0547 47.0797 69.1276 46.3925 69.0679C45.8445 69.024 45.6229 69.0417 45.128 69.2043C44.2405 69.2975 44.2405 69.2975 43.7795 69.1039C43.332 68.9284 43.0772 69.0206 42.6261 69.1677C42.5736 69.221 42.5211 69.2743 42.467 69.3292C41.9423 69.3579 41.4193 69.3739 40.894 69.3835C40.2669 69.4033 40.0082 69.4218 39.4879 69.7772C39.1586 69.7944 39.1586 69.7944 38.7892 69.7618C38.588 69.7462 38.588 69.7462 38.3827 69.7303C38.1853 69.7122 38.1853 69.7122 37.9838 69.6937C36.9998 69.6062 36.0778 69.6244 35.0901 69.7001C34.6504 69.696 34.6504 69.696 34.137 69.412C34.1848 69.2572 34.2325 69.1024 34.2817 68.9429C34.1194 69.0014 33.9572 69.0599 33.79 69.1201C33.6826 69.4356 33.6826 69.4356 33.6525 69.7428C33.4614 69.75 33.2703 69.7572 33.0734 69.7646C31.8641 69.8137 30.6682 69.8678 29.4676 70.0259C28.7191 70.1235 28.0762 70.1596 27.3327 70.0394C27.1592 69.8935 27.1592 69.8935 27.1203 69.5101C27.1231 69.1248 27.1231 69.1248 27.2822 68.9633C25.8522 68.9813 25.8522 68.9813 24.4621 69.2497C24.3595 69.407 24.2569 69.5644 24.1511 69.7265C23.9865 69.7342 23.8218 69.742 23.6522 69.7499C23.4768 69.5293 23.4768 69.5293 23.2979 69.3043C23.3098 69.558 23.3217 69.8116 23.334 70.073C22.6628 70.2714 22.1461 70.2574 21.4531 70.1709C21.1844 70.1385 21.1844 70.1385 20.9102 70.1055C20.7747 70.0878 20.6391 70.0702 20.4995 70.0519C20.3922 69.5231 20.3922 69.5231 20.2827 68.9836C19.8985 69.0016 19.5143 69.0196 19.1185 69.0382C19.2588 69.0984 19.3992 69.1585 19.5438 69.2205C19.685 69.2997 19.8262 69.3788 19.9717 69.4604C19.9788 69.6126 19.986 69.7648 19.9933 69.9216C19.084 70.1313 18.3624 70.1185 17.444 69.9835C17.3241 69.9677 17.2042 69.9518 17.0807 69.9355C16.2103 69.8166 16.2103 69.8166 15.8139 69.6555C15.8092 69.5541 15.8044 69.4526 15.7995 69.3481C15.6156 69.3853 15.4317 69.4225 15.2422 69.4609C14.6425 69.5564 14.6425 69.5564 14.3027 69.4183C14.3074 69.5198 14.3122 69.6212 14.3171 69.7258C13.5383 69.833 13.1746 69.7022 12.5077 69.3497C11.9912 69.1637 11.5079 69.1466 10.9548 69.1132C9.70202 69.0354 9.70202 69.0354 9.13493 68.7364C8.61147 68.4647 8.36108 68.4121 7.78369 68.3568C7.39668 68.3094 7.39668 68.3094 7.07915 68.2165C6.82837 67.7564 6.82837 67.7564 6.70324 67.3097C6.53621 67.2667 6.36918 67.2237 6.19709 67.1794C6.01545 66.8605 6.01545 66.8605 5.82839 66.4263C5.70985 66.2078 5.70985 66.2078 5.58892 65.985C5.29872 65.427 5.03134 64.86 4.76974 64.29C4.68655 64.1106 4.60336 63.9312 4.51765 63.7464C4.27707 63.0635 4.27707 63.0635 4.48385 62.6375C4.98416 62.4214 4.98416 62.4214 5.46729 62.2832C5.50312 61.8748 5.53896 61.4663 5.57588 61.0455C5.73815 60.987 5.90042 60.9286 6.0676 60.8684C5.9766 60.0999 5.9766 60.0999 5.50373 59.5081C5.48668 59.1863 5.48668 59.1863 5.52324 58.8139C5.53402 58.691 5.5448 58.5682 5.5559 58.4416C5.60511 58.1167 5.60511 58.1167 5.757 57.8014C5.80423 57.5431 5.84808 57.2843 5.88723 57.0249C6.21532 57.1347 6.21532 57.1347 6.56691 57.3012C6.65995 57.5256 6.65995 57.5256 6.75486 57.7546C6.70474 57.8586 6.65462 57.9627 6.60298 58.0699C6.71275 58.0647 6.82251 58.0596 6.93561 58.0543C6.93084 57.9528 6.92608 57.8513 6.92118 57.7468C7.03094 57.7416 7.14071 57.7365 7.2538 57.7312C7.06046 57.3363 6.95213 57.1608 6.52989 56.9562C6.4252 56.923 6.32051 56.8898 6.21264 56.8556C6.20788 56.7541 6.20312 56.6526 6.19821 56.5481C6.3056 56.4922 6.41298 56.4363 6.52362 56.3788C6.42134 55.9525 6.30701 55.5902 6.10345 55.1948C5.88713 54.533 6.03086 54.1316 6.22023 53.4656C5.72153 53.3873 5.22282 53.309 4.709 53.2283C4.64221 52.9772 4.57543 52.7261 4.50662 52.4674C4.77627 52.3531 5.04592 52.2388 5.32374 52.1209C5.46004 52.2417 5.59634 52.3624 5.73677 52.4867C6.1327 52.8888 6.1327 52.8888 6.524 52.835C6.86081 52.3186 6.86614 52.2645 6.7424 51.7173C6.69902 51.5255 6.65564 51.3337 6.61095 51.1361C6.44392 51.0931 6.27689 51.0501 6.1048 51.0058C5.87993 50.6134 5.72012 50.2141 5.54815 49.7993C5.27135 49.7614 4.99456 49.7236 4.70937 49.6846C4.5919 49.4012 4.5919 49.4012 4.51421 49.0774C4.8324 48.7543 4.8324 48.7543 5.26806 48.7146C5.39871 48.7148 5.52935 48.7151 5.66396 48.7153C5.78324 48.9131 5.90253 49.1109 6.02544 49.3146C6.1877 49.2562 6.34997 49.1977 6.51716 49.1375C6.61045 48.6928 6.61045 48.6928 6.64018 48.2073C6.52327 48.0602 6.40636 47.9132 6.28591 47.7617C6.29569 47.2874 6.3134 46.9573 6.61301 46.5626C6.95452 46.2929 7.11123 46.2911 7.55289 46.3041C7.74241 46.3079 7.74241 46.3079 7.93576 46.3117C8.06695 46.3168 8.19814 46.3218 8.33331 46.3271C8.46635 46.3302 8.59939 46.3334 8.73646 46.3367C9.06464 46.3449 9.39271 46.3561 9.72074 46.3679C9.74716 46.1137 9.74716 46.1137 9.77412 45.8544C9.82369 45.4014 9.88569 44.9564 9.96678 44.5074C9.74725 44.5177 9.52772 44.528 9.30154 44.5386C9.48172 43.9545 9.7094 43.8743 10.2561 43.5694C10.2073 43.4712 10.1584 43.373 10.108 43.2718C9.76298 42.5737 9.42785 41.8782 9.14282 41.1564C9.02443 41.1655 8.90604 41.1747 8.78407 41.1841C7.43513 41.2709 7.43513 41.2709 6.73403 41.1057C6.10471 40.9836 5.74751 41.0367 5.12108 41.1429C4.21109 41.2786 4.21109 41.2786 3.63064 40.9047C3.4564 40.7079 3.4564 40.7079 3.27863 40.5072C3.15649 40.4684 3.03435 40.4296 2.90851 40.3897C2.59895 40.2309 2.59895 40.2309 2.41869 39.7194C2.17889 39.0704 1.98198 38.937 1.35541 38.5944C1.17303 38.5172 0.990639 38.4399 0.802726 38.3604C0.288614 37.9981 0.248322 37.9361 0.142106 37.3802C0.0446985 36.2914 0.0613408 35.5942 0.691491 34.6581C1.21747 33.8398 1.13927 33.2873 0.903885 32.3858C0.895631 32.2557 0.887377 32.1256 0.878872 31.9915C1.19277 31.7294 1.19277 31.7294 1.52247 31.4991C1.51342 31.1918 1.50286 30.884 1.4695 30.5783C1.46262 30.1298 1.65903 29.8418 1.92762 29.4771C1.6934 29.4309 1.6934 29.4309 1.45446 29.3837C0.880746 29.2057 0.673387 29.112 0.387528 28.6249C0.41966 28.1997 0.41966 28.1997 0.517766 27.8484C0.677199 27.8028 0.836631 27.7572 1.0009 27.7102C1.166 27.6389 1.3311 27.5676 1.50121 27.4941C1.62597 27.193 1.62597 27.193 1.63866 26.8714C1.74128 26.714 1.8439 26.5567 1.94964 26.3945C1.76779 25.7958 1.52639 25.3328 1.04593 24.8962C0.878905 24.8532 0.711876 24.8102 0.539785 24.7659C0.57382 24.0195 0.885516 23.6872 1.46551 23.1817C1.70891 23.094 1.70891 23.094 1.95723 23.0045C1.95247 22.9031 1.9477 22.8016 1.9428 22.697C1.61112 22.6618 1.27944 22.6265 0.937715 22.5901C0.875689 22.4405 0.813664 22.2909 0.749759 22.1367C0.844167 22.0973 0.938575 22.058 1.03584 22.0174C1.49239 21.7428 1.72935 21.4135 2.02975 20.9981C1.8204 20.6277 1.65997 20.3918 1.32121 20.1069C1.33752 19.7884 1.33752 19.7884 1.45867 19.4842C1.70207 19.3965 1.70207 19.3965 1.95039 19.307C2.06253 19.3526 2.17468 19.3982 2.29023 19.4452C2.1614 18.9755 2.1614 18.9755 1.78814 18.8602C1.66482 18.8285 1.54151 18.7967 1.41445 18.764C1.29066 18.7311 1.16686 18.6982 1.03931 18.6643C0.94388 18.6407 0.848453 18.6172 0.750134 18.593C0.734821 18.0194 0.738379 17.4622 0.837085 16.8941C1.20905 16.607 1.20905 16.607 1.647 16.3938C1.73456 16.2086 1.82213 16.0233 1.91234 15.8325C2.09862 15.4626 2.20065 15.3168 2.59387 15.1216C3.20616 14.9471 3.58769 14.8656 4.21211 15.0376C5.11845 15.257 6.01098 15.1673 6.94196 15.1246C7.23164 15.1166 7.23164 15.1166 7.52718 15.1086C8.73181 15.0558 9.68109 14.8483 10.7901 14.4071C11.296 14.2195 11.7303 14.1667 12.2726 14.1715C12.7626 14.1715 13.186 14.1613 13.6656 14.0606C14.6159 13.8743 15.5801 13.8497 16.547 13.7975C16.7588 13.7831 16.9706 13.7687 17.1889 13.7539C17.4939 13.7376 17.4939 13.7376 17.8052 13.721C17.9904 13.7101 18.1755 13.6992 18.3663 13.6879C18.968 13.7485 19.1274 13.9421 19.5509 14.321C19.7704 14.3107 19.99 14.3004 20.2162 14.2898C20.2712 14.1442 20.2712 14.1442 20.3274 13.9957C20.5598 13.5896 20.7239 13.5087 21.1707 13.3205C21.5269 13.2792 21.5269 13.2792 21.8979 13.2768C22.5087 13.2621 23.0631 13.1918 23.6582 13.0497C23.6463 12.7961 23.6344 12.5424 23.6221 12.281C23.755 12.2557 23.8879 12.2304 24.0248 12.2044C24.164 12.1661 24.3031 12.1278 24.4465 12.0883C24.4966 11.9842 24.5467 11.8802 24.5984 11.773C24.4886 11.7782 24.3788 11.7833 24.2657 11.7886C24.261 11.6872 24.2562 11.5857 24.2513 11.4811C23.8617 11.4408 23.4711 11.4079 23.0799 11.382C23.0274 11.4353 22.9749 11.4887 22.9208 11.5436C22.3289 11.5958 21.8275 11.5817 21.2505 11.4679C21.031 11.4782 20.8114 11.4885 20.5852 11.4991C20.5781 11.3469 20.571 11.1947 20.5636 11.0379C19.3216 10.9436 19.3216 10.9436 18.0545 10.8475C18.0044 10.9515 17.9542 11.0556 17.9026 11.1628C17.8155 11.1383 17.7284 11.1137 17.6387 11.0885C17.0673 11.021 16.6255 11.0982 16.0732 11.2486C15.8961 11.56 15.8961 11.56 15.7694 11.8792C15.1418 12.1417 14.5326 12.0577 13.8671 12.0076C13.239 11.9794 12.6192 12.0236 11.9921 12.0661C11.6116 12.0743 11.6116 12.0743 11.2718 11.9362C11.2727 11.5124 11.2727 11.5124 11.3948 11.0059C12.0957 10.4197 12.68 10.2294 13.6021 10.0935C13.718 10.0762 13.8339 10.059 13.9532 10.0412C14.8833 9.91062 15.8083 9.8586 16.7476 9.8303C17.3847 9.80039 18.0119 9.73053 18.6444 9.65461C19.9884 9.49705 21.3105 9.50845 22.6607 9.5528C22.5833 10.0222 22.5001 10.4875 22.393 10.952C22.7223 10.9366 23.0516 10.9211 23.3909 10.9052C23.332 10.8222 23.2731 10.7391 23.2124 10.6536C23.0054 10.2603 22.9876 9.97185 22.9933 9.53719C23.9753 9.17604 24.9106 9.07464 25.9576 8.99363C26.1187 8.98012 26.2797 8.9666 26.4456 8.95268C26.8398 8.91976 27.234 8.88805 27.6284 8.85745C27.6761 8.70267 27.7239 8.5479 27.7731 8.38843C27.4366 8.25169 27.4366 8.25169 27.0934 8.11218C27.0886 8.01071 27.0839 7.90924 27.079 7.8047C27.2269 7.78843 27.3748 7.77215 27.5272 7.75538C27.8183 7.72235 27.8183 7.72235 28.1153 7.68866C28.3076 7.66712 28.5 7.64558 28.6982 7.62339C29.203 7.56708 29.203 7.56708 29.5544 7.45565C29.9007 7.36217 30.2036 7.33001 30.5626 7.31261C30.7485 7.30359 30.7485 7.30359 30.9381 7.29438C31.1298 7.28628 31.1298 7.28628 31.3254 7.27801C31.4544 7.27136 31.5834 7.26471 31.7164 7.25786C32.6761 7.21437 32.6761 7.21437 33.059 7.36999C33.1814 7.75907 33.1814 7.75907 33.2614 8.13088C32.9415 8.13586 32.6216 8.14084 32.3017 8.14582C31.8561 8.20288 31.5141 8.35279 31.1137 8.53981C31.4285 8.51152 31.743 8.48009 32.0574 8.44738C32.2325 8.43022 32.4077 8.41306 32.5882 8.39539C33.1081 8.32357 33.1081 8.32357 33.4933 8.03814C34.0637 7.70322 34.5109 7.71874 35.1789 7.70385C35.5066 7.69473 35.5066 7.69473 35.8409 7.68542C36.0276 7.68202 36.2144 7.67862 36.4068 7.67511C36.898 7.66858 36.898 7.66858 37.3279 7.54522C37.7301 7.45894 37.7301 7.45894 38.07 7.59707C38.0321 7.44948 37.9942 7.3019 37.9552 7.14985C37.9083 6.91849 37.9083 6.91849 37.8604 6.68245C38.2756 6.26078 39.2438 6.30634 39.8195 6.25347C40.8841 6.21691 41.869 6.42953 42.8641 6.75578C43.0288 6.74805 43.1934 6.74033 43.3631 6.73237C43.4776 6.82868 43.5921 6.925 43.7101 7.02423C43.8199 7.01908 43.9296 7.01393 44.0427 7.00862C44.0905 6.85385 44.1382 6.69907 44.1874 6.5396C44.6801 6.46 45.1729 6.38266 45.6661 6.3065C45.8036 6.28407 45.941 6.26163 46.0826 6.23851C47.3186 6.05066 48.4859 6.0236 49.6901 6.36804C49.8175 6.40357 49.9449 6.43911 50.0761 6.47572C50.2143 6.5166 50.2143 6.5166 50.3554 6.5583C50.3052 6.66235 50.2551 6.76639 50.2035 6.87358C50.0388 6.88131 49.8742 6.88904 49.7045 6.897C49.7117 7.0492 49.7188 7.2014 49.7262 7.35821C49.8187 7.35208 49.9112 7.34595 50.0066 7.33963C50.7398 7.29719 51.432 7.30069 52.1641 7.36417C52.8919 7.39187 53.6182 7.33189 54.3448 7.28591C54.8312 7.27169 55.2505 7.31538 55.7278 7.38472C55.9883 7.33632 56.2486 7.28715 56.5079 7.23315C57.1996 7.12889 57.9001 7.12654 58.599 7.10553C59.0594 7.0767 59.476 7.02828 59.9272 6.95232C60.749 6.8215 61.5487 6.81902 62.3794 6.83182C62.5959 6.83373 62.5959 6.83373 62.8168 6.83567C63.1678 6.83891 63.5189 6.84358 63.8699 6.84855C63.8102 6.74966 63.7506 6.65076 63.6891 6.54888C63.2827 6.51488 62.8958 6.49979 62.4888 6.49928C62.2697 6.49625 62.0506 6.49323 61.8249 6.49011C61.2496 6.51005 60.7545 6.5883 60.1966 6.71278C59.5346 6.68426 59.0599 6.50621 58.5046 6.17587C58.4999 6.07441 58.4951 5.97294 58.4902 5.8684C59.5326 5.69417 60.5467 5.61417 61.6018 5.57793C62.7578 5.53717 63.825 5.40311 64.9545 5.15517C65.4951 5.07309 65.9176 5.1274 66.4587 5.1863C66.9077 5.14803 67.3495 5.10175 67.796 5.04651C68.9537 4.91499 70.0828 4.87903 71.2474 4.89417C72.1958 4.90491 73.0601 4.89647 73.9875 4.67891C75.2158 4.39229 76.45 4.43609 77.7062 4.44752C77.873 4.44873 78.0397 4.44995 78.2114 4.4512C78.4358 4.4545 78.4358 4.4545 78.6646 4.45788C79.1074 4.4387 79.4869 4.34855 79.9155 4.24664C80.3594 4.26301 80.7911 4.28894 81.232 4.32931C82.6996 4.51926 82.6996 4.51925 84.0805 4.20526C84.4108 4.18976 84.741 4.17462 85.0715 4.16357C85.4763 4.13883 85.8471 4.05919 86.2353 3.95006C86.2282 3.79786 86.2211 3.64566 86.2137 3.48885ZM40.5502 7.17252C41.2227 7.29504 41.2227 7.29504 41.2227 7.29504L40.5502 7.17252ZM28.9156 7.87259C28.9204 7.97405 28.9251 8.07552 28.93 8.18006C29.0374 8.12418 29.1448 8.06829 29.2554 8.01071C29.1433 7.96513 29.0312 7.91955 28.9156 7.87259ZM43.3991 7.50105C43.4612 7.65068 43.5232 7.8003 43.5871 7.95446C43.6969 7.94931 43.8066 7.94416 43.9197 7.93885C43.8577 7.78923 43.7957 7.6396 43.7318 7.48544C43.622 7.49059 43.5122 7.49574 43.3991 7.50105ZM67.8469 6.35376C67.7419 6.46038 67.6369 6.56699 67.5287 6.67684C67.9688 6.79958 68.1427 6.82509 68.5686 6.63767C68.6621 6.57926 68.7557 6.52085 68.852 6.46067C68.3647 6.37907 68.3647 6.37907 67.8469 6.35376ZM29.5953 8.14884C29.4342 8.23267 29.4342 8.23267 29.2699 8.31819C29.277 8.47039 29.2842 8.62259 29.2915 8.7794C29.4562 8.77167 29.6208 8.76395 29.7905 8.75599C29.7261 8.55563 29.6616 8.35527 29.5953 8.14884ZM37.0865 7.95137C37.0913 8.05283 37.096 8.1543 37.1009 8.25884C37.3754 8.24596 37.6498 8.23309 37.9325 8.21982C37.9277 8.11835 37.923 8.01689 37.9181 7.91234C37.6437 7.92522 37.3692 7.9381 37.0865 7.95137ZM65.8584 6.60115C65.7534 6.70777 65.6484 6.81439 65.5402 6.92424C65.7049 6.91651 65.8695 6.90878 66.0391 6.90082C65.9795 6.80193 65.9199 6.70304 65.8584 6.60115ZM67.3768 6.99212C67.3816 7.09359 67.3864 7.19506 67.3913 7.2996C67.501 7.29445 67.6108 7.28929 67.7239 7.28399C67.7191 7.18252 67.7144 7.08105 67.7095 6.97651C67.5997 6.98166 67.4899 6.98682 67.3768 6.99212ZM59.0685 7.5361C59.0756 7.6883 59.0828 7.8405 59.0901 7.99731C59.1951 7.89069 59.3001 7.78407 59.4083 7.67422C59.2962 7.62864 59.184 7.58306 59.0685 7.5361ZM50.5938 8.08787C50.6132 8.39012 50.6132 8.39012 50.789 8.69502C51.2967 8.87219 51.2967 8.87219 51.8013 8.95566C51.8514 8.85162 51.9015 8.74758 51.9532 8.64038C51.841 8.5948 51.7289 8.54922 51.6133 8.50226C51.5513 8.35263 51.4893 8.20301 51.4254 8.04885C51.151 8.06173 50.8765 8.0746 50.5938 8.08787ZM48.786 8.63494C48.8457 8.73383 48.9053 8.83272 48.9668 8.93461C49.0742 8.87872 49.1815 8.82284 49.2922 8.76526C49.1252 8.72225 48.9581 8.67925 48.786 8.63494ZM55.6147 8.52633C55.4308 8.78008 55.4308 8.78008 55.4746 9.09143C55.2527 9.051 55.0307 9.01057 54.8021 8.96892C55.0663 9.29033 55.0663 9.29033 55.4962 9.55265C56.4583 9.59624 57.234 9.40651 58.1428 9.1203C58.076 8.86921 58.0092 8.61811 57.9404 8.35941C57.2065 8.17046 56.242 8.08512 55.6147 8.52633ZM59.0973 8.15104C59.1594 8.30067 59.2214 8.45029 59.2853 8.60445C59.1755 8.6096 59.0658 8.61475 58.9527 8.62006C58.9574 8.72153 58.9622 8.82299 58.9671 8.92754C59.969 9.08481 60.9584 9.00179 61.9679 8.94079C61.9608 8.78859 61.9536 8.63639 61.9463 8.47958C60.9556 8.05783 60.1788 8.04574 59.0973 8.15104ZM44.2956 8.84566C44.1345 8.92949 44.1345 8.92949 43.9702 9.01501C43.975 9.11648 43.9797 9.21794 43.9846 9.32248C44.2567 9.25887 44.5287 9.19526 44.809 9.12972C44.6396 9.03598 44.4702 8.94224 44.2956 8.84566ZM58.1067 8.35161C58.7791 8.47413 58.7791 8.47413 58.7791 8.47413L58.1067 8.35161ZM65.4244 8.0082C65.3767 8.16298 65.3289 8.31775 65.2797 8.47722C65.4969 8.41618 65.714 8.35515 65.9378 8.29226C65.933 8.1908 65.9282 8.08933 65.9233 7.98479C65.7587 7.99252 65.594 8.00024 65.4244 8.0082ZM21.5394 14.0736C21.8139 14.0607 22.0883 14.0479 22.371 14.0346C22.3662 13.9331 22.3615 13.8317 22.3566 13.7271C21.9688 13.7168 21.9688 13.7168 21.5394 14.0736ZM107.842 63.0257C107.792 63.1297 107.742 63.2337 107.69 63.3409C107.855 63.3332 108.02 63.3255 108.189 63.3175C108.185 63.2161 108.18 63.1146 108.175 63.01C108.065 63.0152 107.955 63.0204 107.842 63.0257ZM112.86 63.4065C112.591 63.718 112.591 63.718 112.39 64.0448C112.61 64.0345 112.829 64.0242 113.056 64.0136C113.444 63.9954 113.832 63.9772 114.22 63.959C113.616 63.487 113.616 63.487 112.86 63.4065ZM121.689 63.3003C121.896 63.6125 121.896 63.6125 122.217 63.8918C122.638 63.9464 122.638 63.9464 123.082 63.8898C123.231 63.8772 123.381 63.8646 123.535 63.8516C123.649 63.8392 123.763 63.8267 123.88 63.8138C123.981 63.6057 124.081 63.3976 124.184 63.1832C123.318 62.529 122.612 62.9278 121.689 63.3003ZM128.002 62.85C128.012 63.0529 128.021 63.2558 128.031 63.4649C128.471 63.5877 128.645 63.6132 129.071 63.4258C129.164 63.3673 129.258 63.3089 129.354 63.2487C128.909 62.8744 128.591 62.8931 128.002 62.85ZM138.48 62.3583C138.539 62.4572 138.599 62.5561 138.66 62.6579C138.71 62.5539 138.761 62.4499 138.812 62.3427C138.702 62.3478 138.593 62.353 138.48 62.3583ZM96.5908 64.7863C96.6504 64.8852 96.7101 64.9841 96.7715 65.0859C96.9178 65.0537 97.0641 65.0214 97.2149 64.9881C97.6855 64.8998 98.1158 64.8558 98.5937 64.8464C98.589 64.7449 98.5842 64.6434 98.5793 64.5389C98.339 64.5158 98.0983 64.4956 97.8576 64.4765C97.7236 64.4649 97.5896 64.4533 97.4516 64.4413C97.026 64.4245 97.026 64.4245 96.5908 64.7863ZM111.703 63.6148C111.542 63.6987 111.542 63.6987 111.378 63.7842C111.385 63.9364 111.392 64.0886 111.4 64.2454C111.669 64.1311 111.939 64.0167 112.217 63.8989C112.047 63.8052 111.878 63.7114 111.703 63.6148ZM119.028 63.4252C119.031 63.4759 119.033 63.5266 119.036 63.5789C119.31 63.5994 119.31 63.5994 119.59 63.6203C120.207 63.678 120.207 63.678 120.713 63.8083C121.067 63.6569 121.067 63.6569 121.364 63.4696C121.362 63.4189 121.359 63.3682 121.357 63.3159C120.588 63.352 119.82 63.388 119.028 63.4252ZM142.312 62.3325C142.151 62.4163 142.151 62.4163 141.987 62.5019C141.991 62.6033 141.996 62.7048 142.001 62.8093C142.216 62.6976 142.431 62.5858 142.652 62.4706C142.54 62.4251 142.428 62.3795 142.312 62.3325ZM193.702 59.9209C193.652 60.0249 193.602 60.1289 193.55 60.2361C193.715 60.2284 193.88 60.2207 194.049 60.2127C194.045 60.1112 194.04 60.0098 194.035 59.9052C193.925 59.9104 193.815 59.9155 193.702 59.9209ZM87.1038 65.0774C87.1086 65.1789 87.1133 65.2803 87.1182 65.3849C87.2805 65.3264 87.4428 65.268 87.61 65.2077C87.4429 65.1647 87.2759 65.1217 87.1038 65.0774ZM99.0782 64.5155C99.1379 64.6144 99.1975 64.7133 99.259 64.8151C99.531 64.7515 99.803 64.6879 100.083 64.6224C100.024 64.5235 99.964 64.4246 99.9026 64.3227C99.5341 64.3238 99.5341 64.3238 99.0782 64.5155ZM105.564 64.2111C105.736 64.3556 105.908 64.5 106.085 64.6489C106.247 64.5904 106.409 64.532 106.577 64.4717C106.572 64.3703 106.567 64.2688 106.562 64.1643C106.233 64.1797 105.904 64.1952 105.564 64.2111ZM133.837 62.8843C133.897 62.9832 133.957 63.0821 134.018 63.184C134.18 63.1255 134.343 63.067 134.51 63.0068C134.288 62.9664 134.066 62.9259 133.837 62.8843ZM140.157 62.5877C140.162 62.6892 140.167 62.7906 140.172 62.8952C140.334 62.8367 140.496 62.7783 140.663 62.718C140.496 62.675 140.329 62.632 140.157 62.5877ZM67.3272 66.3136C67.2794 66.4684 67.2317 66.6232 67.1825 66.7827C67.5667 66.7646 67.9509 66.7466 68.3467 66.728C68.2416 66.6853 68.1364 66.6426 68.0281 66.5985C67.7945 66.5036 67.5608 66.4086 67.3272 66.3136ZM155.147 62.3465C155.261 62.4428 155.376 62.5391 155.494 62.6384C155.489 62.5369 155.484 62.4354 155.479 62.3309C155.37 62.336 155.26 62.3412 155.147 62.3465ZM188.084 60.9549C188.086 61.0056 188.088 61.0564 188.091 61.1086C188.365 61.0958 188.64 61.0829 188.922 61.0696C188.92 61.0189 188.918 60.9681 188.915 60.9159C188.641 60.9288 188.366 60.9416 188.084 60.9549ZM193.239 60.713C193.244 60.8144 193.249 60.9159 193.254 61.0204C193.473 61.0101 193.693 60.9998 193.919 60.9892C193.914 60.8877 193.91 60.7863 193.905 60.6817C193.685 60.692 193.466 60.7023 193.239 60.713ZM194.924 61.0961C195.454 61.4208 195.682 61.5312 196.326 61.4444C196.545 61.3817 196.545 61.3817 196.768 61.3177C196.813 61.1122 196.859 60.9067 196.905 60.695C196.635 60.6994 196.364 60.7061 196.094 60.7138C195.943 60.7173 195.792 60.7208 195.637 60.7244C195.209 60.7371 195.209 60.7371 194.924 61.0961ZM30.1239 69.1381C31.1363 69.2286 32.1093 69.2163 33.1247 69.1513C33.12 69.0498 33.1152 68.9484 33.1103 68.8438C31.5045 68.485 31.5045 68.485 30.1239 69.1381ZM45.2366 67.9666C45.1364 68.1747 45.0361 68.3828 44.9328 68.5972C45.11 68.5634 45.2872 68.5297 45.4698 68.4949C46.3914 68.3421 47.3187 68.3182 48.2519 68.2873C48.1922 68.1885 48.1326 68.0896 48.0711 67.9877C47.1357 67.9807 46.2003 67.9738 45.2366 67.9666ZM37.767 68.6253C37.7718 68.7268 37.7766 68.8282 37.7815 68.9328C37.9485 68.9758 38.1155 69.0188 38.2876 69.0631C38.333 68.8576 38.3783 68.6521 38.4251 68.4403C38.079 68.4336 38.079 68.4336 37.767 68.6253ZM38.924 68.4169C38.9836 68.5158 39.0433 68.6147 39.1047 68.7166C39.7335 68.7263 40.3622 68.7307 40.9911 68.734C41.2593 68.7383 41.2593 68.7383 41.5329 68.7426C41.7042 68.743 41.8756 68.7434 42.0522 68.7438C42.2893 68.746 42.2893 68.746 42.5311 68.7482C43.0074 68.7213 43.0074 68.7213 43.4144 68.2062C41.9326 68.2757 40.4507 68.3453 38.924 68.4169ZM201.078 60.8073C201.082 60.9088 201.087 61.0103 201.092 61.1148C201.199 61.0589 201.307 61.003 201.417 60.9455C201.305 60.8999 201.193 60.8543 201.078 60.8073ZM44.0797 68.175C43.7575 68.3426 43.7575 68.3426 43.4288 68.5137C43.5959 68.5567 43.7629 68.5997 43.935 68.644C44.0424 68.5881 44.1497 68.5322 44.2604 68.4747C44.2007 68.3758 44.1411 68.2769 44.0797 68.175ZM193.116 61.6432C193.066 61.7472 193.016 61.8513 192.964 61.9585C193.129 61.9507 193.294 61.943 193.463 61.935C193.459 61.8336 193.454 61.7321 193.449 61.6276C193.339 61.6327 193.229 61.6379 193.116 61.6432ZM213.254 61.0063C213.259 61.1077 213.264 61.2092 213.269 61.3138C213.379 61.3086 213.488 61.3035 213.602 61.2981C213.597 61.1967 213.592 61.0952 213.587 60.9907C213.477 60.9958 213.368 61.001 213.254 61.0063ZM219.422 61.025C219.432 61.2279 219.441 61.4308 219.451 61.6399C220.024 61.5368 220.024 61.5368 220.608 61.4316C220.603 61.3301 220.599 61.2286 220.594 61.1241C220.207 61.0914 219.821 61.0587 219.422 61.025ZM223.428 61.1451C223.435 61.2973 223.443 61.4495 223.45 61.6064C223.607 61.4464 223.765 61.2865 223.927 61.1217C223.763 61.1295 223.598 61.1372 223.428 61.1451ZM227.087 60.9734C227.039 61.1282 226.992 61.283 226.943 61.4425C227.382 61.4219 227.821 61.4012 228.273 61.38C228.213 61.2811 228.154 61.1822 228.092 61.0804C227.584 61.0029 227.584 61.0029 227.087 60.9734ZM231.932 61.2083C231.937 61.3098 231.941 61.4112 231.946 61.5158C232.516 61.5148 232.516 61.5148 233.11 61.4612C233.215 61.3545 233.32 61.2479 233.429 61.1381C232.935 61.1613 232.441 61.1844 231.932 61.2083ZM238.273 61.373C238.449 61.5935 238.449 61.5935 238.628 61.8186C238.845 61.7575 239.062 61.6965 239.286 61.6336C239.171 61.5373 239.057 61.441 238.939 61.3417C238.719 61.352 238.5 61.3623 238.273 61.373Z" fill="#A8D5BA"/>
</svg>
