<svg width="144" height="144" viewBox="0 0 144 144" fill="none" xmlns="http://www.w3.org/2000/svg">
<circle cx="72" cy="72" r="72" fill="#F4A261"/>
<g filter="url(#filter0_d_1148_320)">
<path d="M99.1581 27.0003C98.9205 27.0003 98.6632 27.0201 98.4257 27.032C97.7725 27.0835 97.0995 27.1984 96.4067 27.3826C93.7542 28.0955 90.9632 29.8383 88.6275 32.908C88.39 33.8883 88.4098 34.7558 88.6473 35.3955C89.0432 36.3916 89.9735 37.3264 92.7843 37.776L92.2301 41.2873C89.2411 40.8199 87.044 39.5445 85.8761 37.7621C84.7478 40.4674 83.8967 43.7431 83.5008 47.6842L83.4018 48.4764L82.7684 48.9517C59.0747 66.1222 40.0919 85.7881 27 104.345C45.8917 100.226 63.7659 95.8092 77.2062 88.7984C91.3195 81.4113 100.524 71.4892 101.791 55.7248C101.791 54.1206 101.375 53.0512 100.821 52.2788C100.148 51.3876 99.1977 50.8529 98.1486 50.6351C97.0995 50.3974 95.9712 50.536 95.1398 50.8925C94.3283 51.249 93.8928 51.7243 93.7344 52.3184L90.2902 51.447C90.7455 49.625 92.1509 48.2981 93.7146 47.6248C96.8421 46.3375 100.524 46.991 102.899 49.2685C103.473 47.3277 104.206 45.3274 104.879 43.3668C105.057 42.8519 105.235 42.337 105.393 41.8418C108.323 38.9741 111.391 37.263 116.953 41.8617C117.567 36.4768 112.044 31.2068 106.878 32.3119C106.383 30.4265 105.235 29.056 103.671 28.1431C102.424 27.4004 100.86 26.9865 99.1581 27.0003ZM101.811 30.4146C102.8 30.4146 103.592 31.2128 103.592 32.197C103.592 33.1813 102.8 33.9794 101.811 33.9794C100.821 33.9794 100.029 33.1813 100.029 32.197C100.029 31.2128 100.821 30.4146 101.811 30.4146ZM95.5753 79.3318C93.774 81.3717 91.7748 83.2531 89.5776 85.0157C89.2213 89.5707 88.8848 94.304 87.0242 98.9185C87.9743 98.9977 88.9046 99.0373 89.7162 98.9779C90.6465 98.8987 91.3789 98.7006 91.8144 98.4432C92.2697 98.1659 92.5072 97.9282 92.6853 97.3341C94.3876 91.4522 95.0804 85.4316 95.5753 79.3318ZM85.698 87.8874C83.5404 89.3331 81.264 90.6798 78.8491 91.9473C76.8895 92.9771 74.8507 93.9277 72.7525 94.8585L74.1777 100.305C74.3954 101.137 74.6725 101.335 75.3455 101.552C75.9988 101.77 77.0874 101.77 78.2355 101.533C79.4034 101.295 80.6108 100.82 81.5214 100.325C82.4319 99.8295 83.0257 99.1165 82.9268 99.3146C84.728 95.8092 85.3021 91.9473 85.698 87.8874ZM57.3723 100.443C50.2662 102.602 42.7246 104.484 34.9692 106.246C34.1438 107.415 33.4965 108.682 33.2886 109.534C33.1857 109.969 33.1996 110.247 33.2233 110.346C35.7827 111.752 39.4407 112.247 41.9922 112.168C45.278 112.049 48.5837 111.257 50.5829 110.306C52.4634 109.435 54.9376 105.791 56.5608 102.285C56.8577 101.651 57.115 101.038 57.3723 100.443ZM91.3393 102.345C90.8841 102.424 90.4486 102.483 89.9933 102.523C89.2609 102.582 88.5087 102.582 87.7566 102.543L88.6473 113.435H79.4232L80.0368 104.761C79.6805 104.86 79.3242 104.939 78.9679 105.018C78.1365 105.197 77.2854 105.296 76.4144 105.296L75.8602 113.435H69.3479L66.5767 117H107.234L104.067 113.435H92.2301L91.3393 102.345Z" fill="#FFF9F3"/>
</g>
<defs>
<filter id="filter0_d_1148_320" x="23" y="27" width="98" height="98" filterUnits="userSpaceOnUse" color-interpolation-filters="sRGB">
<feFlood flood-opacity="0" result="BackgroundImageFix"/>
<feColorMatrix in="SourceAlpha" type="matrix" values="0 0 0 0 0 0 0 0 0 0 0 0 0 0 0 0 0 0 127 0" result="hardAlpha"/>
<feOffset dy="4"/>
<feGaussianBlur stdDeviation="2"/>
<feComposite in2="hardAlpha" operator="out"/>
<feColorMatrix type="matrix" values="0 0 0 0 0 0 0 0 0 0 0 0 0 0 0 0 0 0 0.25 0"/>
<feBlend mode="normal" in2="BackgroundImageFix" result="effect1_dropShadow_1148_320"/>
<feBlend mode="normal" in="SourceGraphic" in2="effect1_dropShadow_1148_320" result="shape"/>
</filter>
</defs>
</svg>
