<svg width="144" height="144" viewBox="0 0 144 144" fill="none" xmlns="http://www.w3.org/2000/svg">
<circle cx="72" cy="72" r="72" fill="#F4A261"/>
<g filter="url(#filter0_d_1148_325)">
<path d="M114.471 47.8411C114.778 47.7843 115.15 47.7481 115.435 47.7067C115.811 47.6995 116.183 47.7868 116.512 47.96C116.568 47.9895 116.631 48.0029 116.694 47.9986C116.758 47.9944 116.818 47.9726 116.869 47.936C116.92 47.8994 116.958 47.8495 116.98 47.7923C117.002 47.7351 117.006 47.6731 116.992 47.6137C116.884 47.2882 116.728 46.9006 116.642 46.6318C116.602 46.5143 116.532 46.4084 116.438 46.3243C116.343 46.2401 116.228 46.1806 116.103 46.1512C115.955 46.1203 115.826 46.0344 115.745 45.9123C115.663 45.7902 115.635 45.6419 115.667 45.5001C115.715 45.2991 115.805 45.1093 115.931 44.942C116.307 44.4804 116.572 43.9438 116.704 43.3715C116.836 42.7992 116.833 42.2057 116.696 41.6346C116.505 41.0813 116.126 40.606 115.618 40.2858C115.567 40.2564 115.523 40.2168 115.489 40.1696C115.456 40.1224 115.433 40.0688 115.423 40.0124C115.412 39.9559 115.415 39.8981 115.43 39.8427C115.445 39.7873 115.473 39.7357 115.511 39.6915C115.659 39.4959 115.742 39.2615 115.748 39.0197C115.729 38.4995 115.62 37.9859 115.425 37.5004C115.374 37.213 115.374 36.9195 115.425 36.6322C115.511 36.2291 114.961 35.981 114.961 35.981C114.961 35.981 115.376 35.5573 114.961 34.7097C114.547 33.8622 111.73 33.5987 111.73 33.5987C111.73 33.5987 112.145 31.8675 109.872 31.0148C108.036 30.343 106.571 33.0819 106.07 34.2033C106.004 34.3368 105.892 34.4443 105.752 34.5074C105.613 34.5705 105.455 34.5854 105.306 34.5495C105.229 34.5412 105.156 34.5131 105.094 34.4683C105.032 34.4235 104.984 34.3636 104.955 34.2948C104.926 34.2261 104.917 34.1511 104.928 34.0778C104.939 34.0044 104.971 33.9353 105.02 33.8777L106.528 32.3274C106.593 32.2583 106.64 32.1752 106.665 32.0851C106.689 31.9949 106.691 31.9005 106.669 31.8096C106.647 31.7188 106.603 31.6344 106.54 31.5635C106.477 31.4926 106.397 31.4373 106.307 31.4024L106.135 31.3248L106.221 31.2887C106.539 31.183 106.801 30.9604 106.949 30.6697C107.096 30.379 107.117 30.044 107.007 29.7383V29.7332C106.945 29.5622 106.844 29.4066 106.712 29.2771C106.579 29.1476 106.419 29.0475 106.243 28.9838L105.93 28.865C105.61 28.7397 105.346 28.5088 105.187 28.2138L104.95 27.7539C104.811 27.5086 104.6 27.3073 104.344 27.1743C104.088 27.0414 103.797 26.9824 103.507 27.0046C101.694 27.1581 99.9919 27.9106 98.6923 29.1337C95.9404 31.5574 94.0125 42.172 93.684 44.265C93.6438 44.5089 93.5317 44.7367 93.3609 44.9213C93.0736 45.252 92.5926 45.7774 91.9176 46.4975C89.4099 49.0344 86.2304 50.869 82.7195 51.8048C78.6094 52.2754 74.4722 52.4929 70.3332 52.456C66.0236 52.4882 61.7429 51.7794 57.6938 50.363C54.7965 48.7403 52.3247 40.3065 49.0234 37.1748C46.656 35.0959 43.7607 33.6506 40.6277 32.9837C40.0235 32.8663 39.4039 32.8402 38.7913 32.9062C38.7161 32.9162 38.6394 32.906 38.5699 32.8765C38.5004 32.8471 38.4408 32.7997 38.3977 32.7397C38.3547 32.6796 38.3299 32.6092 38.3262 32.5364C38.3225 32.4636 38.3399 32.3912 38.3767 32.3274C38.5269 32.0999 38.6583 31.8614 38.7698 31.6142C38.8129 31.3662 38.3982 30.7512 38.3982 30.7512L37.655 30.1724L37.3481 29.7693L36.5133 29.5213L36.3625 29.4231C36.3146 29.3992 36.2619 29.3851 36.2079 29.3819C36.154 29.3786 36.0999 29.3863 36.0492 29.4043C35.9984 29.4223 35.9522 29.4503 35.9134 29.4864C35.8747 29.5226 35.8442 29.5662 35.824 29.6143L35.5817 30.2913C35.5817 30.2913 35.0431 29.2577 34.6823 29.4231C34.0953 29.7125 34.6823 31.2318 34.6823 31.2318C34.6823 31.2318 33.6052 29.5006 33.0021 29.7693C31.925 30.2344 33.2175 32.4618 33.2175 32.4618C33.2175 32.4618 32.4097 31.0975 31.8442 31.3093C31.5588 31.4024 31.8442 33.1181 31.8442 33.1181C31.8442 33.1181 31.2572 32.9217 31.0364 33.0199C30.8157 33.1181 31.2788 34.4617 31.2788 34.4617H30.5895C30.4998 34.4595 30.4116 34.4842 30.3373 34.5324C30.263 34.5805 30.2062 34.6498 30.1748 34.7304L30.0886 34.963L29.6955 35.2679C29.5399 35.3909 29.4214 35.5516 29.3523 35.7333C29.2832 35.915 29.266 36.1112 29.3024 36.3014L29.3885 36.7459L29.2754 37.2058L29.3239 37.7226C28.7009 38.1627 28.135 38.6727 27.6383 39.2419C27.1928 39.9535 26.972 40.7739 27.0028 41.6036C27.2597 41.318 27.593 41.1054 27.9668 40.9886L28.9954 40.4718C29.628 40.1624 30.3426 40.0418 31.0472 40.1256H32.3397C32.0673 40.7192 31.8859 41.3476 31.8012 41.9912C31.8012 42.4222 31.8992 42.8481 32.0882 43.2391C32.2773 43.6301 32.5529 43.9769 32.8958 44.2553C33.2387 44.5337 33.6407 44.7371 34.0739 44.8512C34.5071 44.9653 34.961 44.9875 35.404 44.9161C35.8353 44.8597 36.248 44.7111 36.6115 44.4812C36.975 44.2514 37.2801 43.9461 37.5042 43.588C35.7104 47.1649 34.5423 51.0007 34.0468 54.9417C33.347 61.0562 35.1227 67.1949 39.0067 72.0884C45.2645 79.7471 54.6673 81.6643 56.9237 83.2198C59.1802 84.7753 62.169 87.9897 64.2693 89.0646C66.1273 90.0258 68.8199 92.8319 71.7711 95.0076C72.8393 95.8639 73.9981 96.6104 75.2285 97.2349C74.3782 100.888 73.1849 104.46 71.6634 107.906C71.5267 108.177 71.3054 108.4 71.0303 108.545C70.7552 108.689 70.44 108.748 70.1286 108.713C68.6324 108.574 67.1281 108.536 65.6264 108.599C64.6238 108.771 63.647 109.061 62.7183 109.462C62.4975 109.539 62.5891 109.808 62.8045 109.808C63.8331 109.808 65.4056 109.808 65.998 109.865C65.998 109.865 67.1774 110.211 67.1989 110.211C67.0266 110.211 65.5833 110.253 65.341 110.273C63.1294 110.408 60.9344 110.73 58.7817 111.234C58.7395 111.248 58.7034 111.275 58.6794 111.311C58.6555 111.347 58.6452 111.39 58.6503 111.432C58.6553 111.475 58.6754 111.514 58.7072 111.544C58.739 111.574 58.7805 111.592 58.8248 111.596C59.9018 111.694 61.9752 111.886 62.8907 112.02C64.2693 112.232 64.8402 112.867 66.2834 113.116C65.7606 113.452 65.2029 113.736 64.6194 113.963C63.9193 114.118 62.9391 115.694 62.3468 116.733C62.2606 116.883 62.4545 117.059 62.6537 116.981C63.8762 116.366 66.5904 114.981 66.9189 114.867C69.1106 113.962 71.4064 113.31 73.7583 112.924C73.9144 112.888 74.1783 112.826 74.6145 112.175C75.7939 112.33 77.1079 112.542 78.1796 112.733C77.6586 113.071 77.1006 113.354 76.5156 113.575C75.8155 113.73 74.9 115.25 74.2645 116.309C74.247 116.349 74.2432 116.393 74.2537 116.435C74.2642 116.477 74.2883 116.514 74.3227 116.542C74.357 116.57 74.3996 116.586 74.4444 116.589C74.4892 116.592 74.5337 116.581 74.5715 116.557C75.6485 115.963 77.6519 114.826 78.5297 114.387C80.8296 113.556 83.2087 112.944 85.6329 112.557C85.8106 112.521 86.1391 112.423 86.71 111.441C86.9129 111.102 87.2419 110.849 87.6309 110.733C88.369 110.458 89.1394 110.27 89.925 110.175C90.4097 110.692 91.9822 110.692 92.6823 110.656H93.1401C93.166 110.656 93.1917 110.65 93.2139 110.637C93.2361 110.624 93.254 110.606 93.2654 110.583C93.2768 110.561 93.2812 110.536 93.278 110.511C93.2749 110.486 93.2644 110.463 93.2478 110.444L92.9462 110.139C92.9462 110.098 92.1761 109.348 91.6106 108.831C90.5047 108.416 89.3168 108.239 88.1317 108.315C88.6379 107.007 89.2465 105.333 89.925 103.085C90.5605 101.162 91.1313 99.2193 91.5891 97.5295C94.1194 96.3485 96.0938 94.297 97.1198 91.7829C98.8882 90.5788 100.382 89.0411 101.51 87.264C102.638 85.4868 103.376 83.5076 103.679 81.4473C103.268 77.2032 102.216 73.0391 100.556 69.0859C102.935 68.7759 105.241 68.0767 107.373 67.0188C109.974 64.7019 111.594 61.5467 111.924 58.156C112.132 56.3822 112.22 54.5973 112.188 52.8125C112.209 52.6207 112.28 52.437 112.395 52.2788C112.51 52.1206 112.665 51.9931 112.845 51.9082C113.125 51.7927 113.389 51.6452 113.631 51.4689C114.527 51.1622 115.453 50.9407 116.394 50.8074C116.455 50.8029 116.513 50.7837 116.564 50.7517C116.615 50.7197 116.656 50.6759 116.685 50.6244C116.713 50.5728 116.728 50.5152 116.727 50.4568C116.726 50.3985 116.709 50.3413 116.679 50.2906C116.37 49.8818 115.994 49.5239 115.565 49.2312L114.294 48.4251C114.241 48.3839 114.203 48.329 114.183 48.2671C114.163 48.2052 114.163 48.139 114.182 48.0768C114.2 48.0146 114.238 47.9591 114.29 47.9172C114.341 47.8753 114.404 47.8488 114.471 47.8411ZM83.8504 107.865C83.635 108.33 82.7733 108.33 82.1917 108.289C80.6524 108.123 79.101 108.085 77.5549 108.175C76.9528 108.226 76.3541 108.308 75.7616 108.423C76.2409 107.157 78.912 98.8317 79.4344 96.9455C80.8671 96.288 82.2289 95.497 83.5003 94.5838C85.0351 93.2195 85.1644 92.5425 85.1644 92.5425C85.4665 94.1435 86.3222 95.6 87.5932 96.6768C86.6995 100.507 85.4468 104.251 83.8504 107.865Z" fill="#FFF9F3"/>
</g>
<defs>
<filter id="filter0_d_1148_325" x="23" y="27" width="98" height="98" filterUnits="userSpaceOnUse" color-interpolation-filters="sRGB">
<feFlood flood-opacity="0" result="BackgroundImageFix"/>
<feColorMatrix in="SourceAlpha" type="matrix" values="0 0 0 0 0 0 0 0 0 0 0 0 0 0 0 0 0 0 127 0" result="hardAlpha"/>
<feOffset dy="4"/>
<feGaussianBlur stdDeviation="2"/>
<feComposite in2="hardAlpha" operator="out"/>
<feColorMatrix type="matrix" values="0 0 0 0 0 0 0 0 0 0 0 0 0 0 0 0 0 0 0.25 0"/>
<feBlend mode="normal" in2="BackgroundImageFix" result="effect1_dropShadow_1148_325"/>
<feBlend mode="normal" in="SourceGraphic" in2="effect1_dropShadow_1148_325" result="shape"/>
</filter>
</defs>
</svg>
