<svg width="144" height="144" viewBox="0 0 144 144" fill="none" xmlns="http://www.w3.org/2000/svg">
<circle cx="72" cy="72" r="72" fill="#F4A261"/>
<g filter="url(#filter0_d_1148_317)">
<path d="M78.6361 30.9604C78.6868 38.0499 80.4973 45.0036 83.8897 51.1387C87.2821 57.2737 92.1398 62.3792 97.9858 65.9537C90.6362 63.922 84.062 59.5698 79.1566 53.4885C74.2512 47.4072 71.2523 39.8916 70.5676 31.963L70.3868 31.9587C67.6754 31.9199 64.7052 32.1394 61.8294 32.5739C58.9619 33.0042 56.0902 33.6582 53.5965 34.5316C51.2343 35.362 48.6955 36.5582 46.9741 38.361L44.5914 40.8565L53.1652 54.3237C49.8252 59.7278 46.5921 65.9881 45.906 76.0691C45.1199 76.1523 44.2682 76.2671 43.3507 76.4134C39.8299 76.977 35.0028 78.1731 31.1698 80.8451L27 83.7622L58.7359 117L61.5131 112.633C63.826 108.997 65.0872 105.792 65.7199 102.483C66.0609 100.706 66.2046 98.9419 66.2663 97.1864C73.2667 96.683 82.0295 94.8415 89.3215 90.6335L93.9227 100.314L97.9611 96.0849C102.842 90.9691 105.685 84.9756 107.299 80.3675C108.113 78.0625 108.755 75.6946 109.218 73.2853C114.497 65.7127 116.415 56.8881 116.879 49.4058C117.36 41.631 116.304 34.8973 115.466 31.6704L114.792 29.0673L112.262 28.5682C99.477 26.0555 87.9782 26.3609 78.6361 30.9604Z" fill="#FFF9F3"/>
</g>
<defs>
<filter id="filter0_d_1148_317" x="23" y="27" width="98" height="98" filterUnits="userSpaceOnUse" color-interpolation-filters="sRGB">
<feFlood flood-opacity="0" result="BackgroundImageFix"/>
<feColorMatrix in="SourceAlpha" type="matrix" values="0 0 0 0 0 0 0 0 0 0 0 0 0 0 0 0 0 0 127 0" result="hardAlpha"/>
<feOffset dy="4"/>
<feGaussianBlur stdDeviation="2"/>
<feComposite in2="hardAlpha" operator="out"/>
<feColorMatrix type="matrix" values="0 0 0 0 0 0 0 0 0 0 0 0 0 0 0 0 0 0 0.25 0"/>
<feBlend mode="normal" in2="BackgroundImageFix" result="effect1_dropShadow_1148_317"/>
<feBlend mode="normal" in="SourceGraphic" in2="effect1_dropShadow_1148_317" result="shape"/>
</filter>
</defs>
</svg>
