<svg width="144" height="144" viewBox="0 0 144 144" fill="none" xmlns="http://www.w3.org/2000/svg">
<circle cx="72" cy="72" r="72" fill="#F4A261"/>
<g filter="url(#filter0_d_1148_328)">
<path d="M62.7417 46.3323C63.4867 46.3323 64.2013 46.0807 64.7281 45.6327C65.255 45.1847 65.551 44.5771 65.551 43.9435C65.551 43.31 65.255 42.7024 64.7281 42.2544C64.2013 41.8064 63.4867 41.5547 62.7417 41.5547C61.9966 41.5547 61.282 41.8064 60.7552 42.2544C60.2284 42.7024 59.9324 43.31 59.9324 43.9435C59.9324 44.5771 60.2284 45.1847 60.7552 45.6327C61.282 46.0807 61.9966 46.3323 62.7417 46.3323Z" fill="#FFF9F3"/>
<path d="M62.6435 29.7778C58.879 26.1707 51.9682 25.9109 48.4179 29.9779C47.842 30.6348 47.1362 31.3903 46.3812 32.2055C44.8782 33.8119 43.1716 35.6424 41.8266 37.4041C39.6951 40.1991 37.8128 43.5763 37.9041 47.4671C37.9147 53.7885 41.0224 57.2643 43.3015 58.9126C43.4103 62.9378 43.9476 66.321 44.8712 69.2383H36.0324C35.8885 69.2383 35.6813 69.1965 35.6742 68.8889C35.6694 68.5485 35.6694 68.2081 35.6742 67.8677V67.7154C35.6742 67.5064 35.7339 67.3272 35.9095 67.1779L37.9392 65.2848C38.6416 64.6876 38.6767 63.5409 37.9392 62.9736C37.2369 62.4361 36.1237 62.4063 35.4565 62.9736L34.9649 63.326C34.8244 63.4454 34.5786 63.3857 34.5786 63.2065V62.4301C34.5786 61.5642 33.6867 60.8864 32.6016 60.8864C31.6534 60.8864 30.8739 61.6239 30.8739 62.4301V63.0871C30.8739 63.2364 30.628 63.326 30.4876 63.2065L30.0767 63.0333C29.4095 62.4361 28.2156 62.466 27.5132 63.0333C26.7758 63.6007 26.8671 64.7682 27.5694 65.3654L29.7642 67.3481C29.9079 67.4958 29.9851 67.6821 29.9819 67.8737V70.0087C29.9819 71.8511 31.7799 74.1832 35.3441 74.1832H47.0308C47.2275 74.5216 47.4288 74.8501 47.6348 75.1686C50.3142 79.3192 53.9733 82.0962 57.671 84.6522C58.9282 85.5182 60.0238 86.3364 60.9439 87.1396H55.6519C52.7372 87.1396 50.2334 89.0686 50.2334 91.55V95.0705C50.2334 95.2855 49.956 95.4378 49.7418 95.4378C49.3309 95.4378 49.1238 95.2825 48.8077 95.0019L46.6832 93.3565C45.9633 92.7444 44.5622 92.6518 43.8423 93.264C43.1224 93.8761 43.1575 94.9421 43.772 95.4378L44.527 96.1784C44.6359 96.3008 44.527 96.4859 44.3515 96.4859L43.1575 96.7158C41.8407 96.9129 41.4965 97.6027 41.5667 98.3134C41.637 99.0241 42.3604 99.5376 43.1575 99.5376L44.966 99.4212C45.1486 99.4212 45.1591 99.6392 45.0503 99.7616L44.2145 100.46C43.4946 101.072 43.5649 102.133 44.2847 102.748C45.0081 103.36 46.49 103.121 47.0308 102.849C47.5716 102.58 49.2326 101.087 49.2326 101.087C49.8647 100.55 50.553 100.49 51.4133 100.416L51.8137 100.38C54.026 100.159 56.3682 98.185 56.3682 95.7424V92.7265C56.3682 92.5115 56.5824 92.3592 56.8002 92.3592H64.301C64.3338 92.6041 64.3502 92.8549 64.3502 93.1117C64.3502 104.701 74.3372 117 91.509 117C104.966 117 116.993 108.555 117 96.6681C117.007 95.399 116.596 92.6847 116.055 89.6031C114.727 82.2574 113.232 74.9343 111.571 67.6378C110.879 64.6129 110.251 62.0897 109.882 61.0864C109.295 59.5038 108.618 57.8705 107.55 56.6462C106.936 55.9208 106.133 55.326 105.204 54.9083C104.243 54.493 103.178 54.282 102.1 54.2932C100.495 54.2932 98.6938 54.6067 97.3805 55.7802C96.0742 56.9448 95.9548 58.3423 95.9548 59.0261L95.9477 75.1805L95.9407 94.6047C95.9407 96.689 95.3016 97.7401 94.7608 98.2507C94.2411 98.7434 93.4615 99.0569 92.3483 99.0868C90.8805 99.1166 90.28 98.6896 89.8691 98.1611C89.3073 97.4325 88.9315 96.1993 88.9315 94.6047C88.9315 88.9462 87.3688 84.494 85.0231 80.8182H87.4566C90.301 80.8182 93.5107 79.2206 93.5107 75.7031V73.0963C93.5107 73.0067 93.5809 72.8873 93.6511 72.8275L94.3359 72.0571L95.2419 71.1135C95.8319 70.4118 95.8459 69.5638 95.1471 68.9666C94.4448 68.3694 93.4439 68.5246 93.019 68.7456L92.2184 69.1159C92.0779 69.2055 91.8672 69.1159 91.8672 68.9666V68.238C91.8672 67.4019 91.0034 66.745 90.0201 66.745C89.0369 66.745 88.159 67.4019 88.159 68.238V69.0382C88.159 69.1875 87.9483 69.2771 87.8078 69.1875L86.8175 68.7456C86.2838 68.5455 85.462 68.441 84.7632 69.0382C84.0609 69.6355 84.0152 70.5372 84.693 71.1135L86.8175 73.2814C86.9229 73.371 86.9018 74.1772 86.9018 74.1772V74.858C86.9018 75.0372 86.7367 75.2432 86.4909 75.2432H83.8397C82.7967 75.2432 81.666 75.291 80.6581 75.4761C78.2808 73.1022 75.6716 71.0777 73.2275 69.1816L72.1144 68.3156H77.0938C80.3632 68.3156 82.6843 66.3866 82.6843 63.9082V61.7374C82.6843 61.5463 82.888 61.3313 83.0285 61.182L83.0636 61.1432L85.1109 59.1455C85.8132 58.5483 85.4971 57.4823 84.865 56.9956C84.233 56.5088 83.1022 56.3983 82.435 56.9956L81.9996 57.2046C81.8591 57.324 81.6133 57.2344 81.6133 57.0851L81.4834 56.1983C81.4834 55.4876 80.7213 54.8217 79.5695 54.8217C78.4985 54.8217 77.8945 55.6608 77.8945 56.1953V57.0851C77.8945 57.2643 77.6487 57.324 77.5082 57.2046L76.978 56.9956C76.3107 56.3983 75.1168 56.5178 74.4145 57.0851C73.677 57.6525 73.7121 58.7036 74.4145 59.3008L76.5214 61.0566C76.697 61.2059 76.848 61.385 76.848 61.594V62.9079C76.848 63.111 76.855 63.2543 76.6022 63.2543H68.3007C68.069 62.2629 67.918 60.97 67.8618 59.1724C70.7132 57.5808 73.5682 54.1618 73.5682 47.4343C73.5682 39.8557 68.3288 35.0302 64.2202 31.2499C63.6677 30.7423 63.1445 30.2536 62.6435 29.7778Z" fill="#FFF9F3"/>
</g>
<defs>
<filter id="filter0_d_1148_328" x="23" y="27" width="98" height="98" filterUnits="userSpaceOnUse" color-interpolation-filters="sRGB">
<feFlood flood-opacity="0" result="BackgroundImageFix"/>
<feColorMatrix in="SourceAlpha" type="matrix" values="0 0 0 0 0 0 0 0 0 0 0 0 0 0 0 0 0 0 127 0" result="hardAlpha"/>
<feOffset dy="4"/>
<feGaussianBlur stdDeviation="2"/>
<feComposite in2="hardAlpha" operator="out"/>
<feColorMatrix type="matrix" values="0 0 0 0 0 0 0 0 0 0 0 0 0 0 0 0 0 0 0.25 0"/>
<feBlend mode="normal" in2="BackgroundImageFix" result="effect1_dropShadow_1148_328"/>
<feBlend mode="normal" in="SourceGraphic" in2="effect1_dropShadow_1148_328" result="shape"/>
</filter>
</defs>
</svg>
