<svg width="144" height="144" viewBox="0 0 144 144" fill="none" xmlns="http://www.w3.org/2000/svg">
<circle cx="72" cy="72" r="72" fill="#F4A261"/>
<g filter="url(#filter0_d_1148_333)">
<path d="M59.487 27.68C61.6377 27.0242 63.8977 26.8432 66.1203 27.1488C68.343 27.4545 70.4788 28.2398 72.3892 29.4541C74.2995 30.6683 75.9419 32.2843 77.2098 34.1972C78.4777 36.1102 79.3428 38.2774 79.749 40.5584L81.27 40.155L81.324 40.1426C100.02 35.9532 116.814 51.2521 117 70.6565V87.9849C117 97.1704 109.77 104.649 100.89 104.649L83.97 104.618C82.32 104.618 81 105.984 81 107.69C81 109.397 82.32 110.763 83.97 110.763L96.03 110.794C97.68 110.794 99.03 112.19 99.03 113.897C99 115.635 97.65 117 96 117L83.94 116.969C81.6269 116.962 79.4059 116.03 77.7408 114.369C76.0758 112.708 75.0954 110.446 75.0044 108.055C74.9135 105.664 75.7189 103.33 77.2526 101.538C78.7862 99.7472 80.9296 98.6381 83.235 98.4428H75.12C71.856 98.4428 68.88 95.8547 68.88 92.2053C68.88 92.0501 68.885 91.895 68.895 91.7398C67.034 91.3374 65.2124 90.7599 63.453 90.0144L62.514 93.76C62.193 95.0323 61.584 96.2829 60.489 97.1859C59.4921 97.9847 58.2608 98.4064 57 98.3807H50.52C47.844 98.3807 46.116 95.7367 46.71 93.2821L46.713 93.2666L49.953 80.1617C48.3505 78.1431 47.0009 75.9233 45.936 73.5549H36.42C33.9217 73.5549 31.5256 72.5283 29.7591 70.7009C27.9925 68.8736 27 66.3951 27 63.8108C27 60.6238 28.5 57.6602 31.008 55.8386L40.011 49.3095C38.968 46.4344 38.7208 43.3153 39.2974 40.3029C39.8739 37.2905 41.2513 34.5041 43.2747 32.257C45.2981 30.0099 47.8873 28.3911 50.7513 27.5825C53.6153 26.774 56.6406 26.8077 59.487 27.68ZM100.887 98.4428H100.77H100.95H100.887Z" fill="#FFF9F3"/>
</g>
<defs>
<filter id="filter0_d_1148_333" x="23" y="27" width="98" height="98" filterUnits="userSpaceOnUse" color-interpolation-filters="sRGB">
<feFlood flood-opacity="0" result="BackgroundImageFix"/>
<feColorMatrix in="SourceAlpha" type="matrix" values="0 0 0 0 0 0 0 0 0 0 0 0 0 0 0 0 0 0 127 0" result="hardAlpha"/>
<feOffset dy="4"/>
<feGaussianBlur stdDeviation="2"/>
<feComposite in2="hardAlpha" operator="out"/>
<feColorMatrix type="matrix" values="0 0 0 0 0 0 0 0 0 0 0 0 0 0 0 0 0 0 0.25 0"/>
<feBlend mode="normal" in2="BackgroundImageFix" result="effect1_dropShadow_1148_333"/>
<feBlend mode="normal" in="SourceGraphic" in2="effect1_dropShadow_1148_333" result="shape"/>
</filter>
</defs>
</svg>
