<svg width="1746" height="191" viewBox="0 0 1746 191" fill="none" xmlns="http://www.w3.org/2000/svg">
<path d="M525.131 37.1058C526.13 37.1618 527.13 37.2179 528.159 37.2756C528.17 37.4872 528.18 37.6988 528.191 37.9168C529.027 37.8945 529.863 37.8721 530.724 37.8491C531.816 37.8213 532.909 37.7935 534.034 37.765C535.119 37.7368 536.203 37.7086 537.321 37.6795C540.256 37.6343 540.256 37.6343 543.284 37.8041C545.498 37.7205 547.714 37.6168 549.929 37.5029C550.936 37.4517 550.936 37.4517 551.964 37.3996C553.425 37.3252 554.886 37.2501 556.347 37.1744C558.681 37.0534 561.015 36.9345 563.349 36.8161C569.163 36.5208 574.977 36.2221 580.79 35.9232C586.462 35.6319 592.134 35.342 597.806 35.0547C598.593 35.0148 599.38 34.975 600.191 34.9339C611.727 34.3517 623.206 33.876 634.736 33.516C638.94 33.3739 643.139 33.1511 647.342 32.9165C655.354 32.4733 655.354 32.4733 658.779 32.6654C661.585 32.5707 664.37 32.4605 667.176 32.3354C668.002 32.3 668.829 32.2645 669.68 32.228C672.324 32.1145 674.968 31.9991 677.612 31.8833C681.081 31.7316 684.549 31.5817 688.017 31.4328C688.806 31.3976 689.595 31.3625 690.408 31.3263C695.012 31.1286 699.419 31.0624 703.992 31.0449C706.382 30.9535 708.773 30.8475 711.163 30.7286C713.148 30.6299 713.148 30.6299 715.172 30.5292C715.85 30.4945 716.529 30.4599 717.228 30.4242C719.314 30.318 721.4 30.2153 723.486 30.113C724.804 30.0466 726.121 29.9802 727.479 29.9118C728.68 29.8513 729.882 29.7908 731.119 29.7285C734.17 29.5775 734.17 29.5775 737.109 29.0657C739.951 29.0043 742.757 28.9647 745.587 28.9388C755.058 28.8169 764.384 28.4321 773.893 27.9333C776.46 27.7988 779.028 27.6696 781.595 27.5412C783.264 27.4561 784.932 27.3707 786.6 27.285C787.35 27.2471 788.1 27.2092 788.872 27.1702C793.432 26.929 797.861 26.5969 802.373 26.1789C805.516 25.9301 808.447 25.9348 811.562 25.9413C826.125 25.9609 840.91 25.2389 855.594 24.6009C857.054 24.5377 857.054 24.5377 858.543 24.4732C872.065 23.8863 885.588 23.2793 899.109 22.6198C900.782 22.5384 902.455 22.4581 904.129 22.3788C912.227 21.9936 920.101 21.5475 928.106 20.7789C935.985 20.0318 943.569 19.684 951.522 19.4171C952.839 19.3694 954.157 19.3217 955.514 19.2726C958.705 19.1575 961.896 19.0464 965.087 18.939C965.076 18.7274 965.065 18.5158 965.055 18.2978C964.392 18.331 963.729 18.3641 963.046 18.3983C963.036 18.1867 963.025 17.9751 963.014 17.7571C967.765 17.1577 967.765 17.1577 970.043 17.4053C970.384 17.6003 970.726 17.7953 971.079 17.9962C971.399 17.768 971.72 17.5399 972.051 17.3048C979.365 16.8174 979.365 16.8174 983.057 17.256C986.894 17.6361 989.012 17.3668 993.045 16.9594C995.845 16.7367 997.762 16.8742 1000.23 17.1799C1000.54 16.8459 1000.86 16.5119 1001.18 16.1678C1001.97 16.1128 1002.75 16.0577 1003.56 16.001C1004.58 15.9262 1005.59 15.8514 1006.64 15.7743C1007.65 15.7012 1008.66 15.6282 1009.7 15.5529C1010.53 15.4676 1011.36 15.3823 1012.21 15.2943C1012.53 15.0662 1012.85 14.838 1013.18 14.6029C1018.56 14.3257 1023.94 14.0507 1029.32 13.7775C1031.15 13.6843 1032.98 13.5905 1034.81 13.4962C1037.44 13.3607 1040.07 13.2272 1042.69 13.0942C1043.92 13.0302 1043.92 13.0302 1045.18 12.9649C1048.49 12.7988 1051.18 12.6841 1054.36 12.8628C1056.9 12.7422 1059.42 12.6083 1061.96 12.4627C1067.5 12.1613 1072.41 12.0398 1077.84 12.1876C1083.67 12.2087 1089.69 11.7785 1095.56 11.4433C1098.58 11.2924 1100.09 11.3747 1102.87 11.5799C1107.18 11.8381 1110.22 11.7242 1114.67 11.1296C1116.15 10.7376 1116.15 10.7376 1117.65 10.3376C1119.68 10.3027 1119.68 10.3027 1121.93 10.3845C1128.24 10.5999 1134.51 10.4943 1140.99 10.2943C1145.77 10.1501 1150.54 10.0202 1155.31 9.91873C1163.34 9.85753 1163.34 9.85753 1170.93 8.95621C1174.2 8.26453 1177.3 8.25942 1180.95 8.133C1181.62 8.20563 1182.29 8.27826 1182.98 8.35309C1184.16 8.34029 1185.34 8.32749 1186.56 8.3143C1187.7 8.3168 1188.84 8.3193 1190.02 8.32187C1190.36 8.51688 1190.7 8.7119 1191.06 8.91282C1191.95 8.85502 1192.84 8.79722 1193.75 8.73766C1197.08 8.61125 1199.08 8.76018 1202.13 9.00116C1203.12 8.8456 1204.11 8.69005 1205.13 8.52978C1206.84 8.42995 1208.56 8.34526 1210.27 8.27219C1211.91 8.20261 1213.54 8.12374 1215.17 8.02717C1215.5 7.90478 1215.82 7.7824 1216.16 7.65631C1218.51 7.63084 1220.86 7.62346 1223.2 7.62509C1224.98 7.60446 1224.98 7.60446 1226.79 7.5834C1228.56 7.56564 1228.56 7.56564 1230.37 7.54751C1232.15 7.52687 1232.15 7.52687 1233.96 7.50582C1237.34 7.56348 1239.52 7.79393 1242.36 8.27316C1242.04 8.60714 1241.73 8.94112 1241.4 9.28523C1243.77 9.2757 1246.14 9.26391 1248.51 9.25086C1249.17 9.24844 1249.83 9.24601 1250.51 9.24351C1254.89 9.21725 1259.12 9.07045 1263.52 8.82071C1263.63 8.5566 1263.75 8.2925 1263.86 8.02039C1264.05 7.73891 1264.25 7.45744 1264.45 7.16743C1267.77 6.46516 1271.48 6.40762 1275.16 6.20948C1275.95 6.16044 1276.74 6.11139 1277.56 6.06086C1283.39 5.74919 1286.78 5.92642 1291.6 6.77221C1292.58 7.44645 1292.58 7.44645 1292.67 8.00436C1296.1 8.08549 1299.09 8.03033 1302.59 7.79041C1303.92 7.70035 1303.92 7.70035 1305.28 7.60847C1306.2 7.54466 1307.11 7.48084 1308.05 7.41509C1308.99 7.35154 1309.92 7.288 1310.89 7.22252C1313.18 7.06609 1315.48 6.90782 1317.77 6.74785C1317.76 6.43045 1317.74 6.11306 1317.72 5.78604C1323.78 5.0428 1329.91 4.3911 1336.06 3.78361C1336.74 3.71058 1337.42 3.63754 1338.12 3.56229C1341.85 3.2058 1343.4 3.13487 1346.58 3.68114C1347.33 3.86159 1348.08 4.04205 1348.85 4.22797C1352.08 4.17409 1352.08 4.17409 1354.87 3.92641C1355.19 3.69823 1355.51 3.47004 1355.84 3.23494C1373.43 2.83255 1373.43 2.83255 1374.97 3.2418C1380.13 3.33926 1385.3 3.36769 1390.56 3.10397C1395.85 2.83925 1400.95 2.92974 1406.16 2.96615C1409.63 2.97407 1412.75 2.96227 1416.26 2.74942C1421.25 2.54027 1425.91 2.62195 1430.81 2.69657C1438.84 2.79507 1446.14 2.66008 1454.31 2.16545C1457.85 1.98529 1460.85 2.03046 1464.26 2.15832C1466.63 2.19669 1468.69 2.10696 1471.1 1.96629C1476.67 1.66963 1482.13 1.53792 1487.67 1.4367C1488.63 1.41695 1489.58 1.39719 1490.56 1.37683C1497.54 1.24341 1497.54 1.24341 1498.69 1.54823C1501.17 1.57333 1503.62 1.57683 1506.11 1.55827C1506.84 1.55326 1507.57 1.54825 1508.31 1.54309C1513.79 1.47234 1518.3 1.05297 1523.65 0.383944C1525.8 0.191193 1525.8 0.191193 1528.33 0.586523C1529.31 1.01853 1530.27 1.45211 1531.23 1.88788C1535.7 3.22677 1544.44 2.64364 1550.57 2.48645C1560.22 2.23912 1560.22 2.23912 1564.82 2.44226C1568.11 2.56571 1570.75 2.45297 1574.11 2.21424C1579.91 1.80374 1584.55 1.52356 1589.27 2.55834C1591.78 3.24821 1592.59 3.79619 1593.47 4.83883C1594.31 5.06187 1595.15 5.2849 1596.02 5.51469C1598.57 6.19055 1598.57 6.19055 1599.11 6.86674C1599.37 7.14194 1599.37 7.14194 1599.64 7.4227C1600.47 7.48042 1601.3 7.53814 1602.16 7.59761C1603 7.66856 1603.83 7.73951 1604.69 7.81261C1605.82 8.76625 1605.78 9.57191 1605.84 10.6478C1606.46 10.6446 1607.08 10.6413 1607.71 10.638C1614.35 10.6741 1614.35 10.6741 1617.01 11.4543C1618.16 12.4273 1618.55 13.1098 1618.1 14.2125C1616.12 14.9141 1616.12 14.9141 1614.13 15.3753C1614.46 15.8061 1614.46 15.8061 1614.8 16.2456C1615.23 17.2487 1615.23 17.2487 1613.27 18.311C1609.64 18.7136 1609.64 18.7136 1606.26 18.9835C1606.6 19.2843 1606.95 19.5851 1607.31 19.895C1612.29 19.9636 1612.29 19.9636 1617.38 20.0336C1618.62 21.8118 1618.62 21.8118 1616.52 22.9693C1615.87 23.2141 1615.22 23.4588 1614.54 23.711C1615.55 23.8729 1616.55 24.0347 1617.59 24.2015C1617.61 24.6247 1617.63 25.0479 1617.65 25.4839C1618.98 25.4175 1620.3 25.3512 1621.67 25.2828C1621.69 25.706 1621.71 26.1292 1621.73 26.5652C1622.76 26.4341 1623.8 26.3029 1624.86 26.1677C1629.57 25.8345 1631.18 26.1272 1634.83 26.8737C1634.81 26.4505 1634.79 26.0273 1634.77 25.5913C1633.78 25.641 1632.78 25.6908 1631.76 25.742C1631.75 25.5304 1631.74 25.3188 1631.73 25.1008C1632.71 24.9453 1633.7 24.7897 1634.72 24.6294C1635.07 24.9303 1635.42 25.2311 1635.77 25.541C1637.1 25.4746 1638.42 25.4083 1639.79 25.34C1640.14 25.7466 1640.49 26.1532 1640.86 26.5721C1642.51 26.4892 1644.17 26.4062 1645.88 26.3208C1644.54 26.1756 1643.21 26.0303 1641.83 25.8806C1641.82 25.669 1641.81 25.4574 1641.8 25.2394C1652.88 24.9426 1663 24.9026 1673.58 25.5243C1677.73 25.7635 1681.84 25.8513 1686.12 25.9134C1689.37 25.9836 1692.61 26.0602 1695.85 26.1407C1698.05 26.1937 1700.25 26.2401 1702.46 26.2792C1708.12 26.3993 1712.71 26.6276 1717.51 27.4542C1719.44 27.7996 1719.44 27.7996 1721.69 28.0613C1727.26 28.7561 1727.26 28.7561 1728.66 29.8908C1728.64 30.7962 1728.4 31.6013 1727.72 32.509C1726.07 32.6977 1724.41 32.8865 1722.71 33.0809C1722.87 34.166 1722.87 34.166 1723.83 35.2749C1726.12 35.7126 1726.12 35.7126 1728.9 35.9854C1732.01 36.7193 1734.44 37.3662 1736.07 38.519C1735.42 38.8696 1734.78 39.2201 1734.11 39.5813C1733.45 39.6145 1732.79 39.6477 1732.1 39.6819C1732.11 39.8935 1732.12 40.1051 1732.13 40.3231C1733.8 40.3459 1735.46 40.3688 1737.17 40.3924C1738.22 41.3039 1738.22 41.3039 1738.27 42.2657C1738.6 42.6799 1738.95 43.0915 1739.34 43.4979C1736.33 43.9487 1735.47 44.0271 1732.31 43.8497C1731.94 43.1257 1731.57 42.4017 1731.19 41.6557C1729.21 41.7553 1727.22 41.8548 1725.17 41.9573C1725.19 42.2747 1725.2 42.5921 1725.22 42.9191C1724.22 42.8631 1723.22 42.807 1722.19 42.7493C1719.97 42.8266 1719.97 42.8266 1717.19 43.3212C1716.88 43.8668 1716.58 44.4124 1716.26 44.9745C1718.26 44.9808 1720.25 44.987 1722.3 44.9935C1722.61 44.4479 1722.91 43.9024 1723.23 43.3402C1725.02 43.4954 1726.81 43.6543 1728.6 43.8146C1729.59 43.9027 1730.59 43.9907 1731.62 44.0815C1734.1 44.3624 1735.69 44.5917 1737.41 45.2014C1737.32 45.889 1737.32 45.889 1736.47 46.5341C1732.54 47.1527 1730.33 46.9198 1726.42 46.7161C1725.89 47.4093 1725.47 47.9986 1725.51 48.69C1726.19 48.9742 1726.86 49.2584 1727.56 49.5513C1727.59 49.9745 1727.61 50.3977 1727.63 50.8337C1728.33 50.8315 1729.04 50.8293 1729.77 50.8271C1733.06 50.9133 1735.75 51.2053 1738.74 51.5632C1738.75 51.8806 1738.77 52.198 1738.78 52.525C1737.73 52.6639 1736.68 52.8027 1735.6 52.9457C1732.19 53.4571 1729.81 53.9909 1726.82 54.7312C1725.82 54.7809 1724.83 54.8307 1723.8 54.882C1724.8 54.938 1725.8 54.994 1726.83 55.0518C1726.84 55.2634 1726.85 55.475 1726.86 55.693C1726.2 55.7262 1725.54 55.7593 1724.86 55.7935C1724.87 56.0051 1724.88 56.2167 1724.89 56.4347C1729.87 56.5033 1729.87 56.5033 1734.96 56.5733C1737.06 58.3163 1737.06 58.3163 1737.1 59.0376C1738.75 58.9547 1740.41 58.8718 1742.12 58.7863C1742.81 59.3879 1743.51 59.9896 1744.22 60.6094C1745.88 60.6323 1747.55 60.6552 1749.26 60.6787C1750.12 61.8327 1750.63 62.6139 1749.42 63.8447C1747.44 64.6265 1747.44 64.6265 1744.07 65.1368C1739.61 65.3354 1738.77 64.9668 1735.35 64.2678C1732.57 64.2922 1730.12 64.4684 1727.31 64.6699C1726.22 63.7178 1726.31 63.4377 1727.2 62.4257C1726.48 62.5148 1725.76 62.604 1725.01 62.6959C1722.33 62.983 1719.9 63.1375 1717.18 63.2489C1717.79 63.8605 1717.79 63.8605 1719.25 64.4308C1720.75 64.4751 1720.75 64.4751 1722.27 64.5204C1725.31 64.7704 1725.31 64.7704 1726.21 65.2676C1727.47 66.5929 1727.73 67.7487 1726.53 69.2086C1726.01 69.5 1725.48 69.7915 1724.94 70.0918C1722.87 71.4399 1724.19 72.3232 1725.43 73.5701C1725.87 74.5834 1725.21 75.0181 1723.6 75.9844C1722.96 76.3807 1722.96 76.3807 1722.31 76.785C1721 77.4778 1719.61 78.0274 1717.95 78.6378C1716.8 79.3702 1716.8 79.3702 1716 80.0208C1715.34 80.0539 1714.68 80.0871 1714 80.1213C1714.15 80.2992 1714.3 80.4771 1714.46 80.6604C1715.02 81.3021 1715.58 81.9438 1716.13 82.5856C1715.04 82.7794 1713.95 82.9732 1712.83 83.1729C1708.73 83.9522 1706.96 84.5888 1704.54 85.9182C1703.31 87.0552 1703.21 87.5616 1703.41 88.6661C1703.68 90.3585 1702.41 91.1874 1699.53 92.7375C1698.84 93.2791 1698.84 93.2791 1698.14 93.8317C1696.07 95.1648 1693.93 95.9426 1689.83 96.6694C1680.56 97.968 1670.7 97.8383 1661.34 97.7827C1654.64 97.7853 1649.77 98.3895 1643.5 99.3993C1642.83 99.4325 1642.17 99.4657 1641.49 99.4999C1641.52 100.029 1641.54 100.558 1641.57 101.103C1642.9 101.142 1644.23 101.182 1645.6 101.222C1645.95 101.629 1646.31 102.036 1646.67 102.455C1645.68 102.504 1644.68 102.554 1643.66 102.605C1642.98 103.387 1642.36 104.165 1641.76 104.95C1641.32 105.499 1641.32 105.499 1640.87 106.059C1640.87 107.559 1642.45 108.325 1644.73 109.507C1647.19 110.793 1648.59 111.999 1648.24 113.625C1647.91 113.748 1647.58 113.87 1647.25 113.996C1647.36 114.6 1647.5 115.202 1647.65 115.804C1647.83 117.637 1647.83 117.637 1646.17 118.524C1645.1 118.886 1644 119.24 1642.88 119.585C1640.75 120.339 1640.98 121.113 1640.6 122.043C1638.2 123.007 1638.2 123.007 1635.66 123.897C1634.4 124.657 1634.4 124.657 1633.72 125.28C1635.06 125.531 1636.4 125.782 1637.78 126.041C1637.14 126.497 1636.5 126.953 1635.84 127.424C1635.2 127.454 1634.57 127.484 1633.91 127.515C1631 127.654 1628.08 127.796 1625.17 127.938C1624.17 127.985 1623.17 128.033 1622.13 128.082C1618.15 128.277 1614.38 128.464 1610.45 128.873C1607.14 129.214 1604.41 129.23 1601.08 129.224C1599.97 129.225 1598.85 129.225 1597.71 129.226C1594.97 129.17 1593.08 129.006 1590.61 128.723C1588.96 128.683 1587.3 128.659 1585.64 128.651C1582.93 128.637 1580.61 128.59 1578.05 128.379C1575.2 128.174 1572.79 128.211 1569.77 128.3C1564.63 128.449 1564.63 128.449 1562.4 128.207C1558.84 128.375 1555.3 128.584 1551.75 128.792C1548.35 128.911 1548.35 128.911 1546.42 128.695C1543.95 128.434 1542.03 128.46 1539.32 128.528C1538.38 128.549 1537.45 128.57 1536.49 128.592C1535.52 128.617 1534.55 128.642 1533.55 128.667C1531.62 128.714 1529.69 128.761 1527.76 128.805C1526.9 128.827 1526.05 128.848 1525.17 128.871C1523.18 128.885 1523.18 128.885 1522.16 128.615C1520.36 128.715 1520.36 128.715 1518.52 128.817C1510.05 129.271 1501.57 129.244 1493.26 129.103C1486.56 129.001 1479.79 129.116 1473 129.222C1463.86 129.33 1463.86 129.33 1459.75 128.525C1459.43 128.647 1459.1 128.769 1458.76 128.896C1456.83 129.085 1454.89 129.252 1452.94 129.408C1451.88 129.496 1450.82 129.583 1449.72 129.673C1446.73 129.819 1446.73 129.819 1444.78 129.598C1442.44 129.354 1441.04 129.39 1438.48 129.538C1437.69 129.581 1436.91 129.624 1436.1 129.668C1435.29 129.715 1434.48 129.763 1433.65 129.811C1432.04 129.903 1430.43 129.993 1428.82 130.082C1428.1 130.123 1427.39 130.165 1426.66 130.207C1424.51 130.288 1422.66 130.235 1420.58 130.164C1418.9 130.236 1417.23 130.317 1415.56 130.416C1415.21 130.115 1414.86 129.814 1414.51 129.504C1413.15 129.721 1413.15 129.721 1411.76 129.943C1410.69 130.109 1409.62 130.275 1408.51 130.447C1407.86 130.566 1407.2 130.685 1406.52 130.808C1404.51 130.968 1404.51 130.968 1401.79 130.643C1398.06 130.27 1395.96 130.373 1391.97 130.618C1383.76 131.073 1374.13 131.396 1366.26 130.955C1365.31 131.055 1364.36 131.156 1363.39 131.259C1360.26 131.577 1360.26 131.577 1357.93 131.533C1355.24 131.508 1353.5 131.639 1350.84 131.888C1346.74 132.266 1343.27 132.293 1339.16 132.312C1337.79 132.425 1336.43 132.55 1335.07 132.684C1329.89 133.145 1325.02 133.252 1319.83 133.319C1318.95 133.334 1318.08 133.348 1317.17 133.363C1313.06 133.427 1309.05 133.446 1304.99 133.379C1303.17 133.402 1301.34 133.433 1299.52 133.472C1298.55 133.493 1297.58 133.514 1296.58 133.535C1293.85 133.599 1293.85 133.599 1290.79 133.809C1287.91 133.913 1286.27 133.809 1283.61 133.606C1278.98 133.305 1275.88 133.641 1271.23 134.245C1265.14 135.005 1261.14 135.009 1255.71 134.239C1253.7 134.434 1251.7 134.643 1249.7 134.861C1247.47 135.009 1245.23 135.141 1242.99 135.257C1241.87 135.318 1240.75 135.379 1239.59 135.441C1236.65 135.515 1236.65 135.515 1233.6 135.024C1227.07 134.978 1220.41 135.338 1213.82 135.744C1211.5 135.809 1211.5 135.809 1208.46 135.319C1205.85 135.513 1205.85 135.513 1203.07 135.87C1199.42 136.308 1196.17 136.581 1192.42 136.764C1192.1 136.887 1191.77 137.009 1191.44 137.135C1188.26 137.404 1186.82 137.449 1184.07 137.022C1183.22 136.826 1183.22 136.826 1182.35 136.626C1182.03 136.854 1181.71 137.082 1181.38 137.317C1179.94 137.383 1179.94 137.383 1178.48 137.451C1177.22 137.511 1175.96 137.571 1174.66 137.633C1172.79 137.721 1172.79 137.721 1170.89 137.811C1167.85 137.99 1165.26 138.246 1162.32 138.593C1159.49 138.594 1159.49 138.594 1157.28 138.523C1157.27 138.312 1157.26 138.1 1157.25 137.882C1156.59 138.021 1155.94 138.16 1155.26 138.303C1152.19 138.501 1149.53 138.612 1146.53 138.54C1140.61 138.622 1134.83 139.439 1129.12 140.174C1125.35 140.465 1122.15 140.373 1118.48 140.265C1115.99 140.263 1114.46 140.415 1112.1 140.785C1111.75 140.378 1111.4 139.972 1111.03 139.553C1112.68 139.364 1114.34 139.175 1116.04 138.981C1116.34 138.33 1116.64 137.678 1116.95 137.007C1114.63 137.123 1112.31 137.239 1109.92 137.359C1109.75 137.666 1109.75 137.666 1109.57 137.979C1108.98 138.692 1108.98 138.692 1107 139.433C1107.01 139.645 1107.02 139.857 1107.03 140.075C1104.02 140.712 1100.8 140.83 1097.46 141.056C1096.73 141.106 1096 141.155 1095.26 141.206C1093.17 141.347 1091.08 141.485 1088.99 141.62C1088.06 141.681 1087.13 141.742 1086.17 141.804C1081.42 142.079 1077.35 142.127 1072.9 141.783C1070.92 141.2 1070.92 141.2 1069.82 140.652C1068.4 140.823 1066.99 140.994 1065.57 141.166C1064.78 141.261 1063.99 141.357 1063.18 141.455C1061.05 141.717 1058.93 141.988 1056.82 142.267C1056.8 141.844 1056.77 141.421 1056.75 140.985C1055.75 140.929 1054.75 140.873 1053.72 140.815C1053.75 141.344 1053.78 141.873 1053.8 142.418C1049.86 143.488 1045.67 143.54 1041.04 143.74C1040.24 143.777 1039.44 143.814 1038.62 143.852C1036.67 143.942 1034.71 144.029 1032.75 144.114C1032.64 143.915 1032.52 143.715 1032.41 143.509C1032.17 143.302 1031.93 143.095 1031.68 142.882C1028.65 142.606 1028.65 142.606 1025.66 143.184C1025.64 142.866 1025.63 142.549 1025.61 142.222C1020.96 142.12 1020.96 142.12 1016.57 142.674C1018.26 142.709 1018.26 142.709 1019.98 142.745C1023.64 142.964 1023.64 142.964 1025.11 143.573C1025.31 143.762 1025.51 143.951 1025.71 144.146C1021.68 144.717 1019.42 144.77 1015.65 144.328C1015.31 144.133 1014.97 143.938 1014.62 143.737C1012.63 143.942 1010.65 144.147 1008.61 144.359C1008.76 144.152 1008.92 143.946 1009.08 143.733C1009.62 143.035 1009.62 143.035 1009.51 142.385C1008.18 142.346 1006.85 142.306 1005.48 142.265C1004.48 143.323 1004.61 143.592 1005.59 144.51C1004.93 144.543 1004.27 144.576 1003.59 144.61C1003.61 145.033 1003.63 145.457 1003.65 145.893C999.596 146.155 997.167 146.184 993.579 145.754C992.593 145.962 992.593 145.962 991.587 146.175C985.573 146.553 979.311 146.844 973.667 146.369C970.081 146.257 968.359 146.478 964.824 146.912C959.757 147.51 959.757 147.51 956.843 147.071C955.537 146.463 954.294 145.873 953.289 145.2C952.301 145.355 951.312 145.511 950.293 145.671C950.651 146.183 951.009 146.696 951.378 147.224C948.033 148.112 947.18 148.141 943.271 148.265C942.283 148.298 941.296 148.331 940.278 148.364C939.249 148.395 938.22 148.426 937.159 148.458C936.118 148.492 935.077 148.526 934.005 148.56C931.434 148.644 928.863 148.724 926.293 148.801C926.277 148.483 926.261 148.166 926.245 147.839C925.254 147.896 924.263 147.953 923.242 148.012C921.956 148.082 920.669 148.152 919.344 148.225C918.063 148.296 916.782 148.368 915.463 148.442C912.189 148.543 912.189 148.543 910.148 148.002C909.512 148.564 908.876 149.126 908.221 149.706C906.559 149.683 904.897 149.66 903.184 149.636C903.484 148.985 903.783 148.333 904.092 147.662C902.777 147.94 901.463 148.218 900.108 148.505C899.424 148.115 898.74 147.725 898.036 147.323C897.947 147.625 897.859 147.928 897.767 148.24C897.128 149.297 897.128 149.297 896.03 149.974C892.975 150.686 890.453 150.529 887.12 150.44C886.778 150.245 886.436 150.05 886.084 149.849C885.507 149.945 884.931 150.04 884.337 150.138C881.563 150.425 880.422 150.271 878.036 149.931C877.72 150.265 877.405 150.599 877.08 150.943C873.132 151.258 871.497 151.32 868.137 150.748C867.422 150.572 866.708 150.395 865.971 150.213C865.992 150.637 866.014 151.06 866.035 151.496C863.064 151.472 860.446 151.389 857.591 151.195C853.856 151.136 853.344 151.161 850.198 151.807C849.129 152.019 848.06 152.232 846.959 152.451C845.954 152.289 844.95 152.127 843.915 151.96C843.904 151.749 843.894 151.537 843.883 151.319C842.894 151.475 841.905 151.63 840.887 151.791C838.1 151.488 837.304 150.888 835.77 150.118C835.806 150.421 835.842 150.725 835.879 151.037C835.867 152.042 835.867 152.042 834.895 152.733C832.57 152.744 830.245 152.754 827.85 152.765C827.84 152.553 827.829 152.341 827.818 152.123C827.188 152.259 826.558 152.396 825.909 152.536C821.728 153.188 817.876 153.35 813.48 153.558C812.134 153.625 812.134 153.625 810.762 153.694C808.87 153.787 806.979 153.879 805.088 153.97C802.195 154.109 799.302 154.253 796.409 154.398C794.569 154.489 792.729 154.579 790.889 154.669C790.025 154.712 789.16 154.755 788.27 154.799C787.463 154.837 786.655 154.876 785.823 154.915C785.115 154.949 784.408 154.983 783.679 155.019C781.566 155.079 779.675 155.038 777.633 154.957C777.644 155.169 777.654 155.38 777.665 155.598C774.279 155.808 774.279 155.808 770.637 155.95C769.964 155.772 769.291 155.593 768.597 155.409C767.482 155.525 766.366 155.64 765.217 155.759C761.585 156.082 761.585 156.082 759.116 155.783C757.521 155.321 757.521 155.321 757.488 154.68C756.826 154.713 756.163 154.746 755.48 154.78C755.165 155.114 754.849 155.448 754.524 155.792C753.525 155.736 752.526 155.68 751.496 155.623C752.801 155.133 754.105 154.643 755.448 154.139C754.005 154.222 752.562 154.317 751.121 154.416C750.318 154.467 749.515 154.519 748.688 154.572C746.163 154.861 746.163 154.861 745.025 155.785C743.496 156.666 743.496 156.666 740.924 157.033C731.269 157.648 721.056 158.24 711.515 158.073C709.3 157.982 709.3 157.982 707.351 158.475C705.327 158.494 703.301 158.513 701.286 158.508C699.087 158.521 699.087 158.521 696.307 159.028C693.953 159.057 691.602 159.069 689.263 159.059C689.252 158.848 689.242 158.636 689.231 158.418C688.183 158.63 687.134 158.841 686.055 159.059C682.999 159.636 680.626 159.941 677.231 159.983C676.894 159.894 676.557 159.805 676.211 159.713C674.795 159.778 673.38 159.866 671.969 159.964C671.099 160.023 670.228 160.082 669.332 160.143C668.415 160.207 667.498 160.271 666.554 160.337C660.734 160.737 654.955 161.121 649.118 161.39C648.76 160.878 648.402 160.365 648.034 159.838C649.022 159.682 650.011 159.526 651.03 159.366C650.682 159.065 650.335 158.765 649.978 158.455C646.204 158.994 643.512 159.392 641.022 160.51C642.347 160.444 643.672 160.377 645.038 160.309C645.059 160.732 645.08 161.155 645.102 161.591C642.404 161.735 639.706 161.877 637.008 162.017C636.253 162.057 635.498 162.098 634.72 162.139C631.088 162.326 627.612 162.468 624.012 162.465C623.015 162.469 622.017 162.473 620.989 162.477C620.663 162.599 620.337 162.722 620.001 162.848C618.329 162.945 616.655 163.029 614.981 163.099C614.992 163.311 615.002 163.522 615.013 163.74C608.595 164.22 608.595 164.22 605.506 163.573C604.977 163.388 604.449 163.202 603.905 163.011C604.22 162.677 604.536 162.343 604.861 161.999C606.92 161.675 606.92 161.675 608.861 161.477C606.21 161.61 603.559 161.742 600.828 161.879C601.518 162.375 602.207 162.871 602.917 163.382C599.844 164.198 598.751 164.33 595.177 164.593C591.047 164.908 586.991 165.265 582.9 165.669C582.222 165.385 581.543 165.101 580.844 164.808C580.122 164.891 579.399 164.973 578.655 165.058C577.726 165.164 576.797 165.271 575.84 165.38C575.077 165.478 574.314 165.576 573.527 165.676C571.155 165.919 569.092 166.049 566.694 166.159C562.887 166.284 562.887 166.284 559.808 166.825C557.437 166.752 555.079 166.657 552.748 166.536C553.052 165.99 553.357 165.445 553.671 164.883C548.926 164.873 544.392 164.935 539.599 165.266C538.947 165.51 538.295 165.755 537.623 166.007C537.639 166.325 537.655 166.642 537.671 166.969C533.256 167.863 533.256 167.863 530.355 167.858C529.512 167.801 529.512 167.801 528.651 167.742C528.624 167.208 528.597 166.673 528.571 166.139C526.914 166.222 525.257 166.305 523.551 166.39C524.887 166.536 526.222 166.681 527.599 166.831C527.283 167.165 526.968 167.499 526.643 167.843C525.639 167.887 525.639 167.887 524.615 167.933C518.646 168.213 512.896 168.594 506.99 169.14C504.234 169.287 502.947 169.109 500.522 168.829C496.83 169.114 496.83 169.114 493.51 169.501C493.826 169.167 494.141 168.833 494.466 168.489C495.024 168.442 495.582 168.394 496.157 168.346C501.279 167.909 506.392 167.458 511.502 166.994C507.328 167.037 503.266 167.08 499.062 167.315C496.426 167.427 496.426 167.427 493.382 166.936C493.398 167.254 493.413 167.571 493.43 167.898C488.802 168.342 484.174 168.786 479.406 169.243C482.398 169.305 485.391 169.368 488.474 169.432C488.484 169.644 488.495 169.855 488.506 170.073C486.149 170.3 483.79 170.525 481.431 170.749C480.444 170.844 480.444 170.844 479.438 170.941C467.805 172.038 467.805 172.038 463.405 171.33C463.384 170.906 463.363 170.483 463.341 170.047C466.912 169.471 469.692 169.489 473.381 169.545C473.371 169.333 473.36 169.121 473.349 168.903C472.024 168.97 470.699 169.036 469.333 169.105C469.307 168.576 469.28 168.047 469.253 167.501C468.617 168.064 467.981 168.626 467.325 169.205C466.451 169.243 466.451 169.243 465.56 169.282C460.98 169.494 456.781 169.783 452.281 170.28C450.739 170.429 449.194 170.573 447.647 170.712C446.911 170.78 446.175 170.847 445.416 170.917C443.154 171.059 441.397 171.034 439.229 170.933C439.239 171.145 439.25 171.356 439.261 171.574C440.505 171.552 441.75 171.529 443.032 171.506C446.224 171.448 448.527 171.577 451.357 171.933C450.096 172.213 448.83 172.49 447.561 172.766C446.857 172.92 446.152 173.075 445.426 173.234C443.389 173.617 443.389 173.617 440.377 173.768C440.366 173.556 440.356 173.345 440.345 173.127C439.351 173.177 438.357 173.226 437.333 173.278C436.347 172.36 436.222 172.091 437.22 171.033C435.906 171.311 434.591 171.589 433.236 171.876C433.494 172.048 433.752 172.221 434.018 172.399C434.305 173.108 434.305 173.108 432.71 173.931C430.353 174.591 430.353 174.591 427.966 174.671C426.655 174.597 426.655 174.597 425.317 174.522C424.213 174.465 423.11 174.407 421.974 174.348C420.631 174.266 420.631 174.266 419.26 174.182C419.25 173.971 419.239 173.759 419.228 173.541C417.251 173.852 415.274 174.163 413.236 174.484C413.546 174.044 413.857 173.604 414.176 173.151C416.485 172.824 418.793 172.496 421.172 172.158C420.173 172.102 419.174 172.046 418.144 171.988C418.118 171.459 418.091 170.93 418.064 170.385C416.738 170.452 415.413 170.518 414.048 170.586C413.969 170.889 413.969 170.889 413.889 171.197C413.108 171.919 413.108 171.919 410.555 172.449C409.751 172.568 408.948 172.688 408.12 172.812C409.456 172.957 410.792 173.102 412.168 173.252C411.823 173.892 411.823 173.892 411.228 174.584C408.206 175.223 405.344 175.243 401.959 175.41C400.649 175.476 399.34 175.543 397.99 175.611C394.604 175.743 391.464 175.782 388.136 175.74C388.12 175.423 388.104 175.106 388.087 174.779C389.739 174.59 391.39 174.401 393.092 174.207C393.081 173.995 393.07 173.784 393.059 173.566C392.42 173.651 391.781 173.736 391.122 173.823C387.078 174.238 383.119 174.41 379.019 174.59C379.687 174.662 380.355 174.735 381.043 174.81C380.227 176.096 380.227 176.096 379.115 176.513C377.213 176.624 375.309 176.716 373.405 176.799C369.154 176.999 365.214 177.234 361.059 177.739C361.364 177.193 361.669 176.647 361.983 176.085C363.971 175.986 365.959 175.886 368.007 175.784C356.912 175.453 346.097 176.303 334.858 177.122C334.869 177.333 334.879 177.545 334.89 177.763C335.879 177.607 336.868 177.452 337.886 177.292C340.09 177.322 340.09 177.322 341.918 177.411C341.934 177.729 341.95 178.046 341.966 178.373C340.765 178.42 339.563 178.467 338.325 178.515C335.26 178.66 333.64 178.824 330.69 179.319C327.942 179.718 327.942 179.718 325.538 179.436C323.878 178.957 323.878 178.957 323.846 178.316C326.491 178.077 329.137 177.839 331.862 177.593C330.825 177.592 330.825 177.592 329.766 177.591C328.859 177.586 327.952 177.58 327.017 177.575C325.668 177.569 325.668 177.569 324.292 177.564C321.605 177.446 320.514 177.234 318.729 176.644C318.512 176.86 318.294 177.076 318.07 177.299C317.646 177.539 317.222 177.779 316.786 178.026C315.134 178.215 313.483 178.404 311.782 178.598C315.431 178.522 319.081 178.445 322.842 178.366C321.886 179.378 321.886 179.378 319.716 179.863C316.609 180.312 314.002 180.501 310.752 180.659C309.714 180.712 308.677 180.766 307.607 180.821C304.85 180.874 304.85 180.874 301.806 180.383C302.442 179.821 303.078 179.259 303.733 178.68C299.007 178.558 296.152 178.8 291.701 179.604C292.457 179.784 292.457 179.784 293.229 179.969C294.761 180.415 294.761 180.415 294.793 181.056C292.458 181.287 290.123 181.511 287.781 181.728C286.586 181.84 286.586 181.84 285.367 181.953C281.251 182.316 277.488 182.596 273.356 182.611C270.06 182.631 268.721 182.713 265.709 183.155C260.342 183.531 260.342 183.531 257.597 183.219C254.931 182.943 253.378 183.188 250.632 183.588C250.306 183.71 249.98 183.833 249.644 183.959C246.476 184.126 243.32 184.266 240.151 184.393C236.367 184.563 234.804 184.654 231.604 185.505C229.616 185.608 229.616 185.608 227.395 185.615C226.185 185.623 226.185 185.623 224.95 185.632C223.763 185.634 223.763 185.634 222.552 185.636C216.635 185.654 211.074 185.88 205.105 186.24C202.455 186.321 202.455 186.321 199.411 185.831C199.726 185.497 200.042 185.163 200.367 184.819C199.378 184.974 198.39 185.13 197.371 185.29C196.667 185.973 196.667 185.973 196.431 186.623C195.278 186.677 194.124 186.731 192.936 186.786C185.637 187.136 178.417 187.493 171.151 188.069C166.621 188.426 162.739 188.633 158.278 188.532C157.258 188.262 157.258 188.262 157.092 187.467C157.178 186.659 157.178 186.659 158.166 186.288C149.542 186.617 149.542 186.617 141.113 187.463C140.467 187.814 139.82 188.164 139.153 188.526C138.16 188.575 137.166 188.625 136.141 188.676C135.124 188.25 135.124 188.25 134.085 187.815C134.112 188.344 134.138 188.873 134.165 189.418C130.084 189.971 126.971 190.047 122.808 190.007C121.194 189.994 121.194 189.994 119.548 189.98C118.734 189.971 117.92 189.962 117.081 189.952C116.528 188.866 116.528 188.866 115.965 187.758C113.645 187.874 111.326 187.99 108.936 188.11C109.772 188.207 110.607 188.305 111.468 188.405C112.305 188.542 113.142 188.679 114.005 188.82C114.021 189.138 114.036 189.455 114.053 189.782C108.533 190.407 104.186 190.527 98.6727 190.431C97.9528 190.423 97.2329 190.414 96.4912 190.405C91.2649 190.333 91.2649 190.333 88.9041 190.077C88.8935 189.865 88.8829 189.654 88.872 189.436C87.7567 189.551 86.6415 189.667 85.4924 189.786C81.8599 190.108 81.8599 190.108 79.8358 189.888C79.8464 190.1 79.8569 190.311 79.8679 190.529C75.1533 190.913 72.9844 190.713 69.0266 190.11C65.9462 189.826 63.0357 189.889 59.7071 189.931C52.1684 190.024 52.1684 190.024 48.803 189.513C45.6957 189.051 44.1956 188.991 40.7246 188.993C38.3999 188.973 38.3999 188.973 36.5022 188.843C35.0725 187.93 35.0725 187.93 34.3979 187.02C33.3986 186.964 32.3993 186.908 31.3697 186.85C30.3316 186.219 30.3316 186.219 29.2814 185.348C28.6058 184.914 28.6058 184.914 27.9165 184.472C26.2667 183.362 24.7559 182.229 23.2806 181.088C22.8111 180.729 22.3416 180.37 21.8579 180.001C20.5294 178.619 20.5294 178.619 21.852 177.684C24.9068 177.13 24.9068 177.13 27.8441 176.742C28.133 175.879 28.422 175.016 28.7197 174.127C29.7084 173.971 30.6971 173.815 31.7157 173.655C31.3043 172.064 31.3043 172.064 28.5592 170.921C28.5139 170.25 28.5139 170.25 28.8008 169.462C28.8877 169.203 28.9746 168.943 29.0641 168.676C29.4188 167.985 29.4188 167.985 30.3907 167.293C30.7216 166.743 31.0322 166.191 31.3145 165.64C33.2729 165.803 33.2729 165.803 35.3627 166.08C35.8835 166.531 35.8835 166.531 36.4149 166.992C36.0942 167.22 35.7734 167.448 35.443 167.683C36.1056 167.65 36.7683 167.617 37.451 167.583C37.4404 167.371 37.4298 167.16 37.4189 166.942C38.0816 166.908 38.7442 166.875 39.427 166.841C38.3319 166.053 37.7101 165.708 35.2011 165.365C34.5759 165.317 33.9507 165.269 33.3065 165.219C33.2959 165.007 33.2853 164.796 33.2744 164.578C33.9318 164.439 34.5891 164.3 35.2664 164.157C34.7259 163.285 34.1013 162.549 32.9447 161.762C31.7588 160.42 32.6969 159.549 33.9575 158.115C30.9649 158.053 27.9724 157.991 24.8891 157.927C24.5313 157.414 24.1735 156.902 23.8049 156.374C25.4509 156.079 27.097 155.785 28.7929 155.481C29.593 155.706 30.3932 155.932 31.2176 156.163C33.5327 156.925 33.5327 156.925 35.9013 156.733C38.0241 155.582 38.0658 155.468 37.4175 154.346C37.1902 153.954 36.963 153.561 36.7288 153.156C35.7295 153.1 34.7302 153.044 33.7007 152.986C32.4151 152.21 31.5229 151.406 30.5602 150.572C28.8983 150.549 27.2363 150.526 25.524 150.502C24.8664 149.933 24.8664 149.933 24.4558 149.27C26.4318 148.529 26.4318 148.529 29.0653 148.357C29.8529 148.33 30.6405 148.304 31.4519 148.277C32.1357 148.667 32.8196 149.057 33.5241 149.459C34.5128 149.304 35.5015 149.148 36.5202 148.988C37.162 148.037 37.162 148.037 37.4279 147.014C36.7494 146.73 36.0708 146.445 35.3717 146.153C35.5153 145.157 35.681 144.462 37.5577 143.574C39.6647 142.939 40.6098 142.904 43.27 142.841C44.4119 142.81 44.4119 142.81 45.5769 142.779C46.3669 142.762 47.1569 142.746 47.9708 142.73C48.7723 142.709 49.5738 142.689 50.3996 142.668C52.3766 142.618 54.3524 142.575 56.3278 142.532C56.5325 141.994 56.5325 141.994 56.7413 141.446C57.121 140.487 57.5743 139.542 58.1433 138.585C56.818 138.651 55.4927 138.717 54.1272 138.786C55.3177 137.525 56.7046 137.311 60.0551 136.56C59.778 136.365 59.5009 136.169 59.2154 135.967C57.2599 134.575 55.3636 133.186 53.7741 131.732C53.0588 131.776 52.3434 131.819 51.6064 131.863C43.4587 132.32 43.4587 132.32 39.2615 132.117C35.4893 131.99 33.3264 132.174 29.5309 132.524C24.0207 132.994 24.0207 132.994 20.5881 132.329C19.5728 131.952 19.5728 131.952 18.5369 131.568C17.8075 131.512 17.0781 131.455 16.3266 131.397C14.4887 131.128 14.4887 131.128 13.4933 130.093C12.1635 128.782 11.0003 128.543 7.28404 127.953C6.19828 127.828 5.11253 127.704 3.99387 127.575C0.959151 126.921 0.727311 126.799 0.186208 125.657C-0.206648 123.395 0.0181496 121.931 3.9842 119.842C7.30125 118.02 6.9284 116.879 5.67031 115.038C5.64377 114.767 5.61724 114.496 5.5899 114.217C7.52904 113.604 7.52904 113.604 9.55785 113.054C9.55814 112.412 9.54938 111.77 9.40285 111.136C9.44146 110.198 10.6769 109.555 12.3613 108.736C10.9575 108.687 10.9575 108.687 9.52543 108.637C6.09852 108.381 4.86515 108.227 3.22877 107.264C3.4984 106.367 3.4984 106.367 4.15255 105.611C5.12186 105.483 6.09116 105.355 7.08984 105.223C8.09791 105.04 9.10598 104.857 10.1446 104.668C10.9505 104.012 10.9505 104.012 11.0844 103.336C11.7312 102.985 12.378 102.635 13.0443 102.273C12.0549 101.056 10.6822 100.135 7.86372 99.3186C6.86444 99.2626 5.86516 99.2065 4.8356 99.1488C5.17403 97.5781 7.11244 96.8186 10.6993 95.6412C12.1823 95.4078 12.1823 95.4078 13.6953 95.1698C13.6847 94.9582 13.6741 94.7466 13.6632 94.5286C11.6699 94.5223 9.67665 94.516 7.62298 94.5095C7.27577 94.2087 6.92855 93.9079 6.57081 93.598C7.14699 93.4962 7.72318 93.3945 8.31682 93.2896C11.1182 92.6214 12.6055 91.8832 14.4907 90.9517C13.2947 90.2183 12.3696 89.7569 10.3783 89.2291C10.5334 88.5584 10.5334 88.5584 11.3181 87.8964C12.8011 87.6631 12.8011 87.6631 14.3141 87.4251C14.9821 87.4977 15.65 87.5703 16.3382 87.6451C15.6454 86.6874 15.6454 86.6874 13.4157 86.5221C12.678 86.4808 11.9402 86.4394 11.1801 86.3967C10.4397 86.353 9.6992 86.3093 8.93629 86.2643C8.3652 86.2344 7.79411 86.2046 7.20571 86.1739C7.21578 84.9754 7.33671 83.8073 8.03319 82.597C10.3269 81.9197 10.3269 81.9197 13.0052 81.3838C13.5661 80.9779 14.1271 80.572 14.705 80.1537C15.8941 79.3408 16.5352 79.0146 18.9407 78.5255C22.6631 78.0351 24.9777 77.7867 28.7114 78.0197C34.1362 78.2944 39.533 77.9246 45.1531 77.6452C46.901 77.5695 46.901 77.5695 48.6841 77.4923C55.9558 77.1361 61.7157 76.508 68.4805 75.3576C71.5639 74.8613 74.1912 74.6623 77.4597 74.5616C80.414 74.4619 82.9681 74.3541 85.8774 74.0454C91.6398 73.4612 97.4567 73.2132 103.295 72.9067C104.575 72.8333 105.854 72.76 107.173 72.6844C109.015 72.5881 109.015 72.5881 110.894 72.4899C112.012 72.4292 113.131 72.3686 114.283 72.3061C117.899 72.3103 118.826 72.6835 121.311 73.3909C122.637 73.3246 123.962 73.2582 125.328 73.1899C125.685 72.8736 125.685 72.8736 126.05 72.551C127.524 71.6529 128.528 71.4499 131.255 70.9647C133.41 70.8053 133.41 70.8053 135.647 70.7247C139.332 70.5695 142.687 70.3091 146.3 69.8902C146.273 69.3612 146.247 68.8322 146.22 68.2872C147.025 68.207 147.831 68.1269 148.661 68.0444C149.507 67.9358 150.352 67.8272 151.224 67.7152C151.544 67.4871 151.865 67.2589 152.196 67.0238C151.533 67.0569 150.87 67.0901 150.187 67.1243C150.177 66.9127 150.166 66.7011 150.155 66.4831C147.814 66.478 145.465 66.4888 143.111 66.5143C142.785 66.6367 142.459 66.7591 142.123 66.8852C138.545 67.1152 135.525 67.188 132.067 67.0672C130.742 67.1335 129.416 67.1999 128.051 67.2682C128.035 66.9508 128.019 66.6334 128.003 66.3064C120.532 66.3622 120.532 66.3622 112.91 66.4191C112.589 66.6473 112.269 66.8755 111.938 67.1106C111.418 67.077 110.897 67.0434 110.36 67.0088C106.928 66.9839 104.251 67.2357 100.894 67.6634C99.7708 68.3518 99.7708 68.3518 98.9501 69.0464C95.1193 69.7243 91.4618 69.6726 87.4589 69.7032C83.6774 69.7722 79.9328 69.9911 76.1448 70.2081C73.8495 70.3029 73.8495 70.3029 71.8254 70.0828C71.9067 69.1949 71.9067 69.1949 72.7331 68.1089C77.0633 66.7379 80.6199 66.2201 86.2032 65.7472C86.9047 65.6875 87.6063 65.6277 88.3291 65.5662C93.9592 65.103 99.5451 64.8054 105.213 64.5546C109.059 64.362 112.853 64.0878 116.679 63.7998C124.81 63.1957 132.778 62.95 140.91 62.7676C140.36 63.7666 139.775 64.7584 139.047 65.7535C141.035 65.654 143.023 65.5545 145.071 65.452C144.731 65.29 144.391 65.1281 144.04 64.9612C142.862 64.1796 142.807 63.5788 142.919 62.6671C148.903 61.7102 154.56 61.3071 160.886 60.9239C161.859 60.8628 162.833 60.8016 163.836 60.7386C166.218 60.5893 168.6 60.4425 170.983 60.298C171.299 59.964 171.614 59.63 171.939 59.2859C169.935 59.068 169.935 59.068 167.891 58.8457C167.88 58.6341 167.87 58.4225 167.859 58.2045C168.753 58.1403 169.648 58.076 170.57 58.0098C172.33 57.8813 172.33 57.8813 174.127 57.7501C175.29 57.6658 176.454 57.5814 177.653 57.4945C180.706 57.2736 180.706 57.2736 182.844 56.9686C184.949 56.7021 186.781 56.573 188.948 56.4633C190.07 56.4065 190.07 56.4065 191.215 56.3486C192.372 56.2925 192.372 56.2925 193.553 56.2353C194.332 56.1951 195.111 56.1548 195.914 56.1134C201.707 55.8266 201.707 55.8266 203.988 56.0746C204.656 56.8647 204.656 56.8647 205.072 57.6273C203.142 57.703 201.213 57.7786 199.284 57.8543C196.587 58.0647 194.499 58.4485 192.052 58.9219C193.954 58.7984 195.856 58.6685 197.757 58.5359C198.816 58.4642 199.875 58.3925 200.966 58.3187C204.114 58.0622 204.114 58.0622 206.487 57.3857C209.985 56.5678 212.679 56.5091 216.708 56.3417C218.685 56.2558 218.685 56.2558 220.702 56.1681C221.829 56.1229 222.955 56.0777 224.116 56.0312C227.079 55.9173 227.079 55.9173 229.692 55.5712C232.132 55.3085 232.132 55.3085 234.156 55.5285C233.954 55.2271 233.753 54.9256 233.545 54.615C233.303 54.1399 233.303 54.1399 233.056 53.6552C235.635 52.6871 241.464 52.5852 244.944 52.357C251.368 52.0634 257.268 52.308 263.209 52.7886C264.203 52.7388 265.197 52.6891 266.221 52.6378C266.894 52.8162 267.568 52.9947 268.261 53.1785C268.924 53.1453 269.586 53.1121 270.269 53.078C270.585 52.744 270.9 52.41 271.225 52.0659C274.209 51.7987 277.194 51.5362 280.182 51.2761C281.014 51.201 281.846 51.126 282.704 51.0487C290.189 50.4032 297.231 50.1085 304.43 50.5845C305.191 50.633 305.953 50.6815 306.737 50.7314C307.563 50.7889 307.563 50.7889 308.406 50.8475C308.085 51.0757 307.765 51.3038 307.434 51.5389C306.44 51.5887 305.446 51.6385 304.422 51.6897C304.438 52.0071 304.454 52.3245 304.47 52.6515C305.029 52.6198 305.588 52.5881 306.164 52.5554C310.592 52.317 314.764 52.1832 319.167 52.1669C323.549 52.0766 327.939 51.8028 332.327 51.5584C335.262 51.4294 337.782 51.4354 340.647 51.4834C342.226 51.3289 343.805 51.1728 345.377 51.0068C349.566 50.6473 353.789 50.4996 358.007 50.3131C360.787 50.1588 363.307 49.9724 366.041 49.7213C371.019 49.2797 375.84 49.1114 380.846 48.9689C382.151 48.9287 382.151 48.9287 383.482 48.8877C385.598 48.823 387.713 48.7612 389.828 48.7C389.486 48.505 389.145 48.31 388.792 48.1091C386.348 48.1207 384.019 48.168 381.565 48.2499C380.245 48.2882 378.924 48.3265 377.564 48.366C374.092 48.5251 371.094 48.79 367.708 49.1645C363.722 49.2398 360.892 48.9635 357.603 48.3847C357.593 48.1731 357.582 47.9615 357.571 47.7435C363.887 47.1659 370.014 46.7916 376.382 46.5006C383.359 46.1794 389.816 45.681 396.67 44.9313C399.943 44.6491 402.481 44.6767 405.732 44.6898C408.446 44.5181 411.118 44.3311 413.819 44.1243C420.822 43.6127 427.636 43.3071 434.654 43.1014C440.37 42.9305 445.581 42.7367 451.211 42.0918C458.668 41.2409 466.1 41.081 473.672 40.8488C474.676 40.8173 475.681 40.7859 476.717 40.7535C478.068 40.7147 478.068 40.7147 479.447 40.6751C482.12 40.5446 484.424 40.2784 487.026 39.9775C489.699 39.9213 492.297 39.8876 494.948 39.8823C503.762 39.981 503.762 39.981 512.143 39.0416C514.137 38.9418 516.131 38.8427 518.124 38.7522C520.57 38.6178 522.819 38.3754 525.179 38.0676C525.163 37.7502 525.147 37.4328 525.131 37.1058ZM249.185 54.1334C253.217 54.253 253.217 54.253 253.217 54.253L249.185 54.1334ZM178.919 57.9723C178.93 58.1839 178.94 58.3955 178.951 58.6135C179.608 58.4745 180.266 58.3355 180.943 58.1923C180.275 58.1197 179.607 58.0471 178.919 57.9723ZM266.301 54.2408C266.648 54.5416 266.996 54.8424 267.353 55.1524C268.016 55.1192 268.679 55.086 269.361 55.0518C269.014 54.751 268.667 54.4502 268.309 54.1403C267.647 54.1735 266.984 54.2066 266.301 54.2408ZM413.893 46.8525C413.241 47.0973 412.589 47.3421 411.917 47.5943C414.548 47.7617 415.592 47.7797 418.193 47.3002C418.767 47.1587 419.342 47.0173 419.933 46.8716C417.01 46.8 417.01 46.8 413.893 46.8525ZM182.967 58.4124C181.981 58.6209 181.981 58.6209 180.975 58.8336C180.991 59.151 181.007 59.4684 181.023 59.7954C182.017 59.7456 183.011 59.6959 184.035 59.6446C183.683 59.238 183.33 58.8314 182.967 58.4124ZM228.164 56.4713C228.175 56.6829 228.186 56.8945 228.196 57.1125C229.853 57.0296 231.51 56.9467 233.217 56.8612C233.206 56.6496 233.195 56.438 233.184 56.22C231.528 56.3029 229.871 56.3859 228.164 56.4713ZM401.861 47.7763C401.209 48.021 400.557 48.2658 399.885 48.518C400.879 48.4682 401.873 48.4185 402.897 48.3672C402.555 48.1722 402.213 47.9772 401.861 47.7763ZM410.945 48.2857C410.956 48.4973 410.966 48.7089 410.977 48.9269C411.64 48.8938 412.302 48.8606 412.985 48.8264C412.975 48.6148 412.964 48.4032 412.953 48.1852C412.29 48.2184 411.628 48.2516 410.945 48.2857ZM360.76 51.1194C360.776 51.4368 360.792 51.7542 360.808 52.0812C361.46 51.8364 362.112 51.5916 362.784 51.3394C362.116 51.2668 361.448 51.1942 360.76 51.1194ZM309.571 54.0032C309.634 54.6325 309.634 54.6325 310.639 55.2354C313.668 55.5031 313.668 55.5031 316.695 55.575C317.016 55.3469 317.337 55.1187 317.667 54.8836C316.999 54.8109 316.331 54.7383 315.643 54.6635C315.296 54.3627 314.949 54.0619 314.591 53.7519C312.934 53.8349 311.277 53.9178 309.571 54.0032ZM298.574 55.5179C298.916 55.7129 299.258 55.9079 299.611 56.1089C300.268 55.9699 300.925 55.8309 301.603 55.6877C300.603 55.6317 299.604 55.5757 298.574 55.5179ZM339.762 53.8981C338.608 54.4672 338.608 54.4672 338.816 55.1105C337.485 55.0711 336.155 55.0316 334.784 54.991C336.319 55.6104 336.319 55.6104 338.864 56.0723C344.656 55.9675 349.366 55.4119 354.896 54.627C354.538 54.1145 354.181 53.6021 353.812 53.0742C349.422 52.828 343.622 52.8459 339.762 53.8981ZM360.824 52.4018C361.171 52.7026 361.518 53.0034 361.876 53.3133C361.214 53.3465 360.551 53.3797 359.868 53.4138C359.879 53.6254 359.889 53.837 359.9 54.0551C365.912 54.1803 371.892 53.8046 377.989 53.471C377.973 53.1536 377.957 52.8362 377.941 52.5092C372.044 51.8276 367.363 51.9607 360.824 52.4018ZM271.466 56.8749C270.48 57.0834 270.48 57.0834 269.474 57.2961C269.484 57.5077 269.495 57.7193 269.506 57.9373C271.157 57.7486 272.809 57.5598 274.51 57.3654C273.505 57.2035 272.501 57.0417 271.466 56.8749ZM354.816 53.0239C358.848 53.1435 358.848 53.1435 358.848 53.1435L354.816 53.0239ZM398.993 50.8125C398.678 51.1465 398.362 51.4804 398.037 51.8246C399.357 51.6524 400.677 51.4803 402.037 51.3029C402.027 51.0913 402.016 50.8797 402.005 50.6617C401.011 50.7115 400.017 50.7612 398.993 50.8125ZM133.344 72.4672C135 72.3842 136.657 72.3013 138.364 72.2159C138.353 72.0043 138.343 71.7927 138.332 71.5747C135.996 71.6322 135.996 71.6322 133.344 72.4672ZM644.893 157.424C644.572 157.652 644.252 157.88 643.921 158.115C644.915 158.065 645.909 158.015 646.933 157.964C646.923 157.753 646.912 157.541 646.901 157.323C646.239 157.356 645.576 157.389 644.893 157.424ZM675.078 157.198C673.397 157.906 673.397 157.906 672.13 158.631C673.456 158.565 674.781 158.499 676.146 158.43C678.489 158.313 680.832 158.196 683.175 158.078C679.621 157.213 679.621 157.213 675.078 157.198ZM728.324 155.176C729.51 155.788 729.51 155.788 731.4 156.307C733.926 156.336 733.926 156.336 736.612 156.127C737.516 156.07 738.42 156.013 739.352 155.954C740.041 155.905 740.73 155.855 741.44 155.805C742.082 155.348 742.723 154.892 743.384 154.422C738.28 153.228 733.954 154.207 728.324 155.176ZM766.46 152.945C766.482 153.368 766.503 153.791 766.525 154.227C769.156 154.395 770.2 154.413 772.801 153.933C773.375 153.792 773.949 153.65 774.541 153.505C771.924 152.811 770.005 152.915 766.46 152.945ZM829.714 149.779C830.056 149.974 830.398 150.169 830.75 150.37C831.071 150.141 831.392 149.913 831.722 149.678C831.059 149.711 830.397 149.744 829.714 149.779ZM576.748 163.406C577.09 163.601 577.432 163.796 577.784 163.997C578.672 163.9 579.56 163.802 580.474 163.702C583.327 163.421 585.929 163.241 588.812 163.124C588.802 162.912 588.791 162.7 588.78 162.482C587.335 162.483 585.888 162.49 584.44 162.499C583.635 162.502 582.829 162.505 581.999 162.508C579.436 162.559 579.436 162.559 576.748 163.406ZM668.066 157.871C667.08 158.079 667.08 158.079 666.074 158.292C666.09 158.609 666.106 158.926 666.122 159.253C667.768 158.959 669.414 158.664 671.11 158.361C670.106 158.199 669.101 158.037 668.066 157.871ZM712.259 155.98C712.264 156.085 712.27 156.191 712.275 156.3C713.925 156.287 713.925 156.287 715.608 156.274C719.319 156.269 719.319 156.269 722.348 156.439C724.509 156.049 724.509 156.049 726.332 155.597C726.326 155.491 726.321 155.385 726.315 155.276C721.677 155.508 717.038 155.74 712.259 155.98ZM852.823 148.943C851.837 149.152 851.837 149.152 850.831 149.364C850.841 149.576 850.852 149.788 850.863 150.006C852.177 149.728 853.492 149.45 854.847 149.163C854.179 149.091 853.511 149.018 852.823 148.943ZM1163.07 133.413C1162.75 133.641 1162.42 133.869 1162.09 134.104C1163.09 134.054 1164.08 134.005 1165.11 133.953C1165.1 133.742 1165.09 133.53 1165.07 133.312C1164.41 133.345 1163.75 133.379 1163.07 133.413ZM519.502 165.95C519.513 166.162 519.524 166.373 519.534 166.591C520.523 166.436 521.512 166.28 522.531 166.12C521.531 166.064 520.532 166.008 519.502 165.95ZM591.792 162.332C592.134 162.527 592.476 162.722 592.828 162.922C594.48 162.734 596.131 162.545 597.832 162.351C597.49 162.156 597.149 161.961 596.796 161.76C594.575 161.837 594.575 161.837 591.792 162.332ZM630.949 160.371C631.959 160.639 632.969 160.907 634.009 161.182C634.998 161.027 635.987 160.871 637.005 160.711C636.995 160.499 636.984 160.288 636.973 160.07C634.985 160.169 632.997 160.269 630.949 160.371ZM801.633 151.827C801.975 152.022 802.317 152.217 802.67 152.418C803.658 152.263 804.647 152.107 805.666 151.947C804.335 151.907 803.004 151.868 801.633 151.827ZM839.786 149.917C839.797 150.129 839.808 150.34 839.818 150.558C840.807 150.403 841.796 150.247 842.814 150.087C841.815 150.031 840.816 149.975 839.786 149.917ZM400.055 172.572C399.74 172.906 399.425 173.24 399.1 173.585C401.419 173.468 403.738 173.352 406.128 173.233C405.502 173.165 404.875 173.097 404.23 173.026C402.839 172.875 401.447 172.724 400.055 172.572ZM930.197 146.356C930.87 146.534 931.543 146.712 932.237 146.896C932.226 146.685 932.216 146.473 932.205 146.255C931.542 146.288 930.879 146.321 930.197 146.356ZM1129.01 136.725C1129.02 136.83 1129.02 136.936 1129.03 137.045C1130.68 136.962 1132.34 136.879 1134.05 136.794C1134.04 136.688 1134.04 136.582 1134.03 136.473C1132.37 136.556 1130.72 136.639 1129.01 136.725ZM1160.13 135.167C1160.15 135.378 1160.16 135.59 1160.17 135.808C1161.49 135.741 1162.82 135.675 1164.18 135.607C1164.17 135.395 1164.16 135.184 1164.15 134.966C1162.83 135.032 1161.5 135.098 1160.13 135.167ZM1170.22 135.626C1173.36 136.198 1174.71 136.383 1178.61 136.07C1179.94 135.894 1179.94 135.894 1181.3 135.714C1181.61 135.274 1181.92 134.835 1182.24 134.381C1180.61 134.446 1178.97 134.515 1177.34 134.586C1176.43 134.624 1175.52 134.662 1174.59 134.702C1172.01 134.816 1172.01 134.816 1170.22 135.626ZM175.266 186.075C181.353 186.058 187.221 185.834 193.355 185.491C193.344 185.279 193.334 185.068 193.323 184.85C183.706 184.425 183.706 184.425 175.266 186.075ZM266.584 180.54C265.943 180.996 265.301 181.452 264.641 181.922C265.715 181.816 266.789 181.709 267.896 181.599C273.479 181.091 279.074 180.851 284.705 180.597C284.363 180.402 284.021 180.207 283.669 180.006C278.031 180.182 272.393 180.358 266.584 180.54ZM221.435 183.442C221.446 183.654 221.457 183.866 221.467 184.084C222.467 184.14 223.466 184.196 224.496 184.253C224.806 183.814 225.116 183.374 225.435 182.921C223.35 182.977 223.35 182.977 221.435 183.442ZM228.448 182.77C228.789 182.965 229.131 183.16 229.484 183.361C233.272 183.253 237.062 183.134 240.853 183.013C242.469 182.967 242.469 182.967 244.117 182.92C245.15 182.886 246.183 182.852 247.248 182.817C248.677 182.773 248.677 182.773 250.134 182.729C253.01 182.575 253.01 182.575 255.556 181.413C246.61 181.861 237.664 182.309 228.448 182.77ZM1207.37 133.766C1207.38 133.978 1207.39 134.189 1207.4 134.407C1208.06 134.268 1208.72 134.129 1209.4 133.986C1208.73 133.914 1208.06 133.841 1207.37 133.766ZM259.572 181.212C257.6 181.629 257.6 181.629 255.588 182.054C256.588 182.11 257.587 182.166 258.616 182.224C259.274 182.085 259.931 181.946 260.608 181.803C260.266 181.608 259.925 181.413 259.572 181.212ZM1159.23 137.14C1158.91 137.369 1158.59 137.597 1158.25 137.832C1159.25 137.782 1160.24 137.732 1161.27 137.681C1161.26 137.47 1161.25 137.258 1161.23 137.04C1160.57 137.073 1159.91 137.106 1159.23 137.14ZM1280.75 131.7C1280.76 131.912 1280.77 132.123 1280.78 132.341C1281.44 132.308 1282.1 132.275 1282.79 132.241C1282.78 132.029 1282.76 131.818 1282.75 131.6C1282.09 131.633 1281.43 131.666 1280.75 131.7ZM1317.93 130.482C1317.95 130.905 1317.97 131.328 1317.99 131.764C1321.46 131.431 1321.46 131.431 1325 131.092C1324.99 130.88 1324.98 130.669 1324.97 130.45C1322.65 130.461 1320.32 130.471 1317.93 130.482ZM1342.06 129.917C1342.07 130.234 1342.09 130.551 1342.1 130.878C1343.08 130.511 1344.06 130.144 1345.07 129.766C1344.07 129.816 1343.08 129.865 1342.06 129.917ZM1364.14 128.811C1363.83 129.145 1363.51 129.479 1363.19 129.823C1365.84 129.69 1368.49 129.558 1371.22 129.421C1370.88 129.226 1370.54 129.031 1370.18 128.83C1367.13 128.771 1367.13 128.771 1364.14 128.811ZM1393.31 128.315C1393.32 128.527 1393.33 128.738 1393.34 128.956C1396.77 128.838 1396.77 128.838 1400.37 128.605C1401.02 128.36 1401.67 128.115 1402.35 127.863C1399.36 128.012 1396.38 128.161 1393.31 128.315ZM1431.51 127.367C1432.53 127.793 1432.53 127.793 1433.57 128.228C1434.89 128.056 1436.21 127.884 1437.57 127.707C1436.89 127.528 1436.22 127.35 1435.53 127.166C1434.2 127.232 1432.88 127.299 1431.51 127.367Z" fill="#A8D5BA"/>
</svg>
