<svg width="25" height="25" viewBox="0 0 25 25" fill="none" xmlns="http://www.w3.org/2000/svg">
<path d="M21.5 12.25C21.5 9.79675 20.5254 7.44397 18.7907 5.70926C17.056 3.97455 14.7033 3 12.25 3M21.5 12.25H3M21.5 12.25C21.5 14.7033 20.5254 17.056 18.7907 18.7907C17.056 20.5254 14.7033 21.5 12.25 21.5M12.25 3C9.79675 3 7.44397 3.97455 5.70926 5.70926C3.97455 7.44397 3 9.79675 3 12.25M12.25 3C11.75 3 8.25 7.141 8.25 12.25C8.25 17.359 11.75 21.5 12.25 21.5M12.25 3C12.75 3 16.25 7.141 16.25 12.25C16.25 17.359 12.75 21.5 12.25 21.5M3 12.25C3 14.7033 3.97455 17.056 5.70926 18.7907C7.44397 20.5254 9.79675 21.5 12.25 21.5" stroke="#4E4035" stroke-width="1.5" stroke-linecap="round" stroke-linejoin="round"/>
</svg>
