<svg width="121" height="23" viewBox="0 0 121 23" fill="none" xmlns="http://www.w3.org/2000/svg">
<path d="M0 0C5.24767 0 10.4953 0 15.902 0C15.9322 1.36356 15.9624 2.72712 15.9935 4.13199C16.0135 4.7743 16.0135 4.7743 16.0339 5.42958C16.0405 5.95844 16.0405 5.95844 16.0417 6.20717C16.0439 6.37842 16.049 6.54965 16.0565 6.72077C16.1196 8.23746 16.1196 8.23746 15.582 8.80743C15.2792 9.08431 14.9539 9.32539 14.6093 9.55687C14.3856 9.7116 14.1915 9.88715 13.997 10.0717C13.9401 10.1243 13.8832 10.1768 13.8245 10.231C13.7717 10.2803 13.7188 10.3296 13.6643 10.3804C13.6057 10.4345 13.5472 10.4887 13.4869 10.5445C13.3486 10.6725 13.2107 10.8007 13.0728 10.9291C13.2232 11.2617 13.4444 11.4649 13.7253 11.7129C14.0318 11.988 14.3264 12.2635 14.6033 12.564C14.8639 12.8446 15.1411 13.0807 15.4554 13.31C15.8807 13.6619 15.8807 13.6619 15.9284 13.9614C15.9381 14.1751 15.9382 14.3873 15.9353 14.6012C15.9353 14.6838 15.9353 14.7664 15.9354 14.8515C15.9352 15.1188 15.9329 15.3859 15.9306 15.6531C15.9302 15.8182 15.9299 15.9833 15.9297 16.1483C15.9282 16.7601 15.9241 17.3719 15.9203 17.9837C15.9143 19.3509 15.9083 20.7182 15.902 22.1269C10.6544 22.1269 5.40669 22.1269 0 22.1269C0 14.825 0 7.52314 0 0Z" fill="#5A3113"/>
<path d="M86.2719 0C88.2696 0 90.2673 0 92.3255 0C92.3255 3.31097 92.3255 6.62194 92.3255 10.0332C92.5158 10.0332 92.7061 10.0332 92.9021 10.0332C92.9189 9.97942 92.9358 9.92559 92.9531 9.87013C93.1309 9.30914 93.3258 8.75554 93.5319 8.2031C93.5644 8.11563 93.5969 8.02815 93.6303 7.93802C93.7357 7.65468 93.8413 7.37144 93.9471 7.08822C93.9832 6.99122 94.0193 6.89422 94.0566 6.79428C94.601 5.3331 95.1548 3.8753 95.7231 2.42206C96.0376 1.61629 96.3434 0.808804 96.6496 0C98.7741 0 100.899 0 103.088 0C103.088 7.30187 103.088 14.6037 103.088 22.1269C101.09 22.1269 99.0922 22.1269 97.0339 22.1269C97.0022 18.8455 96.9705 15.5641 96.9378 12.1832C96.7793 12.2128 96.6207 12.2423 96.4574 12.2728C96.3217 12.4727 96.3217 12.4727 96.2442 12.7333C96.2089 12.8331 96.1735 12.9328 96.1371 13.0356C96.1001 13.146 96.0631 13.2564 96.025 13.3702C95.9841 13.4871 95.943 13.6039 95.9016 13.7207C95.8355 13.9074 95.7696 14.0941 95.7044 14.281C95.4726 14.9449 95.2239 15.6031 94.9738 16.2612C94.8422 16.608 94.7112 16.955 94.5803 17.302C94.5536 17.3726 94.5269 17.4433 94.4995 17.516C94.2902 18.0704 94.0826 18.6254 93.8754 19.1805C93.8135 19.3459 93.7517 19.5113 93.6898 19.6767C93.5998 19.9177 93.5098 20.1586 93.4201 20.3997C93.3373 20.6219 93.2543 20.8441 93.1712 21.0662C93.1467 21.1322 93.1223 21.1983 93.0971 21.2663C92.9846 21.5662 92.8628 21.8418 92.7099 22.1269C90.5854 22.1269 88.4608 22.1269 86.2719 22.1269C86.2719 14.825 86.2719 7.52314 86.2719 0Z" fill="#5A3213"/>
<path d="M35.4592 0C37.6261 0 39.7929 0 42.0255 0C42.0255 2.77885 42.0255 5.5577 42.0255 8.42076C42.7903 8.42076 43.555 8.42076 44.343 8.42076C44.343 5.64191 44.343 2.86306 44.343 0C46.478 0 48.613 0 50.8127 0C50.8127 7.30187 50.8127 14.6037 50.8127 22.1269C45.746 22.1269 40.6794 22.1269 35.4592 22.1269C35.4592 20.2645 35.4592 18.402 35.4592 16.4832C38.4227 16.4832 41.3862 16.4832 44.4395 16.4832C44.4395 15.7146 44.4395 14.9459 44.4395 14.154C41.476 14.154 38.5125 14.154 35.4592 14.154C35.4592 9.48321 35.4592 4.81237 35.4592 0Z" fill="#5D3415"/>
<path d="M105.647 0C107.782 0 109.917 0 112.116 0C112.116 2.69016 112.116 5.38033 112.116 8.15201C112.913 8.15201 113.71 8.15201 114.53 8.15201C114.53 5.46185 114.53 2.77168 114.53 0C116.665 0 118.8 0 121 0C121 7.30187 121 14.6037 121 22.1269C118.897 22.1269 116.794 22.1269 114.627 22.1269C114.595 19.3776 114.563 16.6283 114.53 13.7957C113.766 13.7957 113.001 13.7957 112.213 13.7957C112.181 16.545 112.149 19.2943 112.116 22.1269C109.981 22.1269 107.846 22.1269 105.647 22.1269C105.647 14.825 105.647 7.52314 105.647 0Z" fill="#5C3213"/>
<path d="M16.9106 0C19.1641 0 21.4177 0 23.7396 0C23.8511 0.421273 23.9554 0.819521 24.0319 1.2437C24.0496 1.34131 24.0674 1.43892 24.0857 1.53948C24.1135 1.69514 24.1135 1.69514 24.1419 1.85394C24.1618 1.96358 24.1817 2.07321 24.2022 2.18617C24.255 2.47727 24.3075 2.76841 24.3599 3.05956C24.4528 3.57597 24.5464 4.09228 24.6399 4.6086C24.6599 4.71952 24.68 4.83044 24.7006 4.94472C24.8429 5.72933 24.9912 6.51279 25.147 7.29512C25.1616 7.36933 25.1762 7.44353 25.1912 7.51999C25.204 7.58412 25.2168 7.64824 25.23 7.71431C25.2572 7.88326 25.2572 7.88326 25.2572 8.15201C25.4762 8.15201 25.6953 8.15201 25.9211 8.15201C25.9372 8.03907 25.9534 7.92614 25.97 7.80978C25.9932 7.65137 26.0164 7.49297 26.0396 7.33457C26.05 7.26136 26.0604 7.18814 26.0711 7.11271C26.1841 6.34934 26.3339 5.59274 26.4814 4.83483C26.585 4.30201 26.6852 3.76865 26.7847 3.23512C26.8176 3.05905 26.8505 2.88297 26.8835 2.7069C26.9335 2.43898 26.9835 2.17104 27.0333 1.90308C27.0826 1.63787 27.1322 1.3727 27.1819 1.10753C27.1968 1.02693 27.2117 0.946318 27.2271 0.863267C27.2411 0.78894 27.255 0.714614 27.2694 0.638035C27.2815 0.572962 27.2936 0.507889 27.3061 0.440844C27.3438 0.268748 27.3438 0.268748 27.4386 0C29.6922 0 31.9458 0 34.2677 0C34.0544 1.1079 34.0544 1.1079 33.9268 1.54985C33.8981 1.65037 33.8694 1.75089 33.8398 1.85446C33.8088 1.96122 33.7779 2.06798 33.746 2.17798C33.6954 2.35457 33.645 2.53121 33.5945 2.70786C33.5589 2.83282 33.5231 2.95777 33.4874 3.0827C33.2898 3.77357 33.0975 4.46574 32.9052 5.15795C32.589 6.2965 32.271 7.43461 31.9498 8.57193C31.9046 8.73207 31.9046 8.73207 31.8585 8.89544C31.8301 8.99596 31.8017 9.09649 31.7724 9.20006C31.7457 9.29537 31.7191 9.39068 31.6917 9.48888C31.6391 9.67077 31.5834 9.8519 31.5245 10.0321C31.4975 10.1162 31.4705 10.2003 31.4426 10.2869C31.4182 10.3593 31.3937 10.4317 31.3685 10.5063C31.2435 11.2472 31.564 12.0159 31.7683 12.7235C31.8037 12.8474 31.839 12.9713 31.8743 13.0952C31.9684 13.4251 32.0631 13.7548 32.158 14.0845C32.2363 14.3568 32.3141 14.6292 32.392 14.9016C32.88 16.6088 33.3716 18.3152 33.8718 20.0192C33.8912 20.0856 33.9107 20.1521 33.9308 20.2205C33.9813 20.3926 34.0319 20.5647 34.0826 20.7368C34.1124 20.8408 34.1422 20.9448 34.1728 21.0519C34.1994 21.1442 34.1994 21.1442 34.2265 21.2384C34.3127 21.5478 34.3625 21.8047 34.3625 22.1269C32.1089 22.1269 29.8554 22.1269 27.5335 22.1269C27.3201 21.3208 27.3201 21.3208 27.2529 20.9618C27.2377 20.881 27.2224 20.8003 27.2067 20.7171C27.1908 20.6316 27.1749 20.5461 27.1586 20.4581C27.1414 20.3671 27.1242 20.2761 27.1065 20.1823C27.0699 19.9882 27.0335 19.7941 26.9971 19.6C26.7056 18.0459 26.4092 16.4932 26.0801 14.9457C26.0588 14.8445 26.0375 14.7433 26.0156 14.639C25.9972 14.5531 25.9787 14.4671 25.9598 14.3786C25.9211 14.154 25.9211 14.154 25.9211 13.7957C25.702 13.7957 25.4829 13.7957 25.2572 13.7957C25.2464 13.8703 25.2357 13.9449 25.2247 14.0217C25.1064 14.8265 24.9644 15.6254 24.81 16.4247C24.7854 16.5527 24.7608 16.6807 24.7363 16.8087C24.6852 17.0747 24.6339 17.3406 24.5825 17.6066C24.5173 17.944 24.4526 18.2815 24.388 18.619C24.3375 18.8826 24.2868 19.1461 24.2359 19.4096C24.212 19.5339 24.1881 19.6582 24.1644 19.7826C24.1309 19.9575 24.097 20.1324 24.0631 20.3073C24.0345 20.4553 24.0345 20.4553 24.0054 20.6062C23.8965 21.1154 23.7684 21.6207 23.6447 22.1269C21.3912 22.1269 19.1376 22.1269 16.8157 22.1269C16.9224 21.3208 16.9224 21.3208 17.0195 20.9964C17.0411 20.923 17.0628 20.8496 17.0851 20.774C17.1085 20.6964 17.132 20.6188 17.1562 20.5389C17.1809 20.4557 17.2055 20.3725 17.2309 20.2867C17.2839 20.1082 17.3371 19.9297 17.3905 19.7512C17.5322 19.2776 17.6721 18.8035 17.812 18.3294C17.8402 18.2338 17.8685 18.1382 17.8976 18.0398C18.1793 17.0836 18.447 16.1242 18.7114 15.1638C18.9793 14.1908 19.2557 13.2212 19.5599 12.2576C19.8179 11.418 19.9319 10.7318 19.6374 9.89327C19.5835 9.72752 19.5301 9.56164 19.477 9.39567C19.4309 9.25264 19.4309 9.25264 19.384 9.10671C19.1723 8.42814 18.9827 7.7437 18.7897 7.06022C18.7451 6.90255 18.7004 6.74487 18.6557 6.5872C18.3234 5.41321 17.9954 4.23814 17.6693 3.0626C17.6364 2.94401 17.6364 2.94401 17.6028 2.82302C17.4833 2.39191 17.3642 1.96068 17.2459 1.52924C17.1983 1.35535 17.1504 1.18151 17.1025 1.00767C17.0763 0.911292 17.0501 0.814911 17.0232 0.71561C17.0011 0.634466 16.9789 0.553321 16.9561 0.469718C16.9106 0.268748 16.9106 0.268748 16.9106 0Z" fill="#5C3315"/>
<path d="M69.4562 0C74.5229 0 79.5895 0 84.8097 0C84.8097 1.77373 84.8097 3.54747 84.8097 5.37495C81.878 5.37495 78.9464 5.37495 75.9259 5.37495C75.9259 6.35051 75.9259 7.32606 75.9259 8.33118C77.4236 8.33118 78.9213 8.33118 80.4644 8.33118C80.4644 10.1049 80.4644 11.8786 80.4644 13.7061C78.9667 13.7061 77.469 13.7061 75.9259 13.7061C75.9259 14.7408 75.9259 15.7755 75.9259 16.8415C78.8576 16.8415 81.7892 16.8415 84.8097 16.8415C84.8097 18.5857 84.8097 20.3299 84.8097 22.1269C79.743 22.1269 74.6764 22.1269 69.4562 22.1269C69.4562 14.825 69.4562 7.52314 69.4562 0Z" fill="#5C3214"/>
<path d="M52.2749 0C57.4622 0 62.6495 0 67.9939 0C67.9939 1.85491 67.9939 3.70982 67.9939 5.62094C66.4664 5.62094 64.9389 5.62094 63.365 5.62094C63.365 11.0679 63.365 16.5149 63.365 22.1269C61.2328 22.1269 59.1006 22.1269 56.9038 22.1269C56.9038 16.6799 56.9038 11.233 56.9038 5.62094C55.3763 5.62094 53.8487 5.62094 52.2749 5.62094C52.2749 3.76603 52.2749 1.91112 52.2749 0Z" fill="#5B3112"/>
<path d="M2.55891 2.68188C6.0023 2.68188 9.44569 2.68188 12.9934 2.68188C13.2742 8.03414 13.2742 8.03414 12.4063 8.94249C12.0231 9.29289 11.5812 9.5722 11.1126 9.82163C10.5724 10.1169 10.1141 10.5226 9.67779 10.9316C9.83625 11.2932 10.1271 11.5338 10.4294 11.8007C10.5116 11.8744 10.5116 11.8744 10.5956 11.9495C10.7707 12.1061 10.9465 12.2621 11.1223 12.4181C11.2395 12.5227 11.3566 12.6273 11.4737 12.732C11.69 12.9252 11.9065 13.1181 12.1233 13.3108C12.3819 13.5407 12.6391 13.7718 12.8959 14.0034C12.9281 14.0323 12.9603 14.0613 12.9934 14.0911C13.0026 14.2581 13.0049 14.4254 13.0045 14.5925C13.0045 14.7012 13.0045 14.8099 13.0045 14.9219C13.004 15.037 13.0035 15.1521 13.003 15.2708C13.0029 15.3759 13.0028 15.4811 13.0027 15.5894C13.0021 15.9841 13.0008 16.3787 12.9995 16.7734C12.9975 17.6549 12.9955 18.5364 12.9934 19.4447C9.55004 19.4447 6.10664 19.4447 2.55891 19.4447C2.55891 13.913 2.55891 8.38124 2.55891 2.68188Z" fill="#FAF9F7"/>
<path d="M3.65559 3.35254C6.46057 3.35254 9.26556 3.35254 12.1555 3.35254C12.6031 7.21593 12.6031 7.21593 11.3741 8.64327C10.3745 9.69818 9.27418 10.5312 7.68934 10.6974C6.32038 10.792 5.04142 10.649 3.65559 10.5337C3.65559 8.16395 3.65559 5.79415 3.65559 3.35254Z" fill="#5C3416"/>
<path d="M3.65559 11.4792C4.88555 11.4572 4.88555 11.4572 6.14036 11.4347C6.39779 11.4283 6.65523 11.4218 6.92046 11.4151C7.12632 11.413 7.33218 11.4112 7.53804 11.4097C7.64346 11.4061 7.74887 11.4024 7.85748 11.3987C8.4299 11.3982 8.74933 11.4422 9.1656 11.8167C9.28105 11.9389 9.39336 12.0637 9.5021 12.1909C9.8545 12.5783 10.1626 12.9038 10.6345 13.1723C11.282 13.5761 11.8354 14.0064 11.9862 14.7365C12.1519 16.0766 12.0103 17.4348 11.9382 18.7743C9.20491 18.7743 6.47166 18.7743 3.65559 18.7743C3.65559 16.3669 3.65559 13.9596 3.65559 11.4792Z" fill="#5C3213"/>
<path d="M88.8308 2.68188C89.1552 2.68188 89.4796 2.68188 89.8138 2.68188C89.9768 2.82738 89.9241 3.00238 89.9248 3.19674C89.9244 3.28907 89.9244 3.28907 89.9239 3.38326C89.924 3.44821 89.9241 3.51315 89.9242 3.58006C89.9244 3.79932 89.9238 4.01857 89.9233 4.23782C89.9233 4.39433 89.9233 4.55085 89.9233 4.70736C89.9234 5.13365 89.9228 5.55994 89.9221 5.98622C89.9215 6.43121 89.9214 6.87619 89.9213 7.32117C89.921 8.16443 89.9202 9.00769 89.9192 9.85094C89.9181 10.8107 89.9176 11.7705 89.9171 12.7302C89.916 14.7051 89.9143 16.6799 89.9121 18.6548C90.1392 18.6548 90.3663 18.6548 90.6002 18.6548C90.6126 18.5911 90.6249 18.5275 90.6376 18.4619C90.6971 18.2219 90.7794 18.018 90.8876 17.7924C90.9269 17.7099 90.9662 17.6273 91.0067 17.5423C91.0497 17.4532 91.0927 17.364 91.1371 17.2722C91.182 17.1782 91.2269 17.0842 91.2732 16.9873C91.4212 16.6781 91.5698 16.3692 91.7184 16.0603C91.796 15.8985 91.8735 15.7367 91.951 15.5749C92.6686 14.0766 93.3916 12.5803 94.117 11.0849C94.8471 9.57867 95.5665 8.06835 96.2843 6.55736C96.9008 5.26073 97.5315 3.97026 98.1695 2.68188C98.948 2.68188 99.7266 2.68188 100.529 2.68188C100.529 8.21361 100.529 13.7453 100.529 19.4447C100.172 19.4447 99.815 19.4447 99.4474 19.4447C99.4474 14.1736 99.4474 8.90255 99.4474 3.47175C98.879 3.49497 98.879 3.49497 98.7107 3.72932C98.6591 3.84142 98.6591 3.84142 98.6065 3.95578C98.5457 4.08339 98.5457 4.08339 98.4837 4.21358C98.442 4.30704 98.4002 4.40051 98.3572 4.4968C98.3119 4.59358 98.2665 4.69035 98.2198 4.79005C98.0972 5.05243 97.9767 5.31547 97.8571 5.57891C97.7323 5.85238 97.6049 6.12485 97.4776 6.39738C97.2752 6.8313 97.074 7.26565 96.8737 7.70034C96.5502 8.4009 96.2172 9.09761 95.8807 9.79324C95.7348 10.0951 95.5898 10.3974 95.4447 10.6995C95.3901 10.813 95.3356 10.9264 95.2811 11.0398C94.9768 11.6727 94.673 12.3059 94.3692 12.939C94.1315 13.4342 93.8937 13.9293 93.6557 14.4243C93.1352 15.5068 92.6166 16.59 92.1006 17.6741C92.0387 17.8042 91.9767 17.9343 91.9147 18.0644C91.8283 18.2457 91.742 18.4271 91.6558 18.6085C91.5814 18.765 91.5814 18.765 91.5054 18.9246C91.4263 19.0956 91.3539 19.2692 91.2883 19.4447C90.4774 19.4447 89.6664 19.4447 88.8308 19.4447C88.8308 13.913 88.8308 8.38124 88.8308 2.68188Z" fill="#F9F7F6"/>
<path d="M108.205 2.68188C108.566 2.68188 108.927 2.68188 109.299 2.68188C109.299 5.28846 109.299 7.89503 109.299 10.5806C113.283 10.5371 113.283 10.5371 117.348 10.4928C117.381 7.91521 117.414 5.3376 117.447 2.68188C117.775 2.68188 118.103 2.68188 118.441 2.68188C118.441 8.21361 118.441 13.7453 118.441 19.4447C118.113 19.4447 117.785 19.4447 117.447 19.4447C117.447 16.7802 117.447 14.1157 117.447 11.3705C114.758 11.3705 112.069 11.3705 109.299 11.3705C109.299 14.0349 109.299 16.6994 109.299 19.4447C108.938 19.4447 108.577 19.4447 108.205 19.4447C108.205 13.913 108.205 8.38124 108.205 2.68188Z" fill="#FAFAF9"/>
<path d="M20.4713 2.68838C20.8122 2.68838 21.153 2.68838 21.5043 2.68838C21.7262 3.21534 21.8986 3.74343 22.0541 4.29047C22.0788 4.37615 22.1035 4.46184 22.129 4.55013C22.2087 4.82686 22.2878 5.10371 22.367 5.38057C22.4762 5.76077 22.5855 6.14091 22.6949 6.52105C22.7218 6.6144 22.7486 6.70775 22.7762 6.80393C22.9324 7.3465 23.0911 7.88831 23.254 8.42916C23.272 8.48909 23.29 8.54901 23.3085 8.61075C23.3892 8.87931 23.4705 9.1477 23.5528 9.41584C23.5804 9.50765 23.6081 9.59945 23.6366 9.69404C23.6603 9.77153 23.684 9.84902 23.7084 9.92885C23.758 10.1454 23.758 10.1454 23.758 10.584C24.9665 10.584 26.1751 10.584 27.4203 10.584C27.4513 10.3524 27.4822 10.1208 27.5142 9.88218C27.5665 9.66869 27.6233 9.45614 27.6842 9.24465C27.7011 9.1852 27.7181 9.12575 27.7356 9.06451C27.7911 8.87019 27.8474 8.67607 27.9037 8.48194C27.943 8.3454 27.9822 8.20886 28.0213 8.0723C28.1033 7.78686 28.1855 7.5015 28.2681 7.2162C28.3732 6.85274 28.4778 6.48914 28.5822 6.12549C28.6826 5.77593 28.7832 5.42643 28.8839 5.07694C28.9027 5.01138 28.9216 4.94581 28.941 4.87825C29.534 2.81917 29.534 2.81917 29.674 2.68838C30.0183 2.67583 30.3625 2.68468 30.7069 2.68838C30.3944 4.00518 30.0116 5.30415 29.6309 6.60489C29.5463 6.89423 29.462 7.18364 29.3776 7.47305C29.3611 7.52949 29.3447 7.58593 29.3277 7.64408C29.247 7.9209 29.1664 8.19774 29.0859 8.47462C28.9584 8.91296 28.8309 9.35119 28.6983 9.7882C28.6801 9.84885 28.662 9.90949 28.6433 9.97198C28.5991 10.1196 28.5541 10.2671 28.509 10.4145C28.3992 10.9208 28.4513 11.356 28.5952 11.8503C28.6271 11.9613 28.659 12.0724 28.6918 12.1869C28.7277 12.3087 28.7636 12.4306 28.7995 12.5524C28.8366 12.6806 28.8737 12.8088 28.9107 12.9371C28.9928 13.2212 29.0754 13.5052 29.1584 13.7891C29.3133 14.3192 29.4665 14.8498 29.6197 15.3803C29.8338 16.1215 30.0483 16.8625 30.2635 17.6034C30.2865 17.6829 30.3096 17.7624 30.3333 17.8442C30.3659 17.9563 30.3659 17.9563 30.3992 18.0707C30.4195 18.1408 30.4398 18.2109 30.4608 18.2832C30.5141 18.4628 30.5712 18.6411 30.629 18.8195C30.7069 19.0938 30.7069 19.0938 30.7069 19.4447C30.3661 19.4447 30.0252 19.4447 29.674 19.4447C29.3865 18.6804 29.1642 17.9 28.9367 17.1188C28.8931 16.9698 28.8495 16.8207 28.8059 16.6716C28.715 16.3606 28.6243 16.0495 28.5337 15.7383C28.4177 15.3403 28.3013 14.9424 28.1847 14.5446C28.0948 14.2373 28.0051 13.93 27.9155 13.6227C27.8727 13.4759 27.8298 13.3292 27.7868 13.1825C27.7268 12.9775 27.6671 12.7724 27.6075 12.5673C27.581 12.4772 27.581 12.4772 27.554 12.3854C27.4561 12.0469 27.3884 11.7216 27.3264 11.3736C26.1798 11.4025 25.0332 11.4315 23.8519 11.4613C23.7589 11.7997 23.6659 12.138 23.5702 12.4866C23.301 13.4605 23.0199 14.4308 22.7312 15.3998C22.5625 15.9672 22.3965 16.5351 22.2353 17.1044C22.2182 17.1647 22.2012 17.2249 22.1836 17.287C22.1011 17.5783 22.0191 17.8696 21.9375 18.1611C21.8934 18.3174 21.8934 18.3174 21.8483 18.4769C21.8098 18.6146 21.8098 18.6146 21.7704 18.755C21.6921 19.006 21.6921 19.006 21.5043 19.4447C21.1634 19.4447 20.8225 19.4447 20.4713 19.4447C20.6142 18.5802 20.8621 17.7487 21.1121 16.9071C21.2141 16.5638 21.3151 16.2202 21.4162 15.8766C21.467 15.7039 21.5178 15.5313 21.5687 15.3586C21.7897 14.6088 22.0062 13.8578 22.2203 13.1062C22.2501 13.0016 22.28 12.8971 22.3107 12.7893C22.364 12.6022 22.4169 12.415 22.4694 12.2277C22.5112 12.0797 22.554 11.932 22.5984 11.7846C22.7777 11.1725 22.7459 10.6668 22.5687 10.0581C22.552 10.0001 22.5354 9.94204 22.5182 9.88226C22.4633 9.69161 22.4073 9.50127 22.3512 9.31091C22.3123 9.17636 22.2734 9.04179 22.2346 8.9072C22.1322 8.55276 22.0289 8.19857 21.9253 7.84442C21.7613 7.28295 21.5988 6.72109 21.4361 6.15929C21.3968 6.02362 21.3574 5.88797 21.318 5.75232C21.0223 4.73403 20.7366 3.71401 20.4713 2.68838Z" fill="#FBFBFA"/>
<path d="M38.3837 2.68188C38.703 2.68188 39.0223 2.68188 39.3513 2.68188C39.3513 5.37534 39.3513 8.0688 39.3513 10.8439C41.9698 10.8439 44.5883 10.8439 47.2861 10.8439C47.2861 8.15042 47.2861 5.45696 47.2861 2.68188C47.6054 2.68188 47.9248 2.68188 48.2538 2.68188C48.2538 8.21361 48.2538 13.7453 48.2538 19.4447C44.9966 19.4447 41.7395 19.4447 38.3837 19.4447C38.3837 19.184 38.3837 18.9234 38.3837 18.6548C41.3215 18.6548 44.2593 18.6548 47.2861 18.6548C47.2861 16.3379 47.2861 14.0209 47.2861 11.6337C44.3483 11.6337 41.4105 11.6337 38.3837 11.6337C38.3837 8.67963 38.3837 5.72552 38.3837 2.68188Z" fill="#FDFDFC"/>
<path d="M72.0151 2.68188C75.3929 2.68188 78.7706 2.68188 82.2508 2.68188C82.2508 2.94254 82.2508 3.2032 82.2508 3.47175C79.2009 3.47175 76.1511 3.47175 73.0089 3.47175C73.0089 5.81767 73.0089 8.16358 73.0089 10.5806C74.583 10.5806 76.1571 10.5806 77.7789 10.5806C77.7789 10.8412 77.7789 11.1019 77.7789 11.3705C76.2376 11.3705 74.6963 11.3705 73.1082 11.3705C73.1082 13.7743 73.1082 16.1781 73.1082 18.6548C76.1253 18.6548 79.1423 18.6548 82.2508 18.6548C82.2508 18.9155 82.2508 19.1761 82.2508 19.4447C78.873 19.4447 75.4952 19.4447 72.0151 19.4447C72.0151 13.913 72.0151 8.38124 72.0151 2.68188Z" fill="#FBFAFA"/>
<path d="M54.8338 2.68188C58.3322 2.68188 61.8306 2.68188 65.435 2.68188C65.435 2.94254 65.435 3.2032 65.435 3.47175C63.8657 3.47175 62.2963 3.47175 60.6794 3.47175C60.6794 8.74282 60.6794 14.0139 60.6794 19.4447C60.3197 19.4447 59.9601 19.4447 59.5895 19.4447C59.5895 14.1736 59.5895 8.90255 59.5895 3.47175C58.0201 3.47175 56.4508 3.47175 54.8338 3.47175C54.8338 3.2111 54.8338 2.95044 54.8338 2.68188Z" fill="#F8F9F8"/>
<path d="M6.58006 13.4102C8.01292 13.4102 8.01292 13.4102 8.51032 13.8137C8.57386 13.8734 8.6374 13.9331 8.70287 13.9946C8.7703 14.0559 8.83773 14.1172 8.9072 14.1804C9.42327 14.7105 9.53058 15.184 9.49968 15.8805C9.46756 16.1716 9.43545 16.4627 9.40236 16.7627C8.471 16.7627 7.53964 16.7627 6.58006 16.7627C6.58006 15.6564 6.58006 14.55 6.58006 13.4102Z" fill="#FDFCFB"/>
<path d="M6.58006 5.36401C7.50325 5.36401 8.42643 5.36401 9.37759 5.36401C9.58237 6.97811 9.58237 6.97811 9.05314 7.63406C8.91601 7.77715 8.77485 7.91695 8.62997 8.05318C8.56159 8.11935 8.4932 8.18553 8.42274 8.25371C7.76573 8.81498 7.57512 8.70852 6.58006 8.70852C6.58006 7.60483 6.58006 6.50115 6.58006 5.36401Z" fill="#FEFEFC"/>
<path d="M27.4169 0C29.709 0 32.001 0 34.3625 0C34.3625 0.0553172 34.3625 0.110634 34.3625 0.167628C34.2399 0.168924 34.2399 0.168924 34.1148 0.170246C33.3454 0.178448 32.576 0.187039 31.8067 0.196069C31.4111 0.200698 31.0155 0.205176 30.62 0.20931C30.2384 0.213303 29.8569 0.21769 29.4753 0.222353C29.3296 0.224065 29.1838 0.225634 29.038 0.227058C28.8343 0.229073 28.6306 0.231592 28.4269 0.234233C28.3107 0.235536 28.1946 0.236839 28.075 0.238181C27.8075 0.235533 27.8075 0.235533 27.6098 0.335256C27.5462 0.307597 27.4825 0.279939 27.4169 0.251442C27.4169 0.168466 27.4169 0.0854902 27.4169 0Z" fill="#3F1606"/>
<path d="M3.65559 11.7339C5.39808 11.7339 7.14058 11.7339 8.93588 11.7339C9.0029 11.8445 9.06992 11.9552 9.13897 12.0691C9.03844 12.047 8.93791 12.0249 8.83434 12.0021C8.83434 11.9578 8.83434 11.9136 8.83434 11.868C8.12943 11.8759 7.42454 11.8842 6.71966 11.893C6.47972 11.8959 6.23978 11.8987 5.99983 11.9013C5.65552 11.9052 5.31123 11.9095 4.96693 11.9138C4.80525 11.9155 4.80525 11.9155 4.6403 11.9172C4.5407 11.9186 4.4411 11.9199 4.33848 11.9213C4.25054 11.9223 4.1626 11.9234 4.07199 11.9244C3.85283 11.9264 3.85283 11.9264 3.65559 12.0021C3.65559 11.9136 3.65559 11.8251 3.65559 11.7339Z" fill="#5A3113"/>
<path d="M35.8248 16.4275C38.2375 16.4275 40.6501 16.4275 43.1359 16.4275C42.8087 16.671 42.6271 16.7627 42.2346 16.7627C42.1354 16.7259 42.0363 16.689 41.9341 16.651C41.6284 16.6333 41.6284 16.6333 41.3332 16.7627C40.4318 16.7627 40.4318 16.7627 40.1202 16.7076C39.6787 16.6434 39.2523 16.6369 38.8078 16.6401C38.6793 16.6403 38.6793 16.6403 38.5481 16.6406C38.2767 16.6412 38.0053 16.6426 37.7339 16.644C37.549 16.6446 37.364 16.6451 37.179 16.6455C36.7276 16.6468 36.2762 16.6487 35.8248 16.651C35.8248 16.5772 35.8248 16.5035 35.8248 16.4275Z" fill="#5D3415"/>
<path d="M9.50453 12.4045C10.1571 12.8942 10.7412 13.4425 11.3323 13.9926C11.2371 14.0217 11.1419 14.0508 11.0437 14.0808C10.6886 13.7587 10.3429 13.43 10.0036 13.0938C9.95527 13.0468 9.90697 12.9997 9.8572 12.9513C9.50453 12.6015 9.50453 12.6015 9.50453 12.4045Z" fill="#5A3113"/>
<path d="M27.5083 0.67041C27.5686 0.67041 27.6289 0.67041 27.6911 0.67041C27.7596 0.838038 27.7596 0.838038 27.7825 1.04292C27.6054 1.2152 27.6054 1.2152 27.4169 1.34092C27.4471 1.11965 27.4772 0.898384 27.5083 0.67041Z" fill="#502912"/>
<path d="M10.6012 13.4102C10.8987 13.4491 10.9685 13.5243 11.1724 13.8083C11.2252 13.8982 11.2779 13.9881 11.3323 14.0807C10.986 14.0202 10.8284 13.8394 10.6012 13.5219C10.6012 13.485 10.6012 13.4482 10.6012 13.4102Z" fill="#5A3113"/>
<path d="M73.1118 11.3987C73.2324 11.3987 73.3531 11.3987 73.4773 11.3987C73.4059 11.857 73.4059 11.857 73.3555 11.9947C73.2349 12.0316 73.2349 12.0316 73.1118 12.0692C73.1118 11.8479 73.1118 11.6267 73.1118 11.3987Z" fill="#52230B"/>
</svg>
