<svg width="44" height="54" viewBox="0 0 44 54" fill="none" xmlns="http://www.w3.org/2000/svg">
<g clip-path="url(#clip0_1127_241)">
<path d="M19.5309 51.4244L19.0312 51.0861C16.5305 49.3364 14.2068 47.3465 12.0931 45.1447C8.37947 41.2541 4.21558 35.422 4.21558 28.5386C4.21558 20.0703 11.0886 11.6254 21.1314 11.6254C31.1742 11.6254 38.0472 20.0703 38.0472 28.5412C38.0472 35.4246 33.8833 41.2567 30.1697 45.1421C28.056 47.3439 25.7323 49.3338 23.2316 51.0835C23.0199 51.231 22.8534 51.3437 22.7319 51.4218C22.2036 51.7731 21.6649 52.1063 21.1314 52.4446C20.5979 52.1063 20.0592 51.7731 19.5309 51.4244ZM21.1314 33.7461C22.5118 33.7461 23.8357 33.1977 24.8118 32.2216C25.7879 31.2455 26.3363 29.9216 26.3363 28.5412C26.3363 27.1608 25.7879 25.8369 24.8118 24.8608C23.8357 23.8847 22.5118 23.3363 21.1314 23.3363C19.751 23.3363 18.4271 23.8847 17.451 24.8608C16.4749 25.8369 15.9265 27.1608 15.9265 28.5412C15.9265 29.9216 16.4749 31.2455 17.451 32.2216C18.4271 33.1977 19.751 33.7461 21.1314 33.7461Z" fill="#FFF9F3"/>
</g>
<path d="M6.90558 6.89243C6.86765 6.08831 7.74697 5.57125 8.43124 5.99531L17.9067 11.8675C18.5464 12.2639 18.5355 13.1981 17.8868 13.5795L8.93657 18.8425C8.28791 19.2239 7.46625 18.7793 7.4308 18.0276L6.90558 6.89243Z" fill="#FFF9F3"/>
<path d="M35.8076 7.45409C36.5206 7.08048 37.3604 7.6596 37.2646 8.4589L35.9377 19.5272C35.8482 20.2743 34.9966 20.6586 34.3771 20.2314L25.8297 14.3367C25.2102 13.9095 25.2667 12.977 25.9333 12.6277L35.8076 7.45409Z" fill="#FFF9F3"/>
<defs>
<clipPath id="clip0_1127_241">
<rect width="41.639" height="41.639" fill="white" transform="translate(0.312012 11.6254)"/>
</clipPath>
</defs>
</svg>
