<svg width="22" height="23" viewBox="0 0 22 23" fill="none" xmlns="http://www.w3.org/2000/svg">
<path fill-rule="evenodd" clip-rule="evenodd" d="M13.55 10.01C13.66 10.3 13.94 10.5 14.25 10.5C14.56 10.5 14.84 10.3 14.95 10.01L15.22 9.29C15.52 8.49 15.67 8.09 15.88 7.88C16.088 7.672 16.482 7.523 17.286 7.22L17.31 7.21L18.01 6.95C18.3 6.84 18.5 6.56 18.5 6.25C18.5 5.94 18.3 5.66 18.01 5.55L17.29 5.28C16.49 4.98 16.09 4.83 15.88 4.62C15.672 4.412 15.523 4.017 15.218 3.212L15.21 3.19L14.95 2.49C14.8959 2.34757 14.8002 2.22469 14.6754 2.13731C14.5506 2.04994 14.4024 2.00209 14.25 2C13.94 2 13.66 2.2 13.55 2.49L13.28 3.21C12.98 4.01 12.83 4.41 12.62 4.62C12.412 4.828 12.017 4.978 11.212 5.282L11.19 5.29L10.49 5.55C10.2 5.66 10 5.94 10 6.25C10 6.56 10.2 6.84 10.49 6.95L11.21 7.22C12.01 7.52 12.41 7.67 12.62 7.88C12.828 8.088 12.977 8.483 13.282 9.288L13.29 9.31L13.55 10.01ZM13.68 6.82C13.45 6.58 13.18 6.41 12.83 6.25C13.17 6.09 13.44 5.92 13.68 5.68C13.92 5.45 14.09 5.18 14.25 4.83C14.41 5.17 14.58 5.44 14.82 5.68C15.05 5.92 15.32 6.09 15.67 6.25C15.33 6.41 15.06 6.58 14.82 6.82C14.58 7.05 14.41 7.32 14.25 7.67C14.09 7.33 13.92 7.06 13.68 6.82ZM9.75 18.5C5.48 18.5 2 15.02 2 10.75C2 6.48 5.48 3 9.75 3C10.16 3 10.5 3.34 10.5 3.75C10.5 4.16 10.16 4.5 9.75 4.5C6.3 4.5 3.5 7.3 3.5 10.75C3.5 14.2 6.3 17 9.75 17C13.2 17 16 14.2 16 10.75C16 10.34 16.34 10 16.75 10C17.16 10 17.5 10.34 17.5 10.75C17.5022 12.5466 16.876 14.2874 15.73 15.671L19.28 19.221C19.57 19.511 19.57 19.991 19.28 20.281C19.13 20.431 18.94 20.501 18.75 20.501C18.56 20.501 18.37 20.431 18.22 20.281L14.67 16.731C13.2867 17.8768 11.5463 18.5019 9.75 18.5Z" fill="#4E4035"/>
</svg>
