<svg width="24" height="25" viewBox="0 0 24 25" fill="none" xmlns="http://www.w3.org/2000/svg">
<path d="M21.5832 18.3805H19.3012C18.4382 18.3805 18.1782 17.6815 16.6312 16.1335C15.2792 14.8305 14.7082 14.6685 14.3662 14.6685C13.8932 14.6685 13.7642 14.7985 13.7642 15.4495V17.5015C13.7642 18.0565 13.5842 18.3815 12.1342 18.3815C10.7275 18.287 9.36338 17.8596 8.15419 17.1346C6.945 16.4096 5.92535 15.4077 5.17922 14.2115C3.40824 12.0061 2.17563 9.4183 1.57922 6.65346C1.57922 6.31146 1.70922 6.00146 2.36122 6.00146H4.64122C5.22722 6.00146 5.43822 6.26246 5.66822 6.86546C6.77522 10.1235 8.66422 12.9575 9.43122 12.9575C9.72522 12.9575 9.85322 12.8275 9.85322 12.0945V8.73846C9.75622 7.20746 8.94322 7.07846 8.94322 6.52446C8.95351 6.3783 9.02037 6.24191 9.1296 6.14425C9.23883 6.0466 9.38183 5.99537 9.52822 6.00146H13.1122C13.6022 6.00146 13.7642 6.24546 13.7642 6.83146V11.3615C13.7642 11.8505 13.9742 12.0125 14.1222 12.0125C14.4162 12.0125 14.6422 11.8505 15.1812 11.3125C16.3361 9.90312 17.28 8.33337 17.9832 6.65246C18.0549 6.45042 18.1908 6.27745 18.3701 6.16005C18.5495 6.04264 18.7624 5.98729 18.9762 6.00246H21.2572C21.9412 6.00246 22.0862 6.34446 21.9412 6.83246C21.1114 8.69076 20.0848 10.4548 18.8792 12.0945C18.6332 12.4695 18.5352 12.6645 18.8792 13.1045C19.1052 13.4465 19.9052 14.1145 20.4422 14.7495C21.2242 15.5295 21.8732 16.4315 22.3642 17.4195C22.5602 18.0555 22.2342 18.3805 21.5832 18.3805Z" fill="#4E4035"/>
</svg>
