<svg width="1726" height="165" viewBox="0 0 1726 165" fill="none" xmlns="http://www.w3.org/2000/svg">
<g filter="url(#filter0_d_1071_1371)">
<path d="M683.888 14.4247C686.493 14.5307 688.988 14.4881 691.61 14.4284C698.548 14.2883 705.483 14.1993 712.422 14.126C713.804 14.111 715.185 14.095 716.567 14.078C718.594 14.0532 720.622 14.0314 722.65 14.0102C723.265 14.0021 723.88 13.994 724.514 13.9857C727.546 13.9576 729.962 14.0261 732.838 14.4292C733.227 14.3402 733.615 14.2511 734.016 14.1593C735.96 14.0354 737.921 13.9836 739.876 13.9165C740.498 13.895 741.119 13.8734 741.759 13.8512C749.934 13.5823 758.113 13.4424 766.294 13.3014C768.587 13.2619 770.879 13.2202 773.171 13.1778C774.969 13.1447 776.767 13.1129 778.565 13.0815C779.41 13.0665 780.255 13.0512 781.1 13.0356C785.652 12.9518 790.128 12.9188 794.66 13.0473C796.154 13.0872 796.153 13.0872 797.832 12.7707C800.39 12.6658 802.952 12.6332 805.514 12.5868C806.561 12.5636 806.561 12.5636 807.63 12.5398C811.505 12.4679 815.046 12.5043 818.818 12.8351C820.348 12.9117 820.348 12.9117 821.914 12.6032C824.411 12.2171 826.597 12.2153 829.205 12.2075C829.715 12.204 830.225 12.2006 830.75 12.197C831.825 12.1902 832.899 12.1847 833.974 12.1804C835.609 12.1737 837.245 12.1632 838.88 12.1519C839.928 12.1458 840.976 12.1398 842.024 12.1342C842.508 12.1312 842.993 12.1283 843.492 12.1253C846.24 12.1153 848.892 12.1832 851.616 12.3081C853.223 12.2901 854.814 12.2628 856.418 12.2223C860.141 12.1409 863.79 12.1437 867.504 12.2198C869.447 12.2414 871.354 12.2033 873.301 12.1542C876.215 12.0888 878.8 12.1827 881.636 12.4089C883.46 12.529 885.236 12.4701 887.086 12.4215C887.875 12.4904 888.665 12.5592 889.454 12.6281C890.33 12.4893 890.33 12.4893 891.223 12.3476C892.31 12.3133 893.398 12.2936 894.486 12.2825C895.135 12.2743 895.784 12.2661 896.453 12.2577C897.484 12.2452 897.484 12.2452 898.536 12.2326C907.412 12.1044 907.412 12.1044 916.029 11.1578C916.816 11.1389 917.605 11.1312 918.393 11.1311C920.481 11.1076 922.342 10.9803 924.38 10.7623C927.679 10.4404 930.835 10.327 934.19 10.2782C934.769 10.268 935.347 10.2578 935.944 10.2472C937.157 10.2263 938.371 10.2066 939.585 10.188C941.425 10.1597 943.264 10.1274 945.104 10.0945C946.292 10.0745 947.48 10.0547 948.668 10.0352C949.479 10.0211 949.479 10.0211 950.306 10.0068C953.595 9.95805 956.829 9.98411 960.103 10.0688C961.669 10.108 961.669 10.108 963.816 10.0554C965.663 10.0225 965.663 10.0225 967.055 10.1289C968.77 10.2271 970.145 10.1634 971.87 10.0516C977.494 9.72934 982.657 9.56601 988.127 10.1192C988.516 10.0301 988.904 9.94099 989.305 9.84921C990.812 9.80444 992.303 9.77249 993.81 9.75319C994.436 9.74369 994.436 9.74369 995.075 9.734C996.106 9.71852 997.138 9.70457 998.169 9.69091C998.368 9.9338 998.568 10.1767 998.773 10.4269C1000.14 10.3676 1001.5 10.3066 1002.87 10.2448C1003.63 10.211 1004.39 10.1772 1005.18 10.1424C1006.96 10.1191 1006.96 10.1191 1007.63 9.77092C1008.7 9.72723 1009.77 9.70039 1010.84 9.68243C1011.43 9.67136 1012.01 9.66028 1012.61 9.64887C1014.13 9.65484 1014.13 9.65484 1015.31 9.88259C1015.32 10.129 1015.32 10.3753 1015.33 10.6292C1018.26 10.2963 1018.26 10.2963 1020.63 9.53875C1023.02 9.41015 1023.91 9.40514 1025.96 9.9415C1027.13 10.0176 1028.32 10.0816 1029.51 10.127C1029.5 9.96279 1029.5 9.79854 1029.5 9.62932C1030.28 9.69751 1031.06 9.76571 1031.87 9.83596C1031.87 10.0823 1031.87 10.3287 1031.88 10.5825C1032.45 10.5816 1033.02 10.5807 1033.62 10.5797C1038.77 10.5885 1043.67 10.7626 1048.72 11.1229C1050.66 11.2321 1052.39 11.2604 1054.35 11.177C1054.55 11.0914 1054.74 11.0058 1054.94 10.9176C1056.58 10.8088 1058.2 10.7194 1059.85 10.6432C1060.3 10.618 1060.76 10.5929 1061.23 10.567C1064.6 10.4114 1064.6 10.4114 1066.49 10.8008C1067.36 11.1937 1067.36 11.1937 1067.37 11.6914C1067.76 11.6844 1068.15 11.6775 1068.55 11.6703C1068.74 11.4204 1068.93 11.1706 1069.13 10.9131C1074.88 10.314 1080.33 10.1827 1086.2 10.1517C1086.85 10.1447 1087.5 10.1377 1088.17 10.1305C1088.76 10.1272 1089.34 10.1239 1089.94 10.1204C1091.87 9.9953 1092.89 9.66922 1094.51 9.21506C1095.91 9.10132 1095.91 9.10132 1097.34 9.08282C1097.86 9.07485 1098.38 9.06687 1098.92 9.05866C1099.45 9.05426 1099.98 9.04986 1100.53 9.04533C1101.34 9.03278 1101.34 9.03278 1102.17 9.01997C1106.15 8.96872 1106.15 8.96872 1107.52 9.23175C1108.8 9.19289 1110.08 9.13596 1111.36 9.06983C1112.11 9.03169 1112.86 8.99355 1113.64 8.95425C1115.3 8.86242 1116.94 8.75852 1118.59 8.64503C1124.59 8.27808 1130.84 8.09244 1136.74 8.6001C1139.48 8.7505 1142.24 8.62976 1145.02 8.56504C1149.57 8.47731 1153.9 8.74776 1158.35 9.07076C1158.36 9.23501 1158.36 9.39926 1158.36 9.56849C1158.81 9.47831 1159.26 9.38813 1159.72 9.29522C1161.31 9.018 1161.31 9.018 1163.08 8.98634C1163.08 9.15059 1163.09 9.31484 1163.09 9.48406C1163.77 9.41792 1163.77 9.41792 1164.47 9.35045C1169.09 8.92079 1173.04 8.62955 1177.67 8.97467C1180.93 9.18762 1184.06 9.13891 1187.35 9.06628C1191.45 8.97619 1195.52 8.90919 1199.62 8.92507C1200.04 8.9253 1200.46 8.92553 1200.89 8.92577C1202.95 8.93834 1204.8 9.01561 1206.79 9.2248C1209.49 9.48173 1211.86 9.31063 1214.58 9.09345C1215.5 9.0252 1216.41 8.95769 1217.32 8.89097C1217.74 8.85969 1218.17 8.82841 1218.61 8.79618C1220.2 8.69609 1221.77 8.66569 1223.37 8.65651C1223.67 9.02084 1223.67 9.02084 1223.97 9.39253C1224.26 9.30085 1224.54 9.20916 1224.83 9.11469C1227.09 8.71877 1229.1 8.87868 1231.47 8.97867C1234.27 9.08949 1236.97 9.17503 1239.79 9.09642C1241.49 9.05147 1242.3 9.06665 1243.92 9.31346C1245.27 9.57466 1245.27 9.57466 1246.75 9.32319C1247.49 9.16611 1247.49 9.16611 1248.24 9.00586C1249.99 8.64006 1251.62 8.32302 1253.51 8.1183C1253.51 8.28255 1253.51 8.44679 1253.52 8.61602C1254.04 8.63977 1254.56 8.66352 1255.09 8.68799C1255.78 8.71968 1256.47 8.75138 1257.18 8.78403C1257.86 8.81521 1258.54 8.8464 1259.24 8.87853C1260.42 8.93759 1261.61 9.00525 1262.79 9.08935C1264.11 9.16937 1265.26 9.17027 1266.6 9.12911C1268.58 9.08091 1270.48 9.09399 1272.44 9.14933C1276.17 9.23189 1279.86 9.15894 1283.6 9.07457C1288.78 8.96846 1293.88 8.89373 1299.04 9.04773C1299.42 8.71227 1299.81 8.37681 1300.2 8.03118C1300.79 8.10286 1301.38 8.17454 1301.98 8.24839C1302.28 8.61272 1302.28 8.61272 1302.59 8.98441C1304.25 9.26001 1304.25 9.26001 1306.25 9.44794C1306.92 9.51881 1307.59 9.58967 1308.28 9.66268C1311.97 9.99356 1315.25 10.0162 1319.04 9.89543C1320.93 9.90159 1322.6 10.0452 1324.43 10.2199C1326.48 10.3774 1328.52 10.3486 1330.61 10.3354C1334.09 10.3331 1337.16 10.4373 1340.46 10.8917C1342.42 11.1147 1344.45 10.9717 1346.48 10.9126C1355.28 10.6832 1355.28 10.6832 1359.52 11.2865C1363.47 11.6188 1367.76 11.3556 1371.79 11.2337C1371.78 10.9874 1371.78 10.741 1371.77 10.4872C1372.94 10.4663 1374.11 10.4454 1375.32 10.4238C1375.62 10.665 1375.62 10.665 1375.92 10.911C1375.73 11.1609 1375.54 11.4107 1375.34 11.6681C1378.51 11.9353 1381.7 11.886 1384.94 11.8745C1387.83 11.8771 1390.29 12.0562 1393.09 12.347C1394.94 12.3463 1394.94 12.3463 1396.78 12.2655C1400.51 12.1697 1403.77 12.3597 1407.28 12.8403C1407.58 12.9583 1407.58 12.9583 1407.88 13.0786C1408.89 13.1192 1409.92 13.144 1410.94 13.1626C1411.59 13.175 1412.24 13.1874 1412.92 13.2002C1413.63 13.2126 1414.35 13.225 1415.08 13.2378C1415.81 13.2514 1416.55 13.2651 1417.3 13.2791C1419.25 13.3153 1421.21 13.3505 1423.17 13.3852C1425.13 13.4203 1427.1 13.4567 1429.06 13.4929C1432.61 13.5582 1436.16 13.6224 1439.71 13.686C1442.02 13.7297 1444.34 13.781 1446.65 13.8349C1449.65 13.875 1452.66 13.7728 1455.66 13.6874C1456.4 13.6701 1456.4 13.6701 1457.15 13.6525C1457.79 13.6347 1457.79 13.6347 1458.46 13.6165C1459.91 13.6431 1459.91 13.6431 1461.84 13.8576C1464.36 14.0959 1466.53 14.082 1469.12 14.0164C1469.59 14.0067 1470.06 13.997 1470.54 13.987C1472.04 13.9559 1473.53 13.9215 1475.02 13.8866C1476.52 13.853 1478.01 13.8202 1479.51 13.7888C1480.44 13.7692 1481.36 13.7483 1482.29 13.7259C1484.75 13.6724 1487.05 13.7097 1489.47 13.862C1492.6 13.8716 1495.67 13.7834 1498.77 13.5403C1501.24 13.3631 1503.04 13.5457 1505.43 13.826C1509.68 14.0107 1513.82 13.936 1518.1 13.833C1523.02 13.7291 1527.78 13.7019 1532.66 13.8913C1537.36 14.0621 1542.07 14.0255 1546.79 13.9979C1549.75 13.9825 1552.63 13.9946 1555.56 14.1159C1558.68 14.2028 1561.82 14.1501 1564.95 14.1321C1566.48 14.1253 1568.01 14.1188 1569.54 14.1125C1570.29 14.1093 1571.04 14.1062 1571.82 14.1029C1574.94 14.0916 1578.05 14.0881 1581.17 14.0914C1581.68 14.0911 1582.19 14.0909 1582.72 14.0906C1584.66 14.094 1586.33 14.1117 1588.19 14.3394C1589.52 14.3207 1590.85 14.2899 1592.18 14.2526C1596.44 14.1545 1600.51 14.2874 1604.73 14.4695C1612.86 14.8153 1620.85 14.7792 1629.05 14.6004C1635.01 14.4715 1640.86 14.4298 1646.79 14.6316C1649.16 14.7075 1651.24 14.7089 1653.61 14.5239C1656.11 14.3347 1657.89 14.5079 1660.32 14.794C1662.09 14.8819 1663.86 14.9229 1665.64 14.9634C1666.55 14.9861 1667.47 15.009 1668.38 15.0322C1668.82 15.043 1669.25 15.0539 1669.71 15.065C1670.86 15.0986 1672.01 15.1493 1673.15 15.2017C1675 15.2726 1676.72 15.2652 1678.58 15.2147C1679.59 15.1874 1680.6 15.1669 1681.61 15.1606C1681.9 15.2786 1681.9 15.2786 1682.2 15.3989C1683.37 15.4092 1684.54 15.4009 1685.71 15.3829C1686.67 15.3711 1686.67 15.3711 1687.65 15.359C1689.38 15.3431 1689.38 15.3431 1690.47 14.7535C1691.88 14.7886 1691.88 14.7886 1693.5 14.9171C1694.31 14.9788 1694.31 14.9788 1695.13 15.0416C1695.55 15.076 1695.96 15.1103 1696.38 15.1457C1696.39 15.3099 1696.39 15.4742 1696.39 15.6434C1697.18 15.7116 1697.96 15.7798 1698.76 15.85C1698.76 16.0143 1698.77 16.1785 1698.77 16.3477C1699.42 16.3721 1700.06 16.3965 1700.73 16.4217C1701.88 16.5344 1701.88 16.5344 1702.92 16.7716C1704.07 17.6231 1704.54 18.5614 1704.98 19.5256C1705.1 19.6704 1705.22 19.8153 1705.34 19.9646C1706.82 20.261 1706.82 20.261 1708.3 20.4095C1708.3 20.5738 1708.31 20.738 1708.31 20.9072C1708.9 20.9789 1709.48 21.0506 1710.09 21.1244C1709.92 22.042 1709.66 22.3223 1708.01 22.9818C1707.54 23.1289 1707.07 23.276 1706.58 23.4275C1707.06 23.496 1707.54 23.5645 1708.03 23.6351C1709.55 23.8725 1709.55 23.8725 1710.14 24.1108C1710.45 25.9182 1710.45 25.9182 1709.48 26.5652C1708.42 26.8799 1708.42 26.8799 1706.91 27.2491C1705.22 27.7573 1704.87 28.1229 1704.32 28.9447C1700.33 29.2647 1700.33 29.2647 1699 29.2885C1698.81 29.6205 1698.62 29.9524 1698.43 30.2945C1695.04 30.6351 1695.04 30.6351 1693.7 30.3789C1693.51 30.5466 1693.32 30.7144 1693.12 30.8872C1694.09 30.8698 1695.07 30.8524 1696.07 30.8344C1696.08 31.0808 1696.08 31.3272 1696.09 31.581C1695.7 31.588 1695.31 31.5949 1694.91 31.6021C1695.14 31.7366 1695.37 31.871 1695.61 32.0095C1696.1 32.5764 1696.1 32.5764 1695.53 33.2402C1694.1 33.9852 1692.95 34.155 1690.82 34.4134C1690.82 34.7419 1690.83 35.0704 1690.84 35.4089C1692.89 35.6187 1692.89 35.6187 1694.98 35.8327C1694.99 36.0791 1694.99 36.3255 1694.99 36.5793C1694.02 36.5967 1693.04 36.6141 1692.04 36.6321C1691.85 36.8819 1691.66 37.1318 1691.46 37.3892C1691.07 37.3962 1690.68 37.4031 1690.28 37.4103C1691.07 37.7249 1691.85 38.0394 1692.66 38.3635C1692.47 38.6134 1692.28 38.8633 1692.08 39.1207C1691.11 39.1381 1690.13 39.1555 1689.13 39.1734C1689.14 39.6662 1689.15 40.1589 1689.16 40.6666C1688.38 40.8448 1687.6 41.023 1686.8 41.2065C1687.98 42.5733 1687.98 42.5733 1689.69 43.8155C1690.4 44.3784 1690.4 44.3784 1689.97 45.024C1689.73 45.2286 1689.49 45.4331 1689.24 45.6438C1688.71 46.1281 1688.71 46.1281 1688.67 46.6498C1688.98 46.8599 1689.29 47.0701 1689.61 47.2866C1690.84 48.465 1690.11 49.3822 1689.33 50.621C1687.36 50.4903 1685.39 50.3596 1683.42 50.2288C1683.5 50.407 1683.59 50.5851 1683.68 50.7686C1683.44 51.4731 1683.44 51.4731 1682.58 51.7869C1681.84 52 1681.09 52.213 1680.34 52.4259C1679.18 52.8425 1678.86 53.1278 1678.38 53.7261C1677.58 54.565 1677.58 54.565 1676.11 54.9491C1674.64 55.1155 1674.64 55.1155 1672.86 55.1471C1672.87 55.3114 1672.87 55.4756 1672.87 55.6449C1671.34 55.996 1670.4 55.9208 1668.7 55.8749C1668.17 55.862 1667.64 55.849 1667.09 55.8356C1665.78 55.7715 1665.78 55.7715 1665.19 55.5332C1663.95 55.4879 1662.72 55.4487 1661.49 55.4125C1658 55.268 1656.74 55.0473 1654.52 53.9811C1653.18 53.9587 1653.18 53.9587 1652.16 54.2722C1651.97 54.522 1651.78 54.7719 1651.58 55.0293C1653.63 55.2391 1653.63 55.2391 1655.73 55.4532C1655.54 55.8673 1655.35 56.2814 1655.16 56.708C1653.79 56.7324 1652.43 56.7568 1651.02 56.7819C1652.54 57.5296 1654.14 57.6668 1656.36 57.9312C1656.66 58.1724 1656.66 58.1724 1656.96 58.4184C1655.3 58.6287 1654.22 58.7385 1652.53 58.5909C1651 58.4528 1651 58.4528 1649.69 58.9061C1647.48 59.4885 1645.92 59.4167 1643.38 59.4077C1643.39 59.5719 1643.39 59.7362 1643.39 59.9054C1645.24 60.0668 1646.93 60.1027 1648.83 60.0573C1651.08 60.0171 1651.08 60.0171 1652.26 60.2448C1652.27 60.4091 1652.27 60.5733 1652.27 60.7426C1652.66 60.7356 1653.05 60.7286 1653.46 60.7215C1653.46 60.8857 1653.46 61.05 1653.46 61.2192C1651.32 61.2575 1649.17 61.2958 1646.96 61.3353C1647.26 61.6996 1647.26 61.6996 1647.57 62.0713C1647.96 62.1464 1648.35 62.2216 1648.75 62.299C1648.94 63.024 1649.08 63.5756 1648.79 64.2899C1646.87 65.1382 1645.34 65.4015 1642.68 65.4571C1641.97 65.4492 1641.26 65.4413 1640.53 65.4331C1640.93 65.6725 1641.32 65.9119 1641.73 66.1586C1643.17 66.2235 1643.17 66.2235 1644.76 66.1512C1645.3 66.1348 1645.83 66.1185 1646.39 66.1016C1646.8 66.0856 1647.21 66.0696 1647.64 66.0531C1648.5 66.7501 1648.02 67.2745 1647.67 68.0439C1646.53 68.2044 1646.53 68.2044 1645.32 68.335C1645.02 68.217 1645.02 68.217 1644.72 68.0967C1641.9 68.1022 1639.18 68.2222 1636.38 68.3857C1633.92 68.5241 1631.78 68.5829 1629.36 68.3711C1629.17 68.7031 1628.98 69.035 1628.78 69.3771C1629.18 69.385 1629.58 69.393 1629.99 69.4012C1630.52 69.4126 1631.05 69.424 1631.59 69.4358C1632.11 69.4467 1632.63 69.4576 1633.17 69.4689C1634.52 69.5143 1635.76 69.598 1637.06 69.7271C1637.06 69.5628 1637.06 69.3986 1637.06 69.2293C1638.22 69.1263 1639.39 69.0233 1640.6 68.9172C1640.9 69.2815 1640.9 69.2815 1641.2 69.6532C1640.81 69.7423 1640.42 69.8314 1640.02 69.9232C1641 69.9057 1641.97 69.8883 1642.98 69.8704C1644.1 70.8094 1644.18 71.3126 1643.61 72.3484C1643.12 72.4053 1642.63 72.4622 1642.13 72.5208C1641.49 72.5971 1640.85 72.6734 1640.19 72.752C1639.55 72.8269 1638.91 72.9018 1638.26 72.9789C1636.44 73.1953 1636.44 73.1953 1634.77 73.751C1633.58 73.8527 1632.4 73.9025 1631.19 73.954C1629.7 74.1245 1629.16 74.3164 1628.29 74.8626C1628.21 75.4508 1628.21 75.4508 1628.5 76.0725C1628.8 76.9186 1628.97 77.7236 1628.95 78.5849C1629.59 78.599 1630.24 78.6132 1630.91 78.6277C1633.11 78.7614 1633.57 78.7901 1634.87 79.4748C1635.62 81.181 1635.76 82.9441 1635.56 84.6903C1633.38 85.6556 1627.45 85.6205 1624.53 85.743C1621.37 85.8852 1618.96 86.1823 1616.09 86.7806C1619.04 88.2163 1623.07 88.7928 1627.37 89.3176C1628.18 89.3257 1629 89.3208 1629.82 89.3067C1630.29 89.2987 1630.76 89.2906 1631.25 89.2823C1631.73 89.2727 1632.22 89.263 1632.72 89.253C1633.21 89.2453 1633.7 89.2375 1634.2 89.2295C1634.67 89.2208 1635.14 89.2121 1635.62 89.2032C1636.05 89.1952 1636.48 89.1873 1636.92 89.1791C1638.06 89.1541 1638.06 89.1541 1639.18 88.8576C1645.26 88.5206 1650.97 89.2195 1656.35 90.2936C1657.59 91.0458 1657.67 91.2423 1657.75 92.1201C1657.95 93.0027 1658.02 93.1839 1659.55 93.8305C1661.07 94.196 1661.07 94.196 1662.48 94.385C1663.52 94.6465 1663.52 94.6465 1664.05 95.3838C1664.08 95.6298 1664.11 95.8757 1664.14 96.1291C1662.96 96.6479 1662.96 96.6479 1661.41 96.7067C1660.95 96.7047 1660.49 96.7027 1660.01 96.7007C1659.96 96.8453 1659.92 96.9899 1659.87 97.1388C1659.29 97.9008 1658.58 98.2402 1657.09 98.7443C1654.6 98.9227 1652.84 98.7692 1650.58 98.3627C1650.58 98.5269 1650.59 98.6912 1650.59 98.8604C1653.52 99.3009 1655.78 99.2873 1658.87 99.2104C1659.26 99.2856 1659.65 99.3607 1660.06 99.4382C1660.06 99.6024 1660.06 99.7666 1660.07 99.9359C1660.45 99.9804 1660.82 100.025 1661.21 100.071C1662.44 100.391 1662.44 100.391 1663.04 101.096C1663.06 101.874 1663.06 101.874 1662.14 102.482C1660.37 103.014 1659.27 103.018 1657.17 102.975C1657.13 103.243 1657.1 103.51 1657.07 103.786C1656.52 104.901 1655.82 105.121 1653.67 105.776C1653.48 105.943 1653.28 106.111 1653.09 106.284C1653.67 106.274 1654.26 106.263 1654.86 106.252C1654.87 106.663 1654.87 107.074 1654.88 107.497C1654.1 107.675 1653.33 107.853 1652.53 108.037C1652.93 109.015 1653.34 109.994 1653.76 111.002C1653.18 111.094 1652.6 111.187 1651.99 111.282C1651.83 111.465 1651.66 111.648 1651.49 111.836C1650.63 112.771 1649.56 113.364 1647.91 114.094C1646.54 114.3 1645.17 114.494 1643.78 114.665C1642.83 115.91 1642.67 117.175 1644.03 118.333C1644.36 118.512 1644.69 118.69 1645.04 118.875C1646.85 119.884 1647.19 120.817 1647.35 122.07C1647.38 122.243 1647.41 122.416 1647.45 122.595C1647.67 124.075 1647.18 124.904 1644.87 126.05C1643.4 126.621 1643.4 126.621 1642.22 126.642C1642.03 126.892 1641.84 127.142 1641.64 127.399C1639.61 127.45 1637.58 127.495 1635.55 127.539C1634.97 127.554 1634.39 127.568 1633.8 127.583C1632.97 127.6 1632.97 127.6 1632.12 127.618C1631.35 127.636 1631.35 127.636 1630.57 127.654C1629.23 127.621 1629.23 127.621 1627.45 127.155C1625.94 127.113 1624.49 127.092 1622.98 127.095C1618.72 127.091 1618.72 127.091 1617.4 126.837C1615.92 126.855 1614.45 126.906 1612.97 126.956C1611.49 126.942 1611.49 126.942 1610.36 126.714C1608.59 126.39 1607.07 126.476 1605.12 126.527C1604.09 126.552 1604.09 126.552 1603.03 126.578C1602.5 126.593 1601.97 126.608 1601.43 126.624C1601.43 126.788 1601.44 126.952 1601.44 127.122C1600.07 127.146 1598.71 127.17 1597.3 127.195C1597 126.831 1597 126.831 1596.7 126.459C1594.62 126.489 1592.54 126.522 1590.46 126.555C1589.87 126.564 1589.29 126.572 1588.68 126.581C1585.57 126.632 1582.62 126.73 1579.57 127.014C1579.27 126.65 1579.27 126.65 1578.96 126.278C1576.68 126.264 1575.13 126.445 1573.06 126.881C1573.06 127.046 1573.07 127.21 1573.07 127.379C1570.4 127.518 1570.4 127.518 1569.04 127.109C1568.33 126.717 1568.33 126.717 1568.32 126.219C1565.02 126.328 1565.02 126.328 1562.42 127.071C1561.2 127.031 1561.2 127.031 1560.06 126.865C1559.76 126.624 1559.76 126.624 1559.46 126.378C1558.8 126.392 1558.14 126.407 1557.47 126.422C1549.48 126.589 1549.48 126.589 1546.56 126.483C1543.05 126.362 1539.53 126.472 1536 126.557C1532.91 126.625 1530 126.586 1526.95 126.46C1524.25 126.429 1522.27 126.516 1519.86 127.085C1516.97 127.227 1514.89 127.08 1512.17 126.724C1508.65 126.479 1504.95 126.515 1501.53 127.095C1501.14 127.124 1500.76 127.154 1500.36 127.184C1499.85 127.012 1499.85 127.012 1499.32 126.837C1497.56 126.367 1496.45 126.425 1494.34 126.481C1493.27 126.505 1493.27 126.505 1492.18 126.53C1491.07 126.561 1491.07 126.561 1489.93 126.592C1485.54 126.704 1481.25 126.804 1476.89 126.666C1474.59 126.608 1472.29 126.653 1469.98 126.7C1469.29 126.711 1469.29 126.711 1468.58 126.722C1466.08 126.762 1466.08 126.762 1463.63 126.986C1462.53 127.113 1462.53 127.113 1461.34 126.885C1459.16 126.795 1456.96 126.772 1454.76 126.738C1454.09 126.728 1453.41 126.717 1452.72 126.707C1446.35 126.63 1440.01 126.731 1433.63 126.879C1423.25 127.111 1423.25 127.111 1418.38 126.765C1416.97 126.644 1416.97 126.644 1415.43 126.825C1412.7 127.058 1410.08 127.014 1407.33 126.994C1403.5 126.977 1399.7 126.975 1395.88 127.058C1391.11 127.16 1386.36 127.155 1381.6 127.153C1376.53 127.157 1371.47 127.227 1366.4 127.345C1363.68 127.404 1361.17 127.405 1358.49 127.228C1356.11 127.229 1356.11 127.229 1353.8 127.452C1352.58 127.583 1352.58 127.583 1350.7 127.492C1348.46 127.408 1346.71 127.499 1344.51 127.664C1342.67 127.781 1340.87 127.796 1339.03 127.815C1337.7 127.834 1337.7 127.834 1335.97 128.035C1334.27 128.159 1334.27 128.159 1332.39 127.95C1329.95 127.719 1327.78 127.731 1325.29 127.806C1321.25 127.902 1317.24 127.942 1313.21 127.928C1312.72 127.927 1312.24 127.926 1311.74 127.924C1309.65 127.915 1307.61 127.884 1305.52 127.797C1302.57 127.691 1299.64 127.755 1296.66 127.819C1295.77 127.836 1295.77 127.836 1294.85 127.854C1292.33 127.903 1289.8 127.955 1287.27 128.007C1280.04 128.154 1272.84 128.26 1265.62 128.197C1261.57 128.168 1257.87 128.24 1253.88 128.598C1253.3 128.527 1252.71 128.455 1252.11 128.381C1251.11 128.388 1250.11 128.407 1249.12 128.435C1247.03 128.481 1245.02 128.494 1242.95 128.42C1240.19 128.339 1237.47 128.384 1234.71 128.443C1230.12 128.54 1225.55 128.566 1220.97 128.564C1214.6 128.563 1208.26 128.664 1201.9 128.8C1195.29 128.936 1188.77 128.916 1182.17 128.79C1181.53 128.778 1180.89 128.766 1180.23 128.754C1179.67 128.742 1179.11 128.729 1178.53 128.717C1177.09 128.726 1176.05 128.826 1174.68 129.017C1171.5 129.139 1168.31 129.2 1165.15 129.047C1162.75 128.976 1160.7 129.098 1158.32 129.263C1156.61 129.351 1155.09 129.241 1153.4 129.148C1152.56 129.195 1151.73 129.252 1150.89 129.317C1148.68 129.481 1148.68 129.481 1147.49 129.254C1145.42 129.328 1143.36 129.424 1141.29 129.535C1137.67 129.702 1134.12 129.709 1130.5 129.691C1124.42 129.663 1118.35 129.736 1112.27 129.85C1110.58 129.882 1108.9 129.91 1107.22 129.939C1102.61 130.021 1098.04 130.111 1093.45 130.361C1089.3 130.581 1085.28 130.525 1081.12 130.439C1076.97 130.355 1073.05 130.277 1068.92 130.6C1066.48 130.758 1064.04 130.667 1061.6 130.617C1059.18 130.582 1056.89 130.642 1054.47 130.789C1050.42 131.011 1046.41 131.071 1042.34 131.11C1041.59 131.118 1040.83 131.127 1040.05 131.135C1038.46 131.152 1036.87 131.168 1035.28 131.184C1033.24 131.203 1031.21 131.226 1029.18 131.248C1027.23 131.27 1025.27 131.29 1023.32 131.31C1022.59 131.318 1021.86 131.326 1021.11 131.334C1020.44 131.34 1019.76 131.347 1019.07 131.353C1018.48 131.359 1017.88 131.365 1017.27 131.371C1015.71 131.358 1015.71 131.358 1014.46 131.238C1012.8 131.109 1011.42 131.376 1009.82 131.596C1008.62 131.734 1008.62 131.734 1006.63 131.754C1005.86 131.775 1005.86 131.775 1005.08 131.797C1004.69 132.05 1004.31 132.304 1003.91 132.565C1003.13 132.579 1002.35 132.592 1001.55 132.607C1001.35 132.446 1001.15 132.285 1000.95 132.12C999.443 132.028 997.987 131.963 996.472 131.92C995.841 131.899 995.841 131.899 995.198 131.877C994.157 131.843 993.115 131.811 992.073 131.78C992.078 132.027 992.082 132.273 992.087 132.527C990.918 132.63 989.749 132.733 988.545 132.839C988.15 132.517 987.754 132.196 987.346 131.865C984.645 131.894 982.312 131.974 979.668 132.251C979.277 132.176 978.885 132.1 978.482 132.023C977.448 132.017 976.413 132.028 975.379 132.047C974.827 132.056 974.276 132.066 973.707 132.075C971.963 132.123 971.963 132.123 970.204 132.312C968.314 132.461 967.016 132.407 965.149 132.277C957.718 131.886 949.919 131.952 942.704 133.01C940.484 133.28 938.768 133.163 936.53 133.021C935.545 133.03 934.559 133.043 933.575 133.074C933.376 132.831 933.176 132.588 932.971 132.338C932.477 132.365 931.983 132.391 931.475 132.419C926.236 132.689 921.061 132.822 915.801 132.893C914.304 132.914 912.808 132.935 911.311 132.958C910.661 132.967 910.011 132.975 909.342 132.984C907.586 133.019 907.586 133.019 905.983 133.204C904.615 133.342 904.615 133.342 902.581 133.223C900.462 133.082 900.462 133.082 898.782 133.586C896.431 134.085 895.169 133.949 892.714 133.738C891.614 133.574 891.614 133.574 891.014 133.087C888.884 133.288 888.884 133.288 886.887 133.659C881.298 134.15 875.699 134.086 870.213 133.559C868.605 133.436 867.197 133.624 865.608 133.79C865.605 133.626 865.603 133.461 865.6 133.292C864.817 133.142 864.034 132.991 863.227 132.837C863.033 132.922 862.84 133.008 862.64 133.096C861.459 133.129 860.277 133.147 859.095 133.159C856.73 133.192 854.457 133.246 852.117 133.424C850.034 133.579 848.247 133.524 846.159 133.422C843.273 133.4 840.406 133.843 837.632 134.187C835.612 134.355 833.744 134.339 831.702 134.317C830.954 134.311 830.205 134.305 829.434 134.299C826.502 134.205 823.953 134.02 821.415 133.412C818.917 133.033 817.08 133.2 814.462 133.402C812.993 133.485 812.993 133.485 811.216 133.267C810.851 133.351 810.487 133.435 810.112 133.521C808.605 133.866 807.581 133.848 805.906 133.86C805.553 133.908 805.201 133.955 804.837 134.004C803.217 134.189 801.667 134.173 800.012 134.188C798.674 134.218 798.674 134.218 796.941 134.549C795.283 134.797 795.283 134.797 793.58 134.609C793.164 134.524 792.748 134.439 792.319 134.352C792.507 133.938 792.694 133.524 792.888 133.097C790.581 133.284 790.581 133.284 788.322 133.559C786.406 133.762 784.551 133.776 782.593 133.81C781.826 133.824 781.058 133.838 780.268 133.853C778.123 133.858 778.123 133.858 776.743 133.758C774.933 133.648 773.26 133.673 771.422 133.714C770.706 133.728 769.991 133.743 769.253 133.758C767.759 133.791 766.265 133.824 764.771 133.858C761.075 133.934 757.543 133.966 753.886 133.793C752.802 133.764 751.718 133.736 750.633 133.711C750.127 133.7 749.621 133.688 749.099 133.676C748.727 133.667 748.355 133.659 747.972 133.65C748.016 134.057 748.016 134.057 748.061 134.473C748.003 135.392 748.003 135.392 746.835 136.16C746.445 136.167 746.055 136.174 745.653 136.181C745.656 136.345 745.659 136.509 745.662 136.679C745.078 136.771 744.495 136.864 743.893 136.959C743.708 137.537 743.524 138.116 743.333 138.712C740.92 139.282 738.954 139.318 736.301 139.304C734.885 139.321 734.885 139.321 733.305 139.887C731.576 139.947 729.899 139.982 728.172 139.994C725.424 140.017 722.792 140.05 720.074 140.277C717.945 140.41 717.945 140.41 716.164 139.944C714.625 139.921 713.434 139.964 711.956 140.174C711.591 140.212 711.226 140.249 710.85 140.288C710.262 140.134 709.674 139.98 709.068 139.822C708.076 140.02 707.085 140.221 706.109 140.434C704.067 140.798 702.391 140.781 700.217 140.726C699.823 140.487 699.428 140.248 699.022 140.001C698.328 140.054 697.634 140.108 696.919 140.163C694.651 140.321 692.453 140.425 690.162 140.408C689.77 140.251 689.377 140.094 688.972 139.931C687.806 140.039 687.806 140.039 686.612 140.223C686.027 140.233 685.442 140.243 684.84 140.254C683.06 140.427 682.28 140.605 680.716 141.075C679.163 141.114 679.163 141.114 677.428 141.071C676.567 141.054 676.567 141.054 675.689 141.036C674.212 140.942 674.212 140.942 673.021 140.465C669.931 140.019 666.783 139.607 663.557 140.136C663.948 140.212 664.34 140.287 664.743 140.364C664.243 141.338 664.243 141.338 663.584 141.63C662.2 141.583 660.819 141.525 659.443 141.455C659.242 141.13 659.041 140.805 658.834 140.47C658.2 140.46 657.566 140.451 656.912 140.442C654.478 140.28 653.905 140.074 652.311 139.341C651.725 139.27 651.138 139.198 650.534 139.124C650.342 139.292 650.15 139.46 649.952 139.633C647.815 140.013 645.752 140.211 643.461 140.246C641.554 139.916 640.084 139.479 638.707 138.838C638.704 138.673 638.701 138.509 638.698 138.34C637.556 138.35 637.556 138.35 636.338 138.631C636.063 138.918 635.788 139.206 635.504 139.502C634.597 140.405 634.597 140.405 633.273 140.786C631.323 140.989 629.504 141.026 627.514 141.029C627.522 141.44 627.529 141.85 627.536 142.273C625.819 142.203 624.262 142.131 622.653 141.878C620.691 141.595 618.75 141.457 616.694 141.316C615.581 141.238 615.581 141.238 614.445 141.159C613.599 141.102 613.599 141.102 612.736 141.044C612.733 140.88 612.731 140.715 612.728 140.546C612.266 140.626 611.804 140.706 611.328 140.789C609.109 141.12 606.913 141.351 604.629 141.571C603.202 141.708 603.202 141.708 601.522 141.991C600.143 142.026 598.764 142.051 597.385 142.065C596.8 142.075 596.215 142.086 595.613 142.097C593.817 142.03 592.285 141.948 590.617 141.672C589.043 141.415 589.043 141.415 587.031 141.519C584.769 141.542 583.806 141.366 581.994 140.846C581.997 141.01 582 141.175 582.003 141.344C581.42 141.436 580.836 141.529 580.235 141.624C579.842 141.467 579.449 141.31 579.044 141.148C579.04 140.901 579.035 140.655 579.031 140.401C578.641 140.408 578.251 140.415 577.849 140.422C577.856 140.833 577.864 141.244 577.871 141.667C577.481 141.674 577.091 141.681 576.689 141.688C576.559 141.89 576.428 142.093 576.294 142.302C576.042 142.517 575.789 142.732 575.53 142.953C573.982 143.183 573.982 143.183 572.579 143.255C572.166 142.858 572.166 142.858 571.971 142.27C572.806 141.446 572.806 141.446 573.717 140.745C573.073 140.88 572.429 141.014 571.766 141.153C569.594 141.565 569.594 141.565 567.821 141.597C567.828 142.008 567.835 142.418 567.843 142.841C566.869 142.941 565.896 143.04 564.893 143.143C564.498 142.904 564.104 142.664 563.698 142.418C564.275 141.996 564.853 141.575 565.448 141.142C565.05 141.2 564.652 141.258 564.241 141.318C563.715 141.394 563.19 141.471 562.648 141.549C561.868 141.663 561.868 141.663 561.072 141.779C560.571 141.85 560.069 141.921 559.552 141.994C559.127 142.056 558.701 142.118 558.262 142.182C557.193 142.285 557.193 142.285 555.858 142.044C554.816 141.58 554.816 141.58 554.654 140.79C554.698 140.558 554.743 140.326 554.789 140.087C554.245 140.133 554.245 140.133 553.689 140.179C553.212 140.215 552.735 140.251 552.243 140.288C551.535 140.344 551.535 140.344 550.812 140.401C549.475 140.431 549.475 140.431 547.693 139.965C547.514 140.168 547.335 140.372 547.15 140.582C545.746 141.349 545.367 141.364 543.214 141.508C541.788 141.578 541.788 141.578 540.629 141.585C540.432 141.506 540.236 141.428 540.033 141.347C539.844 141.679 539.655 142.01 539.46 142.353C538.948 142.315 538.435 142.278 537.907 142.24C535.88 142.166 534.35 142.265 532.369 142.479C531.973 142.158 531.577 141.836 531.169 141.505C530.001 141.608 528.832 141.711 527.628 141.817C527.625 141.653 527.622 141.489 527.619 141.319C527.241 141.29 526.862 141.261 526.472 141.231C525.251 141.113 525.251 141.113 524.656 140.874C524.314 141.667 524.092 142.384 524.143 143.186C524.118 143.871 524.118 143.871 522.945 144.39C521.833 144.413 521.833 144.413 520.506 144.356C520.03 144.336 519.553 144.317 519.062 144.297C518.587 144.277 518.112 144.257 517.622 144.236C517.011 144.223 517.011 144.223 516.386 144.211C512.554 144.129 509.157 143.662 505.777 142.954C505.767 142.379 505.756 141.804 505.746 141.212C503.774 141.04 502.341 140.955 500.427 141.307C500.235 141.475 500.043 141.642 499.845 141.815C498.479 141.758 497.112 141.7 495.704 141.64C495.515 141.972 495.326 142.304 495.131 142.646C494.741 142.653 494.351 142.66 493.949 142.667C494.13 141.843 494.31 141.018 494.496 140.168C489.863 140.594 487.581 141.447 484.385 142.9C483.307 143.361 482.341 143.621 480.966 143.895C481.169 144.302 481.371 144.709 481.58 145.129C480.801 145.225 480.022 145.321 479.22 145.42C478.635 144.985 478.05 144.549 477.465 144.114C476.875 143.678 476.875 143.678 475.639 143.492C475.633 143.164 475.627 142.835 475.621 142.497C475.231 142.504 474.841 142.511 474.439 142.518C474.442 142.682 474.445 142.846 474.448 143.016C474.182 143.123 473.916 143.231 473.641 143.341C472.372 143.944 472.036 144.547 471.534 145.308C469.777 145.257 468.021 145.207 466.211 145.154C466.401 144.904 466.592 144.655 466.788 144.397C467.178 144.39 467.568 144.383 467.97 144.376C468.158 143.962 468.346 143.548 468.539 143.121C466.674 143.549 465.753 143.781 464.834 144.603C464.703 144.795 464.573 144.988 464.438 145.186C463.816 145.187 463.194 145.188 462.554 145.188C460.397 145.257 459.296 145.439 457.356 145.81C456.174 145.841 454.992 145.864 453.81 145.874C453.421 145.963 453.033 146.052 452.633 146.144C448.848 146.166 445.085 145.866 441.391 145.598C440.991 145.03 440.591 144.462 440.178 143.877C438.102 143.814 437.389 143.875 435.681 144.439C435.221 144.617 434.761 144.795 434.287 144.978C433.703 145.07 433.12 145.163 432.519 145.258C432.316 144.851 432.114 144.444 431.905 144.024C430.54 144.049 429.175 144.073 427.769 144.098C427.736 144.289 427.702 144.479 427.668 144.676C427.2 145.353 427.2 145.353 425.953 145.858C423.666 146.256 422.362 146.04 420.113 145.729C419.912 145.404 419.712 145.079 419.505 144.744C418.859 144.76 418.213 144.777 417.547 144.794C415.368 144.818 415.368 144.818 413.591 144.6C412.37 144.644 411.152 144.704 409.936 144.775C407 144.935 404.133 145.043 401.186 145.071C400.995 145.321 400.804 145.571 400.608 145.828C398.447 146.323 395.855 146.067 393.517 145.955C391.665 145.723 391.665 145.723 390.553 145.51C390.549 145.263 390.544 145.017 390.54 144.763C394.13 144.671 397.611 144.713 401.181 144.822C400.788 144.665 400.395 144.507 399.99 144.345C399.408 144.479 399.408 144.479 398.813 144.615C397.141 144.343 397.141 144.343 395.18 143.949C394.53 143.82 393.88 143.69 393.211 143.557C392.711 143.455 392.21 143.354 391.695 143.249C391.504 143.499 391.314 143.748 391.117 144.006C387.597 144.658 387.597 144.658 385.545 144.385C385.239 144.299 384.933 144.212 384.617 144.122C384.427 144.372 384.236 144.622 384.04 144.879C382.673 144.821 381.306 144.764 379.899 144.704C379.711 145.118 379.523 145.532 379.33 145.959C375.546 145.683 375.546 145.683 373.621 144.894C373.155 144.712 372.688 144.531 372.207 144.344C370.539 144.406 369.555 144.577 368.08 144.915C367.888 145.083 367.696 145.251 367.498 145.423C366.916 145.932 366.916 145.932 365.738 146.202C364.67 146.257 363.598 146.295 362.526 146.321C361.954 146.338 361.382 146.355 360.793 146.372C358.985 146.309 358.559 146.175 357.452 145.603C357.021 145.39 356.591 145.177 356.147 144.957C355.612 144.682 355.612 144.682 355.066 144.401C355.45 144.065 355.834 143.73 356.23 143.384C355.45 143.398 354.67 143.412 353.866 143.426C353.869 143.591 353.872 143.755 353.875 143.924C351.859 143.697 350.313 143.488 348.539 143.024C348.933 143.263 349.328 143.503 349.734 143.749C349.521 144.251 349.521 144.251 349.161 144.755C349.165 145.002 349.17 145.248 349.174 145.502C348.982 145.669 348.79 145.837 348.592 146.01C347.115 146.169 345.697 146.294 344.203 146.4C343.793 146.433 343.383 146.466 342.961 146.5C341.893 146.578 340.814 146.624 339.737 146.666C338.332 146.104 338.248 145.752 337.933 144.956C336.565 144.816 335.197 144.676 333.788 144.532C333.401 144.703 333.014 144.874 332.615 145.051C331.062 144.985 331.062 144.985 329.656 144.855C329.587 145.087 329.587 145.087 329.516 145.324C329.082 145.861 329.082 145.861 328.164 146.157C326.167 146.495 324.245 146.498 322.148 146.513C321.736 146.519 321.324 146.524 320.899 146.529C319.887 146.541 318.875 146.55 317.864 146.559C317.507 146.102 317.507 146.102 317.255 145.574C318.094 144.999 318.094 144.999 319.01 144.547C320.768 144.68 322.526 144.813 324.337 144.95C324.138 144.707 323.938 144.464 323.733 144.214C322.343 143.959 322.343 143.959 320.769 143.769C319.974 143.62 319.182 143.47 318.397 143.313C318.394 143.149 318.391 142.985 318.388 142.815C317.341 142.744 316.293 142.675 315.244 142.607C314.66 142.568 314.076 142.53 313.475 142.49C311.823 142.383 311.823 142.383 310.11 142.714C309.918 142.882 309.726 143.05 309.528 143.222C308.943 143.233 308.358 143.243 307.755 143.254C307.752 143.09 307.75 142.926 307.747 142.756C307.166 143.013 306.585 143.27 305.987 143.535C306.576 143.771 307.166 144.007 307.773 144.25C306.938 144.909 306.075 145.498 304.85 146.044C302.405 146.272 301.187 146.211 298.971 145.776C298.566 145.66 298.162 145.544 297.745 145.424C297.556 145.756 297.367 146.088 297.172 146.43C296.191 146.119 295.21 145.808 294.199 145.488C294.202 145.652 294.205 145.816 294.208 145.985C293.845 146.007 293.482 146.029 293.108 146.051C292.392 146.095 292.392 146.095 291.662 146.14C291.189 146.169 290.716 146.197 290.229 146.227C288.799 146.319 288.799 146.319 287.126 146.61C286.733 146.453 286.34 146.295 285.935 146.133C285.931 145.887 285.926 145.64 285.922 145.387C285.34 145.561 284.758 145.736 284.158 145.916C283.378 145.93 282.598 145.944 281.794 145.958C281.791 145.794 281.788 145.63 281.785 145.461C280.812 145.56 279.838 145.66 278.835 145.762C278.826 145.269 278.817 144.777 278.808 144.269C278.027 144.201 277.245 144.133 276.44 144.062C276.254 144.559 276.068 145.055 275.876 145.566C273.631 145.922 272.441 145.757 270.149 145.559C269.451 145.5 268.753 145.441 268.033 145.38C267.231 145.309 267.231 145.309 266.412 145.237C267.001 145.473 267.591 145.709 268.198 145.952C266.287 146.526 265.672 146.563 263.444 146.597C262.925 146.608 262.406 146.618 261.872 146.629C260.525 146.587 260.525 146.587 259.334 146.11C259.328 145.782 259.322 145.453 259.316 145.115C257.369 145.314 255.422 145.513 253.416 145.718C253.411 145.472 253.407 145.225 253.403 144.972C250.857 145.131 248.328 145.295 245.801 145.512C243.956 145.638 243.956 145.638 242.179 145.421C241.596 145.514 241.012 145.606 240.411 145.702C238.228 145.771 236.283 145.823 234.135 145.689C231.426 145.569 228.769 145.624 226.039 145.678C225.496 145.687 224.953 145.696 224.394 145.705C223.621 145.719 223.621 145.719 222.832 145.733C222.363 145.742 221.893 145.751 221.41 145.76C220.304 145.761 220.304 145.761 219.728 146.071C218.831 146.105 217.931 146.124 217.032 146.135C216.544 146.141 216.056 146.148 215.552 146.154C215.175 146.158 214.798 146.162 214.41 146.166C214.012 145.762 213.615 145.359 213.206 144.943C212.896 144.987 212.587 145.031 212.268 145.077C207.23 145.701 202.382 145.56 197.255 145.476C196.865 145.483 196.475 145.49 196.073 145.498C196.07 145.333 196.067 145.169 196.064 145C194.895 145.103 193.727 145.206 192.523 145.312C192.127 144.99 191.731 144.669 191.323 144.338C190.543 144.352 189.763 144.366 188.959 144.38C188.964 144.626 188.968 144.873 188.973 145.126C182.96 145.511 177.15 145.55 171.119 145.509C166.255 145.389 166.255 145.389 161.798 146.11C161.602 146.031 161.406 145.952 161.203 145.871C160.055 145.834 158.907 145.796 157.758 145.763C156.471 145.707 156.471 145.707 154.435 145.494C152.394 145.29 150.529 145.221 148.433 145.174C141.648 144.963 141.648 144.963 140.489 144.499C139.307 144.508 138.125 144.532 136.944 144.562C133.728 144.63 130.668 144.626 127.484 144.482C127.288 144.403 127.091 144.325 126.889 144.244C125.814 144.244 124.737 144.261 123.661 144.286C123.005 144.299 122.348 144.313 121.672 144.327C120.279 144.358 118.887 144.39 117.494 144.421C116.836 144.435 116.178 144.449 115.5 144.463C114.894 144.476 114.288 144.49 113.664 144.504C112.115 144.507 112.115 144.507 110.338 144.29C109.119 144.31 107.899 144.331 106.68 144.358C103.252 144.414 99.8327 144.379 96.4109 144.352C95.6568 144.35 94.9028 144.348 94.1259 144.346C89.8206 144.31 86.8565 144.138 83.1284 143.283C82.1266 143.162 81.1154 143.053 80.0932 142.963C77.5871 142.713 75.7724 142.315 73.6423 141.709C72.8725 141.615 72.8725 141.615 72.0872 141.519C70.5384 141.239 69.6256 140.927 68.7154 140.327C67.9306 139.383 68.1767 138.39 68.2427 137.39C68.2315 136.646 68.0292 136.054 67.5804 135.345C66.6972 133.921 66.6972 133.921 67.5774 133.105C70.4372 132.307 70.4372 132.307 72.2915 132.274C72.2542 132.106 72.217 131.939 72.1786 131.766C71.927 129.947 71.927 129.947 73.492 129.156C75.2169 128.729 76.9348 128.309 78.7163 127.927C77.9394 127.223 77.1231 126.743 75.7305 126.238C76.2898 125.594 76.8586 125.235 78.0687 124.765C80.6154 124.271 83.0134 124.305 85.7453 124.316C85.0068 124.161 84.2644 124.009 83.5204 123.858C83.1074 123.773 82.6944 123.688 82.2689 123.601C80.862 123.345 80.862 123.345 78.6363 123.448C78.6304 123.119 78.6246 122.791 78.6185 122.452C77.4759 122.031 77.4759 122.031 76.2414 121.748C76.432 121.498 76.6226 121.248 76.819 120.991C77.2951 121.023 77.7712 121.056 78.2617 121.089C79.6178 121.198 79.6178 121.198 80.3691 121.176C80.4518 121.031 80.5346 120.886 80.6199 120.736C80.9184 120.212 81.2169 119.688 81.5154 119.164C81.1254 119.171 80.7354 119.178 80.3335 119.185C79.527 118.873 78.7341 118.555 77.952 118.232C77.3641 118.078 76.7761 117.924 76.1703 117.766C76.6702 116.792 76.6702 116.792 77.33 116.501C79.3977 116.433 79.3977 116.433 81.4665 116.427C81.663 116.505 81.8595 116.584 82.0619 116.665C82.0575 116.419 82.0531 116.172 82.0486 115.918C81.5726 115.891 81.0966 115.864 80.6062 115.835C79.0894 115.722 79.0894 115.722 78.4941 115.484C78.4449 115.107 78.431 114.728 78.4369 114.349C78.4385 114.144 78.4402 113.938 78.4419 113.726C78.4459 113.567 78.4499 113.408 78.4541 113.244C80.2908 112.953 80.8285 112.93 82.5906 113.17C82.7886 113.331 82.9865 113.492 83.1905 113.658C83.579 113.569 83.9676 113.479 84.3679 113.388C83.9749 113.23 83.582 113.073 83.1771 112.911C83.9542 112.733 84.7313 112.555 85.532 112.371C84.9404 112.012 84.9404 112.012 84.3368 111.646C84.1726 110.978 84.2607 110.331 84.3012 109.655C83.8252 109.627 83.3493 109.6 82.8589 109.572C81.3421 109.459 81.3421 109.459 80.7467 109.22C80.4259 108.117 81.0609 107.407 82.4706 106.451C85.6442 105.078 88.6983 104.883 93.0711 104.609C94.8015 104.534 94.8015 104.534 96.0266 104.218C97.6052 104.156 99.1717 104.151 100.754 104.133C100.555 103.89 100.355 103.647 100.15 103.397C99.6985 103.385 99.2472 103.372 98.7822 103.359C96.8121 103.163 96.4926 102.931 95.4001 102.237C94.0293 100.869 93.2754 99.5438 93.5518 98.0383C93.7453 97.9527 93.9389 97.8671 94.1383 97.7789C94.2716 97.2151 94.3447 96.6526 94.4175 96.0877C94.7447 95.4145 95.1362 95.1653 96.4487 94.7504C98.6292 94.7892 98.6292 94.7892 100.59 94.9254C100.47 94.7013 100.47 94.7013 100.348 94.4726C99.5942 92.6405 100.597 91.5194 102.865 89.9059C105.257 89.7598 106.729 89.8752 108.82 90.2975C112.78 91.0268 117.624 90.9127 121.788 90.3148C121.776 89.6578 121.764 89.0008 121.752 88.3239C121.289 88.3014 120.825 88.2789 120.347 88.2557C118.793 88.1278 118.793 88.1278 117.602 87.6512C117.598 87.4049 117.594 87.1585 117.589 86.9046C116.806 86.7543 116.023 86.604 115.216 86.4491C115.214 86.2849 115.211 86.1206 115.208 85.9514C114.425 85.8011 113.642 85.6508 112.835 85.4959C112.832 85.3317 112.829 85.1674 112.826 84.9982C112.484 84.9478 112.141 84.8975 111.789 84.8456C110.117 84.4664 109.213 83.9685 108.067 83.3406C108.259 83.1729 108.452 83.0051 108.649 82.8323C108.063 82.7606 107.476 82.689 106.872 82.6151C107.256 82.2797 107.641 81.9442 108.036 81.5986C108.426 81.5916 108.816 81.5846 109.218 81.5775C109.215 81.4132 109.212 81.249 109.209 81.0797C109.598 80.9906 109.986 80.9016 110.387 80.8098C110.189 80.649 109.991 80.4882 109.787 80.3226C109.009 79.3754 109.084 78.6071 109.147 77.5957C108.171 77.531 107.194 77.4663 106.188 77.3996C106.184 77.1532 106.179 76.9069 106.175 76.653C107.151 76.7177 108.128 76.7824 109.134 76.8491C109.131 76.6849 109.128 76.5206 109.125 76.3514C109.71 76.3409 110.295 76.3305 110.898 76.3197C110.902 76.5661 110.906 76.8125 110.911 77.0663C111.29 77.1366 111.669 77.2068 112.06 77.2792C113.284 77.5218 113.284 77.5218 113.879 77.7601C115.458 77.7671 117.026 77.7145 118.607 77.6757C118.128 76.9109 117.604 76.1781 116.794 75.4676C115.388 75.1242 115.388 75.1242 113.83 75.0227C111.732 74.5323 110.887 74.081 110.249 73.0951C110.238 72.473 110.238 72.473 110.818 71.8402C112.607 71.0657 114.127 70.4127 116.7 70.2416C116.209 70.0296 115.717 69.8176 115.211 69.5991C114.109 69.066 113.738 68.8422 113.411 68.1221C113.697 67.5569 113.697 67.5569 115.461 67.0275C116.667 66.9573 116.667 66.9573 117.935 66.9522C118.678 66.9492 119.422 66.9462 120.188 66.943C115.637 66.3869 110.17 66.8566 105.5 67.1995C105.082 67.2089 104.664 67.2183 104.233 67.228C103.84 67.0707 103.447 66.9134 103.042 66.7514C102.532 66.8375 102.021 66.9236 101.495 67.0124C97.3113 67.5954 92.7293 67.6913 88.3927 67.7501C86.5688 67.7344 86.5688 67.7344 85.3318 68.0634C83.9846 68.0029 83.9846 68.0029 82.4099 67.8822C80.7377 67.7557 79.358 67.6722 77.6408 67.7029C77.4502 67.9527 77.2596 68.2026 77.0632 68.46C76.7699 68.4242 76.4767 68.3883 76.1746 68.3514C74.0828 68.2128 72.0964 68.2848 69.9675 68.3378C69.7769 68.5876 69.5863 68.8375 69.3899 69.0949C68.9978 68.9838 68.6056 68.8727 68.2016 68.7583C65.1348 68.1428 62.4386 68.096 59.1829 68.5304C56.9987 68.8152 56.6129 68.8082 54.6031 68.6122C53.6616 68.6881 52.7204 68.7649 51.781 68.8464C47.1661 69.1583 42.404 69.0924 37.7645 69.084C36.9903 69.0834 36.2161 69.0828 35.4184 69.0822C33.3294 68.9921 33.3294 68.9921 31.8384 68.6424C29.8613 68.1817 28.3168 68.2338 26.038 68.251C22.5405 68.2457 19.9205 68.1133 16.7521 67.5455C16.7492 67.3813 16.7462 67.217 16.7432 67.0478C15.9617 66.9796 15.1802 66.9114 14.375 66.8412C14.3721 66.6769 14.3692 66.5127 14.3661 66.3435C13.9761 66.3504 13.5861 66.3574 13.1843 66.3646C11.6323 64.9797 11.7366 63.6717 11.705 62.1434C11.6856 61.8728 11.6663 61.6021 11.6464 61.3233C11.6395 61.0627 11.6326 60.8021 11.6254 60.5336C11.6163 60.2966 11.6072 60.0596 11.5979 59.8154C11.9525 58.9833 12.714 58.686 14.2195 58.1311C14.8563 57.9502 14.8563 57.9502 15.506 57.7658C16.7579 57.3549 16.7579 57.3549 16.8151 56.5911C17.1342 55.8385 17.1342 55.8385 18.2708 55.3515C20.8556 54.9042 23.251 54.8339 25.9849 54.9337C27.6166 55.2779 27.6166 55.2779 28.9529 55.6275C30.8004 55.6361 30.8004 55.6361 32.4985 55.5642C33.0857 55.6769 33.0857 55.6769 33.6848 55.7919C34.1601 55.7783 34.6353 55.7647 35.125 55.7506C36.6395 55.7392 36.6395 55.7392 38.4212 56.2052C38.4183 56.041 38.4153 55.8767 38.4123 55.7075C40.7888 55.1626 43.6217 55.3517 46.2031 55.4439C48.9708 55.5378 51.6916 55.4746 54.4736 55.4129C56.4673 55.3866 58.3203 55.4509 60.2814 55.5659C60.2902 56.0586 60.299 56.5514 60.3081 57.0591C61.4796 57.1203 62.6511 57.1815 63.8581 57.2446C63.7335 57.0928 63.6089 56.941 63.4805 56.7846C63.4042 56.6114 63.328 56.4382 63.2494 56.2597C63.6365 56.0885 64.0236 55.9173 64.4224 55.7409C64.8139 55.816 65.2054 55.8912 65.6087 55.9686C65.6058 55.8044 65.6029 55.6401 65.5998 55.4709C68.5228 55.2955 68.5228 55.2955 71.5048 55.1165C71.4989 54.788 71.493 54.4595 71.487 54.1211C72.6585 54.1823 73.83 54.2435 75.037 54.3066C74.845 54.4744 74.6529 54.6421 74.455 54.8149C75.0543 54.8372 75.6537 54.8596 76.2712 54.8826C77.0706 54.9127 77.8701 54.9429 78.6696 54.973C79.063 54.9876 79.4565 55.0023 79.8619 55.0174C81.6917 55.0866 83.5051 55.1651 85.3205 55.2753C86.863 55.4024 86.863 55.4024 88.0554 55.0699C88.8421 55.0386 89.6309 55.0207 90.4189 55.0121C90.8333 55.007 91.2478 55.0018 91.6748 54.9965C92.0405 54.9929 92.4062 54.9892 92.7829 54.9855C93.1729 54.9785 93.563 54.9715 93.9648 54.9644C97.9391 55.0726 97.9391 55.0726 99.2966 55.616C99.301 55.8623 99.3054 56.1087 99.3099 56.3625C99.8937 56.3672 100.477 56.3719 101.079 56.3767C101.836 56.384 102.594 56.3913 103.375 56.3989C104.129 56.4056 104.884 56.4124 105.661 56.4193C107.587 56.4637 107.587 56.4637 108.774 56.6914C108.777 56.8557 108.78 57.0199 108.783 57.1891C108.41 57.2158 108.038 57.2425 107.654 57.27C105.975 57.3915 104.298 57.5164 102.621 57.6415C102.034 57.6834 101.448 57.7253 100.844 57.7685C100.287 57.8105 99.7292 57.8526 99.1549 57.8959C98.6386 57.9338 98.1223 57.9717 97.5903 58.0108C97.193 58.0591 96.7957 58.1075 96.3863 58.1573C96.1942 58.3251 96.0022 58.4928 95.8043 58.6656C96.6415 58.6574 97.4788 58.6473 98.316 58.6363C99.0154 58.6282 99.0154 58.6282 99.7289 58.6198C101.068 58.5726 102.202 58.4599 103.482 58.2796C103.681 58.5225 103.881 58.7653 104.086 59.0156C105.645 58.9056 107.203 58.7956 108.809 58.6823C108.806 58.5181 108.803 58.3538 108.8 58.1846C109.579 58.0885 110.358 57.9925 111.16 57.8935C111.155 57.6471 111.151 57.4008 111.146 57.1469C110.756 57.1539 110.366 57.1609 109.965 57.168C110.155 56.9182 110.346 56.6683 110.542 56.4109C111.517 56.3935 112.492 56.3761 113.497 56.3581C113.488 55.8654 113.479 55.3726 113.47 54.865C115.278 54.5782 115.961 54.5791 117.789 54.6634C120.046 54.7462 121.863 54.6379 124.103 54.4262C125.091 54.4872 126.077 54.5532 127.062 54.6223C127.924 54.5945 128.785 54.5632 129.646 54.5294C132.557 54.4549 134.143 54.8092 136.534 55.4488C136.556 55.3047 136.578 55.1605 136.601 55.012C137.363 54.1562 138.85 53.866 140.635 53.3841C140.164 52.6478 140.164 52.6478 139.427 51.912C138.84 51.8404 138.254 51.7687 137.65 51.6948C137.66 51.2084 137.671 50.722 137.681 50.2356C137.667 49.7008 137.667 49.7008 137.238 49.2108C136.929 48.5569 137.345 48.2669 138.095 47.6727C138.31 47.4988 138.525 47.3249 138.746 47.1457C138.94 46.994 139.134 46.8423 139.334 46.686C139.526 46.5182 139.718 46.3505 139.916 46.1777C137.86 45.7524 136.185 45.4146 133.847 45.6482C133.507 45.7004 133.166 45.7527 132.816 45.8066C132.818 45.9709 132.821 46.1351 132.824 46.3043C132.434 46.3113 132.044 46.3183 131.643 46.3254C131.25 46.1682 130.857 46.0109 130.452 45.8488C129.869 45.9825 129.869 45.9825 129.274 46.1188C126.653 46.217 124.178 46.1353 121.588 46.0071C120.755 46.7344 121.255 47.2413 121.623 47.998C120.254 47.776 118.884 47.554 117.473 47.3253C117.47 47.161 117.468 46.9968 117.464 46.8276C117.855 46.8206 118.245 46.8136 118.646 46.8065C118.642 46.5601 118.638 46.3137 118.633 46.0599C117.657 45.9952 116.68 45.9305 115.674 45.8638C115.799 46.0156 115.923 46.1674 116.052 46.3238C116.128 46.497 116.204 46.6702 116.283 46.8487C115.11 47.3675 115.11 47.3675 113.226 47.4167C112.483 47.4248 111.739 47.433 110.973 47.4414C110.292 47.51 109.61 47.5787 108.908 47.6494C106.262 47.7962 105.038 47.5521 102.691 47.0914C102.688 46.9271 102.685 46.7629 102.682 46.5937C102.097 46.6041 101.512 46.6146 100.909 46.6253C100.912 46.7896 100.915 46.9538 100.918 47.1231C98.1606 47.1723 95.4029 47.2216 92.6452 47.2708C93.0381 47.4281 93.4311 47.5854 93.8359 47.7474C93.8403 47.9938 93.8447 48.2402 93.8492 48.494C92.8742 48.5114 91.8992 48.5288 90.8946 48.5468C90.8812 47.8002 90.8812 47.8002 91.4633 47.2919C90.7031 47.2872 90.7031 47.2872 89.9276 47.2824C86.3254 47.2475 83.0632 47.1758 79.6312 46.7564C79.2412 46.7634 78.8512 46.7703 78.4493 46.7775C78.6373 47.0591 78.6373 47.0591 78.829 47.3464C79.0625 48.0112 79.0625 48.0112 77.894 48.7789C76.8092 48.9344 76.8092 48.9344 75.5705 49.0071C74.9597 49.0469 74.9597 49.0469 74.3366 49.0875C73.1709 49.1122 73.1709 49.1122 71.3937 48.895C70.6805 48.2698 70.6805 48.2698 70.1896 47.6718C69.3142 47.8107 69.3142 47.8107 68.4212 47.9523C68.4271 48.2808 68.4329 48.6093 68.439 48.9478C66.5001 49.1814 65.6604 49.2704 63.7115 49.0322C59.0679 48.9932 55.0047 49.066 50.6664 49.8788C48.7741 50.1368 47.2183 49.8354 45.3969 49.6082C42.5574 49.5558 39.7939 49.7175 36.9788 49.9141C34.7032 50.0571 33.24 50.0872 31.21 49.6126C30.6959 49.4986 30.1818 49.3845 29.6521 49.267C27.3011 48.2747 26.4605 47.1358 26.3983 45.709C26.4596 44.5435 26.6776 43.3837 26.9401 42.2207C26.379 42.205 25.8179 42.1894 25.2398 42.1733C23.39 42.0351 23.39 42.0351 22.1948 41.3097C21.2397 39.6163 21.2397 39.6163 22.1504 38.8211C23.1254 38.8036 24.1005 38.7862 25.1051 38.7683C25.2548 38.9607 25.4045 39.1532 25.5588 39.3514C26.1483 40.0242 26.1483 40.0242 27.4955 40.2192C28.6818 40.447 28.6818 40.447 29.4321 41.0871C29.5819 41.2795 29.7316 41.4719 29.8859 41.6702C31.6424 41.721 33.399 41.7718 35.2088 41.8241C34.9074 41.3366 34.9074 41.3366 34.6 40.8392C33.232 40.6993 31.864 40.5594 30.4546 40.4153C30.0514 39.6832 29.6482 38.951 29.2327 38.1967C28.8427 38.2037 28.4527 38.2106 28.0509 38.2178C27.0958 37.4421 27.1959 36.6066 27.4155 35.7398C28.2885 34.9773 28.2885 34.9773 29.1661 34.4638C28.1896 34.3991 27.213 34.3344 26.2069 34.2677C26.3961 33.9357 26.5852 33.6037 26.7801 33.2617C27.1701 33.2547 27.5601 33.2478 27.962 33.2406C27.7739 32.9513 27.7739 32.9513 27.5821 32.6562C27.5051 32.4419 27.4281 32.2276 27.3488 32.0069C28.9808 31.285 30.3538 31.3534 32.6 31.2518C33.9637 31.1851 33.9637 31.1851 35.0088 30.6254C36.5754 30.4567 38.1324 30.3859 39.7318 30.2921C40.0177 29.9173 40.0177 29.9173 40.3094 29.5349C40.8959 29.6066 41.4824 29.6783 42.0867 29.7521C42.0925 30.0806 42.0984 30.4091 42.1044 30.7476C42.6282 30.7091 42.6282 30.7091 43.1625 30.6699C49.823 30.2472 56.5018 30.2838 63.1913 30.2465C65.6686 30.2326 68.1459 30.2166 70.6234 30.1994C71.1813 30.1969 71.7393 30.1945 72.3141 30.192C75.3 30.1712 78.1602 30.0797 81.1171 29.8547C82.2837 29.7811 82.2837 29.7811 84.6111 29.7707C85.2081 29.7497 85.8051 29.7288 86.4202 29.7072C86.9987 29.3272 86.9987 29.3272 87.5888 28.9396C88.9956 28.8415 88.9956 28.8415 90.6165 28.8388C91.1544 28.8359 91.6923 28.8331 92.2466 28.8301C92.6596 28.8314 93.0726 28.8327 93.4982 28.834C94.0942 29.4395 94.0942 29.4395 94.7022 30.0572C96.0673 30.0328 97.4324 30.0085 98.8388 29.9833C99.0279 29.6514 99.2171 29.3194 99.412 28.9774C99.8894 29.0844 99.8894 29.0844 100.376 29.1935C102.021 29.473 103.56 29.5483 105.335 29.6184C105.135 29.3755 104.936 29.1326 104.73 28.8824C107.724 28.5089 110.396 28.609 113.444 28.6879C115.373 28.6924 117.015 28.5488 118.908 28.3802C119.495 28.4519 120.081 28.5236 120.686 28.5974C120.497 28.9294 120.307 29.2614 120.113 29.6034C121.483 29.9076 122.854 30.2117 124.267 30.525C124.456 30.193 124.645 29.861 124.84 29.519C125.432 29.5142 126.024 29.5094 126.634 29.5045C127.427 29.495 128.221 29.4853 129.014 29.4756C129.789 29.4675 130.564 29.4595 131.362 29.4512C134.119 29.3447 136.54 29.0852 139.009 28.5192C140.191 28.4881 141.373 28.4661 142.555 28.4558C142.561 28.7843 142.567 29.1128 142.573 29.4513C143.156 29.3587 143.74 29.2661 144.341 29.1708C144.765 28.6615 144.765 28.6615 144.914 28.1648C146.089 28.3902 146.089 28.3902 147.287 28.6203C147.291 28.8666 147.296 29.113 147.3 29.3669C148.758 29.0944 148.758 29.0944 150.246 28.8164C150.243 28.6521 150.24 28.4879 150.237 28.3186C151.212 28.3012 152.187 28.2838 153.192 28.2659C153.391 28.5088 153.59 28.7517 153.796 29.0019C160.097 29.4196 160.097 29.4196 166.206 28.7803C166.596 28.7733 166.986 28.7664 167.387 28.7592C167.385 28.5949 167.382 28.4307 167.379 28.2615C168.864 28.0594 170.264 27.9333 171.804 27.8246C173.786 27.7012 173.786 27.7012 175.084 27.3615C176.662 27.0106 178.037 27.0422 179.77 27.0444C179.773 27.2087 179.776 27.3729 179.779 27.5421C181.536 27.5929 183.292 27.6437 185.102 27.696C185.302 27.9389 185.501 28.1818 185.706 28.432C188.242 28.3868 190.777 28.3415 193.389 28.2949C193.189 28.052 192.99 27.8091 192.784 27.5588C193.761 27.6235 194.737 27.6882 195.744 27.7549C195.746 27.9192 195.749 28.0834 195.752 28.2526C196.237 28.1223 196.723 27.9919 197.222 27.8575C199.568 27.3858 201.513 27.307 204.025 27.2852C204.466 27.2783 204.907 27.2715 205.361 27.2645C206.758 27.2437 208.154 27.2281 209.551 27.2127C210.503 27.1995 211.455 27.1859 212.407 27.1719C214.73 27.1386 217.053 27.11 219.377 27.0839C219.577 27.4089 219.778 27.734 219.985 28.0688C221.739 27.9554 223.492 27.8419 225.299 27.725C225.49 27.4751 225.68 27.2253 225.877 26.9679C228.54 26.5795 230.359 26.7706 232.973 27.0901C232.977 27.3364 232.981 27.5828 232.986 27.8367C239.569 27.7436 246.143 27.6218 252.721 27.42C253.433 27.3983 253.433 27.3983 254.159 27.376C256.533 27.3028 258.907 27.2272 261.28 27.1491C262.166 27.1211 263.051 27.0931 263.937 27.0651C264.339 27.0512 264.741 27.0373 265.155 27.023C267.509 26.95 269.675 26.9858 271.988 27.1402C271.982 26.8117 271.976 26.4832 271.97 26.1447C274.358 25.814 275.66 25.8486 277.884 26.288C278.277 26.4453 278.67 26.6026 279.074 26.7647C279.264 26.4327 279.453 26.1007 279.648 25.7587C280.509 25.7365 281.371 25.7163 282.233 25.6969C282.713 25.6855 283.192 25.674 283.687 25.6622C284.966 25.6637 284.966 25.6637 286.152 25.8914C286.155 26.0557 286.158 26.2199 286.161 26.3892C286.806 26.3058 287.451 26.2224 288.115 26.1364C295.492 25.2359 302.144 25.0567 309.694 25.1334C313.289 25.1682 316.834 25.1431 320.42 24.9216C323.856 24.7186 327.296 24.5654 330.742 24.4125C332.805 24.312 334.839 24.1804 336.882 24.0111C338.137 23.9673 338.137 23.9673 339.977 24.0677C342.854 24.161 345.469 23.9885 348.331 23.8008C352.652 23.5357 356.904 23.3455 361.253 23.29C366.772 23.218 372.157 23.0775 377.52 22.3927C381.885 21.9193 386.112 21.8527 390.561 21.802C397.186 21.7065 403.638 21.4038 410.2 20.9378C410.64 20.9078 411.08 20.8778 411.534 20.8468C413.858 20.6921 413.858 20.6921 416.14 20.4428C417.905 20.243 419.615 20.2431 421.419 20.2396C421.616 20.3182 421.812 20.3969 422.014 20.4779C425.57 20.6667 428.713 20.7586 432.056 20.0496C432.254 20.2104 432.452 20.3712 432.656 20.5368C435.923 20.7584 438.784 20.6429 442.073 20.4318C444.754 20.2904 447.424 20.2675 450.114 20.2406C452.168 20.206 452.168 20.206 454.223 20.0272C458.384 19.7131 462.627 19.7397 466.821 19.6828C467.968 19.6668 469.115 19.6494 470.261 19.6318C470.94 19.6226 471.619 19.6134 472.318 19.6039C474.06 19.5818 474.06 19.5818 475.785 19.2687C477.077 19.2552 477.077 19.2552 478.575 19.286C479.123 19.2969 479.671 19.3079 480.236 19.3192C481.106 19.3394 481.106 19.3394 481.994 19.3601C482.586 19.3728 483.177 19.3854 483.787 19.3984C486.683 19.4654 489.528 19.5526 492.382 19.7502C496.355 20.0216 500.611 20.0095 504.593 19.6226C507.334 19.4014 510.036 19.3891 512.806 19.3544C517.276 19.2877 521.714 19.1812 526.174 18.9912C530.114 18.8256 534.041 18.699 537.99 18.6246C538.44 18.6154 538.89 18.6063 539.354 18.5968C542.246 18.5484 545.027 18.6071 547.893 18.7278C548.094 19.0528 548.295 19.3778 548.502 19.7127C547.497 19.7768 547.497 19.7768 546.472 19.8423C545.778 19.906 545.084 19.9698 544.369 20.0354C544.177 20.2032 543.985 20.3709 543.787 20.5437C544.682 20.4738 544.682 20.4738 545.595 20.4025C547.747 20.2344 549.899 20.0663 552.052 19.8982C552.055 20.0625 552.057 20.2267 552.061 20.396C553.033 20.3436 554.005 20.2897 554.976 20.235C555.788 20.1902 555.788 20.1902 556.616 20.1444C557.944 20.1016 557.944 20.1016 558.552 19.7822C556.207 19.5776 556.207 19.5776 553.816 19.3689C554.285 18.7537 554.285 18.7537 554.975 18.1035C557.004 17.7816 558.66 17.7362 560.805 17.6716C561.426 17.6528 561.426 17.6528 562.059 17.6336C563.438 17.5923 564.817 17.5531 566.196 17.5141C566.67 17.5003 567.144 17.4865 567.633 17.4722C576.943 17.202 586.252 17.0291 595.567 16.8899C602.188 16.7902 602.188 16.7902 608.78 16.4501C610.445 16.3409 612.086 16.3322 613.76 16.3224C617.955 16.2653 622.065 16.0502 626.239 15.8195C632.097 15.5025 637.743 15.3945 643.61 15.4509C650.054 15.5127 656.505 15.3751 662.92 14.9855C666.069 14.8412 669.221 14.8082 672.377 14.7714C675.186 14.7334 677.863 14.6289 680.637 14.3959C682 14.3414 682 14.3414 683.888 14.4247ZM717.496 15.9479C717.305 16.1978 717.115 16.4476 716.918 16.7051C717.699 16.6911 718.479 16.6772 719.282 16.6629C719.279 16.4986 719.276 16.3344 719.273 16.1651C718.687 16.0935 718.1 16.0218 717.496 15.9479ZM702.727 16.4606C702.729 16.5427 702.73 16.6249 702.732 16.7095C703.902 16.6886 705.072 16.6677 706.277 16.6462C706.276 16.564 706.274 16.4819 706.273 16.3973C705.103 16.4182 703.933 16.4391 702.727 16.4606ZM712.182 16.2918C712.185 16.456 712.188 16.6203 712.191 16.7895C712.776 16.779 713.361 16.7686 713.964 16.7578C713.961 16.5936 713.958 16.4293 713.955 16.2601C713.37 16.2706 712.785 16.281 712.182 16.2918ZM722.819 16.1018C722.822 16.2661 722.825 16.4303 722.828 16.5995C723.605 16.4214 724.382 16.2432 725.183 16.0596C724.403 16.0735 723.623 16.0875 722.819 16.1018ZM732.791 15.9237C732.364 15.9776 731.936 16.0314 731.496 16.0869C731.169 16.1287 730.842 16.1704 730.506 16.2135C730.886 16.8349 730.886 16.8349 731.71 17.4367C733.16 17.6778 733.16 17.6778 734.669 17.6328C735.056 17.4616 735.443 17.2904 735.842 17.1139C736.037 17.1105 736.232 17.107 736.433 17.1034C736.424 16.6107 736.415 16.1179 736.406 15.6102C735.1 15.6336 734.052 15.7638 732.791 15.9237ZM1043.16 13.1195C1043.88 13.2821 1044.61 13.4391 1045.34 13.5939C1045.75 13.6819 1046.16 13.77 1046.57 13.8607C1048.25 14.0749 1049.14 13.9129 1050.85 13.7289C1051.85 13.6764 1052.85 13.6325 1053.85 13.5965C1054.68 13.5661 1054.68 13.5661 1055.52 13.5351C1056.09 13.5152 1056.65 13.4953 1057.24 13.4748C1057.82 13.4537 1058.39 13.4326 1058.99 13.4109C1060.41 13.3592 1061.83 13.3084 1063.26 13.2584C1063.25 13.0942 1063.25 12.9299 1063.25 12.7607C1062.51 12.7587 1061.78 12.7567 1061.02 12.7547C1060.05 12.751 1059.08 12.7473 1058.11 12.7435C1057.63 12.7423 1057.15 12.7412 1056.65 12.74C1054.26 12.7297 1052 12.6802 1049.65 12.5057C1047.11 12.4668 1045.34 12.4638 1043.16 13.1195ZM171.52 28.4365C171.522 28.6007 171.525 28.765 171.528 28.9342C171.917 28.8451 172.306 28.756 172.706 28.6642C172.314 28.5891 171.923 28.5139 171.52 28.4365ZM1077.43 12.7563C1077.24 12.924 1077.05 13.0917 1076.85 13.2646C1078.61 13.2332 1080.36 13.2019 1082.17 13.1696C1081.97 13.0088 1081.77 12.848 1081.57 12.6824C1080.21 12.7068 1078.84 12.7312 1077.43 12.7563ZM35.2399 43.5661C35.4378 43.7269 35.6358 43.8876 35.8397 44.0533C36.4247 44.0428 37.0097 44.0324 37.6125 44.0216C37.6096 43.8574 37.6066 43.6931 37.6036 43.5239C36.8236 43.5378 36.0435 43.5517 35.2399 43.5661ZM86.6558 42.8968C86.6617 43.2253 86.6675 43.5538 86.6736 43.8923C89.304 43.7221 89.304 43.7221 91.9876 43.5484C91.9846 43.3842 91.9817 43.22 91.9787 43.0507C90.2221 42.9999 88.4656 42.9492 86.6558 42.8968ZM112.657 42.4325C112.465 42.6002 112.273 42.768 112.075 42.9408C110.861 43.2425 110.861 43.2425 109.72 43.4807C110.312 43.8398 110.312 43.8398 110.915 44.2062C113.423 44.2591 115.27 44.2093 117.407 43.5924C117.404 43.4281 117.401 43.2639 117.398 43.0947C117.833 43.1106 118.269 43.1266 118.717 43.1431C119.583 43.169 119.583 43.169 120.466 43.1955C121.036 43.2142 121.605 43.2329 122.192 43.2522C124.057 43.2252 125.151 43.0028 126.848 42.677C128.241 42.8011 129.623 42.9434 130.994 43.1008C132.94 43.108 132.94 43.108 134.539 43.0375C134.729 42.7055 134.918 42.3735 135.113 42.0315C127.702 42.1638 120.292 42.2962 112.657 42.4325ZM136.294 42.0104C138.463 42.943 138.463 42.943 140.458 43.4297C140.461 43.5939 140.464 43.7582 140.467 43.9274C141.44 43.8279 142.414 43.7283 143.417 43.6258C143.603 43.1295 143.789 42.6333 143.981 42.1221C141.444 42.0852 138.908 42.0484 136.294 42.0104ZM102.62 43.1096C102.621 43.1918 102.623 43.2739 102.624 43.3585C103.989 43.3341 105.355 43.3097 106.761 43.2846C106.952 43.0348 107.142 42.7849 107.339 42.5275C105.445 42.5613 104.332 42.7662 102.62 43.1096ZM205.443 41.2734C205.446 41.4376 205.449 41.6019 205.452 41.7711C206.427 41.7537 207.402 41.7363 208.406 41.7183C208.599 41.5506 208.791 41.3829 208.989 41.2101C207.818 41.231 206.648 41.2519 205.443 41.2734ZM66.0352 46.7502C66.2332 46.911 66.4311 47.0718 66.6351 47.2374C67.2201 47.227 67.8051 47.2165 68.4079 47.2058C68.2085 46.9629 68.009 46.72 67.8036 46.4697C67.0802 46.4641 67.0802 46.4641 66.0352 46.7502ZM223.242 44.9386C223.442 45.1815 223.641 45.4243 223.846 45.6746C224.624 45.4964 225.401 45.3182 226.201 45.1347C226.2 45.0525 226.198 44.9704 226.197 44.8858C225.222 44.9032 224.247 44.9206 223.242 44.9386ZM242.739 44.3415C242.087 44.5283 242.087 44.5283 241.422 44.7189C239.501 45.2177 238.345 45.252 236.142 45.2683C235.524 45.2755 234.906 45.2827 234.27 45.2901C232.706 45.2674 232.706 45.2674 231.52 45.0397C231.328 45.2074 231.136 45.3751 230.938 45.548C227.84 45.814 225.143 46.0074 222.074 45.7063C221.883 45.9561 221.692 46.206 221.496 46.4634C219.937 46.5734 218.379 46.6834 216.773 46.7967C216.582 47.0465 216.392 47.2964 216.195 47.5538C218.095 47.9923 219.415 48.0433 221.597 47.9708C223.759 47.9129 225.805 47.902 227.952 47.9818C230.309 48.0562 232.464 47.9701 234.821 47.828C237.237 47.6867 239.098 47.6437 241.435 47.881C245.943 48.2799 250.758 47.5654 255.202 47.1062C254.614 46.9934 254.614 46.9934 254.015 46.8784C254.199 46.2179 254.382 45.5575 254.571 44.877C253.011 44.9048 251.451 44.9327 249.843 44.9614C249.839 44.715 249.834 44.4687 249.83 44.2148C249.417 44.243 249.005 44.2713 248.58 44.3003C247.774 44.3528 247.774 44.3528 246.952 44.4062C246.417 44.4418 245.883 44.4773 245.332 44.5139C243.925 44.5692 243.925 44.5692 242.739 44.3415ZM142.884 46.8715C142.887 47.0358 142.89 47.2 142.893 47.3692C143.283 47.3623 143.673 47.3553 144.074 47.3481C144.071 47.1839 144.069 47.0196 144.066 46.8504C143.676 46.8574 143.285 46.8643 142.884 46.8715ZM143.506 48.603C142.927 48.983 142.927 48.983 142.337 49.3707C143.119 49.4389 143.9 49.5071 144.705 49.5773C144.699 49.2488 144.694 48.9203 144.688 48.5819C144.298 48.5888 143.908 48.5958 143.506 48.603ZM1691.24 25.1951C1691.25 25.3593 1691.25 25.5235 1691.25 25.6928C1692.23 25.5932 1693.2 25.4937 1694.2 25.3911C1694.01 25.2304 1693.81 25.0696 1693.6 24.904C1692.38 24.8888 1692.38 24.8888 1691.24 25.1951ZM86.3137 56.8436C86.5161 57.2507 86.7184 57.6579 86.9269 58.0773C87.1219 58.0738 87.3169 58.0704 87.5178 58.0668C87.5105 57.6562 87.5032 57.2455 87.4956 56.8225C87.1056 56.8294 86.7156 56.8364 86.3137 56.8436ZM42.0068 58.3816C42.9877 58.6927 43.9686 59.0038 44.9793 59.3243C45.3649 59.071 45.7505 58.8176 46.1478 58.5566C45.4768 58.231 45.4768 58.231 43.7424 58.3351C43.1697 58.3505 42.5969 58.3658 42.0068 58.3816ZM80.4266 58.1934C80.4295 58.3577 80.4325 58.5219 80.4355 58.6911C81.019 58.5986 81.6026 58.506 82.2038 58.4106C81.6173 58.3389 81.0309 58.2673 80.4266 58.1934ZM229.343 55.534C228.958 55.8695 228.574 56.205 228.179 56.5506C229.544 56.5262 230.909 56.5018 232.315 56.4767C232.114 56.1517 231.913 55.8267 231.706 55.4918C230.926 55.5057 230.146 55.5197 229.343 55.534ZM94.6313 59.1844C94.4392 59.3522 94.2471 59.5199 94.0492 59.6927C94.6343 59.6823 95.2193 59.6718 95.822 59.6611C95.8191 59.4968 95.8162 59.3326 95.8132 59.1633C95.4231 59.1703 95.0331 59.1773 94.6313 59.1844ZM1625.77 33.3345C1625.97 33.4953 1626.17 33.6561 1626.37 33.8217C1626.76 33.8147 1627.15 33.8078 1627.56 33.8006C1627.55 33.6363 1627.55 33.4721 1627.55 33.3029C1626.96 33.3133 1626.38 33.3238 1625.77 33.3345ZM162.065 61.7143C161.874 61.9641 161.684 62.214 161.487 62.4714C162.266 62.3754 163.044 62.2793 163.846 62.1804C163.648 62.0196 163.451 61.8588 163.247 61.6932C162.857 61.7001 162.467 61.7071 162.065 61.7143ZM1615.19 36.5108C1615.2 36.7572 1615.2 37.0036 1615.2 37.2574C1615.6 37.3326 1615.99 37.4077 1616.39 37.4852C1616.19 37.1601 1615.99 36.8351 1615.78 36.5003C1615.59 36.5037 1615.39 36.5072 1615.19 36.5108ZM1630.56 36.2364C1630.36 36.4863 1630.17 36.7361 1629.98 36.9936C1630.76 36.8975 1631.53 36.8015 1632.34 36.7025C1631.75 36.5487 1631.16 36.3949 1630.56 36.2364ZM1620.51 36.6647C1620.32 36.8324 1620.13 37.0002 1619.93 37.173C1620.91 37.1556 1621.88 37.1381 1622.89 37.1202C1622.88 36.956 1622.88 36.7917 1622.88 36.6225C1622.1 36.6364 1621.32 36.6503 1620.51 36.6647ZM126.089 66.3398C125.898 66.5897 125.707 66.8395 125.511 67.0969C124.914 67.0922 124.316 67.0875 123.701 67.0826C121.047 67.1832 119.6 67.4629 117.251 67.9913C117.839 68.104 117.839 68.104 118.438 68.219C118.637 68.4619 118.836 68.7048 119.042 68.955C119.434 68.9631 119.827 68.9712 120.232 68.9795C125.418 69.0941 125.418 69.0941 127.915 69.2945C128.207 68.9319 128.496 68.5688 128.782 68.2054C128.943 68.0033 129.104 67.8011 129.27 67.5928C129.73 66.9998 129.73 66.9998 129.634 66.2765C128.464 66.2974 127.294 66.3183 126.089 66.3398ZM1623.53 40.096C1622.95 40.2296 1622.95 40.2296 1622.35 40.3659C1622.55 40.6088 1622.75 40.8517 1622.96 41.102C1623.74 41.0059 1624.51 40.9099 1625.32 40.8109C1625.31 40.6467 1625.31 40.4824 1625.31 40.3132C1624.72 40.2415 1624.14 40.1698 1623.53 40.096ZM118.069 80.6726C118.267 80.8333 118.465 80.9941 118.669 81.1598C118.861 80.992 119.053 80.8243 119.251 80.6515C118.861 80.6584 118.471 80.6654 118.069 80.6726ZM145.314 83.6712C145.32 83.9997 145.326 84.3282 145.332 84.6666C146.109 84.4885 146.886 84.3103 147.687 84.1267C147.489 83.9659 147.291 83.8052 147.087 83.6395C146.502 83.65 145.917 83.6604 145.314 83.6712ZM158.328 84.1856C158.331 84.3498 158.334 84.5141 158.337 84.6833C158.903 84.6689 158.903 84.6689 159.48 84.6542C160.212 84.6377 160.212 84.6377 160.959 84.6209C161.446 84.6094 161.932 84.5978 162.434 84.5858C163.655 84.5883 163.655 84.5883 164.251 84.8267C165.236 84.8192 166.221 84.8021 167.206 84.7739C166.81 84.4524 166.414 84.1308 166.006 83.7995C165.058 83.8097 164.11 83.8218 163.162 83.8348C162.634 83.8413 162.106 83.8479 161.562 83.8546C160.017 83.8791 160.017 83.8791 158.328 84.1856ZM1638.16 64.7287C1638.16 64.893 1638.16 65.0572 1638.17 65.2265C1638.75 65.1339 1639.33 65.0413 1639.94 64.9459C1639.35 64.8743 1638.76 64.8026 1638.16 64.7287ZM86.7583 114.839C86.7612 115.003 86.7642 115.167 86.7672 115.336C87.1557 115.247 87.5443 115.158 87.9446 115.066C87.5531 114.991 87.1616 114.916 86.7583 114.839ZM98.1505 123.846C97.9585 124.014 97.7664 124.181 97.5685 124.354C99.0332 124.451 99.0332 124.451 100.528 124.55C100.525 124.386 100.522 124.222 100.519 124.053C99.7372 123.984 98.9557 123.916 98.1505 123.846ZM102.918 126.001C102.921 126.165 102.924 126.33 102.927 126.499C105.17 126.916 106.45 126.973 108.841 126.642C107.051 125.926 105.388 126.058 102.918 126.001ZM100.559 126.292C100.562 126.457 100.565 126.621 100.568 126.79C101.151 126.697 101.735 126.605 102.336 126.51C101.749 126.438 101.163 126.366 100.559 126.292ZM110.605 126.113C110.608 126.277 110.611 126.441 110.614 126.611C111.197 126.518 111.781 126.425 112.382 126.33C111.795 126.258 111.209 126.187 110.605 126.113ZM113.564 126.309C115.091 126.92 116.221 126.894 118.305 126.971C118.299 126.643 118.293 126.314 118.287 125.976C116.675 126.005 115.147 126.165 113.564 126.309ZM119.473 126.203C119.476 126.368 119.479 126.532 119.482 126.701C120.652 126.68 121.822 126.659 123.028 126.638C122.828 126.395 122.629 126.152 122.423 125.902C121.116 125.899 121.116 125.899 119.473 126.203ZM1641.9 108.973C1641.71 109.141 1641.52 109.309 1641.32 109.481C1641.91 109.389 1642.49 109.296 1643.09 109.201C1642.7 109.126 1642.31 109.051 1641.9 108.973ZM435.322 136.744C435.13 136.912 434.938 137.08 434.74 137.252C435.519 137.156 436.297 137.06 437.099 136.961C436.513 136.89 435.926 136.818 435.322 136.744ZM613.794 134.055C613.603 134.305 613.413 134.554 613.216 134.812C613.8 134.719 614.383 134.627 614.985 134.531C614.982 134.367 614.979 134.203 614.976 134.034C614.586 134.041 614.196 134.048 613.794 134.055ZM427.662 138.126C428.058 138.447 428.454 138.769 428.862 139.1C429.252 139.093 429.642 139.086 430.044 139.079C429.648 138.757 429.252 138.436 428.844 138.104C428.454 138.111 428.064 138.118 427.662 138.126ZM280.555 142.744C280.172 143.162 279.789 143.579 279.395 144.01C280.176 144.078 280.958 144.146 281.763 144.216C281.754 143.723 281.745 143.231 281.736 142.723C281.346 142.73 280.956 142.737 280.555 142.744ZM368.617 141.918C368.62 142.083 368.623 142.247 368.626 142.416C369.801 142.642 370.975 142.867 372.185 143.099C372.188 143.264 372.191 143.428 372.194 143.597C373.751 143.405 375.308 143.213 376.913 143.015C376.908 142.769 376.904 142.522 376.899 142.268C374.755 141.979 373.288 141.835 370.981 141.876C370.201 141.89 369.421 141.904 368.617 141.918ZM401.119 141.338C400.93 141.67 400.741 142.002 400.546 142.344C401.132 142.416 401.719 142.487 402.323 142.561C402.511 142.147 402.698 141.733 402.892 141.306C402.307 141.317 401.722 141.327 401.119 141.338ZM408.21 141.211C406.838 141.901 406.838 141.901 406.464 142.736C408.594 142.535 408.594 142.535 410.592 142.164C410.587 141.918 410.583 141.672 410.578 141.418C409.797 141.35 409.015 141.282 408.21 141.211ZM427.711 140.863C427.717 141.192 427.723 141.52 427.729 141.858C428.122 142.016 428.515 142.173 428.92 142.335C429.7 142.321 430.48 142.307 431.283 142.293C431.483 142.536 431.682 142.779 431.888 143.029C432.848 142.99 433.808 142.946 434.767 142.9C435.569 142.864 435.569 142.864 436.387 142.827C438.008 142.723 438.008 142.723 438.961 141.907C438.568 141.75 438.175 141.592 437.77 141.43C436.401 141.487 436.401 141.487 434.892 141.637C433.29 141.752 433.29 141.752 431.865 141.785C430.416 141.328 430.416 141.328 429.484 140.831C428.899 140.842 428.314 140.852 427.711 140.863ZM343.212 142.621C342.338 142.883 342.338 142.883 341.448 143.15C341.029 144.046 341.029 144.046 340.888 144.903C341.863 144.886 342.838 144.868 343.843 144.85C343.986 144.694 344.13 144.537 344.277 144.376C345.127 143.744 345.817 143.582 347.361 143.294C347.359 143.129 347.356 142.965 347.353 142.796C346.89 142.809 346.426 142.823 345.949 142.837C344.398 142.849 344.398 142.849 343.212 142.621ZM468.49 140.384C468.493 140.548 468.496 140.712 468.499 140.881C467.841 140.888 467.183 140.895 466.504 140.901C464.46 140.888 464.46 140.888 463.185 141.225C463.387 141.632 463.59 142.04 463.798 142.459C466.393 142.587 468.86 142.645 471.485 142.571C471.677 142.403 471.869 142.235 472.067 142.062C473.281 141.761 473.281 141.761 474.422 141.522C473.8 141.015 473.8 141.015 472.631 140.559C470.497 140.394 470.497 140.394 468.49 140.384ZM528.775 139.805C528.78 140.134 528.786 140.462 528.792 140.8C529.571 140.704 530.349 140.608 531.152 140.509C531.147 140.263 531.143 140.017 531.138 139.763C530.358 139.777 529.578 139.791 528.775 139.805ZM368.044 142.924C368.644 143.411 368.644 143.411 368.644 143.411L368.044 142.924ZM542.966 140.049C543.165 140.292 543.365 140.535 543.57 140.785C543.761 140.536 543.951 140.286 544.148 140.028C543.758 140.035 543.368 140.042 542.966 140.049ZM612.696 138.804C611.828 139.313 611.828 139.313 610.941 139.831C613.572 139.661 613.572 139.661 616.255 139.487C616.252 139.323 616.25 139.159 616.247 138.99C614.489 138.898 614.489 138.898 612.696 138.804ZM404.105 143.027C404.498 143.184 404.891 143.342 405.295 143.504C405.488 143.336 405.68 143.168 405.878 142.995C405.292 143.006 404.707 143.016 404.105 143.027ZM376.926 143.761C376.539 143.933 376.152 144.104 375.753 144.28C376.535 144.348 377.316 144.417 378.121 144.487C378.117 144.241 378.112 143.994 378.108 143.74C377.718 143.747 377.328 143.754 376.926 143.761Z" fill="#A8D5BA"/>
</g>
<defs>
<filter id="filter0_d_1071_1371" x="0.597855" y="0.0311279" width="1724.73" height="164.635" filterUnits="userSpaceOnUse" color-interpolation-filters="sRGB">
<feFlood flood-opacity="0" result="BackgroundImageFix"/>
<feColorMatrix in="SourceAlpha" type="matrix" values="0 0 0 0 0 0 0 0 0 0 0 0 0 0 0 0 0 0 127 0" result="hardAlpha"/>
<feOffset dx="2" dy="5"/>
<feGaussianBlur stdDeviation="6.5"/>
<feColorMatrix type="matrix" values="0 0 0 0 0.329412 0 0 0 0 0.270588 0 0 0 0 0.270588 0 0 0 0.1 0"/>
<feBlend mode="normal" in2="BackgroundImageFix" result="effect1_dropShadow_1071_1371"/>
<feBlend mode="normal" in="SourceGraphic" in2="effect1_dropShadow_1071_1371" result="shape"/>
</filter>
</defs>
</svg>
