<svg width="1278" height="142" viewBox="0 0 1278 142" fill="none" xmlns="http://www.w3.org/2000/svg">
<path d="M504.848 13.6845C506.809 13.7499 508.685 13.6797 510.655 13.5923C515.871 13.3772 521.085 13.2092 526.303 13.0558C527.342 13.0249 528.38 12.993 529.419 12.9602C530.944 12.9122 532.468 12.867 533.993 12.8224C534.455 12.8073 534.918 12.7922 535.394 12.7767C537.675 12.7133 539.493 12.7465 541.665 13.0822C541.956 12.9953 542.246 12.9084 542.545 12.8189C544.005 12.6807 545.479 12.6087 546.948 12.5227C547.415 12.4951 547.882 12.4675 548.363 12.4391C554.505 12.0901 560.654 11.8599 566.804 11.6287C568.528 11.5639 570.251 11.497 571.974 11.4295C573.325 11.3769 574.677 11.3253 576.029 11.274C576.664 11.2498 577.299 11.2252 577.935 11.2003C581.357 11.0667 584.723 10.9808 588.133 11.0431C589.258 11.0614 589.258 11.0614 590.514 10.749C592.435 10.6207 594.361 10.5589 596.287 10.4844C597.075 10.45 597.075 10.45 597.878 10.4149C600.791 10.3007 603.455 10.2903 606.3 10.5483C607.452 10.5999 607.452 10.5999 608.623 10.2963C610.493 9.90965 612.137 9.88091 614.098 9.84146C614.482 9.83195 614.865 9.82244 615.26 9.81263C616.068 9.79306 616.876 9.77467 617.684 9.75739C618.914 9.73101 620.144 9.70101 621.374 9.67035C622.162 9.65171 622.95 9.63328 623.738 9.61507C624.103 9.60637 624.467 9.59766 624.843 9.58869C626.909 9.54548 628.905 9.57518 630.957 9.65642C632.165 9.61997 633.361 9.57508 634.567 9.51794C637.365 9.39675 640.11 9.35412 642.905 9.37827C644.367 9.3741 645.801 9.31536 647.263 9.24601C649.454 9.14968 651.4 9.20408 653.539 9.37736C654.913 9.46536 656.247 9.38914 657.638 9.32141C658.233 9.37508 658.828 9.42876 659.423 9.48243C660.079 9.34367 660.079 9.34367 660.747 9.2021C661.564 9.15706 662.383 9.12542 663.201 9.1017C663.689 9.0861 664.177 9.0705 664.68 9.05443C665.455 9.03022 665.455 9.03022 666.245 9.00551C672.919 8.7775 672.919 8.7775 679.379 7.79867C679.971 7.77149 680.564 7.75462 681.157 7.74482C682.727 7.69728 684.124 7.5569 685.652 7.33087C688.126 6.99343 690.498 6.84988 693.02 6.76335C693.455 6.74677 693.89 6.73018 694.338 6.71309C695.251 6.67877 696.163 6.64556 697.075 6.61342C698.459 6.56454 699.842 6.512 701.225 6.45888C702.118 6.42574 703.011 6.39281 703.904 6.36011C704.514 6.33711 704.514 6.33711 705.136 6.31363C707.608 6.22799 710.041 6.21191 712.506 6.24935C713.684 6.26605 713.684 6.26605 715.298 6.19107C716.686 6.13781 716.686 6.13781 717.736 6.21859C719.028 6.28778 720.06 6.21211 721.356 6.08777C725.578 5.72118 729.458 5.50675 733.585 5.94855C733.875 5.86167 734.165 5.77478 734.465 5.68527C735.597 5.62535 736.718 5.57744 737.851 5.54098C738.322 5.52447 738.322 5.52447 738.802 5.50763C739.578 5.4806 740.353 5.45497 741.128 5.42961C741.283 5.6509 741.439 5.87218 741.599 6.10017C742.625 6.0286 743.651 5.95548 744.677 5.88166C745.248 5.84109 745.82 5.80053 746.408 5.75874C747.75 5.71515 747.75 5.71515 748.245 5.38611C749.048 5.33262 749.854 5.29461 750.659 5.26479C751.098 5.24735 751.538 5.22991 751.99 5.21193C753.131 5.19863 753.131 5.19863 754.029 5.39375C754.037 5.62066 754.046 5.84757 754.055 6.08135C756.253 5.73836 756.253 5.73836 758.018 5.01116C759.815 4.86303 760.48 4.84747 762.034 5.31616C762.921 5.37167 763.813 5.41594 764.708 5.4431C764.702 5.29183 764.696 5.14056 764.69 4.9847C765.28 5.03784 765.869 5.09098 766.476 5.14573C766.485 5.37264 766.494 5.59954 766.502 5.83333C766.933 5.82538 767.364 5.81742 767.808 5.80923C771.684 5.75344 775.374 5.85316 779.183 6.12243C780.644 6.19902 781.946 6.20359 783.419 6.10248C783.562 6.02122 783.706 5.93996 783.854 5.85623C785.086 5.73575 786.303 5.63325 787.54 5.54266C787.883 5.51383 788.226 5.485 788.579 5.45529C791.112 5.27021 791.112 5.27021 792.539 5.60552C793.201 5.95672 793.201 5.95672 793.218 6.41512C793.512 6.40387 793.805 6.39262 794.107 6.38103C794.245 6.1485 794.383 5.91597 794.525 5.67639C798.843 5.05305 802.938 4.86461 807.349 4.7634C807.839 4.74889 808.329 4.73438 808.834 4.71943C809.273 4.70913 809.711 4.69883 810.163 4.68822C811.609 4.54909 812.369 4.23605 813.583 3.79751C814.633 3.67539 814.633 3.67539 815.709 3.64061C816.099 3.62685 816.489 3.61307 816.89 3.59889C817.292 3.58823 817.693 3.57756 818.106 3.56658C818.716 3.54497 818.716 3.54497 819.338 3.52292C822.329 3.42642 822.329 3.42642 823.365 3.65175C824.328 3.60007 825.29 3.53177 826.249 3.45502C826.814 3.41056 827.379 3.3661 827.961 3.3203C829.206 3.21516 830.441 3.09906 831.681 2.97406C836.187 2.56164 840.884 2.31318 845.327 2.70786C847.393 2.81242 849.471 2.66693 851.553 2.57297C854.979 2.43568 858.241 2.63119 861.596 2.87361C861.602 3.02488 861.607 3.17615 861.613 3.33201C861.95 3.24336 862.286 3.15472 862.632 3.06339C863.817 2.78839 863.817 2.78839 865.15 2.73726C865.155 2.88853 865.161 3.0398 865.167 3.19566C865.681 3.12625 865.681 3.12625 866.205 3.05544C869.669 2.6024 872.63 2.28521 876.126 2.54569C878.577 2.70155 880.932 2.61788 883.409 2.51013C886.488 2.37639 889.551 2.26419 892.63 2.2281C892.946 2.22311 893.261 2.21813 893.586 2.21299C895.14 2.19898 896.531 2.24728 898.033 2.41532C900.067 2.6186 901.846 2.43161 903.89 2.19779C904.574 2.12362 905.258 2.05014 905.943 1.97737C906.263 1.94327 906.583 1.90917 906.913 1.87404C908.106 1.76213 909.286 1.71468 910.488 1.68641C910.721 2.01834 910.721 2.01834 910.959 2.35697C911.17 2.269 911.38 2.18104 911.597 2.0904C913.291 1.69763 914.806 1.82005 916.585 1.88288C918.694 1.95027 920.726 1.99563 922.851 1.88819C924.129 1.8257 924.737 1.82968 925.96 2.03698C926.978 2.26094 926.978 2.26094 928.09 2.01087C928.64 1.85704 928.64 1.85704 929.202 1.70009C930.513 1.34139 931.73 1.02916 933.144 0.81719C933.15 0.968462 933.156 1.11973 933.162 1.27559C933.554 1.29102 933.947 1.30644 934.351 1.32234C934.868 1.34302 935.386 1.3637 935.919 1.38501C936.431 1.40532 936.943 1.42563 937.47 1.44656C938.365 1.48624 939.258 1.53389 940.145 1.59677C941.144 1.65407 942.009 1.64065 943.017 1.5861C944.5 1.51725 945.931 1.50573 947.408 1.5324C950.214 1.56226 952.988 1.44934 955.798 1.3253C959.692 1.16336 963.529 1.03128 967.412 1.10924C967.694 0.795445 967.976 0.481649 968.266 0.158347C968.708 0.217109 969.151 0.275873 969.607 0.336417C969.84 0.668345 969.84 0.668345 970.078 1.00698C971.337 1.24021 971.337 1.24021 972.845 1.38857C973.349 1.44557 973.853 1.50258 974.373 1.56131C977.159 1.82034 979.627 1.80056 982.472 1.64238C983.898 1.62457 985.153 1.73624 986.533 1.87456C988.079 1.99421 989.616 1.94234 991.189 1.90422C993.806 1.85901 996.114 1.91703 998.609 2.29471C1000.09 2.47591 1001.61 2.31899 1003.13 2.23946C1009.75 1.91907 1009.75 1.91907 1012.95 2.42231C1015.93 2.67948 1019.15 2.38389 1022.18 2.22168C1022.17 1.99478 1022.16 1.76787 1022.15 1.53408C1023.03 1.50034 1023.91 1.46659 1024.82 1.43182C1025.04 1.6503 1025.04 1.6503 1025.28 1.87318C1025.14 2.10571 1025 2.33824 1024.86 2.57782C1027.25 2.78464 1029.65 2.69971 1032.08 2.64903C1034.26 2.61556 1036.11 2.75016 1038.22 2.98332C1039.62 2.95973 1039.62 2.95973 1041 2.86247C1043.8 2.72803 1046.26 2.86262 1048.91 3.26188C1049.13 3.36689 1049.13 3.36689 1049.36 3.47403C1050.13 3.49879 1050.9 3.50905 1051.67 3.51348C1052.16 3.51682 1052.65 3.52016 1053.16 3.52361C1053.69 3.5262 1054.23 3.52879 1054.78 3.53146C1055.33 3.53494 1055.89 3.53841 1056.45 3.54199C1057.92 3.5511 1059.4 3.5593 1060.87 3.56707C1062.35 3.57507 1063.83 3.58419 1065.3 3.59321C1067.98 3.60943 1070.65 3.62458 1073.32 3.63918C1075.06 3.65075 1076.8 3.66938 1078.54 3.69042C1080.8 3.69012 1083.06 3.55878 1085.31 3.4428C1085.87 3.41781 1085.87 3.41781 1086.43 3.39232C1086.92 3.36784 1086.92 3.36784 1087.42 3.34286C1088.51 3.3494 1088.51 3.3494 1089.96 3.5231C1091.87 3.71133 1093.5 3.67167 1095.44 3.5792C1095.8 3.56442 1096.15 3.54965 1096.52 3.53442C1097.64 3.4873 1098.76 3.4371 1099.88 3.38645C1101.01 3.33696 1102.13 3.28818 1103.25 3.24075C1103.95 3.21125 1104.65 3.18051 1105.34 3.14835C1107.2 3.06855 1108.92 3.07456 1110.75 3.18482C1113.1 3.15479 1115.41 3.03554 1117.74 2.77314C1119.59 2.57929 1120.95 2.72529 1122.75 2.95385C1125.95 3.07136 1129.06 2.95127 1132.28 2.80335C1135.98 2.64671 1139.56 2.56258 1143.24 2.67664C1146.77 2.77576 1150.31 2.68369 1153.87 2.59974C1156.09 2.54888 1158.25 2.52437 1160.47 2.59981C1162.81 2.6412 1165.18 2.5537 1167.53 2.49837C1168.68 2.4732 1169.83 2.44825 1170.97 2.42352C1171.54 2.41127 1172.11 2.39901 1172.69 2.38639C1175.04 2.33733 1177.38 2.29553 1179.73 2.25994C1180.11 2.25336 1180.49 2.24677 1180.89 2.23998C1182.35 2.21898 1183.61 2.2147 1185.01 2.40135C1186.01 2.36763 1187.01 2.32283 1188.01 2.27199C1191.21 2.12887 1194.28 2.20079 1197.46 2.31632C1203.58 2.53406 1209.59 2.4018 1215.75 2.13558C1220.23 1.94302 1224.62 1.83218 1229.09 1.94448C1230.88 1.98507 1232.44 1.96056 1234.22 1.76082C1236.1 1.5555 1237.44 1.69305 1239.27 1.92644C1240.6 1.98559 1241.94 2.00131 1243.28 2.01657C1243.97 2.02617 1244.65 2.036 1245.34 2.04608C1245.67 2.05062 1246 2.05516 1246.34 2.05985C1247.21 2.0765 1248.07 2.10899 1248.93 2.14311C1250.32 2.18547 1251.62 2.15737 1253.02 2.08782C1253.77 2.05018 1254.53 2.01874 1255.29 2.00047C1255.52 2.10549 1255.52 2.10549 1255.74 2.21263C1256.62 2.20763 1257.5 2.18546 1258.38 2.15441C1259.1 2.13163 1259.1 2.13163 1259.84 2.1084C1261.14 2.07229 1261.14 2.07229 1261.95 1.51562C1263.01 1.53052 1263.01 1.53052 1264.23 1.62882C1264.84 1.67557 1264.84 1.67557 1265.46 1.72327C1265.77 1.74978 1266.09 1.77628 1266.41 1.80358C1266.41 1.95486 1266.42 2.10613 1266.42 2.26198C1267.01 2.31512 1267.6 2.36826 1268.21 2.42301C1268.22 2.57428 1268.22 2.72555 1268.23 2.88141C1268.71 2.89587 1269.2 2.91033 1269.7 2.92523C1270.57 3.01493 1270.57 3.01493 1271.35 3.22051C1272.24 3.99062 1272.61 4.84923 1272.97 5.73194C1273.06 5.86394 1273.15 5.99594 1273.25 6.13194C1274.36 6.38668 1274.36 6.38668 1275.48 6.50512C1275.49 6.6564 1275.5 6.80767 1275.5 6.96352C1275.94 7.02229 1276.39 7.08105 1276.84 7.1416C1276.74 7.98895 1276.55 8.2504 1275.33 8.87835C1274.97 9.01969 1274.62 9.16104 1274.26 9.30666C1274.62 9.36387 1274.98 9.42106 1275.35 9.48C1276.5 9.67985 1276.5 9.67985 1276.95 9.89201C1277.22 11.5532 1277.22 11.5532 1276.51 12.1613C1275.71 12.4643 1275.71 12.4643 1274.59 12.8232C1273.32 13.3123 1273.08 13.6533 1272.67 14.4173C1269.68 14.7615 1269.68 14.7615 1268.68 14.7998C1268.55 15.108 1268.41 15.4162 1268.28 15.7337C1265.73 16.0895 1265.73 16.0895 1264.72 15.87C1264.58 16.0269 1264.44 16.1838 1264.3 16.3455C1265.03 16.3174 1265.76 16.2892 1266.52 16.2603C1266.52 16.4872 1266.53 16.7141 1266.54 16.9479C1266.25 16.9591 1265.96 16.9704 1265.65 16.982C1265.83 17.1029 1266.01 17.2239 1266.2 17.3485C1266.58 17.8647 1266.58 17.8647 1266.16 18.4834C1265.1 19.1873 1264.24 19.358 1262.64 19.6225C1262.65 19.925 1262.66 20.2276 1262.68 20.5393C1264.22 20.7071 1264.22 20.7071 1265.8 20.8784C1265.81 21.1053 1265.82 21.3322 1265.83 21.566C1265.1 21.5941 1264.36 21.6222 1263.61 21.6512C1263.47 21.8837 1263.33 22.1163 1263.19 22.3558C1262.9 22.3671 1262.6 22.3783 1262.3 22.3899C1262.9 22.67 1263.5 22.95 1264.11 23.2386C1263.98 23.4711 1263.84 23.7036 1263.7 23.9432C1262.96 23.9713 1262.23 23.9994 1261.48 24.0284C1261.49 24.4822 1261.51 24.936 1261.53 25.4036C1260.95 25.5774 1260.37 25.7512 1259.77 25.9302C1260.68 27.1748 1260.68 27.1748 1262 28.2978C1262.55 28.8075 1262.55 28.8075 1262.24 29.4077C1262.06 29.599 1261.89 29.7904 1261.7 29.9876C1261.31 30.4403 1261.31 30.4403 1261.3 30.9215C1261.53 31.1112 1261.77 31.301 1262.01 31.4965C1262.97 32.5667 1262.44 33.4208 1261.88 34.5716C1260.39 34.4757 1258.91 34.3797 1257.42 34.2837C1257.49 34.4467 1257.56 34.6097 1257.63 34.7776C1257.46 35.4297 1257.46 35.4297 1256.83 35.7293C1256.27 35.9349 1255.72 36.1404 1255.16 36.3457C1254.29 36.744 1254.06 37.0106 1253.71 37.5679C1253.13 38.3505 1253.13 38.3505 1252.03 38.7226C1250.92 38.8941 1250.92 38.8941 1249.59 38.9453C1249.6 39.0966 1249.6 39.2478 1249.61 39.4037C1248.46 39.7461 1247.76 39.6885 1246.48 39.6673C1246.08 39.6619 1245.68 39.6566 1245.26 39.651C1244.28 39.6082 1244.28 39.6082 1243.82 39.396C1242.9 39.3695 1241.97 39.3487 1241.04 39.3307C1238.42 39.2407 1237.46 39.0531 1235.77 38.0984C1234.76 38.0943 1234.76 38.0943 1234 38.3958C1233.86 38.6283 1233.72 38.8609 1233.58 39.1004C1235.13 39.2683 1235.13 39.2683 1236.71 39.4395C1236.58 39.8233 1236.44 40.2072 1236.31 40.6026C1235.28 40.642 1234.26 40.6813 1233.2 40.7219C1234.36 41.3918 1235.57 41.4984 1237.24 41.7145C1237.47 41.933 1237.47 41.933 1237.7 42.1559C1236.46 42.3702 1235.65 42.4847 1234.37 42.3696C1233.22 42.2614 1233.22 42.2614 1232.24 42.6952C1230.6 43.2591 1229.42 43.2123 1227.51 43.2355C1227.52 43.3867 1227.52 43.538 1227.53 43.6939C1228.92 43.8197 1230.2 43.8318 1231.62 43.7665C1233.31 43.7015 1233.31 43.7015 1234.21 43.8966C1234.22 44.0479 1234.22 44.1992 1234.23 44.355C1234.52 44.3438 1234.81 44.3325 1235.12 44.3209C1235.12 44.4722 1235.13 44.6235 1235.13 44.7793C1233.52 44.8412 1231.91 44.9031 1230.25 44.9668C1230.48 45.2987 1230.48 45.2987 1230.72 45.6374C1231.01 45.7018 1231.31 45.7661 1231.61 45.8325C1231.77 46.498 1231.89 47.0045 1231.68 47.6661C1230.26 48.4713 1229.12 48.7328 1227.11 48.817C1226.58 48.8185 1226.05 48.82 1225.5 48.8215C1225.8 49.0372 1226.1 49.2528 1226.42 49.475C1227.5 49.5169 1227.5 49.5169 1228.69 49.4306C1229.1 49.4089 1229.5 49.3872 1229.92 49.3648C1230.23 49.345 1230.54 49.3251 1230.86 49.3046C1231.52 49.9361 1231.17 50.4252 1230.93 51.1382C1230.07 51.3001 1230.07 51.3001 1229.16 51.4356C1228.94 51.3305 1228.94 51.3305 1228.71 51.2234C1226.59 51.2634 1224.54 51.4077 1222.44 51.5931C1220.59 51.751 1218.99 51.8316 1217.16 51.6665C1217.02 51.9747 1216.89 52.2829 1216.75 52.6004C1217.05 52.6028 1217.35 52.6051 1217.66 52.6076C1218.06 52.6116 1218.45 52.6156 1218.86 52.6197C1219.25 52.6233 1219.65 52.6269 1220.05 52.6306C1221.06 52.6557 1222 52.7174 1222.98 52.8202C1222.98 52.6689 1222.97 52.5176 1222.97 52.3618C1223.84 52.2524 1224.72 52.143 1225.62 52.0303C1225.86 52.3622 1225.86 52.3622 1226.09 52.7009C1225.8 52.7878 1225.51 52.8746 1225.21 52.9642C1225.95 52.936 1226.68 52.9079 1227.44 52.8789C1228.3 53.7301 1228.37 54.1926 1227.97 55.1539C1227.6 55.2124 1227.23 55.2709 1226.85 55.3311C1226.37 55.4093 1225.89 55.4875 1225.4 55.5681C1224.92 55.645 1224.44 55.7219 1223.95 55.8011C1222.59 56.0229 1222.59 56.0229 1221.35 56.5556C1220.45 56.6641 1219.57 56.7245 1218.66 56.7869C1217.54 56.9625 1217.14 57.146 1216.5 57.6598C1216.45 58.2027 1216.45 58.2027 1216.68 58.7719C1216.92 59.5476 1217.07 60.2871 1217.07 61.0808C1217.56 61.0858 1218.05 61.0908 1218.55 61.096C1220.21 61.1917 1220.55 61.2126 1221.55 61.8272C1222.15 63.3897 1222.29 65.0122 1222.18 66.6233C1220.56 67.5396 1216.1 67.5807 1213.91 67.7297C1211.54 67.8999 1209.73 68.2035 1207.58 68.7902C1209.83 70.0762 1212.88 70.5574 1216.12 70.9876C1216.73 70.9849 1217.35 70.9703 1217.97 70.9471C1218.32 70.9339 1218.67 70.9206 1219.04 70.907C1219.4 70.8921 1219.77 70.8771 1220.15 70.8618C1220.51 70.8485 1220.88 70.8353 1221.26 70.8217C1221.61 70.8079 1221.96 70.7941 1222.33 70.7799C1222.65 70.7673 1222.97 70.7546 1223.3 70.7417C1224.16 70.7045 1224.16 70.7045 1224.99 70.4175C1229.56 70.0317 1233.87 70.6047 1237.94 71.5276C1238.89 72.2052 1238.95 72.3853 1239.03 73.1929C1239.21 74.0033 1239.26 74.1694 1240.43 74.7462C1241.57 75.0641 1241.57 75.0641 1242.64 75.2207C1243.43 75.4487 1243.43 75.4487 1243.84 76.1214C1243.87 76.3476 1243.9 76.5738 1243.93 76.8069C1243.05 77.2994 1243.05 77.2994 1241.89 77.3728C1241.54 77.3767 1241.19 77.3806 1240.83 77.3846C1240.8 77.5184 1240.77 77.6521 1240.74 77.79C1240.32 78.4991 1239.79 78.8206 1238.68 79.3034C1236.81 79.4985 1235.49 79.3789 1233.78 79.0325C1233.78 79.1838 1233.79 79.335 1233.8 79.4909C1236.01 79.8603 1237.71 79.8199 1240.03 79.7107C1240.33 79.7751 1240.62 79.8395 1240.93 79.9058C1240.94 80.0571 1240.94 80.2083 1240.95 80.3642C1241.23 80.4006 1241.52 80.437 1241.81 80.4744C1242.74 80.7544 1242.74 80.7544 1243.21 81.3963C1243.24 82.1126 1243.24 82.1126 1242.57 82.6836C1241.24 83.1964 1240.42 83.2133 1238.83 83.1998C1238.81 83.4467 1238.8 83.6936 1238.78 83.9479C1238.39 84.982 1237.87 85.1939 1236.26 85.8233C1236.12 85.9802 1235.98 86.1371 1235.84 86.2987C1236.28 86.2819 1236.72 86.265 1237.17 86.2476C1237.18 86.6258 1237.2 87.004 1237.21 87.3936C1236.63 87.5674 1236.05 87.7412 1235.45 87.9202C1235.78 88.8166 1236.11 89.713 1236.45 90.6365C1236.01 90.729 1235.57 90.8215 1235.12 90.9168C1235 91.0872 1234.88 91.2576 1234.75 91.4331C1234.13 92.3049 1233.34 92.8648 1232.11 93.5574C1231.09 93.7647 1230.06 93.96 1229.02 94.1351C1228.33 95.2937 1228.24 96.4605 1229.29 97.5104C1229.54 97.6711 1229.8 97.8318 1230.06 97.9974C1231.44 98.9045 1231.72 99.7599 1231.86 100.912C1231.89 101.071 1231.92 101.231 1231.95 101.395C1232.15 102.755 1231.8 103.525 1230.09 104.61C1229 105.154 1229 105.154 1228.11 105.188C1227.97 105.42 1227.83 105.653 1227.69 105.892C1226.16 105.964 1224.64 106.031 1223.11 106.097C1222.68 106.117 1222.24 106.138 1221.8 106.159C1221.17 106.185 1221.17 106.185 1220.53 106.212C1219.96 106.238 1219.96 106.238 1219.37 106.264C1218.36 106.25 1218.36 106.25 1217.01 105.843C1215.88 105.823 1214.78 105.822 1213.65 105.843C1210.45 105.893 1210.45 105.893 1209.44 105.674C1208.33 105.71 1207.22 105.775 1206.11 105.839C1205 105.845 1205 105.845 1204.15 105.649C1202.81 105.372 1201.67 105.47 1200.2 105.541C1199.42 105.577 1199.42 105.577 1198.63 105.614C1198.23 105.635 1197.84 105.655 1197.43 105.676C1197.44 105.828 1197.44 105.979 1197.45 106.135C1196.42 106.174 1195.39 106.213 1194.34 106.254C1194.1 105.922 1194.1 105.922 1193.87 105.583C1192.3 105.637 1190.74 105.693 1189.17 105.749C1188.73 105.764 1188.29 105.779 1187.84 105.794C1185.5 105.88 1183.29 106.007 1180.99 106.307C1180.76 105.975 1180.76 105.975 1180.52 105.636C1178.81 105.652 1177.64 105.838 1176.1 106.265C1176.1 106.416 1176.11 106.568 1176.11 106.724C1174.11 106.884 1174.11 106.884 1173.08 106.524C1172.53 106.172 1172.53 106.172 1172.52 105.714C1170.04 105.855 1170.04 105.855 1168.1 106.572C1167.18 106.55 1167.18 106.55 1166.32 106.411C1166.09 106.192 1166.09 106.192 1165.85 105.97C1165.36 105.991 1164.87 106.013 1164.36 106.035C1158.35 106.288 1158.35 106.288 1156.16 106.227C1153.51 106.159 1150.86 106.304 1148.21 106.425C1145.89 106.526 1143.7 106.527 1141.4 106.449C1139.38 106.453 1137.89 106.558 1136.09 107.111C1133.92 107.278 1132.35 107.169 1130.3 106.875C1127.64 106.693 1124.86 106.771 1122.3 107.348C1122.01 107.38 1121.72 107.412 1121.42 107.445C1121.03 107.293 1121.03 107.293 1120.64 107.138C1119.3 106.727 1118.46 106.794 1116.88 106.871C1116.07 106.907 1116.07 106.907 1115.25 106.943C1114.42 106.986 1114.42 106.986 1113.56 107.029C1110.27 107.186 1107.04 107.332 1103.76 107.258C1102.02 107.234 1100.3 107.304 1098.56 107.375C1098.04 107.393 1098.04 107.393 1097.51 107.412C1095.63 107.48 1095.63 107.48 1093.79 107.718C1092.96 107.848 1092.96 107.848 1092.07 107.653C1090.42 107.596 1088.77 107.603 1087.11 107.599C1086.61 107.598 1086.1 107.596 1085.58 107.595C1080.78 107.603 1076.02 107.775 1071.22 107.99C1063.42 108.333 1063.42 108.333 1059.75 108.074C1058.69 107.981 1058.69 107.981 1057.53 108.166C1055.49 108.415 1053.52 108.407 1051.44 108.422C1048.57 108.454 1045.71 108.499 1042.83 108.624C1039.25 108.776 1035.68 108.83 1032.09 108.888C1028.28 108.954 1024.48 109.081 1020.67 109.253C1018.63 109.341 1016.74 109.372 1014.72 109.243C1012.93 109.273 1012.93 109.273 1011.19 109.507C1010.28 109.643 1010.28 109.643 1008.86 109.582C1007.18 109.533 1005.86 109.639 1004.21 109.818C1002.83 109.948 1001.48 109.984 1000.09 110.025C999.089 110.059 999.089 110.059 997.793 110.265C996.519 110.4 996.519 110.4 995.104 110.231C993.264 110.048 991.626 110.087 989.754 110.186C986.721 110.325 983.706 110.412 980.672 110.449C980.309 110.454 979.946 110.459 979.572 110.464C977.995 110.481 976.459 110.478 974.89 110.423C972.663 110.362 970.46 110.457 968.224 110.553C967.552 110.58 967.552 110.58 966.866 110.608C964.967 110.685 963.067 110.764 961.168 110.843C955.729 111.068 950.319 111.255 944.882 111.287C941.838 111.309 939.059 111.422 936.068 111.801C935.625 111.743 935.182 111.684 934.726 111.623C933.977 111.642 933.226 111.672 932.477 111.71C930.906 111.778 929.398 111.815 927.836 111.773C925.765 111.732 923.717 111.807 921.64 111.896C918.191 112.042 914.757 112.122 911.307 112.178C906.522 112.255 901.754 112.428 896.97 112.631C892.001 112.839 887.096 112.901 882.134 112.866C881.651 112.863 881.168 112.86 880.671 112.857C880.249 112.853 879.826 112.849 879.392 112.844C878.311 112.87 877.528 112.976 876.505 113.168C874.113 113.32 871.715 113.416 869.336 113.314C867.527 113.278 865.99 113.416 864.203 113.597C862.92 113.7 861.774 113.618 860.503 113.553C859.873 113.607 859.245 113.669 858.62 113.74C856.958 113.918 856.958 113.918 856.061 113.723C854.504 113.818 852.955 113.932 851.403 114.059C848.685 114.258 846.009 114.308 843.287 114.337C838.712 114.386 834.153 114.529 829.577 114.709C828.312 114.759 827.048 114.806 825.783 114.854C822.319 114.986 818.887 115.125 815.439 115.413C812.318 115.667 809.291 115.666 806.167 115.637C803.044 115.612 800.092 115.588 796.993 115.937C795.161 116.113 793.325 116.059 791.489 116.044C789.663 116.041 787.944 116.125 786.127 116.291C783.085 116.545 780.071 116.65 777.014 116.736C776.443 116.753 775.873 116.77 775.286 116.788C774.091 116.823 772.896 116.858 771.701 116.892C770.172 116.935 768.643 116.981 767.114 117.027C765.646 117.071 764.178 117.113 762.71 117.156C762.162 117.172 761.615 117.189 761.05 117.206C760.543 117.22 760.035 117.234 759.512 117.249C759.066 117.262 758.621 117.274 758.161 117.288C756.987 117.295 756.987 117.295 756.044 117.2C754.79 117.102 753.76 117.364 752.563 117.586C751.665 117.729 751.665 117.729 750.165 117.772C749.588 117.801 749.588 117.801 749 117.831C748.715 118.069 748.431 118.307 748.138 118.552C747.551 118.575 746.965 118.597 746.361 118.621C746.208 118.475 746.056 118.329 745.899 118.179C744.766 118.114 743.67 118.072 742.529 118.05C742.054 118.039 742.054 118.039 741.57 118.027C740.786 118.008 740.002 117.992 739.218 117.977C739.226 118.203 739.235 118.43 739.244 118.664C738.367 118.774 737.491 118.883 736.587 118.996C736.283 118.704 735.978 118.413 735.664 118.113C733.633 118.173 731.88 118.276 729.897 118.564C729.601 118.499 729.305 118.435 729 118.369C728.223 118.376 727.444 118.398 726.667 118.429C726.252 118.445 725.838 118.46 725.41 118.476C724.099 118.541 724.099 118.541 722.781 118.737C721.362 118.898 720.384 118.864 718.978 118.767C713.379 118.5 707.516 118.657 702.112 119.721C700.448 119.997 699.154 119.911 697.468 119.808C696.728 119.828 695.986 119.853 695.247 119.893C695.092 119.672 694.936 119.45 694.776 119.223C694.406 119.253 694.035 119.284 693.653 119.316C689.718 119.629 685.829 119.816 681.874 119.947C680.749 119.984 679.624 120.023 678.499 120.062C678.01 120.078 677.521 120.094 677.018 120.111C675.698 120.165 675.698 120.165 674.496 120.355C673.47 120.499 673.47 120.499 671.938 120.414C670.341 120.311 670.341 120.311 669.088 120.796C667.331 121.285 666.379 121.175 664.528 121.012C663.697 120.874 663.697 120.874 663.235 120.433C661.637 120.644 661.637 120.644 660.143 121.01C655.951 121.532 651.738 121.543 647.6 121.125C646.388 121.032 645.333 121.223 644.142 121.395C644.136 121.243 644.13 121.092 644.124 120.936C643.532 120.808 642.94 120.679 642.33 120.546C642.186 120.627 642.042 120.709 641.894 120.792C641.006 120.837 640.118 120.869 639.229 120.895C637.451 120.954 635.743 121.032 633.986 121.225C632.423 121.394 631.078 121.365 629.505 121.297C627.334 121.312 625.187 121.756 623.108 122.108C621.592 122.287 620.187 122.296 618.651 122.301C618.088 122.304 617.525 122.308 616.945 122.312C614.737 122.261 612.816 122.123 610.894 121.594C609.007 121.276 607.628 121.452 605.664 121.671C604.561 121.766 604.561 121.766 603.219 121.587C602.947 121.669 602.675 121.75 602.394 121.834C601.268 122.171 600.498 122.167 599.239 122.199C598.974 122.247 598.71 122.295 598.438 122.345C597.224 122.535 596.057 122.54 594.813 122.574C593.807 122.618 593.807 122.618 592.51 122.945C591.269 123.194 591.269 123.194 589.984 123.042C589.669 122.969 589.354 122.896 589.03 122.82C589.162 122.437 589.294 122.053 589.43 121.657C587.699 121.859 587.699 121.859 586.006 122.139C584.57 122.35 583.174 122.387 581.703 122.442C581.126 122.464 580.549 122.487 579.955 122.511C578.342 122.542 578.342 122.542 577.302 122.466C575.938 122.388 574.68 122.431 573.298 122.492C572.76 122.514 572.223 122.536 571.668 122.559C570.545 122.608 569.422 122.658 568.299 122.707C565.521 122.822 562.865 122.896 560.11 122.782C559.295 122.769 558.479 122.757 557.662 122.747C557.281 122.743 556.9 122.738 556.508 122.733C556.228 122.73 555.948 122.727 555.659 122.724C555.701 123.098 555.701 123.098 555.744 123.481C555.721 124.328 555.721 124.328 554.859 125.05C554.566 125.061 554.272 125.072 553.97 125.084C553.976 125.235 553.982 125.386 553.988 125.542C553.551 125.635 553.114 125.727 552.664 125.822C552.538 126.358 552.411 126.893 552.281 127.444C550.479 127.999 549.001 128.056 547.005 128.077C545.94 128.11 545.94 128.11 544.764 128.65C543.465 128.728 542.205 128.781 540.906 128.813C538.84 128.868 536.86 128.932 534.821 129.174C533.223 129.323 533.223 129.323 531.873 128.916C530.715 128.914 529.82 128.968 528.713 129.18C528.439 129.219 528.165 129.258 527.883 129.298C527.438 129.164 526.992 129.029 526.533 128.891C525.791 129.086 525.05 129.283 524.321 129.492C522.793 129.853 521.532 129.857 519.896 129.834C519.594 129.618 519.292 129.403 518.981 129.181C518.46 129.238 517.939 129.296 517.403 129.356C515.7 129.529 514.05 129.653 512.326 129.665C512.027 129.525 511.728 129.385 511.42 129.241C510.546 129.355 510.546 129.355 509.652 129.538C509.212 129.555 508.772 129.572 508.319 129.59C506.985 129.771 506.402 129.945 505.236 130.397C504.069 130.452 504.069 130.452 502.763 130.434C502.115 130.429 502.115 130.429 501.454 130.423C500.341 130.355 500.341 130.355 499.435 129.93C497.101 129.558 494.724 129.217 492.309 129.745C492.605 129.809 492.901 129.874 493.206 129.94C492.852 130.843 492.852 130.843 492.362 131.12C491.32 131.094 490.28 131.058 489.243 131.01C489.085 130.713 488.927 130.416 488.764 130.11C488.287 130.11 487.81 130.109 487.318 130.108C485.484 129.99 485.048 129.807 483.833 129.152C483.391 129.093 482.948 129.034 482.492 128.974C482.351 129.131 482.21 129.288 482.065 129.449C480.466 129.827 478.919 130.034 477.196 130.095C475.755 129.815 474.64 129.43 473.59 128.856C473.584 128.705 473.578 128.554 473.572 128.398C472.714 128.421 472.714 128.421 471.804 128.695C471.603 128.963 471.402 129.231 471.196 129.508C470.533 130.351 470.533 130.351 469.546 130.719C468.083 130.93 466.716 130.987 465.219 131.014C465.234 131.392 465.248 131.77 465.263 132.16C463.97 132.116 462.797 132.069 461.581 131.856C460.1 131.62 458.637 131.516 457.088 131.412C456.248 131.354 456.248 131.354 455.392 131.296C454.755 131.254 454.755 131.254 454.105 131.211C454.099 131.059 454.093 130.908 454.087 130.752C453.741 130.832 453.396 130.911 453.04 130.993C451.378 131.325 449.732 131.566 448.019 131.796C446.948 131.94 446.948 131.94 445.691 132.222C444.655 132.271 443.618 132.311 442.581 132.341C442.141 132.358 441.701 132.375 441.248 132.392C439.896 132.353 438.742 132.297 437.482 132.063C436.292 131.846 436.292 131.846 434.781 131.966C433.08 132.016 432.352 131.865 430.978 131.409C430.984 131.56 430.99 131.712 430.996 131.868C430.559 131.96 430.122 132.053 429.672 132.148C429.373 132.008 429.074 131.868 428.766 131.724C428.757 131.497 428.748 131.27 428.739 131.036C428.446 131.047 428.153 131.059 427.851 131.07C427.865 131.448 427.88 131.826 427.895 132.216C427.601 132.227 427.308 132.239 427.006 132.25C426.912 132.438 426.819 132.627 426.722 132.821C426.537 133.022 426.352 133.223 426.162 133.43C425.003 133.661 425.003 133.661 423.949 133.745C423.63 133.384 423.63 133.384 423.47 132.845C424.08 132.076 424.08 132.076 424.75 131.419C424.269 131.551 423.787 131.683 423.291 131.819C421.667 132.226 421.667 132.226 420.334 132.277C420.348 132.655 420.363 133.033 420.378 133.423C419.648 133.526 418.918 133.63 418.165 133.737C417.863 133.521 417.562 133.306 417.251 133.084C417.676 132.689 418.101 132.293 418.539 131.886C418.241 131.945 417.943 132.003 417.635 132.064C417.242 132.141 416.848 132.218 416.442 132.297C415.858 132.411 415.858 132.411 415.262 132.528C414.886 132.599 414.51 132.671 414.123 132.744C413.804 132.807 413.486 132.87 413.157 132.934C412.355 133.042 412.355 133.042 411.346 132.837C410.552 132.422 410.552 132.422 410.413 131.696C410.441 131.482 410.47 131.268 410.499 131.047C410.091 131.096 410.091 131.096 409.674 131.145C409.316 131.184 408.958 131.224 408.589 131.264C408.057 131.324 408.057 131.324 407.514 131.386C406.51 131.43 406.51 131.43 405.159 131.023C405.029 131.212 404.899 131.402 404.764 131.597C403.725 132.321 403.44 132.34 401.824 132.499C400.753 132.581 400.753 132.581 399.881 132.602C399.732 132.532 399.582 132.462 399.428 132.39C399.293 132.698 399.158 133.006 399.019 133.324C398.633 133.296 398.246 133.268 397.848 133.24C396.322 133.196 395.174 133.306 393.688 133.528C393.383 133.237 393.079 132.946 392.765 132.646C391.888 132.755 391.011 132.865 390.108 132.977C390.102 132.826 390.096 132.675 390.09 132.519C389.805 132.497 389.52 132.474 389.226 132.452C388.305 132.358 388.305 132.358 387.852 132.146C387.612 132.88 387.461 133.543 387.517 134.282C387.513 134.913 387.513 134.913 386.642 135.406C385.806 135.44 385.806 135.44 384.807 135.404C384.448 135.392 384.089 135.38 383.719 135.368C383.362 135.355 383.004 135.343 382.635 135.33C382.175 135.326 382.175 135.326 381.705 135.322C378.821 135.294 376.255 134.906 373.698 134.295C373.677 133.766 373.657 133.237 373.636 132.691C372.15 132.557 371.069 132.497 369.638 132.844C369.497 133.001 369.356 133.158 369.211 133.32C368.182 133.284 367.153 133.247 366.093 133.21C365.958 133.518 365.823 133.826 365.684 134.144C365.391 134.155 365.097 134.166 364.795 134.178C364.913 133.416 365.03 132.654 365.152 131.869C361.676 132.318 359.979 133.133 357.606 134.511C356.806 134.949 356.085 135.201 355.057 135.47C355.218 135.842 355.379 136.215 355.545 136.599C354.962 136.697 354.378 136.795 353.777 136.896C353.328 136.502 352.878 136.109 352.429 135.715C351.975 135.32 351.975 135.32 351.041 135.165C351.03 134.862 351.018 134.56 351.006 134.248C350.713 134.259 350.42 134.27 350.118 134.282C350.124 134.433 350.129 134.584 350.135 134.74C349.937 134.843 349.74 134.945 349.536 135.05C348.594 135.622 348.355 136.181 347.993 136.888C346.671 136.863 345.349 136.838 343.986 136.813C344.124 136.58 344.262 136.347 344.404 136.108C344.697 136.097 344.991 136.085 345.293 136.074C345.425 135.69 345.557 135.306 345.693 134.911C344.3 135.328 343.612 135.554 342.939 136.322C342.845 136.501 342.751 136.679 342.654 136.864C342.186 136.872 341.718 136.881 341.237 136.889C339.616 136.979 338.792 137.161 337.34 137.527C336.452 137.57 335.564 137.605 334.675 137.629C334.385 137.716 334.094 137.803 333.795 137.892C330.949 137.96 328.112 137.73 325.328 137.528C325.015 137.01 324.701 136.492 324.378 135.958C322.815 135.926 322.28 135.991 321.008 136.532C320.666 136.701 320.324 136.871 319.971 137.045C319.534 137.138 319.097 137.23 318.647 137.326C318.486 136.953 318.325 136.581 318.159 136.197C317.133 136.236 316.107 136.275 315.049 136.316C315.029 136.492 315.008 136.668 314.986 136.849C314.649 137.479 314.649 137.479 313.722 137.959C312.011 138.354 311.025 138.172 309.327 137.913C309.169 137.616 309.011 137.319 308.848 137.013C308.362 137.036 307.877 137.06 307.377 137.084C305.738 137.132 305.738 137.132 304.396 136.954C303.48 137.01 302.564 137.08 301.652 137.16C299.447 137.344 297.293 137.479 295.076 137.541C294.938 137.774 294.8 138.006 294.658 138.246C293.044 138.729 291.089 138.525 289.328 138.451C287.93 138.26 287.93 138.26 287.089 138.077C287.08 137.85 287.071 137.624 287.062 137.39C289.761 137.26 292.38 137.256 295.067 137.312C294.768 137.172 294.469 137.032 294.161 136.888C293.726 137.018 293.726 137.018 293.282 137.151C292.018 136.921 292.018 136.921 290.535 136.582C290.043 136.471 289.551 136.36 289.045 136.246C288.666 136.158 288.288 136.071 287.898 135.98C287.76 136.213 287.622 136.446 287.48 136.685C284.846 137.33 284.846 137.33 283.298 137.104C283.065 137.027 282.833 136.951 282.594 136.873C282.456 137.105 282.318 137.338 282.176 137.577C281.147 137.541 280.118 137.505 279.057 137.467C278.925 137.851 278.793 138.235 278.657 138.63C275.805 138.423 275.805 138.423 274.34 137.72C273.985 137.558 273.63 137.397 273.265 137.23C272.011 137.309 271.274 137.478 270.173 137.808C270.032 137.965 269.891 138.122 269.746 138.284C269.319 138.759 269.319 138.759 268.44 139.022C267.637 139.087 266.832 139.135 266.026 139.172C265.596 139.195 265.167 139.217 264.724 139.24C263.363 139.205 263.039 139.087 262.194 138.573C261.865 138.382 261.537 138.191 261.198 137.995C260.79 137.748 260.79 137.748 260.373 137.496C260.655 137.182 260.936 136.868 261.226 136.545C260.64 136.567 260.053 136.59 259.449 136.613C259.455 136.764 259.461 136.915 259.467 137.071C257.946 136.887 256.778 136.713 255.434 136.308C255.735 136.523 256.037 136.739 256.348 136.961C256.199 137.426 256.199 137.426 255.939 137.895C255.948 138.122 255.957 138.349 255.966 138.583C255.825 138.74 255.684 138.897 255.539 139.058C254.432 139.223 253.368 139.355 252.246 139.471C251.939 139.507 251.631 139.542 251.314 139.579C250.512 139.664 249.702 139.72 248.893 139.772C247.824 139.272 247.753 138.949 247.499 138.219C246.467 138.107 245.435 137.995 244.372 137.88C244.084 138.042 243.797 138.205 243.501 138.372C242.331 138.331 242.331 138.331 241.271 138.228C241.224 138.443 241.224 138.443 241.176 138.662C240.862 139.162 240.862 139.162 240.177 139.447C238.683 139.783 237.237 139.809 235.661 139.85C235.351 139.859 235.041 139.869 234.721 139.879C233.961 139.903 233.2 139.924 232.439 139.944C232.16 139.528 232.16 139.528 231.959 139.045C232.578 138.505 232.578 138.505 233.257 138.077C234.582 138.177 235.907 138.278 237.273 138.382C237.117 138.161 236.962 137.939 236.802 137.711C235.751 137.494 235.751 137.494 234.563 137.338C233.962 137.211 233.363 137.083 232.769 136.948C232.763 136.797 232.757 136.645 232.751 136.489C231.962 136.436 231.172 136.386 230.382 136.336C229.942 136.308 229.502 136.28 229.049 136.25C227.804 136.172 227.804 136.172 226.523 136.499C226.382 136.656 226.241 136.813 226.096 136.974C225.656 136.991 225.217 137.008 224.764 137.025C224.758 136.874 224.752 136.723 224.746 136.567C224.315 136.811 223.884 137.055 223.44 137.306C223.888 137.516 224.337 137.726 224.799 137.942C224.185 138.56 223.549 139.114 222.639 139.632C220.806 139.872 219.888 139.831 218.211 139.457C217.905 139.356 217.598 139.254 217.282 139.149C217.147 139.457 217.012 139.765 216.873 140.083C216.128 139.808 215.384 139.534 214.616 139.251C214.622 139.402 214.628 139.554 214.634 139.709C214.361 139.734 214.089 139.758 213.808 139.783C213.27 139.833 213.27 139.833 212.722 139.883C212.367 139.915 212.012 139.948 211.647 139.981C210.573 140.084 210.573 140.084 209.321 140.372C209.022 140.232 208.723 140.092 208.415 139.948C208.406 139.721 208.397 139.494 208.388 139.26C207.954 139.429 207.52 139.597 207.073 139.77C206.487 139.792 205.9 139.815 205.296 139.838C205.29 139.687 205.285 139.536 205.279 139.38C204.549 139.484 203.818 139.587 203.066 139.694C203.049 139.24 203.031 138.787 203.013 138.319C202.424 138.266 201.835 138.213 201.228 138.158C201.099 138.617 200.969 139.077 200.836 139.55C199.155 139.906 198.257 139.769 196.529 139.615C196.002 139.569 195.476 139.523 194.933 139.476C194.328 139.421 194.328 139.421 193.711 139.364C194.159 139.575 194.608 139.785 195.07 140.001C193.645 140.553 193.183 140.595 191.508 140.654C191.118 140.67 190.728 140.686 190.326 140.703C189.312 140.681 189.312 140.681 188.406 140.257C188.395 139.954 188.383 139.652 188.371 139.34C186.911 139.547 185.451 139.755 183.946 139.969C183.938 139.742 183.929 139.515 183.92 139.281C182.009 139.46 180.11 139.642 178.215 139.873C176.83 140.012 176.83 140.012 175.488 139.834C175.051 139.927 174.614 140.019 174.164 140.114C172.524 140.205 171.062 140.278 169.443 140.181C167.404 140.104 165.406 140.188 163.354 140.271C162.946 140.286 162.538 140.3 162.117 140.316C161.536 140.338 161.536 140.338 160.944 140.362C160.591 140.375 160.238 140.389 159.874 140.403C159.043 140.419 159.043 140.419 158.616 140.711C157.942 140.753 157.266 140.782 156.59 140.803C156.223 140.815 155.855 140.827 155.477 140.839C155.194 140.848 154.91 140.856 154.618 140.864C154.31 140.497 154.002 140.13 153.685 139.752C153.454 139.797 153.222 139.842 152.983 139.888C149.208 140.525 145.558 140.455 141.7 140.442C141.407 140.453 141.113 140.464 140.811 140.476C140.806 140.325 140.8 140.173 140.794 140.017C139.917 140.127 139.04 140.236 138.137 140.349C137.832 140.058 137.527 139.766 137.213 139.466C136.627 139.489 136.041 139.511 135.437 139.534C135.445 139.761 135.454 139.988 135.463 140.222C130.949 140.651 126.579 140.759 122.043 140.795C118.382 140.746 118.382 140.746 115.046 141.464C114.896 141.394 114.747 141.324 114.592 141.252C113.728 141.232 112.864 141.212 111.999 141.195C111.03 141.159 111.03 141.159 109.494 140.989C107.954 140.826 106.55 140.786 104.972 140.768C99.8646 140.657 99.8646 140.657 98.9826 140.244C98.0939 140.268 97.2052 140.304 96.3172 140.347C93.8999 140.449 91.5984 140.483 89.2006 140.39C89.0511 140.32 88.9016 140.25 88.7475 140.178C87.9389 140.192 87.1295 140.221 86.321 140.257C85.8275 140.277 85.3339 140.298 84.8254 140.319C83.7787 140.366 82.7319 140.412 81.6852 140.458C81.1905 140.479 80.6958 140.499 80.1861 140.521C79.7307 140.541 79.2753 140.561 78.8062 140.582C77.6416 140.604 77.6416 140.604 76.3001 140.426C75.3833 140.459 74.4664 140.494 73.5499 140.534C70.973 140.628 68.4004 140.638 65.8261 140.656C65.2589 140.663 64.6918 140.671 64.1074 140.679C60.8684 140.699 58.6352 140.577 55.8124 139.835C55.0563 139.736 54.2932 139.648 53.5224 139.578C51.632 139.379 50.2584 139.034 48.643 138.503C48.062 138.426 48.062 138.426 47.4692 138.347C46.2981 138.108 45.6047 137.832 44.907 137.291C44.296 136.431 44.4594 135.513 44.4871 134.591C44.4624 133.906 44.2972 133.363 43.9442 132.715C43.2487 131.415 43.2487 131.415 43.8928 130.651C46.0264 129.881 46.0264 129.881 47.4204 129.828C47.3887 129.674 47.357 129.52 47.3243 129.361C47.0952 127.688 47.0952 127.688 48.255 126.941C49.5431 126.526 50.826 126.118 52.1575 125.744C51.5577 125.105 50.9332 124.672 49.8748 124.224C50.2813 123.625 50.7013 123.287 51.6011 122.838C53.5058 122.352 55.3102 122.354 57.3652 122.33C56.8064 122.196 56.2446 122.066 55.6818 121.936C55.3693 121.863 55.0568 121.789 54.7348 121.714C53.671 121.496 53.671 121.496 51.9992 121.618C51.9876 121.315 51.976 121.013 51.964 120.701C51.0954 120.327 51.0954 120.327 50.1607 120.082C50.2986 119.849 50.4365 119.617 50.5786 119.377C50.9373 119.401 51.2961 119.425 51.6658 119.45C52.6882 119.533 52.6882 119.533 53.2528 119.504C53.3118 119.369 53.3709 119.234 53.4318 119.096C53.6448 118.609 53.8579 118.123 54.0709 117.636C53.7777 117.648 53.4845 117.659 53.1824 117.67C52.569 117.393 51.9656 117.11 51.3703 116.822C50.9247 116.687 50.4791 116.553 50.02 116.415C50.3746 115.512 50.3746 115.512 50.8645 115.234C52.4183 115.146 52.4183 115.146 53.9742 115.115C54.1237 115.185 54.2732 115.255 54.4272 115.327C54.4185 115.1 54.4098 114.874 54.4008 114.64C54.0422 114.62 53.6836 114.601 53.3142 114.581C52.1709 114.496 52.1709 114.496 51.7178 114.284C51.6726 113.937 51.6538 113.588 51.6499 113.239C51.6467 113.049 51.6434 112.86 51.6401 112.665C51.6396 112.518 51.6392 112.372 51.6387 112.221C53.0138 111.93 53.4177 111.902 54.7483 112.101C54.9008 112.247 55.0532 112.393 55.2102 112.543C55.5005 112.456 55.7908 112.369 56.0899 112.28C55.7909 112.14 55.4919 112 55.1838 111.855C55.7644 111.681 56.345 111.508 56.9432 111.329C56.4903 111.005 56.4903 111.005 56.0283 110.675C55.8902 110.062 55.9423 109.465 55.958 108.842C55.5994 108.822 55.2407 108.803 54.8713 108.783C53.728 108.698 53.728 108.698 53.2749 108.485C53.0095 107.473 53.4715 106.811 54.5109 105.913C56.8678 104.608 59.1607 104.391 62.4436 104.084C63.7435 103.994 63.7435 103.994 64.6581 103.687C65.844 103.611 67.0221 103.587 68.212 103.551C68.0567 103.33 67.9013 103.109 67.7413 102.881C67.4016 102.875 67.0619 102.869 66.7118 102.863C65.2258 102.707 64.9803 102.496 64.1435 101.871C63.0824 100.627 62.4864 99.4159 62.6613 98.0256C62.805 97.9444 62.9487 97.8631 63.0967 97.7794C63.1847 97.2583 63.2273 96.7393 63.2697 96.218C63.501 95.5937 63.79 95.3593 64.7681 94.9608C66.409 94.9696 66.409 94.9696 67.8866 95.0707C67.7919 94.8657 67.7919 94.8657 67.6952 94.6566C67.0878 92.9781 67.8173 91.933 69.4877 90.4185C71.2837 90.2542 72.3939 90.3423 73.9754 90.7054C76.9702 91.3282 80.6112 91.1631 83.7297 90.5607C83.7065 89.9556 83.6832 89.3505 83.6593 88.7271C83.3101 88.7121 82.9608 88.6971 82.601 88.6816C81.4293 88.5831 81.4293 88.5831 80.5233 88.1588C80.5146 87.9319 80.5059 87.705 80.4969 87.4712C79.9047 87.3424 79.3125 87.2137 78.7024 87.081C78.6966 86.9297 78.6908 86.7784 78.6848 86.6226C78.0926 86.4938 77.5004 86.365 76.8902 86.2324C76.8844 86.0811 76.8786 85.9298 76.8727 85.774C76.6141 85.7318 76.3556 85.6896 76.0892 85.6462C74.8236 85.3177 74.1327 84.8702 73.2572 84.3059C73.398 84.149 73.5388 83.9921 73.6838 83.8305C73.2411 83.7717 72.7984 83.7129 72.3423 83.6524C72.6239 83.3386 72.9055 83.0248 73.1956 82.7015C73.4888 82.6902 73.782 82.679 74.0841 82.6674C74.0783 82.5161 74.0725 82.3649 74.0665 82.209C74.3568 82.1221 74.6471 82.0352 74.9462 81.9457C74.7938 81.8001 74.6414 81.6544 74.4844 81.5044C73.8788 80.6414 73.918 79.9328 73.9434 79.0002C73.2075 78.9527 72.4716 78.9052 71.7134 78.8562C71.7047 78.6293 71.696 78.4024 71.6871 78.1686C72.4229 78.2161 73.1588 78.2636 73.917 78.3126C73.9112 78.1613 73.9054 78.01 73.8995 77.8542C74.3392 77.8373 74.779 77.8204 75.2322 77.8031C75.2409 78.03 75.2496 78.2569 75.2585 78.4907C75.5453 78.5507 75.8321 78.6107 76.1275 78.6725C77.0531 78.8809 77.0531 78.8809 77.5061 79.093C78.6937 79.0799 79.8718 79.012 81.06 78.9567C80.6834 78.2581 80.273 77.5895 79.6482 76.945C78.5835 76.646 78.5835 76.646 77.4094 76.5718C75.8208 76.1461 75.1749 75.7408 74.6736 74.8405C74.6516 74.2675 74.6516 74.2675 75.0739 73.6774C76.4029 72.9418 77.5318 72.3214 79.4635 72.1318C79.0892 71.9426 78.7149 71.7534 78.3293 71.5584C77.4889 71.081 77.2044 70.8794 76.9433 70.22C77.1456 69.6958 77.1456 69.6958 78.4607 69.1863C79.3666 69.1067 79.3666 69.1067 80.3199 69.0863C80.8791 69.0743 81.4384 69.0623 82.0146 69.0499C78.5795 68.594 74.4779 69.0944 70.9727 69.4682C70.6583 69.482 70.344 69.4959 70.0202 69.5101C69.7212 69.3701 69.4222 69.2301 69.1141 69.0858C68.732 69.1715 68.3499 69.2571 67.9562 69.3454C64.8222 69.9343 61.378 70.0795 58.1175 70.1873C56.7453 70.1955 56.7453 70.1955 55.8222 70.5139C54.8075 70.4748 54.8075 70.4748 53.6205 70.3832C52.3599 70.2873 51.3204 70.2275 50.0295 70.2771C49.8916 70.5096 49.7537 70.7421 49.6116 70.9817C49.3903 70.9523 49.1689 70.923 48.9409 70.8927C47.3645 70.7909 45.8721 70.8819 44.272 70.957C44.1341 71.1896 43.9962 71.4221 43.8541 71.6617C43.5567 71.5642 43.2594 71.4667 42.953 71.3663C40.6328 70.8373 38.6038 70.8276 36.1646 71.2681C34.5281 71.5576 34.2377 71.5559 32.7218 71.4002C32.0153 71.4818 31.309 71.5642 30.6043 71.6509C27.14 71.9954 23.5568 71.9937 20.067 72.0435C19.4847 72.0525 18.9024 72.0615 18.3024 72.0709C16.7292 72.0137 16.7292 72.0137 15.6001 71.7101C14.1029 71.3102 12.9424 71.3773 11.2287 71.4214C8.59802 71.4599 6.62454 71.3703 4.22898 70.8866C4.22318 70.7353 4.21738 70.584 4.2114 70.4282C3.6221 70.375 3.0328 70.3219 2.42565 70.2671C2.41985 70.1159 2.41404 69.9646 2.40806 69.8087C2.11487 69.82 1.82167 69.8312 1.51959 69.8428C0.321929 68.5863 0.371729 67.38 0.314483 65.9726C0.29403 65.7235 0.273577 65.4744 0.252504 65.2177C0.241576 64.9777 0.230648 64.7378 0.219389 64.4905C0.207361 64.2723 0.195333 64.0541 0.18294 63.8292C0.431487 63.0583 0.997727 62.775 2.11788 62.2451C2.59292 62.0707 2.59292 62.0707 3.07756 61.8927C4.01014 61.4986 4.01014 61.4986 4.03642 60.7943C4.25993 60.0971 4.25993 60.0971 5.10415 59.6343C7.03851 59.1903 8.83866 59.0958 10.8971 59.1538C12.132 59.4508 12.132 59.4508 13.1447 59.7562C14.5345 59.7412 14.5345 59.7412 15.8101 59.654C16.2543 59.7505 16.2543 59.7505 16.7074 59.8491C17.0645 59.8306 17.4217 59.8122 17.7897 59.7932C18.9286 59.7639 18.9286 59.7639 20.2789 60.1711C20.2731 60.0198 20.2673 59.8686 20.2613 59.7127C22.0368 59.1813 24.1717 59.3204 26.1153 59.3734C28.1991 59.4256 30.2441 59.3336 32.3353 59.2423C33.8342 59.1934 35.2293 59.2297 36.7069 59.3113C36.7243 59.7651 36.7417 60.2189 36.7597 60.6865C37.6421 60.7284 38.5246 60.7703 39.4339 60.8135C39.3368 60.6751 39.2397 60.5368 39.1397 60.3944C39.0786 60.2357 39.0175 60.0771 38.9545 59.9137C39.2419 59.7512 39.5293 59.5887 39.8254 59.4212C40.1215 59.4856 40.4176 59.55 40.7226 59.6163C40.7168 59.465 40.711 59.3138 40.705 59.1579C42.8997 58.9601 42.8997 58.9601 45.1386 58.7583C45.127 58.4557 45.1154 58.1532 45.1035 57.8415C45.9859 57.8834 46.8684 57.9253 47.7777 57.9684C47.6369 58.1253 47.4961 58.2822 47.351 58.4439C47.8023 58.457 48.2536 58.4702 48.7185 58.4837C49.3205 58.5016 49.9225 58.5194 50.5245 58.5373C50.8207 58.5459 51.117 58.5545 51.4222 58.5634C52.8 58.6045 54.1656 58.6543 55.5335 58.7334C56.6965 58.8314 56.6965 58.8314 57.5861 58.5103C58.1771 58.4717 58.77 58.4454 59.3625 58.4278C59.6741 58.4179 59.9857 58.408 60.3067 58.3978C60.5817 58.3899 60.8567 58.382 61.14 58.3739C61.4332 58.3627 61.7264 58.3514 62.0285 58.3398C65.0201 58.3903 65.0201 58.3903 66.053 58.874C66.0617 59.1009 66.0704 59.3279 66.0794 59.5616C66.5186 59.5587 66.9577 59.5557 67.4102 59.5527C67.9802 59.5501 68.5501 59.5474 69.1374 59.5447C69.705 59.5416 70.2726 59.5385 70.8575 59.5352C72.3075 59.5522 72.3075 59.5522 73.2048 59.7473C73.2106 59.8986 73.2164 60.0499 73.2224 60.2057C72.9428 60.2349 72.6632 60.2641 72.3752 60.2942C71.1154 60.4269 69.8566 60.5628 68.5977 60.6988C68.1576 60.7447 67.7175 60.7905 67.264 60.8378C66.8457 60.8835 66.4274 60.9291 65.9963 60.9761C65.6089 61.0174 65.2214 61.0587 64.8221 61.1013C64.5243 61.1508 64.2265 61.2003 63.9197 61.2513C63.7789 61.4082 63.6381 61.5651 63.4931 61.7267C64.1226 61.7088 64.7521 61.6891 65.3816 61.6686C65.9075 61.6524 65.9075 61.6524 66.444 61.6359C67.4499 61.5758 68.3005 61.4579 69.2594 61.2759C69.4147 61.4972 69.57 61.7185 69.73 61.9465C70.8999 61.8259 72.0698 61.7052 73.2751 61.5809C73.2693 61.4297 73.2635 61.2784 73.2575 61.1225C73.841 61.0244 74.4245 60.9263 75.0257 60.8252C75.017 60.5983 75.0083 60.3714 74.9993 60.1376C74.7061 60.1488 74.4129 60.1601 74.1108 60.1717C74.2487 59.9391 74.3866 59.7066 74.5287 59.467C75.2617 59.4389 75.9947 59.4108 76.7499 59.3818C76.7325 58.928 76.7151 58.4742 76.6971 58.0066C78.0505 57.72 78.5641 57.7124 79.9412 57.7674C81.6404 57.8157 83.0048 57.6934 84.6846 57.4706C85.4293 57.5146 86.1725 57.5631 86.9146 57.6146C87.5622 57.5783 88.2095 57.5388 88.8565 57.497C91.044 57.3923 92.245 57.6991 94.0576 58.2587C94.0708 58.1256 94.0841 57.9926 94.0977 57.8555C94.6524 57.0576 95.7648 56.7718 97.0969 56.3058C96.7264 55.6333 96.7264 55.6333 96.1557 54.9647C95.713 54.9059 95.2703 54.8471 94.8141 54.7866C94.8114 54.3384 94.8087 53.8902 94.806 53.442C94.7835 52.9495 94.7835 52.9495 94.4502 52.5034C94.2031 51.9048 94.5102 51.6325 95.0611 51.0758C95.2188 50.9129 95.3766 50.7501 95.5392 50.5823C95.6817 50.4401 95.8242 50.2979 95.971 50.1514C96.1118 49.9946 96.2526 49.8377 96.3976 49.676C94.8423 49.3097 93.5752 49.0192 91.8217 49.2634C91.5668 49.3158 91.3118 49.3681 91.0492 49.4221C91.055 49.5734 91.0608 49.7247 91.0668 49.8805C90.7736 49.8918 90.4804 49.903 90.1783 49.9146C89.8793 49.7746 89.5803 49.6346 89.2722 49.4903C88.8368 49.6206 88.8368 49.6206 88.3926 49.7536C86.4232 49.8765 84.56 49.8319 82.6087 49.746C81.9982 50.4263 82.3856 50.887 82.679 51.5796C81.6441 51.392 80.6092 51.2045 79.543 51.0113C79.5372 50.86 79.5314 50.7087 79.5254 50.5529C79.8186 50.5416 80.1118 50.5304 80.4139 50.5188C80.4052 50.2919 80.3965 50.065 80.3875 49.8312C79.6516 49.7837 78.9157 49.7361 78.1575 49.6872C78.2546 49.8255 78.3516 49.9638 78.4516 50.1063C78.5128 50.2649 78.5739 50.4235 78.6369 50.5869C77.766 51.0794 77.766 51.0794 76.3506 51.1481C75.7915 51.1648 75.2324 51.1815 74.6564 51.1987C74.1453 51.2704 73.6342 51.3421 73.1076 51.416C71.1211 51.584 70.1951 51.3743 68.4194 50.9789C68.4136 50.8277 68.4078 50.6764 68.4019 50.5205C67.9621 50.5374 67.5223 50.5543 67.0691 50.5717C67.0749 50.723 67.0807 50.8742 67.0867 51.0301C65.0136 51.1096 62.9405 51.1892 60.8674 51.2687C61.1664 51.4087 61.4654 51.5487 61.7735 51.693C61.7822 51.9199 61.7909 52.1468 61.7998 52.3806C61.0668 52.4087 60.3338 52.4369 59.5786 52.4658C59.5523 51.7782 59.5523 51.7782 59.9789 51.3028C59.407 51.3079 59.407 51.3079 58.8236 51.313C56.1135 51.3256 53.6583 51.2999 51.0678 50.956C50.7746 50.9673 50.4814 50.9785 50.1793 50.9901C50.3268 51.2472 50.3268 51.2472 50.4773 51.5095C50.6675 52.1191 50.6675 52.1191 49.8054 52.8408C48.9929 52.9975 48.9929 52.9975 48.0628 53.0798C47.6043 53.124 47.6043 53.124 47.1365 53.1691C46.2603 53.2063 46.2603 53.2063 44.9188 53.0283C44.3687 52.4612 44.3687 52.4612 43.9863 51.9163C43.331 52.0551 43.331 52.0551 42.6624 52.1967C42.674 52.4992 42.6856 52.8018 42.6976 53.1135C41.2444 53.3528 40.6148 53.4451 39.1437 53.2498C35.6502 53.2715 32.5957 53.3888 29.3505 54.1913C27.9328 54.4525 26.7561 54.1941 25.3811 54.0074C23.2443 53.9942 21.1693 54.1775 19.0562 54.3935C17.3478 54.5534 16.2479 54.5992 14.7106 54.1872C14.3214 54.0885 13.9323 53.9898 13.5313 53.8882C11.7413 53.0031 11.0841 51.9644 11.006 50.6507C11.0266 49.5763 11.1652 48.5052 11.3371 47.4305C10.9147 47.423 10.4924 47.4156 10.0572 47.4079C8.6629 47.3036 8.6629 47.3036 7.74805 46.6501C6.99256 45.1019 6.99256 45.1019 7.66011 44.358C8.39311 44.3299 9.1261 44.3018 9.8813 44.2728C9.99814 44.4482 10.115 44.6237 10.2354 44.8044C10.6934 45.4169 10.6934 45.4169 11.711 45.5799C12.6083 45.775 12.6083 45.775 13.1867 46.3553C13.3035 46.5307 13.4203 46.7062 13.5407 46.8869C14.863 46.9119 16.1853 46.9369 17.5477 46.9627C17.3104 46.5173 17.3104 46.5173 17.0683 46.0629C16.0363 45.951 15.0043 45.8391 13.941 45.7238C13.6217 45.0544 13.3024 44.3849 12.9734 43.6951C12.6802 43.7064 12.387 43.7176 12.0849 43.7292C11.3496 43.0265 11.4066 42.2555 11.5527 41.4542C12.1927 40.7411 12.1927 40.7411 12.8415 40.2571C12.1056 40.2096 11.3697 40.1621 10.6115 40.1131C10.7465 39.805 10.8815 39.4968 11.0206 39.1793C11.3138 39.168 11.607 39.1568 11.909 39.1452C11.7613 38.881 11.7613 38.881 11.6105 38.6115C11.5479 38.4151 11.4853 38.2186 11.4208 38.0162C12.6325 37.331 13.6667 37.377 15.354 37.2556C16.3782 37.1773 16.3782 37.1773 17.152 36.6487C18.3266 36.4739 19.4961 36.3894 20.6971 36.2831C20.9039 35.9343 20.9039 35.9343 21.1149 35.5785C21.5576 35.6372 22.0003 35.696 22.4564 35.7565C22.468 36.0591 22.4797 36.3616 22.4916 36.6733C22.8847 36.6314 22.8847 36.6314 23.2857 36.5886C28.2861 36.1168 33.3103 36.0677 38.341 35.9505C40.2039 35.907 42.0669 35.8615 43.9299 35.815C44.3495 35.8058 44.7691 35.7966 45.2015 35.7872C47.4468 35.731 49.5961 35.6114 51.8152 35.3675C52.691 35.2852 52.691 35.2852 54.4413 35.2467C54.8899 35.22 55.3385 35.1934 55.8007 35.1659C56.2274 34.8086 56.2274 34.8086 56.6628 34.4442C57.7187 34.3364 57.7187 34.3364 58.9378 34.3139C59.3424 34.3046 59.7469 34.2953 60.1637 34.2857C60.4744 34.2817 60.785 34.2778 61.1051 34.2738C61.5667 34.8242 61.5667 34.8242 62.0376 35.3857C63.0638 35.3463 64.09 35.3069 65.1473 35.2664C65.2823 34.9582 65.4172 34.65 65.5563 34.3325C65.9177 34.4252 65.9177 34.4252 66.2865 34.5197C67.5295 34.7568 68.689 34.8071 70.0251 34.8497C69.8698 34.6284 69.7145 34.4071 69.5545 34.1791C71.7978 33.798 73.8099 33.8571 76.1039 33.892C77.5552 33.8723 78.7872 33.7196 80.2074 33.5409C80.6501 33.5996 81.0928 33.6584 81.5489 33.7189C81.4139 34.0271 81.2789 34.3353 81.1398 34.6528C82.1776 34.916 83.2154 35.1791 84.2847 35.4503C84.4197 35.1421 84.5547 34.834 84.6937 34.5164C85.1389 34.5047 85.584 34.4929 86.0427 34.4808C86.6392 34.4623 87.2357 34.4435 87.8323 34.4247C88.4149 34.4077 88.9974 34.3907 89.5977 34.3731C91.6687 34.2409 93.4846 33.9718 95.3291 33.4198C96.217 33.3766 97.1058 33.3417 97.9945 33.3175C98.0061 33.6201 98.0177 33.9226 98.0297 34.2343C98.4666 34.1418 98.9035 34.0493 99.3536 33.954C99.6616 33.4797 99.6616 33.4797 99.7627 33.0202C100.651 33.2133 100.651 33.2133 101.557 33.4104C101.566 33.6373 101.575 33.8642 101.584 34.098C102.674 33.8289 102.674 33.8289 103.787 33.5544C103.781 33.4031 103.776 33.2518 103.77 33.096C104.503 33.0678 105.236 33.0397 105.991 33.0108C106.146 33.232 106.301 33.4533 106.461 33.6813C111.21 33.9881 111.21 33.9881 115.79 33.3234C116.084 33.3121 116.377 33.3009 116.679 33.2893C116.673 33.138 116.667 32.9868 116.661 32.8309C117.774 32.6263 118.824 32.4928 119.98 32.3736C121.468 32.2354 121.468 32.2354 122.437 31.9063C123.616 31.5635 124.652 31.5756 125.955 31.5562C125.961 31.7075 125.967 31.8587 125.973 32.0146C127.295 32.0396 128.617 32.0646 129.98 32.0904C130.135 32.3117 130.29 32.533 130.45 32.761C132.356 32.6878 134.262 32.6147 136.225 32.5394C136.07 32.3181 135.915 32.0968 135.755 31.8688C136.491 31.9163 137.227 31.9639 137.985 32.0128C137.991 32.1641 137.996 32.3154 138.002 32.4712C138.364 32.3451 138.726 32.219 139.099 32.089C140.853 31.6254 142.314 31.5287 144.203 31.4775C144.535 31.4657 144.866 31.454 145.208 31.4419C146.258 31.4054 147.308 31.3738 148.358 31.3422C149.074 31.3182 149.79 31.2939 150.505 31.2693C152.252 31.2098 153.999 31.1547 155.745 31.1019C155.904 31.3988 156.062 31.6957 156.225 32.0016C157.541 31.8754 158.858 31.7491 160.214 31.619C160.352 31.3865 160.49 31.154 160.632 30.9144C162.627 30.5237 163.999 30.6772 165.972 30.9391C165.98 31.166 165.989 31.3929 165.998 31.6267C170.947 31.4593 175.889 31.2657 180.833 30.9983C181.368 30.9695 181.368 30.9695 181.913 30.94C183.697 30.8431 185.481 30.7441 187.264 30.6427C187.93 30.6059 188.595 30.5692 189.261 30.5324C189.563 30.5146 189.865 30.4968 190.176 30.4785C191.945 30.3821 193.575 30.3883 195.318 30.5018C195.306 30.1992 195.295 29.8967 195.283 29.585C197.071 29.2508 198.052 29.2664 199.734 29.6438C200.033 29.7838 200.332 29.9238 200.64 30.0681C200.775 29.7599 200.91 29.4517 201.049 29.1342C201.696 29.1032 202.344 29.0739 202.992 29.0453C203.353 29.0288 203.713 29.0123 204.085 28.9953C205.047 28.9808 205.047 28.9808 205.944 29.1759C205.95 29.3272 205.956 29.4785 205.962 29.6343C206.445 29.5495 206.928 29.4647 207.426 29.3773C212.955 28.4563 217.954 28.2088 223.634 28.1859C226.339 28.1735 229.005 28.1064 231.698 27.8579C234.277 27.6284 236.861 27.4446 239.45 27.261C240.999 27.1429 242.526 26.9965 244.059 26.8152C245.002 26.7593 245.002 26.7593 246.388 26.829C248.554 26.8793 250.517 26.688 252.666 26.4796C255.91 26.1819 259.104 25.954 262.374 25.8489C266.524 25.7143 270.57 25.5181 274.59 24.8208C277.862 24.3306 281.04 24.2169 284.385 24.115C289.366 23.945 294.212 23.5862 299.138 23.0756C299.468 23.0425 299.798 23.0094 300.139 22.9752C301.884 22.8039 301.884 22.8039 303.594 22.546C304.918 22.3401 306.204 22.319 307.561 22.2934C307.71 22.3634 307.86 22.4334 308.014 22.5055C310.692 22.6354 313.058 22.6811 315.557 21.9866C315.709 22.1322 315.862 22.2779 316.019 22.4279C318.481 22.5916 320.63 22.4497 323.099 22.2146C325.113 22.051 327.12 21.9969 329.143 21.9387C330.687 21.8814 330.687 21.8814 332.229 21.6912C335.352 21.3504 338.544 21.3223 341.697 21.2179C342.559 21.189 343.422 21.1587 344.284 21.1283C344.794 21.1114 345.304 21.0945 345.83 21.0771C347.14 21.0351 347.14 21.0351 348.43 20.7253C349.402 20.6969 349.402 20.6969 350.529 20.7067C350.942 20.71 351.354 20.7133 351.779 20.7167C352.434 20.7246 352.434 20.7246 353.102 20.7326C353.548 20.7369 353.993 20.7413 354.452 20.7457C356.631 20.7715 358.773 20.8165 360.924 20.9633C363.918 21.164 367.119 21.1002 370.106 20.6945C372.163 20.4567 374.194 20.4119 376.277 20.3456C379.638 20.2288 382.973 20.0756 386.324 19.8454C389.284 19.644 392.235 19.4787 395.203 19.3613C395.542 19.3472 395.88 19.3332 396.229 19.3188C398.403 19.2383 400.495 19.2579 402.654 19.3336C402.812 19.6305 402.97 19.9275 403.133 20.2334C402.379 20.3049 402.379 20.3049 401.61 20.3779C401.089 20.4452 400.569 20.5125 400.032 20.5819C399.892 20.7388 399.751 20.8957 399.606 21.0573C400.277 20.9819 400.277 20.9819 400.962 20.9049C402.577 20.7234 404.192 20.5418 405.808 20.3603C405.813 20.5116 405.819 20.6629 405.825 20.8187C406.555 20.7585 407.285 20.6967 408.015 20.6343C408.624 20.5829 408.624 20.5829 409.246 20.5306C410.244 20.4747 410.244 20.4747 410.694 20.1728C408.926 20.0134 408.926 20.0134 407.123 19.8508C407.462 19.2783 407.462 19.2783 407.967 18.6707C409.486 18.3491 410.73 18.2868 412.342 18.2007C412.809 18.1756 412.809 18.1756 413.285 18.1501C414.321 18.095 415.358 18.0418 416.394 17.9887C416.75 17.9701 417.107 17.9515 417.474 17.9324C424.47 17.5681 431.468 17.2935 438.471 17.0498C443.45 16.8759 443.45 16.8759 448.4 16.4809C449.65 16.3597 450.884 16.3314 452.143 16.3016C455.297 16.197 458.383 15.948 461.518 15.6837C465.917 15.3191 470.161 15.1496 474.575 15.1289C479.424 15.106 484.272 14.8993 489.089 14.4609C491.454 14.289 493.824 14.2195 496.197 14.1465C498.309 14.0767 500.32 13.9473 502.402 13.6982C503.426 13.6311 503.426 13.6311 504.848 13.6845ZM530.159 14.6713C530.021 14.9039 529.883 15.1364 529.741 15.376C530.328 15.3535 530.914 15.331 531.518 15.3078C531.512 15.1565 531.506 15.0052 531.501 14.8494C531.058 14.7906 530.615 14.7319 530.159 14.6713ZM519.062 15.3266C519.065 15.4022 519.068 15.4779 519.071 15.5558C519.95 15.5221 520.83 15.4883 521.736 15.4535C521.733 15.3779 521.73 15.3023 521.727 15.2243C520.848 15.2581 519.968 15.2918 519.062 15.3266ZM526.17 15.0539C526.175 15.2052 526.181 15.3565 526.187 15.5123C526.627 15.4954 527.067 15.4786 527.52 15.4612C527.514 15.3099 527.508 15.1586 527.502 15.0028C527.063 15.0197 526.623 15.0365 526.17 15.0539ZM534.166 14.7471C534.172 14.8984 534.178 15.0497 534.184 15.2055C534.764 15.0318 535.345 14.858 535.943 14.679C535.357 14.7014 534.77 14.7239 534.166 14.7471ZM541.662 14.4595C541.342 14.5144 541.022 14.5693 540.692 14.6259C540.447 14.6684 540.202 14.7109 539.95 14.7548C540.25 15.3225 540.25 15.3225 540.882 15.8667C541.978 16.0709 541.978 16.0709 543.112 16.0107C543.4 15.8481 543.687 15.6856 543.983 15.5182C544.13 15.5125 544.276 15.5069 544.427 15.5011C544.41 15.0473 544.393 14.5935 544.375 14.1259C543.393 14.1636 542.608 14.2966 541.662 14.4595ZM775.04 8.03071C775.588 8.1715 776.141 8.30713 776.696 8.44059C777.003 8.51667 777.311 8.59275 777.628 8.67114C778.89 8.84774 779.557 8.68747 780.841 8.49674C781.591 8.43601 782.343 8.3832 783.096 8.33761C783.716 8.2994 783.716 8.2994 784.349 8.26041C784.775 8.23504 785.201 8.20967 785.64 8.18354C786.074 8.15695 786.509 8.13037 786.956 8.10298C788.025 8.03774 789.093 7.97332 790.161 7.90963C790.156 7.75836 790.15 7.60708 790.144 7.45123C789.592 7.4585 789.04 7.46577 788.471 7.47326C787.741 7.48189 787.011 7.49047 786.281 7.49902C785.918 7.50392 785.554 7.50883 785.18 7.51389C783.38 7.53405 781.68 7.51645 779.909 7.38483C777.997 7.3805 776.669 7.39958 775.04 8.03071ZM119.78 32.9408C119.786 33.0921 119.791 33.2433 119.797 33.3992C120.088 33.3123 120.378 33.2254 120.677 33.1359C120.381 33.0715 120.085 33.0071 119.78 32.9408ZM800.814 7.27138C800.674 7.42828 800.533 7.58518 800.388 7.74683C801.707 7.69621 803.026 7.64559 804.386 7.59344C804.233 7.44779 804.081 7.30214 803.924 7.15208C802.898 7.19145 801.872 7.23082 800.814 7.27138ZM17.6092 48.5671C17.7616 48.7128 17.914 48.8584 18.071 49.0085C18.5108 48.9916 18.9506 48.9747 19.4038 48.9573C19.398 48.8061 19.3922 48.6548 19.3862 48.4989C18.7998 48.5214 18.2134 48.5439 17.6092 48.5671ZM56.2667 47.3135C56.2783 47.6161 56.2899 47.9186 56.3019 48.2303C58.2766 48.0409 58.2766 48.0409 60.2913 47.8477C60.2854 47.6964 60.2796 47.5452 60.2737 47.3893C58.9514 47.3643 57.6291 47.3393 56.2667 47.3135ZM75.8132 46.5636C75.6724 46.7205 75.5316 46.8774 75.3866 47.039C74.4802 47.332 74.4802 47.332 73.6272 47.5656C74.08 47.8891 74.08 47.8891 74.542 48.2191C76.4291 48.2368 77.8178 48.168 79.4111 47.5732C79.4053 47.422 79.3995 47.2707 79.3935 47.1148C79.7213 47.1242 80.0491 47.1335 80.3869 47.1431C81.0386 47.1563 81.0386 47.1563 81.7035 47.1697C82.1323 47.1799 82.5611 47.19 83.0028 47.2005C84.4049 47.1526 85.2227 46.9342 86.4925 46.613C87.5425 46.7101 88.5853 46.824 89.6198 46.952C91.0838 46.9345 91.0838 46.9345 92.2852 46.8498C92.4202 46.5416 92.5552 46.2334 92.6942 45.9159C87.1235 46.1297 81.5528 46.3434 75.8132 46.5636ZM93.5827 45.8819C95.2343 46.7141 95.2343 46.7141 96.7452 47.1378C96.751 47.289 96.7568 47.4403 96.7627 47.5962C97.4928 47.4924 98.2229 47.3886 98.9751 47.2817C99.1043 46.8223 99.2335 46.3628 99.3666 45.8895C97.4579 45.887 95.5492 45.8844 93.5827 45.8819ZM68.2787 47.3117C68.2816 47.3874 68.2845 47.463 68.2875 47.5409C69.3137 47.5016 70.3399 47.4622 71.3972 47.4216C71.5351 47.1891 71.673 46.9566 71.8151 46.717C70.3917 46.7716 69.5586 46.9742 68.2787 47.3117ZM145.576 44.3462C145.582 44.4974 145.588 44.6487 145.594 44.8046C146.327 44.7764 147.06 44.7483 147.815 44.7193C147.956 44.5624 148.097 44.4055 148.242 44.2439C147.362 44.2776 146.482 44.3114 145.576 44.3462ZM40.8415 51.1188C40.9939 51.2645 41.1463 51.4101 41.3033 51.5602C41.7431 51.5433 42.1829 51.5265 42.636 51.5091C42.4807 51.2878 42.3254 51.0665 42.1654 50.8385C41.6212 50.8423 41.6212 50.8423 40.8415 51.1188ZM159.044 47.5021C159.199 47.7233 159.355 47.9446 159.515 48.1726C160.095 47.9988 160.676 47.8251 161.274 47.646C161.271 47.5704 161.268 47.4948 161.265 47.4168C160.532 47.445 159.799 47.4731 159.044 47.5021ZM173.695 46.7104C173.209 46.8906 173.209 46.8906 172.713 47.0745C171.279 47.5578 170.41 47.6037 168.754 47.646C168.289 47.6603 167.825 47.6745 167.346 47.6892C166.169 47.6878 166.169 47.6878 165.272 47.4926C165.131 47.6495 164.991 47.8064 164.845 47.9681C162.521 48.2516 160.497 48.4631 158.182 48.2237C158.044 48.4563 157.906 48.6888 157.764 48.9284C156.594 49.049 155.424 49.1697 154.219 49.2939C154.081 49.5265 153.943 49.759 153.801 49.9986C155.239 50.379 156.233 50.4096 157.873 50.3158C159.498 50.2357 161.037 50.2003 162.653 50.2472C164.428 50.2865 166.046 50.1806 167.816 50.0204C169.63 49.8603 171.029 49.7977 172.792 49.9873C176.191 50.2989 179.797 49.5811 183.13 49.1029C182.685 49.0063 182.685 49.0063 182.232 48.9078C182.356 48.2971 182.479 47.6864 182.606 47.0571C181.433 47.1021 180.261 47.1471 179.052 47.1935C179.044 46.9666 179.035 46.7397 179.026 46.5059C178.716 46.537 178.407 46.5681 178.088 46.6002C177.483 46.6585 177.483 46.6585 176.865 46.7179C176.464 46.7573 176.063 46.7966 175.65 46.8372C174.592 46.9055 174.592 46.9055 173.695 46.7104ZM98.6452 50.2784C98.651 50.4297 98.6568 50.5809 98.6628 50.7368C98.956 50.7255 99.2492 50.7143 99.5513 50.7027C99.5455 50.5514 99.5397 50.4002 99.5337 50.2443C99.2405 50.2555 98.9473 50.2668 98.6452 50.2784ZM99.151 51.8657C98.7243 52.223 98.7243 52.223 98.2889 52.5874C98.8782 52.6406 99.4675 52.6937 100.075 52.7485C100.063 52.4459 100.051 52.1434 100.039 51.8317C99.7463 51.8429 99.4531 51.8542 99.151 51.8657ZM1262.76 11.125C1262.77 11.2763 1262.77 11.4275 1262.78 11.5834C1263.51 11.4796 1264.24 11.3759 1264.99 11.269C1264.84 11.1233 1264.69 10.9777 1264.53 10.8276C1263.61 10.8288 1263.61 10.8288 1262.76 11.125ZM56.3149 60.1658C56.476 60.5384 56.6371 60.9109 56.8031 61.2948C56.9497 61.2891 57.0963 61.2835 57.2474 61.2777C57.2329 60.8995 57.2184 60.5213 57.2034 60.1317C56.9102 60.143 56.617 60.1542 56.3149 60.1658ZM23.0234 62.1317C23.768 62.4061 24.5126 62.6805 25.2798 62.9633C25.5643 62.7251 25.8488 62.4869 26.1419 62.2416C25.6301 61.9499 25.6301 61.9499 24.3278 62.0673C23.8974 62.0885 23.4669 62.1098 23.0234 62.1317ZM51.9165 61.4822C51.9223 61.6335 51.9281 61.7848 51.9341 61.9406C52.371 61.8481 52.8079 61.7556 53.258 61.6603C52.8153 61.6015 52.3726 61.5428 51.9165 61.4822ZM163.865 57.1872C163.583 57.501 163.301 57.8148 163.011 58.1381C164.037 58.0988 165.064 58.0594 166.121 58.0188C165.963 57.7219 165.804 57.425 165.641 57.1191C165.055 57.1416 164.469 57.1641 163.865 57.1872ZM62.6222 62.2192C62.4814 62.3761 62.3406 62.533 62.1955 62.6946C62.6353 62.6778 63.0751 62.6609 63.5283 62.6435C63.5225 62.4922 63.5166 62.341 63.5107 62.1851C63.2175 62.1964 62.9243 62.2076 62.6222 62.2192ZM1213.7 19.4345C1213.85 19.5801 1214 19.7258 1214.16 19.8758C1214.45 19.8646 1214.74 19.8533 1215.05 19.8417C1215.04 19.6905 1215.03 19.5392 1215.03 19.3833C1214.59 19.4002 1214.15 19.4171 1213.7 19.4345ZM113.397 63.7142C113.259 63.9468 113.121 64.1793 112.979 64.4189C113.563 64.3207 114.146 64.2226 114.748 64.1215C114.595 63.9759 114.443 63.8302 114.286 63.6801C113.993 63.6914 113.699 63.7026 113.397 63.7142ZM1205.81 22.4917C1205.81 22.7186 1205.82 22.9455 1205.83 23.1793C1206.13 23.2436 1206.42 23.308 1206.73 23.3744C1206.57 23.0774 1206.41 22.7805 1206.25 22.4746C1206.1 22.4802 1205.96 22.4859 1205.81 22.4917ZM1217.36 22.0485C1217.22 22.2811 1217.08 22.5136 1216.94 22.7532C1217.52 22.655 1218.1 22.5569 1218.71 22.4558C1218.26 22.3214 1217.81 22.187 1217.36 22.0485ZM1209.81 22.5675C1209.67 22.7244 1209.53 22.8813 1209.39 23.0429C1210.12 23.0148 1210.85 22.9867 1211.61 22.9577C1211.6 22.8064 1211.59 22.6551 1211.59 22.4993C1211 22.5218 1210.42 22.5443 1209.81 22.5675ZM86.4394 68.4211C86.3015 68.6536 86.1636 68.8862 86.0216 69.1257C85.572 69.1288 85.1225 69.1318 84.6594 69.135C82.6656 69.2606 81.5835 69.5361 79.8286 70.052C80.2727 70.1485 80.2727 70.1485 80.7259 70.2471C80.8812 70.4684 81.0365 70.6896 81.1965 70.9176C81.4919 70.9202 81.7874 70.9228 82.0918 70.9254C85.9952 70.9667 85.9952 70.9667 87.8776 71.1204C88.0896 70.7827 88.2985 70.4447 88.5061 70.1064C88.6227 69.9182 88.7394 69.7299 88.8596 69.536C89.1923 68.984 89.1923 68.984 89.1048 68.3188C88.2252 68.3526 87.3457 68.3863 86.4394 68.4211ZM1212.16 25.6911C1211.72 25.8214 1211.72 25.8214 1211.28 25.9543C1211.43 26.1756 1211.59 26.3969 1211.75 26.6249C1212.33 26.5268 1212.91 26.4286 1213.52 26.3275C1213.51 26.1762 1213.5 26.025 1213.5 25.8691C1213.06 25.8104 1212.61 25.7516 1212.16 25.6911ZM80.7213 81.7242C80.8737 81.8698 81.0261 82.0154 81.1831 82.1655C81.3239 82.0086 81.4647 81.8517 81.6098 81.6901C81.3166 81.7013 81.0234 81.7126 80.7213 81.7242ZM101.279 84.149C101.291 84.4515 101.303 84.754 101.315 85.0658C101.895 84.892 102.476 84.7182 103.074 84.5392C102.921 84.3935 102.769 84.2479 102.612 84.0978C102.172 84.1147 101.732 84.1316 101.279 84.149ZM111.079 84.4616C111.085 84.6129 111.091 84.7641 111.097 84.92C111.522 84.8997 111.522 84.8997 111.955 84.879C112.506 84.8548 112.506 84.8548 113.067 84.83C113.433 84.8133 113.799 84.7966 114.176 84.7794C115.095 84.7666 115.095 84.7666 115.548 84.9788C116.288 84.9597 117.029 84.9317 117.769 84.8935C117.464 84.6023 117.159 84.311 116.845 84.0108C116.132 84.032 115.42 84.0549 114.707 84.0785C114.31 84.0911 113.913 84.1037 113.504 84.1166C112.342 84.1583 112.342 84.1583 111.079 84.4616ZM1223.7 48.2021C1223.7 48.3533 1223.71 48.5046 1223.72 48.6605C1224.15 48.568 1224.59 48.4755 1225.04 48.3801C1224.6 48.3214 1224.15 48.2626 1223.7 48.2021ZM57.9196 113.587C57.9254 113.738 57.9312 113.889 57.9372 114.045C58.2275 113.958 58.5177 113.871 58.8168 113.782C58.5207 113.717 58.2246 113.653 57.9196 113.587ZM66.6855 121.743C66.5447 121.9 66.4039 122.057 66.2588 122.219C67.3626 122.29 67.3626 122.29 68.4888 122.363C68.483 122.211 68.4772 122.06 68.4712 121.904C67.8819 121.851 67.2926 121.798 66.6855 121.743ZM70.3185 123.67C70.3243 123.821 70.3301 123.972 70.3361 124.128C72.0323 124.485 72.9964 124.521 74.7873 124.187C73.4254 123.549 72.1773 123.691 70.3185 123.67ZM68.5503 123.967C68.5561 124.118 68.5619 124.27 68.5679 124.425C69.0048 124.333 69.4417 124.24 69.8918 124.145C69.4491 124.086 69.0065 124.028 68.5503 123.967ZM76.1024 123.677C76.1082 123.829 76.114 123.98 76.12 124.136C76.5569 124.043 76.9938 123.951 77.4439 123.855C77.0012 123.797 76.5585 123.738 76.1024 123.677ZM78.3324 123.821C79.4946 124.366 80.3435 124.327 81.9127 124.373C81.901 124.07 81.8894 123.767 81.8775 123.456C80.6654 123.502 79.5204 123.669 78.3324 123.821ZM82.7748 123.651C82.7806 123.802 82.7864 123.953 82.7923 124.109C83.6719 124.075 84.5515 124.042 85.4578 124.007C85.3025 123.786 85.1472 123.564 84.9871 123.336C84.0041 123.35 84.0041 123.35 82.7748 123.651ZM1227.48 88.9146C1227.34 89.0715 1227.2 89.2284 1227.06 89.39C1227.49 89.2975 1227.93 89.205 1228.38 89.1097C1228.08 89.0453 1227.79 88.9809 1227.48 88.9146ZM320.569 129.448C320.429 129.604 320.288 129.761 320.143 129.923C320.726 129.825 321.31 129.727 321.911 129.626C321.468 129.567 321.026 129.508 320.569 129.448ZM454.747 124.759C454.609 124.991 454.471 125.224 454.329 125.463C454.766 125.371 455.203 125.278 455.653 125.183C455.647 125.032 455.641 124.881 455.635 124.725C455.342 124.736 455.049 124.747 454.747 124.759ZM314.838 130.815C315.143 131.106 315.448 131.398 315.762 131.698C316.055 131.687 316.348 131.675 316.65 131.664C316.346 131.373 316.041 131.081 315.727 130.781C315.434 130.792 315.14 130.804 314.838 130.815ZM204.293 136.893C204.015 137.282 203.736 137.671 203.449 138.073C204.038 138.126 204.627 138.179 205.235 138.234C205.217 137.78 205.2 137.326 205.182 136.859C204.889 136.87 204.595 136.881 204.293 136.893ZM270.511 135.041C270.517 135.192 270.523 135.343 270.529 135.499C271.417 135.692 272.305 135.885 273.221 136.084C273.226 136.236 273.232 136.387 273.238 136.543C274.405 136.347 275.572 136.15 276.775 135.948C276.766 135.721 276.757 135.494 276.748 135.261C275.129 135.021 274.023 134.906 272.288 134.973C271.702 134.995 271.115 135.018 270.511 135.041ZM294.944 134.103C294.809 134.412 294.674 134.72 294.535 135.037C294.978 135.096 295.421 135.155 295.877 135.215C296.009 134.831 296.141 134.448 296.277 134.052C295.837 134.069 295.397 134.086 294.944 134.103ZM300.275 133.899C299.258 134.551 299.258 134.551 298.995 135.325C300.593 135.113 300.593 135.113 302.087 134.747C302.079 134.521 302.07 134.294 302.061 134.06C301.472 134.007 300.882 133.954 300.275 133.899ZM314.935 133.336C314.947 133.639 314.958 133.941 314.97 134.253C315.269 134.393 315.568 134.533 315.876 134.677C316.463 134.655 317.049 134.632 317.653 134.609C317.809 134.831 317.964 135.052 318.124 135.28C318.845 135.232 319.566 135.18 320.287 135.125C320.889 135.082 320.889 135.082 321.503 135.038C322.72 134.923 322.72 134.923 323.42 134.159C323.121 134.019 322.822 133.879 322.514 133.734C321.485 133.804 321.485 133.804 320.353 133.961C319.15 134.087 319.15 134.087 318.08 134.134C316.98 133.731 316.98 133.731 316.268 133.285C315.828 133.302 315.388 133.319 314.935 133.336ZM251.418 136.003C250.767 136.255 250.767 136.255 250.103 136.512C249.807 137.343 249.807 137.343 249.72 138.134C250.453 138.106 251.186 138.078 251.941 138.049C252.046 137.903 252.15 137.756 252.258 137.606C252.883 137.014 253.398 136.856 254.554 136.571C254.548 136.42 254.542 136.269 254.536 136.113C254.188 136.131 253.84 136.149 253.482 136.168C252.315 136.198 252.315 136.198 251.418 136.003ZM345.596 132.39C345.602 132.541 345.608 132.692 345.614 132.848C345.119 132.862 344.624 132.876 344.114 132.891C342.576 132.904 342.576 132.904 341.625 133.231C341.786 133.603 341.947 133.976 342.113 134.36C344.067 134.446 345.924 134.468 347.897 134.367C348.037 134.21 348.178 134.053 348.323 133.892C349.23 133.599 349.23 133.599 350.083 133.365C349.604 132.905 349.604 132.905 348.715 132.499C347.106 132.375 347.106 132.375 345.596 132.39ZM390.926 131.11C390.938 131.412 390.949 131.715 390.961 132.026C391.545 131.928 392.128 131.83 392.729 131.729C392.721 131.502 392.712 131.275 392.703 131.041C392.117 131.064 391.53 131.086 390.926 131.11ZM270.102 135.975C270.564 136.416 270.564 136.416 270.564 136.416L270.102 135.975ZM401.605 131.159C401.761 131.38 401.916 131.601 402.076 131.829C402.214 131.597 402.352 131.364 402.494 131.125C402.201 131.136 401.908 131.147 401.605 131.159ZM454.026 129.148C453.383 129.627 453.383 129.627 452.728 130.116C454.703 129.926 454.703 129.926 456.717 129.733C456.712 129.582 456.706 129.431 456.7 129.275C455.376 129.212 455.376 129.212 454.026 129.148ZM297.227 135.623C297.526 135.763 297.825 135.903 298.133 136.047C298.274 135.89 298.415 135.733 298.56 135.571C298.12 135.588 297.68 135.605 297.227 135.623ZM276.801 136.636C276.514 136.798 276.226 136.961 275.93 137.128C276.519 137.181 277.109 137.234 277.716 137.289C277.707 137.062 277.698 136.835 277.689 136.602C277.396 136.613 277.103 136.624 276.801 136.636Z" fill="#A8D5BA"/>
</svg>
