<svg width="871" height="244" viewBox="0 0 871 244" fill="none" xmlns="http://www.w3.org/2000/svg">
<g filter="url(#filter0_d_1071_1341)">
<path d="M223.559 27.0472C224.752 27.1501 225.934 27.1339 227.131 27.102C227.759 27.1239 227.759 27.1239 228.09 27.4743C228.698 27.4411 229.305 27.3853 229.911 27.321C231.98 27.1296 234.019 27.0992 236.093 27.137C237.078 27.1496 237.97 27.1365 238.933 26.9049C239.677 26.7735 239.677 26.7735 240.261 27.1116C241.444 27.6909 242.651 27.4314 243.919 27.321C246.844 27.1095 249.708 27.1675 252.633 27.3628C254.033 27.4498 255.351 27.495 256.743 27.2881C257.886 27.1239 257.886 27.1239 258.548 27.4743C259.853 27.5307 261.087 27.4488 262.376 27.2553C263.723 27.083 264.544 27.3437 265.831 27.8247C266.471 27.8968 267.113 27.9536 267.756 27.9999C272.43 28.3564 272.43 28.3564 274.108 29.9273C274.993 30.2396 275.6 30.3411 276.516 30.3886C276.789 30.4032 277.062 30.4179 277.343 30.433C277.628 30.4468 277.912 30.4606 278.205 30.4748C278.486 30.4899 278.768 30.5051 279.058 30.5207C280.389 30.5898 281.714 30.6484 283.046 30.6281C283.046 30.2812 283.046 29.9343 283.046 29.5768C284.78 28.6872 286.506 28.6039 288.343 29.2264C288.343 29.5733 288.343 29.9203 288.343 30.2777C288.016 30.2777 287.688 30.2777 287.35 30.2777C287.35 30.509 287.35 30.7402 287.35 30.9785C287.754 30.9745 288.157 30.9704 288.572 30.9662C289.11 30.9629 289.647 30.9597 290.185 30.9566C290.582 30.9522 290.582 30.9522 290.987 30.9477C292.569 30.9409 294.06 31.0674 295.627 31.329C297.502 31.4398 299.346 31.293 301.213 31.1099C304.133 30.8743 306.989 31.0859 309.531 32.7306C309.422 33.0776 309.313 33.4245 309.2 33.7819C307.964 34.0898 306.827 34.1636 305.559 34.1323C307.021 34.6828 308.161 34.8569 309.718 34.7894C311.432 34.7444 312.216 35.0559 313.504 36.2349C313.613 35.888 313.723 35.541 313.835 35.1836C314.928 35.068 316.02 34.9523 317.146 34.8332C317.146 34.6019 317.146 34.3706 317.146 34.1323C317.146 33.6698 317.146 33.2072 317.146 32.7306C318.817 31.8731 320.345 31.7569 322.112 32.3802C322.112 32.7271 322.112 33.0741 322.112 33.4315C321.284 34.0009 321.284 34.0009 320.456 34.4828C320.456 34.5984 320.456 34.714 320.456 34.8332C321.003 34.8332 321.549 34.8332 322.112 34.8332C322.139 34.5585 322.166 34.2839 322.194 34.0009C322.443 33.0811 322.443 33.0811 323.001 32.6649C323.967 32.3059 324.658 32.3841 325.671 32.5116C326.16 32.5699 326.16 32.5699 326.659 32.6294C327.03 32.6795 327.03 32.6795 327.409 32.7306C327.409 33.0776 327.409 33.4245 327.409 33.7819C327.156 33.8253 326.903 33.8686 326.643 33.9133C325.686 34.0906 325.686 34.0906 324.76 34.8332C324.938 34.825 325.115 34.8169 325.298 34.8085C327.054 34.7657 328.712 34.9129 330.45 35.1836C333.101 35.5879 335.724 35.5848 338.398 35.5388C338.709 35.5341 339.02 35.5293 339.341 35.5244C339.618 35.5181 339.894 35.5119 340.179 35.5054C341.031 35.5358 341.805 35.698 342.637 35.8844C342.924 35.8844 343.211 35.8844 343.506 35.8844C344.293 35.8844 344.293 35.8844 345.286 36.2349C345.936 36.2151 345.936 36.2151 346.61 36.1035C346.835 36.0718 347.061 36.0402 347.293 36.0076C348.003 35.8878 348.003 35.8878 348.928 35.534C349.77 35.6295 350.595 35.7438 351.431 35.8844C353.028 36.2475 353.028 36.2475 354.556 35.8844C357.212 35.7511 359.848 35.9182 362.493 36.1555C365.402 36.3862 368.495 36.3897 371.34 35.6531C371.591 35.6138 371.843 35.5745 372.102 35.534C372.32 35.7653 372.539 35.9966 372.764 36.2349C373.745 36.3268 373.745 36.3268 374.894 36.291C375.32 36.2872 375.747 36.2833 376.186 36.2794C376.639 36.2721 377.091 36.2645 377.544 36.2568C378.426 36.244 379.308 36.2342 380.191 36.2253C380.78 36.2158 380.78 36.2158 381.381 36.2062C382.365 36.2349 382.365 36.2349 383.358 36.5853C383.358 36.354 383.358 36.1227 383.358 35.8844C382.897 35.9061 382.897 35.9061 382.427 35.9283C381.372 35.8844 381.372 35.8844 380.378 35.1836C380.488 34.721 380.597 34.2585 380.709 33.7819C381.82 33.7123 382.93 33.6481 384.041 33.5848C384.353 33.5652 384.665 33.5455 384.987 33.5253C386.708 33.43 388.272 33.4683 389.979 33.7819C391.66 33.9026 393.081 33.9183 394.614 33.0811C394.723 33.1967 394.832 33.3123 394.945 33.4315C397.431 33.8398 399.83 33.7677 402.323 33.4862C403.222 33.4315 403.222 33.4315 404.215 33.7819C404.729 33.8332 405.244 33.8684 405.76 33.8928C406.056 33.9075 406.351 33.9222 406.656 33.9373C406.963 33.9511 407.271 33.9648 407.587 33.979C407.899 33.9942 408.21 34.0093 408.531 34.0249C409.299 34.062 410.068 34.0978 410.836 34.1323C410.617 33.5541 410.399 32.9759 410.174 32.3802C411.487 31.7483 412.717 31.507 414.147 31.329C413.857 33.3439 413.857 33.3439 413.484 34.1323C414.686 34.1323 415.888 34.1323 417.126 34.1323C417.235 33.5541 417.345 32.9759 417.457 32.3802C418.34 31.4461 420.577 31.7239 421.761 31.6794C422.335 31.7242 422.907 31.7822 423.478 31.8546C425.106 32.0502 426.669 32.0041 428.299 31.8984C428.652 31.8757 428.652 31.8757 429.011 31.8525C430.11 31.773 431.178 31.6558 432.268 31.4809C433.611 31.292 434.666 31.457 435.997 31.6794C435.997 31.9107 435.997 32.1419 435.997 32.3802C436.273 32.2982 436.273 32.2982 436.555 32.2146C438.123 31.7913 439.314 31.659 440.934 31.9504C441.993 32.0722 443.001 31.9038 444.055 31.7711C447.585 31.4034 447.585 31.4034 449.207 31.8546C449.906 32.0311 450.509 32.0751 451.227 32.0763C451.472 32.0768 451.717 32.0772 451.97 32.0777C452.222 32.0764 452.475 32.075 452.736 32.0736C452.99 32.075 453.244 32.0763 453.506 32.0777C454.595 32.0757 455.482 32.0464 456.522 31.6794C457.389 31.634 458.242 31.6129 459.109 31.6137C459.377 31.6134 459.645 31.6132 459.921 31.613C463.025 31.6395 466.117 31.8841 469.211 32.1308C471.369 32.2999 473.497 32.4136 475.661 32.3583C476.386 32.3802 476.386 32.3802 477.379 32.7306C477.993 32.7469 478.607 32.7439 479.221 32.7306C481.62 32.7077 483.999 32.8492 486.393 33.0044C487.139 33.0502 487.887 33.0811 488.635 33.0811C488.865 33.1348 489.095 33.1886 489.332 33.244C490.675 33.5067 492.011 33.5618 493.374 33.6286C493.665 33.6437 493.956 33.6589 494.256 33.6745C496.547 33.7849 498.828 33.8002 501.121 33.76C502.089 33.7795 502.921 33.9323 503.864 34.1323C504.083 34.0167 504.301 33.9011 504.526 33.7819C505.368 33.7473 506.2 33.7329 507.041 33.7354C507.414 33.7349 507.414 33.7349 507.793 33.7344C508.318 33.7341 508.842 33.7348 509.367 33.7362C510.173 33.7381 510.979 33.7362 511.784 33.734C512.293 33.7342 512.802 33.7347 513.311 33.7354C513.553 33.7347 513.796 33.734 514.046 33.7332C515.744 33.7416 515.744 33.7416 516.113 34.1323C516.606 34.161 517.1 34.1656 517.593 34.1604C517.908 34.1583 518.223 34.1563 518.548 34.1542C518.892 34.1506 519.236 34.147 519.591 34.1433C522.464 34.1279 525.334 34.1427 528.206 34.209C528.545 34.2168 528.884 34.2246 529.233 34.2326C530.26 34.2569 531.287 34.2821 532.315 34.3075C533.364 34.3328 534.414 34.3579 535.463 34.3825C536.106 34.3977 536.75 34.4133 537.393 34.4293C539.015 34.4683 540.634 34.489 542.256 34.4768C543.714 34.4897 545.171 34.6219 546.625 34.7394C547.923 34.8293 549.15 34.8248 550.443 34.6635C552.076 34.481 553.685 34.4318 555.326 34.4362C555.75 34.4357 555.75 34.4357 556.183 34.4352C556.776 34.435 557.368 34.4356 557.961 34.4371C558.862 34.439 559.762 34.4371 560.663 34.4348C561.243 34.4351 561.823 34.4355 562.402 34.4362C562.668 34.4355 562.934 34.4348 563.207 34.4341C564.458 34.4395 565.663 34.4976 566.903 34.6827C568.176 34.844 568.6 34.6318 569.745 34.1323C570.821 34.2295 570.821 34.2295 572.063 34.4609C575.819 35.07 579.579 34.7236 583.347 34.3541C583.917 34.2985 583.917 34.2985 584.498 34.2418C584.819 34.2043 585.141 34.1669 585.472 34.1282C586.298 34.1323 586.298 34.1323 586.923 34.4795C587.707 34.8759 588.186 34.9102 589.049 34.8893C589.324 34.8855 589.599 34.8816 589.882 34.8777C590.31 34.8665 590.31 34.8665 590.747 34.8551C592.57 34.8145 594.355 34.8299 596.172 35.007C599.627 35.3147 603.098 35.2029 606.563 35.1764C609.956 35.1528 613.304 35.1862 616.688 35.4639C618.15 35.5605 619.58 35.5096 621.039 35.4026C621.422 35.3796 621.422 35.3796 621.813 35.3561C622.982 35.2809 624.123 35.1709 625.283 34.9933C627.531 34.6792 629.822 34.8318 632.084 34.8777C634.169 34.8991 636.183 34.78 638.249 34.4828C641.088 34.1044 643.876 34.0471 646.734 34.0762C647.236 34.0784 647.738 34.0803 648.24 34.0817C649.544 34.0863 650.848 34.0949 652.152 34.1046C654.243 34.1199 656.335 34.1303 658.427 34.1383C659.148 34.1418 659.869 34.1478 660.59 34.1541C665.051 34.2901 665.051 34.2901 669.395 33.4315C669.688 33.4893 669.982 33.5471 670.284 33.6067C671.366 33.7795 672.229 33.6699 673.304 33.5141C674.478 33.3804 675.643 33.4252 676.823 33.4534C678.59 33.4757 680.161 33.4045 681.875 32.9113C684.352 32.3237 686.937 32.2611 689.438 32.6601C690.386 32.7423 691.263 32.6606 692.209 32.5636C694.909 32.324 697.588 32.3824 700.294 32.4555C700.669 32.4605 701.044 32.4654 701.431 32.4706C701.764 32.4783 702.098 32.486 702.441 32.494C703.543 32.4299 703.543 32.4299 704.67 31.8546C706.58 31.046 708.54 31.2058 710.566 31.2386C711.196 31.2421 711.196 31.2421 711.839 31.2456C712.949 31.2524 714.058 31.2636 715.167 31.2772C716.735 31.2956 718.303 31.3067 719.871 31.3172C720.705 31.3231 721.538 31.3312 722.372 31.3417C722.747 31.3451 723.123 31.3485 723.51 31.3521C723.841 31.356 724.172 31.36 724.513 31.364C725.387 31.368 725.387 31.368 726.337 30.9785C726.918 30.977 727.499 30.9983 728.079 31.0333C728.594 31.0611 728.594 31.0611 729.119 31.0894C729.838 31.1319 730.556 31.1748 731.274 31.2181C732.814 31.3006 734.29 31.3711 735.82 31.1428C736.931 30.9785 736.931 30.9785 737.593 31.329C738.734 31.354 739.87 31.3278 741.011 31.3071C742.228 31.329 742.228 31.329 743.278 31.4905C745.082 31.7594 746.885 31.8221 748.704 31.8984C749.072 31.9165 749.44 31.9345 749.818 31.9531C750.175 31.9685 750.531 31.9839 750.899 31.9997C751.22 32.014 751.542 32.0283 751.873 32.043C752.882 32.029 753.816 31.8662 754.808 31.6794C755.598 31.7341 755.598 31.7341 756.36 31.8546C757.951 32.0612 759.4 31.9338 760.983 31.6999C761.76 31.6794 761.76 31.6794 762.754 32.3802C763.728 32.4519 763.728 32.4519 764.781 32.4021C765.43 32.3832 766.078 32.3731 766.726 32.3802C766.89 32.5537 766.89 32.5537 767.057 32.7306C767.553 32.7868 768.05 32.8279 768.547 32.8621C770.007 33.0005 771.244 33.3442 772.618 33.8654C774.847 34.6809 777.06 34.9333 779.406 35.0631C780.307 35.1846 780.829 35.4481 781.624 35.8844C782.385 36.0072 783.134 36.0596 783.901 36.1144C784.604 36.2349 784.604 36.2349 785.597 36.9357C787.792 37.8538 789.93 38.0507 792.26 38.1184C794.531 38.1946 796.401 38.4296 798.177 40.0895C798.839 41.1408 798.839 41.1408 798.785 41.8102C798.735 42.059 798.684 42.3079 798.632 42.5644C798.374 44.4979 798.876 46.1414 799.833 47.7988C800.16 47.9145 800.488 48.0301 800.826 48.1492C801.488 49.2005 801.488 49.2005 801.798 50.3613C802.134 51.5961 802.587 52.619 803.143 53.756C803.561 53.7533 803.561 53.7533 803.987 53.7504C805.041 53.7444 806.096 53.74 807.15 53.7368C807.602 53.735 808.055 53.7326 808.507 53.7296C811.482 53.7099 814.416 53.8096 817.379 54.1064C817.597 55.2628 817.816 56.4192 818.041 57.6107C818.389 57.6323 818.737 57.654 819.096 57.6764C820.601 58.0159 821.011 58.5124 822.014 59.7132C822.314 59.9372 822.615 60.1613 822.924 60.3921C823.669 61.1149 823.669 61.1149 824 62.0785C824 63.6038 823.576 64.623 823.007 66.0208C822.772 66.038 822.536 66.0551 822.294 66.0728C821.99 66.099 821.686 66.1252 821.372 66.1522C820.917 66.1888 820.917 66.1888 820.453 66.2261C820.203 66.274 819.953 66.3219 819.696 66.3712C819.587 66.6025 819.478 66.8338 819.365 67.0721C819.584 67.0721 819.802 67.0721 820.027 67.0721C820.354 68.455 820.346 69.621 820.213 71.0362C820.18 71.4107 820.146 71.7852 820.111 72.171C820.084 72.4542 820.056 72.7374 820.027 73.0293C821.174 73.3762 821.174 73.3762 822.345 73.7301C822.614 74.869 822.614 74.869 822.676 76.1831C821.91 77.0372 821.91 77.0372 821.02 77.5848C820.802 77.5848 820.583 77.5848 820.358 77.5848C820.54 78.7869 820.54 78.7869 821.02 80.0377C821.981 80.648 821.981 80.648 823.007 81.089C823.648 81.746 823.648 81.746 824 82.4907C823.963 84.0188 823.364 84.9448 822.345 85.9949C821.269 86.2796 821.269 86.2796 820.358 86.3453C820.604 86.4826 820.85 86.62 821.103 86.7614C822.095 87.4534 822.692 88.0963 823.338 89.1487C823.229 89.4956 823.119 89.8425 823.007 90.2C821.587 90.3156 820.166 90.4312 818.703 90.5504C818.703 90.8973 818.703 91.2442 818.703 91.6017C818.922 91.6017 819.14 91.6017 819.365 91.6017C819.192 92.5698 818.998 93.468 818.703 94.405C817.931 94.405 817.158 94.405 816.386 94.405C816.549 95.4458 816.549 95.4458 816.717 96.5076C817.918 96.6232 819.12 96.7389 820.358 96.858C820.027 98.6101 820.027 98.6101 819.469 99.0481C818.559 99.3605 817.664 99.5247 816.717 99.6614C816.717 100.008 816.717 100.355 816.717 100.713C816.93 100.789 817.143 100.866 817.362 100.945C818.041 101.413 818.041 101.413 818.254 102.276C818.273 102.613 818.291 102.95 818.31 103.297C818.344 103.8 818.344 103.8 818.378 104.313C818.369 105.682 818.305 106.39 817.379 107.371C817.706 107.486 818.034 107.602 818.372 107.721C818.372 107.952 818.372 108.184 818.372 108.422C817.553 108.595 817.553 108.595 816.717 108.772C816.717 109.004 816.717 109.235 816.717 109.473C816.28 109.704 815.843 109.936 815.392 110.174C815.829 110.405 816.266 110.637 816.717 110.875C816.607 111.337 816.498 111.8 816.386 112.277C814.091 112.508 811.797 112.739 809.433 112.977C809.324 113.787 809.215 114.596 809.102 115.43C809.43 115.546 809.758 115.662 810.095 115.781C809.416 116.141 808.738 116.498 808.047 116.832C807.39 117.137 807.39 117.137 807.116 117.883C807.391 117.905 807.666 117.926 807.95 117.948C808.31 117.977 808.669 118.006 809.04 118.037C809.397 118.065 809.755 118.094 810.123 118.123C811.089 118.234 811.089 118.234 812.082 118.584C812.082 118.815 812.082 119.047 812.082 119.285C811.234 120.09 810.93 120.336 809.764 120.336C809.73 120.546 809.696 120.756 809.661 120.971C809.404 121.837 809.079 122.201 808.44 122.789C808.659 122.905 808.877 123.021 809.102 123.14C808.993 123.487 808.884 123.834 808.771 124.191C808.116 124.191 807.46 124.191 806.785 124.191C807.654 124.805 808.535 125.378 809.433 125.943C809.215 126.406 808.996 126.868 808.771 127.345C808.448 127.341 808.125 127.337 807.792 127.332C807.16 127.328 807.16 127.328 806.516 127.323C805.888 127.317 805.888 127.317 805.247 127.311C804.138 127.288 804.138 127.288 803.143 127.695C803.129 127.955 803.116 128.216 803.102 128.484C802.697 129.831 801.941 130.136 800.826 130.849C800.716 131.08 800.607 131.312 800.495 131.55C801.041 131.55 801.587 131.55 802.15 131.55C802.314 132.244 802.314 132.244 802.481 132.952C802.044 133.183 801.607 133.414 801.157 133.652C801.321 133.804 801.484 133.956 801.653 134.112C802.15 134.704 802.15 134.704 802.15 135.755C800.771 136.463 799.692 136.456 798.177 136.456C797.239 136.77 797.239 136.77 796.522 137.157C796.631 137.388 796.74 137.619 796.853 137.857C796.634 137.973 796.416 138.089 796.191 138.208C797.876 138.599 799.515 138.926 801.24 139.04C802.782 139.177 803.607 139.632 804.798 140.661C804.467 141.712 804.467 141.712 803.474 142.413C803.693 142.644 803.911 142.875 804.136 143.114C804.012 143.858 804.012 143.858 803.805 144.515C803.164 144.384 803.164 144.384 802.481 144.165C802.372 143.934 802.263 143.702 802.15 143.464C801.931 143.464 801.713 143.464 801.488 143.464C801.269 143.927 801.051 144.389 800.826 144.866C801.483 144.934 802.14 145.003 802.798 145.071C803.474 145.216 803.474 145.216 804.467 145.917C804.467 146.264 804.467 146.611 804.467 146.968C804.713 147.062 804.959 147.156 805.212 147.253C806.078 147.649 806.719 148.093 807.447 148.721C807.283 149.588 807.283 149.588 807.116 150.473C807.99 150.935 808.864 151.398 809.764 151.874C809.631 152.221 809.631 152.221 809.495 152.575C809.017 153.854 808.563 155.141 808.109 156.43C805.741 156.848 803.448 156.917 801.157 156.058C798.744 155.26 796.69 155.626 794.441 156.756C793.819 157.094 793.819 157.094 793.542 157.832C795.29 158.178 797.038 158.525 798.839 158.883C798.839 159.114 798.839 159.345 798.839 159.584C798.512 159.699 798.184 159.815 797.846 159.934C797.287 160.511 796.736 161.095 796.191 161.686C795.108 162.45 794.795 162.516 793.542 162.387C793.337 162.271 793.132 162.155 792.921 162.035C792.119 161.637 791.594 161.605 790.713 161.618C790.433 161.62 790.154 161.622 789.866 161.625C789.577 161.63 789.288 161.636 788.99 161.642C788.549 161.647 788.549 161.647 788.099 161.652C787.375 161.66 786.652 161.672 785.928 161.686C787.177 162.147 788.395 162.521 789.694 162.781C789.983 162.84 790.272 162.899 790.571 162.959C790.786 163.002 791.002 163.044 791.225 163.088C791.116 163.435 791.006 163.782 790.894 164.139C790.125 164.386 789.352 164.62 788.576 164.84C788.467 165.071 788.358 165.303 788.245 165.541C787.426 165.194 787.426 165.194 786.59 164.84C786.262 165.303 785.935 165.765 785.597 166.242C785.051 166.126 784.504 166.01 783.942 165.891C783.569 164.577 783.569 164.577 783.942 163.789C782.533 163.954 781.892 164.828 780.962 165.891C780.798 166.065 780.798 166.065 780.631 166.242C782.276 166.463 783.921 166.668 785.571 166.844C786.26 166.943 786.912 167.101 787.583 167.293C787.583 167.524 787.583 167.756 787.583 167.994C781.245 168.835 781.245 168.835 778.457 168.448C776.745 168.227 774.992 168.115 773.348 168.695C773.348 168.463 773.348 168.232 773.348 167.994C773.129 168.109 772.911 168.225 772.686 168.344C772.054 168.333 771.423 168.321 770.792 168.307C769.989 168.347 769.302 168.518 768.527 168.738C766.751 169.198 765.472 168.723 763.85 167.884C763.471 167.765 763.471 167.765 763.085 167.643C762.409 168.121 762.409 168.121 761.76 168.695C760.912 168.848 760.912 168.848 760.105 168.695C759.957 168.463 759.808 168.231 759.655 167.993C759.174 167.223 759.174 167.223 758.391 167.134C758.119 167.141 757.847 167.148 757.567 167.156C757.271 167.161 756.976 167.165 756.671 167.17C756.364 167.182 756.056 167.193 755.739 167.205C755.428 167.212 755.117 167.218 754.796 167.225C754.027 167.241 753.259 167.264 752.491 167.293C752.34 166.597 752.189 165.901 752.038 165.205C751.835 164.392 751.835 164.392 751.167 163.438C750.948 163.438 750.73 163.438 750.504 163.438C750.395 163.67 750.286 163.901 750.173 164.139C749.955 164.139 749.736 164.139 749.511 164.139C749.511 164.486 749.511 164.833 749.511 165.19C750.057 165.19 750.604 165.19 751.167 165.19C751.057 166.116 750.948 167.041 750.836 167.994C751.6 167.994 752.365 167.994 753.153 167.994C753.153 168.341 753.153 168.688 753.153 169.045C753.972 169.392 753.972 169.392 754.808 169.746C754.699 169.977 754.59 170.208 754.477 170.447C754.259 170.447 754.04 170.447 753.815 170.447C754.034 170.909 754.252 171.372 754.477 171.848C754.146 172.199 754.146 172.199 752.884 172.243C747.523 172.17 747.523 172.17 745.87 171.148C745.979 170.801 746.088 170.454 746.201 170.096C747.215 169.68 747.215 169.68 748.187 169.395C748.187 169.627 748.187 169.858 748.187 170.096C748.406 170.212 748.624 170.328 748.849 170.447C748.849 169.869 748.849 169.29 748.849 168.695C748.583 168.702 748.317 168.709 748.042 168.717C747.194 168.695 747.194 168.695 746.863 168.344C746.261 168.314 745.658 168.307 745.055 168.31C744.687 168.311 744.319 168.312 743.94 168.313C743.553 168.316 743.165 168.319 742.766 168.322C742.381 168.324 741.996 168.325 741.599 168.327C740.884 168.33 740.169 168.334 739.453 168.339C738.833 168.343 738.213 168.344 737.593 168.344C737.812 168.922 738.03 169.501 738.255 170.096C739.566 170.212 740.877 170.328 742.228 170.447C742.228 170.794 742.228 171.141 742.228 171.498C742.064 171.671 742.064 171.671 741.897 171.848C741.385 171.807 740.875 171.745 740.366 171.673C738.93 171.499 737.699 171.601 736.269 171.848C735.941 171.733 735.613 171.617 735.276 171.498C735.276 171.151 735.276 170.804 735.276 170.447C736.095 170.1 736.095 170.1 736.931 169.746C736.385 169.746 735.838 169.746 735.276 169.746C735.112 169.226 735.112 169.226 734.945 168.695C735.163 168.463 735.382 168.232 735.607 167.994C735.607 168.225 735.607 168.456 735.607 168.695C735.934 168.463 736.262 168.232 736.6 167.994C735.781 167.647 735.781 167.647 734.945 167.293C734.614 167.647 734.614 167.647 734.276 168.007C731.813 170.421 731.813 170.421 730.25 170.5C729.352 170.314 728.519 170.085 727.661 169.746C727.661 170.093 727.661 170.44 727.661 170.797C726.668 171.498 726.668 171.498 725.675 171.389C724.682 171.148 724.682 171.148 723.689 170.797C723.134 171.064 722.579 171.332 722.025 171.602C720.889 172.03 719.805 171.925 718.619 171.827C718.264 171.812 718.264 171.812 717.902 171.797C717.216 171.749 717.216 171.749 716.074 171.498C715.584 170.777 715.584 170.777 715.412 170.096C715.238 170.151 715.065 170.206 714.886 170.262C712.682 170.848 710.692 170.78 708.453 170.545C707.03 170.412 706.104 170.502 704.818 171.148C703.936 171.32 703.064 171.402 702.17 171.498C703.164 171.849 704.115 172.029 705.149 172.199C705.149 172.546 705.149 172.893 705.149 173.25C704.869 173.293 704.589 173.335 704.301 173.379C703.925 173.438 703.55 173.496 703.163 173.557C702.794 173.614 702.425 173.671 702.045 173.729C700.826 173.933 700.826 173.933 699.584 174.326C698.008 174.758 696.484 174.703 694.866 174.652C692.837 174.587 691.188 174.662 689.258 175.353C688.093 175.594 687.512 175.508 686.497 174.853C684.426 173.235 684.426 173.235 683.999 172.161C683.986 171.942 683.974 171.723 683.961 171.498C684.18 171.267 684.398 171.035 684.623 170.797C684.037 170.815 684.037 170.815 683.439 170.834C682.923 170.844 682.408 170.854 681.892 170.863C681.506 170.876 681.506 170.876 681.112 170.89C679.603 170.91 678.838 170.844 677.671 169.746C676.645 169.859 676.645 169.859 675.685 170.096C675.466 169.981 675.248 169.865 675.023 169.746C673.878 169.659 673.024 169.75 671.919 170.096C668.351 171.099 664.135 170.431 660.487 170.19C658.82 170.089 658.82 170.089 657.17 170.306C656.483 170.447 656.483 170.447 655.49 169.746C654.719 169.617 653.947 169.5 653.173 169.395C652.954 169.28 652.736 169.164 652.51 169.045C650.769 168.903 649.712 169.164 648.207 170.096C648.097 169.749 647.988 169.402 647.876 169.045C647.076 168.987 647.076 168.987 646.22 169.045C646.002 169.276 645.783 169.508 645.558 169.746C643.679 170.037 641.838 169.639 640.017 169.164C639.21 169.036 638.709 169.111 637.944 169.395C637.834 169.511 637.725 169.627 637.613 169.746C637.006 169.781 636.398 169.792 635.791 169.792C635.415 169.793 635.04 169.793 634.653 169.794C634.059 169.792 634.059 169.792 633.454 169.79C632.873 169.792 632.873 169.792 632.281 169.794C629.084 169.79 629.084 169.79 627.566 169.568C626.276 169.384 625.05 169.374 623.75 169.395C621.322 169.419 618.986 169.256 616.59 168.848C614.706 168.599 612.854 168.553 610.983 168.914C610.135 169.045 610.135 169.045 609.141 168.344C609.141 168.113 609.141 167.882 609.141 167.643C608.686 168.095 608.245 168.564 607.817 169.045C607.817 169.276 607.817 169.508 607.817 169.746C608.193 169.84 608.568 169.934 608.955 170.031C609.344 170.168 609.734 170.305 610.135 170.447C610.244 170.794 610.353 171.141 610.466 171.498C609.086 171.508 607.707 171.514 606.327 171.52C605.745 171.524 605.745 171.524 605.151 171.529C600.994 171.541 600.994 171.541 599.21 171.148C598.991 170.801 598.773 170.454 598.547 170.096C598.875 169.749 599.203 169.402 599.541 169.045C599.242 168.977 598.942 168.91 598.634 168.84C598.048 168.703 598.048 168.703 597.451 168.563C597.063 168.474 596.675 168.384 596.275 168.292C595.237 167.994 595.237 167.994 594.244 167.293C593.322 167.405 592.484 167.675 591.593 167.945C591.252 168.048 590.911 168.15 590.561 168.257C590.218 168.363 589.876 168.47 589.523 168.58C589.224 168.618 588.924 168.656 588.616 168.695C588.032 168.19 588.032 168.19 587.622 167.643C587.024 167.75 587.024 167.75 586.298 167.994C585.895 167.979 585.492 167.965 585.077 167.95C583.486 167.918 582.139 168.44 580.67 169.045C580.998 169.161 581.326 169.276 581.663 169.395C581.773 169.974 581.882 170.552 581.994 171.148C580.851 172.267 579.966 172.358 578.433 172.427C578.216 172.438 577.998 172.448 577.774 172.458C577.07 172.488 576.367 172.509 575.663 172.527C575.424 172.535 575.186 172.543 574.94 172.551C570.933 172.67 567 172.519 563.283 170.751C562.2 170.35 561.29 170.393 560.144 170.425C557.579 170.474 555.035 170.355 552.474 170.19C552.19 170.173 551.905 170.156 551.612 170.139C551.231 170.114 551.231 170.114 550.842 170.089C550.183 170.048 550.183 170.048 549.55 170.447C549.987 170.678 550.424 170.909 550.875 171.148C550.875 171.379 550.875 171.61 550.875 171.848C549.333 172.142 548.103 172.205 546.571 171.848C546.789 171.155 547.008 170.461 547.233 169.746C546.796 169.63 546.359 169.515 545.909 169.395C545.909 168.933 545.909 168.47 545.909 167.994C543.942 167.675 543.942 167.675 541.977 167.84C540.923 167.997 540.279 167.89 539.246 167.665C537.561 167.302 535.992 167.255 534.278 167.293C533.161 167.293 532.092 167.164 530.99 166.985C530.346 166.903 530.346 166.903 529.739 167.136C528.891 167.322 528.378 167.192 527.541 166.966C525.561 166.508 523.657 166.526 521.638 166.57C520.943 166.582 520.247 166.593 519.552 166.602C519.249 166.608 518.946 166.614 518.633 166.621C517.769 166.592 517.769 166.592 516.871 166.394C516.107 166.156 516.107 166.156 515.451 166.592C514.91 166.602 514.369 166.588 513.828 166.562C513.345 166.539 513.345 166.539 512.853 166.515C512.515 166.497 512.178 166.479 511.83 166.461C511.326 166.438 511.326 166.438 510.812 166.414C508.297 166.287 508.297 166.287 507.175 165.891C506.934 165.998 506.692 166.105 506.444 166.216C505.271 166.693 504.211 166.681 502.974 166.658C502.711 166.656 502.448 166.654 502.177 166.653C500.287 166.632 498.399 166.563 496.51 166.487C488.708 166.06 488.708 166.06 481.021 167.293C481.021 167.062 481.021 166.83 481.021 166.592C479.669 166.572 478.317 166.559 476.965 166.548C476.582 166.542 476.198 166.537 475.803 166.531C475.434 166.528 475.064 166.526 474.684 166.524C474.344 166.52 474.005 166.516 473.654 166.513C472.723 166.594 472.224 166.817 471.42 167.293C470.679 167.446 469.933 167.576 469.185 167.687C468.798 167.746 468.41 167.805 468.011 167.865C467.716 167.908 467.421 167.95 467.116 167.994C467.335 168.109 467.553 168.225 467.778 168.344C467.669 168.691 467.56 169.038 467.447 169.395C467.18 169.417 466.912 169.438 466.637 169.46C466.106 169.504 466.106 169.504 465.564 169.549C465.215 169.577 464.865 169.606 464.505 169.635C463.587 169.734 462.72 169.887 461.819 170.096C459.403 170.653 457.036 170.912 454.57 171.028C453.529 171.078 452.522 171.152 451.489 171.31C448.087 171.818 444.782 171.86 441.356 171.673C437.43 171.492 433.672 171.562 429.768 172.046C427.806 172.278 425.83 172.216 423.858 172.186C423.159 172.178 422.46 172.187 421.761 172.199C421.652 172.315 421.542 172.43 421.43 172.549C420.672 172.584 419.913 172.595 419.154 172.593C418.738 172.594 418.323 172.595 417.894 172.596C416.795 172.549 416.795 172.549 415.802 172.199C414.619 172.076 413.431 172.035 412.243 171.98C411.919 171.962 411.596 171.944 411.263 171.925C409.875 171.858 408.561 171.8 407.189 172.059C406.201 172.199 406.201 172.199 405.208 171.498C404.257 171.374 404.257 171.374 403.176 171.365C402.773 171.353 402.37 171.341 401.955 171.329C401.533 171.32 401.111 171.31 400.677 171.301C393.561 171.119 393.561 171.119 391.965 169.746C391.148 169.544 391.148 169.544 390.269 169.505C389.952 169.482 389.635 169.46 389.308 169.437C387.875 169.377 386.447 169.366 385.013 169.395C384.904 169.049 384.795 168.702 384.682 168.344C384.268 168.601 384.268 168.601 383.845 168.863C382.533 169.471 381.618 169.525 380.192 169.505C379.768 169.504 379.345 169.502 378.908 169.501C377.805 169.402 377.047 169.244 376.075 168.695C375.806 167.95 375.806 167.95 375.743 167.293C375.423 167.409 375.102 167.524 374.771 167.643C373.328 168.088 371.938 168.058 370.447 167.994C370.447 167.647 370.447 167.3 370.447 166.943C370.774 166.711 371.102 166.48 371.44 166.242C370.999 166.35 370.999 166.35 370.55 166.461C368.932 166.72 367.4 166.34 365.808 166.023C364.883 165.9 364.346 165.865 363.494 166.242C363.31 166.524 363.126 166.805 362.936 167.096C361.863 168.354 360.764 168.591 359.19 168.695C358.177 168.388 358.177 168.388 357.535 167.994C357.535 167.647 357.535 167.3 357.535 166.943C357.754 166.943 357.972 166.943 358.197 166.943C358.197 166.711 358.197 166.48 358.197 166.242C358.416 166.242 358.634 166.242 358.859 166.242C358.652 165.357 358.652 165.357 358.197 164.49C357.354 164.176 357.354 164.176 356.542 164.139C356.433 164.717 356.323 165.296 356.211 165.891C354.577 166.209 353.197 166.329 351.576 165.891C351.355 165.424 351.135 164.957 350.914 164.49C349.104 164.011 346.323 163.59 344.624 164.49C344.408 165.199 344.408 165.199 344.293 165.891C342.169 166.196 340.118 166.263 337.975 166.22C337.043 166.201 337.043 166.201 336.302 166.439C335.535 166.629 335.118 166.462 334.361 166.242C333.617 166.165 332.872 166.1 332.126 166.045C331.739 166.015 331.351 165.986 330.952 165.956C330.657 165.934 330.361 165.913 330.057 165.891C330.057 166.123 330.057 166.354 330.057 166.592C330.385 166.476 330.713 166.361 331.05 166.242C331.112 167.074 331.112 167.074 331.05 167.994C329.948 168.771 329.831 168.756 328.609 168.541C327.457 168.37 326.556 168.346 325.422 168.695C325.204 168.232 324.985 167.77 324.76 167.293C325.091 166.943 325.091 166.943 325.775 166.908C326.184 166.914 326.184 166.914 326.602 166.921C326.875 166.924 327.149 166.927 327.431 166.93C327.642 166.934 327.853 166.938 328.071 166.943C328.071 166.596 328.071 166.249 328.071 165.891C327.771 165.941 327.771 165.941 327.465 165.993C327.201 166.031 326.936 166.07 326.664 166.11C326.272 166.171 326.272 166.171 325.872 166.233C324.985 166.243 324.519 166.019 323.767 165.541C323.439 165.772 323.111 166.003 322.774 166.242C323.32 166.473 323.866 166.704 324.429 166.943C324.429 167.174 324.429 167.405 324.429 167.643C322.31 168.075 322.31 168.075 321.305 167.665C321.134 167.542 320.963 167.42 320.787 167.293C321.224 167.177 321.661 167.062 322.112 166.943C322.112 166.596 322.112 166.249 322.112 165.891C321.456 166.007 320.801 166.123 320.125 166.242C320.234 166.589 320.344 166.936 320.456 167.293C319.877 167.84 319.877 167.84 319.132 168.344C318.387 168.235 318.387 168.235 317.808 167.994C317.808 167.763 317.808 167.531 317.808 167.293C314.694 167.466 314.694 167.466 311.518 167.643C311.518 167.99 311.518 168.337 311.518 168.695C311.115 168.68 310.712 168.666 310.297 168.651C309.412 168.648 308.908 168.677 308.083 169.045C306.721 169.594 305.344 169.449 303.903 169.395C303.572 168.344 303.572 168.344 303.903 167.293C303.685 167.524 303.466 167.756 303.241 167.994C303.241 168.109 303.241 168.225 303.241 168.344C302.803 168.338 302.803 168.338 302.355 168.332C298.315 168.223 298.315 168.223 294.341 168.875C293.62 169.05 293.004 169.08 292.266 169.067C292.009 169.064 291.751 169.062 291.487 169.059C290.951 169.05 290.416 169.041 289.88 169.031C288.537 169.017 287.345 169.089 286.026 169.395C285.917 169.28 285.807 169.164 285.695 169.045C285.028 168.969 284.358 168.915 283.688 168.87C283.27 168.841 282.852 168.812 282.422 168.782C281.504 168.722 280.586 168.665 279.667 168.607C279.207 168.578 278.747 168.549 278.287 168.519C277.948 168.499 277.948 168.499 277.602 168.477C276.497 168.406 275.409 168.307 274.315 168.125C273.019 167.983 271.878 168.09 270.592 168.258C269.804 168.344 269.804 168.344 268.604 168.3C267.582 168.34 267.112 168.465 266.204 168.87C264.926 169.435 263.854 169.474 262.482 169.398C261.828 169.346 261.828 169.346 261.196 169.746C260.752 169.774 260.306 169.78 259.861 169.775C259.585 169.772 259.31 169.77 259.027 169.768C258.729 169.764 258.432 169.76 258.125 169.755C257.498 169.751 256.871 169.747 256.244 169.742C255.253 169.734 254.262 169.724 253.271 169.712C252.316 169.702 251.362 169.695 250.407 169.69C249.962 169.683 249.962 169.683 249.507 169.676C249.093 169.674 249.093 169.674 248.67 169.672C248.306 169.668 248.306 169.668 247.935 169.664C247.184 169.708 247.184 169.708 246.299 170.447C245.652 170.451 245.652 170.451 244.892 170.337C243.003 170.085 241.119 169.979 239.218 169.879C238.022 169.746 238.022 169.746 236.863 169.374C235.571 169.007 234.609 169.052 233.284 169.198C231.132 169.428 231.132 169.428 230.408 169.045C229.398 169.006 228.397 168.988 227.387 168.986C227.08 168.985 226.773 168.983 226.457 168.982C225.457 168.979 224.456 168.979 223.455 168.979C223.118 168.979 222.78 168.979 222.432 168.978C218.061 168.977 213.734 169.057 209.382 169.527C206.77 169.808 204.683 169.649 202.412 168.125C201.568 167.529 201.568 167.529 200.281 167.643C200.281 167.875 200.281 168.106 200.281 168.344C198.368 168.427 196.801 168.298 194.984 167.643C195.203 167.181 195.421 166.718 195.646 166.242C195.343 166.233 195.04 166.224 194.728 166.214C194.335 166.194 193.941 166.175 193.536 166.154C193.144 166.138 192.752 166.122 192.349 166.105C191.343 165.891 191.343 165.891 190.874 165.174C190.81 164.948 190.746 164.722 190.68 164.49C190.209 164.576 190.209 164.576 189.727 164.663C188.176 164.898 186.637 164.878 185.073 164.862C184.784 164.86 184.494 164.859 184.196 164.857C183.488 164.853 182.78 164.847 182.073 164.84C182.141 165.23 182.209 165.621 182.28 166.023C182.321 166.442 182.362 166.861 182.404 167.293C181.593 168.151 181.212 168.185 180.086 168.344C179.314 168.344 178.542 168.344 177.769 168.344C177.245 168.399 176.72 168.458 176.197 168.519C173.757 168.763 171.319 168.72 168.872 168.695C167.962 168.685 167.053 168.678 166.143 168.673C165.546 168.667 165.546 168.667 164.937 168.66C163.887 168.659 163.887 168.659 162.971 168.9C161.764 169.13 160.955 168.567 159.892 167.994C159.673 167.763 159.455 167.531 159.23 167.293C159.354 166.198 159.354 166.198 159.561 165.19C159.124 165.306 158.687 165.422 158.236 165.541C158.127 166.119 158.018 166.697 157.905 167.293C157.66 167.336 157.414 167.38 157.161 167.424C156.272 167.59 156.272 167.59 155.64 168.004C154.768 168.419 154.142 168.419 153.189 168.4C152.857 168.396 152.525 168.393 152.184 168.389C151.839 168.381 151.494 168.374 151.139 168.366C150.457 168.354 149.775 168.343 149.092 168.335C148.79 168.328 148.488 168.322 148.177 168.316C147.3 168.345 146.512 168.497 145.656 168.695C144.912 168.716 144.176 168.695 143.432 168.673C142.675 168.668 142.675 168.668 141.95 168.871C140.603 169.123 139.281 169.051 137.918 169.023C135.348 168.991 132.917 169.178 130.385 169.627C129.434 169.746 129.434 169.746 128.441 169.395C127.998 169.364 127.554 169.35 127.11 169.349C126.854 169.348 126.597 169.348 126.332 169.348C126.065 169.349 125.799 169.35 125.524 169.352C125.26 169.35 124.997 169.349 124.726 169.348C123.273 169.35 121.93 169.482 120.496 169.746C119.771 169.761 119.047 169.76 118.323 169.746C116.853 169.714 116.853 169.714 115.403 169.921C114.534 170.097 113.761 170.131 112.877 170.118C112.572 170.116 112.267 170.113 111.952 170.11C111.48 170.103 111.48 170.103 110.998 170.096C110.369 170.087 109.74 170.08 109.111 170.074C108.696 170.068 108.696 170.068 108.271 170.062C107.563 170.048 107.563 170.048 106.922 170.447C106.308 170.501 105.692 170.534 105.077 170.558C104.701 170.572 104.325 170.587 103.938 170.603C100.686 170.713 100.686 170.713 99.0605 170.762C98.2012 170.79 97.3432 170.826 96.4846 170.868C92.9991 170.981 89.1888 170.436 86.0652 168.695C85.6338 168.572 85.1989 168.462 84.7616 168.366C83.6053 168.079 82.7696 167.617 81.7614 166.943C81.461 166.849 81.1605 166.755 80.851 166.658C78.6589 165.81 76.7851 164.444 75.4712 162.387C75.1963 161.535 74.9495 160.672 74.7264 159.803C74.065 157.433 73.1465 156.014 71.1674 154.678C71.3211 154.396 71.3211 154.396 71.4778 154.108C71.8929 153.126 72.0198 152.238 72.1606 151.174C72.3342 149.861 72.5254 148.822 73.1538 147.669C72.9353 147.438 72.7168 147.207 72.4917 146.968C72.5124 146.136 72.5124 146.136 72.8228 145.216C73.6711 144.406 73.6711 144.406 74.4781 143.815C74.3061 143.666 74.1341 143.517 73.9569 143.364C72.4301 142.005 71.2086 140.722 70.1743 138.909C70.1743 137.507 70.1743 137.507 70.7329 136.828C70.9856 136.59 71.2382 136.351 71.4985 136.105C71.7648 135.787 72.0311 135.469 72.3055 135.142C73.1538 134.353 73.1538 134.353 74.0849 134.244C74.3239 134.28 74.5629 134.316 74.8091 134.353C74.6452 133.833 74.6452 133.833 74.4781 133.302C74.2596 133.186 74.0411 133.071 73.8159 132.952C73.6189 132.235 73.4999 131.517 73.3724 130.783C73.3002 130.574 73.2281 130.364 73.1538 130.148C72.8261 130.033 72.4983 129.917 72.1606 129.798C71.283 128.404 71.2514 127.233 71.4985 125.593C72.1399 124.958 72.1399 124.958 72.8228 124.541C73.0864 123.808 73.0864 123.808 73.1538 123.14C72.8536 123.009 72.8536 123.009 72.5473 122.876C71.7155 122.369 71.4238 121.927 70.9398 121.059C70.7331 120.697 70.7331 120.697 70.5221 120.327C70.1743 119.635 70.1743 119.635 69.8432 118.584C69.9525 118.353 70.0617 118.122 70.1743 117.883C68.3051 117.214 66.4285 116.576 64.5439 115.957C62.9955 115.444 61.453 114.914 59.9114 114.379C59.675 114.299 59.4385 114.218 59.1949 114.135C58.0467 113.736 56.9445 113.345 55.9386 112.627C55.6283 111.401 55.6283 111.401 55.6076 110.174C54.8351 109.24 54.8351 109.24 53.9523 108.422C53.06 107.093 52.6756 105.791 52.297 104.217C52.2219 103.964 52.1468 103.711 52.0694 103.45C51.9411 102.663 52.038 102.161 52.297 101.413C52.6247 101.067 52.6247 101.067 52.9591 100.713C53.295 100.08 53.295 100.08 53.2902 99.311C52.4253 97.8096 51.4651 97.2254 49.9795 96.5076C49.761 96.2763 49.5425 96.045 49.3174 95.8067C49.3174 95.4598 49.3174 95.1129 49.3174 94.7555C49.5359 94.6398 49.7544 94.5242 49.9795 94.405C49.9638 93.7467 49.9638 93.7467 49.6485 93.0033C49.1466 92.6673 49.1466 92.6673 48.6346 92.3244C48.3137 92.0859 47.9928 91.8474 47.6621 91.6017C47.538 90.638 47.538 90.638 47.6621 89.8495C47.8806 89.7339 48.0991 89.6183 48.3242 89.4991C48.215 88.8053 48.1057 88.1114 47.9932 87.3966C48.2117 87.3966 48.4302 87.3966 48.6553 87.3966C48.4436 87.1653 48.232 86.934 48.0139 86.6957C47.1062 85.2983 47 84.5362 47 82.8411C47.5587 82.1402 47.5587 82.1402 48.3242 81.4394C49.2913 79.7653 50.146 78.029 49.8554 76.0298C49.7871 75.7334 49.7188 75.4371 49.6485 75.1318C49.5361 74.4313 49.4253 73.7305 49.3174 73.0293C49.5837 72.8775 49.85 72.7257 50.1244 72.5693C51.0649 72.0464 51.0649 72.0464 51.3038 70.9267C52.6588 70.0262 53.6837 69.6346 55.2765 69.8755C55.8265 70.2179 56.3759 70.5616 56.9176 70.9185C58.9152 71.9778 62.007 72.4309 64.2152 71.978C64.3812 71.8 64.5472 71.622 64.7182 71.4387C64.88 71.2697 65.0417 71.1008 65.2084 70.9267C66.4291 71.0362 66.4291 71.0362 67.5258 71.2771C67.8535 70.7568 67.8535 70.7568 68.1879 70.2259C67.8601 70.1102 67.5324 69.9946 67.1947 69.8755C67.1947 69.5285 67.1947 69.1816 67.1947 68.8242C69.7604 68.43 69.7604 68.43 70.5053 68.8242C70.5053 69.0555 70.5053 69.2867 70.5053 69.525C71.3239 69.4043 71.3239 69.4043 72.1606 69.1746C72.2699 68.9433 72.3791 68.712 72.4917 68.4738C72.6009 68.705 72.7102 68.9363 72.8228 69.1746C73.6595 69.4043 73.6595 69.4043 74.4781 69.525C74.3323 67.1608 74.3323 67.1608 73.7125 64.9038C73.4461 63.7502 73.5709 63.5554 74.1056 62.5604C74.4538 62.0183 74.4538 62.0183 74.8091 61.4653C74.6999 61.3497 74.5906 61.234 74.4781 61.1149C73.9444 58.9997 73.7396 56.9894 73.8159 54.8073C73.1604 54.6338 73.1604 54.6338 72.4917 54.4569C72.4917 54.2256 72.4917 53.9943 72.4917 53.756C72.8194 53.756 73.1472 53.756 73.4849 53.756C73.5584 53.0776 73.6263 52.3985 73.6918 51.7192C73.7494 51.152 73.7494 51.152 73.8082 50.5735C73.9068 49.4822 73.9068 49.4822 73.1538 48.4997C73.2631 48.1527 73.3723 47.8058 73.4849 47.4484C73.7034 47.3328 73.9219 47.2171 74.147 47.098C74.3153 46.3208 74.3153 46.3208 74.3746 45.4116C74.4175 44.9528 74.4175 44.9528 74.4612 44.4849C74.519 43.605 74.519 43.605 74.2737 42.834C74.2319 42.6222 74.1901 42.4103 74.147 42.1921C74.8712 41.316 74.8712 41.316 75.8023 40.4399C76.8069 39.5492 76.8069 39.5492 77.23 38.3155C77.4576 37.6366 77.4576 37.6366 78.5129 37.0671C78.9304 36.8975 79.3518 36.7383 79.775 36.5853C80.0836 36.4647 80.3921 36.3441 80.71 36.2198C81.8125 35.8681 82.8075 35.7303 83.9547 35.6435C84.3208 35.6133 84.687 35.583 85.0642 35.5518C85.9594 35.5359 86.5395 35.6504 87.3894 35.8844C89.7208 35.9866 92.0448 35.9971 94.3417 35.534C94.3417 34.8402 94.3417 34.1464 94.3417 33.4315C103.874 31.4679 103.874 31.4679 105.598 32.3802C106.186 32.3943 106.774 32.3842 107.362 32.3624C107.908 32.3424 107.908 32.3424 108.466 32.322C108.857 32.3051 109.249 32.2882 109.653 32.2707C110.251 32.246 110.251 32.246 110.861 32.2208C113.478 32.1025 116.086 31.9281 118.695 31.6794C119.002 31.6503 119.309 31.6213 119.625 31.5913C121.103 31.4785 121.103 31.4785 122.482 30.9785C123.249 30.9525 124.017 30.9493 124.785 30.9566C125.016 30.958 125.248 30.9593 125.486 30.9607C126.474 30.9663 127.463 30.976 128.451 30.9857C131.226 31.0106 133.953 30.9643 136.72 30.7046C138.587 30.5604 140.455 30.6262 142.324 30.6726C144.139 30.6959 145.744 30.4927 147.513 30.0747C148.748 29.8447 149.918 29.934 151.16 30.0587C151.517 30.0885 151.517 30.0885 151.88 30.1189C152.454 30.1675 153.028 30.222 153.602 30.2777C153.602 30.0464 153.602 29.8151 153.602 29.5768C153.949 29.6911 154.296 29.8054 154.654 29.9232C156.618 30.4417 158.583 30.3661 160.595 30.3434C160.977 30.3432 161.359 30.3429 161.753 30.3427C163.844 30.3382 163.844 30.3382 165.915 30.0783C167.072 29.8903 167.73 30.2323 168.83 30.6281C170.178 30.7497 171.509 30.7342 172.803 30.2777C172.694 30.0464 172.585 29.8151 172.472 29.5768C171.837 29.6744 171.837 29.6744 171.189 29.774C169.906 29.9711 169.906 29.9711 169.161 29.5768C169.271 29.2299 169.38 28.883 169.493 28.5256C170.039 28.5256 170.585 28.5256 171.148 28.5256C171.039 28.1787 170.929 27.8317 170.817 27.4743C172.389 28.1313 172.389 28.1313 173.134 28.5256C173.905 28.6522 174.678 28.7698 175.452 28.876C175.342 29.2229 175.233 29.5698 175.121 29.9273C174.902 30.0429 174.684 30.1585 174.458 30.2777C174.71 30.2989 174.961 30.3201 175.22 30.342C175.549 30.3714 175.878 30.4007 176.217 30.431C176.707 30.4737 176.707 30.4737 177.207 30.5172C178.1 30.6281 178.1 30.6281 179.093 30.9785C179.093 30.7473 179.093 30.516 179.093 30.2777C180.514 30.2777 181.934 30.2777 183.397 30.2777C183.506 29.8151 183.616 29.3526 183.728 28.876C184.059 28.5256 184.059 28.5256 184.662 28.479C186.261 28.4848 187.774 28.6068 189.356 28.876C190.127 28.9649 190.897 29.0479 191.668 29.1279C192.336 29.2264 192.336 29.2264 193.329 29.5768C193.903 29.3247 194.476 29.0705 195.041 28.7966C196.658 28.0725 197.937 28.2233 199.619 28.5256C200.559 28.5384 201.497 28.5257 202.437 28.5037C203.261 28.5256 203.261 28.5256 204.254 28.876C204.936 28.9002 205.62 28.9057 206.302 28.8979C206.662 28.8947 207.022 28.8916 207.393 28.8883C207.668 28.8842 207.943 28.8802 208.227 28.876C208.336 28.6447 208.445 28.4134 208.558 28.1751C208.995 28.1751 209.432 28.1751 209.882 28.1751C209.882 28.4064 209.882 28.6377 209.882 28.876C210.865 28.876 211.848 28.876 212.862 28.876C212.862 28.5291 212.862 28.1822 212.862 27.8247C214.979 25.5838 220.798 26.7414 223.559 27.0472ZM289.006 33.7819C289.115 34.0132 289.224 34.2445 289.337 34.4828C290.479 34.8858 291.44 35.1836 292.647 35.1836C292.647 34.8367 292.647 34.4898 292.647 34.1323C291.431 33.7203 290.274 33.7561 289.006 33.7819ZM293.64 33.7819C293.531 34.0132 293.422 34.2445 293.309 34.4828C294.511 34.4828 295.713 34.4828 296.951 34.4828C296.951 34.2515 296.951 34.0202 296.951 33.7819C295.858 33.7819 294.766 33.7819 293.64 33.7819ZM321.449 35.8844C321.34 36.1157 321.231 36.347 321.118 36.5853C321.446 36.5853 321.774 36.5853 322.112 36.5853C322.112 36.354 322.112 36.1227 322.112 35.8844C321.893 35.8844 321.675 35.8844 321.449 35.8844ZM353.231 36.9357C353.122 37.167 353.013 37.3983 352.9 37.6366C353.228 37.5209 353.556 37.4053 353.893 37.2861C353.675 37.1705 353.456 37.0549 353.231 36.9357ZM807.447 120.336C807.778 121.037 807.778 121.037 807.778 121.037L807.447 120.336ZM345.948 154.327C347.998 155.739 347.998 155.739 350.355 155.948C350.796 155.84 350.796 155.84 351.245 155.729C351.354 155.266 351.463 154.804 351.576 154.327C351.093 154.21 350.611 154.093 350.128 153.977C349.859 153.912 349.59 153.847 349.313 153.78C348.61 153.603 348.61 153.603 347.934 153.626C346.88 153.529 346.88 153.529 345.948 154.327ZM355.549 155.028C355.44 155.375 355.33 155.722 355.218 156.079C355.655 156.195 356.092 156.311 356.542 156.43C356.651 156.083 356.76 155.736 356.873 155.379C356.436 155.263 355.999 155.147 355.549 155.028ZM363.163 155.028C363.163 155.375 363.163 155.722 363.163 156.079C363.382 156.079 363.6 156.079 363.825 156.079C363.825 155.733 363.825 155.386 363.825 155.028C363.607 155.028 363.388 155.028 363.163 155.028ZM351.576 155.729C351.576 155.96 351.576 156.192 351.576 156.43C352.122 156.314 352.669 156.199 353.231 156.079C353.231 155.848 353.231 155.617 353.231 155.379C352.263 155.3 352.263 155.3 351.576 155.729ZM506.844 157.481C506.625 157.712 506.407 157.944 506.181 158.182C507.067 159.082 507.448 159.231 508.706 159.277C509.075 159.263 509.443 159.248 509.823 159.233C510.042 159.349 510.26 159.465 510.485 159.584C512.577 159.886 514.667 159.976 516.775 159.934C516.885 159.587 516.994 159.24 517.107 158.883C517.295 158.937 517.483 158.992 517.677 159.048C519.386 159.504 520.683 159.689 522.403 159.233C522.513 159.002 522.622 158.771 522.735 158.532C521.492 158.111 520.307 158.147 519.01 158.16C518.383 158.165 518.383 158.165 517.743 158.17C517.424 158.174 517.104 158.178 516.775 158.182C516.775 158.413 516.775 158.645 516.775 158.883C516.51 158.807 516.51 158.807 516.24 158.729C514.565 158.288 513.078 158.155 511.357 158.207C510.066 158.17 508.844 157.872 507.589 157.566C507.343 157.538 507.097 157.51 506.844 157.481ZM662.111 157.481C662.111 157.712 662.111 157.944 662.111 158.182C662.439 158.182 662.767 158.182 663.104 158.182C663.104 157.951 663.104 157.719 663.104 157.481C662.777 157.481 662.449 157.481 662.111 157.481ZM368.129 157.832C368.129 158.063 368.129 158.294 368.129 158.532C368.348 158.532 368.566 158.532 368.791 158.532C368.791 158.301 368.791 158.07 368.791 157.832C368.573 157.832 368.354 157.832 368.129 157.832ZM357.204 158.182C357.204 158.298 357.204 158.413 357.204 158.532C357.75 158.532 358.297 158.532 358.859 158.532C358.859 158.417 358.859 158.301 358.859 158.182C358.313 158.182 357.767 158.182 357.204 158.182ZM529.356 158.532C529.356 158.764 529.356 158.995 529.356 159.233C530.011 159.233 530.667 159.233 531.342 159.233C531.342 159.002 531.342 158.771 531.342 158.532C530.333 158.178 530.333 158.178 529.356 158.532ZM537.632 158.182C537.305 158.702 537.305 158.702 536.97 159.233C537.516 159.233 538.063 159.233 538.625 159.233C538.625 159.002 538.625 158.771 538.625 158.532C538.298 158.417 537.97 158.301 537.632 158.182ZM534.322 158.883C534.431 159.114 534.54 159.345 534.653 159.584C534.98 159.584 535.308 159.584 535.646 159.584C535.646 159.352 535.646 159.121 535.646 158.883C535.209 158.883 534.772 158.883 534.322 158.883ZM581.332 159.584C581.223 159.931 581.114 160.277 581.001 160.635C581.329 160.519 581.657 160.404 581.994 160.285C581.776 160.053 581.557 159.822 581.332 159.584ZM570.49 160.416C570.009 160.958 570.009 160.958 570.076 161.686C570.991 161.503 571.839 161.298 572.725 160.985C572.615 160.638 572.506 160.292 572.394 159.934C571.12 159.79 571.12 159.79 570.49 160.416ZM507.175 160.285C507.065 160.631 506.956 160.978 506.844 161.336C507.101 162.078 507.101 162.078 507.692 162.245C508.838 162.447 509.988 162.502 511.147 162.562C513.973 162.709 513.973 162.709 515.12 163.088C515.229 162.741 515.339 162.394 515.451 162.037C514.796 162.037 514.14 162.037 513.465 162.037C513.465 161.805 513.465 161.574 513.465 161.336C512.358 161.31 511.543 161.313 510.485 161.686C509.821 161.222 509.159 160.755 508.499 160.285C508.062 160.285 507.625 160.285 507.175 160.285ZM577.029 160.285C576.701 160.805 576.701 160.805 576.366 161.336C576.913 161.336 577.459 161.336 578.022 161.336C578.022 161.104 578.022 160.873 578.022 160.635C577.694 160.519 577.366 160.404 577.029 160.285ZM591.264 160.635C591.595 161.336 591.595 161.336 591.595 161.336L591.264 160.635ZM762.754 161.336C764.734 161.597 764.734 161.597 766.726 161.686C766.945 161.686 767.163 161.686 767.389 161.686C767.498 161.802 767.607 161.917 767.72 162.037C768.278 162.062 768.837 162.066 769.396 162.059C769.7 162.055 770.004 162.052 770.318 162.049C770.553 162.045 770.788 162.041 771.03 162.037C771.139 161.805 771.249 161.574 771.361 161.336C766.925 160.223 766.925 160.223 762.754 161.336ZM544.254 160.985C544.144 161.217 544.035 161.448 543.922 161.686C544.141 161.686 544.359 161.686 544.585 161.686C544.585 162.033 544.585 162.38 544.585 162.737C545.022 162.853 545.459 162.969 545.909 163.088C545.909 162.857 545.909 162.625 545.909 162.387C545.69 162.271 545.472 162.156 545.247 162.037C545.356 161.805 545.465 161.574 545.578 161.336C545.141 161.22 544.704 161.104 544.254 160.985ZM779.638 161.336C780.271 162.168 780.271 162.168 781.376 162.059C781.786 162.051 782.195 162.044 782.617 162.037C783.282 162.139 783.945 162.251 784.604 162.387C784.604 162.04 784.604 161.693 784.604 161.336C782.94 160.749 781.326 160.903 779.638 161.336ZM530.018 161.336C530.127 161.798 530.236 162.261 530.349 162.737C531.878 162.737 533.408 162.737 534.984 162.737C534.984 162.622 534.984 162.506 534.984 162.387C534.343 162.21 533.701 162.035 533.06 161.861C532.702 161.764 532.345 161.666 531.977 161.566C531.015 161.297 531.015 161.297 530.018 161.336ZM520.748 161.686C520.639 162.149 520.53 162.611 520.417 163.088C520.745 162.972 521.073 162.857 521.41 162.737C522.087 162.918 522.728 163.159 523.385 163.41C523.607 163.419 523.83 163.429 524.059 163.438C524.496 162.976 524.933 162.513 525.383 162.037C523.089 161.863 523.089 161.863 520.748 161.686ZM555.51 162.387C555.51 162.618 555.51 162.85 555.51 163.088C557.367 163.088 559.224 163.088 561.138 163.088C561.028 162.741 560.919 162.394 560.807 162.037C558.832 161.686 557.401 161.663 555.51 162.387ZM528.694 162.037C528.584 162.268 528.475 162.499 528.363 162.737C528.581 162.737 528.8 162.737 529.025 162.737C528.915 162.506 528.806 162.275 528.694 162.037ZM541.419 161.818C541.019 161.854 541.019 161.854 540.611 161.892C540.392 161.939 540.174 161.987 539.95 162.037C539.84 162.268 539.731 162.499 539.619 162.737C540.93 162.853 542.241 162.969 543.591 163.088C543.591 162.625 543.591 162.163 543.591 161.686C542.859 161.686 542.148 161.746 541.419 161.818ZM571.069 162.037C570.96 162.615 570.851 163.193 570.738 163.789C570.848 163.557 570.957 163.326 571.069 163.088C571.404 163.153 571.739 163.218 572.083 163.285C573.38 163.437 574.427 163.336 575.704 163.088C575.305 162.521 575.305 162.521 574.711 162.037C573.972 161.998 573.972 161.998 573.201 162.168C571.79 162.418 571.79 162.418 571.069 162.037ZM548.557 162.387C549.396 163.514 549.396 163.514 550.227 163.464C550.578 163.397 550.578 163.397 550.937 163.329C551.353 163.249 551.77 163.17 552.199 163.088C552.09 162.857 551.98 162.625 551.868 162.387C550.775 162.387 549.683 162.387 548.557 162.387ZM554.185 162.387C554.295 162.734 554.404 163.081 554.516 163.438C554.735 163.438 554.953 163.438 555.178 163.438C555.178 163.091 555.178 162.744 555.178 162.387C554.851 162.387 554.523 162.387 554.185 162.387ZM563.786 162.387C563.786 162.618 563.786 162.85 563.786 163.088C564.005 162.972 564.223 162.857 564.448 162.737C564.23 162.622 564.011 162.506 563.786 162.387ZM578.353 163.088C579.669 163.721 580.882 164.028 582.326 164.139C583.111 163.857 583.111 163.857 583.65 163.438C580.972 162.172 580.972 162.172 578.353 163.088ZM606.162 162.387C606.162 162.618 606.162 162.85 606.162 163.088C605.834 163.204 605.506 163.319 605.169 163.438C605.169 163.67 605.169 163.901 605.169 164.139C604.95 163.908 604.732 163.677 604.507 163.438C603.509 163.575 603.051 163.881 602.189 164.49C603.969 164.787 605.385 164.841 607.155 164.49C607.046 163.796 606.937 163.102 606.824 162.387C606.606 162.387 606.387 162.387 606.162 162.387ZM614.438 162.387C614.548 162.965 614.657 163.543 614.769 164.139C614.469 164.081 614.169 164.024 613.859 163.964C612.075 163.688 610.277 163.761 608.479 163.789C608.589 164.136 608.698 164.483 608.81 164.84C613.781 165.147 618.73 165.235 623.708 165.19C623.171 164.052 622.134 163.893 621.06 163.438C620.841 163.67 620.623 163.901 620.398 164.139C619.693 164.156 619.693 164.156 618.887 164.052C618.487 164.005 618.487 164.005 618.079 163.958C617.861 163.902 617.643 163.846 617.418 163.789C617.309 163.557 617.199 163.326 617.087 163.088C616.083 162.428 615.681 162.387 614.438 162.387ZM588.947 163.088C588.837 163.55 588.728 164.013 588.616 164.49C588.943 164.49 589.271 164.49 589.609 164.49C589.609 164.027 589.609 163.564 589.609 163.088C589.39 163.088 589.172 163.088 588.947 163.088ZM590.933 163.088C590.933 163.55 590.933 164.013 590.933 164.49C591.59 164.396 591.59 164.396 592.257 164.139C592.367 163.792 592.476 163.445 592.588 163.088C592.042 163.088 591.496 163.088 590.933 163.088ZM762.423 163.088C762.532 163.55 762.641 164.013 762.754 164.49C761.988 164.73 761.988 164.73 761.098 164.84C760.873 164.591 760.873 164.591 760.643 164.336C760.093 163.654 760.093 163.654 758.967 163.745C758.383 163.767 758.383 163.767 757.788 163.789C756.981 163.614 756.981 163.614 756.464 163.438C756.136 164.132 755.808 164.826 755.47 165.541C755.886 165.562 756.302 165.583 756.73 165.605C757.289 165.635 757.849 165.664 758.409 165.694C758.697 165.709 758.985 165.725 759.282 165.741C760.756 165.822 762.218 165.926 763.685 166.11C764.571 166.217 765.151 166.227 766.044 166.066C767.346 165.841 768.52 166.026 769.826 166.175C770.827 166.251 771.712 166.142 772.686 165.891C772.686 165.66 772.686 165.429 772.686 165.19C772.904 165.19 773.123 165.19 773.348 165.19C773.512 165.711 773.512 165.711 773.679 166.242C774.334 166.357 774.99 166.473 775.665 166.592C774.913 165.296 774.913 165.296 773.663 164.646C773.009 164.565 772.35 164.524 771.692 164.49C771.692 164.836 771.692 165.183 771.692 165.541C770.741 165.475 770.741 165.475 769.706 165.19C769.251 164.292 769.251 164.292 769.044 163.438C768.279 163.438 767.514 163.438 766.726 163.438C766.617 163.67 766.508 163.901 766.395 164.139C765.713 164.358 765.713 164.358 765.071 164.49C765.071 164.143 765.071 163.796 765.071 163.438C764.197 163.323 763.323 163.207 762.423 163.088ZM366.474 163.438C366.474 163.67 366.474 163.901 366.474 164.139C366.802 164.024 367.129 163.908 367.467 163.789C367.139 163.673 366.811 163.557 366.474 163.438ZM584.974 163.438C584.974 163.67 584.974 163.901 584.974 164.139C585.63 164.139 586.285 164.139 586.96 164.139C586.96 163.908 586.96 163.677 586.96 163.438C586.305 163.438 585.649 163.438 584.974 163.438ZM596.561 163.438C596.561 163.67 596.561 163.901 596.561 164.139C596.998 164.024 597.435 163.908 597.885 163.789C597.448 163.673 597.011 163.557 596.561 163.438ZM647.213 163.789C647.323 164.367 647.432 164.945 647.544 165.541C649.613 165.869 651.462 165.851 653.541 165.631C654.75 165.517 655.933 165.516 657.145 165.541C657.145 165.31 657.145 165.078 657.145 164.84C655.619 164.25 655.619 164.25 654.042 164.336C652.849 164.547 652.027 164.135 650.916 163.681C649.632 163.25 648.493 163.488 647.213 163.789ZM599.81 163.767C599.612 163.89 599.414 164.013 599.21 164.139C599.865 164.486 599.865 164.486 600.534 164.84C600.862 164.493 601.189 164.146 601.527 163.789C600.57 163.322 600.57 163.322 599.81 163.767ZM607.486 163.789C607.814 164.309 607.814 164.309 608.148 164.84C608.148 164.493 608.148 164.146 608.148 163.789C607.93 163.789 607.711 163.789 607.486 163.789ZM780.3 163.789C780.191 164.02 780.081 164.251 779.969 164.49C780.297 164.374 780.624 164.258 780.962 164.139C780.744 164.024 780.525 163.908 780.3 163.789ZM340.982 164.139C341.591 164.941 341.591 164.941 342.513 164.884C342.773 164.869 343.032 164.855 343.3 164.84C343.3 164.609 343.3 164.377 343.3 164.139C342.535 164.139 341.77 164.139 340.982 164.139ZM625.363 164.139C625.254 164.602 625.145 165.064 625.032 165.541C625.469 165.31 625.906 165.078 626.357 164.84C626.357 164.609 626.357 164.377 626.357 164.139C626.029 164.139 625.701 164.139 625.363 164.139ZM626.688 164.139C626.797 164.486 626.906 164.833 627.019 165.19C627.456 165.075 627.893 164.959 628.343 164.84C627.524 164.493 627.524 164.493 626.688 164.139ZM639.93 164.139C639.712 164.37 639.493 164.602 639.268 164.84C640.646 165.812 642.12 166.037 643.737 165.738C643.901 165.673 644.065 165.608 644.234 165.541C644.125 165.194 644.015 164.847 643.903 164.49C643.255 164.412 642.607 164.34 641.958 164.271C641.597 164.23 641.236 164.189 640.864 164.147C640.556 164.145 640.248 164.142 639.93 164.139ZM645.558 164.139C645.449 164.486 645.34 164.833 645.227 165.19C645.555 165.075 645.883 164.959 646.22 164.84C646.22 164.609 646.22 164.377 646.22 164.139C646.002 164.139 645.783 164.139 645.558 164.139ZM683.961 164.139C683.852 164.37 683.743 164.602 683.63 164.84C683.849 164.84 684.067 164.84 684.292 164.84C684.183 164.609 684.074 164.377 683.961 164.139ZM506.844 164.49C507.062 164.721 507.281 164.952 507.506 165.19C507.506 164.959 507.506 164.728 507.506 164.49C507.287 164.49 507.069 164.49 506.844 164.49ZM635.626 164.139C634.479 164.66 634.479 164.66 633.309 165.19C633.637 165.711 633.637 165.711 633.971 166.242C634.736 166.01 635.5 165.779 636.288 165.541C636.07 165.078 635.851 164.616 635.626 164.139ZM668.112 165.015C667.989 165.189 667.866 165.362 667.739 165.541C668.329 166.165 669.194 166.039 669.995 166.11C670.345 166.144 670.695 166.177 671.056 166.212C671.925 166.238 672.549 166.172 673.367 165.891C673.258 165.544 673.149 165.197 673.036 164.84C672.708 164.84 672.381 164.84 672.043 164.84C672.043 165.071 672.043 165.303 672.043 165.541C671.715 165.541 671.388 165.541 671.05 165.541C670.941 165.194 670.831 164.847 670.719 164.49C669.309 164.347 669.309 164.347 668.112 165.015ZM684.954 164.49C684.954 164.721 684.954 164.952 684.954 165.19C685.173 165.19 685.391 165.19 685.617 165.19C685.617 165.537 685.617 165.884 685.617 166.242C686.423 166.147 686.423 166.147 687.272 165.891C687.49 165.544 687.709 165.197 687.934 164.84C686.431 164.204 686.431 164.204 684.954 164.49ZM702.232 164.314C701.42 164.511 700.682 164.514 699.852 164.49C699.852 164.721 699.852 164.952 699.852 165.19C700.289 165.19 700.726 165.19 701.176 165.19C701.395 165.653 701.613 166.116 701.839 166.592C702.494 166.592 703.149 166.592 703.825 166.592C703.77 166.383 703.716 166.173 703.659 165.957C703.494 165.19 703.494 165.19 703.494 164.139C702.834 164.108 702.834 164.108 702.232 164.314ZM201.937 164.49C201.578 164.739 201.578 164.739 201.212 164.993C200.316 165.52 199.632 165.739 198.626 165.891C198.626 166.007 198.626 166.123 198.626 166.242C200.91 166.571 202.711 166.64 204.916 165.891C204.916 165.776 204.916 165.66 204.916 165.541C204.486 165.497 204.056 165.454 203.613 165.409C202.879 165.336 202.879 165.336 202.268 165.19C202.158 164.959 202.049 164.728 201.937 164.49ZM515.451 164.49C515.233 164.721 515.014 164.952 514.789 165.19C515.117 165.19 515.445 165.19 515.782 165.19C515.673 164.959 515.564 164.728 515.451 164.49ZM662.442 165.19C662.442 165.306 662.442 165.422 662.442 165.541C663.972 165.541 665.501 165.541 667.077 165.541C666.749 165.194 666.422 164.847 666.084 164.49C664.732 164.49 663.726 164.772 662.442 165.19ZM312.18 165.19C312.18 165.422 312.18 165.653 312.18 165.891C312.617 165.776 313.054 165.66 313.504 165.541C313.067 165.425 312.63 165.31 312.18 165.19ZM307.545 165.541C307.436 165.772 307.326 166.003 307.214 166.242C308.361 166.068 308.361 166.068 309.531 165.891C309.531 165.776 309.531 165.66 309.531 165.541C308.876 165.541 308.22 165.541 307.545 165.541ZM317.477 165.891C317.477 166.123 317.477 166.354 317.477 166.592C318.023 166.476 318.569 166.361 319.132 166.242C319.023 166.01 318.914 165.779 318.801 165.541C318.114 165.489 318.114 165.489 317.477 165.891ZM696.542 165.541C696.214 165.888 695.886 166.235 695.548 166.592C696.095 166.476 696.641 166.361 697.204 166.242C696.985 166.01 696.767 165.779 696.542 165.541ZM698.528 165.891C698.528 166.238 698.528 166.585 698.528 166.943C698.965 166.943 699.402 166.943 699.852 166.943C699.852 166.596 699.852 166.249 699.852 165.891C699.415 165.891 698.978 165.891 698.528 165.891ZM329.064 166.242C329.064 166.473 329.064 166.704 329.064 166.943C329.392 166.827 329.719 166.711 330.057 166.592C329.729 166.476 329.402 166.361 329.064 166.242ZM708.791 166.242C709.282 166.589 709.282 166.589 709.784 166.943C710.221 166.711 710.658 166.48 711.108 166.242C710.343 166.242 709.579 166.242 708.791 166.242ZM720.709 166.943C720.818 167.174 720.927 167.405 721.04 167.643C721.914 167.643 722.788 167.643 723.689 167.643C723.798 167.181 723.907 166.718 724.02 166.242C722.258 166.138 722.258 166.138 720.709 166.943ZM308.869 167.293C309.2 167.994 309.2 167.994 309.2 167.994L308.869 167.293ZM731.303 167.293C731.521 167.524 731.74 167.756 731.965 167.994C731.965 167.763 731.965 167.531 731.965 167.293C731.747 167.293 731.528 167.293 731.303 167.293ZM547.895 167.643C548.226 168.344 548.226 168.344 548.226 168.344L547.895 167.643ZM726.668 167.293C726.45 167.524 726.231 167.756 726.006 167.994C726.443 167.878 726.88 167.763 727.33 167.643C727.112 167.528 726.893 167.412 726.668 167.293ZM461.819 168.344C461.819 168.576 461.819 168.807 461.819 169.045C462.256 169.161 462.693 169.276 463.144 169.395C463.034 169.049 462.925 168.702 462.812 168.344C462.485 168.344 462.157 168.344 461.819 168.344ZM603.513 169.395C603.513 169.511 603.513 169.627 603.513 169.746C604.169 169.746 604.824 169.746 605.5 169.746C605.5 169.63 605.5 169.515 605.5 169.395C604.844 169.395 604.189 169.395 603.513 169.395Z" fill="#A8D5BA"/>
</g>
<defs>
<filter id="filter0_d_1071_1341" x="0" y="0.47583" width="871" height="243" filterUnits="userSpaceOnUse" color-interpolation-filters="sRGB">
<feFlood flood-opacity="0" result="BackgroundImageFix"/>
<feColorMatrix in="SourceAlpha" type="matrix" values="0 0 0 0 0 0 0 0 0 0 0 0 0 0 0 0 0 0 127 0" result="hardAlpha"/>
<feOffset dy="21"/>
<feGaussianBlur stdDeviation="23.5"/>
<feColorMatrix type="matrix" values="0 0 0 0 0.168627 0 0 0 0 0.101961 0 0 0 0 0.0117647 0 0 0 0.1 0"/>
<feBlend mode="normal" in2="BackgroundImageFix" result="effect1_dropShadow_1071_1341"/>
<feBlend mode="normal" in="SourceGraphic" in2="effect1_dropShadow_1071_1341" result="shape"/>
</filter>
</defs>
</svg>
