<svg width="76" height="47" viewBox="0 0 76 47" fill="none" xmlns="http://www.w3.org/2000/svg">
<path fill-rule="evenodd" clip-rule="evenodd" d="M53.01 6.24845C52.66 5.9181 52.3793 5.51972 52.1845 5.07709C51.9898 4.63445 51.8851 4.15663 51.8767 3.67212C51.8683 3.18761 51.9562 2.70634 52.1354 2.25702C52.3146 1.80771 52.5813 1.39955 52.9196 1.05689C53.2579 0.71424 53.6608 0.444113 54.1044 0.262627C54.548 0.0811402 55.0231 -0.00798703 55.5015 0.000561578C55.9798 0.00911019 56.4516 0.11516 56.8886 0.312384C57.3256 0.509608 57.7189 0.793965 58.045 1.14849L73.4825 16.7852L76 19.3351L73.4825 21.8851L58.045 37.5218C57.3697 38.1592 56.4764 38.5062 55.5535 38.4897C54.6306 38.4732 53.75 38.0945 53.0973 37.4334C52.4446 36.7722 52.0707 35.8803 52.0544 34.9454C52.0381 34.0106 52.3807 33.1059 53.01 32.4218L62.3675 22.9436H15.4375C14.3459 22.9436 13.265 23.1614 12.2564 23.5845C11.2479 24.0076 10.3316 24.6278 9.55967 25.4097C8.78779 26.1915 8.17549 27.1197 7.75775 28.1412C7.34001 29.1628 7.125 30.2576 7.125 31.3633C7.125 32.469 7.34001 33.5639 7.75775 34.5854C8.17549 35.607 8.78779 36.5352 9.55967 37.317C10.3316 38.0988 11.2479 38.719 12.2564 39.1422C13.265 39.5653 14.3459 39.7831 15.4375 39.7831H24.9375C25.8823 39.7831 26.7885 40.1633 27.4566 40.84C28.1247 41.5167 28.5 42.4345 28.5 43.3915C28.5 44.3486 28.1247 45.2664 27.4566 45.9431C26.7885 46.6198 25.8823 47 24.9375 47H15.4375C11.3432 47 7.41663 45.3526 4.52154 42.4201C1.62645 39.4877 0 35.5104 0 31.3633C0 27.2162 1.62645 23.239 4.52154 20.3065C7.41663 17.3741 11.3432 15.7267 15.4375 15.7267H62.3675L53.01 6.24845Z" fill="#A8D5BA"/>
</svg>
